<?xml version="1.0" encoding="utf-8" ?>
<svg xmlns="http://www.w3.org/2000/svg" xmlns:xlink="http://www.w3.org/1999/xlink" width="512" height="512">
	<path fill="#FD5802" transform="scale(0.5 0.5)" d="M262.345 890.908C283.537 869.374 305.328 847.185 319.875 820.489C323.865 831.216 325.991 843.026 326.621 854.461C320.79 878.315 312.045 899.75 299.193 920.684C294.069 929.031 288.335 937.551 281.715 944.798L262.345 890.908Z"/>
	<defs>
		<linearGradient id="gradient_0" gradientUnits="userSpaceOnUse" x1="947.25" y1="149.25" x2="893.21698" y2="-31.5702">
			<stop offset="0" stop-color="#FC5101"/>
			<stop offset="1" stop-color="#E43019"/>
		</linearGradient>
	</defs>
	<path fill="url(#gradient_0)" transform="scale(0.5 0.5)" d="M676.689 94.886C652.369 92.8215 627.491 89.5252 605.074 79.25C593.499 73.9445 582.973 66.6931 572.969 58.8868C583.195 62.8659 594.6 63.368 605.474 62.7173C624.008 61.6083 642.533 57.3675 660.04 51.2729C677.032 45.3573 692.528 37.9884 710.472 34.7284C726.447 31.8262 743.129 30.4984 759.339 29.9668C771.119 29.5806 783.274 29.3428 795.034 30.3633C834.196 33.7613 870.971 47.1457 901.921 71.604C919.247 85.2955 934.01 101.85 942.996 122.202C947.054 131.394 949.414 141.741 947.764 151.733C943.115 145.651 938.869 139.214 933.338 133.847C930.327 129.508 925.959 125.591 922.197 121.883C899.581 99.597 871.777 83.9585 841.613 74.5138C838.065 73.4027 834.412 72.6861 830.817 71.7382C828.092 71.0195 825.306 69.9437 822.524 69.5331C819.921 69.149 817.228 69.3817 814.614 68.9964C812.444 68.6767 810.399 67.6823 808.25 67.4553C804.965 67.1083 801.294 67.426 797.977 67.4483C791.14 67.4941 784.301 67.623 777.468 67.867C774.976 67.956 770.209 67.6776 768.171 69.0563L767.595 69.5721L766.835 70.171L766.25 70.6512C765.265 70.8289 764.575 70.9707 763.593 70.6951C758.441 69.2502 755.327 72.7382 750.571 72.6152C747.782 72.5431 744.461 74.0352 741.776 74.8614C727.665 79.2024 713.783 85.0085 700.004 90.3191C697.668 91.2194 695.272 92.6667 692.893 93.3397C687.772 94.7879 681.962 94.4419 676.689 94.886Z"/>
	<path fill="#FD5802" transform="scale(0.5 0.5)" d="M258.622 593.918C269.899 569.429 279.162 543.985 290.606 519.563C328.904 437.839 373.573 358.748 429.165 287.499C451.034 259.471 474.406 232.369 500.079 207.731C506.844 201.238 514.12 195.315 521.309 189.305C548.785 166.335 581.631 143.536 617.916 138.397C624.283 137.495 631.104 138.027 637.521 138.168C639.03 141.278 641.619 143.896 643.925 146.439C648.576 151.565 653.581 156.378 658.424 161.322C661.517 164.48 664.361 168.009 667.749 170.85C669.578 172.384 671.491 173.608 673.598 174.717C663.721 175.209 654.596 175.188 644.786 177.126C630.082 180.032 616.062 185.448 602.429 191.555C563.951 208.792 528.604 234.117 497.342 262.258C486.528 271.993 476.591 282.67 466.252 292.9C456.915 302.138 447.467 311.258 438.179 320.547C435.429 323.296 431.928 325.957 429.447 328.866L428.798 329.75C429.254 330.715 429.863 331.387 430.568 332.18C415.435 347.053 400.923 362.366 387.666 378.964C359.534 414.184 337.309 453.326 317.149 493.486C314.173 499.413 311.562 505.487 308.779 511.502C306.389 516.668 302.563 522.781 302.546 528.659L302.678 531.519C297.199 543.76 292.661 556.283 288.248 568.938C286.706 573.359 284.551 578.12 283.689 582.695C283.448 583.973 283.603 585.253 283.783 586.527L275.207 603.553L274.627 603.401C274.01 604.103 272.907 605.537 272.755 606.5C272.611 607.413 272.498 607.653 272.125 608.503L271.5 610L271.002 610.503C270.745 611.596 270.462 612.524 269.877 613.5L269.502 614.003L269.5 614.75C269.168 616.07 268.625 616.305 267.5 616.75C267.946 617.791 267.921 617.658 268.75 618.255C268.59 619.017 268.437 619.609 268.594 620.39L269 622.25L267.5 622.755L264.998 621.503C263.565 620.879 263.208 619.713 261.998 619.003C260.896 618.355 260.413 617.963 259.497 617.003L258.75 617C258.16 616.122 257.924 615.981 256.998 615.503C256.264 615.124 255.617 614.847 254.952 614.348L254.498 614.003C253.559 613.54 251.71 613.257 250.998 612.503C250.553 612.032 250.922 611.26 250 610.755C248.599 609.988 249.828 611.202 248.625 609.753L251.5 605.5L252.125 604.625C252.735 603.427 252.981 603.262 253.998 602.375L254 601.75L254.998 600.875C256.82 598.463 254.326 601.305 256.03 599.383L256.498 598.875C256.503 597.573 258.324 596.177 258.904 594.862L258.622 593.918Z"/>
	<path fill="#253848" transform="scale(0.5 0.5)" d="M933.338 133.847C938.869 139.214 943.115 145.651 947.764 151.733C948.16 157.109 952.205 163.446 954.009 168.679C955.202 172.139 956.314 175.678 957.126 179.247C957.647 181.541 957.903 184.009 958.664 186.221C960.744 190.931 961.803 195.719 963.021 200.692C967.529 219.108 968.132 237.941 966.559 256.757C966.211 260.923 966.285 265.066 965.282 269.151C963.941 274.617 963.006 280.155 961.452 285.579C954.088 311.276 940.632 338.495 917.095 352.964L911.976 355.787C919.307 345.156 924.617 331.983 925.842 319C926.715 309.742 925.647 300.8 923.941 291.727C922.604 284.619 920.315 277.467 917.959 270.635C915.957 264.832 913.693 258.457 910.332 253.278L910.07 253.725C906.926 258.997 902.699 263.571 898.562 268.069C886.582 281.091 873.207 292.058 855.609 296.355C844.506 299.066 832.191 298.539 820.977 296.665C811.75 294.014 800.804 290.33 794.609 282.5C794.324 278.302 795.825 274.662 797.359 270.846C801.467 260.626 807.499 251.153 812.96 241.614C817.865 233.047 822.716 224.445 827.707 215.929L833.824 207.552L848.781 180.977C853.608 173.096 860.625 166.571 868.002 161.105C876.259 154.987 883.45 150.72 893.459 148.289L892.93 148.993C892.368 149.728 891.801 150.216 891.041 150.75C890.891 152.241 891.262 152.848 892.25 153.986C894.433 156.501 897.969 158.598 901.327 158.578C902.329 158.572 903.088 158.58 903.965 158.062C905.475 157.499 906.725 156.495 907.572 155.108C908.294 153.924 908.659 152.516 908.303 151.149C907.858 149.435 906.669 147.316 905.003 146.538L904.316 146.25L904.84 145.359C911.811 142.652 918.558 137.964 925.82 136.289C927.362 135.933 928.654 135.481 930.25 135.755L930.5 136.75L929.625 137.125C930.693 137.199 931.215 136.972 932 137.75L931.125 138.125C932.086 138.216 932.287 138.044 933 138.75L932.125 139.125C932.997 139.239 933.585 139.367 934.429 139.029L935 138.755L935.755 138.5C935.477 137.76 935.339 137.035 934.726 136.502C933.782 135.68 933.019 135.044 932.267 134.011L933.338 133.847ZM933.338 133.847L932.267 134.011C933.019 135.044 933.782 135.68 934.726 136.502C935.339 137.035 935.477 137.76 935.755 138.5L935 138.755L934.429 139.029C933.585 139.367 932.997 139.239 932.125 139.125L933 138.75C932.287 138.044 932.086 138.216 931.125 138.125L932 137.75C931.215 136.972 930.693 137.199 929.625 137.125L930.5 136.75L930.25 135.755C928.654 135.481 927.362 135.933 925.82 136.289C918.558 137.964 911.811 142.652 904.84 145.359L904.316 146.25L905.003 146.538C906.669 147.316 907.858 149.435 908.303 151.149C908.659 152.516 908.294 153.924 907.572 155.108C906.725 156.495 905.475 157.499 903.965 158.062C903.088 158.58 902.329 158.572 901.327 158.578C897.969 158.598 894.433 156.501 892.25 153.986C891.262 152.848 890.891 152.241 891.041 150.75C891.801 150.216 892.368 149.728 892.93 148.993L893.459 148.289C883.45 150.72 876.259 154.987 868.002 161.105C860.625 166.571 853.608 173.096 848.781 180.977L833.824 207.552L889.86 240.917C892.28 242.269 895.637 244.834 898.224 245.458C898.358 242.497 898.98 240.853 901.157 238.784L902.808 238.096L901.782 236.505C896.186 225.709 885.706 215.578 877.258 206.828C874.079 203.536 870.372 200.323 867.901 196.455C872.114 192.555 879.975 189.414 885.592 188.487C889.689 187.811 894.028 188.06 898.17 188.045C905.016 188.019 911.863 188.025 918.709 187.965C932.025 187.848 945.373 187.002 958.664 186.221C957.903 184.009 957.647 181.541 957.126 179.247C956.314 175.678 955.202 172.139 954.009 168.679C952.205 163.446 948.16 157.109 947.764 151.733C943.115 145.651 938.869 139.214 933.338 133.847ZM901.157 238.784C898.98 240.853 898.358 242.497 898.224 245.458L908.173 252.25L909.755 251.757C908.762 247.585 906.059 242.937 903.565 239.442C902.709 238.987 902.12 238.867 901.157 238.784Z"/>
	<path fill="#DDDCDB" transform="scale(0.5 0.5)" d="M933.338 133.847C938.869 139.214 943.115 145.651 947.764 151.733C948.16 157.109 952.205 163.446 954.009 168.679C955.202 172.139 956.314 175.678 957.126 179.247C957.647 181.541 957.903 184.009 958.664 186.221C945.373 187.002 932.025 187.848 918.709 187.965C911.863 188.025 905.016 188.019 898.17 188.045C894.028 188.06 889.689 187.811 885.592 188.487C879.975 189.414 872.114 192.555 867.901 196.455C870.372 200.323 874.079 203.536 877.258 206.828C885.706 215.578 896.186 225.709 901.782 236.505L902.808 238.096L901.157 238.784C898.98 240.853 898.358 242.497 898.224 245.458C895.637 244.834 892.28 242.269 889.86 240.917L833.824 207.552L848.781 180.977C853.608 173.096 860.625 166.571 868.002 161.105C876.259 154.987 883.45 150.72 893.459 148.289L892.93 148.993C892.368 149.728 891.801 150.216 891.041 150.75C890.891 152.241 891.262 152.848 892.25 153.986C894.433 156.501 897.969 158.598 901.327 158.578C902.329 158.572 903.088 158.58 903.965 158.062C905.475 157.499 906.725 156.495 907.572 155.108C908.294 153.924 908.659 152.516 908.303 151.149C907.858 149.435 906.669 147.316 905.003 146.538L904.316 146.25L904.84 145.359C911.811 142.652 918.558 137.964 925.82 136.289C927.362 135.933 928.654 135.481 930.25 135.755L930.5 136.75L929.625 137.125C930.693 137.199 931.215 136.972 932 137.75L931.125 138.125C932.086 138.216 932.287 138.044 933 138.75L932.125 139.125C932.997 139.239 933.585 139.367 934.429 139.029L935 138.755L935.755 138.5C935.477 137.76 935.339 137.035 934.726 136.502C933.782 135.68 933.019 135.044 932.267 134.011L933.338 133.847ZM889.86 240.917C892.28 242.269 895.637 244.834 898.224 245.458C898.358 242.497 898.98 240.853 901.157 238.784L902.808 238.096L901.782 236.505C901.028 236.312 900.543 236.386 900.069 235.744C899.272 234.665 898.745 234.009 897.5 233.407C895.936 234.164 896.041 235.623 895.016 236.25C894.103 236.809 891.772 236.813 890.687 236.875C891.428 237.697 891.476 237.545 892.5 237.75L891.5 238.75L890.75 237.755L889.755 238.75L890.297 239.912L889.86 240.917Z"/>
	<path fill="#DAE0E4" fill-opacity="0.90588236" transform="scale(0.5 0.5)" d="M889.86 240.917L890.297 239.912L889.755 238.75L890.75 237.755L891.5 238.75L892.5 237.75C891.476 237.545 891.428 237.697 890.687 236.875C891.772 236.813 894.103 236.809 895.016 236.25C896.041 235.623 895.936 234.164 897.5 233.407C898.745 234.009 899.272 234.665 900.069 235.744C900.543 236.386 901.028 236.312 901.782 236.505L902.808 238.096L901.157 238.784C898.98 240.853 898.358 242.497 898.224 245.458C895.637 244.834 892.28 242.269 889.86 240.917Z"/>
	<path fill="#FEE666" transform="scale(0.5 0.5)" d="M676.689 94.886C681.962 94.4419 687.772 94.7879 692.893 93.3397C695.272 92.6667 697.668 91.2194 700.004 90.3191C713.783 85.0085 727.665 79.2024 741.776 74.8614C744.461 74.0352 747.782 72.5431 750.571 72.6152C755.327 72.7382 758.441 69.2502 763.593 70.6951C764.575 70.9707 765.265 70.8289 766.25 70.6512L766.835 70.171L767.595 69.5721L768.171 69.0563C770.209 67.6776 774.976 67.956 777.468 67.867C784.301 67.623 791.14 67.4941 797.977 67.4483C801.294 67.426 804.965 67.1083 808.25 67.4553C810.399 67.6823 812.444 68.6767 814.614 68.9964C817.228 69.3817 819.921 69.149 822.524 69.5331C825.306 69.9437 828.092 71.0195 830.817 71.7382C834.412 72.6861 838.065 73.4027 841.613 74.5138C871.777 83.9585 899.581 99.597 922.197 121.883C925.959 125.591 930.327 129.508 933.338 133.847L932.267 134.011C933.019 135.044 933.782 135.68 934.726 136.502C935.339 137.035 935.477 137.76 935.755 138.5L935 138.755L934.429 139.029C933.585 139.367 932.997 139.239 932.125 139.125L933 138.75C932.287 138.044 932.086 138.216 931.125 138.125L932 137.75C931.215 136.972 930.693 137.199 929.625 137.125L930.5 136.75L930.25 135.755C928.654 135.481 927.362 135.933 925.82 136.289C918.558 137.964 911.811 142.652 904.84 145.359L904.316 146.25L905.003 146.538C906.669 147.316 907.858 149.435 908.303 151.149C908.659 152.516 908.294 153.924 907.572 155.108C906.725 156.495 905.475 157.499 903.965 158.062C903.088 158.58 902.329 158.572 901.327 158.578C897.969 158.598 894.433 156.501 892.25 153.986C891.262 152.848 890.891 152.241 891.041 150.75C891.801 150.216 892.368 149.728 892.93 148.993L893.459 148.289C883.45 150.72 876.259 154.987 868.002 161.105C860.625 166.571 853.608 173.096 848.781 180.977L833.824 207.552L827.707 215.929C827.773 214.608 828.064 213.806 828.633 212.647C828.969 211.962 828.714 211.368 828.614 210.625L829.625 211.375L830.255 210.5C830.933 209.669 831.379 208.967 831.878 208L830.755 207.25L832 207L832.255 206.5L831.255 205.25L830.503 203.998C829.912 203.198 829.304 202.659 828.848 201.749L827.755 199.5C827.326 198.605 827.025 197.993 826.379 197.218L825.003 195.498L825 194.75L823.003 192.998L823 192.25L817.003 186.498L817 185.75L816.25 185.745C815.377 184.852 814.531 183.963 813.5 183.245C812.714 182.698 812.032 182.308 811.344 181.623L810.875 181.125L809.5 181.245L808.755 180.75L807.83 180.763C806.147 180.777 805.692 180.686 804.5 179.5L803.875 179.998C802.914 180.001 802.901 180.346 802.25 181L802.245 181.75L800.125 184.248C799.518 185.197 799.083 185.973 798.359 186.88L797.374 186.608C791.202 193.214 786.078 195.409 777.618 197.931C776.323 198.317 774.194 199.508 772.945 199.418C768.454 199.093 763.051 198.287 758.75 196.962C748.489 193.802 743.161 185.721 738.432 176.689C733.945 178.333 728.956 179.226 724.298 180.317C717.621 181.881 710.1 184.013 703.25 184.1C699.261 181.383 694.06 181.331 689.5 179.992C684.139 178.419 679.031 176.173 673.598 174.717C671.491 173.608 669.578 172.384 667.749 170.85C664.361 168.009 661.517 164.48 658.424 161.322C653.581 156.378 648.576 151.565 643.925 146.439C641.619 143.896 639.03 141.278 637.521 138.168C650.112 130.623 661.579 121.1 669.636 108.716C672.398 104.472 674.636 99.5093 676.689 94.886Z"/>
	<path fill="#FCEB85" transform="scale(0.5 0.5)" d="M893.459 148.289C895.663 147.329 898.166 146.962 900.5 146.41L901.75 146.255L902.25 146.795C903.91 148.008 905.301 147.569 906.461 149.75C907.049 150.857 907.202 152.156 906.839 153.357C906.406 154.788 904.87 156.269 903.839 157.309L903.965 158.062C903.088 158.58 902.329 158.572 901.327 158.578C897.969 158.598 894.433 156.501 892.25 153.986C891.262 152.848 890.891 152.241 891.041 150.75C891.801 150.216 892.368 149.728 892.93 148.993L893.459 148.289Z"/>
	<path fill="#284B4A" transform="scale(0.5 0.5)" d="M738.432 176.689C736.833 171.075 736.339 164.747 737.409 159L737.506 158.394C738.822 150.878 745.204 142.238 751.406 137.912C759.364 132.361 771.367 130.88 780.807 132.75C789.186 134.41 797.51 141.277 802.01 148.307C805.742 154.136 807.616 161.623 806.577 168.5L806.462 169.297C805.421 175.893 801.013 181.259 797.374 186.608C791.202 193.214 786.078 195.409 777.618 197.931C776.323 198.317 774.194 199.508 772.945 199.418C768.454 199.093 763.051 198.287 758.75 196.962C748.489 193.802 743.161 185.721 738.432 176.689Z"/>
	<path fill="#794D2C" transform="scale(0.5 0.5)" d="M629.138 665.453L764.981 612.372C774.399 624.282 783.761 636.286 793.32 648.081C797.797 653.606 803.522 658.899 807.082 665.001C785.958 672.49 765.318 681.195 744.451 689.35C725.185 696.878 705.705 703.956 686.369 711.316C672.926 716.434 659.462 721.054 645.853 725.691C635.343 729.272 625.651 732.934 614.639 734.996C629.966 748.544 647.459 760.122 663.782 772.488C699.344 799.428 735.094 826.127 770.58 853.169C791.688 869.254 813.251 885.489 832.503 903.771C851.462 921.775 868.491 941.691 887.423 959.77C898.86 970.693 912.437 978.877 923.565 990.317L923.313 1024L917.672 1024L900.528 1024L899.655 1024C899.732 1022.88 899.622 1023.22 899.959 1022.31L900.185 1021.75C897.271 1021.13 893.801 1020.62 891.19 1019.14C887.515 1017.04 884.656 1012.37 881.259 1009.65C873.201 1003.22 864.458 997.523 856.849 990.535C851.9 985.991 847.66 980.568 842.932 975.774C829.697 962.355 816.389 948.922 802.917 935.746C790.815 923.91 777.091 914.069 763.764 903.699C742.552 887.192 721.175 870.956 699.687 854.809C673.848 835.392 647.925 816.073 622.015 796.75C609.38 787.327 596.991 777.44 584.096 768.381C574.826 761.87 565.056 756.151 555.473 750.133C540.813 740.926 526.049 731.27 510.313 723.99C499.103 718.803 487.699 714.054 476.207 709.532C468.336 706.435 460.362 703.633 452.652 700.14C444.925 695.253 434.655 692.251 425.941 689.6L453.87 666.069C458.453 668.705 464.202 669.621 469.292 670.963C480.92 674.03 492.33 676.871 504.185 678.935C510.966 669.076 518.239 659.374 527.666 651.857C528.93 650.314 530.688 649.03 532.13 647.635C534.67 645.178 537.115 642.608 539.584 640.079C542.115 639.494 545.6 640.604 548.115 641.183C556.545 643.124 564.818 645.723 573.043 648.391C581.818 651.039 590.622 653.624 599.466 656.029C609.3 658.703 620.405 660.064 629.138 665.453ZM527.666 651.857C518.239 659.374 510.966 669.076 504.185 678.935C515.214 679.322 526.119 687.037 537.161 684.53C540.888 683.685 544.38 681.699 548.046 680.537C545.999 677.345 542.003 675.234 539 672.981C534.959 669.948 531.09 666.361 528.312 662.128C528.312 658.432 529.594 655.026 530.782 651.58C529.726 651.788 528.737 651.817 527.666 651.857Z"/>
	<path fill="#DDDCDB" transform="scale(0.5 0.5)" d="M900.528 1024C900.751 1022.9 900.76 1022.61 901.528 1021.75C906.761 1022.28 912.621 1022.55 917.672 1024L900.528 1024Z"/>
	<path fill="#DDDCDB" transform="scale(0.5 0.5)" d="M539.584 640.079C542.115 639.494 545.6 640.604 548.115 641.183C556.545 643.124 564.818 645.723 573.043 648.391C581.818 651.039 590.622 653.624 599.466 656.029C609.3 658.703 620.405 660.064 629.138 665.453C631.291 668.126 633.732 670.84 635.578 673.729C640.233 681.017 643.917 692.749 642.825 701.5C642.265 705.99 639.938 710.292 636.25 712.97C631.852 716.164 625.277 716.795 620.013 715.94C613.005 714.802 607.1 706.429 600.75 703.092C587.886 696.332 573.585 691.231 560.198 685.559C556.456 683.973 551.457 682.6 548.046 680.537C545.999 677.345 542.003 675.234 539 672.981C534.959 669.948 531.09 666.361 528.312 662.128C528.312 658.432 529.594 655.026 530.782 651.58C529.726 651.788 528.737 651.817 527.666 651.857C528.93 650.314 530.688 649.03 532.13 647.635C534.67 645.178 537.115 642.608 539.584 640.079Z"/>
	<defs>
		<linearGradient id="gradient_1" gradientUnits="userSpaceOnUse" x1="451.25" y1="705.25" x2="103.866" y2="662.013">
			<stop offset="0" stop-color="#E74707"/>
			<stop offset="1" stop-color="#EF0057"/>
		</linearGradient>
	</defs>
	<path fill="url(#gradient_1)" transform="scale(0.5 0.5)" d="M275.207 603.553L269.102 618.032C271.798 617.843 275.199 616.021 277.719 615.011C282.369 613.148 287.045 611.406 291.786 609.786C299.664 607.094 307.699 604.846 315.579 602.166C335.47 595.398 355.209 588.006 374.938 580.771C395.94 573.07 417.08 565.514 437.696 556.827C437.366 561.83 435.281 566.206 433.464 570.82C430.786 577.622 427.98 584.365 425.181 591.118C421.222 600.67 417.403 610.29 413.639 619.92C398.372 658.982 384.148 698.522 367.933 737.198L425.941 689.6C434.655 692.251 444.925 695.253 452.652 700.14C451.814 708.646 449.706 716.946 447.856 725.278C445.721 734.895 443.731 744.677 440.75 754.072C434.378 774.153 424.392 793.576 414.152 811.916C409.563 820.134 404.453 830.088 397.53 836.562L384.537 790.875C382.531 801.063 380.532 811.218 377.429 821.142C370.758 842.481 360.454 864.242 348.041 882.814C343.825 889.123 339.49 895.43 334.154 900.85C333.994 890.933 331.996 882.392 330.023 872.75C328.783 866.685 327.843 860.539 326.621 854.461C325.991 843.026 323.865 831.216 319.875 820.489C305.328 847.185 283.537 869.374 262.345 890.908C253.454 899.749 245.421 909.382 236.532 918.223C228.716 925.997 220.279 933.082 211.891 940.222C189.262 959.483 165.973 977.076 138.004 988.006C129.58 991.298 120.735 993.804 112 996.12C107.979 997.186 103.847 997.901 99.8978 999.207L99.3935 999.378L99.438 999.066C103.023 995.482 105.813 991.171 108.934 987.179C120.004 973.022 130.578 958.512 139.46 942.869C132.732 946.952 126.164 951.157 119.095 954.652C106.809 960.726 92.4957 965.421 79 967.827C73.0494 968.888 66.9507 969.16 60.9645 970.038C67.5061 964.901 72.7067 958.234 77.7856 951.699C85.164 942.205 92.3023 932.257 98.75 922.103C105.316 911.763 111.318 901.161 118.487 891.198C124.665 882.613 132.434 875.292 139.759 867.704C131.581 871.138 122.242 874.244 113.5 875.675C108.26 876.533 102.975 876.718 97.7598 877.724C103.166 873.565 107.712 867.781 111.876 862.408C129.883 839.167 141.604 811.608 156.601 786.434C159.626 781.357 162.733 776.294 166.31 771.585C168.695 768.444 171.596 765.591 173.712 762.276C165.661 765.159 157.671 767.659 149.25 769.236C144.216 770.179 139.055 770.555 134.081 771.78L133.565 771.911C136.19 770.023 138.793 768.54 141.212 766.339C151.478 756.994 159.063 745.054 166.549 733.5C173.533 722.72 180.446 711.919 187.334 701.078C192.869 692.366 198.871 683.974 204.529 675.345C215.56 658.522 226.36 641.572 237.604 624.888C244.447 614.735 250.737 603.281 258.622 593.918L258.904 594.862C258.324 596.177 256.503 597.573 256.498 598.875L256.03 599.383C254.326 601.305 256.82 598.463 254.998 600.875L254 601.75L253.998 602.375C252.981 603.262 252.735 603.427 252.125 604.625L251.5 605.5L248.625 609.753C249.828 611.202 248.599 609.988 250 610.755C250.922 611.26 250.553 612.032 250.998 612.503C251.71 613.257 253.559 613.54 254.498 614.003L254.952 614.348C255.617 614.847 256.264 615.124 256.998 615.503C257.924 615.981 258.16 616.122 258.75 617L259.497 617.003C260.413 617.963 260.896 618.355 261.998 619.003C263.208 619.713 263.565 620.879 264.998 621.503L267.5 622.755L269 622.25L268.594 620.39C268.437 619.609 268.59 619.017 268.75 618.255C267.921 617.658 267.946 617.791 267.5 616.75C268.625 616.305 269.168 616.07 269.5 614.75L269.502 614.003L269.877 613.5C270.462 612.524 270.745 611.596 271.002 610.503L271.5 610L272.125 608.503C272.498 607.653 272.611 607.413 272.755 606.5C272.907 605.537 274.01 604.103 274.627 603.401L275.207 603.553Z"/>
	<path fill="#FEC901" transform="scale(0.5 0.5)" d="M673.598 174.717C679.031 176.173 684.139 178.419 689.5 179.992C694.06 181.331 699.261 181.383 703.25 184.1C710.1 184.013 717.621 181.881 724.298 180.317C728.956 179.226 733.945 178.333 738.432 176.689C743.161 185.721 748.489 193.802 758.75 196.962C763.051 198.287 768.454 199.093 772.945 199.418C774.194 199.508 776.323 198.317 777.618 197.931C786.078 195.409 791.202 193.214 797.374 186.608L798.359 186.88C799.083 185.973 799.518 185.197 800.125 184.248L802.245 181.75L802.25 181C802.901 180.346 802.914 180.001 803.875 179.998L804.5 179.5C805.692 180.686 806.147 180.777 807.83 180.763L808.755 180.75L809.5 181.245L810.875 181.125L811.344 181.623C812.032 182.308 812.714 182.698 813.5 183.245C814.531 183.963 815.377 184.852 816.25 185.745L817 185.75L817.003 186.498L823 192.25L823.003 192.998L825 194.75L825.003 195.498L826.379 197.218C827.025 197.993 827.326 198.605 827.755 199.5L828.848 201.749C829.304 202.659 829.912 203.198 830.503 203.998L831.255 205.25L832.255 206.5L832 207L830.755 207.25L831.878 208C831.379 208.967 830.933 209.669 830.255 210.5L829.625 211.375L828.614 210.625C828.714 211.368 828.969 211.962 828.633 212.647C828.064 213.806 827.773 214.608 827.707 215.929C822.716 224.445 817.865 233.047 812.96 241.614C807.499 251.153 801.467 260.626 797.359 270.846C795.825 274.662 794.324 278.302 794.609 282.5C800.804 290.33 811.75 294.014 820.977 296.665C821.179 308.606 821.74 320.798 820.705 332.704C818.091 362.787 809.818 393.546 796.391 420.634C789.344 434.851 780.505 448.373 771.198 461.192C757.304 480.329 742.661 497.714 726.21 514.73C719.526 521.644 712.991 528.801 705.984 535.386C677.028 562.599 644.54 585.739 609.63 604.639C603.017 608.219 596.44 611.958 589.64 615.176C584.485 617.615 579.22 619.797 574.044 622.186C574.009 622.202 572.932 622.7 572.931 622.703C572.383 623.799 573.054 645.436 573.043 648.391C564.818 645.723 556.545 643.124 548.115 641.183C545.6 640.604 542.115 639.494 539.584 640.079C537.115 642.608 534.67 645.178 532.13 647.635C530.688 649.03 528.93 650.314 527.666 651.857C518.239 659.374 510.966 669.076 504.185 678.935C492.33 676.871 480.92 674.03 469.292 670.963C464.202 669.621 458.453 668.705 453.87 666.069L425.941 689.6L367.933 737.198C384.148 698.522 398.372 658.982 413.639 619.92C417.403 610.29 421.222 600.67 425.181 591.118C427.98 584.365 430.786 577.622 433.464 570.82C435.281 566.206 437.366 561.83 437.696 556.827C417.08 565.514 395.94 573.07 374.938 580.771C355.209 588.006 335.47 595.398 315.579 602.166C307.699 604.846 299.664 607.094 291.786 609.786C287.045 611.406 282.369 613.148 277.719 615.011C275.199 616.021 271.798 617.843 269.102 618.032L275.207 603.553L283.783 586.527C283.603 585.253 283.448 583.973 283.689 582.695C284.551 578.12 286.706 573.359 288.248 568.938C292.661 556.283 297.199 543.76 302.678 531.519L302.546 528.659C302.563 522.781 306.389 516.668 308.779 511.502C311.562 505.487 314.173 499.413 317.149 493.486C337.309 453.326 359.534 414.184 387.666 378.964C400.923 362.366 415.435 347.053 430.568 332.18C429.863 331.387 429.254 330.715 428.798 329.75L429.447 328.866C431.928 325.957 435.429 323.296 438.179 320.547C447.467 311.258 456.915 302.138 466.252 292.9C476.591 282.67 486.528 271.993 497.342 262.258C528.604 234.117 563.951 208.792 602.429 191.555C616.062 185.448 630.082 180.032 644.786 177.126C654.596 175.188 663.721 175.209 673.598 174.717Z"/>
	<path fill="#FD5802" transform="scale(0.5 0.5)" d="M453.87 666.069L487.853 639.34C490.852 637.355 494.133 635.343 497.682 634.534C506.411 632.543 516.712 635.888 525.266 637.62C530.002 638.58 534.822 639.24 539.584 640.079C537.115 642.608 534.67 645.178 532.13 647.635C530.688 649.03 528.93 650.314 527.666 651.857C518.239 659.374 510.966 669.076 504.185 678.935C492.33 676.871 480.92 674.03 469.292 670.963C464.202 669.621 458.453 668.705 453.87 666.069Z"/>
	<path fill="#1A8EFB" transform="scale(0.5 0.5)" d="M430.568 332.18C462.551 300.675 499.796 274.782 540.112 255.096C559.603 245.579 580.497 237.174 601.755 232.647C628.195 227.016 658.428 224.98 682.133 240.555C690.643 246.146 699.664 257.934 701.781 267.916C703.32 273.093 704.997 278.357 705.709 283.729C707.281 295.588 706.07 307.744 703.785 319.415C699.988 338.812 693.332 356.436 683.929 373.811C675.077 390.166 664.031 405.89 651.491 419.629C620.056 454.07 580.709 481.195 540.83 504.903C507.811 524.533 473.257 542.245 437.696 556.827C417.08 565.514 395.94 573.07 374.938 580.771C355.209 588.006 335.47 595.398 315.579 602.166C307.699 604.846 299.664 607.094 291.786 609.786C287.045 611.406 282.369 613.148 277.719 615.011C275.199 616.021 271.798 617.843 269.102 618.032L275.207 603.553L283.783 586.527C283.603 585.253 283.448 583.973 283.689 582.695C284.551 578.12 286.706 573.359 288.248 568.938C292.661 556.283 297.199 543.76 302.678 531.519L302.546 528.659C302.563 522.781 306.389 516.668 308.779 511.502C311.562 505.487 314.173 499.413 317.149 493.486C337.309 453.326 359.534 414.184 387.666 378.964C400.923 362.366 415.435 347.053 430.568 332.18Z"/>
	<path fill="#DDDCDB" transform="scale(0.5 0.5)" d="M302.678 531.519C304.026 529.389 305.334 527.164 306.98 525.25C313.639 517.508 321.082 511.085 328.46 504.043C336.748 496.133 344.749 487.943 352.652 479.65C360.884 471.012 368.835 462.116 377.108 453.514C396.346 433.511 416.054 413.977 436.087 394.776C464.416 367.625 493.986 340.786 527.113 319.523C534.654 314.682 542.574 310.445 550.449 306.178C566.886 297.271 582.225 290.069 600.724 286.417C613.28 283.938 625.551 283.304 638.307 283.49C642.643 283.554 649.495 283.495 653.147 285.931L653.033 287.008L652.582 287.633C650.872 290.167 651.13 294.813 649.879 297.81C648.606 300.859 646.479 303.663 644.538 306.315C639.81 312.773 634.508 318.553 628.373 323.708C616.136 333.99 600.943 340.378 587.304 348.558C559.458 365.258 531.807 382.221 504.847 400.333C481.965 415.707 460.068 432.315 438.142 449.001C411.857 469.005 385.53 489.498 360.968 511.618C350.41 521.127 340.389 531.299 330.147 541.148C318.877 551.985 307.286 562.566 296.205 573.588C291.963 577.807 288.041 582.343 283.783 586.527C283.603 585.253 283.448 583.973 283.689 582.695C284.551 578.12 286.706 573.359 288.248 568.938C292.661 556.283 297.199 543.76 302.678 531.519Z"/>
	<path fill="#3CCAD4" transform="scale(0.5 0.5)" d="M430.568 332.18C462.551 300.675 499.796 274.782 540.112 255.096C559.603 245.579 580.497 237.174 601.755 232.647C628.195 227.016 658.428 224.98 682.133 240.555C690.643 246.146 699.664 257.934 701.781 267.916C698.395 272.648 694.196 277.107 689.654 280.75C679.979 288.51 671.023 289.356 659.063 288.068L653.033 287.008L653.147 285.931C649.495 283.495 642.643 283.554 638.307 283.49C625.551 283.304 613.28 283.938 600.724 286.417C582.225 290.069 566.886 297.271 550.449 306.178C542.574 310.445 534.654 314.682 527.113 319.523C493.986 340.786 464.416 367.625 436.087 394.776C416.054 413.977 396.346 433.511 377.108 453.514C368.835 462.116 360.884 471.012 352.652 479.65C344.749 487.943 336.748 496.133 328.46 504.043C321.082 511.085 313.639 517.508 306.98 525.25C305.334 527.164 304.026 529.389 302.678 531.519L302.546 528.659C302.563 522.781 306.389 516.668 308.779 511.502C311.562 505.487 314.173 499.413 317.149 493.486C337.309 453.326 359.534 414.184 387.666 378.964C400.923 362.366 415.435 347.053 430.568 332.18Z"/>
</svg>
