<?xml version="1.0" encoding="utf-8" ?>
<svg xmlns="http://www.w3.org/2000/svg" xmlns:xlink="http://www.w3.org/1999/xlink" width="512" height="512">
	<path fill="#E13713" transform="scale(0.5 0.5)" d="M134.766 998.795C153.05 991.301 171.019 983.266 188.5 974.035C193.898 971.185 199.107 967.998 204.504 965.143C207.046 963.798 209.515 962.116 212.42 961.791C207.356 965.508 202.45 969.524 197.281 973.079C190.421 977.796 183.17 981.943 175.994 986.152C163.594 993.426 151.129 1000.27 137.658 1005.39C127.767 1009.14 117.164 1011.5 106.844 1013.83C102.554 1014.79 98.2828 1016.13 93.965 1016.91C100.265 1013.5 106.761 1010.69 113.272 1007.74C116.346 1006.34 119.663 1004.41 122.882 1003.47L125.499 1002.53L134.766 998.795Z"/>
	<defs>
		<linearGradient id="gradient_0" gradientUnits="userSpaceOnUse" x1="928.25" y1="161.25" x2="810.04999" y2="30.042101">
			<stop offset="0" stop-color="#FF5000"/>
			<stop offset="1" stop-color="#F31F17"/>
		</linearGradient>
	</defs>
	<path fill="url(#gradient_0)" transform="scale(0.5 0.5)" d="M817.716 14.6424C856.743 20.9059 889.41 42.399 912.308 74.1875C922.507 88.3467 930.071 104.689 932.824 121.96C933.899 128.71 934.451 134.279 933.326 141.078C932.413 146.597 931.391 152.17 930.21 157.637C929.819 159.45 929.527 161.875 928.007 163.061C926.874 162.943 927.276 162.906 926.348 163.042L924.357 163.25L925.385 161.75C924.501 159.916 923.007 158.539 921.626 157.069C919.927 153.006 913.549 149.597 910.257 146.942L909.829 146.573C913.236 141.049 916.75 134.348 917.789 127.87C920.858 108.752 911.517 86.3155 900.511 71.0668C882.216 45.7176 853.412 28.6679 822.573 23.7569L816.79 23.2031L820.804 17.235L820.291 16.7439L821.5 16.3775L821.5 16.1225C819.994 16.2701 819.243 15.627 817.607 15.6524L817.716 14.6424Z"/>
	<path fill="#E13713" transform="scale(0.5 0.5)" d="M820.804 17.235C822.089 16.82 822.063 16.6741 823.25 17.2701C823.925 19.7046 821.956 21.6531 822.573 23.7569L816.79 23.2031L820.804 17.235Z"/>
	<defs>
		<linearGradient id="gradient_1" gradientUnits="userSpaceOnUse" x1="423.25" y1="311.75" x2="344.29599" y2="287.52399">
			<stop offset="0" stop-color="#E50272"/>
			<stop offset="1" stop-color="#D600BB"/>
		</linearGradient>
	</defs>
	<path fill="url(#gradient_1)" transform="scale(0.5 0.5)" d="M415.177 306.907L416.009 306.562C417.035 306.105 417.378 305.576 417.969 304.669C418.333 304.111 418.759 303.7 419.245 303.25L419.25 302.745L420 302.245L420.377 303L420.705 303.477C421.131 304.162 420.892 304.484 421.125 305.125C421.322 305.667 421.9 306.288 422.255 306.75L422.25 307.5L422.502 308.219C422.769 309.012 422.804 309.432 422.755 310.25L423.255 311C423.248 312.49 422.515 312.765 422.573 314.561C414.577 326.591 406.777 338.731 398.928 350.856C391.659 362.085 383.855 372.965 377.571 384.798C374.508 390.567 371.25 397.309 370.007 403.75L370.429 404.648C372.581 404.627 373.605 403.727 375.426 402.624L339.487 462.528C328.937 480.111 318.052 497.577 307.924 515.401C291.725 543.911 277.503 573.524 261.523 602.168C260.256 604.439 246.341 628.24 246.327 629.024C243.41 634.069 237.942 637.028 232.915 639.654C238.526 630.852 242.076 620.149 246.576 610.668C257.728 587.167 268.748 563.606 279.902 540.101C287.866 523.32 296.641 506.915 305.274 490.474C328.92 445.444 354.107 401.503 381.29 358.501C389.39 345.689 397.422 332.888 405.938 320.343C408.985 315.856 411.758 311.118 415.177 306.907Z"/>
	<path fill="#28283A" transform="scale(0.5 0.5)" d="M856.839 194.177C879.127 208.92 892.455 233.438 897.717 259.214C902.468 282.483 903.822 305.98 895.006 328.417C893.131 333.19 891.056 338.173 888.187 342.455C884.561 347.865 879.101 352.895 873.905 356.787C878.642 349.458 882.48 341.858 884.436 333.285C886.789 322.974 886.395 310.622 885.414 300.131C876.226 306.66 868.597 308.437 857.489 306.563L849.684 304.792L834.476 299.016C828.451 296.59 822.095 293.695 817.364 289.119C813.171 285.065 806.999 277.688 805.452 271.944C804.35 267.848 804.467 263.48 804.379 259.264C806.619 249.854 813.601 240.526 818.338 232.086C822.813 224.113 826.921 215.742 832.019 208.153C833.797 205.506 835.592 202.581 837.856 200.318C840.966 197.208 850.507 194.544 854.829 194.551L856 194.557L856.839 194.177Z"/>
	<path fill="#975540" transform="scale(0.5 0.5)" d="M686.558 624.414C710.449 622.954 734.852 623.953 758.799 624.021C765.064 624.039 771.329 624.017 777.594 623.999C780.733 623.99 784.387 623.626 787.443 624.176C790.219 624.676 792.693 626.59 794.75 628.414C802.062 634.898 806.063 643.511 806.592 653.232C807.163 663.705 804.425 673.303 797.337 681.201C794.902 683.914 792.022 686.307 788.78 687.982C773.533 687.913 758.284 687.82 743.037 687.835C733.804 687.843 724.218 687.444 715.049 688.531C710.056 691.641 706.261 696.691 701.853 700.567C698.153 703.821 693.937 706.536 690.069 709.603C688.094 709.485 685.65 707.077 684.026 705.886C675.502 699.634 667.425 690.79 658.184 685.875L658.048 686.119L649.257 683.827C655.547 678.813 661.452 673.317 667.583 668.112C675.272 661.583 686.761 654.796 691.277 645.558C691.153 641.692 691.029 637.909 690.053 634.139C689.199 630.841 687.702 627.63 686.558 624.414Z"/>
	<path fill="#28283A" transform="scale(0.5 0.5)" d="M658.184 685.875C661.884 685.182 667.795 684.509 671.515 685.106C673.642 685.447 675.846 685.865 677.868 686.613C678.69 686.917 680.338 687.876 681.135 687.776C681.7 687.705 682.986 686.736 683.57 686.385C691.515 681.601 697.756 674.538 704.545 668.349C709.999 663.378 717.508 656.655 724.358 653.946C725.576 653.464 728.927 655.252 730.017 656.037C733.152 658.297 734.371 661.882 735.142 665.512C731.483 675.012 720.718 680.365 715.049 688.531C710.056 691.641 706.261 696.691 701.853 700.567C698.153 703.821 693.937 706.536 690.069 709.603C688.094 709.485 685.65 707.077 684.026 705.886C675.502 699.634 667.425 690.79 658.184 685.875Z"/>
	<defs>
		<linearGradient id="gradient_2" gradientUnits="userSpaceOnUse" x1="487.25" y1="637.75" x2="355.46899" y2="591.05798">
			<stop offset="0" stop-color="#E03F00"/>
			<stop offset="1" stop-color="#F80270"/>
		</linearGradient>
	</defs>
	<path fill="url(#gradient_2)" transform="scale(0.5 0.5)" d="M464.577 637.908L465.195 638.143L466 638.431C468.015 639.206 470.42 638.501 472.507 638.146C477.285 637.336 484.243 635.629 488.847 637.514C485.621 640.229 482.3 643.017 479.751 646.405C471.441 657.45 468.1 672.288 463.325 685.082C460.446 692.794 456.789 700.206 453.628 707.809L460.075 709.015L460.423 710.804L453.531 709.172C449.035 720.369 443.772 730.903 438.342 741.655C430.57 757.042 422.488 772.397 413.601 787.168C405.921 799.933 397.481 812.285 389.353 824.771C380.732 838.015 372.098 850.787 362.52 863.381C357.218 870.352 352.232 877.056 346.059 883.317C349.994 873.952 354.285 864.085 356.946 854.309C358.134 849.941 358.603 845.361 359.585 840.937C353.775 850.308 348.063 859.83 341.789 868.9C337.346 875.322 332.289 881.22 327.53 887.397C323.736 892.322 320.232 897.458 316.247 902.237C297.631 924.566 276.4 944.682 252.381 961.127C243.298 967.345 233.421 972.768 223.714 977.964C218.982 980.496 214.324 983.152 209.663 985.81C206.153 987.812 202.078 990.315 198.156 991.286C202.643 988.074 207.46 985.296 212.049 982.223C218.371 977.988 224.578 973.422 230.701 968.904C252.614 952.734 273.552 932.12 288.836 909.467C293.837 902.055 297.991 894.208 302.295 886.391C303.652 884.946 304.705 882.63 305.904 880.979C309.12 876.554 312.611 872.184 316.112 867.982C324.709 857.662 333.639 847.743 341.795 837.058C364.475 807.347 384.608 775.341 403.996 743.416C411.727 730.687 419.803 718.014 427.174 705.089C432.644 695.498 438.221 685.919 443.404 676.173C450.273 663.253 456.718 650.285 464.577 637.908Z"/>
	<path fill="#28283A" transform="scale(0.5 0.5)" d="M869.502 181.639C869.598 180.656 870.276 178.624 870.17 177.75C869.971 176.106 869.665 175.069 870.168 173.25C870.593 171.711 871.418 171.242 872.75 170.577C876.915 172.437 916.091 164.831 923.25 163.792C922.305 163.393 922.698 163.528 921.703 163.234C920.698 162.938 920.49 162.496 919.781 161.75C919.603 160.899 919.358 160.093 919.573 159.228C919.933 157.781 920.402 157.776 921.626 157.069C923.007 158.539 924.501 159.916 925.385 161.75L924.357 163.25L926.348 163.042C927.276 162.906 926.874 162.943 928.007 163.061C927.451 165.846 930.591 169.658 932.116 171.951C945.995 192.823 956.962 216.675 961.602 241.469C962.235 244.847 962.202 248.347 962.674 251.75C964.073 261.857 965.099 272.783 963.203 282.943C960.993 294.78 957.925 306.85 953.25 317.959C941.463 345.97 919.623 371.546 894.348 388.326C884.284 395.007 871.667 401.699 859.5 403.057L858.737 402.275C859.744 400.288 862.362 398.777 863.941 397.16C870.773 390.164 877.884 383.139 884.261 375.741C900.187 357.266 912.616 333.811 915.789 309.385C917.561 295.739 916.354 280.562 914.149 267.071C912.646 257.874 910.922 248.867 908.013 239.985C903.074 224.903 894.844 209.008 884.484 196.89C879.903 191.531 874.497 186.625 869.502 181.639Z"/>
	<path fill="#FE5601" transform="scale(0.5 0.5)" d="M450.654 260.394C452.081 257.92 454.259 255.702 456.085 253.508C459.224 249.738 462.309 245.923 465.465 242.169C495.321 206.658 531.84 176.514 571.558 152.73C584.821 144.788 598.215 137.353 612.651 131.747C605.998 131.385 599.341 132.204 592.704 132.611C589.632 132.8 584.684 133.613 582.035 131.965L582.051 131.045C587.936 126.375 595.392 121.286 602.723 119.207L603.26 119.067C591.696 114.076 578.053 110.729 568.432 102.368L568.591 102.189C586.059 106.178 603.129 95.6781 619.094 90.4614C623.454 89.0366 627.743 87.5551 632.349 87.2641L633.163 87.2174L602.123 78.4695C614.092 75.8206 624.948 69.0568 637.179 66.8069C630.032 65.378 623.05 63.4891 615.973 61.7733C606.805 59.5506 597.795 57.8501 589.471 53.2324C613.63 54.3523 636.886 44.6418 659.418 37.25C676.111 31.7734 692.865 26.3301 709.952 22.198C726.769 18.1312 744.002 15.3474 761.205 13.5598C779.872 11.6199 799.207 11.0594 817.716 14.6424L817.607 15.6524C819.243 15.627 819.994 16.2701 821.5 16.1225L821.5 16.3775L820.291 16.7439L820.804 17.235L816.79 23.2031L790.28 22.9246C787.595 23.1073 785.533 24.0582 782.998 24.7292C779.791 25.5777 776.48 26.0395 773.227 26.676C759.319 29.3977 744.272 33.0463 731.323 38.9303C723.313 42.5705 715.05 47.9145 707.741 52.8523C704.772 54.8586 702.177 57.3309 699.25 59.3741C694.233 62.8759 688.488 65.0646 683.603 68.8756C680.469 71.3214 678.341 74.8446 675.353 77.25C671.821 80.0935 668.081 81.5192 665.011 85.1118L663.871 86.5474L667.868 93L667.5 93.6161L667.042 93.6103C665.354 93.6172 664.592 93.8878 663.152 94.75L662.857 95.75L663.5 96.3427C664.624 96.2375 666.832 95.7494 667.75 96.2817L661.449 98.6314C660.694 100.586 658.834 103.666 659.864 105.606L660.662 106.75C659.755 107.684 660.327 107.302 659.113 107.734C658.007 108.129 657.257 108.652 656.771 109.75C655.593 112.411 655.335 115.874 654.972 118.75C654.2 124.867 652.643 135.352 655.044 141.084C655.422 141.985 656.05 142.303 656.75 142.909L657.594 143.75L657.257 144.312C656.005 147.233 658.308 150.892 659.255 153.639C663.129 164.878 667.578 175.656 672.907 186.301L678.964 198.175L675.755 200.963C666.774 198.53 657.346 198.055 648.093 197.397C635.31 196.487 621.984 196.25 609.219 197.485C577.216 200.582 544.954 211.421 517.089 227.375C503.338 235.248 489.923 244.905 477.523 254.783C472.601 258.703 467.809 264.03 462.623 267.379C462.461 267.008 462.6 267.266 461.996 266.76L451.662 276.958C450.837 276.084 449.967 275.225 449.278 274.237C448.516 273.145 447.59 272.161 447.164 270.883L447 270.25L445.375 269.625C445.17 267.218 446.119 267.807 447.123 266C447.714 264.936 448.693 264.622 449.245 263.75C449.952 262.634 450.175 262.068 451.227 261.004L450.654 260.394Z"/>
	<path fill="#E13713" transform="scale(0.5 0.5)" d="M665 616.278C671.5 616.4 680.198 617.187 684.958 622.25C685.457 622.78 686.314 623.717 686.558 624.414C687.702 627.63 689.199 630.841 690.053 634.139C691.029 637.909 691.153 641.692 691.277 645.558C686.761 654.796 675.272 661.583 667.583 668.112C661.452 673.317 655.547 678.813 649.257 683.827L658.048 686.119L658.184 685.875C667.425 690.79 675.502 699.634 684.026 705.886C685.65 707.077 688.094 709.485 690.069 709.603C693.14 711.166 695.953 714.151 698.379 716.573C704.103 722.285 708.462 729.172 713.395 735.546C729.04 755.758 743.507 777.416 756.82 799.236C766.403 814.943 775.038 831.175 785.983 846.006C794.273 857.239 803.572 867.915 812.303 878.827C826.176 896.166 839.769 913.706 853.566 931.104C857.908 936.579 862.154 942.144 866.558 947.569C869.447 951.128 873.517 955.188 875.494 959.267C862.981 970.027 850.985 981.905 838.984 993.25C832.621 999.266 826.355 1005.75 819.187 1010.81C803.479 1000.64 787.783 996.085 769.654 992.497C765.546 991.685 761.115 991.818 756.924 991.679C749.774 991.441 742.634 991.227 735.48 991.292C731.346 991.33 727.213 991.377 723.08 991.44C721.659 991.462 719.845 991.755 718.576 991.153C707.839 965.835 697.093 940.616 686.95 915.047C681.477 901.25 675.823 887.591 670.116 873.889C666.721 865.736 663.744 857.173 659.333 849.503C652.816 838.171 643.671 828.589 634.629 819.256C624.227 808.519 613.457 798.155 602.632 787.846C593.988 779.613 585.207 771.549 576.266 763.64C570.743 758.754 565.29 753.741 559.294 749.434C547.845 741.21 534.799 734.495 521.738 729.205L460.423 710.804L460.075 709.015L453.628 707.809C456.789 700.206 460.446 692.794 463.325 685.082C468.1 672.288 471.441 657.45 479.751 646.405C482.3 643.017 485.621 640.229 488.847 637.514C493.265 635.618 498.736 633.198 503.414 632.222L504.057 633.826L528.33 634.504L566.576 634.419C571.474 634.594 576.362 634.797 581.254 635.11C583.338 635.244 585.83 635.812 587.658 634.688L587.738 634.654L591.75 635.232L592.07 635.75C597.421 636.375 602.7 636.504 608.083 636.523C611.377 636.535 614.751 636.728 618 636.111C619.008 635.08 619.568 633.945 620.222 632.681L620.502 633.344C621.029 634.758 620.641 636.773 620.498 638.25C622.013 638.539 623.811 637.854 625.311 637.496C625.904 636.174 628.179 634.406 629.25 633.311C632.79 633.555 636.268 630.772 639.073 628.847C641.168 627.956 643.633 627.597 645.819 626.853C652.07 624.728 660.464 621.14 665 616.278Z"/>
	<path fill="#975540" transform="scale(0.5 0.5)" d="M665 616.278C671.5 616.4 680.198 617.187 684.958 622.25C685.457 622.78 686.314 623.717 686.558 624.414C687.702 627.63 689.199 630.841 690.053 634.139C691.029 637.909 691.153 641.692 691.277 645.558C686.761 654.796 675.272 661.583 667.583 668.112C661.452 673.317 655.547 678.813 649.257 683.827C642.385 688.837 635.214 690.014 627.222 692.346C620.854 694.204 614.536 696.253 608.227 698.303C597.028 701.943 585.98 706.343 575.013 710.566C571.344 711.979 568.05 714.349 564.25 715.342L563.573 715L563.152 711.884C561.618 712.257 560.19 714.011 559.008 715.103C552.255 716.846 544.729 716.567 537.79 716.762C524.84 717.127 511.616 717.672 498.71 716.402C490.89 715.632 483.372 713.774 475.719 712.13C470.517 711.013 465.269 710.18 460.075 709.015L453.628 707.809C456.789 700.206 460.446 692.794 463.325 685.082C468.1 672.288 471.441 657.45 479.751 646.405C482.3 643.017 485.621 640.229 488.847 637.514C493.265 635.618 498.736 633.198 503.414 632.222L504.057 633.826L528.33 634.504L566.576 634.419C571.474 634.594 576.362 634.797 581.254 635.11C583.338 635.244 585.83 635.812 587.658 634.688L587.738 634.654L591.75 635.232L592.07 635.75C597.421 636.375 602.7 636.504 608.083 636.523C611.377 636.535 614.751 636.728 618 636.111C619.008 635.08 619.568 633.945 620.222 632.681L620.502 633.344C621.029 634.758 620.641 636.773 620.498 638.25C622.013 638.539 623.811 637.854 625.311 637.496C625.904 636.174 628.179 634.406 629.25 633.311C632.79 633.555 636.268 630.772 639.073 628.847C641.168 627.956 643.633 627.597 645.819 626.853C652.07 624.728 660.464 621.14 665 616.278Z"/>
	<path fill="#28283A" transform="scale(0.5 0.5)" d="M665 616.278C671.5 616.4 680.198 617.187 684.958 622.25C685.457 622.78 686.314 623.717 686.558 624.414C687.702 627.63 689.199 630.841 690.053 634.139C691.029 637.909 691.153 641.692 691.277 645.558C686.761 654.796 675.272 661.583 667.583 668.112C661.452 673.317 655.547 678.813 649.257 683.827C642.385 688.837 635.214 690.014 627.222 692.346C620.854 694.204 614.536 696.253 608.227 698.303C597.028 701.943 585.98 706.343 575.013 710.566C571.344 711.979 568.05 714.349 564.25 715.342L563.573 715L563.152 711.884C563.764 704.527 584.575 683.512 589.983 677.506C596.795 669.939 603.335 662.14 609.962 654.412C613.01 650.858 616.671 647.333 619.322 643.511C620.915 641.214 623.267 639.399 625.311 637.496C625.904 636.174 628.179 634.406 629.25 633.311C632.79 633.555 636.268 630.772 639.073 628.847C641.168 627.956 643.633 627.597 645.819 626.853C652.07 624.728 660.464 621.14 665 616.278Z"/>
	<path fill="#E6155D" transform="scale(0.5 0.5)" d="M252.481 631.172C255.36 629.531 258.699 628.708 261.698 627.274C287.579 614.903 315.217 607.456 341.236 595.457C357.926 587.76 374.032 579.3 389.593 569.492C400.165 562.829 410.33 554.957 421.325 549.074C424.055 550.48 427 551.331 429.914 552.269L430.364 552.526C431.685 553.265 432.56 553.469 434 553.864C434.368 553.964 434.726 554.216 435.046 554.404C436.918 555.502 444.351 559.423 444.796 561.311C445.029 562.301 444.622 563.357 444.367 564.315C445.356 565.018 446.191 565.513 447.314 565.994C463.202 572.796 479.985 581.442 497.431 583.055C492.914 588.751 489.375 595.103 485.679 601.342C478.503 613.454 471.872 625.858 464.577 637.908C456.718 650.285 450.273 663.253 443.404 676.173C438.221 685.919 432.644 695.498 427.174 705.089C419.803 718.014 411.727 730.687 403.996 743.416C384.608 775.341 364.475 807.347 341.795 837.058C333.639 847.743 324.709 857.662 316.112 867.982C312.611 872.184 309.12 876.554 305.904 880.979C304.705 882.63 303.652 884.946 302.295 886.391L300.5 885.481C296.649 887.225 292.968 891.573 289.86 894.522C282.458 901.547 275.178 908.688 267.894 915.834C253.71 929.748 238.004 942.635 222.173 954.643C219.217 956.885 215.68 960.144 212.42 961.791C209.515 962.116 207.046 963.798 204.504 965.143C199.107 967.998 193.898 971.185 188.5 974.035C171.019 983.266 153.05 991.301 134.766 998.795L125.499 1002.53L122.882 1003.47C122.836 1001.24 122.028 1000.45 120.504 998.939C119.25 997.693 119.515 994.751 119.444 993L118.938 992.25L119.75 991.279L119.107 990.703C104.517 996.48 89.2808 1000.94 74.2428 1005.4C71.4074 1006.24 65.6677 1008.68 62.9499 1008.3C62.5057 1008.24 62.118 1007.96 61.7021 1007.8C61.6926 1007.28 61.4882 1006.73 61.6735 1006.25C62.4183 1004.32 66.5141 1000.65 67.9923 998.94C77.1008 988.372 86.3123 977.903 95.4428 967.355C90.5306 968.018 85.6431 968.9 80.707 969.361C73.3278 970.05 65.8447 970.048 58.6204 971.848C62.0901 969.496 65.0442 966.507 68.0576 963.613C73.7023 958.194 78.9071 952.607 84.0283 946.698C97.1008 931.615 109.932 915.788 121.217 899.313C126.205 892.031 130.915 884.527 135.521 877C137.946 873.037 140.338 869.055 142.769 865.095C143.835 863.358 144.574 861.423 146.341 860.271C147.535 859.493 148.507 858.713 149.56 857.75C148.688 857.459 148.012 857.521 147.125 857.747C142.763 858.857 138.216 860.713 133.889 862.075C122.826 865.557 111.689 869.019 100.421 871.766C107.431 868.07 112.433 863.178 118.152 857.799C129.846 846.8 140.014 835.086 150.461 822.949C156.662 815.745 163.225 808.83 169.204 801.437C177.456 791.233 184.967 780.45 192.373 769.624C196.549 763.519 200.985 757.699 204.324 751.075C201.99 751.478 199.469 751.791 197.265 752.682C192.513 754.603 188.188 757.565 183.419 759.542C177.96 761.805 172.13 763.386 166.53 765.286C176.613 758.179 185.641 747.526 193.36 737.958C206.71 721.409 217.645 703.761 229.199 685.985C238.068 672.339 248.001 658.584 255.155 643.962C257.385 639.404 258.982 635.22 259.868 630.2L252.481 631.172ZM444.367 564.315C440.485 573.47 435.935 582.32 431.897 591.405C425.174 606.532 418.926 621.792 411.706 636.719C407.411 645.6 402.515 654.241 398.238 663.109C379.949 701.023 361.167 739.305 339.46 775.402C329.534 791.908 318.459 807.837 307.282 823.511C260.78 888.72 203.863 947.833 131.816 984.707L123.913 988.443L119.126 990.556L119.107 990.703L119.75 991.279L118.938 992.25L119.444 993C119.515 994.751 119.25 997.693 120.504 998.939C122.028 1000.45 122.836 1001.24 122.882 1003.47L125.499 1002.53L134.766 998.795C153.05 991.301 171.019 983.266 188.5 974.035C193.898 971.185 199.107 967.998 204.504 965.143C207.046 963.798 209.515 962.116 212.42 961.791C215.68 960.144 219.217 956.885 222.173 954.643C238.004 942.635 253.71 929.748 267.894 915.834C275.178 908.688 282.458 901.547 289.86 894.522C292.968 891.573 296.649 887.225 300.5 885.481L302.295 886.391C303.652 884.946 304.705 882.63 305.904 880.979C309.12 876.554 312.611 872.184 316.112 867.982C324.709 857.662 333.639 847.743 341.795 837.058C364.475 807.347 384.608 775.341 403.996 743.416C411.727 730.687 419.803 718.014 427.174 705.089C432.644 695.498 438.221 685.919 443.404 676.173C450.273 663.253 456.718 650.285 464.577 637.908C471.872 625.858 478.503 613.454 485.679 601.342C489.375 595.103 492.914 588.751 497.431 583.055C479.985 581.442 463.202 572.796 447.314 565.994C446.191 565.513 445.356 565.018 444.367 564.315Z"/>
	<path fill="#FEDD64" transform="scale(0.5 0.5)" d="M444.367 564.315C445.356 565.018 446.191 565.513 447.314 565.994C463.202 572.796 479.985 581.442 497.431 583.055C492.914 588.751 489.375 595.103 485.679 601.342C478.503 613.454 471.872 625.858 464.577 637.908C456.718 650.285 450.273 663.253 443.404 676.173C438.221 685.919 432.644 695.498 427.174 705.089C419.803 718.014 411.727 730.687 403.996 743.416C384.608 775.341 364.475 807.347 341.795 837.058C333.639 847.743 324.709 857.662 316.112 867.982C312.611 872.184 309.12 876.554 305.904 880.979C304.705 882.63 303.652 884.946 302.295 886.391L300.5 885.481C296.649 887.225 292.968 891.573 289.86 894.522C282.458 901.547 275.178 908.688 267.894 915.834C253.71 929.748 238.004 942.635 222.173 954.643C219.217 956.885 215.68 960.144 212.42 961.791C209.515 962.116 207.046 963.798 204.504 965.143C199.107 967.998 193.898 971.185 188.5 974.035C171.019 983.266 153.05 991.301 134.766 998.795L125.499 1002.53L122.882 1003.47C122.836 1001.24 122.028 1000.45 120.504 998.939C119.25 997.693 119.515 994.751 119.444 993L118.938 992.25L119.75 991.279L119.107 990.703L119.126 990.556L123.913 988.443L131.816 984.707C203.863 947.833 260.78 888.72 307.282 823.511C318.459 807.837 329.534 791.908 339.46 775.402C361.167 739.305 379.949 701.023 398.238 663.109C402.515 654.241 407.411 645.6 411.706 636.719C418.926 621.792 425.174 606.532 431.897 591.405C435.935 582.32 440.485 573.47 444.367 564.315ZM123.913 988.443L119.126 990.556L119.107 990.703L119.75 991.279L118.938 992.25L119.444 993C119.515 994.751 119.25 997.693 120.504 998.939C122.028 1000.45 122.836 1001.24 122.882 1003.47L125.499 1002.53L134.766 998.795C135.139 998.196 135.464 997.706 135.649 997.018C135.827 996.357 136.095 995.851 136.416 995.25C138.08 994.012 139.174 994.075 140.953 993.332C141.98 992.903 142.435 992.205 142.877 991.25C142.439 989.887 142.478 989.157 141.25 988.365C139.214 988.354 137.266 988.321 135.668 986.912C134.513 985.894 133.203 985.345 131.816 984.707L123.913 988.443Z"/>
	<path fill="#FEF39C" fill-opacity="0.84313726" transform="scale(0.5 0.5)" d="M123.913 988.443L131.816 984.707C133.203 985.345 134.513 985.894 135.668 986.912C137.266 988.321 139.214 988.354 141.25 988.365C142.478 989.157 142.439 989.887 142.877 991.25C142.435 992.205 141.98 992.903 140.953 993.332C139.174 994.075 138.08 994.012 136.416 995.25C136.095 995.851 135.827 996.357 135.649 997.018C135.464 997.706 135.139 998.196 134.766 998.795L125.499 1002.53L122.882 1003.47C122.836 1001.24 122.028 1000.45 120.504 998.939C119.25 997.693 119.515 994.751 119.444 993L118.938 992.25L119.75 991.279L119.107 990.703L119.126 990.556L123.913 988.443ZM119.107 990.703L119.75 991.279L118.938 992.25L119.444 993C119.515 994.751 119.25 997.693 120.504 998.939C122.028 1000.45 122.836 1001.24 122.882 1003.47L125.499 1002.53L126.136 1000.25C126.878 999.212 127.368 998.958 128.541 998.595L130 998.134C131.333 997.618 132.299 997.344 132.818 996C131.87 994.239 130.756 992.893 128.842 992.145C126.897 991.385 125.454 989.825 123.913 988.443L119.126 990.556L119.107 990.703Z"/>
	<path fill="#FCF9BC" fill-opacity="0.60784316" transform="scale(0.5 0.5)" d="M119.107 990.703L119.126 990.556L123.913 988.443C125.454 989.825 126.897 991.385 128.842 992.145C130.756 992.893 131.87 994.239 132.818 996C132.299 997.344 131.333 997.618 130 998.134L128.541 998.595C127.368 998.958 126.878 999.212 126.136 1000.25L125.499 1002.53L122.882 1003.47C122.836 1001.24 122.028 1000.45 120.504 998.939C119.25 997.693 119.515 994.751 119.444 993L118.938 992.25L119.75 991.279L119.107 990.703Z"/>
	<path fill="#FECA04" transform="scale(0.5 0.5)" d="M462.623 267.379C467.809 264.03 472.601 258.703 477.523 254.783C489.923 244.905 503.338 235.248 517.089 227.375C544.954 211.421 577.216 200.582 609.219 197.485C621.984 196.25 635.31 196.487 648.093 197.397C657.346 198.055 666.774 198.53 675.755 200.963L678.964 198.175L672.907 186.301C667.578 175.656 663.129 164.878 659.255 153.639C658.308 150.892 656.005 147.233 657.257 144.312L657.594 143.75L656.75 142.909C656.05 142.303 655.422 141.985 655.044 141.084C652.643 135.352 654.2 124.867 654.972 118.75C655.335 115.874 655.593 112.411 656.771 109.75C657.257 108.652 658.007 108.129 659.113 107.734C660.327 107.302 659.755 107.684 660.662 106.75L659.864 105.606C658.834 103.666 660.694 100.586 661.449 98.6314L667.75 96.2817C666.832 95.7494 664.624 96.2375 663.5 96.3427L662.857 95.75L663.152 94.75C664.592 93.8878 665.354 93.6172 667.042 93.6103L667.5 93.6161L667.868 93L663.871 86.5474L665.011 85.1118C668.081 81.5192 671.821 80.0935 675.353 77.25C678.341 74.8446 680.469 71.3214 683.603 68.8756C688.488 65.0646 694.233 62.8759 699.25 59.3741C702.177 57.3309 704.772 54.8586 707.741 52.8523C715.05 47.9145 723.313 42.5705 731.323 38.9303C744.272 33.0463 759.319 29.3977 773.227 26.676C776.48 26.0395 779.791 25.5777 782.998 24.7292C785.533 24.0582 787.595 23.1073 790.28 22.9246L816.79 23.2031L822.573 23.7569C853.412 28.6679 882.216 45.7176 900.511 71.0668C911.517 86.3155 920.858 108.752 917.789 127.87C916.75 134.348 913.236 141.049 909.829 146.573L910.257 146.942C913.549 149.597 919.927 153.006 921.626 157.069C920.402 157.776 919.933 157.781 919.573 159.228C919.358 160.093 919.603 160.899 919.781 161.75C920.49 162.496 920.698 162.938 921.703 163.234C922.698 163.528 922.305 163.393 923.25 163.792C916.091 164.831 876.915 172.437 872.75 170.577C871.418 171.242 870.593 171.711 870.168 173.25C869.665 175.069 869.971 176.106 870.17 177.75C870.276 178.624 869.598 180.656 869.502 181.639C867.545 186.301 864.061 190.8 859.271 192.807C858.401 193.172 857.637 193.679 856.839 194.177L856 194.557L854.829 194.551C850.507 194.544 840.966 197.208 837.856 200.318C835.592 202.581 833.797 205.506 832.019 208.153C826.921 215.742 822.813 224.113 818.338 232.086C813.601 240.526 806.619 249.854 804.379 259.264C804.467 263.48 804.35 267.848 805.452 271.944C806.999 277.688 813.171 285.065 817.364 289.119C822.095 293.695 828.451 296.59 834.476 299.016L849.684 304.792C848.473 314.135 845.514 323.37 842.554 332.288C831.839 364.571 814.793 394.566 795.577 422.479C780.693 444.099 764.745 464.483 747.145 483.97C730.971 501.879 713.33 519.794 694.149 534.546L673.114 549.906C672.21 557.476 670.853 564.944 669.827 572.489C668.647 581.172 667.789 589.882 666.666 598.571C666.093 602.999 665.555 607.428 665.058 611.865C664.914 613.15 664.369 615.192 665 616.278C660.464 621.14 652.07 624.728 645.819 626.853C643.633 627.597 641.168 627.956 639.073 628.847C636.268 630.772 632.79 633.555 629.25 633.311C628.179 634.406 625.904 636.174 625.311 637.496C623.811 637.854 622.013 638.539 620.498 638.25C620.641 636.773 621.029 634.758 620.502 633.344L620.222 632.681C619.568 633.945 619.008 635.08 618 636.111C614.751 636.728 611.377 636.535 608.083 636.523C602.7 636.504 597.421 636.375 592.07 635.75L591.75 635.232L587.738 634.654L587.658 634.688C585.83 635.812 583.338 635.244 581.254 635.11C576.362 634.797 571.474 634.594 566.576 634.419L528.33 634.504L504.057 633.826L503.414 632.222C498.736 633.198 493.265 635.618 488.847 637.514C484.243 635.629 477.285 637.336 472.507 638.146C470.42 638.501 468.015 639.206 466 638.431L465.195 638.143L464.577 637.908C471.872 625.858 478.503 613.454 485.679 601.342C489.375 595.103 492.914 588.751 497.431 583.055C479.985 581.442 463.202 572.796 447.314 565.994C446.191 565.513 445.356 565.018 444.367 564.315C444.622 563.357 445.029 562.301 444.796 561.311C444.351 559.423 436.918 555.502 435.046 554.404C434.726 554.216 434.368 553.964 434 553.864C432.56 553.469 431.685 553.265 430.364 552.526L429.914 552.269C427 551.331 424.055 550.48 421.325 549.074C410.33 554.957 400.165 562.829 389.593 569.492C374.032 579.3 357.926 587.76 341.236 595.457C315.217 607.456 287.579 614.903 261.698 627.274C258.699 628.708 255.36 629.531 252.481 631.172C251.835 631.279 251.229 631.327 250.573 631.325C248.093 631.317 248.06 630.775 246.327 629.024C246.341 628.24 260.256 604.439 261.523 602.168C277.503 573.524 291.725 543.911 307.924 515.401C318.052 497.577 328.937 480.111 339.487 462.528L375.426 402.624C373.605 403.727 372.581 404.627 370.429 404.648L370.007 403.75C371.25 397.309 374.508 390.567 377.571 384.798C383.855 372.965 391.659 362.085 398.928 350.856C406.777 338.731 414.577 326.591 422.573 314.561C422.515 312.765 423.248 312.49 423.255 311L422.755 310.25C422.804 309.432 422.769 309.012 422.502 308.219L422.25 307.5L422.255 306.75C421.9 306.288 421.322 305.667 421.125 305.125C420.892 304.484 421.131 304.162 420.705 303.477L420.377 303L420 302.245L419.25 302.745L419.245 303.25C418.759 303.7 418.333 304.111 417.969 304.669C417.378 305.576 417.035 306.105 416.009 306.562L415.177 306.907C423.257 294.496 432.759 282.504 441.968 270.908C444.674 267.501 447.371 263.215 450.654 260.394L451.227 261.004C450.175 262.068 449.952 262.634 449.245 263.75C448.693 264.622 447.714 264.936 447.123 266C446.119 267.807 445.17 267.218 445.375 269.625L447 270.25L447.164 270.883C447.59 272.161 448.516 273.145 449.278 274.237C449.967 275.225 450.837 276.084 451.662 276.958L461.996 266.76C462.6 267.266 462.461 267.008 462.623 267.379ZM834.476 299.016C834.334 307.566 830.684 316.378 827.919 324.368C826.545 328.338 825.393 332.459 823.853 336.363C817.591 352.244 808.606 367.768 800.06 382.502C783.758 410.608 765.058 436.956 743.327 461.136C737.908 467.166 732.478 473.376 726.643 479.009C712.873 492.301 698.886 505.766 683.498 517.164C677.444 521.647 671.193 525.922 664.917 530.091C661.027 532.675 656.937 535.037 653.327 538.001C652.723 538.498 652.264 538.562 651.528 538.708C649.165 539.177 645.842 541.605 643.615 542.757C638.646 545.326 633.606 547.747 628.5 550.03C602.136 561.817 574.379 573.236 545.75 577.995C533.653 580.005 522.051 581.632 509.781 581.837C506.443 581.893 499.947 581.129 497.431 583.055C492.914 588.751 489.375 595.103 485.679 601.342C478.503 613.454 471.872 625.858 464.577 637.908L465.195 638.143L466 638.431C468.015 639.206 470.42 638.501 472.507 638.146C477.285 637.336 484.243 635.629 488.847 637.514C493.265 635.618 498.736 633.198 503.414 632.222L504.057 633.826L528.33 634.504L566.576 634.419C571.474 634.594 576.362 634.797 581.254 635.11C583.338 635.244 585.83 635.812 587.658 634.688L587.738 634.654L591.75 635.232L592.07 635.75C597.421 636.375 602.7 636.504 608.083 636.523C611.377 636.535 614.751 636.728 618 636.111C619.008 635.08 619.568 633.945 620.222 632.681L620.502 633.344C621.029 634.758 620.641 636.773 620.498 638.25C622.013 638.539 623.811 637.854 625.311 637.496C625.904 636.174 628.179 634.406 629.25 633.311C632.79 633.555 636.268 630.772 639.073 628.847C641.168 627.956 643.633 627.597 645.819 626.853C652.07 624.728 660.464 621.14 665 616.278C664.369 615.192 664.914 613.15 665.058 611.865C665.555 607.428 666.093 602.999 666.666 598.571C667.789 589.882 668.647 581.172 669.827 572.489C670.853 564.944 672.21 557.476 673.114 549.906L694.149 534.546C713.33 519.794 730.971 501.879 747.145 483.97C764.745 464.483 780.693 444.099 795.577 422.479C814.793 394.566 831.839 364.571 842.554 332.288C845.514 323.37 848.473 314.135 849.684 304.792L834.476 299.016Z"/>
	<defs>
		<linearGradient id="gradient_3" gradientUnits="userSpaceOnUse" x1="446.75" y1="270.25" x2="412.36499" y2="296.116">
			<stop offset="0" stop-color="#FC341C"/>
			<stop offset="1" stop-color="#EA0168"/>
		</linearGradient>
	</defs>
	<path fill="url(#gradient_3)" transform="scale(0.5 0.5)" d="M415.177 306.907C423.257 294.496 432.759 282.504 441.968 270.908C444.674 267.501 447.371 263.215 450.654 260.394L451.227 261.004C450.175 262.068 449.952 262.634 449.245 263.75C448.693 264.622 447.714 264.936 447.123 266C446.119 267.807 445.17 267.218 445.375 269.625L447 270.25L447.164 270.883C447.59 272.161 448.516 273.145 449.278 274.237C449.967 275.225 450.837 276.084 451.662 276.958L461.996 266.76C462.6 267.266 462.461 267.008 462.623 267.379L462.352 267.683C458.176 272.296 453.386 276.374 449.154 280.975C439.575 291.392 430.693 302.97 422.573 314.561C422.515 312.765 423.248 312.49 423.255 311L422.755 310.25C422.804 309.432 422.769 309.012 422.502 308.219L422.25 307.5L422.255 306.75C421.9 306.288 421.322 305.667 421.125 305.125C420.892 304.484 421.131 304.162 420.705 303.477L420.377 303L420 302.245L419.25 302.745L419.245 303.25C418.759 303.7 418.333 304.111 417.969 304.669C417.378 305.576 417.035 306.105 416.009 306.562L415.177 306.907Z"/>
	<path fill="#DCDBDC" transform="scale(0.5 0.5)" d="M804.379 259.264L801.05 259.439C793.947 259.506 782.012 259.708 776.87 254.372C774.692 252.112 772.975 248.98 771.328 246.325C766.161 237.995 761.824 228.954 758.863 219.596C757.567 215.502 756.771 211.273 755.707 207.116C754.842 203.737 753.571 200.46 753.066 196.999C752.278 191.593 752.344 185.786 752.618 180.332C753.577 161.282 760.557 141.556 775.149 128.628C784.379 120.45 796.837 119.377 808.568 120.073C815.316 120.474 822.977 121.014 829.523 122.728C848.46 127.684 862.078 140.33 874.765 154.521L909.829 146.573L910.257 146.942C913.549 149.597 919.927 153.006 921.626 157.069C920.402 157.776 919.933 157.781 919.573 159.228C919.358 160.093 919.603 160.899 919.781 161.75C920.49 162.496 920.698 162.938 921.703 163.234C922.698 163.528 922.305 163.393 923.25 163.792C916.091 164.831 876.915 172.437 872.75 170.577C871.418 171.242 870.593 171.711 870.168 173.25C869.665 175.069 869.971 176.106 870.17 177.75C870.276 178.624 869.598 180.656 869.502 181.639C867.545 186.301 864.061 190.8 859.271 192.807C858.401 193.172 857.637 193.679 856.839 194.177L856 194.557L854.829 194.551C850.507 194.544 840.966 197.208 837.856 200.318C835.592 202.581 833.797 205.506 832.019 208.153C826.921 215.742 822.813 224.113 818.338 232.086C813.601 240.526 806.619 249.854 804.379 259.264Z"/>
	<path fill="#28283A" transform="scale(0.5 0.5)" d="M800.916 126.75C803.54 127.607 805.986 128.826 808.049 130.69C810.11 132.552 811.552 135.291 811.528 138.1C811.504 140.819 810.124 143.234 808.206 145.099C805.663 147.57 803.806 147.607 800.466 147.601C796.995 146.676 794.294 145.142 791.987 142.344C790.366 140.378 789.227 137.711 789.61 135.114C790.123 131.63 792.771 129.803 795.953 128.837C797.434 128.388 799.042 128.284 800.289 127.288L800.916 126.75Z"/>
	<path fill="#FE5601" transform="scale(0.5 0.5)" d="M834.476 299.016L849.684 304.792C848.473 314.135 845.514 323.37 842.554 332.288C831.839 364.571 814.793 394.566 795.577 422.479C780.693 444.099 764.745 464.483 747.145 483.97C730.971 501.879 713.33 519.794 694.149 534.546L673.114 549.906C672.21 557.476 670.853 564.944 669.827 572.489C668.647 581.172 667.789 589.882 666.666 598.571C666.093 602.999 665.555 607.428 665.058 611.865C664.914 613.15 664.369 615.192 665 616.278C660.464 621.14 652.07 624.728 645.819 626.853C643.633 627.597 641.168 627.956 639.073 628.847C636.268 630.772 632.79 633.555 629.25 633.311C628.179 634.406 625.904 636.174 625.311 637.496C623.811 637.854 622.013 638.539 620.498 638.25C620.641 636.773 621.029 634.758 620.502 633.344L620.222 632.681C619.568 633.945 619.008 635.08 618 636.111C614.751 636.728 611.377 636.535 608.083 636.523C602.7 636.504 597.421 636.375 592.07 635.75L591.75 635.232L587.738 634.654L587.658 634.688C585.83 635.812 583.338 635.244 581.254 635.11C576.362 634.797 571.474 634.594 566.576 634.419L528.33 634.504L504.057 633.826L503.414 632.222C498.736 633.198 493.265 635.618 488.847 637.514C484.243 635.629 477.285 637.336 472.507 638.146C470.42 638.501 468.015 639.206 466 638.431L465.195 638.143L464.577 637.908C471.872 625.858 478.503 613.454 485.679 601.342C489.375 595.103 492.914 588.751 497.431 583.055C499.947 581.129 506.443 581.893 509.781 581.837C522.051 581.632 533.653 580.005 545.75 577.995C574.379 573.236 602.136 561.817 628.5 550.03C633.606 547.747 638.646 545.326 643.615 542.757C645.842 541.605 649.165 539.177 651.528 538.708C652.264 538.562 652.723 538.498 653.327 538.001C656.937 535.037 661.027 532.675 664.917 530.091C671.193 525.922 677.444 521.647 683.498 517.164C698.886 505.766 712.873 492.301 726.643 479.009C732.478 473.376 737.908 467.166 743.327 461.136C765.058 436.956 783.758 410.608 800.06 382.502C808.606 367.768 817.591 352.244 823.853 336.363C825.393 332.459 826.545 328.338 827.919 324.368C830.684 316.378 834.334 307.566 834.476 299.016ZM503.414 632.222L504.057 633.826L528.33 634.504L566.576 634.419C571.474 634.594 576.362 634.797 581.254 635.11C583.338 635.244 585.83 635.812 587.658 634.688C584.04 634.084 580.795 632.364 577.421 631.005C566.036 626.417 555.505 620.745 544.574 615.246C530.867 620.747 516.288 624.878 503.414 632.222ZM620.222 632.681L620.502 633.344C621.029 634.758 620.641 636.773 620.498 638.25C622.013 638.539 623.811 637.854 625.311 637.496C625.904 636.174 628.179 634.406 629.25 633.311C632.79 633.555 636.268 630.772 639.073 628.847C636.742 626.115 628.185 624.448 624.537 623.473C622.941 626.137 620.5 629.543 620.222 632.681Z"/>
	<defs>
		<linearGradient id="gradient_4" gradientUnits="userSpaceOnUse" x1="621.25" y1="631.75" x2="623.479" y2="632.56897">
			<stop offset="0" stop-color="#FEFEFE" stop-opacity="0"/>
			<stop offset="1" stop-color="#FEFEFE" stop-opacity="0.031372551"/>
		</linearGradient>
	</defs>
	<path fill="url(#gradient_4)" transform="scale(0.5 0.5)" d="M620.222 632.681C620.5 629.543 622.941 626.137 624.537 623.473C628.185 624.448 636.742 626.115 639.073 628.847C636.268 630.772 632.79 633.555 629.25 633.311C628.179 634.406 625.904 636.174 625.311 637.496C623.811 637.854 622.013 638.539 620.498 638.25C620.641 636.773 621.029 634.758 620.502 633.344L620.222 632.681Z"/>
	<defs>
		<linearGradient id="gradient_5" gradientUnits="userSpaceOnUse" x1="546.75" y1="628.75" x2="545.24402" y2="622.75">
			<stop offset="0" stop-color="#FEFEFE" stop-opacity="0.45882353"/>
			<stop offset="1" stop-color="#FEFEFE" stop-opacity="0.51372552"/>
		</linearGradient>
	</defs>
	<path fill="url(#gradient_5)" transform="scale(0.5 0.5)" d="M528.33 634.504L531.494 633.75L530.895 633L531.5 631.131C531.717 630.372 531.576 629.897 531.396 629.155C529.914 628.379 529.221 628.21 528.348 626.75C529.102 624.856 530.006 623.867 531.871 622.918C532.473 622.612 532.322 622.764 533.25 622.873L535.209 622.031C536.958 621.3 537.496 620.813 539.5 620.629L540.453 620.478C542.62 620.155 546.399 620.556 548.169 621.792L549.327 622.726C550.897 623.983 552.762 624.202 554.681 624.545C555.611 624.711 555.253 624.628 556.238 625.106C556.299 628.132 556.366 630.899 557.178 633.838L566.576 634.419L528.33 634.504Z"/>
	<path fill="#35B8EB" transform="scale(0.5 0.5)" d="M378.616 398.873L433.804 336.24C454.457 316.209 476.401 297.996 500.07 281.653C518.302 269.065 537.05 257.576 557.992 250.005C569.711 245.769 582.322 243.229 594.601 241.242C604.471 239.645 614.917 238.371 624.92 238.567C649.706 239.054 674.136 242.907 692.22 261.59C684.492 274.152 676.965 286.567 667.753 298.156C649.709 320.856 625.143 339.196 599.369 352.347C593.248 355.47 586.97 358.002 580.75 360.792C578.193 361.938 575.769 363.183 573.113 364.219C571.641 364.792 569.808 365.11 568.452 365.88C565.373 367.629 560.028 369.719 556.5 370.509L555.769 370.612C554.285 370.865 552.971 371.869 551.397 372.25C548.892 372.856 546.562 373.938 544 374.481C541.887 374.93 539.962 375.743 537.831 376.167C536.399 376.451 535.124 377.179 533.734 377.603C531.09 378.407 528.457 378.842 525.894 379.945C525.256 380.219 524.899 380.243 524.229 380.311C521.9 380.55 519.897 381.777 517.552 382.098C516.385 382.257 516.881 382.11 515.99 382.641C514.848 383.322 513.027 383.828 511.708 383.458L511.238 383.25L510.629 383.805C508.76 385.363 501.852 386.261 499.276 386.519C498.452 386.602 498.696 386.585 497.933 387.064C496.533 387.944 494.834 387.906 493.251 388.248C487.506 389.489 480.787 389.945 475.5 392.138C474.525 392.543 473.433 392.514 472.477 392.193C469.645 391.241 461.82 394.07 458.503 394.47C455.928 394.781 453.715 394.301 451.17 395.123C446.813 396.531 441.069 396.847 436.5 396.784C432.166 396.724 428.183 395.653 424.229 397.967C421.314 399.672 383.689 400.059 378.616 398.873Z"/>
	<path fill="#179CEA" transform="scale(0.5 0.5)" d="M692.22 261.59C697.748 267.962 703.136 274.813 706.264 282.745C709.592 291.184 710.117 301.464 709.501 310.415C707.798 335.132 695.964 356.635 682.626 376.91C662.38 407.686 637.261 435.318 609.439 459.398C583.151 482.151 553.944 501.273 523.179 517.37C510.915 523.787 498.708 529.866 485.881 535.096C474.27 539.829 462.28 544.1 450.459 548.296C446.688 549.635 442.529 550.567 438.862 552.093C437.65 552.458 435.714 553.322 434.5 553.409C433.466 553.483 431.218 552.424 429.914 552.269C427 551.331 424.055 550.48 421.325 549.074C410.33 554.957 400.165 562.829 389.593 569.492C374.032 579.3 357.926 587.76 341.236 595.457C315.217 607.456 287.579 614.903 261.698 627.274C258.699 628.708 255.36 629.531 252.481 631.172C251.835 631.279 251.229 631.327 250.573 631.325C248.093 631.317 248.06 630.775 246.327 629.024C246.341 628.24 260.256 604.439 261.523 602.168C277.503 573.524 291.725 543.911 307.924 515.401C318.052 497.577 328.937 480.111 339.487 462.528L375.426 402.624L378.616 398.873C383.689 400.059 421.314 399.672 424.229 397.967C428.183 395.653 432.166 396.724 436.5 396.784C441.069 396.847 446.813 396.531 451.17 395.123C453.715 394.301 455.928 394.781 458.503 394.47C461.82 394.07 469.645 391.241 472.477 392.193C473.433 392.514 474.525 392.543 475.5 392.138C480.787 389.945 487.506 389.489 493.251 388.248C494.834 387.906 496.533 387.944 497.933 387.064C498.696 386.585 498.452 386.602 499.276 386.519C501.852 386.261 508.76 385.363 510.629 383.805L511.238 383.25L511.708 383.458C513.027 383.828 514.848 383.322 515.99 382.641C516.881 382.11 516.385 382.257 517.552 382.098C519.897 381.777 521.9 380.55 524.229 380.311C524.899 380.243 525.256 380.219 525.894 379.945C528.457 378.842 531.09 378.407 533.734 377.603C535.124 377.179 536.399 376.451 537.831 376.167C539.962 375.743 541.887 374.93 544 374.481C546.562 373.938 548.892 372.856 551.397 372.25C552.971 371.869 554.285 370.865 555.769 370.612L556.5 370.509C560.028 369.719 565.373 367.629 568.452 365.88C569.808 365.11 571.641 364.792 573.113 364.219C575.769 363.183 578.193 361.938 580.75 360.792C586.97 358.002 593.248 355.47 599.369 352.347C625.143 339.196 649.709 320.856 667.753 298.156C676.965 286.567 684.492 274.152 692.22 261.59Z"/>
	<path fill="#34BDD4" transform="scale(0.5 0.5)" d="M568.468 423.322C576.367 419.566 582.799 414.352 589.5 408.808L590.148 409.25C588.796 410.605 587.525 411.835 585.997 412.998L564.28 431.278C564.503 429.526 566.976 427.562 567.825 425.881L568.114 425.25L568.75 424.5L568.468 423.322Z"/>
	<path fill="#35B8EB" transform="scale(0.5 0.5)" d="M382.952 463.574L384.714 463.255C389.083 462.32 393.319 462.529 397.736 462.183C402.505 461.809 407.245 461.125 412.002 460.676C414.057 460.483 416.242 460.538 418.254 460.096C426.549 458.274 435.356 457.756 443.768 456.433C448.153 455.743 452.416 454.478 456.788 453.764C460.608 453.14 465.162 453.19 468.797 452.109C469.881 451.787 470.018 452.143 471 452.629L471.251 452.312C472.732 450.931 481.82 449.053 483.998 449.285L484.75 449.384L490.081 448.326L499.003 446.077C504.446 444.941 509.787 443.236 515.188 441.912C526.186 439.216 537.428 436.678 548 432.571C554.999 429.853 561.51 426.146 568.468 423.322L568.75 424.5L568.114 425.25L567.825 425.881C566.976 427.562 564.503 429.526 564.28 431.278C561.106 435.128 556.702 438.159 552.997 441.498C545.488 448.265 538.717 455.591 530.745 461.75C528.491 463.491 526.662 465.695 524.245 467.25C522.855 468.144 521.815 469.486 520.371 470.359C519.235 471.046 518.403 472.016 517.247 472.748L505.765 481.851C505.089 482.411 504.477 482.789 503.745 483.25L501.153 485.204C500.017 486.092 499.236 486.799 497.998 487.498L494 490.722L491.202 492.9C490.547 493.447 489.935 493.779 489.245 494.25L488 495.226L479.202 501.897C478.551 502.434 477.93 502.781 477.245 503.25L476 504.218L455.136 519.922C454.301 520.631 455.295 519.778 453.998 520.497L453.14 521.33C452.48 522.002 452.014 522.26 451.245 522.75L446.765 526.362C445.765 527.206 446.318 526.791 445.371 527.361C444.757 527.73 444.461 528.023 443.966 528.518C442.44 530.043 444.058 528.61 442.498 529.497C441.571 530.025 441.057 530.914 439.997 531.497C439.136 531.972 438.465 532.928 437.498 533.497C436.379 534.156 435.746 535.292 434.498 535.997C432.429 537.166 431.256 539.802 428.998 540.997C427.709 541.679 425.955 543.96 424.745 545L422.745 547.5C423.117 548.179 423.195 548.755 423.938 549.035L425.5 549.75L426 549.378L426.393 549.615C428.216 550.698 429.165 550.791 431.25 550.755L432 551.255L433.5 551.75L434 551.255L435 551.378L436.25 551.255L436.769 551.988L437.458 551.97C438.392 551.957 438.018 551.926 438.862 552.093C437.65 552.458 435.714 553.322 434.5 553.409C433.466 553.483 431.218 552.424 429.914 552.269C427 551.331 424.055 550.48 421.325 549.074C410.33 554.957 400.165 562.829 389.593 569.492C374.032 579.3 357.926 587.76 341.236 595.457C315.217 607.456 287.579 614.903 261.698 627.274C258.699 628.708 255.36 629.531 252.481 631.172C251.835 631.279 251.229 631.327 250.573 631.325C248.093 631.317 248.06 630.775 246.327 629.024C246.341 628.24 260.256 604.439 261.523 602.168C277.503 573.524 291.725 543.911 307.924 515.401C318.052 497.577 328.937 480.111 339.487 462.528C347.961 462.446 356.555 463.099 365.031 463.446C368.621 463.594 372.56 464.09 376.121 463.748C377.412 462.779 381.213 463.49 382.952 463.574Z"/>
	<path fill="#2994E3" transform="scale(0.5 0.5)" d="M376.121 463.748C377.412 462.779 381.213 463.49 382.952 463.574L377.561 471.925L375.941 467.159L376.121 463.748Z"/>
	<path fill="#179CEA" transform="scale(0.5 0.5)" d="M375.941 467.159L377.561 471.925C377.479 473.616 377.268 475.679 376.627 477.25C376.112 478.513 375.896 479.442 375.787 480.808C375.711 481.754 375.928 481.315 375.25 482L375 480.75L374.5 480.75C374.747 482.207 374.848 482.83 374.25 484.245C373.884 482.767 373.658 481.515 373.773 479.985C373.863 478.772 373.872 477.655 373.788 476.441L373.755 476C374.635 475.111 374.253 473.251 374.255 472L374.75 471.351C374.865 469.641 375.097 468.658 375.941 467.159Z"/>
</svg>
