<?xml version="1.0" encoding="utf-8" ?>
<svg xmlns="http://www.w3.org/2000/svg" xmlns:xlink="http://www.w3.org/1999/xlink" width="512" height="512">
	<path fill="#E63515" transform="scale(0.5 0.5)" d="M0 955.198L0 -0L1024 0L1024 1024L282.029 1024L272.718 1024L120.409 1024L117.208 1024L-0 1024L0 962.012L0 955.198ZM0 955.198C2.33482 953.17 3.98427 946.496 5.35357 943.538C6.86524 940.272 8.6124 937.077 10.4157 933.964C17.9688 920.923 27.1154 908.649 35.9545 896.446C55.4507 869.529 78.0512 844.98 97.8515 818.279C105.899 807.427 113.874 796.297 121.445 785.109C130.891 771.151 139.968 756.813 151.12 744.11C154.896 739.809 158.775 735.927 163.452 732.6C165.919 730.846 169.463 729.255 171.469 727.066L171.997 726.466C166.498 726.486 159.74 730.33 154.384 731.84L154.376 731.867C129.269 740.667 104.712 751.012 80.1352 761.18C59.7989 769.593 39.0701 778.719 17.5262 783.472C22.4383 779.694 26.7079 774.962 31.1383 770.637C41.3482 760.671 51.3191 750.479 61.3702 740.354C90.3299 711.182 119.257 681.965 148.329 652.901C150.177 650.923 152.067 648.999 153.558 646.728C151.149 641.357 149.842 635.869 148.286 630.215C146.036 622.04 143.896 613.794 141.838 605.567C135.875 581.732 131.09 556.385 129.367 531.862C125.869 482.082 133.291 430.06 151.033 383.408C156.644 368.656 162.374 353.988 169.374 339.828C195.028 287.934 233.421 240.498 280.109 206.077C302.094 189.868 327.429 175.641 352.313 164.481C361.05 160.563 369.773 156.354 378.75 153.014C404.272 143.517 431.835 136.462 458.779 132.61C468.031 131.287 477.755 130.675 487.109 130.025C491.365 129.73 495.527 128.747 499.768 128.542C513.419 127.884 526.675 128.887 540.209 130.292C544.964 130.786 549.737 131.433 554.5 131.804C557.588 132.044 561.302 131.765 564.25 132.807L565.378 133.299C567.121 134.054 569.358 133.921 571.247 134.003C574.464 134.144 577.362 134.347 580.5 135.137C585.869 136.49 591.355 137.111 596.75 138.33C610.505 141.438 624.444 145.468 637.752 150.114C719.947 178.81 793.57 235.673 838.934 310.302C862.54 349.137 880.3 392.852 889.137 437.475C899.708 490.857 897.235 547.671 884.258 600.371C866.071 674.224 827.75 743.146 771.487 794.704C752.851 811.782 731.92 826.828 710.288 839.846C676.578 860.133 639.674 875.445 601.5 884.98C586.065 888.835 569.966 890.818 554.174 892.135C550.802 892.417 547.526 893.379 544.125 893.623C538.659 894.015 533.13 893.914 527.652 894.097C490.055 895.356 452.394 892.501 415.825 883.32C395.748 878.279 373.976 871.031 355.959 860.789C344.472 888.332 330.138 915.044 316.517 941.594C302.8 968.331 289.422 994.657 282.029 1024L1024 1024L1024 0L0 -0L0 955.198ZM357.297 448.224C352.673 451.124 348.77 455.012 344.794 458.72C337.949 465.104 331.39 471.788 324.625 478.257C295.626 505.982 267.042 534.125 237.997 561.815C226.003 573.25 214.549 586.76 201.043 596.353C197.547 601.042 193.217 605.219 189.153 609.423C182.089 616.731 174.838 623.861 167.631 631.028C162.889 635.743 156.761 640.812 153.558 646.728C152.067 648.999 150.177 650.923 148.329 652.901C119.257 681.965 90.3299 711.182 61.3702 740.354C51.3191 750.479 41.3482 760.671 31.1383 770.637C26.7079 774.962 22.4383 779.694 17.5262 783.472C39.0701 778.719 59.7989 769.593 80.1352 761.18C104.712 751.012 129.269 740.667 154.376 731.867L154.384 731.84C159.74 730.33 166.498 726.486 171.997 726.466L171.469 727.066C169.463 729.255 165.919 730.846 163.452 732.6C158.775 735.927 154.896 739.809 151.12 744.11C139.968 756.813 130.891 771.151 121.445 785.109C113.874 796.297 105.899 807.427 97.8515 818.279C78.0512 844.98 55.4507 869.529 35.9545 896.446C27.1154 908.649 17.9688 920.923 10.4157 933.964C8.6124 937.077 6.86524 940.272 5.35357 943.538C3.98427 946.496 2.33482 953.17 0 955.198L0 962.012L-0 1024L117.208 1024L120.409 1024L272.718 1024L282.029 1024C289.422 994.657 302.8 968.331 316.517 941.594C330.138 915.044 344.472 888.332 355.959 860.789L376.019 810.593L384.087 783.032C390.462 766.177 394.124 747.272 396.444 729.443C396.808 726.648 398.034 722.179 397.072 719.557C392.028 719.574 386.41 718.363 381.489 717.274C371.118 714.156 360.7 711.469 350.503 707.766C336.874 702.816 324.216 696.474 312.075 688.545C307.896 685.814 303.596 683.399 299.825 680.089C316.206 674.259 333.145 670.234 349.489 664.157C361.768 659.591 374.222 655.051 386.147 649.629C393.621 646.231 400.755 642.118 408.239 638.747C414.251 636.039 420.463 633.776 426.5 631.115C457.995 617.237 489.837 602.294 516.987 580.881C521.91 576.998 528.71 571.878 532.115 566.529C537.818 562.909 543.377 556.706 548.047 551.75C553.301 546.173 556.989 539.376 560.154 532.449C564.944 521.964 568.498 510.989 569.836 499.505C570.735 491.791 570.529 484.076 570.324 476.332L571.301 476.072C573.416 475.4 575.398 472.976 576.89 471.395C583.569 464.317 588.541 455.917 593.601 447.668C596.588 442.799 599.718 438.097 602.258 432.962C595.37 426.015 588.069 418.915 582.196 411.08C571.469 396.767 565.077 378.516 563.291 360.774C562.784 355.738 562.827 350.649 562.205 345.622C561.161 337.166 558.955 329.338 555.864 321.419C543.975 319.456 487.998 346.409 475.05 353.529C468.681 357.031 462.619 361.078 456.715 365.31L357.297 448.224Z"/>
	<path fill="#48D6C7" transform="scale(0.5 0.5)" d="M201.043 596.353C198.91 581.45 195.577 566.691 193.75 551.761C188.841 511.649 190.514 469.642 197.829 429.96C211.658 354.932 256.881 289.774 319.31 246.798C333.663 236.918 348.957 227.729 364.782 220.432C402.449 203.063 444.237 193.685 485.581 191.219C494.056 190.713 502.654 190.858 511.144 190.874C534.058 190.919 557.683 192.515 580.238 196.7C662.663 211.996 737.359 258.431 784.892 327.917C812.3 367.982 827.167 415.241 831.611 463.371C832.973 478.12 833.05 493.127 832.972 507.934C832.87 527.2 832.321 547.387 828.753 566.346L828 565.445L825.75 565.818C820.33 561.339 816.138 553.096 812.406 547.093C803.168 532.236 794.812 516.795 785.206 502.188C770.015 479.086 753.72 456.585 737.764 434.004C730.985 424.411 723.399 415.482 715.865 406.485C703.515 391.735 690.823 377.245 677.123 363.73C673.726 360.38 668.719 353.782 664.143 352.989C661.845 350.221 659.712 347.762 656.453 346.074C654.326 345.904 651.492 343.456 649.715 342.284C645.122 339.254 640.555 336.175 635.796 333.408C632.129 331.275 628.159 329.275 624.169 327.831C607.902 321.941 591.31 320.279 574.114 320.7C568.033 320.849 561.936 321.489 555.864 321.419C543.975 319.456 487.998 346.409 475.05 353.529C468.681 357.031 462.619 361.078 456.715 365.31L357.297 448.224C352.673 451.124 348.77 455.012 344.794 458.72C337.949 465.104 331.39 471.788 324.625 478.257C295.626 505.982 267.042 534.125 237.997 561.815C226.003 573.25 214.549 586.76 201.043 596.353Z"/>
	<path fill="#03B5CF" transform="scale(0.5 0.5)" d="M555.864 321.419C561.936 321.489 568.033 320.849 574.114 320.7C591.31 320.279 607.902 321.941 624.169 327.831C628.159 329.275 632.129 331.275 635.796 333.408C640.555 336.175 645.122 339.254 649.715 342.284C651.492 343.456 654.326 345.904 656.453 346.074C659.712 347.762 661.845 350.221 664.143 352.989C668.719 353.782 673.726 360.38 677.123 363.73C690.823 377.245 703.515 391.735 715.865 406.485C723.399 415.482 730.985 424.411 737.764 434.004C753.72 456.585 770.015 479.086 785.206 502.188C794.812 516.795 803.168 532.236 812.406 547.093C816.138 553.096 820.33 561.339 825.75 565.818L828 565.445L828.753 566.346C824.916 592.1 819.347 617.575 810.221 642.036C791.629 691.866 757.188 736.375 714.559 767.964C691.328 785.178 665.016 799.92 637.978 810.228C580.152 832.273 514.311 837.362 453.325 828.19C439.276 826.077 425.314 823.085 411.426 820.095C403.448 818.378 395.575 816.482 387.729 814.24C383.818 813.122 379.776 812.169 376.019 810.593L384.087 783.032C390.462 766.177 394.124 747.272 396.444 729.443C396.808 726.648 398.034 722.179 397.072 719.557C392.028 719.574 386.41 718.363 381.489 717.274C371.118 714.156 360.7 711.469 350.503 707.766C336.874 702.816 324.216 696.474 312.075 688.545C307.896 685.814 303.596 683.399 299.825 680.089C316.206 674.259 333.145 670.234 349.489 664.157C361.768 659.591 374.222 655.051 386.147 649.629C393.621 646.231 400.755 642.118 408.239 638.747C414.251 636.039 420.463 633.776 426.5 631.115C457.995 617.237 489.837 602.294 516.987 580.881C521.91 576.998 528.71 571.878 532.115 566.529C537.818 562.909 543.377 556.706 548.047 551.75C553.301 546.173 556.989 539.376 560.154 532.449C564.944 521.964 568.498 510.989 569.836 499.505C570.735 491.791 570.529 484.076 570.324 476.332L571.301 476.072C573.416 475.4 575.398 472.976 576.89 471.395C583.569 464.317 588.541 455.917 593.601 447.668C596.588 442.799 599.718 438.097 602.258 432.962C595.37 426.015 588.069 418.915 582.196 411.08C571.469 396.767 565.077 378.516 563.291 360.774C562.784 355.738 562.827 350.649 562.205 345.622C561.161 337.166 558.955 329.338 555.864 321.419Z"/>
	<path fill="#11355B" transform="scale(0.5 0.5)" d="M656.453 346.074C659.712 347.762 661.845 350.221 664.143 352.989C673.837 366.459 683.493 380.612 687.976 396.792C690.901 407.346 691.266 419.323 689.536 430.102C687.387 443.497 680.63 455.523 669.526 463.532C656.123 473.2 642.04 475.22 625.975 476.766C625.247 476.188 625.363 476.37 624.836 475.598C623.835 474.133 623.343 471.403 623.781 469.712C643.467 446.735 655.868 415.926 657.384 385.594C658.045 372.373 656.642 359.266 656.453 346.074Z"/>
	<path fill="#DADAD9" transform="scale(0.5 0.5)" d="M555.864 321.419C561.936 321.489 568.033 320.849 574.114 320.7C591.31 320.279 607.902 321.941 624.169 327.831C628.159 329.275 632.129 331.275 635.796 333.408C640.555 336.175 645.122 339.254 649.715 342.284C651.492 343.456 654.326 345.904 656.453 346.074C656.642 359.266 658.045 372.373 657.384 385.594C655.868 415.926 643.467 446.735 623.781 469.712C621.044 455.837 612.202 442.684 602.258 432.962C595.37 426.015 588.069 418.915 582.196 411.08C571.469 396.767 565.077 378.516 563.291 360.774C562.784 355.738 562.827 350.649 562.205 345.622C561.161 337.166 558.955 329.338 555.864 321.419Z"/>
	<path fill="#111C28" transform="scale(0.5 0.5)" d="M574.045 352.013C575.331 351.941 577.115 351.685 578.305 352.267C580.211 353.198 581.351 354.523 582.145 356.477C582.815 358.13 582.939 360.685 582.134 362.297C580.955 364.656 578.662 365.686 576.315 366.519C575.349 366.531 574.487 366.514 573.527 366.349C571.804 366.054 570.12 365.215 569.18 363.708C568.052 361.9 567.843 359.786 568.482 357.767C569.445 354.723 571.431 353.496 574.045 352.013Z"/>
	<path fill="#E63515" transform="scale(0.5 0.5)" d="M397.072 719.557L437.415 719.696C445.86 720.272 454.347 719.958 462.806 719.999C484.584 720.102 506.34 719.578 528.112 719.514C539.503 719.481 552.244 718.278 563.348 720.79C571.416 722.615 579.205 727.456 584.603 733.697C590.027 739.969 592.559 747.597 591.936 755.901C591.382 763.275 587.358 770.696 581.75 775.448C577.171 779.327 571.331 781.698 565.426 782.564C556.828 783.825 547.557 783.468 538.882 783.384C527.32 783.272 515.759 783.135 504.198 783.046C484.165 782.892 464.154 783.383 444.13 783.318C424.128 783.252 404.085 782.639 384.087 783.032C390.462 766.177 394.124 747.272 396.444 729.443C396.808 726.648 398.034 722.179 397.072 719.557Z"/>
	<path fill="#FD6200" transform="scale(0.5 0.5)" d="M602.258 432.962C612.202 442.684 621.044 455.837 623.781 469.712C623.343 471.403 623.835 474.133 624.836 475.598C625.363 476.37 625.247 476.188 625.975 476.766C630.51 485.411 634.577 494.282 636.798 503.833C641.904 525.785 636.606 551.394 630.047 572.46C613.364 626.047 570.061 669.552 521.125 695.117C501.669 705.281 481.612 713.03 459.968 716.915C454.954 717.815 449.844 718.238 444.779 718.762C442.382 719.01 439.736 719.039 437.415 719.696L397.072 719.557C392.028 719.574 386.41 718.363 381.489 717.274C371.118 714.156 360.7 711.469 350.503 707.766C336.874 702.816 324.216 696.474 312.075 688.545C307.896 685.814 303.596 683.399 299.825 680.089C316.206 674.259 333.145 670.234 349.489 664.157C361.768 659.591 374.222 655.051 386.147 649.629C393.621 646.231 400.755 642.118 408.239 638.747C414.251 636.039 420.463 633.776 426.5 631.115C457.995 617.237 489.837 602.294 516.987 580.881C521.91 576.998 528.71 571.878 532.115 566.529C537.818 562.909 543.377 556.706 548.047 551.75C553.301 546.173 556.989 539.376 560.154 532.449C564.944 521.964 568.498 510.989 569.836 499.505C570.735 491.791 570.529 484.076 570.324 476.332L571.301 476.072C573.416 475.4 575.398 472.976 576.89 471.395C583.569 464.317 588.541 455.917 593.601 447.668C596.588 442.799 599.718 438.097 602.258 432.962Z"/>
	<path fill="#007ED9" transform="scale(0.5 0.5)" d="M357.297 448.224L456.715 365.31C462.619 361.078 468.681 357.031 475.05 353.529C487.998 346.409 543.975 319.456 555.864 321.419C558.955 329.338 561.161 337.166 562.205 345.622C562.827 350.649 562.784 355.738 563.291 360.774C565.077 378.516 571.469 396.767 582.196 411.08C588.069 418.915 595.37 426.015 602.258 432.962C599.718 438.097 596.588 442.799 593.601 447.668C588.541 455.917 583.569 464.317 576.89 471.395C575.398 472.976 573.416 475.4 571.301 476.072L570.324 476.332C570.529 484.076 570.735 491.791 569.836 499.505C568.498 510.989 564.944 521.964 560.154 532.449C556.989 539.376 553.301 546.173 548.047 551.75C543.377 556.706 537.818 562.909 532.115 566.529C528.71 571.878 521.91 576.998 516.987 580.881C489.837 602.294 457.995 617.237 426.5 631.115C420.463 633.776 414.251 636.039 408.239 638.747C400.755 642.118 393.621 646.231 386.147 649.629C374.222 655.051 361.768 659.591 349.489 664.157C333.145 670.234 316.206 674.259 299.825 680.089C303.596 683.399 307.896 685.814 312.075 688.545C324.216 696.474 336.874 702.816 350.503 707.766C360.7 711.469 371.118 714.156 381.489 717.274C386.41 718.363 392.028 719.574 397.072 719.557C398.034 722.179 396.808 726.648 396.444 729.443C394.124 747.272 390.462 766.177 384.087 783.032L376.019 810.593L355.959 860.789C344.472 888.332 330.138 915.044 316.517 941.594C302.8 968.331 289.422 994.657 282.029 1024L272.718 1024L120.409 1024L117.208 1024L-0 1024L0 962.012L0 955.198C2.33482 953.17 3.98427 946.496 5.35357 943.538C6.86524 940.272 8.6124 937.077 10.4157 933.964C17.9688 920.923 27.1154 908.649 35.9545 896.446C55.4507 869.529 78.0512 844.98 97.8515 818.279C105.899 807.427 113.874 796.297 121.445 785.109C130.891 771.151 139.968 756.813 151.12 744.11C154.896 739.809 158.775 735.927 163.452 732.6C165.919 730.846 169.463 729.255 171.469 727.066L171.997 726.466C166.498 726.486 159.74 730.33 154.384 731.84L154.376 731.867C129.269 740.667 104.712 751.012 80.1352 761.18C59.7989 769.593 39.0701 778.719 17.5262 783.472C22.4383 779.694 26.7079 774.962 31.1383 770.637C41.3482 760.671 51.3191 750.479 61.3702 740.354C90.3299 711.182 119.257 681.965 148.329 652.901C150.177 650.923 152.067 648.999 153.558 646.728C156.761 640.812 162.889 635.743 167.631 631.028C174.838 623.861 182.089 616.731 189.153 609.423C193.217 605.219 197.547 601.042 201.043 596.353C214.549 586.76 226.003 573.25 237.997 561.815C267.042 534.125 295.626 505.982 324.625 478.257C331.39 471.788 337.949 465.104 344.794 458.72C348.77 455.012 352.673 451.124 357.297 448.224ZM166.806 771.783C167.316 772.248 168.421 773.004 168.75 773.556C169.523 774.852 168.43 775.212 170 776.35C172.578 775.025 174.249 772.816 176.184 770.729C178.552 768.176 181.018 765.707 183.482 763.247C188.297 758.44 193.403 753.957 198.363 749.303C202.584 745.342 206.716 741.024 211.376 737.598C210.06 743.042 209.131 748.246 208.833 753.854C208.384 761.353 207.053 767.962 204.965 775.134C202.695 784.004 200.506 792.926 197.501 801.584C193.111 814.233 187.372 826.376 181.178 838.23L175.387 849.108L169.265 859.913C163.183 868.525 157.697 877.17 151.065 885.44C136.405 903.719 120.22 920.168 110.019 941.577C109.194 952.523 110.288 963.876 111.218 974.797C112.103 985.195 112.765 995.539 114.127 1005.89C114.549 1009.1 115.39 1012.26 115.913 1015.46L116.623 1015.22C117.195 1016.58 117.761 1017.43 119 1018.25L119.679 1018.21C120.688 1018.2 121.134 1018.48 121.981 1018.96L120.409 1024L272.718 1024L282.029 1024C289.422 994.657 302.8 968.331 316.517 941.594C330.138 915.044 344.472 888.332 355.959 860.789L376.019 810.593L384.087 783.032C390.462 766.177 394.124 747.272 396.444 729.443C396.808 726.648 398.034 722.179 397.072 719.557C392.028 719.574 386.41 718.363 381.489 717.274C371.118 714.156 360.7 711.469 350.503 707.766C336.874 702.816 324.216 696.474 312.075 688.545C307.896 685.814 303.596 683.399 299.825 680.089C289.292 684.382 278.669 688.574 268 692.514C247.649 700.031 226.901 706.731 206.975 715.338C203.855 716.685 198.987 718.18 196.471 720.337C195.583 721.098 195.263 721.907 194.819 722.953L194.485 723.75C187.288 740.406 176.619 756.518 166.806 771.783ZM428.879 615.753C428.2 616.65 427.83 617.233 426.75 617.627L426.125 617.503L426.5 618C427.363 617.922 427.642 618.032 428.336 617.492C429.073 616.919 429.829 616.591 430.625 616.125L431.5 615.5C432.356 614.889 433.134 614.605 434 614.122L436.164 612.445C436.844 611.889 437.516 611.472 438.25 611L439.695 610.023C440.783 609.298 441.937 608.766 443 608L444.252 607.125L444.755 608L444.283 608.581L443.255 610L443.502 610.997L443.939 611.077C444.825 611.301 445.342 611.79 445.877 612.5L446.002 613.497L447.25 614L447.875 613.625L448.375 613.875L448.75 613L449.375 613.375L449.875 613.125L450.75 613.5L452.245 612.25L452.25 611.5L453.245 610.5L453.123 608.5C452.253 607.801 452.745 608.105 451.625 607.625L451 608.75C450.442 608.75 450.158 608.595 449.745 609C449.75 607.785 449.725 607.5 450.653 606.578C451.099 606.135 450.863 606.25 451.5 606.25L452 605.591C452.679 604.725 453.453 604.214 454.328 603.573C454.875 603.173 454.686 603.366 455 602.745C455.395 603.009 455.991 603.621 456.498 603.497L457.75 603C458.621 603.978 459.58 604.704 459.869 605.977C460.15 607.21 460.7 607.274 461.255 608.25C461.441 608.577 461.456 609.14 461.502 609.497C461.638 610.537 461.823 610.95 462.5 611.75C461.731 612.676 461.587 613.017 460.502 613.503L459.245 614.25L458.5 614.25L458 614.75L457.25 614.755L456.547 615.24C454.462 616.629 456.936 615.048 455.002 616.003L454 616.755L453.125 616.625C451.994 617.286 451.006 617.904 450 618.755L449.125 618.625L448.75 619.755C447.766 619.916 447.479 619.843 446.688 620.476C445.997 621.029 445.684 621.003 445 621.378L444.5 621.75L443.625 622.003L443 622.378L442.383 622.551C441.065 622.949 440.924 624.11 439.5 623.878L439.102 624.134L434.648 626.469C432.38 627.69 435.268 626.219 433.125 627.003L432.5 627.378C432.024 627.623 431.54 627.709 431.033 627.837C429.023 628.346 425.709 630.472 423.672 631.415C422.886 631.779 422.581 631.837 421.75 631.755L421.25 632.5L420.502 632.503C419.805 632.566 419.429 632.624 418.953 633.096C418.406 633.64 417.942 633.724 417.25 634L415.695 634.695C414.257 635.349 412.965 635.641 411.5 636.378L411.08 636.528C409.715 637.036 408.363 637.703 407 638.25C405.418 638.884 403.675 640.497 402.002 640.503L401.5 641L399.984 641.543C399.402 641.763 399.153 642.05 398.75 642.5L398.002 642.503L397.5 643L396.5 643.378L396 643.75L395.125 644.003C394.71 644.176 394.41 644.564 394 644.75L393.125 645.003C392.71 645.176 392.41 645.564 392 645.75L391.125 646.003L390.5 646.5L386.703 648.453C385.502 649.1 384.252 649.352 383 650L381.502 650.625L381 650.878L380.125 651.003L379.5 651.5L378.25 652L377.375 652.375C376.28 652.79 375.557 652.914 374.5 653.5L373.25 654L371.695 654.695C370.849 655.08 371.244 654.933 370.508 655.117C369.554 655.356 368.443 655.886 367.5 656.25L363.5 658L362.75 657.755L362.453 658.096C361.906 658.64 361.442 658.724 360.75 659L359.875 659.375L357.836 659.867C356.872 660.06 357.543 659.899 356.5 660.5C355.846 660.877 355.228 660.988 354.5 661.112C353.557 661.272 353.314 661.583 352.5 662L350.625 662.625L350 662.878L348.002 663.503L346.75 663.755L346 664.5L345.25 664.255L344.75 664.755L344.125 665.003L343.5 665.5L342.25 665.755C341.568 665.953 341.061 666.231 340.344 666.375C339.202 666.603 340.296 666.327 339 667L338 667.25C336.755 667.603 335.604 668.12 334.328 668.375C333.224 668.596 334.268 668.341 333 669L332 669.25L331.266 669.5C330.218 669.849 330.819 669.677 329.828 669.875C328.22 670.197 330.536 669.688 328.5 670.5L327.125 670.625C325.817 670.983 324.73 671.598 323.344 671.875C322.232 672.097 323.262 671.87 321.875 672.375L319.742 673.008C318.75 673.339 317.847 673.458 316.875 673.875L315.75 673.755C315.141 674.36 315.255 674.458 314.367 674.539C313.51 674.617 308.582 675.924 308 676.5L307.594 676.594L306.266 677C305.281 677.328 304.447 677.433 303.5 677.878C302.944 678.138 302.457 678.247 301.859 678.367C300.651 678.609 301.864 678.32 300.5 679C299.758 679.37 299.045 679.25 298.25 679.245L298.745 678.75L298.169 678.422C297.567 678.059 297.214 677.764 296.75 677.255C295.755 678.32 295.291 678.632 294.877 680L294.625 680.375L294.125 680.003L293.125 680.875L293.245 679.75L292.75 679.255L292.398 679.854C291.936 680.622 292.159 680.341 291.625 680.875L291.25 679.755L290.125 680.875L289.75 679.755L288.25 681.5L287.75 680.755L287.25 681.5L286.502 681.503L286.25 682.5L285.75 681.755L285 682.5L284.25 682.255L283.125 683.375L282.625 683.003C281.634 683.83 281.132 684.248 280.75 685.5L279.875 685.875L279.125 686.375L278.625 686.003C277.719 686.724 276.889 687.408 276.07 688.227C275.327 688.97 274.916 688.886 274 689.25L270 691L268.625 690.875L268.25 690.255C267.579 691.265 267.874 690.727 267.375 691.875L266.781 692.016C265.631 692.329 264.662 692.922 263.5 693.25L262 693.75L261.25 693.984C260.112 694.364 259.165 694.921 258 695.25C256.754 695.601 255.604 696.12 254.328 696.375C253.189 696.603 254.321 696.331 253 697L252.547 697.109C251.247 697.434 250.236 698.084 248.859 698.359C247.582 698.615 248.965 698.316 247.5 699L246.255 699.25C245.427 699.466 245.501 699.512 244.726 699.93C243.904 700.372 243.375 700.51 242.5 700.75C240.851 701.203 239.56 702.019 237.859 702.359C236.713 702.589 237.776 702.354 236.5 703L236.047 703.109C234.747 703.434 233.736 704.084 232.359 704.359C231.01 704.629 232.569 704.295 231 705L230.393 705.109C229.366 705.316 228.633 705.97 227.5 706.25L226 706.75L225.25 706.984C224.302 707.3 224.659 707.178 223.734 707.641C222.797 708.109 223.27 707.939 222.347 708.125C221.542 708.287 221.928 708.133 221.268 708.625C220.507 709.193 220.123 709.049 219.255 709.25C218.507 709.423 218.412 709.56 217.726 709.93C216.896 710.377 216.335 710.438 215.5 710.75L209 713.5L207.75 714C206.69 714.436 205.711 714.911 204.703 715.453C203.523 716.088 202.444 716.327 201.25 717L197.375 718.875L196.82 719.141C195.685 719.771 194.605 720.768 194.25 722L193.755 722.5L193.25 723.255L192.255 724.25L192.75 724.755C191.774 725.64 191.315 727.234 190.502 727.503L190.255 728.75L190.75 729.255C190.533 729.689 190.219 730.069 190.002 730.503L189.75 731.255L189.377 732L189 733.25L187.755 734.25L187.75 734.755C187.364 736.032 187.483 735.018 187.002 736.003L186.774 736.736C186.506 737.537 186.383 737.732 185.755 738.25L185.75 738.755C185.014 739.491 184.757 739.408 184.75 740.5C184.248 741.13 183.758 741.429 183.75 742.255C183.014 742.991 182.757 742.908 182.75 744L181.755 745L181.875 745.875L181.339 746.359C180.667 747.034 180.568 747.358 180.375 748.253L179.255 749.25L179.25 749.755C178.966 750.694 178.541 751.222 177.755 751.75L177.75 752.255C177.52 753.017 176.903 753.826 176.5 754.5L173.062 760.328C171.333 763.541 173.958 758.813 172 761.75L171.625 762.625L170.755 763.25L170.745 763.75L170 763.255L169.245 763.75L169.245 761.75L168.5 761.378L167 762.255C165.99 761.816 165.607 761.448 164.498 761.625C163.619 761.765 162.992 761.663 162.125 761.625C160.744 761.564 160.155 762.091 159 762.755L158.125 762.625L157.125 762.625L156.695 763.086C156.12 763.661 155.708 763.889 155 764.255L154.244 764.653C153.442 765.053 152.885 765.25 152 765.25L151.125 765.753L150.5 765.75L150 766.255C148.74 767.089 147.991 766.737 146.625 766.625L145.125 766.625L144.125 766.625L142.875 767.253C140.716 767.032 139.868 768.757 138 768.75L132.5 775.255L132.123 775L133.745 772.5L133.621 772.033C133.386 771.086 133.545 770.378 133.998 769.497L135.245 768C135.81 768 136.208 768.103 136.75 768.245C137.773 767.264 138.32 766.699 138.998 765.497L140.701 763.404C141.349 762.594 142.096 761.95 142.819 761.216C143.68 760.341 142.855 761.219 143.498 759.997L145.745 756.75C144.267 756.75 143.887 757.026 142.75 758L142 757L142.508 756.398C143.367 755.348 142.892 755.963 143.539 754.945C143.946 754.307 144.259 753.984 144.781 753.469C146.983 751.295 144.188 754.214 145.875 751.875L147.027 750.842C147.795 750.129 148.265 749.004 149.125 748.151C149.951 747.334 149.021 748.237 149.875 746.875C150.655 745.631 151.798 745.568 152.25 744C154.805 741.415 157.542 737.934 160.625 736.125C161.522 735.599 162.109 734.724 163.125 734.125L164.5 733L166 732L168.242 730.492L170.625 729.125L172.5 728C173.772 727.225 174.864 726.529 176.375 726.625L176.75 727.245L177.5 726.745L178.5 726.25L178.75 726.745L179.245 726L179.998 725.997C180.15 725.284 180.245 724.736 180.25 724C181.182 723.814 183.399 723.023 183.75 722.5L184.75 722.745L185.5 722L186.25 722.745L186.623 722L187 721.5L187.502 722.375L188.498 721.997L188.75 721C190.015 721.158 189.542 720.862 190.25 721.745L190.5 720.25L190 719.755L188.125 720.143C187.474 720.276 186.909 720.274 186.25 720.255L185.5 720.755C184.415 721.321 182.796 721.641 181.595 721.879C180.726 722.051 181.256 721.919 180.4 722.259C179.565 722.591 178.926 722.418 178.125 722.625C177.106 722.888 176.058 723.447 175 723.75C173.614 724.147 172.115 724.365 171.125 725.423L171.734 725.342C172.422 725.26 173.06 725.245 173.75 725.255L174.245 725.75C173.397 726.428 173.307 726.723 172.187 726.802L171.997 726.466L171.469 727.066C169.463 729.255 165.919 730.846 163.452 732.6C158.775 735.927 154.896 739.809 151.12 744.11C139.968 756.813 130.891 771.151 121.445 785.109C113.874 796.297 105.899 807.427 97.8515 818.279C78.0512 844.98 55.4507 869.529 35.9545 896.446C27.1154 908.649 17.9688 920.923 10.4157 933.964C8.6124 937.077 6.86524 940.272 5.35357 943.538C3.98427 946.496 2.33482 953.17 0 955.198L0 962.012L-0 1024L117.208 1024L120.409 1024L121.981 1018.96C121.134 1018.48 120.688 1018.2 119.679 1018.21L119 1018.25C117.761 1017.43 117.195 1016.58 116.623 1015.22L115.913 1015.46C115.39 1012.26 114.549 1009.1 114.127 1005.89C112.765 995.539 112.103 985.195 111.218 974.797C110.288 963.876 109.194 952.523 110.019 941.577C120.22 920.168 136.405 903.719 151.065 885.44C157.697 877.17 163.183 868.525 169.265 859.913L175.387 849.108L181.178 838.23C187.372 826.376 193.111 814.233 197.501 801.584C200.506 792.926 202.695 784.004 204.965 775.134C207.053 767.962 208.384 761.353 208.833 753.854C209.131 748.246 210.06 743.042 211.376 737.598C206.716 741.024 202.584 745.342 198.363 749.303C193.403 753.957 188.297 758.44 183.482 763.247C181.018 765.707 178.552 768.176 176.184 770.729C174.249 772.816 172.578 775.025 170 776.35C168.43 775.212 169.523 774.852 168.75 773.556C168.421 773.004 167.316 772.248 166.806 771.783C176.619 756.518 187.288 740.406 194.485 723.75L194.819 722.953C195.263 721.907 195.583 721.098 196.471 720.337C198.987 718.18 203.855 716.685 206.975 715.338C226.901 706.731 247.649 700.031 268 692.514C278.669 688.574 289.292 684.382 299.825 680.089C316.206 674.259 333.145 670.234 349.489 664.157C361.768 659.591 374.222 655.051 386.147 649.629C393.621 646.231 400.755 642.118 408.239 638.747C414.251 636.039 420.463 633.776 426.5 631.115C457.995 617.237 489.837 602.294 516.987 580.881C521.91 576.998 528.71 571.878 532.115 566.529C530.908 566.271 529.316 565.795 528.088 565.979C524.343 566.54 519.069 569.92 515.5 571.438C488.637 582.857 462.077 594.399 437.488 610.314L428.879 615.753Z"/>
	<path fill="#015ADF" transform="scale(0.5 0.5)" d="M157.336 749.718L157.672 749.824L158.25 749.255L159.745 750.25L158.75 751C158.74 752.449 158.154 753.16 157.25 754.245L155.755 753.25L156 752.25L155.002 751.375L155.002 750.625L155.75 751L156.125 750.003L156.505 750.124L157.336 749.718Z"/>
	<path fill="#0752CF" transform="scale(0.5 0.5)" d="M201.043 596.353C214.549 586.76 226.003 573.25 237.997 561.815C267.042 534.125 295.626 505.982 324.625 478.257C331.39 471.788 337.949 465.104 344.794 458.72C348.77 455.012 352.673 451.124 357.297 448.224L384.244 459.906L255.876 587.872L201.077 643.13C199.766 644.331 198.764 645.3 197.75 646.755C196.848 648.049 195.279 648.972 194.345 650.25C191.107 654.68 186.411 658.634 182.502 662.548C174.587 670.472 167.177 679.109 159.379 687.154C154.861 691.815 150.236 696.194 146.25 701.255C144.208 703.847 141.571 705.972 139.75 708.755L131.75 718.755L118.25 736.245L118.125 735.125C119.567 733.718 120.871 732.601 121.875 730.875C122.596 729.636 123.76 728.853 124.377 727.5C124.752 726.679 124.936 726.616 125.5 726C126.29 725.138 126.873 724.226 127.5 723.25C128.09 722.331 127.869 722.67 128.539 721.852C129.626 720.523 130.475 718.985 131.502 717.625L132.5 716.75L132.502 716.003L132.89 715.686C133.921 714.832 134.263 714.31 135 713.25L136.157 712.124C136.852 711.429 136.175 712.069 136.875 710.875C137.358 710.052 138.296 709.271 138.875 708.375C139.711 707.083 141.001 706.281 141.875 704.875L142.93 703.836C143.583 703.214 143.916 702.947 144.253 702.109C144.941 700.401 147.323 699.202 148.375 697.375C149.294 695.779 151.29 694.581 152.375 692.875C153.081 691.766 154.645 690.564 155.598 689.621C159.283 685.972 164.752 681.721 167.375 677.375C168.999 674.684 172.844 671.988 174.976 669.384C176.992 666.919 179.752 665.094 181.375 662.375C182.119 661.13 183.944 659.672 185.017 658.632C188.486 655.266 194.091 650.976 196.375 646.875L198.968 643.914C200.94 641.474 212.495 631.405 212.502 629.625C223.367 619.088 233.993 608.276 244.699 597.574C249.09 593.185 253.565 587.662 258.5 584C260.578 582.458 265.592 575.763 267.5 575.75C268.961 574.158 270.469 572.741 271.755 571C273.184 569.066 275.41 566.56 277.502 565.503C278.214 565.143 279.156 563.89 279.734 563.307C281.741 561.283 283.705 559.003 285.923 557.22C288.75 554.947 291.48 551.647 294.086 549.041C299.871 543.257 305.723 537.543 311.5 531.75L311.502 531.003C312.29 530.215 312.342 529.758 313.5 529.75C314.061 528.636 313.982 528.558 315 527.878C315.431 527.59 315.521 527.213 315.75 526.755L316.5 526.75C317.283 525.967 317.999 525.652 318.002 524.502C322.419 520.086 326.832 515.665 331.249 511.249C333.481 509.017 336.567 506.772 338.002 504.002C338.699 502.658 341.207 500.681 342.502 500.002C343.723 499.363 344.884 497.783 345.755 496.75C346.563 495.792 347.592 495.105 348.56 494.33C350.636 492.668 352.646 490.712 354.002 488.502C354.617 487.501 356.577 485.805 357.625 485.502C359.148 483.98 365.497 478.543 365.503 477.002L375.5 467.25L375.125 465.748C374.276 465.921 374.742 465.79 373.994 466.07C373.361 466.307 373.658 466.25 373 466.25L370.755 463.5L369.205 461.607C368.625 460.881 368.839 460.706 368.502 459.998L367.755 459L367.426 458.296C366.488 456.423 364.692 455.293 364 453.245L362.47 452.858C361.88 452.713 362.117 452.75 361.5 452.75L361.25 452.245L360.75 452.31C359.889 452.409 360.182 452.375 359.125 452.375L358.755 451.25L359.5 450.755L359.5 450.25L358.5 450.123L357.75 451.245L357 450.745L356.002 450.875L355.125 450.625C354.206 451.589 353.986 451.704 352.875 452.375C350.83 453.609 349.575 456.07 347.375 457.375L346.523 458.257C343.881 461.168 340.662 464.837 337.375 466.875L321.248 483.125L320.75 483.745L320 483.75C314.046 489.915 307.92 495.935 301.81 501.946C299.238 504.477 296.955 507.523 293.875 509.375C293.03 509.883 292.087 511.121 291.387 511.832C288.627 514.632 285.183 519.034 281.875 520.875C280.757 521.498 279.378 523.325 278.453 524.26C275.301 527.445 272.14 530.622 268.979 533.797C267.044 535.74 265.219 538.007 262.875 539.375C261.857 539.969 260.645 541.646 259.804 542.523C257.168 545.273 254.497 548.279 251.375 550.375C248.689 552.178 246.75 555.478 243.875 557.375C241.121 559.192 238.763 562.866 236 565C235.106 565.69 234.381 566.374 233.625 567.212C230.029 571.191 225.929 574.821 222.138 578.626C219.331 581.443 216.22 585.37 212.875 587.375L212.022 588.266C210.666 589.77 209.532 590.793 207.875 591.875C206.689 592.649 206.555 594.24 205 594.25C204.037 595.268 203.365 596.356 202 596.75C201.553 597.319 201.354 597.783 200.998 598.375C199.886 600.218 197.487 601.757 196.124 603.565C193.166 607.488 188.749 610.314 185.998 614.375C184.244 616.963 180.983 619.388 178.743 621.62C173.847 626.503 168.97 632.442 163.512 636.6C162.457 637.404 161.42 638.221 160.998 639.497L157.061 643.219C156.08 644.104 156.835 643.346 156.125 644.625C155.357 646.008 154.338 646.313 154.123 648C152.737 649.859 150.71 651.561 149.067 653.224L148.329 652.901C150.177 650.923 152.067 648.999 153.558 646.728C156.761 640.812 162.889 635.743 167.631 631.028C174.838 623.861 182.089 616.731 189.153 609.423C193.217 605.219 197.547 601.042 201.043 596.353Z"/>
	<path fill="#015ADF" transform="scale(0.5 0.5)" d="M148.329 652.901L149.067 653.224L148.651 653.87C147.173 656.085 144.677 658.1 142.791 659.986C138.221 664.555 133.56 669.051 129.125 673.747L107.125 695.625L107.875 696.375L109.25 695L109.623 695.5C108.984 696.211 108.501 696.387 108.498 697.375L108.123 698L107.745 699.25L107 699.75L106.998 700.375L106.623 701L106.498 701.997C105.383 703.002 103.736 704.161 103.123 705.5C102.554 706.742 101.291 708.064 99.9975 708.497L99.6678 709.093C99.1133 710.016 99.4281 709.589 98.5 710.245C97.6868 710.82 97.3196 711.192 96.745 712C95.8657 713.237 93.0022 715.203 92.9975 716.375L92.6225 717L92.245 717.75L76.25 733.745L75.5 733.75L75.4975 734.497L75.0772 734.808C74.2619 735.419 73.4711 736.024 72.75 736.745L72.125 736.125L71.9975 736.997C71.4172 736.997 71.7246 737.072 71.125 736.625L70.5 737.245C69.0968 737.598 64.5691 741.855 63.745 743.25L63.4975 743.997L62.6225 745.5L62.5257 746.049C62.2194 747.063 61.4238 747.588 60.6934 748.295C59.9598 749.006 60.4579 748.45 59.9975 749.375L59.6225 750L59.245 750.75C57.7851 752.855 54.2953 754.588 53.4975 756.997L52 758.25L51.9975 758.875L51.6225 759.5L51.75 761.755C52.5596 762.452 52.9502 762.811 53.9975 763.003L56.4975 763.503L56.745 764.25L55.25 765.745L54.625 765.125C53.5405 765.749 52.9875 766.234 52.25 767.245L51.625 766.625C50.6921 767.078 50.3246 767.38 49.75 768.245L49.125 767.625C48.0405 768.249 47.4875 768.734 46.75 769.745L45.9975 769.997C46.4338 770.442 46.1359 770.217 46.9975 770.503L47.245 771.75L46.75 772.245L45.125 771.125L44.6094 771.654C43.8478 772.412 44.1681 772.133 43.25 772.745L42.625 772.125L42 772.75L42.245 774.25L41.6694 774.7C41.1457 775.119 40.7062 775.516 40.25 776C41.2101 775.525 41.9501 775.107 43 774.878C44.0837 774.641 45.4847 774.113 46.5 773.75L47.255 773.25C48.4029 772.582 47.6008 773.088 49 772.75C49.9921 772.51 50.3182 771.879 51.5 771.75C52.7521 771.613 53.9777 770.715 55.2525 770.375L57.8047 769.305C58.651 768.92 58.2561 769.067 58.9922 768.883C61.2182 768.326 63.8907 766.974 66 766L67.25 765.5L68.0025 765.125C68.7687 764.749 69.4149 764.534 70.2525 764.375L70.75 763.755L71.5 763.75C73.4174 763.541 77.3418 761.562 79.125 760.625C79.7433 760.3 80.3179 760.051 80.9922 759.883C82.4246 759.525 84.1422 758.631 85.5 758L86.75 757.5L88.3047 756.805C89.0858 756.45 89.7465 756.258 90.5 755.878L91.75 755.5L92.25 754.755C93.2713 754.864 93.1548 754.976 94.125 754.453C94.9151 754.028 95.2596 754.043 96 753.75C96.733 753.46 97.8198 753.093 98.5 752.75L99.255 752.25C100.534 751.506 99.4415 752.181 101 751.75L102.5 751L103.75 750.5L104.502 750.125C105.115 749.825 105.631 749.633 106.289 749.453C107.945 749.001 109.603 748.059 111.281 747.5L118.5 744.5L119.75 744L120.625 743.625L121.273 743.461C122.119 743.23 122.713 742.831 123.5 742.5L124.255 742.25L125 741.755L126.5 741.25L128.75 740.516C130.707 739.863 132.501 738.793 134.5 738.25C135.439 737.995 135.925 737.733 136.755 737.25C137.786 736.65 137.242 737.006 138.5 736.75C139.344 736.578 139.787 736.24 140.5 735.878L141.75 735.5L142.625 735.125L143.32 734.945C144.439 734.64 143.613 734.914 144.755 734.25C145.613 733.751 145.452 733.884 146.5 733.75L147 733.378L147.755 733.25L148.5 732.878L149.255 732.75C150.496 732.5 151.459 732.051 152.625 731.625C153.307 731.376 153.674 731.358 154.372 731.51L154.384 731.84L154.376 731.867C129.269 740.667 104.712 751.012 80.1352 761.18C59.7989 769.593 39.0701 778.719 17.5262 783.472C22.4383 779.694 26.7079 774.962 31.1383 770.637C41.3482 760.671 51.3191 750.479 61.3702 740.354C90.3299 711.182 119.257 681.965 148.329 652.901Z"/>
	<path fill="#48D6C7" transform="scale(0.5 0.5)" d="M255.876 587.872C259.4 588.501 263.208 587.556 266.674 586.867C273.386 585.534 279.941 583.816 286.578 582.173C306.563 577.224 326.463 572.936 345.984 566.2C368.012 558.599 389.765 549.674 411.188 540.514C419.619 536.909 428.101 533.446 436.573 529.94C441.048 528.089 445.668 525.793 450.302 524.439C452.113 523.91 453.818 524.052 455.664 524.267C452.075 527.499 448.023 530.021 444 532.666C435.87 538.011 427.542 543.118 419.534 548.643C410.216 555.07 401.253 562.001 391.942 568.431C379.891 576.754 367.333 584.453 354.665 591.797C330.846 605.607 305.922 616.289 280.047 625.522C258.812 633.1 237.59 639.683 215.087 642.067C210.472 642.555 205.719 643.308 201.077 643.13L255.876 587.872Z"/>
	<path fill="#FDE160" transform="scale(0.5 0.5)" d="M532.283 432.12C546.716 442.649 564.169 456.202 569.6 474L570.324 476.332C570.529 484.076 570.735 491.791 569.836 499.505C568.498 510.989 564.944 521.964 560.154 532.449C556.989 539.376 553.301 546.173 548.047 551.75C543.377 556.706 537.818 562.909 532.115 566.529C530.908 566.271 529.316 565.795 528.088 565.979C524.343 566.54 519.069 569.92 515.5 571.438C488.637 582.857 462.077 594.399 437.488 610.314L428.879 615.753C431.717 612.491 434.939 609.58 437.815 606.347C455.135 586.885 472.893 567.294 488.169 546.16C494.552 537.328 500.812 528.293 505.64 518.499C510.727 508.181 514.953 497.344 518.27 486.329C519.54 482.111 521.552 476.877 520.077 472.525C520.154 468.783 523.728 462.891 525.18 459.302C526.949 454.927 528.444 450.628 529.676 446.066C530.849 441.724 529.419 435.436 532.283 432.12Z"/>
	<path fill="#FDE160" transform="scale(0.5 0.5)" d="M384.244 459.906C390.313 454.659 397.044 449.296 404.013 445.314C406.6 443.836 407.674 443.417 410.518 444.173C416.012 450.191 421.111 456.618 426.75 462.481C436.561 472.683 447.85 482.26 459 490.976C462.946 494.06 467.169 496.952 471.5 499.468C473.946 500.888 479.844 502.694 481.38 504.75C481.653 505.116 481.848 506.283 481.996 506.768C475.806 510.8 469.697 514.946 463.557 519.054C461.002 520.764 458.121 522.341 455.684 524.178C455.66 524.196 455.671 524.237 455.664 524.267C453.818 524.052 452.113 523.91 450.302 524.439C445.668 525.793 441.048 528.089 436.573 529.94C428.101 533.446 419.619 536.909 411.188 540.514C389.765 549.674 368.012 558.599 345.984 566.2C326.463 572.936 306.563 577.224 286.578 582.173C279.941 583.816 273.386 585.534 266.674 586.867C263.208 587.556 259.4 588.501 255.876 587.872L384.244 459.906Z"/>
	<path fill="#E63515" transform="scale(0.5 0.5)" d="M357.297 448.224L456.715 365.31C462.619 361.078 468.681 357.031 475.05 353.529C487.998 346.409 543.975 319.456 555.864 321.419C558.955 329.338 561.161 337.166 562.205 345.622C562.827 350.649 562.784 355.738 563.291 360.774C565.077 378.516 571.469 396.767 582.196 411.08C588.069 418.915 595.37 426.015 602.258 432.962C599.718 438.097 596.588 442.799 593.601 447.668C588.541 455.917 583.569 464.317 576.89 471.395C575.398 472.976 573.416 475.4 571.301 476.072L570.324 476.332L569.6 474C564.169 456.202 546.716 442.649 532.283 432.12C529.419 435.436 530.849 441.724 529.676 446.066C528.444 450.628 526.949 454.927 525.18 459.302C523.728 462.891 520.154 468.783 520.077 472.525C516.964 477.179 513.743 481.773 509.853 485.821C501.719 494.284 491.801 500.493 481.996 506.768C481.848 506.283 481.653 505.116 481.38 504.75C479.844 502.694 473.946 500.888 471.5 499.468C467.169 496.952 462.946 494.06 459 490.976C447.85 482.26 436.561 472.683 426.75 462.481C421.111 456.618 416.012 450.191 410.518 444.173C407.674 443.417 406.6 443.836 404.013 445.314C397.044 449.296 390.313 454.659 384.244 459.906L357.297 448.224Z"/>
	<path fill="#FEC801" transform="scale(0.5 0.5)" d="M410.518 444.173C413.535 443.781 416.879 440.69 419.302 438.896C423.376 435.881 427.421 432.87 431.791 430.287C443.047 423.634 458.104 417.197 471.245 415.75C491.782 413.488 515.953 419.166 532.283 432.12C529.419 435.436 530.849 441.724 529.676 446.066C528.444 450.628 526.949 454.927 525.18 459.302C523.728 462.891 520.154 468.783 520.077 472.525C516.964 477.179 513.743 481.773 509.853 485.821C501.719 494.284 491.801 500.493 481.996 506.768C481.848 506.283 481.653 505.116 481.38 504.75C479.844 502.694 473.946 500.888 471.5 499.468C467.169 496.952 462.946 494.06 459 490.976C447.85 482.26 436.561 472.683 426.75 462.481C421.111 456.618 416.012 450.191 410.518 444.173Z"/>
	<path fill="#015ADF" transform="scale(0.5 0.5)" d="M428.879 615.753L437.488 610.314C462.077 594.399 488.637 582.857 515.5 571.438C519.069 569.92 524.343 566.54 528.088 565.979C529.316 565.795 530.908 566.271 532.115 566.529C528.71 571.878 521.91 576.998 516.987 580.881C489.837 602.294 457.995 617.237 426.5 631.115C420.463 633.776 414.251 636.039 408.239 638.747C400.755 642.118 393.621 646.231 386.147 649.629C374.222 655.051 361.768 659.591 349.489 664.157C333.145 670.234 316.206 674.259 299.825 680.089C289.292 684.382 278.669 688.574 268 692.514C247.649 700.031 226.901 706.731 206.975 715.338C203.855 716.685 198.987 718.18 196.471 720.337C195.583 721.098 195.263 721.907 194.819 722.953L194.485 723.75C187.288 740.406 176.619 756.518 166.806 771.783C167.316 772.248 168.421 773.004 168.75 773.556C169.523 774.852 168.43 775.212 170 776.35C172.578 775.025 174.249 772.816 176.184 770.729C178.552 768.176 181.018 765.707 183.482 763.247C188.297 758.44 193.403 753.957 198.363 749.303C202.584 745.342 206.716 741.024 211.376 737.598C210.06 743.042 209.131 748.246 208.833 753.854C208.384 761.353 207.053 767.962 204.965 775.134C202.695 784.004 200.506 792.926 197.501 801.584C193.111 814.233 187.372 826.376 181.178 838.23L175.387 849.108L169.265 859.913C163.183 868.525 157.697 877.17 151.065 885.44C136.405 903.719 120.22 920.168 110.019 941.577C109.194 952.523 110.288 963.876 111.218 974.797C112.103 985.195 112.765 995.539 114.127 1005.89C114.549 1009.1 115.39 1012.26 115.913 1015.46L116.623 1015.22C117.195 1016.58 117.761 1017.43 119 1018.25L119.679 1018.21C120.688 1018.2 121.134 1018.48 121.981 1018.96L120.409 1024L117.208 1024L-0 1024L0 962.012L0 955.198C2.33482 953.17 3.98427 946.496 5.35357 943.538C6.86524 940.272 8.6124 937.077 10.4157 933.964C17.9688 920.923 27.1154 908.649 35.9545 896.446C55.4507 869.529 78.0512 844.98 97.8515 818.279C105.899 807.427 113.874 796.297 121.445 785.109C130.891 771.151 139.968 756.813 151.12 744.11C154.896 739.809 158.775 735.927 163.452 732.6C165.919 730.846 169.463 729.255 171.469 727.066L171.997 726.466L172.187 726.802C173.307 726.723 173.397 726.428 174.245 725.75L173.75 725.255C173.06 725.245 172.422 725.26 171.734 725.342L171.125 725.423C172.115 724.365 173.614 724.147 175 723.75C176.058 723.447 177.106 722.888 178.125 722.625C178.926 722.418 179.565 722.591 180.4 722.259C181.256 721.919 180.726 722.051 181.595 721.879C182.796 721.641 184.415 721.321 185.5 720.755L186.25 720.255C186.909 720.274 187.474 720.276 188.125 720.143L190 719.755L190.5 720.25L190.25 721.745C189.542 720.862 190.015 721.158 188.75 721L188.498 721.997L187.502 722.375L187 721.5L186.623 722L186.25 722.745L185.5 722L184.75 722.745L183.75 722.5C183.399 723.023 181.182 723.814 180.25 724C180.245 724.736 180.15 725.284 179.998 725.997L179.245 726L178.75 726.745L178.5 726.25L177.5 726.745L176.75 727.245L176.375 726.625C174.864 726.529 173.772 727.225 172.5 728L170.625 729.125L168.242 730.492L166 732L164.5 733L163.125 734.125C162.109 734.724 161.522 735.599 160.625 736.125C157.542 737.934 154.805 741.415 152.25 744C151.798 745.568 150.655 745.631 149.875 746.875C149.021 748.237 149.951 747.334 149.125 748.151C148.265 749.004 147.795 750.129 147.027 750.842L145.875 751.875C144.188 754.214 146.983 751.295 144.781 753.469C144.259 753.984 143.946 754.307 143.539 754.945C142.892 755.963 143.367 755.348 142.508 756.398L142 757L142.75 758C143.887 757.026 144.267 756.75 145.745 756.75L143.498 759.997C142.855 761.219 143.68 760.341 142.819 761.216C142.096 761.95 141.349 762.594 140.701 763.404L138.998 765.497C138.32 766.699 137.773 767.264 136.75 768.245C136.208 768.103 135.81 768 135.245 768L133.998 769.497C133.545 770.378 133.386 771.086 133.621 772.033L133.745 772.5L132.123 775L132.5 775.255L138 768.75C139.868 768.757 140.716 767.032 142.875 767.253L144.125 766.625L145.125 766.625L146.625 766.625C147.991 766.737 148.74 767.089 150 766.255L150.5 765.75L151.125 765.753L152 765.25C152.885 765.25 153.442 765.053 154.244 764.653L155 764.255C155.708 763.889 156.12 763.661 156.695 763.086L157.125 762.625L158.125 762.625L159 762.755C160.155 762.091 160.744 761.564 162.125 761.625C162.992 761.663 163.619 761.765 164.498 761.625C165.607 761.448 165.99 761.816 167 762.255L168.5 761.378L169.245 761.75L169.245 763.75L170 763.255L170.745 763.75L170.755 763.25L171.625 762.625L172 761.75C173.958 758.813 171.333 763.541 173.062 760.328L176.5 754.5C176.903 753.826 177.52 753.017 177.75 752.255L177.755 751.75C178.541 751.222 178.966 750.694 179.25 749.755L179.255 749.25L180.375 748.253C180.568 747.358 180.667 747.034 181.339 746.359L181.875 745.875L181.755 745L182.75 744C182.757 742.908 183.014 742.991 183.75 742.255C183.758 741.429 184.248 741.13 184.75 740.5C184.757 739.408 185.014 739.491 185.75 738.755L185.755 738.25C186.383 737.732 186.506 737.537 186.774 736.736L187.002 736.003C187.483 735.018 187.364 736.032 187.75 734.755L187.755 734.25L189 733.25L189.377 732L189.75 731.255L190.002 730.503C190.219 730.069 190.533 729.689 190.75 729.255L190.255 728.75L190.502 727.503C191.315 727.234 191.774 725.64 192.75 724.755L192.255 724.25L193.25 723.255L193.755 722.5L194.25 722C194.605 720.768 195.685 719.771 196.82 719.141L197.375 718.875L201.25 717C202.444 716.327 203.523 716.088 204.703 715.453C205.711 714.911 206.69 714.436 207.75 714L209 713.5L215.5 710.75C216.335 710.438 216.896 710.377 217.726 709.93C218.412 709.56 218.507 709.423 219.255 709.25C220.123 709.049 220.507 709.193 221.268 708.625C221.928 708.133 221.542 708.287 222.347 708.125C223.27 707.939 222.797 708.109 223.734 707.641C224.659 707.178 224.302 707.3 225.25 706.984L226 706.75L227.5 706.25C228.633 705.97 229.366 705.316 230.393 705.109L231 705C232.569 704.295 231.01 704.629 232.359 704.359C233.736 704.084 234.747 703.434 236.047 703.109L236.5 703C237.776 702.354 236.713 702.589 237.859 702.359C239.56 702.019 240.851 701.203 242.5 700.75C243.375 700.51 243.904 700.372 244.726 699.93C245.501 699.512 245.427 699.466 246.255 699.25L247.5 699C248.965 698.316 247.582 698.615 248.859 698.359C250.236 698.084 251.247 697.434 252.547 697.109L253 697C254.321 696.331 253.189 696.603 254.328 696.375C255.604 696.12 256.754 695.601 258 695.25C259.165 694.921 260.112 694.364 261.25 693.984L262 693.75L263.5 693.25C264.662 692.922 265.631 692.329 266.781 692.016L267.375 691.875C267.874 690.727 267.579 691.265 268.25 690.255L268.625 690.875L270 691L274 689.25C274.916 688.886 275.327 688.97 276.07 688.227C276.889 687.408 277.719 686.724 278.625 686.003L279.125 686.375L279.875 685.875L280.75 685.5C281.132 684.248 281.634 683.83 282.625 683.003L283.125 683.375L284.25 682.255L285 682.5L285.75 681.755L286.25 682.5L286.502 681.503L287.25 681.5L287.75 680.755L288.25 681.5L289.75 679.755L290.125 680.875L291.25 679.755L291.625 680.875C292.159 680.341 291.936 680.622 292.398 679.854L292.75 679.255L293.245 679.75L293.125 680.875L294.125 680.003L294.625 680.375L294.877 680C295.291 678.632 295.755 678.32 296.75 677.255C297.214 677.764 297.567 678.059 298.169 678.422L298.745 678.75L298.25 679.245C299.045 679.25 299.758 679.37 300.5 679C301.864 678.32 300.651 678.609 301.859 678.367C302.457 678.247 302.944 678.138 303.5 677.878C304.447 677.433 305.281 677.328 306.266 677L307.594 676.594L308 676.5C308.582 675.924 313.51 674.617 314.367 674.539C315.255 674.458 315.141 674.36 315.75 673.755L316.875 673.875C317.847 673.458 318.75 673.339 319.742 673.008L321.875 672.375C323.262 671.87 322.232 672.097 323.344 671.875C324.73 671.598 325.817 670.983 327.125 670.625L328.5 670.5C330.536 669.688 328.22 670.197 329.828 669.875C330.819 669.677 330.218 669.849 331.266 669.5L332 669.25L333 669C334.268 668.341 333.224 668.596 334.328 668.375C335.604 668.12 336.755 667.603 338 667.25L339 667C340.296 666.327 339.202 666.603 340.344 666.375C341.061 666.231 341.568 665.953 342.25 665.755L343.5 665.5L344.125 665.003L344.75 664.755L345.25 664.255L346 664.5L346.75 663.755L348.002 663.503L350 662.878L350.625 662.625L352.5 662C353.314 661.583 353.557 661.272 354.5 661.112C355.228 660.988 355.846 660.877 356.5 660.5C357.543 659.899 356.872 660.06 357.836 659.867L359.875 659.375L360.75 659C361.442 658.724 361.906 658.64 362.453 658.096L362.75 657.755L363.5 658L367.5 656.25C368.443 655.886 369.554 655.356 370.508 655.117C371.244 654.933 370.849 655.08 371.695 654.695L373.25 654L374.5 653.5C375.557 652.914 376.28 652.79 377.375 652.375L378.25 652L379.5 651.5L380.125 651.003L381 650.878L381.502 650.625L383 650C384.252 649.352 385.502 649.1 386.703 648.453L390.5 646.5L391.125 646.003L392 645.75C392.41 645.564 392.71 645.176 393.125 645.003L394 644.75C394.41 644.564 394.71 644.176 395.125 644.003L396 643.75L396.5 643.378L397.5 643L398.002 642.503L398.75 642.5C399.153 642.05 399.402 641.763 399.984 641.543L401.5 641L402.002 640.503C403.675 640.497 405.418 638.884 407 638.25C408.363 637.703 409.715 637.036 411.08 636.528L411.5 636.378C412.965 635.641 414.257 635.349 415.695 634.695L417.25 634C417.942 633.724 418.406 633.64 418.953 633.096C419.429 632.624 419.805 632.566 420.502 632.503L421.25 632.5L421.75 631.755C422.581 631.837 422.886 631.779 423.672 631.415C425.709 630.472 429.023 628.346 431.033 627.837C431.54 627.709 432.024 627.623 432.5 627.378L433.125 627.003C435.268 626.219 432.38 627.69 434.648 626.469L439.102 624.134L439.5 623.878C440.924 624.11 441.065 622.949 442.383 622.551L443 622.378L443.625 622.003L444.5 621.75L445 621.378C445.684 621.003 445.997 621.029 446.688 620.476C447.479 619.843 447.766 619.916 448.75 619.755L449.125 618.625L450 618.755C451.006 617.904 451.994 617.286 453.125 616.625L454 616.755L455.002 616.003C456.936 615.048 454.462 616.629 456.547 615.24L457.25 614.755L458 614.75L458.5 614.25L459.245 614.25L460.502 613.503C461.587 613.017 461.731 612.676 462.5 611.75C461.823 610.95 461.638 610.537 461.502 609.497C461.456 609.14 461.441 608.577 461.255 608.25C460.7 607.274 460.15 607.21 459.869 605.977C459.58 604.704 458.621 603.978 457.75 603L456.498 603.497C455.991 603.621 455.395 603.009 455 602.745C454.686 603.366 454.875 603.173 454.328 603.573C453.453 604.214 452.679 604.725 452 605.591L451.5 606.25C450.863 606.25 451.099 606.135 450.653 606.578C449.725 607.5 449.75 607.785 449.745 609C450.158 608.595 450.442 608.75 451 608.75L451.625 607.625C452.745 608.105 452.253 607.801 453.123 608.5L453.245 610.5L452.25 611.5L452.245 612.25L450.75 613.5L449.875 613.125L449.375 613.375L448.75 613L448.375 613.875L447.875 613.625L447.25 614L446.002 613.497L445.877 612.5C445.342 611.79 444.825 611.301 443.939 611.077L443.502 610.997L443.255 610L444.283 608.581L444.755 608L444.252 607.125L443 608C441.937 608.766 440.783 609.298 439.695 610.023L438.25 611C437.516 611.472 436.844 611.889 436.164 612.445L434 614.122C433.134 614.605 432.356 614.889 431.5 615.5L430.625 616.125C429.829 616.591 429.073 616.919 428.336 617.492C427.642 618.032 427.363 617.922 426.5 618L426.125 617.503L426.75 617.627C427.83 617.233 428.2 616.65 428.879 615.753ZM28.9286 945.79C23.938 949.664 18.4866 953.187 13.1687 956.594C9.67804 958.831 5.86426 961.637 1.75 962.512L0 962.012L-0 1024L117.208 1024L120.409 1024L121.981 1018.96C121.134 1018.48 120.688 1018.2 119.679 1018.21L119 1018.25C117.761 1017.43 117.195 1016.58 116.623 1015.22L115.913 1015.46C115.39 1012.26 114.549 1009.1 114.127 1005.89C112.765 995.539 112.103 985.195 111.218 974.797C110.288 963.876 109.194 952.523 110.019 941.577C104.654 948.752 99.9682 956.365 94.2092 963.247C81.7481 978.139 63.2483 988.211 46.0763 996.757C50.9431 987.02 55.1208 977.135 60.5609 967.66C71.4876 948.629 84.3499 930.966 95.9818 912.434C86.2609 915.27 76.6331 921.947 67.8046 926.946C55.0656 934.158 42.7268 940.764 28.9286 945.79Z"/>
	<path fill="#E63515" transform="scale(0.5 0.5)" d="M166.806 771.783C167.316 772.248 168.421 773.004 168.75 773.556C169.523 774.852 168.43 775.212 170 776.35C172.578 775.025 174.249 772.816 176.184 770.729C178.552 768.176 181.018 765.707 183.482 763.247C188.297 758.44 193.403 753.957 198.363 749.303C202.584 745.342 206.716 741.024 211.376 737.598C210.06 743.042 209.131 748.246 208.833 753.854L207.73 753.25C201.822 757.977 195.333 766.892 191.78 773.569C184.774 784.175 178.024 795.083 171.511 806C167.58 812.59 163.997 819.362 159.845 825.825C144.71 849.385 127.936 871.813 110.966 894.067C107.87 898.128 104.928 902.302 101.765 906.313C100.175 908.329 98.1816 911.044 95.9818 912.434C86.2609 915.27 76.6331 921.947 67.8046 926.946C55.0656 934.158 42.7268 940.764 28.9286 945.79L166.806 771.783Z"/>
	<path fill="#0752CF" transform="scale(0.5 0.5)" d="M191.78 773.569C195.333 766.892 201.822 757.977 207.73 753.25L208.833 753.854C208.384 761.353 207.053 767.962 204.965 775.134C202.695 784.004 200.506 792.926 197.501 801.584C193.111 814.233 187.372 826.376 181.178 838.23L175.387 849.108L169.265 859.913C163.183 868.525 157.697 877.17 151.065 885.44C136.405 903.719 120.22 920.168 110.019 941.577C104.654 948.752 99.9682 956.365 94.2092 963.247C81.7481 978.139 63.2483 988.211 46.0763 996.757C50.9431 987.02 55.1208 977.135 60.5609 967.66C71.4876 948.629 84.3499 930.966 95.9818 912.434C98.1816 911.044 100.175 908.329 101.765 906.313C104.928 902.302 107.87 898.128 110.966 894.067C127.936 871.813 144.71 849.385 159.845 825.825C163.997 819.362 167.58 812.59 171.511 806C178.024 795.083 184.774 784.175 191.78 773.569Z"/>
	<path fill="#11355B" transform="scale(0.5 0.5)" d="M191.78 773.569C195.333 766.892 201.822 757.977 207.73 753.25L208.833 753.854C208.384 761.353 207.053 767.962 204.965 775.134L204.787 774.144L204.293 773.266L204.875 772.875C204.697 771.577 205.382 770.958 205.255 769.5L205.75 769C205.756 767.899 205.665 768.137 206.002 767.125L206.255 766.5L205.755 765.75C206.363 765.142 206.462 764.791 206.75 764C206.127 763.056 206.255 763.059 206.255 762L205.5 761.245C204.05 762.212 202.419 761.208 201 762.5L198.625 765.747L197.375 766.997C196.822 767.772 196.298 768.694 195.745 769.5C194.799 770.88 193.942 772.184 192.507 773.111L191.78 773.569Z"/>
	<path fill="#11355B" transform="scale(0.5 0.5)" d="M116.623 1015.22C117.195 1016.58 117.761 1017.43 119 1018.25L119.679 1018.21C120.688 1018.2 121.134 1018.48 121.981 1018.96L120.409 1024L117.208 1024C116.499 1021.22 116.265 1018.31 115.913 1015.46L116.623 1015.22Z"/>
	<path fill="#0752CF" transform="scale(0.5 0.5)" d="M279.823 782.916C291.394 781.308 303.689 766.251 309.717 757.277C313.406 751.787 316.579 744.717 321.75 740.537L322.501 741.25C322.728 747.065 321.975 753.142 321.067 758.889C322.189 760.06 322.648 760.134 322.61 761.816C322.502 766.575 321.446 771.481 320.752 776.195C318.239 793.272 315.125 810.323 308.407 826.334C304.796 834.34 301.618 842.536 298.027 850.552C288.552 871.701 278.514 892.883 267.9 913.479C265.723 917.705 256.077 934.322 256.619 937.806C244.987 959.98 229.299 981.249 209.542 996.806C208.908 997.35 208.285 997.787 207.592 998.25C207.196 994.407 209.085 989.232 209.965 985.5C215.521 961.939 223.175 938.649 230.695 915.643C234.505 903.987 237.783 892.176 241.532 880.5C244.582 871 248.092 861.656 251.068 852.133C254.854 840.02 257.85 827.628 261.654 815.533L279.823 782.916Z"/>
	<path fill="#E63515" transform="scale(0.5 0.5)" d="M279.823 782.916C291.394 781.308 303.689 766.251 309.717 757.277C313.406 751.787 316.579 744.717 321.75 740.537L322.501 741.25C322.728 747.065 321.975 753.142 321.067 758.889C319.621 758.811 319.26 758.568 318.179 759.663C316.355 761.512 314.885 764.492 313.474 766.728C306.046 778.502 300.98 790.897 294.842 803.316C285.651 821.913 276.41 840.488 267.204 859.073C255.525 882.651 242.523 905.234 232.125 929.475C224.605 947.009 218.915 965.303 213.287 983.508C212.148 987.192 209.568 993.057 209.542 996.806C208.908 997.35 208.285 997.787 207.592 998.25C207.196 994.407 209.085 989.232 209.965 985.5C215.521 961.939 223.175 938.649 230.695 915.643C234.505 903.987 237.783 892.176 241.532 880.5C244.582 871 248.092 861.656 251.068 852.133C254.854 840.02 257.85 827.628 261.654 815.533L279.823 782.916Z"/>
	<path fill="#0752CF" transform="scale(0.5 0.5)" d="M381.489 717.274C386.41 718.363 392.028 719.574 397.072 719.557C398.034 722.179 396.808 726.648 396.444 729.443C394.124 747.272 390.462 766.177 384.087 783.032L376.019 810.593L355.959 860.789C344.472 888.332 330.138 915.044 316.517 941.594C302.8 968.331 289.422 994.657 282.029 1024L272.718 1024L270.695 1013.08C266.692 998.772 262.906 984.987 260.73 970.24C259.143 959.479 258.811 948.466 256.619 937.806C256.077 934.322 265.723 917.705 267.9 913.479C278.514 892.883 288.552 871.701 298.027 850.552C301.618 842.536 304.796 834.34 308.407 826.334C311.766 829.326 315.646 831.764 319.309 834.366C323.882 837.613 328.874 841.346 333.923 843.805L381.489 717.274Z"/>
	<path fill="#E63515" transform="scale(0.5 0.5)" d="M308.407 826.334C311.766 829.326 315.646 831.764 319.309 834.366C323.882 837.613 328.874 841.346 333.923 843.805C331.356 853.538 326.122 862.903 321.84 872.003C310.328 896.465 297.704 920.371 286.354 944.905C280.507 957.544 273.342 971.309 270.726 985.03C269.674 990.552 269.283 995.84 269.827 1001.45C270.194 1005.24 271.014 1009.27 270.695 1013.08C266.692 998.772 262.906 984.987 260.73 970.24C259.143 959.479 258.811 948.466 256.619 937.806C256.077 934.322 265.723 917.705 267.9 913.479C278.514 892.883 288.552 871.701 298.027 850.552C301.618 842.536 304.796 834.34 308.407 826.334Z"/>
	<path fill="#FDE160" transform="scale(0.5 0.5)" d="M166.806 771.783C176.619 756.518 187.288 740.406 194.485 723.75L194.819 722.953C195.263 721.907 195.583 721.098 196.471 720.337C198.987 718.18 203.855 716.685 206.975 715.338C226.901 706.731 247.649 700.031 268 692.514C278.669 688.574 289.292 684.382 299.825 680.089C303.596 683.399 307.896 685.814 312.075 688.545C324.216 696.474 336.874 702.816 350.503 707.766C360.7 711.469 371.118 714.156 381.489 717.274L333.923 843.805C328.874 841.346 323.882 837.613 319.309 834.366C315.646 831.764 311.766 829.326 308.407 826.334C315.125 810.323 318.239 793.272 320.752 776.195C321.446 771.481 322.502 766.575 322.61 761.816C322.648 760.134 322.189 760.06 321.067 758.889C321.975 753.142 322.728 747.065 322.501 741.25L321.75 740.537C316.579 744.717 313.406 751.787 309.717 757.277C303.689 766.251 291.394 781.308 279.823 782.916L261.654 815.533C256.749 823.347 250.707 830.643 245.472 838.281C230.281 860.44 215.301 882.358 198.944 903.694C187.297 918.888 174.974 933.631 163.584 949.003C155.631 959.736 148.35 970.788 141.25 982.098C133.839 993.902 126.706 1005.8 121.981 1018.96C121.134 1018.48 120.688 1018.2 119.679 1018.21L119 1018.25C117.761 1017.43 117.195 1016.58 116.623 1015.22L115.913 1015.46C115.39 1012.26 114.549 1009.1 114.127 1005.89C112.765 995.539 112.103 985.195 111.218 974.797C110.288 963.876 109.194 952.523 110.019 941.577C120.22 920.168 136.405 903.719 151.065 885.44C157.697 877.17 163.183 868.525 169.265 859.913L175.387 849.108L181.178 838.23C187.372 826.376 193.111 814.233 197.501 801.584C200.506 792.926 202.695 784.004 204.965 775.134C207.053 767.962 208.384 761.353 208.833 753.854C209.131 748.246 210.06 743.042 211.376 737.598C206.716 741.024 202.584 745.342 198.363 749.303C193.403 753.957 188.297 758.44 183.482 763.247C181.018 765.707 178.552 768.176 176.184 770.729C174.249 772.816 172.578 775.025 170 776.35C168.43 775.212 169.523 774.852 168.75 773.556C168.421 773.004 167.316 772.248 166.806 771.783Z"/>
	<path fill="#FEC801" transform="scale(0.5 0.5)" d="M181.178 838.23C182.184 840.302 182.832 841.734 182.069 844C180.747 847.926 178.443 851.268 177.937 855.497L177.75 857L178.245 857.5C178.247 859.056 178.029 860.133 178.745 861.5C179.069 862.119 179.058 863.072 179.245 863.75C179.79 865.721 180.714 866.951 181.998 868.503C182.828 868.689 183.378 868.755 184.25 868.755C184.25 869.802 184.387 869.293 183.75 870.255L184.375 870.503L184.883 870.768C185.496 871.075 185.221 871.003 185.877 871L186.25 870.255L186.713 869.8C187.493 869.02 187.082 869.486 187.74 868.5C188.279 867.691 188.726 867.312 189.5 866.75L189.778 865.75L190.801 865.353L191.2 865.647L185.889 872.671L183.75 872.245C182.884 871.417 181.953 870.627 181.332 869.593C180.712 868.56 181.336 869.386 180.363 868.217C179.469 867.144 178.667 866.054 178.221 864.716L178.002 863.997C177.785 863.313 177.688 862.679 177.502 861.997L177.255 861.25C176.942 860.093 176.696 858.958 176.329 857.807C176.782 856.491 177.269 854.174 176.881 852.832L175.387 849.108L181.178 838.23Z"/>
	<path fill="#0752CF" transform="scale(0.5 0.5)" d="M191.2 865.647C192.592 864.554 194.06 862.289 195.225 860.883C199.86 855.292 204.145 849.454 208.366 843.548C228.173 815.834 245.871 786.914 263.366 757.715C271.82 743.606 279.279 728.559 288.863 715.168C292.662 709.859 297.049 704.628 302.809 701.417C302.543 706.7 301.005 711.729 299.964 716.886C297.47 729.24 295.204 741.339 290.784 753.205C287.077 763.155 282.389 772.57 279.823 782.916L261.654 815.533C256.749 823.347 250.707 830.643 245.472 838.281C230.281 860.44 215.301 882.358 198.944 903.694C187.297 918.888 174.974 933.631 163.584 949.003C155.631 959.736 148.35 970.788 141.25 982.098C133.839 993.902 126.706 1005.8 121.981 1018.96C121.134 1018.48 120.688 1018.2 119.679 1018.21L119 1018.25C117.761 1017.43 117.195 1016.58 116.623 1015.22L115.913 1015.46C115.39 1012.26 114.549 1009.1 114.127 1005.89C112.765 995.539 112.103 985.195 111.218 974.797C110.288 963.876 109.194 952.523 110.019 941.577C120.22 920.168 136.405 903.719 151.065 885.44C157.697 877.17 163.183 868.525 169.265 859.913L175.387 849.108L176.881 852.832C177.269 854.174 176.782 856.491 176.329 857.807C176.696 858.958 176.942 860.093 177.255 861.25L177.502 861.997C177.688 862.679 177.785 863.313 178.002 863.997L178.221 864.716C178.667 866.054 179.469 867.144 180.363 868.217C181.336 869.386 180.712 868.56 181.332 869.593C181.953 870.627 182.884 871.417 183.75 872.245L185.889 872.671L191.2 865.647Z"/>
	<defs>
		<linearGradient id="gradient_0" gradientUnits="userSpaceOnUse" x1="174.25" y1="858.75" x2="77.563797" y2="896.96698">
			<stop offset="0" stop-color="#FF7501"/>
			<stop offset="1" stop-color="#DC1D15"/>
		</linearGradient>
	</defs>
	<path fill="url(#gradient_0)" transform="scale(0.5 0.5)" d="M175.387 849.108L176.881 852.832C177.269 854.174 176.782 856.491 176.329 857.807C176.696 858.958 176.942 860.093 177.255 861.25L177.502 861.997C177.688 862.679 177.785 863.313 178.002 863.997L178.221 864.716C178.667 866.054 179.469 867.144 180.363 868.217C181.336 869.386 180.712 868.56 181.332 869.593C181.953 870.627 182.884 871.417 183.75 872.245L185.889 872.671L179.28 882.058C174.62 888.725 170.008 895.432 165.074 901.901C159.202 909.599 152.973 917.087 147.43 925.027C141.193 933.96 135.823 943.726 130.136 953.031C125.28 960.977 119.117 969.888 116.834 978.963C113.888 990.675 115.208 1003.35 116.623 1015.22L115.913 1015.46C115.39 1012.26 114.549 1009.1 114.127 1005.89C112.765 995.539 112.103 985.195 111.218 974.797C110.288 963.876 109.194 952.523 110.019 941.577C120.22 920.168 136.405 903.719 151.065 885.44C157.697 877.17 163.183 868.525 169.265 859.913L175.387 849.108Z"/>
	<path fill="#FE9901" transform="scale(0.5 0.5)" d="M175.387 849.108L176.881 852.832C177.269 854.174 176.782 856.491 176.329 857.807L174.188 867.279C174.2 866.428 174.174 865.65 174.072 864.801L173.965 864C174.498 863.065 174.388 860.14 174.16 859.011C173.937 857.903 173.086 857.383 172.255 856.75C171.711 857.215 171.491 857.481 171.187 858.149L170.125 860.247L169.265 859.913L175.387 849.108Z"/>
	<path fill="#FEAD16" transform="scale(0.5 0.5)" d="M174.188 867.279L176.329 857.807C176.696 858.958 176.942 860.093 177.255 861.25L177.502 861.997C177.688 862.679 177.785 863.313 178.002 863.997L178.221 864.716C178.667 866.054 179.469 867.144 180.363 868.217C181.336 869.386 180.712 868.56 181.332 869.593C181.953 870.627 182.884 871.417 183.75 872.245L185.889 872.671L179.28 882.058L177 881.958C175.067 881.608 174.385 880.113 173.243 878.661C173.053 874.673 172.837 871.112 174.188 867.279Z"/>
</svg>
