<?xml version="1.0" encoding="utf-8" ?>
<svg xmlns="http://www.w3.org/2000/svg" xmlns:xlink="http://www.w3.org/1999/xlink" width="512" height="512">
	<path fill="#111417" transform="scale(0.5 0.5)" d="M615.769 806.684L616.75 807.745L617.25 807.245L617.811 807.168C618.642 807.003 618.345 807.1 618.952 806.644C619.761 806.037 620.551 805.887 621.5 805.626L622.381 805.378C625.25 804.582 629.312 803.66 632.272 804.007C634.601 804.28 637.863 806.249 639.886 807.37C640.893 809.202 641.139 810.471 641.334 812.532L640.108 811.293C638.185 809.385 634.503 806.113 631.829 805.7C630.663 805.519 628.66 806.418 627.584 806.779C624.431 807.835 620.472 809.652 617.114 809.573C616.011 809.547 616.026 809.521 615.28 808.75L615.769 806.684Z"/>
	<path fill="#111417" transform="scale(0.5 0.5)" d="M801.249 841.314C810.552 839.687 818.551 837.145 827.208 833.421C820.544 838.84 813.862 843.064 806.502 847.435L806.25 843.5C804.392 842.179 803.569 841.544 801.249 841.314Z"/>
	<path fill="#111417" transform="scale(0.5 0.5)" d="M659.109 837.084C661.38 838.149 663.193 839.615 665.753 839.753L669.158 837.53C672.836 845.735 677.51 852.51 684.25 858.5L684.25 859.093C675.393 853.2 666.154 845.086 659.109 837.084Z"/>
	<path fill="#111417" transform="scale(0.5 0.5)" d="M732.194 759.065L749.218 724.345C749.036 727.828 747.655 731.436 746.789 734.821C745.272 740.756 743.981 746.689 742.202 752.56L741.686 752.282C740.596 753.657 739.548 754.945 738.25 756.13L737.745 755.75C736.8 756.474 735.29 756.627 734.997 757.424L732.194 759.065Z"/>
	<path fill="#1D0000" transform="scale(0.5 0.5)" d="M639.886 807.37C644.317 810.442 649.265 812.496 654.033 814.973C656.677 816.347 659.188 818.072 661.797 819.477C662.659 819.942 663.189 820.854 663.73 821.643L669.158 837.53L665.753 839.753C663.193 839.615 661.38 838.149 659.109 837.084C658.468 836.846 657.171 835.115 656.669 834.571C650.646 828.031 646.141 819.981 641.334 812.532C641.139 810.471 640.893 809.202 639.886 807.37Z"/>
	<path fill="#FCB400" transform="scale(0.5 0.5)" d="M326.717 858.933L327.532 860.523C325.071 868.304 322.57 875.652 318.859 882.952C313.578 893.341 306.461 902.978 299.25 912.079C286.219 928.525 272.517 942.592 255.172 954.607C244.433 962.046 232.783 967.997 221.5 974.542C218.645 976.198 216.168 978.531 213.356 980.135C212.854 980.421 212.74 980.443 212.264 980.613C214.559 977.402 217.092 974.554 219.587 971.513C221.249 969.488 222.691 967.164 224.605 965.373L225.286 965.785L224.25 967L224.245 967.75C223.626 968.165 222.783 968.724 222.375 969.375L222 970.25L220.625 971.625C219.983 972.45 219.771 973.181 218.944 973.906C218.023 974.714 218.296 974.177 218.125 975.375C219.213 974.909 218.78 975.201 219.578 974.493L220.125 974.003L220.75 973.755C222.097 973.023 220.934 973.439 222.053 973.053C223.068 972.703 223.719 972.577 224.508 971.791C225.22 971.082 224.717 971.352 225.641 970.982C226.437 970.663 226.08 970.914 226.703 970.379C227.181 969.968 227.542 969.747 228.125 969.503C228.854 969.196 229.006 968.866 229.625 968.503C230.521 967.977 231.661 967.419 232.625 967.003L233.25 966.755L234.002 966.003C234.597 965.675 235.15 965.522 235.752 965.125L234.755 964.75L235.002 964.003C235.691 962.663 236.719 962.264 237.75 961.345C243.861 955.896 249.875 949.533 257.065 945.396C258.845 944.372 260.665 944.134 262.495 943.34C265.339 942.105 268.735 938.268 271.069 936.165C279.183 928.853 286.134 920.754 292.959 912.25C304.574 897.778 313.902 883.71 321.084 866.5C322.191 863.847 323.269 860.395 325.745 858.75L326.011 859.218L326.717 858.933Z"/>
	<defs>
		<linearGradient id="gradient_0" gradientUnits="userSpaceOnUse" x1="571.75" y1="631.25" x2="594.97198" y2="651.25">
			<stop offset="0" stop-color="#FEFEFE" stop-opacity="0.74509805"/>
			<stop offset="1" stop-color="#FEFEFE" stop-opacity="0.82352942"/>
		</linearGradient>
	</defs>
	<path fill="url(#gradient_0)" transform="scale(0.5 0.5)" d="M563.806 642.958C564.266 640.091 564.653 638.447 563.455 635.69C563.002 634.649 565.068 631.142 565.367 629.696C565.533 628.891 565.704 628.248 566 627.487C567.992 626.693 568.561 626.921 570.625 627.256L572.864 625.443L573.373 625.004C576.79 625.755 580.805 625.846 583.964 627.328C585.25 627.932 586.269 628.147 587.682 628.305L588.228 628.359C591.581 632.151 595.274 636.317 597.915 640.625C599.392 643.034 601.898 644.675 602.808 647.464C601.785 647.983 601.408 648.017 600.755 649L600.877 651.944C593.552 654.351 586.391 656.588 579.815 660.723C577.255 659.869 571.458 652.909 569.75 650.279C569.16 649.37 568.952 648.913 568.113 648.106L567.003 646.997C566.034 645.343 567.696 647.173 566.08 645.565C565.24 644.729 564.54 643.891 563.806 642.958Z"/>
	<path fill="#F20F1C" transform="scale(0.5 0.5)" d="M152.747 939.212L152.777 940.437L154.25 940.849C156.782 939.533 158.965 937.268 161.072 935.353C167.826 929.214 173.713 921.567 180.882 915.991L180.645 916.359C178.532 919.605 175.698 922.139 173.031 924.914C168.872 929.24 164.466 934.065 159.745 937.75C160.028 938.593 160.12 938.68 160.745 939.25L160.75 940L161.25 939.255L161.75 940L162.498 940.003L163.077 940.613C164.431 941.967 163.04 940.708 164.498 941.503L165.245 942.25L165.25 943L165.75 942.255L166.123 943L166.375 943.375L167 942.755L167.745 943.25L167.75 944L168.25 943.255L168.875 943.875L169.25 943.255L169.623 944L170 944.378L170.625 944.003L171.125 944.375L171.75 943.755L172.123 944.5L172.5 945L173.25 944.255L174 945L174.75 944.255L175.375 944.875L175.75 944.255L176.123 945L176.5 945.5L177.25 944.755L178 945.5L178.75 944.755L179.5 945.5L180.25 944.755L180.875 945.375L181.5 944.755L182.245 945.25L182.25 946L182.75 945.255L183.5 946L184.25 945.255L185 946L185.75 945.255L186.5 946L187.25 945.255L188 946L188.75 945.255L189.5 946L190.25 945.255L191 945.878C191.904 945.335 191.469 945.689 192.25 944.755L193 945.378C193.904 944.835 193.469 945.189 194.25 944.255L195 945L195.75 944.255L196.375 944.875C197.308 944.422 197.675 944.12 198.25 943.255L199 944L199.75 943.255L200.375 943.875L201.875 943.003L202.375 943.375C203.308 942.922 203.675 942.62 204.25 941.755L204.875 942.375L205.25 941.755L206.245 942.25L204.745 944.25L205 944.75L205.875 944.625L207.125 944.625C207.934 943.816 208.499 943.691 208.502 942.503L209.25 942.5C210.044 942.34 211.32 940.913 211.897 940.335C212.414 939.819 212.098 940.121 212.82 939.687C216.454 937.507 220.385 930.812 224.457 930.242C218.984 936.188 212.554 941.258 206.318 946.371C172.497 974.097 132.067 992.005 87.9884 993.791L66.0027 993.665L73.3818 991.852C79.0276 990.849 85.0631 987.98 90.2856 985.621C104.798 979.063 118.229 970.765 130.366 960.436C137.613 954.269 144.167 947.345 150.856 940.593L151.042 940.616L152.747 939.212Z"/>
	<path fill="#A5ADB1" transform="scale(0.5 0.5)" d="M588.228 628.359L624.581 621.308C628.037 626.325 650.38 656.442 654.844 656.976L655.545 656.993C656.752 659.64 657.849 662.184 658.627 665L658.871 665.865C661.207 674.67 657.015 687.097 652.421 694.657C651.109 696.816 648.208 702.099 646.027 703.025L650.589 682.823C646.052 688.396 637.781 697.586 630.25 698.919C627.946 699.327 624.837 699.246 622.841 697.876L623.732 687.477L623.783 687.35C624.1 684.22 624.858 679.155 624.105 676.205C623.434 673.575 621.809 671.016 620.318 668.788L619.726 669.449C616.313 666.849 613.241 661.219 610.517 657.715C609.549 656.469 608.657 655.052 607.297 654.216C606.829 652.598 606.283 651.632 605.25 650.307L603.997 650.857C602.884 651.222 601.966 651.456 600.877 651.944L600.755 649C601.408 648.017 601.785 647.983 602.808 647.464C601.898 644.675 599.392 643.034 597.915 640.625C595.274 636.317 591.581 632.151 588.228 628.359Z"/>
	<path fill="#C96A00" transform="scale(0.5 0.5)" d="M799.575 33.4463C832.005 35.8496 863.884 46.3673 890.15 65.7631C894.291 68.8209 899.098 72.0151 902.538 75.8594C921.613 91.1431 944.608 120.045 947.243 144.76C947.709 149.135 947.112 153.546 946.464 157.87L943.973 167.934C943.586 167.003 943.645 167.396 943.627 166.442C943.532 161.543 942.073 156.748 939.977 152.327C929.252 129.704 908.365 111.971 887.952 98.3126C882.879 94.9187 877.496 92.0429 872.445 88.6605L872.705 88.2882C871.658 86.9332 870.171 86.7746 868.75 86C867.924 85.55 866.754 84.9926 866 84.5C864.704 83.6537 866.211 84.2583 865.013 83.8061C864.229 83.5102 863.22 83.2034 862.745 82.5C863.46 81.6944 864.271 81.2122 865.168 80.6316C859.566 79.0055 854.485 75.8613 848.939 73.8775C832.23 67.9004 816.422 65.5227 798.834 64.6179L803 64.3775C804.513 64.4489 805.976 64.5083 807.5 64.5C808.881 65.4206 812.504 65.1529 814.19 64.8775L814.75 64.755L815.25 65.5L818.75 65.5C820.37 65.8864 818.968 65.9014 820.19 65.8947C821.094 65.8897 821.724 65.7409 822.578 66.1186C823.235 66.4092 823.489 66.4252 824.203 66.4452L825.25 66.5C826.816 66.9763 825.405 66.8974 827.117 66.8997L828 66.8775C828.572 67.3039 828.821 67.3527 829.5 67.5C829.841 66.8323 830.279 66.3337 830.75 65.755C831.236 66.7266 831.078 66.226 831.245 67.25L830.5 67.75L831.5 68L832.75 67C833.279 65.4337 834.008 64.5205 833.255 63L833.75 62.255L833.625 60.875L833.753 60.125L833.753 59.375C833.914 58.1938 834.144 57.4014 834.125 56.125C834.104 54.7271 834.404 53.5923 834.755 52.25L834.25 51.745L833 52.245C832.125 52.5645 832.397 52.3171 831.825 52.8884L831.5 53.245L830.755 52.5C831.659 51.1388 831.253 48.6591 831.255 47C832.214 45.5573 831.394 44.4286 831.878 43C832.049 42.4929 834.06 40.7607 834.5 40.25L833 39.75C830.181 39.2848 826.956 38.7553 824.169 38.0399C822.317 37.5646 819.509 36.6195 817.626 36.6158C816.877 36.6143 817.181 36.6762 816.55 36.5197C815.437 36.2435 814.272 36.202 813.198 35.7984C812.613 35.5785 812.873 35.6218 812.205 35.555L806.25 35L805.375 35.375C803.274 33.2744 797.564 35.3636 796 33.7406L799.575 33.4463Z"/>
	<path fill="#F44D00" transform="scale(0.5 0.5)" d="M799.575 33.4463C832.005 35.8496 863.884 46.3673 890.15 65.7631C894.291 68.8209 899.098 72.0151 902.538 75.8594L900.75 75.745C899.668 74.4488 898.827 73.5273 897.367 72.6456C896.612 72.1896 896.262 71.6976 895.75 71L895.205 70.8423C894.231 70.4501 893.867 69.8078 893.25 69L892.625 68.9975C891.608 67.8904 890.671 67.6419 889.789 66.7605C888.601 65.572 889.92 66.8035 888.625 65.9975C887.991 65.6028 887.518 65.0185 886.836 64.6067C886.008 64.1067 886.361 64.411 885.75 63.5L885.003 63.4975C884.195 62.8915 884.185 62.7703 883.125 62.625L882.25 63.745L881.625 63.125L881.497 63.9975C880.917 63.9975 881.225 64.0717 880.625 63.625L880.25 64.245L879.5 64.25L879.125 64.4975L878.5 64C877.826 64.669 878.023 64.7432 877 64.75L876.75 65.245L875.75 64C875.028 64.3096 874.282 64.564 873.625 64.9975L873 64.5C872.326 65.169 872.523 65.2432 871.5 65.25L871.125 65.4975L870.5 65L869.75 65.745L869 65L868.25 65.745L867.745 65.25C867.369 66.3865 866 68.2456 865.997 68.9975L865 69.25L864.997 69.9975L864 70.25L863.997 70.9975L863 71.25L862.622 72L862.25 72.5C862.25 73.2345 862.133 72.8816 862.745 73.5L862.25 74.245L861.5 74.25C861.079 74.3294 860.487 74.7587 860.125 74.9975L859.625 74.625L859.497 75.4975L858.745 75.75C859.102 76.8128 859.325 76.6987 860.245 77.25L861 77.255C862.377 77.5687 863.492 78.7172 864.997 79.0025L865.5 79.5C866.49 80.2279 867.901 80.769 869.055 81.2045C869.395 81.333 869.669 81.5995 870 81.75L870.875 82.0025C871.29 82.1763 871.59 82.5637 872 82.75L872.875 83.0025C873.479 83.2552 873.475 83.4284 874 83.75C874.987 84.3551 876.044 84.7273 877.141 85.0586C878.703 85.5304 881.049 87.3313 882.5 88.25C883.452 88.8526 884.357 89.2907 885.25 90L885.997 90.0025L886.5 90.5L888 91.5C888.766 92.0181 889.179 92.0599 889.375 92.9624L888.5 93.1225L887.914 92.6992C887.514 92.4181 887.027 92.2758 886.625 91.9975L885.75 91L885.003 90.9975L884.5 90.5L883.783 90.28C882.72 89.9236 882.805 89.6145 882 89C880.887 88.1506 878.997 87.433 877.68 86.9894C876.939 86.7399 876.734 86.5868 876.25 86L875.503 85.9975C874.646 85.8076 873.81 85.1489 873.25 84.5L872.503 84.4975L872 84.1225L871.437 83.9881C870.48 83.6989 869.984 83.1541 869.25 82.5L868.503 82.4975C867.519 82.2771 866.827 81.4597 866 81L865.168 80.6316C859.566 79.0055 854.485 75.8613 848.939 73.8775C832.23 67.9004 816.422 65.5227 798.834 64.6179L803 64.3775C804.513 64.4489 805.976 64.5083 807.5 64.5C808.881 65.4206 812.504 65.1529 814.19 64.8775L814.75 64.755L815.25 65.5L818.75 65.5C820.37 65.8864 818.968 65.9014 820.19 65.8947C821.094 65.8897 821.724 65.7409 822.578 66.1186C823.235 66.4092 823.489 66.4252 824.203 66.4452L825.25 66.5C826.816 66.9763 825.405 66.8974 827.117 66.8997L828 66.8775C828.572 67.3039 828.821 67.3527 829.5 67.5C829.841 66.8323 830.279 66.3337 830.75 65.755C831.236 66.7266 831.078 66.226 831.245 67.25L830.5 67.75L831.5 68L832.75 67C833.279 65.4337 834.008 64.5205 833.255 63L833.75 62.255L833.625 60.875L833.753 60.125L833.753 59.375C833.914 58.1938 834.144 57.4014 834.125 56.125C834.104 54.7271 834.404 53.5923 834.755 52.25L834.25 51.745L833 52.245C832.125 52.5645 832.397 52.3171 831.825 52.8884L831.5 53.245L830.755 52.5C831.659 51.1388 831.253 48.6591 831.255 47C832.214 45.5573 831.394 44.4286 831.878 43C832.049 42.4929 834.06 40.7607 834.5 40.25L833 39.75C830.181 39.2848 826.956 38.7553 824.169 38.0399C822.317 37.5646 819.509 36.6195 817.626 36.6158C816.877 36.6143 817.181 36.6762 816.55 36.5197C815.437 36.2435 814.272 36.202 813.198 35.7984C812.613 35.5785 812.873 35.6218 812.205 35.555L806.25 35L805.375 35.375C803.274 33.2744 797.564 35.3636 796 33.7406L799.575 33.4463Z"/>
	<path fill="#FDD904" transform="scale(0.5 0.5)" d="M304.085 831.932L304.938 831.735C306.471 831.357 307.069 830.993 308.25 829.942L308.255 831.25L309 830.755L309.85 830.625L310.329 831.102C311.065 831.775 311.711 831.973 312.528 832.476L312.995 832.846C313.72 833.396 314.495 833.655 315.336 833.992C318.241 837.873 329.446 857.377 328.835 861.508L328.588 862.921L327.532 860.523L326.717 858.933L326.011 859.218L325.745 858.75C323.269 860.395 322.191 863.847 321.084 866.5C313.902 883.71 304.574 897.778 292.959 912.25C286.134 920.754 279.183 928.853 271.069 936.165C268.735 938.268 265.339 942.105 262.495 943.34C260.665 944.134 258.845 944.372 257.065 945.396C249.875 949.533 243.861 955.896 237.75 961.345C236.719 962.264 235.691 962.663 235.002 964.003L234.755 964.75L235.752 965.125C235.15 965.522 234.597 965.675 234.002 966.003L233.25 966.755L232.625 967.003C231.661 967.419 230.521 967.977 229.625 968.503C229.006 968.866 228.854 969.196 228.125 969.503C227.542 969.747 227.181 969.968 226.703 970.379C226.08 970.914 226.437 970.663 225.641 970.982C224.717 971.352 225.22 971.082 224.508 971.791C223.719 972.577 223.068 972.703 222.053 973.053C220.934 973.439 222.097 973.023 220.75 973.755L220.125 974.003L219.578 974.493C218.78 975.201 219.213 974.909 218.125 975.375C218.296 974.177 218.023 974.714 218.944 973.906C219.771 973.181 219.983 972.45 220.625 971.625L222 970.25L222.375 969.375C222.783 968.724 223.626 968.165 224.245 967.75L224.25 967L225.286 965.785L224.605 965.373C225.934 962.857 227.983 960.579 229.578 958.203C232.723 953.518 235.318 948.772 237.686 943.654C239.108 940.582 240.647 936.934 240.681 933.5C238.565 928.382 238.567 922.391 235.914 917.525L235.71 916.784C237.697 913.574 241.021 910.844 243.718 908.238C250.442 901.741 257.913 895.631 264.25 888.803C268.453 884.274 271.602 878.86 274.757 873.584C280.444 861.122 288.139 848.306 297.676 838.443L304.085 831.932Z"/>
	<path fill="#AD0100" transform="scale(0.5 0.5)" d="M304.085 831.932L304.938 831.735C306.471 831.357 307.069 830.993 308.25 829.942L308.255 831.25L309 830.755L309.85 830.625L310.329 831.102C311.065 831.775 311.711 831.973 312.528 832.476L312.995 832.846C313.72 833.396 314.495 833.655 315.336 833.992C318.241 837.873 329.446 857.377 328.835 861.508L328.588 862.921L327.532 860.523L326.717 858.933C323.388 849.361 315.699 839.94 309.478 831.933L304.166 838.26L303.823 837.887C304.472 836.251 305.01 835.681 306.25 834.5L306.125 833.997L305.5 833.745L304.375 834.497C303.498 835.03 302.757 835.555 302 836.245C300.737 837.397 299.891 837.758 298.241 838.273L297.676 838.443L304.085 831.932Z"/>
	<path fill="#A90701" transform="scale(0.5 0.5)" d="M297.676 838.443L298.241 838.273C299.891 837.758 300.737 837.397 302 836.245C302.757 835.555 303.498 835.03 304.375 834.497L305.5 833.745L306.125 833.997L306.25 834.5C305.01 835.681 304.472 836.251 303.823 837.887L304.166 838.26C298.21 845.855 292.452 853.547 286.785 861.359C283.594 865.76 280.453 870.838 276.783 874.835L276.588 873.633C276.155 874.318 275.711 874.815 275.125 875.375C275.252 874.3 275.206 874.455 274.757 873.584C280.444 861.122 288.139 848.306 297.676 838.443Z"/>
	<defs>
		<linearGradient id="gradient_1" gradientUnits="userSpaceOnUse" x1="263.75" y1="891.25" x2="236.203" y2="927.27301">
			<stop offset="0" stop-color="#8F0000"/>
			<stop offset="1" stop-color="#C20000"/>
		</linearGradient>
	</defs>
	<path fill="url(#gradient_1)" transform="scale(0.5 0.5)" d="M274.757 873.584C275.206 874.455 275.252 874.3 275.125 875.375C275.711 874.815 276.155 874.318 276.588 873.633L276.783 874.835L240.681 933.5C238.565 928.382 238.567 922.391 235.914 917.525L235.71 916.784C237.697 913.574 241.021 910.844 243.718 908.238C250.442 901.741 257.913 895.631 264.25 888.803C268.453 884.274 271.602 878.86 274.757 873.584Z"/>
	<path fill="#552B13" transform="scale(0.5 0.5)" d="M820.216 892.086C824.379 894.647 829.131 897.031 832.974 899.996C845.579 909.719 849.58 924.6 858.31 937.19C866.05 948.353 876.658 958.67 886.46 968.054C890.667 972.082 895.006 976.262 899.528 979.932C902.83 982.612 906.936 984.847 909.704 988.08C911.789 990.514 913.296 993.403 914.104 996.5C914.17 996.753 914.232 997.008 914.287 997.264C915.381 1002.38 914.183 1007.1 911.366 1011.41C907.631 1017.13 902.328 1020.26 895.75 1021.46C892.705 1022.02 889.893 1022.08 887.264 1020.19C882.085 1016.47 877.867 1010.58 873.165 1006.19C859.955 993.843 845.539 984.183 835.001 969.07C829.608 961.336 824.181 953.105 819.285 945.038C815.514 938.825 813.792 932.045 808.243 927.128C806.455 923.307 805.424 919.144 804.905 914.961L804.821 914.25C804.083 908.365 805.383 900.822 809.214 896.079C811.82 892.854 816.39 892.492 820.216 892.086Z"/>
	<path fill="#DF0E00" transform="scale(0.5 0.5)" d="M304.085 831.932C308.632 826.189 314.36 821.116 319.368 815.75C328.169 806.319 337.091 796.242 344.882 785.982C353.56 774.557 361.382 762.497 368.716 750.174C371.719 745.129 374.108 739.554 377.452 734.743L377.726 734.359L379.656 741.968C383.148 752.86 384.721 764.711 385.526 776.085C383.313 791.681 380.483 806.883 376.045 822.031C374.352 827.811 371.976 833.492 369.817 839.11C362.96 856.952 354.954 873.302 345.381 889.853C340.137 898.919 335.409 907.899 328.725 916.007C331.216 910.244 334.661 904.077 336.157 898.007C338.368 889.028 335.406 879.046 332.148 870.757L328.588 862.921L328.835 861.508C329.446 857.377 318.241 837.873 315.336 833.992C314.495 833.655 313.72 833.396 312.995 832.846L312.528 832.476C311.711 831.973 311.065 831.775 310.329 831.102L309.85 830.625L309 830.755L308.255 831.25L308.25 829.942C307.069 830.993 306.471 831.357 304.938 831.735L304.085 831.932Z"/>
	<path fill="#A90701" transform="scale(0.5 0.5)" d="M304.085 831.932C308.632 826.189 314.36 821.116 319.368 815.75C328.169 806.319 337.091 796.242 344.882 785.982C353.56 774.557 361.382 762.497 368.716 750.174C371.719 745.129 374.108 739.554 377.452 734.743L377.726 734.359L379.656 741.968C378.892 741.326 378.607 741.262 378.283 740.296C377.941 739.28 378.11 739.666 377.5 738.745L376.75 739.245L376.245 738.75C375.845 739.35 375.556 739.858 375.25 740.5L376.245 740.75C376.375 743.155 376.004 743.907 374.75 745.876C366.915 758.172 360.019 771.187 351.652 783.12C343.945 794.113 334.588 804.235 325.549 814.142C320.833 819.311 316.858 824.653 311.582 829.331L315.336 833.992C314.495 833.655 313.72 833.396 312.995 832.846L312.528 832.476C311.711 831.973 311.065 831.775 310.329 831.102L309.85 830.625L309 830.755L308.255 831.25L308.25 829.942C307.069 830.993 306.471 831.357 304.938 831.735L304.085 831.932Z"/>
	<path fill="#8C451A" transform="scale(0.5 0.5)" d="M655.545 656.993C656.573 656.003 658.163 655.753 659.5 655.373C663.145 654.338 666.819 653.406 670.466 652.381C676.184 650.774 681.864 648.919 687.518 647.103C719.866 636.708 751.795 625.124 783.976 614.276C784.968 615.581 785.35 620.405 786.006 622.339C789.578 632.855 795.879 641.785 802.209 650.769L802.567 653.25C800.726 654.673 797.399 655.221 795.16 655.852C790.307 657.221 785.479 658.659 780.66 660.142C758.289 667.026 735.76 674.362 713.676 682.102C697.514 687.767 681.463 692.954 665.105 698.003C659.153 699.84 653.273 702.147 647.218 703.608C646.373 703.812 646.765 703.693 645.782 704.216L646.027 703.025C648.208 702.099 651.109 696.816 652.421 694.657C657.015 687.097 661.207 674.67 658.871 665.865L658.627 665C657.849 662.184 656.752 659.64 655.545 656.993Z"/>
	<path fill="#111417" transform="scale(0.5 0.5)" d="M903.261 186.247C913.17 185.981 923.148 185.974 933.047 186.507C938.46 186.798 943.927 186.985 949.225 188.203C954.206 201.014 956.731 214.453 958.456 228.054C964.128 272.8 951.666 318.297 924 353.923C924.104 352.461 924.743 350.79 925.136 349.36C929.384 334.905 930.232 319.868 930 304.898C929.518 273.746 915.384 240.543 894.153 217.923C889.411 212.87 884.359 207.759 879.146 203.2C875.124 199.681 870.87 196.541 867.019 192.809C877.821 186.41 891.083 186.551 903.261 186.247Z"/>
	<path fill="#111417" transform="scale(0.5 0.5)" d="M846.239 186.728C846.96 189.716 847.3 193.289 848.288 196.136C849.525 199.7 851.42 203.356 853.364 206.591C857.148 212.884 862.854 218.888 868.18 223.938C870.898 226.515 873.644 229.105 876.5 231.528C879.496 234.068 901.492 250.805 901.902 252.793C901.938 252.971 899.588 256.684 899.341 257.087C895.862 262.767 891.703 268.021 887.421 273.11C878.858 283.284 868.308 293.861 854.947 297.105C848.372 298.702 841.35 299.315 834.602 299.019C830.422 298.836 826.277 298.107 822.082 297.897C820.644 297.974 818.206 297.082 816.745 296.713C809.388 294.857 802.274 292.352 795.16 289.739L794.976 288.952C794.697 285.502 796.478 280.36 797.313 276.994C800.319 264.872 804.516 252.693 810.072 241.5C815.83 229.9 823.094 219.16 830.231 208.381C835.122 200.995 840.031 193.067 846.239 186.728Z"/>
	<path fill="#DF0E00" transform="scale(0.5 0.5)" d="M669.975 124.044C667.282 121.52 663.767 119.691 660.691 117.662C654.918 113.854 649.188 109.986 643.381 106.23C624.677 94.1328 606.117 81.6649 586.975 70.2838C592.235 70.9488 597.595 70.9917 602.815 69.9389C614.223 67.6378 625.633 62.0562 636.265 57.4509C647.998 52.3693 659.846 47.4602 672.106 43.7822C692.19 37.7569 713.075 34.125 733.988 32.6716C745.403 31.8783 757.061 32.0359 768.505 32.0764C778.75 32.1128 789.451 31.8824 799.575 33.4463L796 33.7406C797.564 35.3636 803.274 33.2744 805.375 35.375L806.25 35L812.205 35.555C812.873 35.6218 812.613 35.5785 813.198 35.7984C814.272 36.202 815.437 36.2435 816.55 36.5197C817.181 36.6762 816.877 36.6143 817.626 36.6158C819.509 36.6195 822.317 37.5646 824.169 38.0399C826.956 38.7553 830.181 39.2848 833 39.75L834.5 40.25C834.06 40.7607 832.049 42.4929 831.878 43C831.394 44.4286 832.214 45.5573 831.255 47C831.253 48.6591 831.659 51.1388 830.755 52.5L831.5 53.245L831.825 52.8884C832.397 52.3171 832.125 52.5645 833 52.245L834.25 51.745L834.755 52.25C834.404 53.5923 834.104 54.7271 834.125 56.125C834.144 57.4014 833.914 58.1938 833.753 59.375L833.753 60.125L833.625 60.875L833.75 62.255L833.255 63C834.008 64.5205 833.279 65.4337 832.75 67L831.5 68L830.5 67.75L831.245 67.25C831.078 66.226 831.236 66.7266 830.75 65.755C830.279 66.3337 829.841 66.8323 829.5 67.5C828.821 67.3527 828.572 67.3039 828 66.8775L827.117 66.8997C825.405 66.8974 826.816 66.9763 825.25 66.5L824.203 66.4452C823.489 66.4252 823.235 66.4092 822.578 66.1186C821.724 65.7409 821.094 65.8897 820.19 65.8947C818.968 65.9014 820.37 65.8864 818.75 65.5L815.25 65.5L814.75 64.755L814.19 64.8775C812.504 65.1529 808.881 65.4206 807.5 64.5C805.976 64.5083 804.513 64.4489 803 64.3775L798.834 64.6179C795.823 64.5374 793.163 64.3629 790.25 65C786.222 65.8809 781.958 63.9928 777.904 65.75L777.75 66.5L777.094 66.3874C775.812 66.193 775.094 66.0258 774 66.755C772.572 66.755 771.205 66.4518 770 67.255C768.577 67.3241 767.385 67.4461 766 67.755C761.096 68.849 753.209 69.028 749.829 72.7551C724.567 80.8892 702.747 93.1757 682.966 110.933C678.36 115.068 674.505 119.925 669.975 124.044Z"/>
	<defs>
		<linearGradient id="gradient_2" gradientUnits="userSpaceOnUse" x1="678.25" y1="557.75" x2="595.896" y2="460.51199">
			<stop offset="0" stop-color="#FDB600"/>
			<stop offset="1" stop-color="#FFD300"/>
		</linearGradient>
	</defs>
	<path fill="url(#gradient_2)" transform="scale(0.5 0.5)" d="M795.16 289.739C802.274 292.352 809.388 294.857 816.745 296.713C818.206 297.082 820.644 297.974 822.082 297.897C823.547 304.58 822.443 313.331 822.04 320.199C819.233 368.01 799.398 413.286 773.823 453.196C749.829 490.639 719.307 523.221 685.917 552.387C665.485 570.236 643.284 587.435 619.616 600.797C610.575 605.902 601.261 610.531 591.759 614.715C579.111 620.283 566.825 625.102 555.233 632.817C557.003 626.811 561.783 620.981 566.13 616.636C579.634 603.136 595.843 591.864 610.84 580.087C638.591 558.295 666.47 536.418 691.852 511.845C701.766 502.247 710.987 491.947 719.976 481.49C756.943 438.488 787.509 386.808 795.085 329.712C796.813 316.684 794.785 303.614 795.131 290.587L795.16 289.739Z"/>
	<path fill="#DF0E00" transform="scale(0.5 0.5)" d="M669.519 124.569C667.726 129.084 665.439 133.351 663.68 137.891C658.204 152.023 657.093 164.916 657.602 179.92C642.489 181.307 628.652 184.982 614.316 189.853C569.527 205.072 526.675 232.648 492.137 264.894C480.673 275.598 469.637 286.944 458.602 298.095C454.103 302.642 449.911 307.684 445.057 311.838C440.757 316.407 436.5 320.995 432.456 325.794C430.599 327.997 428.361 330.362 427.135 332.986C404.31 356.8 384.253 383.59 365.988 411C361.111 418.318 356.025 425.514 351.386 432.987C338.071 454.437 326.516 476.485 316.383 499.588C312.293 508.913 308.187 518.356 304.903 528C301.514 537.955 298.698 548.139 295.724 558.226C292.36 569.633 288.874 581.079 286.122 592.652C284.204 600.718 283.43 609.142 281.415 617.129L281.35 617.151C281 618.181 280.764 619.183 280.551 620.25L281.25 620.914C289.626 614.94 301.048 612.594 310.5 608.529C343.448 594.361 376.616 580.247 410.053 567.25C423.708 561.942 437.449 556.899 451.091 551.537C450.069 553.14 448.605 554.311 447.694 555.976L447.24 556.833C440.035 565.356 435.085 576.6 426.767 584.039C426.231 583.931 425.706 583.728 425.159 583.716C424.411 583.7 422.742 584.521 421.998 584.788C417.87 586.265 413.832 587.959 409.763 589.59C386.534 598.901 363.378 608.548 340.3 618.222C331.275 622.005 322.487 626.244 313.367 629.827C301.631 634.438 289.619 638.579 277.5 642.067C270.789 643.999 263.221 646.257 256.249 646.71L255.064 625.598C257.221 600.562 267.531 576.871 277.802 554.205C281.663 545.685 285.343 537.06 289.405 528.635C294.381 518.311 299.781 508.189 304.794 497.882C317.497 471.77 329.658 445.435 343.382 419.829C358.113 392.345 374.124 365.254 391.109 339.101C395.623 332.15 400.542 325.458 405.158 318.574C413.222 306.546 421.59 294.741 430.609 283.406C434.087 279.035 437.625 274.164 441.666 270.32L442.515 269.031C448.438 260.986 455.713 253.382 462.377 245.93C505.886 197.272 561.678 153.522 624.463 133.447C633.704 130.493 643.284 128.159 652.87 126.647C658.392 125.776 663.984 125.425 669.519 124.569Z"/>
	<path fill="#F44D00" transform="scale(0.5 0.5)" d="M669.519 124.569C667.726 129.084 665.439 133.351 663.68 137.891C658.204 152.023 657.093 164.916 657.602 179.92C642.489 181.307 628.652 184.982 614.316 189.853C569.527 205.072 526.675 232.648 492.137 264.894C480.673 275.598 469.637 286.944 458.602 298.095C454.103 302.642 449.911 307.684 445.057 311.838C445.503 309.875 446.786 309.028 448.125 307.625C450.381 305.26 452.622 302.87 454.877 300.5C462.092 292.919 469.689 285.733 477.127 278.386C483.576 272.017 489.844 265.524 496.625 259.502L524 237.377L528.75 234L528.5 233.745L527.755 233.25C528.241 231.782 529.823 231.214 530.755 230C531.515 229.01 530.894 229.441 531.907 228.832L532.503 228.502C532.783 227.668 532.595 227.877 533.135 227.347C533.888 226.608 534.453 226.18 534.941 225.204L535.255 224.5C535.661 223.805 535.993 223.61 536.268 222.784C536.709 221.461 537.025 220.215 537.755 219C538.772 217.308 538.254 212.651 538.255 210.5C539.053 209.299 538.753 207.922 538.755 206.5C539.585 205.251 539.253 203.032 539.255 201.5C540.053 200.299 539.753 198.922 539.755 197.5C539.124 196.554 539.255 196.563 539.255 195.5C538.422 194.517 538.154 193.639 537.848 192.405L537.755 192L537.25 191.5C536.529 190.571 536.559 189.881 536.69 188.75L536.755 188.25L536.003 187.375C536.003 186.838 535.958 187.093 536.196 186.494L537.378 183.5L537 182.75L535.5 183.245L534.75 183.745C534.18 183.12 534.093 183.028 533.25 182.745L533.245 183.75C532.993 184.002 531.998 185.177 531.75 185.245C531.701 185.258 530.072 185.232 530 185.245C529.286 185.375 527.77 186.653 527.186 187.153L519.875 192.998C518.906 193.708 517.869 194.974 516.875 195.498L516.125 195.748C514.927 197.13 513.56 197.725 512.413 199.013L511.498 199.998C510.046 200.84 509.317 202.18 507.998 202.998C506.627 203.847 505.773 205.207 504.498 205.998C502.62 207.161 501.267 209.53 499.498 210.498C496.817 211.963 495.322 215.053 492.875 216.498C489.818 218.303 486.781 222.092 484.21 224.663C477.841 231.031 470.787 237.435 465.171 244.448C462.674 247.566 459.117 250.411 456.943 253.672C455.731 255.489 453.98 257.251 452.497 258.875L450.748 260.865L448.998 262.998C448.113 263.957 447.428 265.075 446.529 265.974C445.772 266.73 445.195 267.572 444.498 268.375C443.523 269.497 443.152 270.181 441.666 270.32L442.515 269.031C448.438 260.986 455.713 253.382 462.377 245.93C505.886 197.272 561.678 153.522 624.463 133.447C633.704 130.493 643.284 128.159 652.87 126.647C658.392 125.776 663.984 125.425 669.519 124.569Z"/>
	<path fill="#250800" transform="scale(0.5 0.5)" d="M534.586 657.567C538.358 651.243 542.58 645.338 547.494 639.849C549.624 637.469 551.981 634.78 554.93 633.45L563.806 642.958C564.54 643.891 565.24 644.729 566.08 645.565C567.696 647.173 566.034 645.343 567.003 646.997L568.113 648.106C568.952 648.913 569.16 649.37 569.75 650.279C571.458 652.909 577.255 659.869 579.815 660.723C586.391 656.588 593.552 654.351 600.877 651.944C601.966 651.456 602.884 651.222 603.997 650.857L605.25 650.307C606.283 651.632 606.829 652.598 607.297 654.216C608.657 655.052 609.549 656.469 610.517 657.715C613.241 661.219 616.313 666.849 619.726 669.449L620.318 668.788C621.809 671.016 623.434 673.575 624.105 676.205C624.858 679.155 624.1 684.22 623.783 687.35L623.732 687.477L622.841 697.876C624.837 699.246 627.946 699.327 630.25 698.919C637.781 697.586 646.052 688.396 650.589 682.823L646.027 703.025L645.782 704.216C646.765 703.693 646.373 703.812 647.218 703.608C653.273 702.147 659.153 699.84 665.105 698.003C681.463 692.954 697.514 687.767 713.676 682.102C735.76 674.362 758.289 667.026 780.66 660.142C785.479 658.659 790.307 657.221 795.16 655.852C797.399 655.221 800.726 654.673 802.567 653.25L802.209 650.769C804.588 653.352 807.001 655.747 809.645 658.056C811.028 659.263 813.476 660.851 814.384 662.396L813.741 662.535C801.009 665.372 789.565 673.955 777.407 678.747C761.362 685.073 744.737 690.374 728.47 696.135C712.931 701.639 697.411 707.73 681.713 712.725C668.575 716.905 655.317 720.785 642.149 724.891C635.916 726.835 627.038 728.007 622.066 732.25C620.785 735.479 622.263 739.583 623.6 742.627C625.791 747.615 630.295 751.81 635 754.484C645.671 760.549 656.55 765.996 667 772.502C672.064 775.655 677.099 778.935 681.97 782.378C686.762 785.763 691.729 789.795 697.277 791.843C699.994 792.846 703.506 792.745 706.264 791.958C709.559 791.018 712.064 788.816 714.376 786.398C721.734 778.698 726.968 768.277 732.194 759.065L734.997 757.424C735.29 756.627 736.8 756.474 737.745 755.75L738.25 756.13C739.548 754.945 740.596 753.657 741.686 752.282L742.202 752.56C740.515 759.407 738.058 766.29 737.651 773.374C737.542 775.286 737.449 777.42 738.302 779.176C739.041 780.698 740.347 781.541 741.949 781.941C747.689 783.377 755.431 779.726 760.718 777.664C755.77 782.598 750.857 787.549 746.068 792.639C742.801 796.111 739.653 800.051 735.871 802.959C733.937 804.446 731.647 805.467 729.549 806.701C738.679 818.944 749.977 827.774 763.477 834.8C769.401 837.884 776.003 840.83 782.652 841.836C788.338 842.696 795.585 842.453 801.249 841.314C803.569 841.544 804.392 842.179 806.25 843.5L806.502 847.435C798.168 851.813 790.083 854.978 780.886 857.132C787.064 861.441 792.464 865.879 797.529 871.5C802 876.461 806.12 882.048 811.257 886.354C813.98 888.636 817.362 890.011 820.216 892.086C816.39 892.492 811.82 892.854 809.214 896.079C805.383 900.822 804.083 908.365 804.821 914.25L804.905 914.961C805.424 919.144 806.455 923.307 808.243 927.128L790.103 916.122C789.814 917.278 792.244 923.349 792.663 924.919C795.815 936.715 798.374 948.594 801.942 960.295C804.375 968.274 807.411 975.649 810.391 983.388C804.109 975.093 796.956 967.815 789.857 960.222C782.885 952.764 775.518 945.24 770.25 936.432C762.509 923.486 759.773 907.438 755.848 893.058C752.329 890.907 748.497 889.621 745.141 887.099C742.006 884.742 740.082 881.214 737.329 878.471C733.524 874.678 729.101 871.808 725.386 867.762C717.447 859.115 710.902 849.092 701.72 841.638C695.666 836.723 687.748 833.376 680.826 829.824C675.421 827.049 669.555 823.351 663.73 821.643C663.189 820.854 662.659 819.942 661.797 819.477C659.188 818.072 656.677 816.347 654.033 814.973C649.265 812.496 644.317 810.442 639.886 807.37C637.863 806.249 634.601 804.28 632.272 804.007C629.312 803.66 625.25 804.582 622.381 805.378L621.5 805.626C620.551 805.887 619.761 806.037 618.952 806.644C618.345 807.1 618.642 807.003 617.811 807.168L617.25 807.245L616.75 807.745L615.769 806.684C616.12 803.219 616.683 798.073 615.2 794.872C613.947 792.168 611.423 790.085 609.218 788.158C605.526 784.934 601.656 781.909 597.905 778.752C585.619 768.413 574.017 756.899 560.504 748.182C546.205 738.957 528.959 733.643 513.421 726.798C496.573 719.376 480.029 710.584 462.766 704.217L461.757 704.756C451.468 711.15 450.298 721.896 447.437 732.603C447.563 727.423 449.203 720.78 451.193 716.016C452.887 711.961 456.53 706.423 460.786 704.686C463.616 703.531 466.156 701.567 468.781 700.004C479.828 693.425 492.418 685.762 501.575 676.6L501.931 676.236C509.033 666.209 519.516 657.2 522.776 644.893C527.909 647.222 531.464 652.976 534.586 657.567ZM534.586 657.567C537.733 661.832 550.389 677.283 549.906 681.25L549.449 683.004L540.631 686.277L537.526 688.093C535.605 689.08 535.087 690.496 534.413 692.5C533.497 695.226 533.884 698.852 535.142 701.407C535.444 702.02 535.828 702.539 536.232 703.087C536.413 703.803 537.143 704.76 537.541 705.377C540.485 709.941 545.721 712.883 550.947 713.98L551.75 714.139L553.658 714.463C565.278 715.503 575.289 710.615 583.005 702.173C585.846 699.065 588.325 695.437 591.552 692.73L591.948 692.407C599.893 692.844 607.433 693.911 615.202 695.633C617.665 696.178 620.7 696.574 622.841 697.876L623.732 687.477L623.783 687.35C624.1 684.22 624.858 679.155 624.105 676.205C623.434 673.575 621.809 671.016 620.318 668.788L619.726 669.449C616.313 666.849 613.241 661.219 610.517 657.715C609.549 656.469 608.657 655.052 607.297 654.216C606.829 652.598 606.283 651.632 605.25 650.307L603.997 650.857C602.884 651.222 601.966 651.456 600.877 651.944C593.552 654.351 586.391 656.588 579.815 660.723C577.255 659.869 571.458 652.909 569.75 650.279C569.16 649.37 568.952 648.913 568.113 648.106L567.003 646.997C566.034 645.343 567.696 647.173 566.08 645.565C565.24 644.729 564.54 643.891 563.806 642.958L554.93 633.45C551.981 634.78 549.624 637.469 547.494 639.849C542.58 645.338 538.358 651.243 534.586 657.567ZM522.776 644.893C519.516 657.2 509.033 666.209 501.931 676.236C514.637 678.88 527.644 686.045 540.631 686.277L549.449 683.004L549.906 681.25C550.389 677.283 537.733 661.832 534.586 657.567C531.464 652.976 527.909 647.222 522.776 644.893Z"/>
	<path fill="#0496BB" transform="scale(0.5 0.5)" d="M534.586 657.567C538.358 651.243 542.58 645.338 547.494 639.849C549.624 637.469 551.981 634.78 554.93 633.45L563.806 642.958C564.54 643.891 565.24 644.729 566.08 645.565C567.696 647.173 566.034 645.343 567.003 646.997L568.113 648.106C568.952 648.913 569.16 649.37 569.75 650.279C571.458 652.909 577.255 659.869 579.815 660.723C586.391 656.588 593.552 654.351 600.877 651.944C601.966 651.456 602.884 651.222 603.997 650.857L605.25 650.307C606.283 651.632 606.829 652.598 607.297 654.216C608.657 655.052 609.549 656.469 610.517 657.715C613.241 661.219 616.313 666.849 619.726 669.449L620.318 668.788C621.809 671.016 623.434 673.575 624.105 676.205C624.858 679.155 624.1 684.22 623.783 687.35L623.732 687.477L622.841 697.876C620.7 696.574 617.665 696.178 615.202 695.633C607.433 693.911 599.893 692.844 591.948 692.407L591.552 692.73C588.325 695.437 585.846 699.065 583.005 702.173C575.289 710.615 565.278 715.503 553.658 714.463L551.75 714.139L550.947 713.98C545.721 712.883 540.485 709.941 537.541 705.377C537.143 704.76 536.413 703.803 536.232 703.087C535.828 702.539 535.444 702.02 535.142 701.407C533.884 698.852 533.497 695.226 534.413 692.5C535.087 690.496 535.605 689.08 537.526 688.093L540.631 686.277L549.449 683.004L549.906 681.25C550.389 677.283 537.733 661.832 534.586 657.567ZM607.297 654.216C609.367 662.44 614.202 669.541 616.52 677.652C618.729 677.247 621.416 677.533 623.684 677.525L623.082 676C622.182 673.612 621.042 671.627 619.726 669.449C616.313 666.849 613.241 661.219 610.517 657.715C609.549 656.469 608.657 655.052 607.297 654.216Z"/>
	<path fill="#FEFEFE" fill-opacity="0.97647059" transform="scale(0.5 0.5)" d="M607.297 654.216C608.657 655.052 609.549 656.469 610.517 657.715C613.241 661.219 616.313 666.849 619.726 669.449C621.042 671.627 622.182 673.612 623.082 676L623.684 677.525C621.416 677.533 618.729 677.247 616.52 677.652C614.202 669.541 609.367 662.44 607.297 654.216Z"/>
	<path fill="#8C451A" transform="scale(0.5 0.5)" d="M619.726 669.449L620.318 668.788C621.809 671.016 623.434 673.575 624.105 676.205C624.858 679.155 624.1 684.22 623.783 687.35L623.732 687.477C617.984 687.93 612.389 686.769 606.69 686.243C603.43 685.942 600.169 686.252 596.988 685.335C599.846 682.2 603.29 679.408 607.589 678.542C610.183 678.02 612.949 678.277 615.578 677.824L616.52 677.652C618.729 677.247 621.416 677.533 623.684 677.525L623.082 676C622.182 673.612 621.042 671.627 619.726 669.449Z"/>
	<defs>
		<linearGradient id="gradient_3" gradientUnits="userSpaceOnUse" x1="621.25" y1="696.25" x2="616.289" y2="680.68298">
			<stop offset="0" stop-color="#5D2A0C"/>
			<stop offset="1" stop-color="#7E4413"/>
		</linearGradient>
	</defs>
	<path fill="url(#gradient_3)" transform="scale(0.5 0.5)" d="M596.988 685.335C600.169 686.252 603.43 685.942 606.69 686.243C612.389 686.769 617.984 687.93 623.732 687.477L622.841 697.876C620.7 696.574 617.665 696.178 615.202 695.633C607.433 693.911 599.893 692.844 591.948 692.407L596.988 685.335Z"/>
	<path fill="#316878" transform="scale(0.5 0.5)" d="M579.613 660.931L579.393 661.506C578.893 662.842 578.52 663.989 578.368 665.411C577.6 672.633 563.265 687.981 557.798 692.373C554.324 695.164 550.821 697.282 546.92 699.407C543.952 701.023 540.704 698.894 537.497 699.997L536.25 700.245L535.75 700.5L536.198 701.06L536.232 703.087C535.828 702.539 535.444 702.02 535.142 701.407C533.884 698.852 533.497 695.226 534.413 692.5C535.087 690.496 535.605 689.08 537.526 688.093L540.631 686.277L549.449 683.004L549.746 683.521C550.893 684.304 551.856 684.29 553.193 684.358C557.615 684.583 575.291 664.845 579.613 660.931Z"/>
	<path fill="#A5ADB1" transform="scale(0.5 0.5)" d="M534.586 657.567C538.358 651.243 542.58 645.338 547.494 639.849C549.624 637.469 551.981 634.78 554.93 633.45L563.806 642.958C564.54 643.891 565.24 644.729 566.08 645.565C567.696 647.173 566.034 645.343 567.003 646.997L568.113 648.106C568.952 648.913 569.16 649.37 569.75 650.279C571.458 652.909 577.255 659.869 579.815 660.723L579.613 660.931C575.291 664.845 557.615 684.583 553.193 684.358C551.856 684.29 550.893 684.304 549.746 683.521L549.449 683.004L549.906 681.25C550.389 677.283 537.733 661.832 534.586 657.567Z"/>
	<defs>
		<linearGradient id="gradient_4" gradientUnits="userSpaceOnUse" x1="206.75" y1="944.75" x2="121.956" y2="777.84998">
			<stop offset="0" stop-color="#F91165"/>
			<stop offset="1" stop-color="#FD1A94"/>
		</linearGradient>
	</defs>
	<path fill="url(#gradient_4)" transform="scale(0.5 0.5)" d="M255.064 625.598L256.249 646.71C263.221 646.257 270.789 643.999 277.5 642.067C289.619 638.579 301.631 634.438 313.367 629.827C322.487 626.244 331.275 622.005 340.3 618.222C363.378 608.548 386.534 598.901 409.763 589.59C413.832 587.959 417.87 586.265 421.998 584.788C422.742 584.521 424.411 583.7 425.159 583.716C425.706 583.728 426.231 583.931 426.767 584.039L420.766 592.89C416.305 596.412 413.284 601.426 410.495 606.317C406.692 612.987 403.519 619.833 401.213 627.164C399.211 633.526 397.791 640.161 396.356 646.675C395.305 651.443 394.369 656.276 393.109 660.995C392.603 662.893 392.068 665.245 390.799 666.755C390.994 669.055 391.172 671.324 390.794 673.615C389.922 678.908 387.904 683.254 388.432 688.774C387.68 693.717 386.381 698.6 385.436 703.517C383.425 713.978 381.569 724.373 377.726 734.359L377.452 734.743C374.108 739.554 371.719 745.129 368.716 750.174C361.382 762.497 353.56 774.557 344.882 785.982C337.091 796.242 328.169 806.319 319.368 815.75C314.36 821.116 308.632 826.189 304.085 831.932L297.676 838.443C288.139 848.306 280.444 861.122 274.757 873.584C271.602 878.86 268.453 884.274 264.25 888.803C257.913 895.631 250.442 901.741 243.718 908.238C241.021 910.844 237.697 913.574 235.71 916.784L235.914 917.525C233.941 921.186 230.511 924.417 227.596 927.357C226.762 928.198 225.54 929.799 224.457 930.242C220.385 930.812 216.454 937.507 212.82 939.687C212.098 940.121 212.414 939.819 211.897 940.335C211.32 940.913 210.044 942.34 209.25 942.5L208.502 942.503C208.499 943.691 207.934 943.816 207.125 944.625L205.875 944.625L205 944.75L204.745 944.25L206.245 942.25L205.25 941.755L204.875 942.375L204.25 941.755C203.675 942.62 203.308 942.922 202.375 943.375L201.875 943.003L200.375 943.875L199.75 943.255L199 944L198.25 943.255C197.675 944.12 197.308 944.422 196.375 944.875L195.75 944.255L195 945L194.25 944.255C193.469 945.189 193.904 944.835 193 945.378L192.25 944.755C191.469 945.689 191.904 945.335 191 945.878L190.25 945.255L189.5 946L188.75 945.255L188 946L187.25 945.255L186.5 946L185.75 945.255L185 946L184.25 945.255L183.5 946L182.75 945.255L182.25 946L182.245 945.25L181.5 944.755L180.875 945.375L180.25 944.755L179.5 945.5L178.75 944.755L178 945.5L177.25 944.755L176.5 945.5L176.123 945L175.75 944.255L175.375 944.875L174.75 944.255L174 945L173.25 944.255L172.5 945L172.123 944.5L171.75 943.755L171.125 944.375L170.625 944.003L170 944.378L169.623 944L169.25 943.255L168.875 943.875L168.25 943.255L167.75 944L167.745 943.25L167 942.755L166.375 943.375L166.123 943L165.75 942.255L165.25 943L165.245 942.25L164.498 941.503C163.04 940.708 164.431 941.967 163.077 940.613L162.498 940.003L161.75 940L161.25 939.255L160.75 940L160.745 939.25C160.12 938.68 160.028 938.593 159.745 937.75C164.466 934.065 168.872 929.24 173.031 924.914C175.698 922.139 178.532 919.605 180.645 916.359L180.882 915.991C173.713 921.567 167.826 929.214 161.072 935.353C158.965 937.268 156.782 939.533 154.25 940.849L152.777 940.437L152.747 939.212L151.042 940.616L150.856 940.593C149.141 939.703 148.135 940.297 146.5 941.05C138.756 944.617 131.433 949.014 123.573 952.397C103.25 961.144 80.6222 963.196 58.7503 962.975C60.79 962.466 63.0488 962.024 64.9139 961.036C71.7616 957.406 77.8474 951.451 83.2809 946.032C103.686 925.68 119.241 901.679 137.382 879.453C142.259 873.478 147.083 867.227 152.535 861.776C151.228 861.479 149.12 861.872 147.75 861.996C143.552 862.375 139.394 863.16 135.187 863.414C122.634 864.17 108.681 864.391 96.2949 862.146L102.661 860.72C110.44 858.732 118.053 854.099 123.792 848.544C128.829 843.668 133.463 838.122 136.491 831.75C142.432 819.249 143.444 805.29 150.113 792.849C156.1 781.68 163.656 770.964 170.962 760.621C173.327 757.273 176.273 754.201 178.341 750.671L174.926 750.204L132.014 741.708C144.353 741.523 154.979 738.136 164.75 730.435C180.437 718.071 189.131 697.865 200.631 681.933C210.566 668.17 221.756 655.235 233.89 643.391C240.353 637.083 247.467 630.473 255.064 625.598Z"/>
	<path fill="#DF0E00" transform="scale(0.5 0.5)" d="M152.747 939.212L153.167 937.982L152.75 937.255L150.25 938.015L149.62 937.5C150.531 935.928 152.373 934.987 153.837 933.977C156.247 932.314 158.573 930.556 160.797 928.65C167.202 923.158 173.091 917.007 178.805 910.81C186.485 902.481 194.243 893.773 201.176 884.818C210.127 873.257 218.04 861.062 225.881 848.75L225.891 849.233C225.695 851.422 223.618 854.499 222.662 856.566C212.536 878.46 197.257 898.43 180.882 915.991C173.713 921.567 167.826 929.214 161.072 935.353C158.965 937.268 156.782 939.533 154.25 940.849L152.777 940.437L152.747 939.212Z"/>
	<path fill="#FE2596" transform="scale(0.5 0.5)" d="M255.064 625.598L256.249 646.71C263.221 646.257 270.789 643.999 277.5 642.067C289.619 638.579 301.631 634.438 313.367 629.827C322.487 626.244 331.275 622.005 340.3 618.222C363.378 608.548 386.534 598.901 409.763 589.59C413.832 587.959 417.87 586.265 421.998 584.788C422.742 584.521 424.411 583.7 425.159 583.716C425.706 583.728 426.231 583.931 426.767 584.039L420.766 592.89C416.305 596.412 413.284 601.426 410.495 606.317C406.692 612.987 403.519 619.833 401.213 627.164C399.211 633.526 397.791 640.161 396.356 646.675C395.305 651.443 394.369 656.276 393.109 660.995C392.603 662.893 392.068 665.245 390.799 666.755C386.119 672.418 381.739 678.363 376.351 683.38C367.596 691.532 357.495 698.444 347.477 704.945C314.054 726.631 275.671 744.04 235.611 747.819C217.954 749.485 199.845 750.843 182.25 748.381C180.712 748.166 179.135 748.655 177.75 747.789C176.884 748.346 176.388 748.432 175.98 749.406L175.523 749.715C175.003 750.071 175.164 749.895 174.926 750.204L132.014 741.708C144.353 741.523 154.979 738.136 164.75 730.435C180.437 718.071 189.131 697.865 200.631 681.933C210.566 668.17 221.756 655.235 233.89 643.391C240.353 637.083 247.467 630.473 255.064 625.598Z"/>
	<path fill="#FDD904" transform="scale(0.5 0.5)" d="M749.829 72.7551C753.209 69.028 761.096 68.849 766 67.755C767.385 67.4461 768.577 67.3241 770 67.255C771.205 66.4518 772.572 66.755 774 66.755C775.094 66.0258 775.812 66.193 777.094 66.3874L777.75 66.5L777.904 65.75C781.958 63.9928 786.222 65.8809 790.25 65C793.163 64.3629 795.823 64.5374 798.834 64.6179C816.422 65.5227 832.23 67.9004 848.939 73.8775C854.485 75.8613 859.566 79.0055 865.168 80.6316C864.271 81.2122 863.46 81.6944 862.745 82.5C863.22 83.2034 864.229 83.5102 865.013 83.8061C866.211 84.2583 864.704 83.6537 866 84.5C866.754 84.9926 867.924 85.55 868.75 86C870.171 86.7746 871.658 86.9332 872.705 88.2882L872.445 88.6605C877.496 92.0429 882.879 94.9187 887.952 98.3126C908.365 111.971 929.252 129.704 939.977 152.327C942.073 156.748 943.532 161.543 943.627 166.442C943.645 167.396 943.586 167.003 943.973 167.934C943.865 168.59 943.719 169.089 943.5 169.71L943.012 169C941.775 167.183 940.358 166.457 938.452 165.492L937.702 165.116C916.116 158.585 889.98 159.492 868.844 167.555C859.472 171.972 851.219 177.276 846.239 186.728C840.031 193.067 835.122 200.995 830.231 208.381C823.094 219.16 815.83 229.9 810.072 241.5C804.516 252.693 800.319 264.872 797.313 276.994C796.478 280.36 794.697 285.502 794.976 288.952L795.16 289.739L795.131 290.587C794.785 303.614 796.813 316.684 795.085 329.712C787.509 386.808 756.943 438.488 719.976 481.49C710.987 491.947 701.766 502.247 691.852 511.845C666.47 536.418 638.591 558.295 610.84 580.087C595.843 591.864 579.634 603.136 566.13 616.636C561.783 620.981 557.003 626.811 555.233 632.817L554.93 633.45C551.981 634.78 549.624 637.469 547.494 639.849C542.58 645.338 538.358 651.243 534.586 657.567C531.464 652.976 527.909 647.222 522.776 644.893C519.516 657.2 509.033 666.209 501.931 676.236L501.575 676.6C492.418 685.762 479.828 693.425 468.781 700.004C466.156 701.567 463.616 703.531 460.786 704.686C456.53 706.423 452.887 711.961 451.193 716.016C449.203 720.78 447.563 727.423 447.437 732.603C445.367 741.444 443.717 750.503 440.521 759.033C432.906 779.365 419.658 797.785 406.877 815.186C403.495 819.791 400.456 824.506 396.617 828.766C397.588 826.222 399.098 824.08 400.305 821.66C401.937 818.389 403.364 814.962 404.729 811.573C411.288 795.28 414.431 773.231 410.595 755.893C406.508 760.372 400.571 763.856 395.796 767.704C392.526 770.34 389.122 774.008 385.526 776.085C384.721 764.711 383.148 752.86 379.656 741.968L377.726 734.359C381.569 724.373 383.425 713.978 385.436 703.517C386.381 698.6 387.68 693.717 388.432 688.774C387.904 683.254 389.922 678.908 390.794 673.615C391.172 671.324 390.994 669.055 390.799 666.755C392.068 665.245 392.603 662.893 393.109 660.995C394.369 656.276 395.305 651.443 396.356 646.675C397.791 640.161 399.211 633.526 401.213 627.164C403.519 619.833 406.692 612.987 410.495 606.317C413.284 601.426 416.305 596.412 420.766 592.89L426.767 584.039C435.085 576.6 440.035 565.356 447.24 556.833L447.694 555.976C448.605 554.311 450.069 553.14 451.091 551.537C437.449 556.899 423.708 561.942 410.053 567.25C376.616 580.247 343.448 594.361 310.5 608.529C301.048 612.594 289.626 614.94 281.25 620.914L280.551 620.25C280.764 619.183 281 618.181 281.35 617.151L281.415 617.129C283.43 609.142 284.204 600.718 286.122 592.652C288.874 581.079 292.36 569.633 295.724 558.226C298.698 548.139 301.514 537.955 304.903 528C308.187 518.356 312.293 508.913 316.383 499.588C326.516 476.485 338.071 454.437 351.386 432.987C356.025 425.514 361.111 418.318 365.988 411C384.253 383.59 404.31 356.8 427.135 332.986C428.361 330.362 430.599 327.997 432.456 325.794C436.5 320.995 440.757 316.407 445.057 311.838C449.911 307.684 454.103 302.642 458.602 298.095C469.637 286.944 480.673 275.598 492.137 264.894C526.675 232.648 569.527 205.072 614.316 189.853C628.652 184.982 642.489 181.307 657.602 179.92C657.093 164.916 658.204 152.023 663.68 137.891C665.439 133.351 667.726 129.084 669.519 124.569L669.975 124.044C674.505 119.925 678.36 115.068 682.966 110.933C702.747 93.1757 724.567 80.8892 749.829 72.7551ZM427.135 332.986C404.31 356.8 384.253 383.59 365.988 411C361.111 418.318 356.025 425.514 351.386 432.987C338.071 454.437 326.516 476.485 316.383 499.588C312.293 508.913 308.187 518.356 304.903 528C301.514 537.955 298.698 548.139 295.724 558.226C292.36 569.633 288.874 581.079 286.122 592.652C284.204 600.718 283.43 609.142 281.415 617.129L281.35 617.151C281 618.181 280.764 619.183 280.551 620.25L281.25 620.914C289.626 614.94 301.048 612.594 310.5 608.529C343.448 594.361 376.616 580.247 410.053 567.25C423.708 561.942 437.449 556.899 451.091 551.537C450.069 553.14 448.605 554.311 447.694 555.976L447.24 556.833C456.962 548.227 469.628 544.509 481.066 538.758C497.661 532.496 513.634 523.233 529.434 515.172C546.862 506.279 564.404 497.168 580.93 486.672C621.95 460.619 657.753 426.836 681.648 384.206C693.911 362.326 701.306 338.52 702.447 313.403C702.953 302.249 702.363 291.298 699.374 280.5C696.834 271.326 692.226 262.078 686.75 254.298C676.437 239.647 660.622 230.765 643.15 227.779C629.497 225.445 614.507 229.093 601.241 232.337C575.871 238.54 551.988 249.258 529.047 261.535C509.312 272.097 490.563 283.638 472.685 297.142C457.254 308.798 442.918 321.798 427.135 332.986ZM777.579 139.707L775.039 140.676C766.774 143.677 759.859 150.69 756.088 158.573C752.427 166.226 751.902 175.348 754.848 183.302C758.178 192.293 764.533 199.333 773.299 203.287C781.847 207.141 791.934 207.4 800.673 203.954C804.153 202.581 807.018 200.579 809.918 198.252L809.314 196.59C806.917 195.441 804.786 196.352 802.25 196.925C800.996 197.208 800.256 197.303 799.023 196.824C797.847 196.368 797.928 196.149 797.393 195L797.75 193.889C798.329 191.934 798.978 191.04 798.013 189.204L795.545 190.414C790.193 192.811 783.606 192.672 778.25 190.333C773.184 188.121 769.136 183.291 767.314 178.118C765.117 171.879 766.547 167.22 769.294 161.524C770.326 160.48 771.07 159.157 772.099 158.097C774.651 155.467 777.643 153.964 781.006 152.683L780.841 151.571C780.829 149.682 780.952 148.197 779.612 146.658L779.007 146C778.999 144.257 778.171 142.995 778.036 141.309C777.945 140.18 778.135 140.839 777.579 139.707ZM807.656 145.525L809.164 148.75L808.5 149.164C807.202 150.08 807.302 152.049 806.538 153.478C805.532 155.361 806.351 158.329 804.25 159.119L802.283 159.527L805.68 164.7L806.007 165.953C807.707 171.401 808.141 175.714 805.396 180.93C804.232 183.141 802.557 184.989 800.918 186.856C800.601 187.107 798.04 189.031 798.013 189.204C798.978 191.04 798.329 191.934 797.75 193.889L797.393 195C797.928 196.149 797.847 196.368 799.023 196.824C800.256 197.303 800.996 197.208 802.25 196.925C804.786 196.352 806.917 195.441 809.314 196.59L809.918 198.252C811.334 197.232 812.454 195.718 813.61 194.412C815.737 192.418 817.472 189.346 818.392 186.611C821.548 180.624 821.465 174.817 820.76 168.255C818.608 159.711 814.888 150.996 807.656 145.525ZM777.579 139.707C778.135 140.839 777.945 140.18 778.036 141.309C778.171 142.995 778.999 144.257 779.007 146L779.612 146.658C780.952 148.197 780.829 149.682 780.841 151.571L781.006 152.683C782.605 152.537 784.099 152.246 785.664 151.889C788.758 152.28 791.748 152.561 794.627 153.843L795.316 154.146C798.022 155.383 800.244 157.399 802.283 159.527L804.25 159.119C806.351 158.329 805.532 155.361 806.538 153.478C807.302 152.049 807.202 150.08 808.5 149.164L809.164 148.75L807.656 145.525C805.648 143.862 803.48 142.561 801.256 141.217C793.252 137.592 785.951 136.85 777.579 139.707Z"/>
	<path fill="#FCB400" transform="scale(0.5 0.5)" d="M868.844 167.555C870.443 165.965 872.6 164.444 875 164.377L875.75 164.5L876.25 163.755C877.595 164.194 877.742 163.131 879.25 163.5L880.25 162.755L881.75 163L882.75 162.255C884.088 162.692 884.352 161.879 885.5 161.877L886.5 162C888.398 161.099 889.657 161.752 891.5 161.377C892.66 161.142 893.17 160.833 894.461 160.923L895.25 161L895.5 160.25C894.574 160.25 894.012 160.157 893.125 159.875L893.875 158.875C892.805 158.233 891.539 157.752 890.25 158C889.463 158.151 887.977 158.278 887.25 158.5C885.82 158.937 884.308 159.485 882.875 159.875C882.004 160.112 881.645 159.908 880.727 160.367C878.952 161.255 876.866 162.028 875 162.75C873.913 163.171 873.024 163.306 872 164C871.074 164.628 871.749 164.496 870.75 164.5L870.934 163.965C883.333 156.655 901.377 155.163 915.504 156.822C920.883 157.454 928.734 157.714 933.427 160.375C931.773 160.421 929.858 159.917 928.25 159.5C927.393 159.278 926.568 159.212 925.75 159C924.371 158.643 923.02 158.835 921.75 158.5C920.679 158.217 920.393 158.09 919.247 158.125C919.125 158.893 919 159.598 919 160.377L922.25 160.255C923.21 160.45 923.668 160.96 924.734 160.855C925.573 160.773 925.74 160.999 926.5 161.377C927.58 161.201 928.382 161.382 929.422 161.696L930 161.877L930.75 162L932 162.377C932.938 162.557 933.375 162.744 934.25 163C936.029 163.521 936.375 163.672 937.702 165.116C916.116 158.585 889.98 159.492 868.844 167.555Z"/>
	<path fill="#F2014F" transform="scale(0.5 0.5)" d="M390.799 666.755C392.068 665.245 392.603 662.893 393.109 660.995C394.369 656.276 395.305 651.443 396.356 646.675C397.791 640.161 399.211 633.526 401.213 627.164C403.519 619.833 406.692 612.987 410.495 606.317C413.284 601.426 416.305 596.412 420.766 592.89C409.657 612.501 401.757 633.142 396.561 655.059C394.85 662.275 393.185 669.501 391.476 676.717C390.534 680.691 389.805 684.941 388.432 688.774C387.904 683.254 389.922 678.908 390.794 673.615C391.172 671.324 390.994 669.055 390.799 666.755Z"/>
	<path fill="#F20F1C" transform="scale(0.5 0.5)" d="M749.829 72.7551C753.209 69.028 761.096 68.849 766 67.755C767.385 67.4461 768.577 67.3241 770 67.255C771.205 66.4518 772.572 66.755 774 66.755C775.094 66.0258 775.812 66.193 777.094 66.3874L777.75 66.5L777.904 65.75C781.958 63.9928 786.222 65.8809 790.25 65C793.163 64.3629 795.823 64.5374 798.834 64.6179C816.422 65.5227 832.23 67.9004 848.939 73.8775C854.485 75.8613 859.566 79.0055 865.168 80.6316C864.271 81.2122 863.46 81.6944 862.745 82.5C863.22 83.2034 864.229 83.5102 865.013 83.8061C866.211 84.2583 864.704 83.6537 866 84.5C866.754 84.9926 867.924 85.55 868.75 86C870.171 86.7746 871.658 86.9332 872.705 88.2882L872.445 88.6605C864.554 84.7884 856.772 80.9732 848.481 77.9957C816.318 66.445 782.974 64.3528 749.829 72.7551Z"/>
	<path fill="#FEFEFE" fill-opacity="0.42352942" transform="scale(0.5 0.5)" d="M777.579 139.707C785.951 136.85 793.252 137.592 801.256 141.217C803.48 142.561 805.648 143.862 807.656 145.525L809.164 148.75L808.5 149.164C807.202 150.08 807.302 152.049 806.538 153.478C805.532 155.361 806.351 158.329 804.25 159.119L802.283 159.527C800.244 157.399 798.022 155.383 795.316 154.146L794.627 153.843C791.748 152.561 788.758 152.28 785.664 151.889C784.099 152.246 782.605 152.537 781.006 152.683L780.841 151.571C780.829 149.682 780.952 148.197 779.612 146.658L779.007 146C778.999 144.257 778.171 142.995 778.036 141.309C777.945 140.18 778.135 140.839 777.579 139.707ZM801.256 141.217C801.248 142.657 801.535 144.296 800.745 145.5L800.26 146.25C799.38 147.57 798.126 147.695 797.625 148.875L798.745 149.25C796.859 150.503 793.429 148.733 792.255 150.5C790.49 151.096 789.14 150.447 787.433 151.294L785.664 151.889C788.758 152.28 791.748 152.561 794.627 153.843L795.316 154.146C798.022 155.383 800.244 157.399 802.283 159.527L804.25 159.119C806.351 158.329 805.532 155.361 806.538 153.478C807.302 152.049 807.202 150.08 808.5 149.164L809.164 148.75L807.656 145.525C805.648 143.862 803.48 142.561 801.256 141.217Z"/>
	<path fill="#FEFEFE" fill-opacity="0.43529412" transform="scale(0.5 0.5)" d="M801.256 141.217C803.48 142.561 805.648 143.862 807.656 145.525L809.164 148.75L808.5 149.164C807.202 150.08 807.302 152.049 806.538 153.478C805.532 155.361 806.351 158.329 804.25 159.119L802.283 159.527C800.244 157.399 798.022 155.383 795.316 154.146L794.627 153.843C791.748 152.561 788.758 152.28 785.664 151.889L787.433 151.294C789.14 150.447 790.49 151.096 792.255 150.5C793.429 148.733 796.859 150.503 798.745 149.25L797.625 148.875C798.126 147.695 799.38 147.57 800.26 146.25L800.745 145.5C801.535 144.296 801.248 142.657 801.256 141.217Z"/>
	<defs>
		<linearGradient id="gradient_5" gradientUnits="userSpaceOnUse" x1="810.75" y1="156.25" x2="813.13898" y2="155.515">
			<stop offset="0" stop-color="#FEFEFE" stop-opacity="0.70588237"/>
			<stop offset="1" stop-color="#FEFEFE" stop-opacity="0.74117649"/>
		</linearGradient>
	</defs>
	<path fill="url(#gradient_5)" transform="scale(0.5 0.5)" d="M807.656 145.525C814.888 150.996 818.608 159.711 820.76 168.255C821.465 174.817 821.548 180.624 818.392 186.611C817.472 189.346 815.737 192.418 813.61 194.412C812.454 195.718 811.334 197.232 809.918 198.252L809.314 196.59C806.917 195.441 804.786 196.352 802.25 196.925C800.996 197.208 800.256 197.303 799.023 196.824C797.847 196.368 797.928 196.149 797.393 195L797.75 193.889C798.329 191.934 798.978 191.04 798.013 189.204C798.04 189.031 800.601 187.107 800.918 186.856C802.557 184.989 804.232 183.141 805.396 180.93C808.141 175.714 807.707 171.401 806.007 165.953L805.68 164.7L802.283 159.527L804.25 159.119C806.351 158.329 805.532 155.361 806.538 153.478C807.302 152.049 807.202 150.08 808.5 149.164L809.164 148.75L807.656 145.525ZM800.918 186.856C800.601 187.107 798.04 189.031 798.013 189.204C798.978 191.04 798.329 191.934 797.75 193.889L797.393 195C797.928 196.149 797.847 196.368 799.023 196.824C800.256 197.303 800.996 197.208 802.25 196.925C804.786 196.352 806.917 195.441 809.314 196.59L809.918 198.252C811.334 197.232 812.454 195.718 813.61 194.412L814.75 191.255C814.583 190.576 814.457 189.324 814.134 188.75C813.519 187.656 812.218 186.838 811.533 185.639L811.25 185.059L808.003 184.498C806.197 183.98 806.158 186.165 804.75 186.745C804.095 187.015 801.722 186.833 800.918 186.856ZM805.68 164.7L806.007 165.953C807.989 165.346 808.114 165.062 809.997 166.002L810.245 166.75C811.007 168.022 810.745 169.194 810.745 170.75L811.207 171.25C810.99 172.54 810.784 173.852 810.833 175.165C810.922 177.54 811.034 181.284 812.75 182.914C814.668 183.248 814.594 183.277 816.245 182.25C817.362 179.88 817.673 171.776 816.912 169.257C816.45 167.728 816.158 166.153 816.49 164.562C816.675 163.677 816.791 162.906 816.856 162L816.122 161.25C814.645 160.851 813.445 160.586 812.25 159.563C811.944 158.893 811.663 158.376 811.25 157.755L810.5 158L810.245 158.5L809.75 159C809.746 159.726 809.847 160.11 809.497 160.752L808.997 161.375L808.745 162L807.997 162.998L807.745 163.75L805.68 164.7ZM818.392 186.611C821.548 180.624 821.465 174.817 820.76 168.255C819.71 167.227 818.827 166.35 818.003 165.125C817.704 166.181 817.776 166.167 817.984 167.175C818.612 170.212 817.281 180.753 818.728 182.25L818.245 183C818.245 184.063 818.376 184.054 817.745 185L818.392 186.611Z"/>
	<path fill="#FEFEFE" fill-opacity="0.76862746" transform="scale(0.5 0.5)" d="M818.392 186.611L817.745 185C818.376 184.054 818.245 184.063 818.245 183L818.728 182.25C817.281 180.753 818.612 170.212 817.984 167.175C817.776 166.167 817.704 166.181 818.003 165.125C818.827 166.35 819.71 167.227 820.76 168.255C821.465 174.817 821.548 180.624 818.392 186.611Z"/>
	<defs>
		<linearGradient id="gradient_6" gradientUnits="userSpaceOnUse" x1="813.75" y1="174.75" x2="808.95001" y2="158.63699">
			<stop offset="0" stop-color="#FEFEFE" stop-opacity="0.4509804"/>
			<stop offset="1" stop-color="#FEFEFE" stop-opacity="0.70588237"/>
		</linearGradient>
	</defs>
	<path fill="url(#gradient_6)" transform="scale(0.5 0.5)" d="M805.68 164.7L807.745 163.75L807.997 162.998L808.745 162L808.997 161.375L809.497 160.752C809.847 160.11 809.746 159.726 809.75 159L810.245 158.5L810.5 158L811.25 157.755C811.663 158.376 811.944 158.893 812.25 159.563C813.445 160.586 814.645 160.851 816.122 161.25L816.856 162C816.791 162.906 816.675 163.677 816.49 164.562C816.158 166.153 816.45 167.728 816.912 169.257C817.673 171.776 817.362 179.88 816.245 182.25C814.594 183.277 814.668 183.248 812.75 182.914C811.034 181.284 810.922 177.54 810.833 175.165C810.784 173.852 810.99 172.54 811.207 171.25L810.745 170.75C810.745 169.194 811.007 168.022 810.245 166.75L809.997 166.002C808.114 165.062 807.989 165.346 806.007 165.953L805.68 164.7Z"/>
	<path fill="#FEFEFE" fill-opacity="0.41176471" transform="scale(0.5 0.5)" d="M800.918 186.856C801.722 186.833 804.095 187.015 804.75 186.745C806.158 186.165 806.197 183.98 808.003 184.498L811.25 185.059L811.533 185.639C812.218 186.838 813.519 187.656 814.134 188.75C814.457 189.324 814.583 190.576 814.75 191.255L813.61 194.412C812.454 195.718 811.334 197.232 809.918 198.252L809.314 196.59C806.917 195.441 804.786 196.352 802.25 196.925C800.996 197.208 800.256 197.303 799.023 196.824C797.847 196.368 797.928 196.149 797.393 195L797.75 193.889C798.329 191.934 798.978 191.04 798.013 189.204C798.04 189.031 800.601 187.107 800.918 186.856Z"/>
	<path fill="#FEFEFE" fill-opacity="0.098039217" transform="scale(0.5 0.5)" d="M777.579 139.707C778.135 140.839 777.945 140.18 778.036 141.309C778.171 142.995 778.999 144.257 779.007 146L779.612 146.658C780.952 148.197 780.829 149.682 780.841 151.571L781.006 152.683C777.643 153.964 774.651 155.467 772.099 158.097C771.07 159.157 770.326 160.48 769.294 161.524C767.838 160.408 764.545 163.253 762.5 163.016L760.904 161.019C760.192 159.662 760.653 158.312 761.033 156.934L761.25 156.174C761.56 155.032 761.836 153.964 762.588 153.013C763.813 151.466 766.469 150.524 768.372 150.254L769.5 150.106C771.281 149.642 771.685 148.669 772.617 147.215C773.495 145.845 774.954 144.23 775.373 142.68C775.633 141.718 775.516 141.569 775.039 140.676L777.579 139.707ZM765.07 153.25C763.118 154.627 762.225 156.443 761.745 158.75C762.122 159.873 761.971 160.069 763 160.756C764.322 160.572 765.555 160.242 766.835 159.883C768.072 159.397 769.235 158.909 770.395 158.25C770.535 156.467 770.43 155.284 769.022 154.008C768.392 153.436 767.287 153.202 766.505 152.96L765.07 153.25Z"/>
	<defs>
		<linearGradient id="gradient_7" gradientUnits="userSpaceOnUse" x1="763.25" y1="159.25" x2="768.99103" y2="157.578">
			<stop offset="0" stop-color="#FEFEFE" stop-opacity="0.14901961"/>
			<stop offset="1" stop-color="#FEFEFE" stop-opacity="0.24313726"/>
		</linearGradient>
	</defs>
	<path fill="url(#gradient_7)" transform="scale(0.5 0.5)" d="M765.07 153.25L766.505 152.96C767.287 153.202 768.392 153.436 769.022 154.008C770.43 155.284 770.535 156.467 770.395 158.25C769.235 158.909 768.072 159.397 766.835 159.883C765.555 160.242 764.322 160.572 763 160.756C761.971 160.069 762.122 159.873 761.745 158.75C762.225 156.443 763.118 154.627 765.07 153.25Z"/>
	<path fill="#111417" transform="scale(0.5 0.5)" d="M785.664 151.889C788.758 152.28 791.748 152.561 794.627 153.843L795.316 154.146C798.022 155.383 800.244 157.399 802.283 159.527L805.68 164.7L806.007 165.953C807.707 171.401 808.141 175.714 805.396 180.93C804.232 183.141 802.557 184.989 800.918 186.856C800.601 187.107 798.04 189.031 798.013 189.204L795.545 190.414C790.193 192.811 783.606 192.672 778.25 190.333C773.184 188.121 769.136 183.291 767.314 178.118C765.117 171.879 766.547 167.22 769.294 161.524C770.326 160.48 771.07 159.157 772.099 158.097C774.651 155.467 777.643 153.964 781.006 152.683C782.605 152.537 784.099 152.246 785.664 151.889Z"/>
	<path fill="#DF0E00" transform="scale(0.5 0.5)" d="M410.595 755.893C410.184 755.459 409.822 752.61 409.671 751.919C408.662 747.321 407.759 742.693 406.412 738.18C404.377 731.366 401.876 724.898 398.737 718.512C396.364 713.683 393.554 709.113 391.373 704.184C400.584 698.639 410.344 693.899 419.683 688.535C437.899 678.072 455.468 667.159 472.872 655.385C484.044 647.828 495.202 640.167 505.649 631.62C511.849 626.548 518.858 621.353 523.696 614.921L524.082 614.389C524.666 616.825 525.022 619.129 524.991 621.647L522.776 644.893C519.516 657.2 509.033 666.209 501.931 676.236L501.575 676.6C492.418 685.762 479.828 693.425 468.781 700.004C466.156 701.567 463.616 703.531 460.786 704.686C456.53 706.423 452.887 711.961 451.193 716.016C449.203 720.78 447.563 727.423 447.437 732.603C445.367 741.444 443.717 750.503 440.521 759.033C432.906 779.365 419.658 797.785 406.877 815.186C403.495 819.791 400.456 824.506 396.617 828.766C397.588 826.222 399.098 824.08 400.305 821.66C401.937 818.389 403.364 814.962 404.729 811.573C411.288 795.28 414.431 773.231 410.595 755.893Z"/>
	<defs>
		<linearGradient id="gradient_8" gradientUnits="userSpaceOnUse" x1="284.25" y1="616.25" x2="206.2" y2="348.01901">
			<stop offset="0" stop-color="#0AA4FD"/>
			<stop offset="1" stop-color="#2CC3FF"/>
		</linearGradient>
	</defs>
	<path fill="url(#gradient_8)" transform="scale(0.5 0.5)" d="M427.135 332.986C442.918 321.798 457.254 308.798 472.685 297.142C490.563 283.638 509.312 272.097 529.047 261.535C551.988 249.258 575.871 238.54 601.241 232.337C614.507 229.093 629.497 225.445 643.15 227.779C660.622 230.765 676.437 239.647 686.75 254.298C692.226 262.078 696.834 271.326 699.374 280.5C702.363 291.298 702.953 302.249 702.447 313.403C701.306 338.52 693.911 362.326 681.648 384.206C657.753 426.836 621.95 460.619 580.93 486.672C564.404 497.168 546.862 506.279 529.434 515.172C513.634 523.233 497.661 532.496 481.066 538.758C469.628 544.509 456.962 548.227 447.24 556.833L447.694 555.976C448.605 554.311 450.069 553.14 451.091 551.537C437.449 556.899 423.708 561.942 410.053 567.25C376.616 580.247 343.448 594.361 310.5 608.529C301.048 612.594 289.626 614.94 281.25 620.914L280.551 620.25C280.764 619.183 281 618.181 281.35 617.151L281.415 617.129C283.43 609.142 284.204 600.718 286.122 592.652C288.874 581.079 292.36 569.633 295.724 558.226C298.698 548.139 301.514 537.955 304.903 528C308.187 518.356 312.293 508.913 316.383 499.588C326.516 476.485 338.071 454.437 351.386 432.987C356.025 425.514 361.111 418.318 365.988 411C384.253 383.59 404.31 356.8 427.135 332.986ZM642.086 309.007C637.984 311.524 632.848 313.048 628.414 314.985C603.047 326.065 574.643 329.969 547.086 328.354C539.503 327.91 531.899 326.666 524.33 325.928C514.176 327.687 459.888 370.919 451.336 379.99L451.261 380.14C448.691 382.105 446.336 384.254 443.963 386.445C443.132 387.213 441.81 388.142 441.296 389.099C435.404 394.047 430.001 399.664 424.506 405.046C411.551 417.734 399.243 430.897 387.141 444.393L377.307 455.826C372.646 461.455 367.953 467.061 363.341 472.731C362.029 474.344 359.504 476.763 358.701 478.551C358.169 479.211 355.999 481.48 355.844 482.16L356.537 484.29L356.831 484.325L356.562 487.75C356.39 489.944 355.685 490.961 354.506 492.75C353.444 494.362 353.291 495.367 353.673 497.25L353.393 497.758C352.985 498.693 353.141 499.388 353.25 500.365C354.502 502.228 356.52 505.037 358.423 506.302L373.298 496.158L398.548 477.757C408.69 469.655 419.505 462.324 429.75 454.336C434.909 450.313 439.594 445.827 444.598 441.644C459.694 429.026 474.495 415.341 487.324 400.39C489.488 397.868 491.354 395.124 493.395 392.507C495.89 389.309 503.172 381.855 502.814 377.894C502.736 377.032 502.722 376.587 503.109 375.785C504.143 373.647 504.547 369.831 506.079 368.25C507.693 368.035 508.15 367.672 509.5 368.659C511.062 367.477 512.063 364.475 512.949 362.716C518.052 352.588 520.938 343.264 522.673 332.049L543.353 338.711C578.518 347.571 622.7 348.667 654.826 329.6C652.007 321.605 649.013 314.322 642.086 309.007ZM355.844 482.16C349.532 489.915 343.716 498.08 337.587 505.983C332.93 511.987 327.964 517.632 323.554 523.849C322 526.039 320.145 528.229 319.176 530.75L320.843 531.75C327.188 529.156 333.271 524.18 338.876 520.211C345.39 515.598 352.081 511.144 358.423 506.302C356.52 505.037 354.502 502.228 353.25 500.365C353.141 499.388 352.985 498.693 353.393 497.758L353.673 497.25C353.291 495.367 353.444 494.362 354.506 492.75C355.685 490.961 356.39 489.944 356.562 487.75L356.831 484.325L356.537 484.29L355.844 482.16Z"/>
	<path fill="#111417" transform="scale(0.5 0.5)" d="M281.415 617.129L281.587 617.234L282.25 617.951C325.719 600.294 369.279 582.8 412.475 564.461C420.91 560.879 429.457 557.501 437.982 554.141C443.049 552.144 448.533 550.355 453.258 547.657C454.134 547.156 454.734 546.808 455.75 546.633L456.027 547.25L457 547.355C460.494 545.071 464.478 544.666 468.339 543.309C472.567 541.824 476.635 539.539 481.066 538.758C469.628 544.509 456.962 548.227 447.24 556.833L447.694 555.976C448.605 554.311 450.069 553.14 451.091 551.537C437.449 556.899 423.708 561.942 410.053 567.25C376.616 580.247 343.448 594.361 310.5 608.529C301.048 612.594 289.626 614.94 281.25 620.914L280.551 620.25C280.764 619.183 281 618.181 281.35 617.151L281.415 617.129Z"/>
	<path fill="#FE2596" transform="scale(0.5 0.5)" d="M524.33 325.928C543.823 314.076 565.928 301.727 588.802 298.426C606.246 295.909 627.521 298.218 642.086 309.007C637.984 311.524 632.848 313.048 628.414 314.985C603.047 326.065 574.643 329.969 547.086 328.354C539.503 327.91 531.899 326.666 524.33 325.928Z"/>
	<defs>
		<linearGradient id="gradient_9" gradientUnits="userSpaceOnUse" x1="523.75" y1="326.75" x2="552.88599" y2="446.94901">
			<stop offset="0" stop-color="#FEFEFE" stop-opacity="0"/>
			<stop offset="1" stop-color="#FEFEFD" stop-opacity="0.3137255"/>
		</linearGradient>
	</defs>
	<path fill="url(#gradient_9)" transform="scale(0.5 0.5)" d="M642.086 309.007C649.013 314.322 652.007 321.605 654.826 329.6C622.7 348.667 578.518 347.571 543.353 338.711L522.673 332.049C520.938 343.264 518.052 352.588 512.949 362.716C512.063 364.475 511.062 367.477 509.5 368.659C508.15 367.672 507.693 368.035 506.079 368.25C504.547 369.831 504.143 373.647 503.109 375.785C502.722 376.587 502.736 377.032 502.814 377.894C503.172 381.855 495.89 389.309 493.395 392.507C491.354 395.124 489.488 397.868 487.324 400.39C474.495 415.341 459.694 429.026 444.598 441.644C439.594 445.827 434.909 450.313 429.75 454.336C419.505 462.324 408.69 469.655 398.548 477.757L373.298 496.158L358.423 506.302C356.52 505.037 354.502 502.228 353.25 500.365C353.141 499.388 352.985 498.693 353.393 497.758L353.673 497.25C353.291 495.367 353.444 494.362 354.506 492.75C355.685 490.961 356.39 489.944 356.562 487.75L356.831 484.325L356.537 484.29L355.844 482.16C355.999 481.48 358.169 479.211 358.701 478.551C359.504 476.763 362.029 474.344 363.341 472.731C367.953 467.061 372.646 461.455 377.307 455.826L387.141 444.393C399.243 430.897 411.551 417.734 424.506 405.046C430.001 399.664 435.404 394.047 441.296 389.099C441.81 388.142 443.132 387.213 443.963 386.445C446.336 384.254 448.691 382.105 451.261 380.14L451.336 379.99C459.888 370.919 514.176 327.687 524.33 325.928C531.899 326.666 539.503 327.91 547.086 328.354C574.643 329.969 603.047 326.065 628.414 314.985C632.848 313.048 637.984 311.524 642.086 309.007ZM365.073 488.979L365.892 489.305L367.252 489.08C366.908 490.352 367.198 489.643 366.627 490.593C365.79 491.987 365.874 493.899 365.75 495.495L366 495.803L373.298 496.158L398.548 477.757C397.227 477.602 396.31 477.495 395.009 477.854C393.467 478.28 391.123 478.299 389.608 477.749C388.196 477.237 385.393 475 384.125 475.502L383.75 476.755L383.189 476.832C382.29 477.01 382.219 477.306 381.5 477.755L380.002 478.502C378.829 479.096 378.15 479.813 377.255 480.75L377.125 482.252L376.875 479.502C375.68 479.502 376.089 480.833 375 479.755C373.881 479.755 374.008 479.665 373 480.255L371.502 481.002L371.173 481.597C370.523 482.679 369.438 483.021 368.5 483.824C366.822 485.261 365.991 487.034 365.073 488.979ZM358.701 478.551L358.874 478.844L359.201 479.75C360.11 480.404 361.402 481.753 362.516 481.625L363.5 481.487C367.056 481.005 367.91 478.286 370.805 477.494L371.497 477.329C372.05 476.631 372.487 476.029 372.887 475.228C373.352 474.295 373.078 474.718 373.653 473.952L373.998 473.498C374.562 472.352 373.863 473.1 374.68 472.284C375.534 471.43 376.57 470.678 376.998 469.498C377.319 468.61 377.353 468.281 377.998 467.498L378.998 467.498C379.612 466.578 379.311 466.875 380.151 466.2L380.739 465.75C381.259 463.859 381.925 462.258 382.847 460.525L383.155 459.956L381.502 461.002C380.259 461.532 379.687 462.278 378.755 463.25L377.002 463.252L376.755 462.75L376.5 462L375.25 463L375.156 463.453C374.893 464.505 374.427 464.85 373.559 465.375L373.537 464.5C373.833 462.927 374.778 462.407 376 461.624C377.267 460.812 377.965 460.079 378.328 458.556C378.604 457.394 377.895 456.795 377.307 455.826C372.646 461.455 367.953 467.061 363.341 472.731C362.029 474.344 359.504 476.763 358.701 478.551ZM356.831 484.325L356.562 487.75C356.39 489.944 355.685 490.961 354.506 492.75C353.444 494.362 353.291 495.367 353.673 497.25L353.393 497.758C352.985 498.693 353.141 499.388 353.25 500.365C354.502 502.228 356.52 505.037 358.423 506.302L373.298 496.158L366 495.803L365.75 495.495C365.874 493.899 365.79 491.987 366.627 490.593C367.198 489.643 366.908 490.352 367.252 489.08L365.892 489.305L365.073 488.979C364.57 490.803 364.126 492.969 363 494.513C362.304 494.499 362.151 494.669 361.748 493.998C360.357 491.679 362.73 494.782 360.998 492.625C360.335 493.125 360.608 492.884 359.969 493.523L359.5 494L358.75 493.5L357.875 494.375C357.729 492.83 357.872 492.81 358.745 491.5L358.25 491L358.745 490.25C358.778 489.273 358.88 488.478 358.51 487.555L358.245 487C357.832 485.849 357.522 485.353 356.831 484.325ZM387.141 444.393L377.307 455.826C377.895 456.795 378.604 457.394 378.328 458.556C377.965 460.079 377.267 460.812 376 461.624C374.778 462.407 373.833 462.927 373.537 464.5L373.559 465.375C374.427 464.85 374.893 464.505 375.156 463.453L375.25 463L376.5 462L376.755 462.75L377.002 463.252L378.755 463.25C379.687 462.278 380.259 461.532 381.502 461.002L383.155 459.956C385.184 456.392 390.697 451.44 390.25 447.255L389.5 448.5L388.125 450.625C386.416 451.358 385.07 453.069 383.748 454.375C383.909 453.79 384.094 453.249 383.997 452.625L383.745 451.75L384.745 450.75L384.245 450.25C384.741 449.705 385.22 448.828 386 448.75L386.745 448.75L386.625 447.125C387.146 446.615 387.633 446.204 387.997 445.567L387.25 445.646L387.141 444.393ZM451.261 380.14C448.691 382.105 446.336 384.254 443.963 386.445C443.132 387.213 441.81 388.142 441.296 389.099C441.111 391.061 438.751 391.732 438.722 393.248C438.701 394.335 438.983 395.225 439.75 396C439.96 395.191 440.168 394.524 440.5 393.75L441.25 393.5C441.697 392.458 442.046 392.124 443 391.5C444.752 390.355 446.057 388.771 447.5 387.25L448.25 387.245C448.611 386.169 449.332 385.718 450.031 384.844L450.5 384.25L451.375 383.997C452.147 383.131 452.898 382.069 453.971 381.591C454.768 381.236 454.383 381.548 455.131 380.719C455.928 379.836 456.219 380.04 457.375 379.875L457.125 379.252C458.273 377.959 458.251 378.117 460 378L461.375 376.875L462.25 376.5L462.5 375.75L463.875 375.375L463.25 374.978C460.192 375.639 458.734 376.919 456.039 378.083C454.482 378.755 453.714 379.159 452.37 380.273L451.843 380.715L451.261 380.14Z"/>
	<path fill="#FEFEFE" fill-opacity="0.086274512" transform="scale(0.5 0.5)" d="M451.261 380.14L451.843 380.715L452.37 380.273C453.714 379.159 454.482 378.755 456.039 378.083C458.734 376.919 460.192 375.639 463.25 374.978L463.875 375.375L462.5 375.75L462.25 376.5L461.375 376.875L460 378C458.251 378.117 458.273 377.959 457.125 379.252L457.375 379.875C456.219 380.04 455.928 379.836 455.131 380.719C454.383 381.548 454.768 381.236 453.971 381.591C452.898 382.069 452.147 383.131 451.375 383.997L450.5 384.25L450.031 384.844C449.332 385.718 448.611 386.169 448.25 387.245L447.5 387.25C446.057 388.771 444.752 390.355 443 391.5C442.046 392.124 441.697 392.458 441.25 393.5L440.5 393.75C440.168 394.524 439.96 395.191 439.75 396C438.983 395.225 438.701 394.335 438.722 393.248C438.751 391.732 441.111 391.061 441.296 389.099C441.81 388.142 443.132 387.213 443.963 386.445C446.336 384.254 448.691 382.105 451.261 380.14Z"/>
	<path fill="#FEFEFE" fill-opacity="0.52156866" transform="scale(0.5 0.5)" d="M387.141 444.393L387.25 445.646L387.997 445.567C387.633 446.204 387.146 446.615 386.625 447.125L386.745 448.75L386 448.75C385.22 448.828 384.741 449.705 384.245 450.25L384.745 450.75L383.745 451.75L383.997 452.625C384.094 453.249 383.909 453.79 383.748 454.375C385.07 453.069 386.416 451.358 388.125 450.625L389.5 448.5L390.25 447.255C390.697 451.44 385.184 456.392 383.155 459.956L381.502 461.002C380.259 461.532 379.687 462.278 378.755 463.25L377.002 463.252L376.755 462.75L376.5 462L375.25 463L375.156 463.453C374.893 464.505 374.427 464.85 373.559 465.375L373.537 464.5C373.833 462.927 374.778 462.407 376 461.624C377.267 460.812 377.965 460.079 378.328 458.556C378.604 457.394 377.895 456.795 377.307 455.826L387.141 444.393Z"/>
	<defs>
		<linearGradient id="gradient_10" gradientUnits="userSpaceOnUse" x1="359.75" y1="496.75" x2="365.009" y2="495.62299">
			<stop offset="0" stop-color="#FEFEFE" stop-opacity="0.28235295"/>
			<stop offset="1" stop-color="#FEFEFE" stop-opacity="0.35294119"/>
		</linearGradient>
	</defs>
	<path fill="url(#gradient_10)" transform="scale(0.5 0.5)" d="M356.831 484.325C357.522 485.353 357.832 485.849 358.245 487L358.51 487.555C358.88 488.478 358.778 489.273 358.745 490.25L358.25 491L358.745 491.5C357.872 492.81 357.729 492.83 357.875 494.375L358.75 493.5L359.5 494L359.969 493.523C360.608 492.884 360.335 493.125 360.998 492.625C362.73 494.782 360.357 491.679 361.748 493.998C362.151 494.669 362.304 494.499 363 494.513C364.126 492.969 364.57 490.803 365.073 488.979L365.892 489.305L367.252 489.08C366.908 490.352 367.198 489.643 366.627 490.593C365.79 491.987 365.874 493.899 365.75 495.495L366 495.803L373.298 496.158L358.423 506.302C356.52 505.037 354.502 502.228 353.25 500.365C353.141 499.388 352.985 498.693 353.393 497.758L353.673 497.25C353.291 495.367 353.444 494.362 354.506 492.75C355.685 490.961 356.39 489.944 356.562 487.75L356.831 484.325Z"/>
	<defs>
		<linearGradient id="gradient_11" gradientUnits="userSpaceOnUse" x1="364.25" y1="478.25" x2="359.995" y2="472.41299">
			<stop offset="0" stop-color="#FEFEFE" stop-opacity="0.47450981"/>
			<stop offset="1" stop-color="#FEFEFE" stop-opacity="0.55686277"/>
		</linearGradient>
	</defs>
	<path fill="url(#gradient_11)" transform="scale(0.5 0.5)" d="M358.701 478.551C359.504 476.763 362.029 474.344 363.341 472.731C367.953 467.061 372.646 461.455 377.307 455.826C377.895 456.795 378.604 457.394 378.328 458.556C377.965 460.079 377.267 460.812 376 461.624C374.778 462.407 373.833 462.927 373.537 464.5L373.559 465.375C374.427 464.85 374.893 464.505 375.156 463.453L375.25 463L376.5 462L376.755 462.75L377.002 463.252L378.755 463.25C379.687 462.278 380.259 461.532 381.502 461.002L383.155 459.956L382.847 460.525C381.925 462.258 381.259 463.859 380.739 465.75L380.151 466.2C379.311 466.875 379.612 466.578 378.998 467.498L377.998 467.498C377.353 468.281 377.319 468.61 376.998 469.498C376.57 470.678 375.534 471.43 374.68 472.284C373.863 473.1 374.562 472.352 373.998 473.498L373.653 473.952C373.078 474.718 373.352 474.295 372.887 475.228C372.487 476.029 372.05 476.631 371.497 477.329L370.805 477.494C367.91 478.286 367.056 481.005 363.5 481.487L362.516 481.625C361.402 481.753 360.11 480.404 359.201 479.75L358.874 478.844L358.701 478.551Z"/>
	<defs>
		<linearGradient id="gradient_12" gradientUnits="userSpaceOnUse" x1="375.75" y1="484.25" x2="377.776" y2="485.85001">
			<stop offset="0" stop-color="#FEFEFE" stop-opacity="0.47450981"/>
			<stop offset="1" stop-color="#FEFEFE" stop-opacity="0.52941179"/>
		</linearGradient>
	</defs>
	<path fill="url(#gradient_12)" transform="scale(0.5 0.5)" d="M365.073 488.979C365.991 487.034 366.822 485.261 368.5 483.824C369.438 483.021 370.523 482.679 371.173 481.597L371.502 481.002L373 480.255C374.008 479.665 373.881 479.755 375 479.755C376.089 480.833 375.68 479.502 376.875 479.502L377.125 482.252L377.255 480.75C378.15 479.813 378.829 479.096 380.002 478.502L381.5 477.755C382.219 477.306 382.29 477.01 383.189 476.832L383.75 476.755L384.125 475.502C385.393 475 388.196 477.237 389.608 477.749C391.123 478.299 393.467 478.28 395.009 477.854C396.31 477.495 397.227 477.602 398.548 477.757L373.298 496.158L366 495.803L365.75 495.495C365.874 493.899 365.79 491.987 366.627 490.593C367.198 489.643 366.908 490.352 367.252 489.08L365.892 489.305L365.073 488.979Z"/>
</svg>
