<?xml version="1.0" encoding="utf-8" ?>
<svg xmlns="http://www.w3.org/2000/svg" xmlns:xlink="http://www.w3.org/1999/xlink" width="512" height="512">
	<path fill="#1F41BA" transform="scale(0.5 0.5)" d="M195.859 787.01L206.446 788.251C203.855 794.49 201.528 800.964 198.358 806.931C188.761 824.991 176.195 841.883 164.126 858.349C155.164 870.576 146.344 882.878 137.184 894.961C129.722 904.804 122.428 914.759 115.518 925C112.183 929.942 108.534 934.889 105.753 940.165C101.103 946.451 96.8235 953.001 92.0414 959.184C85.9599 967.047 79.1358 974.445 72.3425 981.698C60.5666 994.271 48.4271 1005.99 33.7044 1015.08L95.9224 912.75C95.4372 911.895 95.209 911.753 94.4188 911.223C95.1231 910.314 94.9125 910.771 95.1931 909.784C96.1401 906.452 97.6158 903.499 99.5886 900.663C103.475 895.076 108.288 889.897 112.597 884.621C120.061 875.482 127.365 866.24 134.625 856.938C149.564 837.798 163.715 817.802 179.779 799.585C182.539 796.454 185.073 793.028 187.974 790.043C190.728 787.208 192.044 787.033 195.859 787.01Z"/>
	<path fill="#1F41BA" transform="scale(0.5 0.5)" d="M320.602 762.866C322.658 761.371 324.528 759.9 327 759.153L328.5 759.383C329.736 759.406 330.281 759.203 331.517 759.634C332.655 762.618 330.685 767.805 329.875 770.982C325.881 786.643 320.565 801.777 313.945 816.514C302.458 842.082 290.305 867.408 277.439 892.307C272.78 901.324 268.01 910.279 263.256 919.246C260.187 925.033 256.686 931.047 254.439 937.194C251.273 943.729 247.161 949.99 243.297 956.131C236.399 967.096 229.498 977.703 220.318 986.927C218.165 989.09 215.809 991.816 212.917 992.947C211.619 993.455 209.537 993.877 208.25 993.262C208.851 990.275 210.827 986.923 210.75 983.824C210.635 979.22 212.77 974.471 214.175 970.083C220.51 950.295 228.868 931.139 237.241 912.144C241.34 895.888 247.028 880.102 251.637 864C256.732 846.201 260.322 827.692 262.993 809.389C265.575 802.128 267.294 793.973 270.592 787.067C272.105 783.898 276.089 780.941 276.92 777.848C284.941 774.399 293.299 771.5 301.5 768.5C304.932 767.244 310.271 764.731 313.897 765.048L314.75 765.149L315.017 763.75L315.634 763.384C317.599 762.326 318.528 762.287 320.602 762.866Z"/>
	<path fill="#EC3C13" transform="scale(0.5 0.5)" d="M276.92 777.848C284.941 774.399 293.299 771.5 301.5 768.5C304.932 767.244 310.271 764.731 313.897 765.048L314.75 765.149L315.017 763.75L315.634 763.384C317.599 762.326 318.528 762.287 320.602 762.866L320.16 763.244C316.625 766.235 313.217 767.753 310.409 771.715C305.27 778.965 301.456 787.698 297.744 795.763C294.344 803.151 290.698 810.474 287.102 817.77C276.113 840.072 264.272 861.915 252.877 883.998C249.555 890.436 246.42 897.033 242.889 903.355C241.244 906.299 239.559 909.692 237.241 912.144C241.34 895.888 247.028 880.102 251.637 864C256.732 846.201 260.322 827.692 262.993 809.389C265.575 802.128 267.294 793.973 270.592 787.067C272.105 783.898 276.089 780.941 276.92 777.848Z"/>
	<path fill="#1F41BA" transform="scale(0.5 0.5)" d="M276.92 777.848C276.089 780.941 272.105 783.898 270.592 787.067C267.294 793.973 265.575 802.128 262.993 809.389C245.253 837.085 225.88 863.602 206.602 890.248C191.018 911.788 175.65 933.471 160.497 955.316C149.107 971.735 137.673 988.252 127.279 1005.32C124.053 1010.62 121.453 1016.24 118.349 1021.6L111.146 977.152L105.753 940.165C108.534 934.889 112.183 929.942 115.518 925C122.428 914.759 129.722 904.804 137.184 894.961C146.344 882.878 155.164 870.576 164.126 858.349C176.195 841.883 188.761 824.991 198.358 806.931C201.528 800.964 203.855 794.49 206.446 788.251L195.859 787.01C198.193 785.461 199.381 785.803 202.101 785.883C211.93 786.203 222.359 786.536 232.157 785.825C238.306 785.379 244.388 784.306 250.535 783.789L276.92 777.848Z"/>
	<path fill="#EC3C13" transform="scale(0.5 0.5)" d="M202.101 785.883C211.93 786.203 222.359 786.536 232.157 785.825C238.306 785.379 244.388 784.306 250.535 783.789C248.77 787.683 246.065 791.135 243.677 794.666C235.985 806.035 227.462 816.833 219.477 828C202.299 852.022 185.397 876.396 167.776 900.085C162.094 907.722 156.167 915.174 150.499 922.825C144.841 930.464 139.456 938.31 133.704 945.878C128.008 953.371 121.633 960.589 116.3 968.32C114.351 971.146 113.051 974.322 111.146 977.152L105.753 940.165C108.534 934.889 112.183 929.942 115.518 925C122.428 914.759 129.722 904.804 137.184 894.961C146.344 882.878 155.164 870.576 164.126 858.349C176.195 841.883 188.761 824.991 198.358 806.931C201.528 800.964 203.855 794.49 206.446 788.251L195.859 787.01C198.193 785.461 199.381 785.803 202.101 785.883Z"/>
	<path fill="#1F41BA" transform="scale(0.5 0.5)" d="M163.281 729.251L163.44 729.179C164.464 729.103 165.027 728.94 166.002 728.59C171.447 732.676 178.547 737.784 182.483 743.315C180.541 747.996 177.341 752.207 174.657 756.492C170.924 762.451 167.403 768.522 163.513 774.384C175.327 779.83 189.276 783.939 202.101 785.883C199.381 785.803 198.193 785.461 195.859 787.01C192.044 787.033 190.728 787.208 187.974 790.043C185.073 793.028 182.539 796.454 179.779 799.585C163.715 817.802 149.564 837.798 134.625 856.938C127.365 866.24 120.061 875.482 112.597 884.621C108.288 889.897 103.475 895.076 99.5886 900.663C97.6158 903.499 96.1401 906.452 95.1931 909.784C94.9125 910.771 95.1231 910.314 94.4188 911.223C76.4849 923.698 58.1371 935.412 39.4209 946.697C33.0759 950.523 26.1377 955.622 19.0927 957.893C13.05 961.07 7.17731 965.095 0.687397 967.137L0 967.43L-0 939.932C5.05454 934.81 9.08039 928.827 13.4862 923.158C21.8976 912.335 30.2218 901.437 38.6482 890.629C77.4639 840.839 117.111 791.765 154.428 740.818C156.16 738.453 157.955 736.19 159.87 733.97C161.131 732.508 162.707 731.128 163.281 729.251Z"/>
	<path fill="#FA5704" transform="scale(0.5 0.5)" d="M163.513 774.384C175.327 779.83 189.276 783.939 202.101 785.883C199.381 785.803 198.193 785.461 195.859 787.01C192.044 787.033 190.728 787.208 187.974 790.043C185.073 793.028 182.539 796.454 179.779 799.585C163.715 817.802 149.564 837.798 134.625 856.938C127.365 866.24 120.061 875.482 112.597 884.621C108.288 889.897 103.475 895.076 99.5886 900.663C97.6158 903.499 96.1401 906.452 95.1931 909.784C94.9125 910.771 95.1231 910.314 94.4188 911.223C76.4849 923.698 58.1371 935.412 39.4209 946.697C33.0759 950.523 26.1377 955.622 19.0927 957.893C19.6763 957.192 19.4788 957.355 20.0267 956.897C30.5105 948.128 38.1515 937.886 46.25 927.04C53.3807 917.489 60.5168 907.932 67.7888 898.489C89.1538 870.746 111.035 843.408 132.441 815.694C142.971 802.061 152.686 787.785 163.513 774.384Z"/>
	<path fill="#FED542" transform="scale(0.5 0.5)" d="M298.346 681.35C302.573 684.607 307.317 687.071 311.922 689.754C326.316 698.137 339.963 704.717 355.985 709.372C362.766 711.341 369.543 713.232 376.302 715.285C378.997 716.103 381.71 716.641 384.312 717.75C384.12 718.796 383.823 719.531 383.405 720.5L383.75 721.613C385.411 722.381 385.448 721.447 387 721.395C388.277 721.353 389.999 722.297 391.007 723.025C389.568 724.638 388.373 725.866 386.5 726.964C384.165 726.679 383.077 727.701 381.25 729.083L373.669 735.177C363.798 741.546 353.126 746.127 342.976 751.977C339.039 754.246 335.783 756.837 332.104 759.386L331.517 759.634C330.281 759.203 329.736 759.406 328.5 759.383L327 759.153C324.528 759.9 322.658 761.371 320.602 762.866C318.528 762.287 317.599 762.326 315.634 763.384L315.017 763.75L314.75 765.149L313.897 765.048C310.271 764.731 304.932 767.244 301.5 768.5C293.299 771.5 284.941 774.399 276.92 777.848L250.535 783.789C244.388 784.306 238.306 785.379 232.157 785.825C222.359 786.536 211.93 786.203 202.101 785.883C189.276 783.939 175.327 779.83 163.513 774.384C167.403 768.522 170.924 762.451 174.657 756.492C177.341 752.207 180.541 747.996 182.483 743.315C178.547 737.784 171.447 732.676 166.002 728.59L298.346 681.35Z"/>
	<path fill="#EC3C13" transform="scale(0.5 0.5)" d="M373.669 735.177C373.616 736.777 373.953 737.308 374.768 738.611L375.517 739.031C377.126 738.685 381.065 737.325 382.456 737.506C383.172 737.599 384.834 738.712 385.462 739.115C388.707 741.197 390.702 744.439 392.458 747.75L392.794 748.344C395.053 752.658 387.766 777.15 385.637 782.516L385.446 782.879C383.902 788.285 382.066 793.607 380.31 798.948C379.579 801.173 378.818 804.536 377.507 806.436L356.059 857.341L278.527 1023.35L269.544 990.165C264.813 979.712 262.478 968.732 259.793 957.66C258.131 950.805 256.098 944.051 254.439 937.194C256.686 931.047 260.187 925.033 263.256 919.246C268.01 910.279 272.78 901.324 277.439 892.307C290.305 867.408 302.458 842.082 313.945 816.514C320.565 801.777 325.881 786.643 329.875 770.982C330.685 767.805 332.655 762.618 331.517 759.634L332.104 759.386C335.783 756.837 339.039 754.246 342.976 751.977C353.126 746.127 363.798 741.546 373.669 735.177Z"/>
	<path fill="#1F41BA" transform="scale(0.5 0.5)" d="M375.517 739.031C377.126 738.685 381.065 737.325 382.456 737.506C383.172 737.599 384.834 738.712 385.462 739.115C388.707 741.197 390.702 744.439 392.458 747.75L392.794 748.344C395.053 752.658 387.766 777.15 385.637 782.516L385.446 782.879C383.902 788.285 382.066 793.607 380.31 798.948C379.579 801.173 378.818 804.536 377.507 806.436L356.059 857.341L278.527 1023.35L269.544 990.165C270.013 987.189 269.7 984.191 270.543 981.25C272.258 975.269 276.471 968.782 279.214 963.113C284.945 951.269 290.518 939.301 295.949 927.316C305.474 906.3 314.646 885.115 324.164 864.099C332.161 846.442 340.495 828.928 348.179 811.131C353.294 799.284 358.287 787.218 362.622 775.062C365.699 766.436 368.625 757.756 371.688 749.125C372.842 745.874 373.638 741.894 375.517 739.031Z"/>
	<defs>
		<linearGradient id="gradient_0" gradientUnits="userSpaceOnUse" x1="838.25" y1="319.25" x2="1034.29" y2="644.617">
			<stop offset="0" stop-color="#E1165A"/>
			<stop offset="1" stop-color="#CF0F79"/>
		</linearGradient>
	</defs>
	<path fill="url(#gradient_0)" transform="scale(0.5 0.5)" d="M798.887 357.976C798.969 356.272 798.571 354.927 797.622 353.5L797.25 353L797.5 352.245C798.287 351.563 798.748 351.081 799.75 350.745L800.25 351.245C800.878 350.512 801.585 350.077 802.5 349.745C803.57 349.357 804.089 349.164 804.911 348.341L805.245 348C805.973 347.482 806.015 347.075 806.622 346.5L807.375 345.998C808.091 345.345 808.437 344.725 809.497 344.498C812.314 343.893 808.14 345.209 810.992 344.258L811.75 344L812.625 343.875L813.122 343.5L813.625 343.375L814.497 342.998C815.623 342.622 816.453 341.857 817.497 341.498L818.125 341.375C819.36 340.13 821.14 339.504 822.616 338.543C823.306 338.094 823.534 337.987 824.375 337.748L824.75 338.745L826.25 338.745L827.497 337.375C828.516 335.678 826.803 337.562 828.373 335.992C829.052 335.313 828.97 335.574 829.245 334.75C829.535 333.881 829.757 333.285 830.245 332.5L831.497 330.498C832.24 328.665 833.223 326.988 833.98 325.164L834.997 322.998C835.468 321.861 834.916 322.563 835.855 321.624L836.497 320.998C837.244 320.098 837.476 319.737 838.5 319.123L839.25 319.745L840 319L840.625 319.498L841 319.25L842 319.623L842.745 319.25C843.516 320.006 843.939 321.089 844.5 322L847.657 327.369L848.512 326.989C857.52 342.48 864.764 360.203 870.985 377C880.962 403.942 888.81 431.511 893.119 459.948C893.823 464.595 893.786 469.381 894.186 474.064C894.485 477.564 895.389 480.968 895.616 484.489C896.173 493.118 895.955 501.89 895.851 510.536C895.751 518.925 895.762 527.436 895.138 535.802C894.725 541.351 893.718 546.739 893.116 552.25C891.299 568.873 888.861 586.031 884.568 602.239C871.681 650.893 850.772 699.383 821.36 740.38C791.642 781.804 752.429 816.636 708.312 842.078C686.412 854.707 662.73 865.174 638.895 873.525C625.971 878.052 612.994 882.225 599.606 885.185C583.403 888.768 567.003 890.822 550.54 892.584C546.405 893.027 542.364 894.024 538.203 894.298C528.787 894.92 519.11 894.658 509.671 894.586C499.581 894.508 489.175 894.61 479.153 893.465C472.695 892.727 466.172 891.505 459.75 890.48C443.841 887.941 428.232 885.383 412.633 881.144C392.272 875.611 374.253 868.061 356.059 857.341L377.507 806.436C383.649 809.278 390.431 811.3 396.856 813.439C423.641 822.36 451.408 828.276 479.5 831.195C498.269 833.145 517.672 832.961 536.483 831.548C602.431 826.594 668.528 802.873 720.093 760.861C764.795 724.439 797.917 676.698 815.75 621.822C824.227 595.735 829.153 568.825 831.932 541.583C836.155 491.161 833.055 440.448 814.833 392.828C810.262 380.881 804.361 369.52 798.887 357.976Z"/>
	<path fill="#E4301A" transform="scale(0.5 0.5)" d="M152.499 643.855L152.278 643.434C149.698 638.411 148.521 632.809 147.005 627.404C144.897 619.884 142.707 612.41 140.822 604.828C135.622 583.911 131.429 562.239 129.581 540.746C128.81 531.775 128.887 522.728 128.846 513.73C128.801 504.112 128.598 494.316 129.288 484.723C131.393 455.478 137.551 425.424 146.466 397.5C161.96 348.968 186.149 303.137 219.02 264.101C226.305 255.449 234.34 247.373 242.363 239.406C249.719 232.101 257.16 224.847 265.123 218.2C286.579 200.29 310.582 184.908 335.377 172.073C377.072 150.49 422.14 137.14 468.641 131.339C489.322 128.759 509.647 127.394 530.5 128.493C543.25 129.164 556.338 131.753 569 133.404C576.873 134.43 584.875 135.34 592.672 136.914C605.7 139.543 618.847 143.444 631.5 147.505C714.784 174.229 790.4 233.085 836.524 307.366C840.54 313.833 845.04 320.224 848.512 326.989L847.657 327.369L844.5 322C843.939 321.089 843.516 320.006 842.745 319.25L842 319.623L841 319.25L840.625 319.498L840 319L839.25 319.745L838.5 319.123C837.476 319.737 837.244 320.098 836.497 320.998L835.855 321.624C834.916 322.563 835.468 321.861 834.997 322.998L833.98 325.164C833.223 326.988 832.24 328.665 831.497 330.498L830.245 332.5C829.757 333.285 829.535 333.881 829.245 334.75C828.97 335.574 829.052 335.313 828.373 335.992C826.803 337.562 828.516 335.678 827.497 337.375L826.25 338.745L824.75 338.745L824.375 337.748C823.534 337.987 823.306 338.094 822.616 338.543C821.14 339.504 819.36 340.13 818.125 341.375L817.497 341.498C816.453 341.857 815.623 342.622 814.497 342.998L813.625 343.375L813.122 343.5L812.625 343.875L811.75 344L810.992 344.258C808.14 345.209 812.314 343.893 809.497 344.498C808.437 344.725 808.091 345.345 807.375 345.998L806.622 346.5C806.015 347.075 805.973 347.482 805.245 348L804.911 348.341C804.089 349.164 803.57 349.357 802.5 349.745C801.585 350.077 800.878 350.512 800.25 351.245L799.75 350.745C798.748 351.081 798.287 351.563 797.5 352.245L797.25 353L797.622 353.5C798.571 354.927 798.969 356.272 798.887 357.976C792.794 346.374 786.662 334.874 779.25 324.046C772.747 314.547 765.293 305.692 757.69 297.064C718.846 252.979 669.549 221.809 613.495 204.386C590.837 197.344 567.777 193.866 544.198 191.978C478.989 186.758 413.203 196.176 354.897 226.972C303.979 253.866 259.958 295.274 231.782 345.712C219.792 367.176 210.745 390.25 203.559 413.724C192.222 450.756 189.849 491.688 192.348 530.174C193.715 551.24 196.688 572.036 199.661 592.918C199.602 593.48 199.639 594.507 199.442 595C198.854 596.473 196.098 598.648 194.952 599.763C190.139 604.448 185.299 609.106 180.502 613.806C171 623.116 160.06 632.903 152.499 643.855Z"/>
	<path fill="#104FD2" transform="scale(0.5 0.5)" d="M379.322 461.314C380.674 460.379 381.358 460.388 382.938 460.358L382.962 459.629L382.2 459.019C386.587 451.113 408.744 443.757 417.094 440.951C419.846 440.026 422.937 439.411 425.575 438.243C428.008 437.166 430.344 434.295 432.485 432.642C436.919 429.217 444.467 425.78 449.792 424.202C457.312 421.973 467.155 420.534 474.987 421.019C487.665 421.805 501.089 427.43 512.098 433.577C530.307 443.746 546.327 459.84 556.75 477.885L557.253 478.328C560.842 484.032 565.76 493.656 566.544 500.25C566.97 503.84 567.755 507.367 567.611 511C567.025 525.822 560.245 541.357 549.412 551.639C545.324 555.518 540.723 558.119 536.101 561.25C534.58 562.281 533.265 563.649 531.632 564.488C498.008 599.588 451.552 621.429 406.867 639.014C397.35 642.76 387.631 645.958 378.111 649.673C351.47 660.072 324.878 670.692 298.346 681.35L166.002 728.59C165.027 728.94 164.464 729.103 163.44 729.179L163.281 729.251C153.631 732.209 144.278 736.814 134.865 740.489C107.354 751.228 80.2122 762.8 52.7485 773.635C40.6772 778.397 28.3056 783.987 15.6576 787C33.1412 770.402 49.5549 752.56 66.2272 735.151C74.8814 726.115 83.9263 717.455 92.6246 708.46C102.782 697.957 112.565 687.109 122.624 676.514C129.805 668.951 136.944 661.351 144.084 653.748C146.48 651.197 150.723 647.729 152.173 644.605L152.499 643.855C160.06 632.903 171 623.116 180.502 613.806C185.299 609.106 190.139 604.448 194.952 599.763C196.098 598.648 198.854 596.473 199.442 595C199.639 594.507 199.602 593.48 199.661 592.918L200.168 593.906L200.75 594.064C215.206 582.271 227.916 568.739 241.448 555.947C263.275 535.315 285.411 514.951 306.814 493.88C318.815 482.065 330.655 470.09 343.11 458.75C346.397 455.758 349.626 452.13 353.447 449.844C355.914 450.038 358.55 450.127 360.939 450.795C367.745 452.697 373.579 457.375 379.322 461.314Z"/>
	<path fill="#00BADC" transform="scale(0.5 0.5)" d="M379.442 537.961C382.319 545.471 395.491 550.736 402.25 553.761C405.88 555.385 409.945 557.4 413.82 558.303C416.051 558.823 418.928 558.542 420.967 559.428C422.023 560.082 422.199 561.073 422.75 561.463C424.083 562.404 438.428 561.845 441.092 561.861C442.726 565.932 444.711 568.728 448.5 571.062L449.133 571.459C453.355 573.963 457.642 571.779 461.679 573.414C458.774 575.594 455.631 577.26 452.572 579.198C436.188 589.576 418.776 597.081 401.283 605.276C392.585 609.351 384.051 613.799 375.294 617.747C367.269 621.365 359.027 624.542 350.934 628.011C325.676 638.838 300.207 649.316 274.5 659.035C260.393 664.368 246.389 670.096 232.099 674.926C215.546 680.52 198.959 685.932 182.335 691.307C172.268 694.562 162.245 697.83 152.46 701.873C148.627 703.457 144.58 704.885 140.979 706.935C139.679 707.675 137.813 708.808 136.388 709.078C148.737 698.55 159.183 685.584 171.017 674.393C174.233 671.352 177.576 668.349 181.035 665.588C183.746 663.424 186.439 662.046 188.395 659.092C189.753 657.04 191.675 654.887 193.643 653.409C198.602 648.221 203.87 643.147 208.722 637.901C214.709 631.429 220.466 624.001 227.567 618.719L229.339 617.357C228.627 616.545 228.79 617.018 228.859 615.933C230.874 613.785 232.799 611.967 235.201 610.252C238.015 610.247 241.043 608.309 243.542 607.096C246.564 605.628 249.686 604.329 252.772 602.999C280.696 590.968 308.362 578.383 335.062 563.802C350.083 555.599 364.286 545.863 379.442 537.961Z"/>
	<path fill="#32E6D4" transform="scale(0.5 0.5)" d="M379.442 537.961C382.319 545.471 395.491 550.736 402.25 553.761C405.88 555.385 409.945 557.4 413.82 558.303C416.051 558.823 418.928 558.542 420.967 559.428C419.696 559.526 418.941 559.313 417.994 560.205C415.361 562.687 409.999 563.868 406.662 565.18C401.342 567.273 395.853 569.424 390.745 571.976C376.466 579.109 362.74 587.292 348.5 594.523C309.865 614.144 270.771 631.224 229.5 644.532C223.283 646.536 217.075 648.496 210.783 650.252C206.037 651.575 201.198 652.973 196.245 653.06C195.502 653.073 194.823 653.242 194.098 653.36L193.643 653.409C198.602 648.221 203.87 643.147 208.722 637.901C214.709 631.429 220.466 624.001 227.567 618.719L229.339 617.357C228.627 616.545 228.79 617.018 228.859 615.933C230.874 613.785 232.799 611.967 235.201 610.252C238.015 610.247 241.043 608.309 243.542 607.096C246.564 605.628 249.686 604.329 252.772 602.999C280.696 590.968 308.362 578.383 335.062 563.802C350.083 555.599 364.286 545.863 379.442 537.961Z"/>
	<path fill="#FED542" transform="scale(0.5 0.5)" d="M379.322 461.314C380.674 460.379 381.358 460.388 382.938 460.358L382.962 459.629L382.2 459.019C386.587 451.113 408.744 443.757 417.094 440.951C419.846 440.026 422.937 439.411 425.575 438.243C428.008 437.166 430.344 434.295 432.485 432.642C436.919 429.217 444.467 425.78 449.792 424.202C457.312 421.973 467.155 420.534 474.987 421.019C487.665 421.805 501.089 427.43 512.098 433.577C530.307 443.746 546.327 459.84 556.75 477.885L557.253 478.328C560.842 484.032 565.76 493.656 566.544 500.25C566.97 503.84 567.755 507.367 567.611 511C567.025 525.822 560.245 541.357 549.412 551.639C545.324 555.518 540.723 558.119 536.101 561.25C534.58 562.281 533.265 563.649 531.632 564.488C532.556 562.684 534.126 561.375 535.56 559.971C528.101 559.687 520.215 561.235 512.75 561.73C503.731 562.327 494.482 561.907 485.541 563.409L485.25 565.329C482.817 566.792 478.674 565.759 475.733 566.672C470.801 568.202 466.135 570.852 461.679 573.414C457.642 571.779 453.355 573.963 449.133 571.459L448.5 571.062C444.711 568.728 442.726 565.932 441.092 561.861C438.428 561.845 424.083 562.404 422.75 561.463C422.199 561.073 422.023 560.082 420.967 559.428C418.928 558.542 416.051 558.823 413.82 558.303C409.945 557.4 405.88 555.385 402.25 553.761C395.491 550.736 382.319 545.471 379.442 537.961C364.286 545.863 350.083 555.599 335.062 563.802C308.362 578.383 280.696 590.968 252.772 602.999C249.686 604.329 246.564 605.628 243.542 607.096C241.043 608.309 238.015 610.247 235.201 610.252C242.121 602.46 249.995 595.261 257.514 588.055C262.095 583.664 266.988 578.194 272.348 574.801L276.25 572.347L276.25 571.755L273.25 572.375C273.893 570.334 276.575 568.15 278.117 566.62C282.336 562.431 286.601 558.29 290.83 554.112C312.434 532.764 333.321 510.745 354.154 488.652C362.66 479.631 370.392 469.941 379.322 461.314Z"/>
	<path fill="#D8D7D8" transform="scale(0.5 0.5)" d="M379.442 537.961C408.498 518.5 437.626 497.166 471.422 486.834C484.073 482.966 497.759 480.777 510.941 479.842C520.242 479.183 529.657 479.435 538.98 479.397C543.874 479.377 552.72 480.462 556.75 477.885L557.253 478.328C560.842 484.032 565.76 493.656 566.544 500.25C566.97 503.84 567.755 507.367 567.611 511C567.025 525.822 560.245 541.357 549.412 551.639C545.324 555.518 540.723 558.119 536.101 561.25C534.58 562.281 533.265 563.649 531.632 564.488C532.556 562.684 534.126 561.375 535.56 559.971C528.101 559.687 520.215 561.235 512.75 561.73C503.731 562.327 494.482 561.907 485.541 563.409L485.25 565.329C482.817 566.792 478.674 565.759 475.733 566.672C470.801 568.202 466.135 570.852 461.679 573.414C457.642 571.779 453.355 573.963 449.133 571.459L448.5 571.062C444.711 568.728 442.726 565.932 441.092 561.861C438.428 561.845 424.083 562.404 422.75 561.463C422.199 561.073 422.023 560.082 420.967 559.428C418.928 558.542 416.051 558.823 413.82 558.303C409.945 557.4 405.88 555.385 402.25 553.761C395.491 550.736 382.319 545.471 379.442 537.961Z"/>
	<path fill="#32E6D4" transform="scale(0.5 0.5)" d="M441.092 561.861L485.541 563.409L485.25 565.329C482.817 566.792 478.674 565.759 475.733 566.672C470.801 568.202 466.135 570.852 461.679 573.414C457.642 571.779 453.355 573.963 449.133 571.459L448.5 571.062C444.711 568.728 442.726 565.932 441.092 561.861Z"/>
	<path fill="#01BEDA" transform="scale(0.5 0.5)" d="M686.423 391.576C687.33 394.258 689.517 396.433 690.726 399.071C706.23 411.876 720.657 425.974 734.907 440.146C755.019 460.147 774.521 480.618 793.906 501.318C802.82 510.836 811.664 520.422 820.601 529.919C823.887 533.41 826.906 538.679 831.374 540.599L831.932 541.583C829.153 568.825 824.227 595.735 815.75 621.822C797.917 676.698 764.795 724.439 720.093 760.861C668.528 802.873 602.431 826.594 536.483 831.548C517.672 832.961 498.269 833.145 479.5 831.195C451.408 828.276 423.641 822.36 396.856 813.439C390.431 811.3 383.649 809.278 377.507 806.436C378.818 804.536 379.579 801.173 380.31 798.948C382.066 793.607 383.902 788.285 385.446 782.879L385.637 782.516C387.766 777.15 395.053 752.658 392.794 748.344L392.458 747.75C390.702 744.439 388.707 741.197 385.462 739.115C384.834 738.712 383.172 737.599 382.456 737.506C381.065 737.325 377.126 738.685 375.517 739.031L374.768 738.611C373.953 737.308 373.616 736.777 373.669 735.177L381.25 729.083C383.077 727.701 384.165 726.679 386.5 726.964C388.373 725.866 389.568 724.638 391.007 723.025C389.999 722.297 388.277 721.353 387 721.395C385.448 721.447 385.411 722.381 383.75 721.613L383.405 720.5C383.823 719.531 384.12 718.796 384.312 717.75C381.71 716.641 378.997 716.103 376.302 715.285C369.543 713.232 362.766 711.341 355.985 709.372C339.963 704.717 326.316 698.137 311.922 689.754C307.317 687.071 302.573 684.607 298.346 681.35C324.878 670.692 351.47 660.072 378.111 649.673C387.631 645.958 397.35 642.76 406.867 639.014C451.552 621.429 498.008 599.588 531.632 564.488C533.265 563.649 534.58 562.281 536.101 561.25C540.723 558.119 545.324 555.518 549.412 551.639C560.245 541.357 567.025 525.822 567.611 511C567.755 507.367 566.97 503.84 566.544 500.25C565.76 493.656 560.842 484.032 557.253 478.328L558.002 477.759C564.116 473.763 568.985 468.777 573.75 463.257C580.557 455.373 585.969 447.524 589.25 437.541C590.809 432.798 590.11 427.504 590.363 422.53C592.183 424.15 594.366 426.53 596.575 427.545L597.46 427.937C605.368 434.362 612.343 445.079 617.445 453.82C629.683 449.072 642.578 441.764 653.131 434.067C665.112 425.327 673.651 413.879 680.049 400.607C681.311 397.988 683.054 395.056 683.495 392.163C684.623 392.137 685.371 391.985 686.423 391.576ZM396.724 719.006C395.832 719.779 395.155 719.723 394.048 719.825C393.403 719.885 392.854 720.038 392.245 720.25C391.838 721.038 391.089 722.15 391.007 723.025C389.568 724.638 388.373 725.866 386.5 726.964C384.165 726.679 383.077 727.701 381.25 729.083L373.669 735.177C373.616 736.777 373.953 737.308 374.768 738.611L375.517 739.031C377.126 738.685 381.065 737.325 382.456 737.506C383.172 737.599 384.834 738.712 385.462 739.115C388.707 741.197 390.702 744.439 392.458 747.75L392.794 748.344C395.053 752.658 387.766 777.15 385.637 782.516L385.446 782.879L442.367 783.805C463.272 784.336 484.315 783.405 505.25 783.561C519.875 783.67 534.492 784.032 549.117 783.733C554.121 783.631 559.653 783.953 564.562 782.997C571.244 781.695 578.197 778.488 583.067 773.616C588.485 768.197 591.954 759.797 591.88 752.126C591.8 743.756 588.247 737.124 582.418 731.326C577.289 726.224 570.542 722.488 563.462 720.921C554.616 718.964 543.839 720.041 534.75 719.982C514.501 719.851 494.334 719.891 474.089 720.075C470.821 719.479 466.906 719.816 463.556 719.772L463.75 719.418C465.711 718.991 467.24 718.426 468.998 717.456L469.245 716.5C468.174 715.175 465.414 716.155 463.75 715.255C463.181 714.947 462.497 714.026 462.036 713.541C447.797 716.722 433.974 717.648 419.442 718.012C414.14 718.145 408.856 718.08 403.556 718.385C401.357 718.511 398.852 718.46 396.724 719.006Z"/>
	<path fill="#0B2342" transform="scale(0.5 0.5)" d="M686.423 391.576C687.33 394.258 689.517 396.433 690.726 399.071C691.904 417.089 694.579 439.141 681.756 453.852C672.614 464.341 656.726 468.423 643.722 471.854C638.232 473.302 632.798 474.917 627.336 476.465C625.044 468.671 620.947 461.153 617.445 453.82C629.683 449.072 642.578 441.764 653.131 434.067C665.112 425.327 673.651 413.879 680.049 400.607C681.311 397.988 683.054 395.056 683.495 392.163C684.623 392.137 685.371 391.985 686.423 391.576Z"/>
	<path fill="#E4301A" transform="scale(0.5 0.5)" d="M396.724 719.006C398.852 718.46 401.357 718.511 403.556 718.385C408.856 718.08 414.14 718.145 419.442 718.012C433.974 717.648 447.797 716.722 462.036 713.541C462.497 714.026 463.181 714.947 463.75 715.255C465.414 716.155 468.174 715.175 469.245 716.5L468.998 717.456C467.24 718.426 465.711 718.991 463.75 719.418L463.556 719.772C466.906 719.816 470.821 719.479 474.089 720.075C494.334 719.891 514.501 719.851 534.75 719.982C543.839 720.041 554.616 718.964 563.462 720.921C570.542 722.488 577.289 726.224 582.418 731.326C588.247 737.124 591.8 743.756 591.88 752.126C591.954 759.797 588.485 768.197 583.067 773.616C578.197 778.488 571.244 781.695 564.562 782.997C559.653 783.953 554.121 783.631 549.117 783.733C534.492 784.032 519.875 783.67 505.25 783.561C484.315 783.405 463.272 784.336 442.367 783.805L385.446 782.879L385.637 782.516C387.766 777.15 395.053 752.658 392.794 748.344L392.458 747.75C390.702 744.439 388.707 741.197 385.462 739.115C384.834 738.712 383.172 737.599 382.456 737.506C381.065 737.325 377.126 738.685 375.517 739.031L374.768 738.611C373.953 737.308 373.616 736.777 373.669 735.177L381.25 729.083C383.077 727.701 384.165 726.679 386.5 726.964C388.373 725.866 389.568 724.638 391.007 723.025C391.089 722.15 391.838 721.038 392.245 720.25C392.854 720.038 393.403 719.885 394.048 719.825C395.155 719.723 395.832 719.779 396.724 719.006ZM396.724 719.006C401.346 720.164 406.061 719.87 410.784 719.901C417.517 719.946 424.252 719.992 430.985 720.099C441.376 720.263 451.724 720.612 462.124 720.493C465.979 720.449 470.293 720.736 474.089 720.075C470.821 719.479 466.906 719.816 463.556 719.772L463.75 719.418C465.711 718.991 467.24 718.426 468.998 717.456L469.245 716.5C468.174 715.175 465.414 716.155 463.75 715.255C463.181 714.947 462.497 714.026 462.036 713.541C447.797 716.722 433.974 717.648 419.442 718.012C414.14 718.145 408.856 718.08 403.556 718.385C401.357 718.511 398.852 718.46 396.724 719.006Z"/>
	<path fill="#00BADC" fill-opacity="0.94509804" transform="scale(0.5 0.5)" d="M396.724 719.006C398.852 718.46 401.357 718.511 403.556 718.385C408.856 718.08 414.14 718.145 419.442 718.012C433.974 717.648 447.797 716.722 462.036 713.541C462.497 714.026 463.181 714.947 463.75 715.255C465.414 716.155 468.174 715.175 469.245 716.5L468.998 717.456C467.24 718.426 465.711 718.991 463.75 719.418L463.556 719.772C466.906 719.816 470.821 719.479 474.089 720.075C470.293 720.736 465.979 720.449 462.124 720.493C451.724 720.612 441.376 720.263 430.985 720.099C424.252 719.992 417.517 719.946 410.784 719.901C406.061 719.87 401.346 720.164 396.724 719.006Z"/>
	<path fill="#FA5704" transform="scale(0.5 0.5)" d="M557.253 478.328L558.002 477.759C564.116 473.763 568.985 468.777 573.75 463.257C580.557 455.373 585.969 447.524 589.25 437.541C590.809 432.798 590.11 427.504 590.363 422.53C592.183 424.15 594.366 426.53 596.575 427.545L597.46 427.937C605.368 434.362 612.343 445.079 617.445 453.82C620.947 461.153 625.044 468.671 627.336 476.465C630.823 485.297 635.25 494.766 637.149 504.089C638.135 508.928 638.002 513.982 638.01 518.898C638.048 540.518 633.832 562.721 625.215 582.642C600.737 639.234 553.526 681.278 496.452 703.65L462.036 713.541C447.797 716.722 433.974 717.648 419.442 718.012C414.14 718.145 408.856 718.08 403.556 718.385C401.357 718.511 398.852 718.46 396.724 719.006C395.832 719.779 395.155 719.723 394.048 719.825C393.403 719.885 392.854 720.038 392.245 720.25C391.838 721.038 391.089 722.15 391.007 723.025C389.999 722.297 388.277 721.353 387 721.395C385.448 721.447 385.411 722.381 383.75 721.613L383.405 720.5C383.823 719.531 384.12 718.796 384.312 717.75C381.71 716.641 378.997 716.103 376.302 715.285C369.543 713.232 362.766 711.341 355.985 709.372C339.963 704.717 326.316 698.137 311.922 689.754C307.317 687.071 302.573 684.607 298.346 681.35C324.878 670.692 351.47 660.072 378.111 649.673C387.631 645.958 397.35 642.76 406.867 639.014C451.552 621.429 498.008 599.588 531.632 564.488C533.265 563.649 534.58 562.281 536.101 561.25C540.723 558.119 545.324 555.518 549.412 551.639C560.245 541.357 567.025 525.822 567.611 511C567.755 507.367 566.97 503.84 566.544 500.25C565.76 493.656 560.842 484.032 557.253 478.328Z"/>
	<path fill="#32E6D4" transform="scale(0.5 0.5)" d="M199.661 592.918C196.688 572.036 193.715 551.24 192.348 530.174C189.849 491.688 192.222 450.756 203.559 413.724C210.745 390.25 219.792 367.176 231.782 345.712C259.958 295.274 303.979 253.866 354.897 226.972C413.203 196.176 478.989 186.758 544.198 191.978C567.777 193.866 590.837 197.344 613.495 204.386C669.549 221.809 718.846 252.979 757.69 297.064C765.293 305.692 772.747 314.547 779.25 324.046C786.662 334.874 792.794 346.374 798.887 357.976C804.361 369.52 810.262 380.881 814.833 392.828C833.055 440.448 836.155 491.161 831.932 541.583L831.374 540.599C826.906 538.679 823.887 533.41 820.601 529.919C811.664 520.422 802.82 510.836 793.906 501.318C774.521 480.618 755.019 460.147 734.907 440.146C720.657 425.974 706.23 411.876 690.726 399.071C689.517 396.433 687.33 394.258 686.423 391.576C685.371 391.985 684.623 392.137 683.495 392.163C683.054 395.056 681.311 397.988 680.049 400.607C673.651 413.879 665.112 425.327 653.131 434.067C642.578 441.764 629.683 449.072 617.445 453.82C612.343 445.079 605.368 434.362 597.46 427.937L596.575 427.545C594.366 426.53 592.183 424.15 590.363 422.53C590.11 427.504 590.809 432.798 589.25 437.541C585.969 447.524 580.557 455.373 573.75 463.257C568.985 468.777 564.116 473.763 558.002 477.759L557.253 478.328L556.75 477.885C546.327 459.84 530.307 443.746 512.098 433.577C501.089 427.43 487.665 421.805 474.987 421.019C467.155 420.534 457.312 421.973 449.792 424.202C444.467 425.78 436.919 429.217 432.485 432.642C430.344 434.295 428.008 437.166 425.575 438.243C422.937 439.411 419.846 440.026 417.094 440.951C408.744 443.757 386.587 451.113 382.2 459.019L382.962 459.629L382.938 460.358C381.358 460.388 380.674 460.379 379.322 461.314C373.579 457.375 367.745 452.697 360.939 450.795C358.55 450.127 355.914 450.038 353.447 449.844C349.626 452.13 346.397 455.758 343.11 458.75C330.655 470.09 318.815 482.065 306.814 493.88C285.411 514.951 263.275 535.315 241.448 555.947C227.916 568.739 215.206 582.271 200.75 594.064L200.168 593.906L199.661 592.918Z"/>
	<path fill="#E4301A" transform="scale(0.5 0.5)" d="M353.447 449.844C358.477 447.026 362.735 443.183 367.094 439.445C373.496 433.956 379.803 428.333 386.397 423.073C404.327 408.769 422.711 394.918 441.146 381.276C453.797 371.914 466.327 362.3 479.779 354.101C495.833 344.316 513.233 336.839 531.094 331.062C560.863 321.434 590.415 316.806 621.284 324.381C640.94 329.205 661.682 338.252 676.831 351.841C679.895 354.589 683.391 357.865 685.441 361.475C689.235 368.153 688.243 384.302 686.423 391.576C685.371 391.985 684.623 392.137 683.495 392.163C683.054 395.056 681.311 397.988 680.049 400.607C673.651 413.879 665.112 425.327 653.131 434.067C642.578 441.764 629.683 449.072 617.445 453.82C612.343 445.079 605.368 434.362 597.46 427.937L596.575 427.545C594.366 426.53 592.183 424.15 590.363 422.53C590.11 427.504 590.809 432.798 589.25 437.541C585.969 447.524 580.557 455.373 573.75 463.257C568.985 468.777 564.116 473.763 558.002 477.759L557.253 478.328L556.75 477.885C546.327 459.84 530.307 443.746 512.098 433.577C501.089 427.43 487.665 421.805 474.987 421.019C467.155 420.534 457.312 421.973 449.792 424.202C444.467 425.78 436.919 429.217 432.485 432.642C430.344 434.295 428.008 437.166 425.575 438.243C422.937 439.411 419.846 440.026 417.094 440.951C408.744 443.757 386.587 451.113 382.2 459.019L382.962 459.629L382.938 460.358C381.358 460.388 380.674 460.379 379.322 461.314C373.579 457.375 367.745 452.697 360.939 450.795C358.55 450.127 355.914 450.038 353.447 449.844Z"/>
	<path fill="#D8D7D8" transform="scale(0.5 0.5)" d="M597.46 427.937C595.49 425.353 592.9 423.098 590.578 420.822C590.576 414.934 590.258 406.686 592.586 401.25C594.083 397.756 596.935 394.437 599.483 391.633C609.54 380.567 623.738 366.481 639.587 366.051C657.208 365.573 672.014 380.793 683.495 392.163C683.054 395.056 681.311 397.988 680.049 400.607C673.651 413.879 665.112 425.327 653.131 434.067C642.578 441.764 629.683 449.072 617.445 453.82C612.343 445.079 605.368 434.362 597.46 427.937Z"/>
</svg>
