<?xml version="1.0" encoding="utf-8" ?>
<svg xmlns="http://www.w3.org/2000/svg" xmlns:xlink="http://www.w3.org/1999/xlink" width="512" height="512">
	<path fill="#FECB02" transform="scale(0.5 0.5)" d="M234.44 923.054C234.936 923.198 234.807 923.242 235.393 922.927C237.29 921.908 239.029 919.239 240.395 917.596C243.523 913.837 246.602 910.101 250.073 906.646C264.977 891.812 280.145 877.102 295.259 862.469C299.675 858.193 305.317 854.61 309.25 849.971C311.867 846.884 312.829 843 313.955 839.206C318.244 844.857 323.845 854.468 324.673 861.558C322.885 867.307 321.334 873.551 318.608 878.927C311.881 892.188 302.088 904.252 292.168 915.246C286.09 921.983 280.246 928.908 273.713 935.22C261.181 947.328 247.375 957.875 233.942 968.912C228.276 973.568 223.033 978.827 217.297 983.348C218.769 973.489 221.374 963.718 224.059 954.125C227.055 943.425 230.102 933.3 234.44 923.054Z"/>
	<path fill="#E2232E" transform="scale(0.5 0.5)" d="M730.561 86.7391C700.564 82.1169 670.857 81.2272 640.898 86.5633C634.725 87.6627 628.556 88.9532 622.464 90.4348C617.049 91.7518 611.61 93.3063 606.033 93.7585C614.736 81.7346 625.64 71.8365 637.5 62.9538C665.356 42.0905 697.075 28.8517 731.434 23.3105C763.249 18.1797 800.132 20.4414 830.672 31.0302C851.295 38.1805 869.922 48.7066 887.542 61.486C901.217 71.4044 913.717 82.8281 924.56 95.8051C921.173 95.572 918.032 93.5435 915.097 91.9551C911.209 89.851 907.366 87.8118 903.302 86.0643C897.418 83.5344 891.297 81.3013 885.227 79.261C870.28 74.2365 854.389 69.9304 838.727 68.0001C814.243 64.9825 786.697 67.5307 763.117 74.4729C756.32 76.474 749.534 78.7817 743 81.5217C739.29 83.0776 735.37 85.5939 731.493 86.5342L730.561 86.7391Z"/>
	<path fill="#FD5D08" transform="scale(0.5 0.5)" d="M287.687 520.445C290.246 514.87 293.56 509.616 296.524 504.25C302.326 493.749 308.167 483.404 314.239 473.055C315.721 470.529 316.742 467.766 318.184 465.22C325.08 453.048 332.285 440.986 339.302 428.87C351.822 407.253 363.937 385.37 377 364.067C418.853 295.812 468.552 229.759 532.891 181.193C546.637 170.817 561.135 160.479 576.208 152.109C593.972 142.244 613.326 134.379 633.351 130.587C641.602 129.025 649.642 128.491 658 128.027C663.618 127.715 669.965 126.575 675.432 128.131C672.167 133.276 666.857 137.255 663.259 142.36C654.312 155.055 648.573 169.266 642.235 183.32L641.258 183.339C635.146 183.48 629.019 184.996 623.028 186.187C591.99 192.355 563.216 208.17 537.317 225.814C504.366 248.262 475.52 274.335 448.244 303.28C440.235 311.78 433.163 320.913 425.607 329.791C413.85 343.606 401.919 356.652 391.741 371.74C390.447 373.659 388.616 375.191 388.101 377.507L386.855 379.18C381.715 383.963 377.07 389.561 372.438 394.84C357.651 411.689 345.159 429.811 332.872 448.516C325.257 460.107 317.629 471.692 310.412 483.531C306.191 490.455 302.105 497.516 297.981 504.5C294.897 509.722 292.01 516.162 287.687 520.445Z"/>
	<path fill="#133545" transform="scale(0.5 0.5)" d="M942.752 112.428C948.241 120.539 953.495 128.671 957.495 137.648C964.582 153.555 967.371 171.477 968.108 188.758C968.423 196.135 968.918 204.454 967.54 211.734L967.181 213.513L966.145 219.471C966.996 222.492 965.895 227.289 965.486 230.462C962.591 252.901 956.372 276.127 945.23 295.911C941.663 302.244 937.712 308.983 932.253 313.846C931.299 291.285 927.137 267.662 916.942 247.338C915.603 244.669 913.435 240.075 911.25 238.058L910.5 237.512C909.813 239.629 908.988 241.816 908.659 244.011C908.407 245.691 907.253 246.697 906.947 248.355C906.488 250.835 903.629 254.32 902.154 256.443C892.938 269.708 883.19 280.885 869.539 289.825C855.529 299 840.184 302.937 823.535 302.328C815.753 301.21 809.09 298.547 803.287 293.091C797.548 287.697 794.196 280.716 793.992 272.837C793.835 266.8 795.194 261.615 798.072 256.33C800.849 251.23 804.863 246.811 808.55 242.356C814.076 235.68 819.658 229.038 824.871 222.111C829.213 216.342 833.476 210.466 837.514 204.48C840.93 199.414 844.135 193.987 848.321 189.514C849.791 188.254 851.015 186.039 852.252 184.497C854.445 181.764 856.923 179.369 859.545 177.052C871.81 166.215 885.587 156.999 898.417 146.826C908.151 139.108 917.608 131.07 927.437 123.464C932.381 119.638 937.342 115.57 942.752 112.428Z"/>
	<path fill="#DBDCDB" transform="scale(0.5 0.5)" d="M942.752 112.428C948.241 120.539 953.495 128.671 957.495 137.648C964.582 153.555 967.371 171.477 968.108 188.758C968.423 196.135 968.918 204.454 967.54 211.734L967.181 213.513L966.145 219.471C934.549 194.145 891.897 186.794 852.321 188.954C859.539 194.129 867.319 198.138 874.761 202.932C884.64 209.296 894.249 217.138 902.202 225.798C904.959 228.801 907.996 232.125 909.896 235.75L909.381 236.232C907.122 238.581 907.822 240.891 907.741 243.896C907.703 245.306 907.27 245.964 906.25 246.928C901.698 243.725 895.834 242.482 890.578 240.9C882.315 238.414 875.168 234.311 868.801 228.475C858.332 218.88 848.893 204.056 848.321 189.514C849.791 188.254 851.015 186.039 852.252 184.497C854.445 181.764 856.923 179.369 859.545 177.052C871.81 166.215 885.587 156.999 898.417 146.826C908.151 139.108 917.608 131.07 927.437 123.464C932.381 119.638 937.342 115.57 942.752 112.428Z"/>
	<path fill="#FD5D08" transform="scale(0.5 0.5)" d="M385.179 709.064L386.01 709.371C389.137 708.243 391.909 705.986 394.736 704.234C399.346 701.376 404.083 698.631 408.901 696.137C429.58 685.432 450.707 676.221 470.513 663.806C477.212 659.607 483.896 655.433 490.284 650.768C498.795 644.551 507.109 637.631 516.301 632.455C517.82 631.6 519.538 630.252 521.25 630.729L521.656 634.508L533.92 653.992C537.088 659.723 540.244 665.465 543.56 671.112C545.39 674.226 547.824 677.162 549.132 680.536L537.417 685.805L499.529 677.339C495.604 679.838 492.663 684.641 489.879 688.348C483.05 697.442 476.421 706.699 470.715 716.544C459.761 730.1 449.484 744.235 438.937 758.107C430.341 769.414 421.125 780.174 413.958 792.506C414.202 783.015 413.95 775.275 411.169 766.069C410.421 767.024 410.715 766.446 410.426 767.694C409.123 773.303 403.415 779.248 400.339 784.11C396.352 790.411 392.671 796.896 388.635 803.167C380.65 815.574 372.08 827.734 363.492 839.73C352.664 854.857 341.062 869.407 330.191 884.483C329.111 876.646 327.241 869.036 324.673 861.558C323.845 854.468 318.244 844.857 313.955 839.206C312.829 843 311.867 846.884 309.25 849.971C305.317 854.61 299.675 858.193 295.259 862.469C280.145 877.102 264.977 891.812 250.073 906.646C246.602 910.101 243.523 913.837 240.395 917.596C239.029 919.239 237.29 921.908 235.393 922.927C234.807 923.242 234.936 923.198 234.44 923.054L233.241 922.447C228.811 924.289 225.067 928.842 221.239 931.811C214.671 936.906 207.864 941.817 201.099 946.651C189.615 954.857 178.038 963.013 166.34 970.907C157.802 976.67 149.051 982.107 140.708 988.157L156.428 931.857L157.058 931.701C164.306 930.183 173.86 913.464 178.92 907.836C188.784 896.863 199.732 887.683 210.422 877.616C227.316 861.708 244.138 844.772 258.883 826.845C277.526 804.18 291.483 777.838 311.803 756.542C325.756 741.92 342.225 730.639 359.962 721.109C364.406 718.721 368.925 716.494 373.555 714.49C376.824 713.075 382.997 711.772 385.179 709.064ZM499.529 677.339L537.417 685.805L549.132 680.536C547.824 677.162 545.39 674.226 543.56 671.112C540.244 665.465 537.088 659.723 533.92 653.992L521.656 634.508C517.988 649.96 510.169 665.438 499.529 677.339Z"/>
	<path fill="#3F1E16" transform="scale(0.5 0.5)" d="M676.951 658.386C679.292 655.784 696.807 649.375 701.25 647.438C714.959 641.458 728.232 634.883 742.207 629.476C754.653 624.66 767.463 620.161 780.155 616.057C784.497 625.427 790.678 634.698 797.077 642.767L815.247 664.358C785.379 673.47 755.674 682.441 726.275 693.003C716.83 696.397 707.755 700.747 698.359 704.262C681.319 710.637 663.572 715.737 646.075 720.734C635.216 723.836 624.192 727.343 613.068 729.318C622.566 738.828 630.386 749.896 640.116 759.088C650.133 768.551 663.034 773.717 675.38 779.314C686.155 784.198 696.86 788.949 707.948 793.094C713.474 786.604 718.91 780.079 724.604 773.732C728.556 769.326 732.562 764.647 737.671 761.551L743.285 781.853L731.096 806.061C733.294 809.122 736.289 811.853 738.84 814.658C745.274 821.732 751.98 829.221 756.771 837.537C758.217 840.048 764.564 841.822 767.285 843.527C769.868 845.145 772.288 847.057 774.552 849.094C778.776 852.892 782.526 857.292 786.376 861.469C793.767 869.487 801.114 877.685 808.986 885.233C821.717 897.438 837.345 906.598 850.163 918.839C856.567 924.955 861.674 932.188 867.064 939.174C874.955 949.401 882.643 959.689 890.256 970.121C895.177 976.864 902.125 984.348 905.301 992.016C907.3 996.844 907.579 1001.42 906.349 1006.49C904.974 1012.17 900.762 1016.69 895.75 1019.44C891.353 1021.86 886.557 1022.57 881.71 1021.1C880.791 1020.83 879.921 1020.51 879.053 1020.1C873.805 1017.59 870.118 1013.38 866.312 1009.14C861.181 1003.43 856.355 997.449 851.377 991.606C845.028 984.154 838.486 976.885 832.276 969.313C829.473 965.896 826.864 961.585 823.731 958.521C820.88 955.732 816.192 953.423 812.804 951.28C801.773 944.304 788.872 937.3 779.457 928.267C767.582 916.873 759.333 902.16 748.981 889.428C740.092 878.495 728.968 868.961 718.677 859.332C713.514 854.502 708.532 849.259 703.187 844.653C698.996 841.04 693.063 839.115 687.943 837.188C680.051 834.218 672.039 831.554 664.198 828.451C655.173 824.879 646.277 820.912 637.338 817.125C633.07 815.317 627.775 813.603 623.951 811.05C620.576 808.795 618.01 805.309 615.374 802.256C611.512 797.783 607.63 793.314 603.75 788.855C597.124 781.24 589.826 774.223 582.794 766.992C578.793 762.877 575.298 758.331 570.907 754.61L570.19 753.993C566.013 750.469 560.74 747.654 556 744.941C539.178 735.312 520.302 726.745 501.501 721.939C496.162 720.575 490.612 719.14 485.175 718.302C480.381 717.564 475.521 717.258 470.715 716.544C476.421 706.699 483.05 697.442 489.879 688.348C492.663 684.641 495.604 679.838 499.529 677.339L537.417 685.805L549.132 680.536L591.65 660.186C612.967 652.903 637.554 646.2 660.015 652.366C663.494 653.322 666.892 654.702 670.179 656.176C672.376 657.161 674.491 658.49 676.951 658.386Z"/>
	<path fill="#A24E29" transform="scale(0.5 0.5)" d="M676.951 658.386C679.292 655.784 696.807 649.375 701.25 647.438C714.959 641.458 728.232 634.883 742.207 629.476C754.653 624.66 767.463 620.161 780.155 616.057C784.497 625.427 790.678 634.698 797.077 642.767C793.479 645.143 788.951 646.483 784.94 648.077C776.144 651.575 767.297 654.916 758.444 658.263C736.803 666.442 715.505 675.686 693.65 683.273C681.576 687.465 668.968 690.805 656.647 694.214C644.012 697.71 631.373 701.57 618.639 704.655C612.046 706.252 605.479 707.982 598.875 709.522C594.954 710.437 590.244 711.056 586.543 712.585C584.592 713.391 582.629 715.085 580.89 716.306C576.15 713.23 572.237 709.626 568.162 705.734C564.029 706.963 560.026 709.283 556.164 711.191C546.966 715.736 538.693 718.591 528.449 719.882C519.772 720.976 515.03 719.442 508.138 714.075C514.987 702.116 525.161 692.089 537.417 685.805L549.132 680.536L591.65 660.186C612.967 652.903 637.554 646.2 660.015 652.366C663.494 653.322 666.892 654.702 670.179 656.176C672.376 657.161 674.491 658.49 676.951 658.386Z"/>
	<path fill="#18ADF5" transform="scale(0.5 0.5)" d="M591.65 660.186C612.967 652.903 637.554 646.2 660.015 652.366C663.494 653.322 666.892 654.702 670.179 656.176C672.376 657.161 674.491 658.49 676.951 658.386C677.387 659.95 676.754 661.242 676.44 662.814C663.988 666.004 651.731 669.931 639.25 673.043C634.332 674.269 629.377 675.447 624.4 676.415C621.04 677.069 616.365 677.246 613.33 678.774C609.013 680.947 604.887 685.624 600.906 688.519C590.762 695.896 579.797 701.15 568.162 705.734C564.029 706.963 560.026 709.283 556.164 711.191C546.966 715.736 538.693 718.591 528.449 719.882C519.772 720.976 515.03 719.442 508.138 714.075C514.987 702.116 525.161 692.089 537.417 685.805L549.132 680.536L591.65 660.186Z"/>
	<path fill="#E2232E" transform="scale(0.5 0.5)" d="M217.095 652.619C219.647 651.187 221.916 649.389 224.405 647.863C228.482 645.362 232.821 643.15 237.075 640.964C250.814 633.905 264.919 627.889 279.074 621.753C307.561 609.404 336.392 597.969 365.072 586.088C380.36 579.755 395.573 573.207 410.825 566.782C420.05 562.897 429.37 558.644 438.884 555.519C422.586 590.508 409.724 626.462 398.226 663.283C395.085 673.339 392.519 683.634 389.741 693.798C388.38 698.78 387.266 704.337 385.179 709.064C382.997 711.772 376.824 713.075 373.555 714.49C368.925 716.494 364.406 718.721 359.962 721.109C342.225 730.639 325.756 741.92 311.803 756.542C291.483 777.838 277.526 804.18 258.883 826.845C244.138 844.772 227.316 861.708 210.422 877.616C199.732 887.683 188.784 896.863 178.92 907.836C173.86 913.464 164.306 930.183 157.058 931.701L156.428 931.857C154.934 932.016 153.378 932.897 152.102 933.635C136.477 942.672 121.477 952.797 105.94 961.992C90.6041 971.068 74.109 979.359 59.5564 989.588C74.0025 956.266 93.7169 924.588 115.707 895.778C128.842 878.571 142.891 861.883 159.749 848.192L103.719 866.964C107.591 861.589 110.69 855.812 113.986 850.083C119.503 840.498 124.814 830.839 130.185 821.174C140.266 803.032 151.807 785.69 164.785 769.506C170.136 762.833 175.573 756.122 181.647 750.087C186.767 745 192.557 740.909 197.901 736.135C184.667 735.613 169.708 738.449 157.332 743.123C162.342 733.663 168.532 724.761 174.273 715.731C182.581 702.664 190.74 689.53 199.146 676.523C201.404 673.028 209.405 658.732 212.667 656.946L213.5 656.528C214.613 655.873 216.865 653.82 217.095 652.619Z"/>
	<path fill="#FECB02" transform="scale(0.5 0.5)" d="M730.561 86.7391L731.493 86.5342C735.37 85.5939 739.29 83.0776 743 81.5217C749.534 78.7817 756.32 76.474 763.117 74.4729C786.697 67.5307 814.243 64.9825 838.727 68.0001C854.389 69.9304 870.28 74.2365 885.227 79.261C891.297 81.3013 897.418 83.5344 903.302 86.0643C907.366 87.8118 911.209 89.851 915.097 91.9551C918.032 93.5435 921.173 95.572 924.56 95.8051C930.229 99.7447 939.574 106.286 942.752 112.428C937.342 115.57 932.381 119.638 927.437 123.464C917.608 131.07 908.151 139.108 898.417 146.826C885.587 156.999 871.81 166.215 859.545 177.052C856.923 179.369 854.445 181.764 852.252 184.497C851.015 186.039 849.791 188.254 848.321 189.514C844.135 193.987 840.93 199.414 837.514 204.48C833.476 210.466 829.213 216.342 824.871 222.111C819.658 229.038 814.076 235.68 808.55 242.356C804.863 246.811 800.849 251.23 798.072 256.33C795.194 261.615 793.835 266.8 793.992 272.837C794.196 280.716 797.548 287.697 803.287 293.091C809.09 298.547 815.753 301.21 823.535 302.328C822.133 320.991 820.689 339.22 816.341 357.49C803.416 411.811 775.68 461.084 739.945 503.641C725.946 520.312 710.75 536.248 694.245 550.454C687.375 556.365 680.646 562.547 673.485 568.102C650.231 586.139 625.495 601.194 599.201 614.328C592.523 617.663 585.496 621.984 578.501 624.447C581.08 631.389 584.451 638.253 587.341 645.099C589.434 650.056 591.662 654.675 591.65 660.186L549.132 680.536C547.824 677.162 545.39 674.226 543.56 671.112C540.244 665.465 537.088 659.723 533.92 653.992L521.656 634.508L521.25 630.729C519.538 630.252 517.82 631.6 516.301 632.455C507.109 637.631 498.795 644.551 490.284 650.768C483.896 655.433 477.212 659.607 470.513 663.806C450.707 676.221 429.58 685.432 408.901 696.137C404.083 698.631 399.346 701.376 394.736 704.234C391.909 705.986 389.137 708.243 386.01 709.371L385.179 709.064C387.266 704.337 388.38 698.78 389.741 693.798C392.519 683.634 395.085 673.339 398.226 663.283C409.724 626.462 422.586 590.508 438.884 555.519C429.37 558.644 420.05 562.897 410.825 566.782C395.573 573.207 380.36 579.755 365.072 586.088C336.392 597.969 307.561 609.404 279.074 621.753C264.919 627.889 250.814 633.905 237.075 640.964C232.821 643.15 228.482 645.362 224.405 647.863C221.916 649.389 219.647 651.187 217.095 652.619L216.32 651.966C214.729 647.341 241.73 615.105 244.686 608.85C244.014 608.211 243.636 607.918 242.733 607.608L242 607.389L241.661 606.75C243.246 600.437 247.066 594.385 250.081 588.624C256.261 576.814 262.754 565.235 269.107 553.524C273.314 545.768 277.537 538.042 281.841 530.338C283.561 527.259 285.378 523.036 287.687 520.445C292.01 516.162 294.897 509.722 297.981 504.5C302.105 497.516 306.191 490.455 310.412 483.531C317.629 471.692 325.257 460.107 332.872 448.516C345.159 429.811 357.651 411.689 372.438 394.84C377.07 389.561 381.715 383.963 386.855 379.18L388.101 377.507C388.616 375.191 390.447 373.659 391.741 371.74C401.919 356.652 413.85 343.606 425.607 329.791C433.163 320.913 440.235 311.78 448.244 303.28C475.52 274.335 504.366 248.262 537.317 225.814C563.216 208.17 591.99 192.355 623.028 186.187C629.019 184.996 635.146 183.48 641.258 183.339L642.235 183.32C648.573 169.266 654.312 155.055 663.259 142.36C666.857 137.255 672.167 133.276 675.432 128.131C677.989 124.397 682.523 120.748 685.901 117.75C699.236 105.918 714.394 94.3542 730.561 86.7391ZM533.92 653.992C537.088 659.723 540.244 665.465 543.56 671.112C545.39 674.226 547.824 677.162 549.132 680.536L591.65 660.186C591.662 654.675 589.434 650.056 587.341 645.099C584.451 638.253 581.08 631.389 578.501 624.447C567.636 627.471 541.202 640.961 535.107 650.75C534.742 651.336 534.609 651.843 534.4 652.5L534.116 653.356L533.92 653.992Z"/>
	<path fill="#133545" transform="scale(0.5 0.5)" d="M787.441 152.101C792.621 151.61 797.561 152.083 802.035 154.973C807.28 158.361 810.29 164.254 811.344 170.269C812.283 175.622 811.267 181.533 807.99 185.948C804.398 190.788 799.91 192.908 794.12 193.897C790.055 194.146 785.744 193.193 782.1 191.395C776.251 188.509 772.489 183.372 770.615 177.221C769.049 172.087 770.338 166.588 772.898 162.016C776.148 156.214 781.343 153.802 787.441 152.101Z"/>
	<path fill="#DBDCDB" fill-opacity="0.96862745" transform="scale(0.5 0.5)" d="M533.92 653.992L534.116 653.356L534.4 652.5C534.609 651.843 534.742 651.336 535.107 650.75C541.202 640.961 567.636 627.471 578.501 624.447C581.08 631.389 584.451 638.253 587.341 645.099C589.434 650.056 591.662 654.675 591.65 660.186L549.132 680.536C547.824 677.162 545.39 674.226 543.56 671.112C540.244 665.465 537.088 659.723 533.92 653.992Z"/>
	<path fill="#18ADF5" transform="scale(0.5 0.5)" d="M388.101 377.507C401.615 364.791 414.574 352.049 429.233 340.581C440.049 332.119 451.549 324.601 463.026 317.082C492.751 297.608 524.093 279.951 556.564 265.473C574.716 257.38 592.738 250.146 612.031 245.19C632.195 240.011 651.973 237.926 672.74 238.183C676.063 240.555 678.591 244.156 680.875 247.494C690.163 261.066 694.623 276.93 697.33 292.98C704.644 336.362 689.589 382.988 664.316 418.221C659.362 425.128 653.71 431.32 647.935 437.53C634.557 451.916 620.085 464.551 603.562 475.248C576.548 492.737 546.574 505.584 517.47 519.102C499.558 527.422 481.559 535.496 463.622 543.75C455.329 547.566 447.215 551.794 438.884 555.519C429.37 558.644 420.05 562.897 410.825 566.782C395.573 573.207 380.36 579.755 365.072 586.088C336.392 597.969 307.561 609.404 279.074 621.753C264.919 627.889 250.814 633.905 237.075 640.964C232.821 643.15 228.482 645.362 224.405 647.863C221.916 649.389 219.647 651.187 217.095 652.619L216.32 651.966C214.729 647.341 241.73 615.105 244.686 608.85C244.014 608.211 243.636 607.918 242.733 607.608L242 607.389L241.661 606.75C243.246 600.437 247.066 594.385 250.081 588.624C256.261 576.814 262.754 565.235 269.107 553.524C273.314 545.768 277.537 538.042 281.841 530.338C283.561 527.259 285.378 523.036 287.687 520.445C292.01 516.162 294.897 509.722 297.981 504.5C302.105 497.516 306.191 490.455 310.412 483.531C317.629 471.692 325.257 460.107 332.872 448.516C345.159 429.811 357.651 411.689 372.438 394.84C377.07 389.561 381.715 383.963 386.855 379.18L388.101 377.507Z"/>
	<path fill="#DBDCDB" transform="scale(0.5 0.5)" d="M386.855 379.18C389.42 381.439 391.157 384.146 392.988 387C398.229 395.172 401.318 403.102 401.88 412.909C402.282 419.93 401.273 426.131 398.591 432.604C409.929 420.757 421.985 409.533 433.71 398.062C448.055 384.026 462.58 370.78 477.801 357.683C489.138 347.928 500.584 338.01 512.849 329.423C528.48 318.48 545.213 309.566 563.029 302.754C577.211 297.331 591.454 293.475 606.75 293.024C620.999 292.604 633.658 295.211 644.121 305.378C651.971 313.006 655.946 322.822 655.992 333.759C656.015 339.175 655.249 343.831 654.194 349.09C653.693 351.593 653.418 354.277 652.587 356.688C634.808 350.986 614.68 350.906 596.19 351.636C590.813 351.848 585.291 351.804 580 352.832C562.746 356.183 547.276 362.482 532.147 371.412C517.052 380.322 503.158 391.58 489.354 402.331C477.945 411.215 466.37 419.898 454.934 428.75C432.334 446.242 409.413 463.411 387.117 481.283C374.582 491.33 362.466 501.919 350.105 512.181C333.728 525.779 317.264 539.412 301.517 553.735C286.901 567.029 272.725 580.954 258.802 594.969C254.133 599.669 249.786 604.771 245.034 609.356L244.686 608.85C244.014 608.211 243.636 607.918 242.733 607.608L242 607.389L241.661 606.75C243.246 600.437 247.066 594.385 250.081 588.624C256.261 576.814 262.754 565.235 269.107 553.524C273.314 545.768 277.537 538.042 281.841 530.338C283.561 527.259 285.378 523.036 287.687 520.445C292.01 516.162 294.897 509.722 297.981 504.5C302.105 497.516 306.191 490.455 310.412 483.531C317.629 471.692 325.257 460.107 332.872 448.516C345.159 429.811 357.651 411.689 372.438 394.84C377.07 389.561 381.715 383.963 386.855 379.18Z"/>
</svg>
