<?xml version="1.0" encoding="utf-8" ?>
<svg xmlns="http://www.w3.org/2000/svg" xmlns:xlink="http://www.w3.org/1999/xlink" width="512" height="512">
	<defs>
		<linearGradient id="gradient_0" gradientUnits="userSpaceOnUse" x1="442.75" y1="184.75" x2="457.53201" y2="791.05798">
			<stop offset="0" stop-color="#E2F5D4"/>
			<stop offset="1" stop-color="#6DDAF6"/>
		</linearGradient>
	</defs>
	<path fill="url(#gradient_0)" transform="scale(0.5 0.5)" d="M-0 908.017L0 -0L833.065 0L865.646 0L1024 0L1024 144.125L1024 144.391L1024 154.683L1024 176.826L1024 192.328L1024 1024L118.658 1024L113.835 1024L-0 1024L0 909.368L-0 908.017ZM833.065 0L832.698 0.227027C829.17 2.32397 824.586 3.0515 820.657 4.09431C816.503 5.1967 812.361 6.57899 808.288 7.9531C784.957 15.8247 763.67 34.7542 749.916 54.8761C745.838 60.8414 742.451 67.4218 739.991 74.2169C739.423 75.7852 738.015 81.5259 736.925 82.4539C736.813 82.5491 736.631 82.4648 736.485 82.4703C728.832 82.7564 720.948 82.8125 713.386 84.116C682.937 89.3643 655.21 113.43 644.734 142.271C636.758 164.755 637.941 186.508 647.419 208.4C651.812 214.681 655.603 221.5 660.25 227.579C664.277 232.847 669.136 237.617 674.246 241.832C680.91 247.331 688.277 252.194 695.961 256.146C698.148 257.271 700.41 258.245 702.75 259.005C703.131 259.128 705.82 259.819 705.96 260C706.21 260.321 706.035 264.574 706.062 265.5C706.176 269.312 706.698 273.029 707.482 276.759C713.16 303.767 737.19 329.837 764.75 334.983C771.913 336.321 779.268 336.579 786.533 336.317C790.51 336.174 794.743 335.568 798.702 335.749C804.393 345.221 808.804 356.083 815.226 365.007L816.272 366.697L818.071 369.874C821.059 376.062 824.321 382.167 826.989 388.5C831.335 398.816 834.574 409.216 837.965 419.854C842.537 438.833 847.003 458.035 848.936 477.5C850.038 488.591 849.901 499.759 849.71 510.885C849.562 519.538 849.681 528.336 848.873 536.953C845.924 568.412 837.603 598.354 825.738 627.558C818.54 645.276 810.346 662.443 800.332 678.764C786.672 701.028 770.121 719.828 752.924 739.344C744.142 747.201 703.961 785.031 695.04 786.742C693.858 785.652 693.6 785.17 691.892 785.021C684.853 784.408 676.946 785.464 669.862 785.787C657.177 786.367 644.583 786.668 631.886 786.231C616.687 785.707 600.938 784.053 586.25 780.006C567.599 774.868 549.654 766.959 532.515 758.073C509.767 746.279 488.108 732.492 468.306 716.211C460.78 710.023 453.396 703.903 446.739 696.765C428.019 711.162 407.228 723.243 386.726 734.883C382.511 737.277 377.73 740.855 373.242 742.49C369.741 743.536 341.742 755.401 340.721 757.153C334.759 759.944 328.37 761.875 322.196 764.147C317.447 765.895 312.495 768.219 307.622 769.503L289.551 802.5C290.152 802.52 290.452 802.354 290.998 802.128C291.886 803.794 292.048 804.447 291.531 806.26L290.943 808.111L284.523 811.673C283.445 812.351 282.291 814.792 281.602 815.898C279.131 818.479 277.433 821.87 275.558 824.897C271.446 831.537 267.584 838.32 263.617 845.047C252.042 864.672 241.178 884.631 229.961 904.449C225.591 912.169 220.715 919.588 216.374 927.346C213.911 931.749 212.571 937.165 209.898 941.25C210.061 942.226 210.205 942.828 210.666 943.711C211.194 944.722 211.193 945.277 211.25 946.395L210.679 946.791C209.067 948.194 208.718 950.878 208.361 952.877L207.25 953.599C205.699 952.763 205.548 951.993 204.688 950.58C204.145 949.689 203.285 949.305 202.412 948.79C202.111 950.096 201.792 951.86 201.03 952.979C200.131 954.301 198.424 955.455 197.207 956.49C194.182 959.062 191.137 961.61 188.089 964.154C173.209 976.572 158.281 988.959 143.326 1001.29C139.413 1004.51 119.923 1018.95 118.646 1022.25C118.435 1022.79 118.583 1023.45 118.658 1024L1024 1024L1024 192.328L1024 176.826L1024 154.683L1024 144.391L1024 144.125L1024 0L865.646 0L833.065 0ZM-0 908.017L0 909.368L0.388869 909.146L1.0208 908.752C4.05097 906.905 6.37461 904.079 8.78658 901.507C10.3036 902.151 11.8396 902.556 13.4307 902.977C17.922 900.596 22.2812 896.003 26.1461 892.639C30.8639 888.531 35.7382 884.607 40.5487 880.609C55.4204 868.25 70.7373 856.423 85.5822 844.027C99.416 832.475 112.708 820.032 127.452 809.631C128.333 811.238 127.668 812.121 128.75 813.45L155.835 810.357C163.499 799.896 169.25 787.687 175.024 776.114C176.692 772.843 178.232 769.062 180.262 766.024C181.818 763.693 184.231 761.731 186.001 759.497C191.255 752.863 196.271 746.025 201.307 739.225C221.674 711.729 242.702 684.648 261.882 656.302C233.024 656.701 204.345 664.485 177.3 674.148C172.369 675.91 164.526 677.982 160.688 681.671C159.97 682.361 159.507 683.125 159.052 684L157.983 681.424L158.224 680.927L158.647 680.11C160.986 675.529 164.592 671.672 167.641 667.539C176.136 656.019 184.913 644.796 193.629 633.449C191.855 627.837 190.954 621.819 189.39 616.107C186.237 604.599 183.001 593.287 180.677 581.564C172.388 539.754 171.613 495.816 178.62 453.738C185.537 412.208 201.873 373.102 224.151 337.519C236.961 317.059 251.601 297.777 268.529 280.517C285.974 262.731 305.246 247.594 325.463 233.151L361.952 211.69C366.498 208.921 371.567 206.806 376.421 204.622C391.824 197.689 408.164 192.575 424.5 188.374C428.952 187.229 433.699 185.663 438.254 185.072C443.899 183.419 449.629 182.478 455.387 181.349C501.102 172.383 550.586 175.992 595.155 189.039C601.826 190.992 609.266 192.812 615.567 195.669C622.806 197.634 630.172 200.524 636.892 203.839C639.691 205.219 642.357 207.1 645.214 208.307C646.302 208.767 646.267 208.852 647.419 208.4C637.941 186.508 636.758 164.755 644.734 142.271C655.21 113.43 682.937 89.3643 713.386 84.116C720.948 82.8125 728.832 82.7564 736.485 82.4703C736.631 82.4648 736.813 82.5491 736.925 82.4539C738.015 81.5259 739.423 75.7852 739.991 74.2169C742.451 67.4218 745.838 60.8414 749.916 54.8761C763.67 34.7542 784.957 15.8247 808.288 7.9531C812.361 6.57899 816.503 5.1967 820.657 4.09431C824.586 3.0515 829.17 2.32397 832.698 0.227027L833.065 0L-0 -0L0 908.017ZM193.629 633.449C184.913 644.796 176.136 656.019 167.641 667.539C164.592 671.672 160.986 675.529 158.647 680.11L158.224 680.927L157.983 681.424L159.052 684C159.507 683.125 159.97 682.361 160.688 681.671C164.526 677.982 172.369 675.91 177.3 674.148C204.345 664.485 233.024 656.701 261.882 656.302C242.702 684.648 221.674 711.729 201.307 739.225C196.271 746.025 191.255 752.863 186.001 759.497C184.231 761.731 181.818 763.693 180.262 766.024C178.232 769.062 176.692 772.843 175.024 776.114C169.25 787.687 163.499 799.896 155.835 810.357L128.75 813.45C127.668 812.121 128.333 811.238 127.452 809.631C112.708 820.032 99.416 832.475 85.5822 844.027C70.7373 856.423 55.4204 868.25 40.5487 880.609C35.7382 884.607 30.8639 888.531 26.1461 892.639C22.2812 896.003 17.922 900.596 13.4307 902.977C11.8396 902.556 10.3036 902.151 8.78658 901.507C6.37461 904.079 4.05097 906.905 1.0208 908.752L0.388869 909.146L0 909.368L-0 1024L113.835 1024L118.658 1024C118.583 1023.45 118.435 1022.79 118.646 1022.25C119.923 1018.95 139.413 1004.51 143.326 1001.29C158.281 988.959 173.209 976.572 188.089 964.154C191.137 961.61 194.182 959.062 197.207 956.49C198.424 955.455 200.131 954.301 201.03 952.979C201.792 951.86 202.111 950.096 202.412 948.79C203.285 949.305 204.145 949.689 204.688 950.58C205.548 951.993 205.699 952.763 207.25 953.599L208.361 952.877C208.718 950.878 209.067 948.194 210.679 946.791L211.25 946.395C211.193 945.277 211.194 944.722 210.666 943.711C210.205 942.828 210.061 942.226 209.898 941.25C212.571 937.165 213.911 931.749 216.374 927.346C220.715 919.588 225.591 912.169 229.961 904.449C241.178 884.631 252.042 864.672 263.617 845.047C267.584 838.32 271.446 831.537 275.558 824.897C277.433 821.87 279.131 818.479 281.602 815.898C282.291 814.792 283.445 812.351 284.523 811.673L290.943 808.111L291.531 806.26C292.048 804.447 291.886 803.794 290.998 802.128C290.452 802.354 290.152 802.52 289.551 802.5L307.622 769.503C312.495 768.219 317.447 765.895 322.196 764.147C328.37 761.875 334.759 759.944 340.721 757.153C341.742 755.401 369.741 743.536 373.242 742.49C377.73 740.855 382.511 737.277 386.726 734.883C407.228 723.243 428.019 711.162 446.739 696.765C462.139 683.71 476.964 669.913 489.637 654.151C499.901 641.384 508.806 627.001 516.662 612.636C521.266 604.218 526.444 595.285 528.201 585.75C529.272 579.936 528.257 573.31 527.511 567.5C524.885 547.028 519.863 528.661 507.962 511.517L498.352 499.983C491.256 493.107 482.854 487.579 474.5 482.361C469.794 479.421 464.98 476.138 459.683 474.365C454.02 470.369 448.611 466.419 441.792 464.666C435.02 462.925 426.237 463.979 419.193 463.981C406.002 463.985 392.81 463.999 379.619 463.985C371.134 463.976 362.541 464.261 354.094 463.407C349.05 463.525 344.034 463.151 338.995 463.108C336.655 463.089 333.736 462.909 331.489 463.615C328.554 464.538 326.243 466.726 324.175 468.917L193.629 633.449Z"/>
	<path fill="#E7F7D2" transform="scale(0.5 0.5)" d="M438.254 185.072C443.899 183.419 449.629 182.478 455.387 181.349C501.102 172.383 550.586 175.992 595.155 189.039C601.826 190.992 609.266 192.812 615.567 195.669C614.23 195.677 613.013 195.758 611.75 195.245L610.5 194.75C609.385 194.56 608.898 194.476 607.859 193.904L607.375 193.625L606.5 193.745C605.627 193.165 605 193.012 604 192.745L603.25 193.245C601.581 193.245 601.551 193.286 600.255 192.25C599.269 192.269 598.462 192.228 597.503 191.998C596.775 191.823 596.362 191.688 595.608 191.84L594.997 191.998L594.42 192.137L594 192.245L592.5 191.245C591.446 191.948 590.87 191.883 589.633 191.883L584.375 191.875L583.75 191.5L582.875 191.375L582.255 190.75L580 191L579.255 190.25C578.118 190.412 577.019 190.375 575.875 190.375L575.5 190L574.875 189.875L574.255 189.25L574.245 189.75L573.625 190.125L574.245 192.5L573.951 192.81C572.862 193.899 572.513 194.245 571 194.245C570.054 194.876 570.063 194.745 569 194.745C567.976 195.428 567.691 195.245 566.5 195.245C565.364 194.49 564.684 194.882 563.5 194L562.875 194.498L562.5 194.25L561.5 194.123C560.862 193.647 560.212 193.349 559.5 193L558.875 193.498L558.378 193L558 192.5L557.25 193.245C556.6 192.277 556.267 192.256 555.255 191.75L555.503 191.002L556.25 190.755C556.674 189.496 556.936 188.534 556.5 187.245L555.75 187.745L554.25 186.5C553.069 187.006 553.692 186.875 552.375 186.875L551.755 186.25C550.545 186.422 551.171 186.375 549.875 186.375L549.255 185.75C548.625 185.834 548.036 185.883 547.398 185.883L537.625 185.875L535.469 185.938L535 186L534.255 185.25C533.045 185.422 533.671 185.375 532.375 185.375C531.475 184.835 530.423 184.724 529.375 184.875C528.429 185.011 527.981 185.316 526.984 185.153C525.475 184.907 527.022 185.066 525.523 184.93L524.875 184.875L524 184.75C522.383 185.817 520.944 184.949 519 186.245L518.375 185.625L517.75 186.245L517 185.5L516.375 185.998C515.661 185.465 515.595 185.655 514.75 185.745L514.375 185.125L513.5 185.745L512.875 185.125L512.125 185.625L512.245 187.25L510.75 188.245C509.523 186.709 508.83 187.324 507.5 186L506.75 186.745L506 186C505.278 186.575 505.641 186.498 505.002 186.498L504.875 185.625L504.375 185.998L503.875 185.625C503.661 186.655 502.734 187.261 501.998 187.998C501.181 188.192 500.444 188.27 499.825 188.888L499.5 189.245C498.419 188.525 497.83 187.291 496.75 186.745C496.746 187.706 496.961 187.782 496.25 188.5L495.502 188.498L495.375 187.625L494.75 188.245L494 187.5L493.375 187.998L493 187.75C491.977 187.743 492.174 187.669 491.5 187L490.75 187.745L490 187L489.25 187.745L488.5 187L487.875 187.498L487.5 187.25C487.037 187.372 486.487 187.586 486.002 187.498L485.125 187.248L484.625 187.498L483.75 187.245L482.75 188.245L482 187.5L481.25 188.245L480.5 187.5L479.75 188.245L479 187.5L478.375 187.998C477.78 187.605 478.142 187.797 477.25 187.5L476.25 188.745L475.5 188L474.75 188.745L474 188L473.375 188.498L472.875 188.125C471.958 188.518 472.149 188.321 471.57 188.896L471.25 189.245L470.5 188.5L469.75 189.245L469 188.5L468.375 188.998C467.78 188.605 468.142 188.797 467.25 188.5L466.25 189.745L465.5 189L464.875 189.498C464.28 189.105 464.642 189.297 463.75 189L462.75 190.245L462 189.5L461.25 190.245L460.5 189.5L459.875 189.998L459.377 189.5L459.125 189.125L458 190.245L457.375 189.625L456.75 190.245L456 189.5C455.278 190.075 455.641 189.998 455.002 189.998L454.875 189.125L454.25 189.745L453.5 189L452.875 189.498C452.279 189.104 451.639 188.816 451 188.5L450.25 189.245L449.5 188.5L448.75 189.245L448 188.5L447.25 189.245L446.5 188.5C445.778 189.075 446.141 188.998 445.502 188.998L445.5 188.25L444.5 187.5L443.75 188.245L443 187.5L442.375 187.998C441.868 187.663 442.11 187.785 441.478 187.547L441.002 187.375L440.755 186.5L441.502 185.502C442.317 185.336 442.515 185.245 443.25 184.755L443 184.745C441.235 185.35 440.126 185.216 438.254 185.072Z"/>
	<path transform="scale(0.5 0.5)" d="M553.945 505.507C552.27 504.169 550.64 502.738 549.25 501.1C543.769 494.641 540.949 484.236 539.75 475.991C539.375 473.414 538.887 470.462 539.193 467.86C539.806 462.654 544.013 457.215 547.065 453.149C551.598 447.11 556.585 441.448 561.623 435.83C566.196 430.73 570.83 425.507 576.11 421.125C581.458 416.687 587.418 414.146 594.468 414.798C599.088 416.046 603.598 417.338 607.909 419.454C623.362 427.038 634.898 441.028 643.382 455.69C655.975 477.452 657.49 500.477 657.544 524.992C657.56 532.01 657.995 539.429 656.951 546.373C636.368 538.216 615.603 530.376 594.893 522.54C581.299 517.396 566.349 513.098 553.945 505.507Z"/>
	<defs>
		<linearGradient id="gradient_1" gradientUnits="userSpaceOnUse" x1="244.75" y1="490.75" x2="332.379" y2="186.899">
			<stop offset="0" stop-color="black"/>
			<stop offset="1" stop-color="#082448"/>
		</linearGradient>
	</defs>
	<path fill="url(#gradient_1)" transform="scale(0.5 0.5)" d="M431.573 253.726C439.691 251.478 447.623 248.981 455.906 247.328C468.677 244.778 482.281 242.794 495.32 242.487C529.825 241.673 566.658 250.397 596.753 267.365C612.256 276.105 626.538 286.392 639.098 299.033C663.242 323.33 679.264 354.313 688.305 387.134C690.829 396.299 693.543 406.737 694.169 416.25L693.5 416.856C693.083 416.754 692.61 416.784 692.25 416.551C691.635 416.154 690.715 414.78 690.202 414.189C688.162 411.837 686.16 409.453 684.066 407.148C680.599 403.329 676.959 399.726 673.079 396.327C662.529 387.087 650.304 379.206 637.553 373.383C626.65 368.405 614.626 364.704 602.682 363.41C598.085 362.912 593.398 362.757 588.779 362.978C586.481 363.087 579.728 364.743 578.037 363.881C577.37 363.54 576.465 362.44 575.879 361.902C571.714 356.312 567.437 350.866 562.184 346.251C556.437 340.577 549.374 336.717 542.077 333.399C522.744 324.608 500.945 320.447 479.728 320.622C429.749 321.033 379.798 338.524 339.851 368.408C332.142 374.176 324.041 380.449 317.452 387.479L316.284 388.923C303.407 402.826 291.261 416.547 280.605 432.299C271.099 446.352 262.389 461.264 253.972 475.993C250.343 482.343 247.02 488.813 243.173 495.043C244.859 471.857 251.703 446.641 259.94 425C282.889 364.704 326.239 309.969 382.044 277.122C392.117 271.194 402.525 265.713 413.267 261.094C419.151 258.564 425.319 256.565 431.13 253.93L431.573 253.726Z"/>
	<path fill="#01A3FE" transform="scale(0.5 0.5)" d="M316.284 388.923L317.452 387.479C324.041 380.449 332.142 374.176 339.851 368.408C379.798 338.524 429.749 321.033 479.728 320.622C500.945 320.447 522.744 324.608 542.077 333.399C549.374 336.717 556.437 340.577 562.184 346.251C567.437 350.866 571.714 356.312 575.879 361.902C574.924 363.189 574.718 363.448 573.269 364.096C578.021 373.504 583.775 382.534 589.456 391.411C592.723 396.515 596.506 401.566 598.95 407.12C597.661 409.87 596.166 412.286 594.468 414.798C587.418 414.146 581.458 416.687 576.11 421.125C570.83 425.507 566.196 430.73 561.623 435.83C556.585 441.448 551.598 447.11 547.065 453.149C544.013 457.215 539.806 462.654 539.193 467.86C538.887 470.462 539.375 473.414 539.75 475.991C540.949 484.236 543.769 494.641 549.25 501.1C550.64 502.738 552.27 504.169 553.945 505.507C550.452 506.555 546.825 506.097 543.233 506.422C538.198 506.878 533.209 507.844 528.19 508.461C521.805 509.246 513.903 509.022 507.962 511.517L498.352 499.983C491.256 493.107 482.854 487.579 474.5 482.361C469.794 479.421 464.98 476.138 459.683 474.365C454.02 470.369 448.611 466.419 441.792 464.666C435.02 462.925 426.237 463.979 419.193 463.981C406.002 463.985 392.81 463.999 379.619 463.985C371.134 463.976 362.541 464.261 354.094 463.407L354 463.152C352.424 462.164 349.322 453.939 348.247 451.759C341.309 437.684 334.568 423.498 327.48 409.5C323.974 402.576 320.825 395.235 316.284 388.923Z"/>
	<path fill="#E7F7D2" transform="scale(0.5 0.5)" d="M562.184 346.251C567.437 350.866 571.714 356.312 575.879 361.902C574.924 363.189 574.718 363.448 573.269 364.096C571.735 361.26 570.183 358.442 568.38 355.765C566.686 353.251 562.578 349.087 562.184 346.251Z"/>
	<path fill="#FEB545" transform="scale(0.5 0.5)" d="M354 463.152C358.313 451.397 369.372 441.505 378.509 433.272C403.241 410.989 430.649 391.979 460.927 377.993C481.087 368.681 504.585 362.929 526.185 370.956C534.135 373.911 541.808 379.336 545.234 387.355C549.263 396.786 546.644 406.832 542.744 415.82L498.352 499.983C491.256 493.107 482.854 487.579 474.5 482.361C469.794 479.421 464.98 476.138 459.683 474.365C454.02 470.369 448.611 466.419 441.792 464.666C435.02 462.925 426.237 463.979 419.193 463.981C406.002 463.985 392.81 463.999 379.619 463.985C371.134 463.976 362.541 464.261 354.094 463.407L354 463.152Z"/>
	<path transform="scale(0.5 0.5)" d="M511.934 392.156C514.922 392.116 517.876 392.406 520.52 393.89C524.457 396.101 528.113 400.71 529.28 405.092C530.362 409.157 530.09 413.146 527.796 416.759C524.649 421.717 520.231 423.811 514.678 424.978C510.874 425.13 507.592 424.767 504.295 422.669C500.315 420.137 497.777 416.173 496.933 411.567C496.111 407.08 497.223 402.617 499.874 398.912C502.98 394.574 506.885 393.104 511.934 392.156Z"/>
	<defs>
		<linearGradient id="gradient_2" gradientUnits="userSpaceOnUse" x1="362.25" y1="212.75" x2="329.297" y2="640.20001">
			<stop offset="0" stop-color="#F6F9F7"/>
			<stop offset="1" stop-color="#7BDEF5"/>
		</linearGradient>
	</defs>
	<path fill="url(#gradient_2)" transform="scale(0.5 0.5)" d="M325.463 233.151L361.952 211.69L362.327 212.497L361.783 213.75L363 214.745L363.42 214.637L365.25 214.245L366 214.745C366.962 215.325 367.947 215.649 369.002 215.998L369.768 216.263C370.899 216.64 371.942 216.779 373.125 216.875L374.375 217.875L374.75 217.245L375.297 217.591C376.353 218.229 376.896 218.551 378.125 218.375L379.375 219.375L379.75 218.745L380.32 219.099C381.197 219.628 380.851 219.436 381.875 219.875L382.75 219.5L383.5 220C384.549 219.883 384.662 219.794 385.5 220.5L386.25 221.245L386.875 220.748C387.403 220.978 387.893 221.179 388.375 221.498L390.377 221.5L391.125 222.375L392.125 222.375L392.875 222.875L393.755 222.75L394.375 223.375L395.25 223.5L396 224C397.902 223.789 399.172 224.467 400.755 223.75L401.75 225L402.344 224.938C402.912 224.886 404.085 224.718 404.625 224.875C405.329 225.08 405.044 225.54 405.969 225.438L409.255 225.25L409.875 225.875C411.014 225.875 411.174 225.778 412.125 225.248L412.875 225.375L413.755 225.25L414.75 226.5L415.625 226.375C417.007 226.259 418.359 226.435 419.755 226.25L420.75 227.5C421.8 226.87 421.633 226.792 422.875 226.875C424.089 226.956 423.711 227.039 424.5 226.25L425 227C425.475 227.611 425.454 227.375 426.375 227.375L427.25 226.745C428.07 227.078 427.697 226.864 428.375 227.375C430.056 227.375 433.587 226.904 434.875 227.875L435.57 227.867C436.595 227.867 436.192 227.849 437.25 228L437.75 229L438.625 228.875C439.84 228.779 439.839 228.858 440.875 229.375L441.377 229.5L441.875 229.875L442.502 229.998C443.707 230.399 445.225 231.291 445.875 232.375L446.875 232.375C447.734 232.44 447.514 232.527 448.158 233.255C448.871 234.063 449.537 234.505 450.5 235C452.484 234.78 453.955 236.702 455.743 237.597C456.498 237.976 456.832 238.254 457.375 238.875L458.755 238.75L459.315 239.232C460.126 239.88 460.173 239.671 461.002 239.998C461.9 240.351 462.232 240.716 462.755 241.5C462.755 242.563 462.624 242.554 463.255 243.5L462.25 244.755L460.75 244.255L460.125 244.875L459.75 244.255L458.297 245.24C456.819 246.225 456.192 246.199 454.625 246.625L453.75 247L453 246.877L452.25 247.5L451.5 247.377C450.631 247.364 449.332 247.757 448.508 248.064C447.702 248.364 446.698 248.64 445.875 248.875C444.983 249.13 444.167 249.217 443.25 249.5C442.352 249.778 441.421 249.962 440.5 250.25L439.25 250.5C438.162 250.718 437.48 250.991 436.5 251.5L435.5 251.75L431.223 253.139L431.573 253.726L431.13 253.93C425.319 256.565 419.151 258.564 413.267 261.094C402.525 265.713 392.117 271.194 382.044 277.122C326.239 309.969 282.889 364.704 259.94 425C251.703 446.641 244.859 471.857 243.173 495.043C247.02 488.813 250.343 482.343 253.972 475.993C262.389 461.264 271.099 446.352 280.605 432.299C291.261 416.547 303.407 402.826 316.284 388.923C320.825 395.235 323.974 402.576 327.48 409.5C334.568 423.498 341.309 437.684 348.247 451.759C349.322 453.939 352.424 462.164 354 463.152L354.094 463.407C349.05 463.525 344.034 463.151 338.995 463.108C336.655 463.089 333.736 462.909 331.489 463.615C328.554 464.538 326.243 466.726 324.175 468.917L193.629 633.449C191.855 627.837 190.954 621.819 189.39 616.107C186.237 604.599 183.001 593.287 180.677 581.564C172.388 539.754 171.613 495.816 178.62 453.738C185.537 412.208 201.873 373.102 224.151 337.519C236.961 317.059 251.601 297.777 268.529 280.517C285.974 262.731 305.246 247.594 325.463 233.151Z"/>
	<path fill="#ED3F00" transform="scale(0.5 0.5)" d="M193.629 633.449L324.175 468.917C326.243 466.726 328.554 464.538 331.489 463.615C333.736 462.909 336.655 463.089 338.995 463.108C344.034 463.151 349.05 463.525 354.094 463.407C362.541 464.261 371.134 463.976 379.619 463.985C392.81 463.999 406.002 463.985 419.193 463.981C426.237 463.979 435.02 462.925 441.792 464.666C448.611 466.419 454.02 470.369 459.683 474.365C464.98 476.138 469.794 479.421 474.5 482.361C482.854 487.579 491.256 493.107 498.352 499.983L507.962 511.517C519.863 528.661 524.885 547.028 527.511 567.5C528.257 573.31 529.272 579.936 528.201 585.75C526.444 595.285 521.266 604.218 516.662 612.636C508.806 627.001 499.901 641.384 489.637 654.151C476.964 669.913 462.139 683.71 446.739 696.765C428.019 711.162 407.228 723.243 386.726 734.883C382.511 737.277 377.73 740.855 373.242 742.49C369.741 743.536 341.742 755.401 340.721 757.153C334.759 759.944 328.37 761.875 322.196 764.147C317.447 765.895 312.495 768.219 307.622 769.503L289.551 802.5C290.152 802.52 290.452 802.354 290.998 802.128C291.886 803.794 292.048 804.447 291.531 806.26L290.943 808.111L284.523 811.673C283.445 812.351 282.291 814.792 281.602 815.898C279.131 818.479 277.433 821.87 275.558 824.897C271.446 831.537 267.584 838.32 263.617 845.047C252.042 864.672 241.178 884.631 229.961 904.449C225.591 912.169 220.715 919.588 216.374 927.346C213.911 931.749 212.571 937.165 209.898 941.25C210.061 942.226 210.205 942.828 210.666 943.711C211.194 944.722 211.193 945.277 211.25 946.395L210.679 946.791C209.067 948.194 208.718 950.878 208.361 952.877L207.25 953.599C205.699 952.763 205.548 951.993 204.688 950.58C204.145 949.689 203.285 949.305 202.412 948.79C202.111 950.096 201.792 951.86 201.03 952.979C200.131 954.301 198.424 955.455 197.207 956.49C194.182 959.062 191.137 961.61 188.089 964.154C173.209 976.572 158.281 988.959 143.326 1001.29C139.413 1004.51 119.923 1018.95 118.646 1022.25C118.435 1022.79 118.583 1023.45 118.658 1024L113.835 1024L-0 1024L0 909.368L0.388869 909.146L1.0208 908.752C4.05097 906.905 6.37461 904.079 8.78658 901.507C10.3036 902.151 11.8396 902.556 13.4307 902.977C17.922 900.596 22.2812 896.003 26.1461 892.639C30.8639 888.531 35.7382 884.607 40.5487 880.609C55.4204 868.25 70.7373 856.423 85.5822 844.027C99.416 832.475 112.708 820.032 127.452 809.631C128.333 811.238 127.668 812.121 128.75 813.45L155.835 810.357C163.499 799.896 169.25 787.687 175.024 776.114C176.692 772.843 178.232 769.062 180.262 766.024C181.818 763.693 184.231 761.731 186.001 759.497C191.255 752.863 196.271 746.025 201.307 739.225C221.674 711.729 242.702 684.648 261.882 656.302C233.024 656.701 204.345 664.485 177.3 674.148C172.369 675.91 164.526 677.982 160.688 681.671C159.97 682.361 159.507 683.125 159.052 684L157.983 681.424L158.224 680.927L158.647 680.11C160.986 675.529 164.592 671.672 167.641 667.539C176.136 656.019 184.913 644.796 193.629 633.449ZM127.452 809.631C112.708 820.032 99.416 832.475 85.5822 844.027C70.7373 856.423 55.4204 868.25 40.5487 880.609C35.7382 884.607 30.8639 888.531 26.1461 892.639C22.2812 896.003 17.922 900.596 13.4307 902.977C11.8396 902.556 10.3036 902.151 8.78658 901.507C6.37461 904.079 4.05097 906.905 1.0208 908.752L0.388869 909.146L0 909.368L-0 1024L113.835 1024C114.37 1013.74 116.354 1003.88 118.109 993.786C119.835 983.861 121.356 973.904 123.07 963.977C119.01 967.732 113.692 970.788 109.162 973.991C100.235 980.304 91.3628 986.758 82.5931 993.289C75.6229 998.48 68.7801 1003.85 62.0335 1009.33C56.6088 1013.73 51.4785 1018.2 45.6285 1022.07C47.7227 1015.69 51.8893 1009.42 54.9781 1003.41C61.6227 990.491 68.1415 977.509 74.8645 964.624C93.8175 928.302 112.343 891.744 131.294 855.419C139.194 840.277 148.323 825.685 155.835 810.357L128.75 813.45C127.668 812.121 128.333 811.238 127.452 809.631Z"/>
	<path transform="scale(0.5 0.5)" d="M202.412 948.79C203.34 938.692 203.918 928.581 206.6 918.745C210.212 905.494 217.12 892.747 223.023 880.382C233.011 859.46 243.473 838.69 252.748 817.442C241.968 817.908 231.178 818.032 220.395 818.435C212.992 818.711 205.598 818.981 198.188 818.999C193.666 819.009 189.124 819.159 184.649 818.414C190.931 813.952 198.313 810.737 205.254 807.423C227.468 796.819 250.224 788.56 273.339 780.238C280.397 777.697 287.459 775.235 294.613 772.974C298.922 771.612 303.105 770.005 307.622 769.503L289.551 802.5C290.152 802.52 290.452 802.354 290.998 802.128C291.886 803.794 292.048 804.447 291.531 806.26L290.943 808.111L284.523 811.673C283.445 812.351 282.291 814.792 281.602 815.898C279.131 818.479 277.433 821.87 275.558 824.897C271.446 831.537 267.584 838.32 263.617 845.047C252.042 864.672 241.178 884.631 229.961 904.449C225.591 912.169 220.715 919.588 216.374 927.346C213.911 931.749 212.571 937.165 209.898 941.25C210.061 942.226 210.205 942.828 210.666 943.711C211.194 944.722 211.193 945.277 211.25 946.395L210.679 946.791C209.067 948.194 208.718 950.878 208.361 952.877L207.25 953.599C205.699 952.763 205.548 951.993 204.688 950.58C204.145 949.689 203.285 949.305 202.412 948.79Z"/>
	<path fill="#C90022" transform="scale(0.5 0.5)" d="M193.629 633.449L324.175 468.917C326.243 466.726 328.554 464.538 331.489 463.615C333.736 462.909 336.655 463.089 338.995 463.108C344.034 463.151 349.05 463.525 354.094 463.407C362.541 464.261 371.134 463.976 379.619 463.985C392.81 463.999 406.002 463.985 419.193 463.981C426.237 463.979 435.02 462.925 441.792 464.666C448.611 466.419 454.02 470.369 459.683 474.365L459.808 474.772C461.251 479.24 464.335 483.011 465.784 487.635C472.233 508.207 466.888 528.705 457.563 547.406C447.148 568.291 433.107 587.561 417.776 605.096C411.812 611.918 405.517 619.056 398.539 624.851C385.255 635.884 369.574 644.816 353.18 650.284C331.705 657.448 309.755 656.662 287.424 656.559C278.978 656.52 270.291 656.864 261.882 656.302C233.024 656.701 204.345 664.485 177.3 674.148C172.369 675.91 164.526 677.982 160.688 681.671C159.97 682.361 159.507 683.125 159.052 684L157.983 681.424L158.224 680.927L158.647 680.11C160.986 675.529 164.592 671.672 167.641 667.539C176.136 656.019 184.913 644.796 193.629 633.449Z"/>
	<defs>
		<linearGradient id="gradient_3" gradientUnits="userSpaceOnUse" x1="9.75" y1="900.75" x2="228.035" y2="631.53497">
			<stop offset="0" stop-color="black"/>
			<stop offset="1" stop-color="#14002A"/>
		</linearGradient>
	</defs>
	<path fill="url(#gradient_3)" transform="scale(0.5 0.5)" d="M159.052 684C159.507 683.125 159.97 682.361 160.688 681.671C164.526 677.982 172.369 675.91 177.3 674.148C204.345 664.485 233.024 656.701 261.882 656.302C242.702 684.648 221.674 711.729 201.307 739.225C196.271 746.025 191.255 752.863 186.001 759.497C184.231 761.731 181.818 763.693 180.262 766.024C178.232 769.062 176.692 772.843 175.024 776.114C169.25 787.687 163.499 799.896 155.835 810.357L128.75 813.45C127.668 812.121 128.333 811.238 127.452 809.631C112.708 820.032 99.416 832.475 85.5822 844.027C70.7373 856.423 55.4204 868.25 40.5487 880.609C35.7382 884.607 30.8639 888.531 26.1461 892.639C22.2812 896.003 17.922 900.596 13.4307 902.977C11.8396 902.556 10.3036 902.151 8.78658 901.507C6.37461 904.079 4.05097 906.905 1.0208 908.752L0.388869 909.146L0 909.368L-0 908.017C2.3938 906.094 5.14618 904.196 7.27743 902.001C11.6112 897.538 14.9418 891.809 18.5474 886.75C25.2694 877.319 31.959 867.842 38.7211 858.442C58.5373 830.898 78.0707 803.148 97.935 775.641C110.605 758.096 123.137 740.417 135.981 723C143.953 712.188 152.642 701.742 159.986 690.5C160.05 688.077 159.863 686.291 159.052 684ZM127.452 809.631C128.333 811.238 127.668 812.121 128.75 813.45L155.835 810.357C163.499 799.896 169.25 787.687 175.024 776.114L174.333 775.912C172.929 775.474 172.388 775.211 171.523 774C171.473 773.046 171.531 772.562 171.938 771.694C167.13 774.961 162.678 779.494 158.25 783.319C150.547 789.975 142.752 796.522 135.045 803.172C133.085 804.864 131.14 806.582 129.123 808.206C128.707 808.541 127.622 809.183 127.452 809.631Z"/>
	<path fill="#01A3FE" fill-opacity="0.98823529" transform="scale(0.5 0.5)" d="M127.452 809.631C127.622 809.183 128.707 808.541 129.123 808.206C131.14 806.582 133.085 804.864 135.045 803.172C142.752 796.522 150.547 789.975 158.25 783.319C162.678 779.494 167.13 774.961 171.938 771.694C171.531 772.562 171.473 773.046 171.523 774C172.388 775.211 172.929 775.474 174.333 775.912L175.024 776.114C169.25 787.687 163.499 799.896 155.835 810.357L128.75 813.45C127.668 812.121 128.333 811.238 127.452 809.631Z"/>
	<path fill="#FEE884" transform="scale(0.5 0.5)" d="M238.188 229.293C266.78 201.341 299.99 178.566 335.221 159.805C362.183 145.448 390.466 135.855 419.915 128.014C445.812 121.119 473.611 115.361 500.453 114.492C535.022 113.373 570.304 120.251 603.5 129.512C617.332 133.371 630.987 138.09 644.734 142.271C636.758 164.755 637.941 186.508 647.419 208.4C646.267 208.852 646.302 208.767 645.214 208.307C642.357 207.1 639.691 205.219 636.892 203.839C630.172 200.524 622.806 197.634 615.567 195.669C609.266 192.812 601.826 190.992 595.155 189.039C550.586 175.992 501.102 172.383 455.387 181.349C449.629 182.478 443.899 183.419 438.254 185.072C433.699 185.663 428.952 187.229 424.5 188.374C408.164 192.575 391.824 197.689 376.421 204.622C371.567 206.806 366.498 208.921 361.952 211.69L325.463 233.151C323.043 231.974 308.215 234.892 304.5 235.488C294.523 237.087 284.475 238.168 274.447 239.379C270.135 239.9 265.251 241.024 260.932 240.774C253.201 240.328 246.344 231.733 238.718 229.446L238.188 229.293Z"/>
	<path fill="#FEB545" transform="scale(0.5 0.5)" d="M238.188 229.293L238.718 229.446C246.344 231.733 253.201 240.328 260.932 240.774C265.251 241.024 270.135 239.9 274.447 239.379C284.475 238.168 294.523 237.087 304.5 235.488C308.215 234.892 323.043 231.974 325.463 233.151C305.246 247.594 285.974 262.731 268.529 280.517C251.601 297.777 236.961 317.059 224.151 337.519C201.873 373.102 185.537 412.208 178.62 453.738C171.613 495.816 172.388 539.754 180.677 581.564C183.001 593.287 186.237 604.599 189.39 616.107C190.954 621.819 191.855 627.837 193.629 633.449C184.913 644.796 176.136 656.019 167.641 667.539C164.592 671.672 160.986 675.529 158.647 680.11L158.224 680.927L157.983 681.424C154.288 674.339 151.208 666.704 147.885 659.428C134.808 630.798 123.892 600.845 118.778 569.666C116.463 555.554 115.563 540.865 115.062 526.575C114.119 499.666 115.729 471.146 120.621 444.653C123.482 429.159 127.899 414.012 132.782 399.047C144.62 362.773 161.191 327.774 182.831 296.253C194.008 279.971 206.878 265.161 219.841 250.318C225.963 243.308 231.844 236.105 238.188 229.293Z"/>
	<path transform="scale(0.5 0.5)" d="M401.687 905.092L403 906.899L404.255 906.874C403.58 908.145 403.802 909.01 403.441 910.25C403.108 911.391 402.388 912.291 402.138 913.484C401.267 917.648 399.468 921.991 398.009 926C394.366 936.001 390.523 944.107 384.349 952.832C383.357 952.059 383.354 951.966 382.999 950.75C383.679 948.981 384.689 947.369 385.331 945.596C386.46 942.476 387.263 939.387 388.985 936.5C390.451 935.82 391.693 935.048 392.684 933.75L391.131 932.75C391.06 932.245 390.696 930.866 390.808 930.442C391.531 927.691 395.078 926.539 396.009 923.879C396.583 922.239 395.975 919.964 396.306 918.204C396.66 916.325 397.926 912.749 399.488 911.656L400.614 912.928L400.921 912.25L400 910.585L399.511 909.75C400.104 908.079 400.565 906.488 401.687 905.092Z"/>
	<path fill="#ED3F00" transform="scale(0.5 0.5)" d="M394.309 877.739C394.956 877.536 395.577 877.212 396.25 877.129C397.435 876.983 400.619 878.099 401.969 878.38C407.815 879.597 414.591 879.79 419.965 882.511C420.64 882.853 421.054 883.356 421.511 883.937C416.657 885.145 413.389 888.013 410.825 892.247C408.065 896.807 406.3 901.971 404.255 906.874L403 906.899L401.687 905.092C402.753 901.356 402.713 897.038 402.507 893.177C402.145 886.408 399.152 882.136 394.309 877.739Z"/>
	<path fill="#FEB545" transform="scale(0.5 0.5)" d="M897.952 417.054C905.86 442.995 909.468 470.834 910.14 497.901C910.594 516.202 910.229 534.673 908.012 552.86C902.659 596.773 887.509 641.198 866.774 680.164C858.911 694.938 850.015 708.841 840.391 722.522C833.067 732.932 825.599 743.093 816.863 752.373C815.373 751.233 813.979 750.33 812.228 749.633L811.525 749.364C808.921 748.342 806.016 748.38 803.25 748.35C797.765 748.292 792.28 748.436 786.874 749.437C784.613 749.856 780.93 751.219 778.768 751.054C777.267 750.939 774.836 745.83 772.922 744.91C771.445 744.2 768.726 744.078 767.081 743.804C761.839 742.93 757.642 741.944 752.924 739.344C770.121 719.828 786.672 701.028 800.332 678.764C810.346 662.443 818.54 645.276 825.738 627.558C837.603 598.354 845.924 568.412 848.873 536.953C849.681 528.336 849.562 519.538 849.71 510.885C849.901 499.759 850.038 488.591 848.936 477.5C847.003 458.035 842.537 438.833 837.965 419.854L839.29 419.966C849.206 420.684 859.578 419.921 869.523 419.723C875.064 419.613 880.606 419.501 886.143 419.263C889.039 419.139 892.25 419.175 895.077 418.559C896.34 418.283 896.988 417.884 897.952 417.054Z"/>
	<path fill="#FC781C" transform="scale(0.5 0.5)" d="M446.739 696.765C453.396 703.903 460.78 710.023 468.306 716.211C488.108 732.492 509.767 746.279 532.515 758.073C549.654 766.959 567.599 774.868 586.25 780.006C600.938 784.053 616.687 785.707 631.886 786.231C644.583 786.668 657.177 786.367 669.862 785.787C676.946 785.464 684.853 784.408 691.892 785.021C693.6 785.17 693.858 785.652 695.04 786.742C703.961 785.031 744.142 747.201 752.924 739.344C757.642 741.944 761.839 742.93 767.081 743.804C768.726 744.078 771.445 744.2 772.922 744.91C774.836 745.83 777.267 750.939 778.768 751.054C780.93 751.219 784.613 749.856 786.874 749.437C792.28 748.436 797.765 748.292 803.25 748.35C806.016 748.38 808.921 748.342 811.525 749.364L812.228 749.633C813.979 750.33 815.373 751.233 816.863 752.373C808.746 761.358 800.73 770.471 792.166 779.036C781.043 790.159 768.864 800.751 756.5 810.475C707.41 849.083 649.661 875.058 588.662 887.846C570.717 891.609 551.969 894.57 533.613 895.438C505.552 896.765 477.836 895.046 450.137 890.532C440.863 889.021 430.414 887.337 421.587 884.027L421.511 883.937C421.054 883.356 420.64 882.853 419.965 882.511C414.591 879.79 407.815 879.597 401.969 878.38C400.619 878.099 397.435 876.983 396.25 877.129C395.577 877.212 394.956 877.536 394.309 877.739C380.287 869.337 364.401 864.969 349.688 857.977C325.537 846.5 303.305 831.354 281.602 815.898C282.291 814.792 283.445 812.351 284.523 811.673L290.943 808.111L291.531 806.26C292.048 804.447 291.886 803.794 290.998 802.128C290.452 802.354 290.152 802.52 289.551 802.5L307.622 769.503C312.495 768.219 317.447 765.895 322.196 764.147C328.37 761.875 334.759 759.944 340.721 757.153C341.742 755.401 369.741 743.536 373.242 742.49C377.73 740.855 382.511 737.277 386.726 734.883C407.228 723.243 428.019 711.162 446.739 696.765ZM340.721 757.153L342.324 757.18C343.93 760.548 344.852 764.264 346.221 767.743C350.39 778.337 356.787 789.041 368.017 792.957L374.144 794.689C370.557 795.241 364.269 795.364 361.279 797.359C360.773 800.811 360.351 804.254 360.014 807.726C359.895 808.953 359.983 810.972 359.335 811.949L347.25 812.479L346.557 813.5C349.217 815.36 356.293 814.655 359.728 814.804C368.746 815.197 377.752 815.77 386.779 815.925C394.404 816.057 401.958 815.556 409.538 816.546C414.481 817.873 419.254 819.49 424.095 821.14C426.284 821.887 429.13 822.553 431.031 823.87C432.566 824.712 433.204 824.729 434.948 824.574C435.84 822.093 436.735 819.572 437.192 816.967C438.968 806.839 435.238 795.998 429.351 787.831C422.784 778.721 412.766 773.018 401.68 771.738C397.611 771.268 393.426 771.413 389.398 770.694L388.75 770.569C387.882 770.408 387.067 770.253 386.25 769.901C381.081 767.672 377.446 761.581 375.601 756.5C374.442 753.307 371.939 745.372 373.242 742.49C369.741 743.536 341.742 755.401 340.721 757.153Z"/>
	<path fill="#01A3FE" transform="scale(0.5 0.5)" d="M340.721 757.153L342.324 757.18C343.93 760.548 344.852 764.264 346.221 767.743C350.39 778.337 356.787 789.041 368.017 792.957L374.144 794.689C370.557 795.241 364.269 795.364 361.279 797.359C338.024 799.686 312.754 798.5 290.943 808.111L291.531 806.26C292.048 804.447 291.886 803.794 290.998 802.128C290.452 802.354 290.152 802.52 289.551 802.5L307.622 769.503C312.495 768.219 317.447 765.895 322.196 764.147C328.37 761.875 334.759 759.944 340.721 757.153Z"/>
	<path transform="scale(0.5 0.5)" d="M340.721 757.153C341.742 755.401 369.741 743.536 373.242 742.49C371.939 745.372 374.442 753.307 375.601 756.5C377.446 761.581 381.081 767.672 386.25 769.901C387.067 770.253 387.882 770.408 388.75 770.569L389.398 770.694C393.426 771.413 397.611 771.268 401.68 771.738C412.766 773.018 422.784 778.721 429.351 787.831C435.238 795.998 438.968 806.839 437.192 816.967C436.735 819.572 435.84 822.093 434.948 824.574C433.204 824.729 432.566 824.712 431.031 823.87C429.13 822.553 426.284 821.887 424.095 821.14C419.254 819.49 414.481 817.873 409.538 816.546C401.958 815.556 394.404 816.057 386.779 815.925C377.752 815.77 368.746 815.197 359.728 814.804C356.293 814.655 349.217 815.36 346.557 813.5L347.25 812.479L359.335 811.949C359.983 810.972 359.895 808.953 360.014 807.726C360.351 804.254 360.773 800.811 361.279 797.359C364.269 795.364 370.557 795.241 374.144 794.689L368.017 792.957C356.787 789.041 350.39 778.337 346.221 767.743C344.852 764.264 343.93 760.548 342.324 757.18L340.721 757.153ZM409.538 816.546C414.481 817.873 419.254 819.49 424.095 821.14C426.284 821.887 429.13 822.553 431.031 823.87L431.615 817.953C431.743 813.421 430.954 810.143 427.67 806.83C420.549 799.645 410.481 800.225 401.104 800.197C401.051 804.49 400.234 810.302 401.192 814.411L409.538 816.546Z"/>
	<path fill="#6DD3FE" fill-opacity="0.98823529" transform="scale(0.5 0.5)" d="M409.538 816.546L401.192 814.411C400.234 810.302 401.051 804.49 401.104 800.197C410.481 800.225 420.549 799.645 427.67 806.83C430.954 810.143 431.743 813.421 431.615 817.953L431.031 823.87C429.13 822.553 426.284 821.887 424.095 821.14C419.254 819.49 414.481 817.873 409.538 816.546Z"/>
	<path fill="#01A3FE" transform="scale(0.5 0.5)" d="M446.739 696.765C453.396 703.903 460.78 710.023 468.306 716.211C488.108 732.492 509.767 746.279 532.515 758.073C549.654 766.959 567.599 774.868 586.25 780.006C600.938 784.053 616.687 785.707 631.886 786.231C644.583 786.668 657.177 786.367 669.862 785.787C676.946 785.464 684.853 784.408 691.892 785.021C693.6 785.17 693.858 785.652 695.04 786.742C632.624 822.718 560.085 835.802 488.701 831.564C470.586 830.489 452.609 829.085 434.948 824.574C435.84 822.093 436.735 819.572 437.192 816.967C438.968 806.839 435.238 795.998 429.351 787.831C422.784 778.721 412.766 773.018 401.68 771.738C397.611 771.268 393.426 771.413 389.398 770.694L388.75 770.569C387.882 770.408 387.067 770.253 386.25 769.901C381.081 767.672 377.446 761.581 375.601 756.5C374.442 753.307 371.939 745.372 373.242 742.49C377.73 740.855 382.511 737.277 386.726 734.883C407.228 723.243 428.019 711.162 446.739 696.765Z"/>
	<defs>
		<linearGradient id="gradient_4" gradientUnits="userSpaceOnUse" x1="913.25" y1="22.25" x2="715.271" y2="305.97101">
			<stop offset="0" stop-color="#D8D2D3"/>
			<stop offset="1" stop-color="#A5BEE7"/>
		</linearGradient>
	</defs>
	<path fill="url(#gradient_4)" transform="scale(0.5 0.5)" d="M833.065 0L865.646 0L1024 0L1024 144.125L1024 144.391L1024 154.683L1024 176.826L1024 192.328L1021.65 192.204L1021.38 192.582C1019.76 195.218 1018.9 199.184 1017.71 202.148C1013.78 211.913 1008.99 220.78 1002.04 228.747C995.431 236.318 987.083 243.965 978.9 249.797C975.963 251.89 972.898 253.664 969.671 255.269C967.667 256.265 962.06 258.393 960.892 260.184C960.571 260.676 960.378 262.931 960.254 263.612C959.388 268.391 958.942 273.257 957.811 277.98C951.729 303.389 931.02 326.44 905.651 333.46C893.622 336.788 882.184 335.03 870.07 335.932C873.644 345.074 878.237 353.549 879.844 363.382C881.174 370.38 885.143 377.413 887.55 384.18C891.399 395.003 894.522 406.094 897.952 417.054C896.988 417.884 896.34 418.283 895.077 418.559C892.25 419.175 889.039 419.139 886.143 419.263C880.606 419.501 875.064 419.613 869.523 419.723C859.578 419.921 849.206 420.684 839.29 419.966L837.965 419.854C834.574 409.216 831.335 398.816 826.989 388.5C824.321 382.167 821.059 376.062 818.071 369.874L816.272 366.697L815.226 365.007C808.804 356.083 804.393 345.221 798.702 335.749C794.743 335.568 790.51 336.174 786.533 336.317C779.268 336.579 771.913 336.321 764.75 334.983C737.19 329.837 713.16 303.767 707.482 276.759C706.698 273.029 706.176 269.312 706.062 265.5C706.035 264.574 706.21 260.321 705.96 260C705.82 259.819 703.131 259.128 702.75 259.005C700.41 258.245 698.148 257.271 695.961 256.146C688.277 252.194 680.91 247.331 674.246 241.832C669.136 237.617 664.277 232.847 660.25 227.579C655.603 221.5 651.812 214.681 647.419 208.4C637.941 186.508 636.758 164.755 644.734 142.271C655.21 113.43 682.937 89.3643 713.386 84.116C720.948 82.8125 728.832 82.7564 736.485 82.4703C736.631 82.4648 736.813 82.5491 736.925 82.4539C738.015 81.5259 739.423 75.7852 739.991 74.2169C742.451 67.4218 745.838 60.8414 749.916 54.8761C763.67 34.7542 784.957 15.8247 808.288 7.9531C812.361 6.57899 816.503 5.1967 820.657 4.09431C824.586 3.0515 829.17 2.32397 832.698 0.227027L833.065 0ZM865.646 0L866.401 0.681733C869.174 3.0577 874.778 3.66061 878.27 4.74114C882.521 6.05694 886.7 7.58625 890.824 9.25873C897.977 12.16 904.788 15.4831 911.256 19.7341C927.995 30.7356 945.167 46.4087 954.515 64.3045C956.404 67.9208 957.906 71.6698 959.46 75.4366C960.091 76.9661 960.778 79.4913 962 80.6341C965.225 83.6492 971.311 85.6587 975.207 88.0608C991.252 97.9523 1004.48 110.41 1013.75 126.932C1015.75 130.494 1017.47 134.195 1019.14 137.921C1019.84 139.502 1020.71 142.573 1021.92 143.759C1022.4 144.239 1023.35 144.085 1024 144.125L1024 0L865.646 0Z"/>
	<path fill="#FEFEFD" transform="scale(0.5 0.5)" d="M1024 144.391L1024 154.683L1021.92 145.25L1024 144.391Z"/>
	<path fill="#FEFEFD" transform="scale(0.5 0.5)" d="M1021.65 192.204C1021.53 187.384 1022.97 181.564 1024 176.826L1024 192.328L1021.65 192.204Z"/>
	<path fill="#FEB545" transform="scale(0.5 0.5)" d="M798.702 335.749C807.361 334.782 815.764 331.746 823.52 327.82C826.359 326.384 829.007 324.736 831.713 323.076C832.231 322.758 833.712 321.615 834.14 321.583C834.56 321.551 834.833 322.062 835.18 322.301C838.625 324.677 842.096 327.294 845.829 329.202C853.739 333.247 861.211 335.419 870.07 335.932C873.644 345.074 878.237 353.549 879.844 363.382C870.285 364.763 860.128 364.149 850.465 364.1C838.647 364.04 827.012 364.263 815.226 365.007C808.804 356.083 804.393 345.221 798.702 335.749Z"/>
	<path fill="#FEE884" transform="scale(0.5 0.5)" d="M879.844 363.382C881.174 370.38 885.143 377.413 887.55 384.18C891.399 395.003 894.522 406.094 897.952 417.054C896.988 417.884 896.34 418.283 895.077 418.559C892.25 419.175 889.039 419.139 886.143 419.263C880.606 419.501 875.064 419.613 869.523 419.723C859.578 419.921 849.206 420.684 839.29 419.966L837.965 419.854C834.574 409.216 831.335 398.816 826.989 388.5C824.321 382.167 821.059 376.062 818.071 369.874L816.272 366.697L815.226 365.007C827.012 364.263 838.647 364.04 850.465 364.1C860.128 364.149 870.285 364.763 879.844 363.382Z"/>
	<path fill="#FEB545" transform="scale(0.5 0.5)" d="M816.272 366.697C818.193 366.493 825.038 365.398 826.441 366.175C823.753 367.745 821.068 369.011 818.071 369.874L816.272 366.697Z"/>
</svg>
