<?xml version="1.0" encoding="utf-8" ?>
<svg xmlns="http://www.w3.org/2000/svg" xmlns:xlink="http://www.w3.org/1999/xlink" width="512" height="512">
	<path fill="#DD1369" transform="scale(0.5 0.5)" d="M335.797 434.137C336.577 433.559 337.501 433.106 337.91 432.219C338.817 430.252 339.941 428.449 340.875 426.498L342.745 423.5L343.97 424.371C345.28 425.352 346.197 425.298 347.755 425.25L348.5 425.745L348.967 425.733C350.038 425.712 350.512 425.628 351.5 426.123L352.5 425.75L353.375 426.375L353.75 425.745L354.875 426.375L355.25 425.745C355.882 426.538 355.754 426.106 355.75 427C356.085 427.417 356.597 427.739 356.755 428.25C357.112 429.403 356.215 429.71 357.25 430.745L357.75 430L359 430C358.477 430.526 358.105 430.719 357.923 431.439C357.734 432.186 357.393 432.378 357 433C356.474 433.832 356.057 434.678 355.5 435.5L352.755 440.136L353.691 440.064C350.94 445.631 347.385 450.927 344.126 456.215C339.923 463.036 335.824 469.938 331.77 476.848C326.603 485.653 321.93 494.76 316.995 503.697C311.481 513.681 305.678 523.505 300.065 533.433C283.652 562.463 270.058 593.126 253.541 622.064C250.861 626.758 247.066 630.727 244.287 635.384C243.488 636.577 239.653 637.78 238.236 638.333C241.905 626.116 247.089 614.914 252.383 603.342C258.15 590.735 263.963 578.168 269.848 565.616C285.111 533.067 301.032 500.853 317.658 468.976C323.696 457.4 329.221 445.409 335.797 434.137Z"/>
	<path fill="#F03D17" transform="scale(0.5 0.5)" d="M667.326 103.313L577.022 141.875C578.685 134.397 581.793 127.3 584.94 120.343C597.944 91.6017 618.266 67.698 644.964 50.7516C672.98 32.969 703.662 22.0468 736.414 17.3255C739.816 16.8351 743.123 15.9284 746.552 15.5783C754.322 14.7849 762.252 14.7959 770.059 14.6425C778.329 14.4801 786.872 14.1165 795.119 14.6954C804.604 15.3613 814.255 17.2586 823.53 19.3401C861.744 27.9159 898.254 53.6845 919.255 86.75C924.173 94.4933 928.652 102.74 931.993 111.286C938.256 127.307 941.357 144.904 944.014 161.818C945.028 168.271 946.387 174.611 947.096 181.117L946.545 180.151C945.765 178.109 945.313 176.402 943.873 174.654C940.03 169.99 934.885 166.192 930.205 162.41C922.472 156.16 914.593 150.111 906.717 144.043C911.307 134.747 916.405 125.772 915.827 115.02C914.829 96.4617 904.99 85.3709 891.691 73.6081C875.736 59.4955 856.296 49.4066 835.764 43.8438C830.898 42.5256 825.351 40.9903 820.275 41.3359C819.134 41.4136 818.166 41.4939 817.025 41.2926L816.429 41.1845C810.028 40.0952 805.187 40.4554 798.843 40.8986C796.344 41.0732 793.813 40.8259 791.32 41.0817C788.193 41.4026 785.091 42.5099 782 43.1076C763.15 46.7525 744.513 52.5523 727.111 60.7933C715.484 66.2997 703.858 73.3166 693.386 80.8109C684.628 87.0788 677.837 95.9632 669.081 101.966L667.326 103.313Z"/>
	<defs>
		<linearGradient id="gradient_0" gradientUnits="userSpaceOnUse" x1="566.25" y1="161.25" x2="631.698" y2="284.073">
			<stop offset="0" stop-color="#FF5D01"/>
			<stop offset="1" stop-color="#F23519"/>
		</linearGradient>
	</defs>
	<path fill="url(#gradient_0)" transform="scale(0.5 0.5)" d="M660.206 119.083C660.689 122.702 659.929 126.695 660.073 130.425C660.455 140.331 661.882 150.398 664.304 160.007C656.958 164.198 649.087 167.458 641.673 171.608C630.311 177.968 619.225 184.86 608 191.462C597.611 197.572 586.951 203.396 576.785 209.861C550.107 226.829 524.187 246.677 501.234 268.434C497.29 272.172 493.299 275.915 489.585 279.884C488.216 281.348 486.463 283.025 485.884 285C485.6 285.969 485.721 285.578 485.592 286.453L485.457 287.277C471.637 299.199 457.011 309.427 445.991 324.36C417.495 351.16 392.338 382.136 370.255 414.419C364.499 422.834 359.287 431.557 353.691 440.064L352.755 440.136L355.5 435.5C356.057 434.678 356.474 433.832 357 433C357.393 432.378 357.734 432.186 357.923 431.439C358.105 430.719 358.477 430.526 359 430L357.75 430L357.25 430.745C356.215 429.71 357.112 429.403 356.755 428.25C356.597 427.739 356.085 427.417 355.75 427C355.754 426.106 355.882 426.538 355.25 425.745L354.875 426.375L353.75 425.745L353.375 426.375L352.5 425.75L351.5 426.123C350.512 425.628 350.038 425.712 348.967 425.733L348.5 425.745L347.755 425.25C346.197 425.298 345.28 425.352 343.97 424.371L342.745 423.5L340.875 426.498C339.941 428.449 338.817 430.252 337.91 432.219C337.501 433.106 336.577 433.559 335.797 434.137C338.002 429.002 341.145 423.979 343.819 419.051C350.6 406.553 357.651 394.185 364.869 381.935C385.427 347.046 405.66 312.295 430.353 280.09C465.301 234.509 507.815 194.176 557.505 165.018C572.787 156.05 589.156 148.521 605.071 140.732C615.525 135.615 626.033 130.661 636.831 126.305C644.463 123.225 652.001 120.16 660.206 119.083Z"/>
	<path fill="#DBDCDD" transform="scale(0.5 0.5)" d="M801.987 266.489C799.684 266.153 797.62 265.453 795.5 264.517C788.345 261.357 781.687 256.429 775.756 251.38C763.405 240.867 751.698 227.735 745.959 212.321C743.776 206.458 742.919 199.857 742.326 193.668C741.779 187.965 741.198 181.803 743.643 176.494C750.321 161.992 763.219 149.999 778.235 144.525C783.772 142.506 789.194 141.844 795.024 141.3C805.842 140.291 818.556 140.302 828.578 145.088C842.296 151.64 850.525 165.234 855.474 179.081C859.138 173.645 863.527 168.676 867.589 163.529C870.682 159.61 873.72 155.648 876.816 151.731C880.063 147.624 883.797 142.746 888.868 140.874C895.085 138.58 901.128 141.444 906.717 144.043C914.593 150.111 922.472 156.16 930.205 162.41C934.885 166.192 940.03 169.99 943.873 174.654C945.313 176.402 945.765 178.109 946.545 180.151L947.096 181.117C947.973 185.601 948.482 193.943 950.841 197.66C952.36 199.629 952.728 203.359 953.406 205.778C956.246 215.912 958.501 225.987 959.495 236.5C960.013 241.974 959.798 247.646 959.795 253.151C959.793 258.415 959.948 263.785 959.284 269.012C955.528 298.567 946.746 324.705 928.167 348.308C922.871 355.035 917.516 361.189 910.705 366.439C904.789 370.999 897.208 375.508 890 377.56C885.102 378.955 880.432 379.667 875.75 381.801L873.432 380.886C871.061 380.091 869.976 380.407 867.61 380.643C865.558 380.849 863.71 381.453 861.638 381.39C860.916 374.683 867.546 365.715 870.984 360.242C873.702 355.916 876.409 351.579 878.756 347.036C886.584 331.885 891.89 316.106 892.396 298.954C892.504 295.318 892.744 291.6 892.28 287.984L891.607 288.527C888.868 290.788 886.825 293.978 884.19 296.418C872.568 307.176 859.647 311.192 843.961 310.047C839.754 309.74 835.972 308.474 832.005 307.118L827.468 304.64C815.818 294.444 810.455 279.048 801.987 266.489Z"/>
	<path fill="#292B3A" transform="scale(0.5 0.5)" d="M797.973 159.75C798.706 159.689 799.3 159.784 800.025 159.887C803.041 162.795 805.659 168.105 805.783 172.34C805.921 177.072 801.583 181.109 798.558 184.25C796.818 186.056 796.268 186.83 793.697 186.891C791.097 186.953 784.097 187.476 781.936 186.144C781.119 185.64 780.284 184.669 779.58 183.999L767.649 177.571C769.424 175.449 771.334 173.46 773.797 172.146C775.106 171.448 775.072 171.563 776.5 171.979C782.532 167.291 790.429 161.48 797.973 159.75Z"/>
	<path fill="#292B3A" transform="scale(0.5 0.5)" d="M873.432 380.886C878.915 379.098 883.767 374.06 888.017 370.285C893.103 365.767 898.326 361.412 902.775 356.232C905.897 352.596 908.65 348.343 911.23 344.301C917.184 334.975 921.871 324.289 923.268 313.25C925.325 296.991 921.353 281.732 917.04 266.298C912.795 251.109 907.301 235.07 899.289 221.402C896.509 216.66 893.724 211.823 890.71 207.228C887.48 202.303 881.614 196.343 880.494 190.55C880.148 188.764 880.109 188.149 881.095 186.632C883.921 186.406 886.104 187.139 888.831 187.456C899.74 188.725 910.384 191.028 921.25 192.448C924.487 192.871 927.651 194.075 930.923 194.31C937.347 194.771 943.729 197.016 950.226 197.608L950.841 197.66C952.36 199.629 952.728 203.359 953.406 205.778C956.246 215.912 958.501 225.987 959.495 236.5C960.013 241.974 959.798 247.646 959.795 253.151C959.793 258.415 959.948 263.785 959.284 269.012C955.528 298.567 946.746 324.705 928.167 348.308C922.871 355.035 917.516 361.189 910.705 366.439C904.789 370.999 897.208 375.508 890 377.56C885.102 378.955 880.432 379.667 875.75 381.801L873.432 380.886Z"/>
	<path fill="#292B3A" transform="scale(0.5 0.5)" d="M801.987 266.489C800.786 263.548 799.342 260.482 798.8 257.335C797.844 251.78 798.478 245.086 798.527 239.414C801.935 233.803 806.803 229.499 811.5 225.01C819.468 217.395 827.694 210.186 835.851 202.787C840.792 198.306 845.411 193.373 850.087 188.615L850.861 188.75L850.924 189.666C851.19 193.101 853.856 196.176 855.637 199.052C860.438 206.803 865.632 214.406 871.489 221.402C875.308 225.964 879.521 230.204 883.708 234.424C888.547 239.303 893.503 244.096 895.731 250.792C896.653 253.565 896.558 256.73 896.574 259.618C896.606 265.457 896.47 271.129 895.571 276.909C894.948 280.914 893.454 284.243 891.708 287.848L892.28 287.984L891.607 288.527C888.868 290.788 886.825 293.978 884.19 296.418C872.568 307.176 859.647 311.192 843.961 310.047C839.754 309.74 835.972 308.474 832.005 307.118L827.468 304.64C815.818 294.444 810.455 279.048 801.987 266.489Z"/>
	<path fill="#DD1369" transform="scale(0.5 0.5)" d="M460.974 543.443C460.731 545.57 459.465 547.159 458.348 548.934C456.46 551.938 454.431 554.905 452.734 558.023C445.132 572.001 438.747 586.426 429.906 599.751L425.325 608.325C421.217 617.006 416.759 625.575 412.856 634.345C410.621 639.368 409.112 644.757 406.754 649.694C404.603 654.196 401.941 658.442 399.783 662.948C396.86 669.054 394.682 675.678 391.19 681.488C390.234 682.425 388.226 683.956 387.905 685.18C386.263 691.446 382.757 696.847 380.016 702.655C377.768 707.419 376.123 712.406 373.976 717.208C369.469 727.287 364.227 735.976 357.894 745.003C352.059 748.707 347.222 755.286 342.735 760.487C339.72 763.982 336.153 767.381 332.75 770.503C321.112 781.179 308.293 790.429 295.383 799.471C277.098 812.277 258.097 824.405 238.875 835.755C235.026 838.028 230.984 839.939 227.103 842.149C209.001 852.461 190.876 863.066 173.376 874.373C168.583 877.469 163.596 880.83 159.038 884.25C155.39 886.988 151.945 890.247 148.222 892.835C135.863 901.427 123.189 909.238 111.281 918.49C106.48 922.22 102.218 926.897 97.4657 930.495L96.2988 928.614C95.4805 927.879 95.0632 928.028 94.0646 927.949C93.6459 924.654 100.928 916.398 103.239 913.59C116.813 897.092 132.312 882.186 146.409 866.141C150.562 861.414 155.291 856.749 158.813 851.558C154.729 853.013 151.119 855.331 147.243 857.232C143.398 859.119 139.416 860.493 135.485 862.164C129.171 864.849 123.816 867.481 116.972 868.571C122.05 860.54 126.712 852.4 132.205 844.61C144.319 827.43 159.507 811.527 176.106 798.629C182.425 793.719 188.969 789.177 195.568 784.658C198.709 782.506 202.594 780.62 205.25 777.924L204.927 776.5C202.744 775.387 189.714 779.872 186.533 780.617C172.651 783.868 158.84 785.729 144.747 787.772C152.682 781.068 159.647 773.34 166.884 765.893C175.455 757.074 184.223 748.439 193.25 740.085C200.782 733.115 208.595 726.579 216.661 720.242C222.784 715.433 229.371 710.722 235.02 705.374C235.704 704.727 235.852 704.295 236.067 703.406C232.281 703.637 228.101 705.132 224.472 706.21C212.62 709.729 201.405 715.134 189.528 718.362C197.829 703.886 209.242 691.544 220.959 679.756C230.414 670.244 239.97 661.153 250.505 652.825C258.702 646.344 267.449 640.636 275.836 634.414C278.674 632.308 281.496 630.175 284.287 628.006C285.158 627.328 286.741 626.26 287.297 625.296C287.568 624.826 287.605 623.212 287.696 622.6C288.442 621.524 289.395 620.615 290.3 619.674C290.532 619.67 291.725 618.726 291.995 618.497C294.169 616.662 296.726 616.199 298.886 614.5L298.957 613.653C297.278 613.642 296.808 613.921 295.54 612.75L303.25 609.604L303.578 610L303.625 610.934L304.482 611.44L304.821 610.925C305.558 610.116 306.479 609.933 307.5 609.755L308.245 610.25L309.002 610.084L309.75 610.179C310.864 609.396 312.238 608.608 312.92 607.393L313.25 606.755L460.974 543.443Z"/>
	<path fill="#DD058F" transform="scale(0.5 0.5)" d="M460.974 543.443C460.731 545.57 459.465 547.159 458.348 548.934C456.46 551.938 454.431 554.905 452.734 558.023C445.132 572.001 438.747 586.426 429.906 599.751L425.325 608.325C423.514 607.724 422.797 607.446 421.042 608.365C418.462 609.715 416.281 611.555 413.605 612.876C411.156 614.687 408.235 616.807 405.459 618.027L401.314 620.332C399.956 621.151 398.388 621.364 396.976 622.052C395.03 623 393.23 624.142 391.25 625.049L390.654 625.365C389.752 625.832 390.208 625.612 389.156 625.999C388.021 626.418 387.082 627.008 385.997 627.526C385.229 627.892 385.615 627.711 384.668 628.291C383.867 628.781 383.391 628.933 382.545 629.25L357.002 641.989C354.708 643.271 352.201 644.499 349.77 645.491C349.12 645.757 348.885 646.127 348.334 646.5L347.25 647.003L334.164 654.295C331.113 656.074 327.565 658.293 324.311 659.62C321.916 660.596 318.629 662.331 316.5 663.792C315.627 664.391 315.007 664.513 314.01 664.768C313.41 664.922 313.045 665.226 312.5 665.438L311.25 665.755L310.75 666.5L310.125 666.503L309.703 667.25L309 666.755C307.521 667.264 306.634 667.794 305.365 668.688C304.57 669.249 305.174 668.826 304 669.196C303.233 669.438 302.454 669.854 301.755 670.25L302.104 671L301.5 671.745L300.5 670.988L249.04 697.768C247.309 698.685 245.791 699.803 244.161 700.851C242.976 701.613 241.125 701.513 239.75 701.585L236.766 704.1L236.067 703.406C232.281 703.637 228.101 705.132 224.472 706.21C212.62 709.729 201.405 715.134 189.528 718.362C197.829 703.886 209.242 691.544 220.959 679.756C230.414 670.244 239.97 661.153 250.505 652.825C258.702 646.344 267.449 640.636 275.836 634.414C278.674 632.308 281.496 630.175 284.287 628.006C285.158 627.328 286.741 626.26 287.297 625.296C287.568 624.826 287.605 623.212 287.696 622.6C288.442 621.524 289.395 620.615 290.3 619.674C290.532 619.67 291.725 618.726 291.995 618.497C294.169 616.662 296.726 616.199 298.886 614.5L298.957 613.653C297.278 613.642 296.808 613.921 295.54 612.75L303.25 609.604L303.578 610L303.625 610.934L304.482 611.44L304.821 610.925C305.558 610.116 306.479 609.933 307.5 609.755L308.245 610.25L309.002 610.084L309.75 610.179C310.864 609.396 312.238 608.608 312.92 607.393L313.25 606.755L460.974 543.443Z"/>
	<path fill="#F31F88" transform="scale(0.5 0.5)" d="M413.605 612.876L413.844 612.434C414.855 610.931 416.898 609.984 418.25 608.755C421.017 606.24 423.568 603.027 426.617 600.888C427.596 600.201 428.748 599.946 429.906 599.751L425.325 608.325C423.514 607.724 422.797 607.446 421.042 608.365C418.462 609.715 416.281 611.555 413.605 612.876Z"/>
	<path fill="#DBDCDD" transform="scale(0.5 0.5)" d="M290.3 619.674C290.532 619.67 291.725 618.726 291.995 618.497C294.169 616.662 296.726 616.199 298.886 614.5L298.957 613.653C297.278 613.642 296.808 613.921 295.54 612.75L303.25 609.604L303.578 610L303.625 610.934L304.482 611.44L307.155 611.75L307.25 612.343L288.486 624.75C287.854 624.031 287.892 623.519 287.696 622.6C288.442 621.524 289.395 620.615 290.3 619.674Z"/>
	<path fill="#542307" transform="scale(0.5 0.5)" d="M684.297 652.938C687.252 652.461 690.161 650.839 692.882 649.605C697.957 647.303 702.994 644.922 708.046 642.569C724.896 634.723 741.833 627.05 758.704 619.246C768.182 614.862 777.633 609.605 787.515 606.277C789.571 615.446 794.383 624.905 797.91 633.653C801.536 640.181 804.226 647.472 807.045 654.389C809.071 659.359 811.435 664.255 813.379 669.23C803.222 672.389 793.286 676.557 783.299 680.253C762.997 687.766 742.733 695.263 722.216 702.181C706.906 707.345 691.573 712.706 676.117 717.409C668.125 719.841 660.015 721.842 651.993 724.164C649.64 724.845 646.16 725.414 644.126 726.623C643.205 727.171 641.772 729.317 641.119 730.214C638.628 733.64 636.37 737.223 633.92 740.675C631.536 744.036 628.822 747.184 626.311 750.452C634.686 752.427 642.472 756.859 650.188 760.567C665.711 768.025 680.839 775.674 695.806 784.187C697.498 785.149 699.65 785.754 701.085 787.089C704.393 790.166 707.227 794.627 710.18 798.128C718.6 808.11 727.316 818.708 737.038 827.427C740.749 821.061 744.156 814.49 747.669 808.011C748.99 805.575 750.003 802.879 751.563 800.601C753.009 799.881 753.893 799.563 755.5 799.436C760.635 807.825 766.482 815.079 772.381 822.89C779.87 832.804 787.232 842.811 794.557 852.848C801.158 861.896 807.646 871.004 814.055 880.19C820.86 889.941 827.513 899.603 835.879 908.126C850.554 923.078 866.29 936.588 881.781 950.662C886.562 955.006 891.804 958.798 896.235 963.519C892.472 968.311 887.3 972.561 882.914 976.825C866.28 964.523 848.354 953.507 830.021 943.877C818.706 937.933 807.047 932.712 795.56 927.115L821.683 973.625L793.51 990.36C785.616 982.317 779.953 972.044 774.052 962.505C767.823 952.438 761.617 942.369 755.494 932.236C737.824 902.992 720.296 873.745 701.845 844.983C697.901 838.834 694.01 832.656 690.042 826.52C688.552 824.215 686.854 820.806 684.872 819.004C682.054 816.441 676.742 814.703 673.246 813.032C668.513 810.769 663.963 808.159 659.089 806.201C660.976 810.732 663.556 815.036 665.805 819.404C668.408 824.459 670.783 829.653 673.25 834.777C678.368 845.407 682.906 856.444 688.511 866.815C696.999 882.518 709.109 896.797 721.877 909.191C721.485 911.902 708.855 947.271 708.25 947.745C707.204 947.491 704.683 947.069 704.007 946.25C702.259 944.131 701.199 937.802 700.287 934.953C698.738 930.115 697.002 925.385 695.066 920.689C686.571 900.085 677.771 879.12 667.614 859.266C664.105 852.407 659.977 845.868 656.228 839.139C652.48 832.412 649.027 824.671 644.431 818.499C642.536 815.953 639.708 814.026 637.228 812.091C631.592 807.693 625.66 803.672 620.118 799.164C612.85 793.253 605.371 787.617 598.094 781.72C589.076 774.412 580.247 766.679 570.235 760.743C560.898 755.207 550.977 750.788 541.146 746.217C524.039 738.262 506.8 730.6 489.666 722.703C478.702 717.65 467.459 712.68 457.006 706.657L457.68 705.994C460.083 703.336 459.275 695.193 459.473 691.659C459.86 684.767 460.819 678.122 460.769 671.161L483.386 694.124C485.824 690.505 488.105 686.203 491.4 683.317C492.712 682.168 494.314 681.676 495.652 680.572C500.971 681.203 506.387 679.935 511.536 680.551L542.015 680.484C574.178 680.463 607.489 683.396 638.941 675.28C639.178 674.957 640.619 674.484 641.077 674.289C644.076 673.01 647.089 671.761 650.075 670.453C657.221 667.321 664.338 663.885 671.329 660.421C675.744 658.234 680.561 656.188 684.297 652.938Z"/>
	<defs>
		<linearGradient id="gradient_1" gradientUnits="userSpaceOnUse" x1="792.75" y1="893.25" x2="751.26501" y2="926.51398">
			<stop offset="0" stop-color="#8D7170"/>
			<stop offset="1" stop-color="#948074"/>
		</linearGradient>
	</defs>
	<path fill="url(#gradient_1)" transform="scale(0.5 0.5)" d="M626.311 750.452C634.686 752.427 642.472 756.859 650.188 760.567C665.711 768.025 680.839 775.674 695.806 784.187C697.498 785.149 699.65 785.754 701.085 787.089C704.393 790.166 707.227 794.627 710.18 798.128C718.6 808.11 727.316 818.708 737.038 827.427C743.887 833.219 749.423 840.995 755.155 847.849C765.409 860.11 775.693 872.252 786.252 884.25C790.356 888.913 794.162 893.816 798.567 898.206C791.061 894.671 783.79 888.868 777.191 883.858C760.708 871.345 745.321 857.706 730.728 843.039C721.377 833.639 712.679 823.433 702.653 814.724C690.307 804 675.231 796.47 661.36 787.917C652.248 782.297 643.061 776.803 633.874 771.307C628.184 767.904 622.63 764.157 616.611 761.365L626.311 750.452Z"/>
	<path fill="#90796F" transform="scale(0.5 0.5)" d="M684.297 652.938C687.252 652.461 690.161 650.839 692.882 649.605C697.957 647.303 702.994 644.922 708.046 642.569C724.896 634.723 741.833 627.05 758.704 619.246C768.182 614.862 777.633 609.605 787.515 606.277C789.571 615.446 794.383 624.905 797.91 633.653C795.072 636.745 788.047 639.022 784.172 640.933C767.849 648.984 751.324 656.583 734.964 664.546C721.431 671.133 708.287 678.515 694.781 685.165C678.468 693.196 662.059 701.297 645.487 708.776C638.537 711.913 631.401 714.625 624.454 717.75C618.723 720.328 613.026 723.102 607.367 725.838C603.846 727.541 600.324 729.63 596.477 730.447C585.529 728.163 575.061 722.953 564.817 718.564C555.475 714.562 546.066 710.847 537.005 706.221C548.335 705.466 559.017 702.816 570 700.114C581.048 697.396 592.163 694.878 602.963 691.25C610.622 688.677 618.117 685.342 625.529 682.122C629.784 680.274 635.401 678.309 638.941 675.28C639.178 674.957 640.619 674.484 641.077 674.289C644.076 673.01 647.089 671.761 650.075 670.453C657.221 667.321 664.338 663.885 671.329 660.421C675.744 658.234 680.561 656.188 684.297 652.938Z"/>
	<defs>
		<linearGradient id="gradient_2" gradientUnits="userSpaceOnUse" x1="494.75" y1="679.75" x2="340.83801" y2="576.93701">
			<stop offset="0" stop-color="#FF6900"/>
			<stop offset="1" stop-color="#D91142"/>
		</linearGradient>
	</defs>
	<path fill="url(#gradient_2)" transform="scale(0.5 0.5)" d="M527.874 622.127L528.755 621.75C529.99 621.179 530.456 620.454 531.981 620.987C532.681 621.232 533.223 621.712 533.811 622.143L540.855 626.895C542.144 632.393 541.83 638.708 541.931 644.374C542.145 656.407 541.951 668.449 542.015 680.484L511.536 680.551C506.387 679.935 500.971 681.203 495.652 680.572C494.314 681.676 492.712 682.168 491.4 683.317C488.105 686.203 485.824 690.505 483.386 694.124L460.769 671.161C460.819 678.122 459.86 684.767 459.473 691.659C459.275 695.193 460.083 703.336 457.68 705.994L457.006 706.657L456.619 707.436C454.152 712.47 452.397 717.911 450.075 723.031C444.776 734.713 438.939 746.162 432.667 757.349C423.789 773.185 413.836 788.416 403.885 803.589C379.993 840.021 353.959 875.638 324.146 907.469C317.461 914.607 310.503 922.712 302.309 928.153C309.72 915.468 315.792 904.438 316.934 889.417C308.733 904.688 295.872 917.85 283.705 930.051C267.77 946.029 250.665 962.043 231.386 973.935C222.626 979.338 213.402 984.103 204.269 988.844C200.104 991.006 195.672 992.819 191.75 995.398L191.114 995C192.091 992.449 193.83 990.866 195.463 988.75C197.463 986.159 199.288 983.404 201.16 980.716C205.881 973.936 210.16 966.889 214.778 960.046C217.626 955.827 220.826 951.871 223.687 947.673C211.181 954.492 199.471 962.852 187.366 970.339C157.304 988.93 123.239 1005.13 87.6937 1008.48C79.9311 1009.21 72.5202 1009.05 64.7768 1008.4C62.3438 1008.2 59.3666 1008.23 57.0177 1007.62L56.2125 1007.34L56.6295 1006.8C60.7529 1001.4 61.6336 994.386 64.8542 988.431C65.2231 987.749 66.2244 985.669 66.9146 985.26C68.7376 984.177 73.4781 983.86 75.625 983.499C79.9707 982.768 84.2166 981.797 88.4822 980.696C114.837 973.897 138.27 963.571 160.374 947.566C166.061 943.448 171.468 939.001 176.798 934.436C179.001 932.549 181.204 930.662 183.4 928.766C184.462 927.85 185.556 926.564 186.894 926.145L185.476 924.083L184.25 924.177C184.099 922.574 184.773 921.514 184.25 919.975C180.993 921.071 177.522 924.114 174.454 925.847C166.184 930.518 157.678 934.709 149.407 939.426C124.585 953.585 97.5736 964.125 69.9982 971.44C65.8052 972.552 60.9142 974.435 56.6575 974.962C64.9057 962.819 75.19 952.497 85.6144 942.214C89.5046 938.376 93.9887 934.694 97.4657 930.495C102.218 926.897 106.48 922.22 111.281 918.49C123.189 909.238 135.863 901.427 148.222 892.835C151.945 890.247 155.39 886.988 159.038 884.25C163.596 880.83 168.583 877.469 173.376 874.373C190.876 863.066 209.001 852.461 227.103 842.149C230.984 839.939 235.026 838.028 238.875 835.755C258.097 824.405 277.098 812.277 295.383 799.471C308.293 790.429 321.112 781.179 332.75 770.503C336.153 767.381 339.72 763.982 342.735 760.487C347.222 755.286 352.059 748.707 357.894 745.003C364.227 735.976 369.469 727.287 373.976 717.208C376.123 712.406 377.768 707.419 380.016 702.655C382.757 696.847 386.263 691.446 387.905 685.18C388.226 683.956 390.234 682.425 391.19 681.488C400.143 678.128 408.365 672.936 417.017 668.92C425.449 665.005 434.04 661.442 442.5 657.597C457.22 650.907 471.687 643.853 486.622 637.631C490.563 635.989 494.529 634.504 498.5 632.95C500.005 632.36 501.73 631.294 503.321 631.098C505.225 630.863 506.273 629.692 508.046 629.54C509.219 629.44 509.733 629.197 510.767 628.675C512.19 627.957 513.592 627.164 515.125 626.71L527.874 622.127ZM527.874 622.127C526.609 623.668 525.694 625.098 524.775 626.869C521.659 632.877 519.537 639.409 516.25 645.427C515.056 647.613 511.941 651.777 511.672 654.128C508.405 658.896 505.6 663.891 502.583 668.81C500.224 672.656 497.564 676.48 495.652 680.572C500.971 681.203 506.387 679.935 511.536 680.551L542.015 680.484C541.951 668.449 542.145 656.407 541.931 644.374C541.83 638.708 542.144 632.393 540.855 626.895L533.811 622.143C533.223 621.712 532.681 621.232 531.981 620.987C530.456 620.454 529.99 621.179 528.755 621.75L527.874 622.127Z"/>
	<defs>
		<linearGradient id="gradient_3" gradientUnits="userSpaceOnUse" x1="510.75" y1="667.25" x2="540.04999" y2="673.49701">
			<stop offset="0" stop-color="#FEFEFE" stop-opacity="0.72549021"/>
			<stop offset="1" stop-color="#FEFEFE" stop-opacity="0.80000001"/>
		</linearGradient>
	</defs>
	<path fill="url(#gradient_3)" transform="scale(0.5 0.5)" d="M527.874 622.127L528.755 621.75C529.99 621.179 530.456 620.454 531.981 620.987C532.681 621.232 533.223 621.712 533.811 622.143L540.855 626.895C542.144 632.393 541.83 638.708 541.931 644.374C542.145 656.407 541.951 668.449 542.015 680.484L511.536 680.551C506.387 679.935 500.971 681.203 495.652 680.572C497.564 676.48 500.224 672.656 502.583 668.81C505.6 663.891 508.405 658.896 511.672 654.128C511.941 651.777 515.056 647.613 516.25 645.427C519.537 639.409 521.659 632.877 524.775 626.869C525.694 625.098 526.609 623.668 527.874 622.127ZM511.672 654.128C508.405 658.896 505.6 663.891 502.583 668.81C500.224 672.656 497.564 676.48 495.652 680.572C500.971 681.203 506.387 679.935 511.536 680.551C512.505 680.026 513.591 679.557 514.283 678.673C514.71 678.128 514.49 677.643 514.436 677C513.529 676.241 512.639 675.549 512.086 674.478L511.75 673.791L509.75 672.62C508.235 671.47 508.116 670.322 508.024 668.5C507.853 665.079 509.723 663.508 511.932 661.28C512.079 658.861 511.883 656.534 511.672 654.128Z"/>
	<path fill="#E82240" transform="scale(0.5 0.5)" d="M97.4657 930.495C102.218 926.897 106.48 922.22 111.281 918.49C123.189 909.238 135.863 901.427 148.222 892.835C151.945 890.247 155.39 886.988 159.038 884.25C163.596 880.83 168.583 877.469 173.376 874.373C190.876 863.066 209.001 852.461 227.103 842.149C230.984 839.939 235.026 838.028 238.875 835.755C258.097 824.405 277.098 812.277 295.383 799.471C308.293 790.429 321.112 781.179 332.75 770.503C336.153 767.381 339.72 763.982 342.735 760.487C347.222 755.286 352.059 748.707 357.894 745.003L323.75 806.177C323.571 804.669 324.497 804.452 324.502 803.125C324.734 802.739 325 802.375 325.25 802C325.778 801.208 325.999 800.959 326.002 800.003L326.5 799.5L327.375 797.875C327.835 797.018 327.999 796.994 328.003 796.003L328.447 795.603C330.338 793.701 331.548 789.794 332.875 787.375C331.824 787.522 331.437 787.805 330.5 788.245L328.498 788.997C327.812 789.299 327.272 789.723 326.75 790.245L326.25 789.745C325.124 789.745 324.982 789.898 324 789.25L323.5 789.745L322.625 789.125L322.125 789.497L321.5 789L320.375 789.997L319.875 789.625C318.852 789.771 319.246 789.588 318.625 789.997L318 789.5L317.25 790.245L316.953 789.935L315.25 788.5C314.341 788.826 313.749 789.135 313 789.745C311.836 789.75 312.053 789.72 311 790.245L310.561 790.34C307.934 791.001 304.617 794.118 302.5 795.745L299.745 797.75L292.258 802.729L288.375 805.497L287.617 806.013L284 808.245L283.43 808.621L282.225 809.482C277.791 812.701 271.948 815.211 268.25 819.245L267.686 819.325C266.858 819.492 266.631 819.729 266 820.245L264.122 821.779C263.303 822.433 262.169 822.475 261.498 822.997C260.666 823.644 261.214 823.887 259.998 824.497C259.044 824.976 258.098 826.081 257.245 826.75L256.998 827.497C256.674 828.093 255.445 828.71 255.245 829.25C254.79 830.48 255.856 831.639 254.75 832.745L254.25 832C253.688 832.557 253.209 833.353 252.745 834L252.449 834.616C251.722 836.072 250.777 837.399 249.803 838.699C249.337 839.32 249.523 839.043 249.25 840L248.811 840.375L244.748 844.375L246 844.75C247.1 844.096 247.967 843.533 248.875 842.625L249.245 843.75L247.25 846.245L246.5 846.25L246.498 846.997C245.71 847.785 245.658 848.242 244.5 848.25C243.939 849.364 244.018 849.442 243 850.122C242.413 850.514 242.592 850.742 242.498 851.497L241.5 851.75L241.123 852.5L240.75 853L240.745 860.25L240 860.75C240.159 861.71 240.036 862.041 240.745 862.75C240.11 863.417 239.747 863.623 239 864.122L238.623 864.5L238.755 865.75L239.44 865.14C240.055 864.604 240.414 864.346 241.25 864.255L242.245 865.5C241.87 866.824 241.041 867.382 240 868.245L239.25 867.745L238.125 867.875L237.25 866.5L236.375 866.375L235.745 865.75C234.486 867.638 236.004 870.112 234.745 872C234.745 873.063 234.876 873.054 234.245 874L234.375 874.875L234.25 876L234.498 876.375L234.125 876.875L234.498 877.375L234.125 877.875L234.498 878.375L234.125 878.875L234.745 879.5L234.125 880.375L234.498 880.875L234.125 881.375L234.498 881.875L234.125 882.375L234.498 882.875L234.125 883.375L234.498 883.875L234.125 884.375L234.498 884.875L234.125 885.375L234.745 886C234.012 888.59 235.007 893.106 233.745 895C233.745 896.297 234.058 898.319 233.276 899.297C232.58 900.167 232.35 900.787 232.137 901.858C231.694 904.092 229.772 906.409 228 907.745C227.093 908.428 225.542 909.938 224.5 910.245C224.059 910.375 223.566 909.994 223.125 910.125C222.76 910.234 222.106 911.651 221.75 911.745C221.599 911.785 220.249 911.582 220.125 911.625C219.545 911.824 217.711 913.854 216.875 914.375L215.25 916.245L214.5 915.5C213.861 915.816 213.221 916.104 212.625 916.497L212 916C211.361 916.316 210.721 916.604 210.125 916.997L209.498 916.997C208.826 917.669 209.024 917.743 208 917.75L207.5 918.245L205.875 919.375L205 920L203.75 919.5L203.125 919.875L202.25 919.5L200.75 921L199.25 920.5L198.953 920.841C198.291 921.499 197.545 921.816 196.609 921.716L196.125 921.625L195.25 922.745L194.5 922.75L194 923.122L193.25 923.5L192.5 924.245C191.796 924.389 191.44 924.327 190.922 924.841C190.354 925.405 190.552 925.21 189.75 925.745L189 925.25C188.082 925.921 188.083 926.144 186.894 926.145L185.476 924.083L184.25 924.177C184.099 922.574 184.773 921.514 184.25 919.975C180.993 921.071 177.522 924.114 174.454 925.847C166.184 930.518 157.678 934.709 149.407 939.426C124.585 953.585 97.5736 964.125 69.9982 971.44C65.8052 972.552 60.9142 974.435 56.6575 974.962C64.9057 962.819 75.19 952.497 85.6144 942.214C89.5046 938.376 93.9887 934.694 97.4657 930.495Z"/>
	<path fill="#2999F7" transform="scale(0.5 0.5)" d="M485.457 287.277C492.373 283.95 498.94 279.897 505.688 276.238C517.526 269.818 529.594 263.561 541.746 257.755C570.704 243.919 604.343 232.371 636.6 231.222C645.355 230.91 654.259 231.114 662.612 234.041C678.154 239.487 691.057 252.367 698.011 267.126C711.197 295.113 708.917 333.334 698.677 361.909C687.56 392.933 666.578 421.971 643.271 445.033C640.715 447.561 638.064 449.967 635.343 452.316C634.216 453.288 632.867 454.711 631.498 455.269C630.92 455.505 631.077 455.434 630.523 455.223C627.104 453.919 625.119 455.565 622.008 456.886C605.138 467.609 589.075 479.1 571.701 489.107C556.14 498.069 540.186 506.114 524.155 514.183C511.984 520.31 499.923 526.611 487.522 532.269C478.782 536.256 469.694 539.46 460.974 543.443L313.25 606.755L312.92 607.393C312.238 608.608 310.864 609.396 309.75 610.179L309.002 610.084L308.245 610.25L307.5 609.755C306.479 609.933 305.558 610.116 304.821 610.925L304.482 611.44L303.625 610.934L303.578 610L303.25 609.604L295.54 612.75C296.808 613.921 297.278 613.642 298.957 613.653L298.886 614.5C296.726 616.199 294.169 616.662 291.995 618.497C291.725 618.726 290.532 619.67 290.3 619.674L290.413 617.75C289.784 617.183 289.335 617.074 289.25 616.202C284.566 617.183 279.894 619.7 275.5 621.561C265.008 626.006 254.577 630.48 244.287 635.384C247.066 630.727 250.861 626.758 253.541 622.064C270.058 593.126 283.652 562.463 300.065 533.433C305.678 523.505 311.481 513.681 316.995 503.697C321.93 494.76 326.603 485.653 331.77 476.848C335.824 469.938 339.923 463.036 344.126 456.215C347.385 450.927 350.94 445.631 353.691 440.064C359.287 431.557 364.499 422.834 370.255 414.419C392.338 382.136 417.495 351.16 445.991 324.36C457.011 309.427 471.637 299.199 485.457 287.277Z"/>
	<path fill="#054787" transform="scale(0.5 0.5)" d="M485.457 287.277C492.373 283.95 498.94 279.897 505.688 276.238C517.526 269.818 529.594 263.561 541.746 257.755C570.704 243.919 604.343 232.371 636.6 231.222C645.355 230.91 654.259 231.114 662.612 234.041C678.154 239.487 691.057 252.367 698.011 267.126C711.197 295.113 708.917 333.334 698.677 361.909C687.56 392.933 666.578 421.971 643.271 445.033C640.715 447.561 638.064 449.967 635.343 452.316C634.216 453.288 632.867 454.711 631.498 455.269C630.92 455.505 631.077 455.434 630.523 455.223C627.104 453.919 625.119 455.565 622.008 456.886C625.6 453.193 627.863 448.06 631.21 444.035C641.583 431.559 652.661 419.424 662.16 406.257C670.122 395.219 676.809 383.634 682.341 371.205C688.251 357.928 692.529 343.377 694.682 328.986C695.341 324.581 695.325 319.894 695.564 315.433C695.799 311.05 696.284 306.439 695.815 302.076C695.368 297.911 693.912 293.87 693.113 289.751C692.185 284.961 691.746 279.886 689.914 275.344C685.223 263.715 674.709 250.548 662.802 245.897C651.85 241.62 638.97 241.741 627.438 242.971C607.046 245.147 589.028 250.678 569.924 257.908C558.612 262.188 547.357 266.776 536.5 272.116C516.593 281.908 497.57 293.668 478.415 304.828C467.505 311.185 457.527 319.177 445.991 324.36C457.011 309.427 471.637 299.199 485.457 287.277Z"/>
	<path fill="#DBDCDD" transform="scale(0.5 0.5)" d="M654.257 281.602C655.391 281.464 656.123 281.397 657.218 281.75L657.104 283.095C656.581 286.748 654.718 290.224 653.312 293.598C645.53 312.285 633.376 326.968 617.511 339.37C600.473 352.689 580.493 360.267 560.891 368.887C544.232 376.211 527.772 383.877 512.048 393.074C472.722 416.075 435.857 442.842 398.94 469.45C384.176 480.091 368.55 489.478 353.826 500.131C339.706 510.345 326.669 521.861 312.941 532.574C312.198 533.122 311.646 533.494 310.755 533.75C317.662 526.963 324.715 520.307 331.236 513.144C342.916 500.314 353.518 486.81 364.633 473.529C406.781 423.171 448.685 369.39 504.08 332.785C522.93 320.328 544.68 309.758 566.01 302.25C581.273 296.878 597.965 292.302 613.946 289.792C619.304 288.95 624.988 289.729 630.331 288.701C633.861 288.022 637.218 286.515 640.6 285.337C645.109 283.766 649.572 282.527 654.257 281.602Z"/>
	<path fill="#FECC04" transform="scale(0.5 0.5)" d="M667.326 103.313L669.081 101.966C677.837 95.9632 684.628 87.0788 693.386 80.8109C703.858 73.3166 715.484 66.2997 727.111 60.7933C744.513 52.5523 763.15 46.7525 782 43.1076C785.091 42.5099 788.193 41.4026 791.32 41.0817C793.813 40.8259 796.344 41.0732 798.843 40.8986C805.187 40.4554 810.028 40.0952 816.429 41.1845L817.025 41.2926C818.166 41.4939 819.134 41.4136 820.275 41.3359C825.351 40.9903 830.898 42.5256 835.764 43.8438C856.296 49.4066 875.736 59.4955 891.691 73.6081C904.99 85.3709 914.829 96.4617 915.827 115.02C916.405 125.772 911.307 134.747 906.717 144.043C901.128 141.444 895.085 138.58 888.868 140.874C883.797 142.746 880.063 147.624 876.816 151.731C873.72 155.648 870.682 159.61 867.589 163.529C863.527 168.676 859.138 173.645 855.474 179.081C850.525 165.234 842.296 151.64 828.578 145.088C818.556 140.302 805.842 140.291 795.024 141.3C789.194 141.844 783.772 142.506 778.235 144.525C763.219 149.999 750.321 161.992 743.643 176.494C741.198 181.803 741.779 187.965 742.326 193.668C742.919 199.857 743.776 206.458 745.959 212.321C751.698 227.735 763.405 240.867 775.756 251.38C781.687 256.429 788.345 261.357 795.5 264.517C797.62 265.453 799.684 266.153 801.987 266.489C810.455 279.048 815.818 294.444 827.468 304.64L832.005 307.118C834.137 318.844 835.972 330.635 833.608 342.5C829.665 362.285 820.413 382.132 811.1 399.931C795.945 428.9 777.503 456.737 756.826 482.079C751.566 488.527 745.785 494.571 740.25 500.784C715.798 528.231 690.056 552.646 659.996 573.9C659.81 574.032 658.139 575.173 658.134 575.207C658.029 575.836 658.66 577.854 658.796 578.574C659.326 581.377 659.814 584.199 660.123 587.036C661.895 603.336 660.128 618.465 669.872 632.835C674.977 634.076 680.77 637.671 683.67 642.166C685.851 645.546 685.236 649.236 684.297 652.938C680.561 656.188 675.744 658.234 671.329 660.421C664.338 663.885 657.221 667.321 650.075 670.453C647.089 671.761 644.076 673.01 641.077 674.289C640.619 674.484 639.178 674.957 638.941 675.28C607.489 683.396 574.178 680.463 542.015 680.484C541.951 668.449 542.145 656.407 541.931 644.374C541.83 638.708 542.144 632.393 540.855 626.895L533.811 622.143C533.223 621.712 532.681 621.232 531.981 620.987C530.456 620.454 529.99 621.179 528.755 621.75L527.874 622.127L515.125 626.71C513.592 627.164 512.19 627.957 510.767 628.675C509.733 629.197 509.219 629.44 508.046 629.54C506.273 629.692 505.225 630.863 503.321 631.098C501.73 631.294 500.005 632.36 498.5 632.95C494.529 634.504 490.563 635.989 486.622 637.631C471.687 643.853 457.22 650.907 442.5 657.597C434.04 661.442 425.449 665.005 417.017 668.92C408.365 672.936 400.143 678.128 391.19 681.488C394.682 675.678 396.86 669.054 399.783 662.948C401.941 658.442 404.603 654.196 406.754 649.694C409.112 644.757 410.621 639.368 412.856 634.345C416.759 625.575 421.217 617.006 425.325 608.325L429.906 599.751C438.747 586.426 445.132 572.001 452.734 558.023C454.431 554.905 456.46 551.938 458.348 548.934C459.465 547.159 460.731 545.57 460.974 543.443C469.694 539.46 478.782 536.256 487.522 532.269C499.923 526.611 511.984 520.31 524.155 514.183C540.186 506.114 556.14 498.069 571.701 489.107C589.075 479.1 605.138 467.609 622.008 456.886C625.119 455.565 627.104 453.919 630.523 455.223C631.077 455.434 630.92 455.505 631.498 455.269C632.867 454.711 634.216 453.288 635.343 452.316C638.064 449.967 640.715 447.561 643.271 445.033C666.578 421.971 687.56 392.933 698.677 361.909C708.917 333.334 711.197 295.113 698.011 267.126C691.057 252.367 678.154 239.487 662.612 234.041C654.259 231.114 645.355 230.91 636.6 231.222C604.343 232.371 570.704 243.919 541.746 257.755C529.594 263.561 517.526 269.818 505.688 276.238C498.94 279.897 492.373 283.95 485.457 287.277L485.592 286.453C485.721 285.578 485.6 285.969 485.884 285C486.463 283.025 488.216 281.348 489.585 279.884C493.299 275.915 497.29 272.172 501.234 268.434C524.187 246.677 550.107 226.829 576.785 209.861C586.951 203.396 597.611 197.572 608 191.462C619.225 184.86 630.311 177.968 641.673 171.608C649.087 167.458 656.958 164.198 664.304 160.007C661.882 150.398 660.455 140.331 660.073 130.425C659.929 126.695 660.689 122.702 660.206 119.083C661.391 116.016 662.675 113.05 664.175 110.123C665.291 107.946 666.961 105.756 667.326 103.313ZM602.035 651.428C603.143 651.197 604.127 651.222 605.25 651.227L606.25 652.255C610.597 652.164 614.648 651.825 618.918 650.996C619.992 650.709 622.24 650.4 623.139 649.87C623.941 649.398 625.062 644.791 625.75 643.755L626.245 644.25L626.872 643.248C626.323 637.306 626.244 630.867 624.993 625.049C625.131 620.883 624.491 616.425 624.12 612.263C623.248 602.486 621.894 592.685 619.981 583.059L618.642 583.596C616.732 588.352 615.611 593.358 614.25 598.288C610.845 610.626 608.302 622.802 605.595 635.283C604.464 640.497 602.402 646.119 602.035 651.428Z"/>
	<defs>
		<linearGradient id="gradient_4" gradientUnits="userSpaceOnUse" x1="615.25" y1="617.75" x2="616.87598" y2="624.21802">
			<stop offset="0" stop-color="#FEFEFE" stop-opacity="0.054901961"/>
			<stop offset="1" stop-color="#FEFEFE" stop-opacity="0.18431373"/>
		</linearGradient>
	</defs>
	<path fill="url(#gradient_4)" transform="scale(0.5 0.5)" d="M613.119 626.891C612.599 623.199 611.931 619.517 614.195 616.25C616.059 616.192 615.978 616.284 617.42 617.5L618.75 621.159C619.371 622.266 620.678 623.911 622 624.151C623.386 624.403 623.677 624.2 624.993 625.049L624.664 626.885L623.629 626.116C622.81 627.04 623.002 626.853 621.874 627.314L621 627.995L620.125 627.497L619 627.096L618.5 626.5L617.625 625.997L617.245 625.25C616.552 626.29 617.133 627.544 616.247 627.997L613.119 626.891Z"/>
	<defs>
		<linearGradient id="gradient_5" gradientUnits="userSpaceOnUse" x1="616.75" y1="625.75" x2="625.76099" y2="628.83502">
			<stop offset="0" stop-color="#FEFEFE" stop-opacity="0.24705882"/>
			<stop offset="1" stop-color="#FEFEFE" stop-opacity="0.35686275"/>
		</linearGradient>
	</defs>
	<path fill="url(#gradient_5)" transform="scale(0.5 0.5)" d="M624.993 625.049C626.244 630.867 626.323 637.306 626.872 643.248L626.245 644.25L625.75 643.755C625.062 644.791 623.941 649.398 623.139 649.87C622.24 650.4 619.992 650.709 618.918 650.996L618.664 649.893C618.197 645.895 616.81 646.041 615.301 642.962C614.849 642.038 615.276 638.747 615.109 637.5C614.859 635.639 613.971 633.965 613.49 632.165C613.04 630.479 613.116 628.627 613.119 626.891L616.247 627.997C617.133 627.544 616.552 626.29 617.245 625.25L617.625 625.997L618.5 626.5L619 627.096L620.125 627.497L621 627.995L621.874 627.314C623.002 626.853 622.81 627.04 623.629 626.116L624.664 626.885L624.993 625.049Z"/>
	<path fill="#2999F7" transform="scale(0.5 0.5)" d="M540.855 626.895L541.341 627.149C547.939 630.721 553.896 636.009 560.246 640.098C571.537 647.369 583.012 652.25 595.365 657.331C597.575 655.903 600.876 653.844 602.035 651.428C603.143 651.197 604.127 651.222 605.25 651.227L606.25 652.255C610.597 652.164 614.648 651.825 618.918 650.996C619.992 650.709 622.24 650.4 623.139 649.87C623.941 649.398 625.062 644.791 625.75 643.755L626.245 644.25L626.872 643.248L626.987 647.75C629.008 648.223 634.735 644.568 636.847 643.577C647.47 638.592 658.288 634.754 669.872 632.835C674.977 634.076 680.77 637.671 683.67 642.166C685.851 645.546 685.236 649.236 684.297 652.938C680.561 656.188 675.744 658.234 671.329 660.421C664.338 663.885 657.221 667.321 650.075 670.453C647.089 671.761 644.076 673.01 641.077 674.289C640.619 674.484 639.178 674.957 638.941 675.28C607.489 683.396 574.178 680.463 542.015 680.484C541.951 668.449 542.145 656.407 541.931 644.374C541.83 638.708 542.144 632.393 540.855 626.895Z"/>
	<path fill="#F03D17" transform="scale(0.5 0.5)" d="M827.468 304.64L832.005 307.118C834.137 318.844 835.972 330.635 833.608 342.5C829.665 362.285 820.413 382.132 811.1 399.931C795.945 428.9 777.503 456.737 756.826 482.079C751.566 488.527 745.785 494.571 740.25 500.784C715.798 528.231 690.056 552.646 659.996 573.9C659.81 574.032 658.139 575.173 658.134 575.207C658.029 575.836 658.66 577.854 658.796 578.574C659.326 581.377 659.814 584.199 660.123 587.036C661.895 603.336 660.128 618.465 669.872 632.835C658.288 634.754 647.47 638.592 636.847 643.577C634.735 644.568 629.008 648.223 626.987 647.75L626.872 643.248C626.323 637.306 626.244 630.867 624.993 625.049C625.131 620.883 624.491 616.425 624.12 612.263C623.248 602.486 621.894 592.685 619.981 583.059C633.245 575.916 645.838 567.812 657.954 558.811C672.625 547.911 685.767 535.742 698.893 523.089C714.185 508.347 728.909 493.123 742.463 476.75C766.3 447.953 786.788 416.687 804.146 383.609C810.016 372.424 814.965 361.321 819.399 349.5C820.88 345.551 822.73 341.487 823.315 337.29C824.029 332.171 825.424 327.218 826.059 322.094C826.779 316.289 826.641 310.438 827.468 304.64Z"/>
</svg>
