<?xml version="1.0" encoding="utf-8" ?>
<svg xmlns="http://www.w3.org/2000/svg" xmlns:xlink="http://www.w3.org/1999/xlink" width="512" height="512">
	<defs>
		<linearGradient id="gradient_0" gradientUnits="userSpaceOnUse" x1="400.25" y1="763.75" x2="455.16901" y2="173.164">
			<stop offset="0" stop-color="#6ED9EE"/>
			<stop offset="1" stop-color="#D7F3E3"/>
		</linearGradient>
	</defs>
	<path fill="url(#gradient_0)" transform="scale(0.5 0.5)" d="M112.85 1024L-0 1024L0 -0L833.711 0L869.102 0L1024 0L1024 174.682L1024 193.834L1024 197L1024 1024L118.02 1024L112.85 1024ZM112.85 1024C116.532 1009.71 120.098 995.348 124.209 981.177C127.36 970.318 132.37 958.782 133.349 947.561C127.647 950.893 123.08 955.847 118.095 960.125C106.263 970.278 94.7251 980.772 82.705 990.704C82.2935 990.049 82.005 989.572 81.8335 988.804C81.4837 987.236 85.758 980.881 86.6928 979.094C103.401 947.149 119.674 914.963 136.356 883.009C142.369 871.491 148.303 859.923 154.369 848.434C158.143 841.286 162.284 834.215 165.578 826.836C168.741 819.747 171.19 811.277 172.725 803.681C174.684 793.98 174.764 782.957 180.314 774.394L180.745 773.75L180.745 772.25C181.05 770.343 182.54 769.306 183.95 768.177L184.5 767.745L185 767.25L186 767.229C186.956 766.347 187.029 765.468 187.413 764.25C188.288 761.48 187.911 759.78 187.243 757.054C190.992 754.05 194.672 750.953 198.465 748.005C200.315 746.567 203.653 744.625 204.682 742.525C207.702 736.357 213.172 730.723 217.192 725.075C221.144 718.333 226.21 712.085 230.66 705.648C234.715 699.781 238.746 693.881 242.75 687.978C245.293 684.229 247.808 679.039 251.518 676.468C252.13 676.057 252.248 676.04 252.75 675.348C253.608 674.166 254.115 671.716 254.629 670.306C256.043 666.423 258.864 661.972 258.461 657.75C256.525 657.22 254.05 658.124 252.091 658.519C247.449 659.454 242.797 660.379 238.136 661.216C212.067 665.894 186.028 670.891 159.925 675.364L194.103 632.775C190.691 620.886 186.933 609.035 183.964 597.028C178.3 574.123 174.257 549.534 173.613 525.949C173.186 510.296 172.981 494.338 174.51 478.75C175.876 464.817 178.5 451.083 181.584 437.442C184.29 425.478 187.282 413.488 191.372 401.916C204.998 363.355 227.041 326.313 253.308 294.975C258.269 289.056 263.76 283.527 269.073 277.925C271.497 276.095 273.633 273.624 275.849 271.533C279.956 267.658 284.102 263.833 288.427 260.202C302.445 248.434 317.137 238.251 332.341 228.116C344.595 219.947 358.04 212.966 371.434 206.874C403.01 192.509 436.875 182.885 471.438 179.531C483.515 178.359 495.674 178.359 507.796 178.488C521.786 178.637 536.577 179.141 550.33 181.869C563.343 183.427 576.294 186.887 588.897 190.366L625.32 204.307C627.287 212.028 629.51 219.909 632.914 227.136C640.633 243.523 654.046 257.953 669.633 267.151C683.137 275.12 699.347 280.435 715 281.814C722.237 282.452 729.754 282.125 737.016 282.069C741.985 282.03 749.001 280.976 753.524 282.799C759.456 282.494 767.003 281.885 772.75 283C776.684 283.763 796.7 281.963 798.5 283.745C805.249 283.752 812.863 284.489 819.5 283.623L820.094 283.57C821.241 283.457 820.277 283.573 821.297 283.365C822.347 283.15 823.434 283.229 824.5 283.25L824.75 283.745L825.5 283.25C826.853 284.062 827.2 284.471 827.979 285.809C828.386 286.507 829.099 286.695 829.5 287.25L829.875 288.125L830.507 288.823L831.317 288.419L826.777 282.365C834.425 281.384 842.601 281.902 850.323 281.874C866.664 281.815 883.007 281.896 899.348 281.925C916.672 281.956 934.729 282.937 951.668 278.672C961.803 276.12 971.327 271.593 979.912 265.665C995.726 254.746 1008.35 239.22 1014.83 221.05C1017.3 214.128 1018.81 206.212 1020.16 199C1021.22 198.041 1022.7 197.567 1024 197L1024 193.834L1024 174.682L1024 0L869.102 0L833.711 0L-0 -0L0 1024L112.85 1024ZM831.317 288.419L830.507 288.823L829.875 288.125L829.5 287.25C829.099 286.695 828.386 286.507 827.979 285.809C827.2 284.471 826.853 284.062 825.5 283.25L824.75 283.745L824.5 283.25C823.434 283.229 822.347 283.15 821.297 283.365C820.277 283.573 821.241 283.457 820.094 283.57L819.5 283.623C812.863 284.489 805.249 283.752 798.5 283.745C796.7 281.963 776.684 283.763 772.75 283C767.003 281.885 759.456 282.494 753.524 282.799C763.933 292.056 773.98 302.05 782.75 312.89C808.257 344.417 825.691 381.633 837.284 420.291C843.34 440.484 848.011 461.829 849.233 482.914C850.447 503.85 850.803 525.903 848.677 546.8C845.306 579.928 835.762 614.518 821.884 644.762C818.118 652.968 814.355 662.517 809.347 670.002L809.294 670.053C802.187 682.84 794.624 695.563 785.909 707.323C780.896 714.088 774.667 720.398 770.084 727.37L758.652 740.738C747.079 752.105 735.571 763.87 723.193 774.359C706.992 788.086 688.573 801.064 669.5 810.486C663.784 813.309 657.765 815.631 651.884 818.089C636.638 824.462 620.117 829.915 603.725 832.27C583.431 835.186 562.822 834.891 542.369 834.962C522.596 835.03 502.812 835.179 483.04 834.997C470.333 834.88 456.858 835.042 444.25 833.36C439.915 832.782 435.516 831.738 431.226 830.856L428.34 830.239C424.193 829.636 420.027 828.313 415.99 827.208C407.678 824.934 399.495 822.296 391.321 819.572C385.182 817.527 378.87 815.824 372.827 813.525L342.837 821.502C344.99 817.124 347.1 812.713 349.351 808.385C350.717 805.756 352.32 803.238 353.33 800.443L353.472 800.03C348.589 798.64 343.718 796.039 338.933 794.238L331.874 791.623L326.664 789.267L327.497 787.547L327.067 786.75C318.91 787.193 311.411 787.889 303.41 789.578C300.93 790.102 298.033 790.47 295.711 791.461L295.588 791.869C294.18 796.097 290.284 799.718 287.9 803.5C285.606 807.138 283.938 810.975 281.919 814.736C277.885 818.853 274.879 825.119 271.922 830.124C267.069 838.338 262.195 846.531 257.26 854.697C242.339 879.392 227.47 904.097 212.619 928.837C207.731 936.98 202.169 944.811 197.522 953.083C195.537 956.616 194.072 960.371 192.107 963.925L196.516 931.543L195.25 930.978C193.514 932.539 192.602 934.634 191.493 936.657C189.673 939.98 187.829 943.292 185.958 946.586C180.411 956.353 172.84 966.224 169.328 976.905C168.633 979.016 166.282 981.373 164.773 982.969C157.978 990.16 149.741 996.218 141.898 1002.21C136.364 1006.62 130.858 1011.07 125.446 1015.64C123.295 1017.45 120.241 1019.54 118.57 1021.75C118.166 1022.29 118.094 1022.92 118.037 1023.56L118.02 1024L1024 1024L1024 197C1022.7 197.567 1021.22 198.041 1020.16 199C1018.81 206.212 1017.3 214.128 1014.83 221.05C1008.35 239.22 995.726 254.746 979.912 265.665C971.327 271.593 961.803 276.12 951.668 278.672C934.729 282.937 916.672 281.956 899.348 281.925C883.007 281.896 866.664 281.815 850.323 281.874C842.601 281.902 834.425 281.384 826.777 282.365L831.317 288.419ZM194.103 632.775L159.925 675.364C186.028 670.891 212.067 665.894 238.136 661.216C242.797 660.379 247.449 659.454 252.091 658.519C254.05 658.124 256.525 657.22 258.461 657.75C258.864 661.972 256.043 666.423 254.629 670.306C254.115 671.716 253.608 674.166 252.75 675.348C252.248 676.04 252.13 676.057 251.518 676.468C247.808 679.039 245.293 684.229 242.75 687.978C238.746 693.881 234.715 699.781 230.66 705.648C226.21 712.085 221.144 718.333 217.192 725.075C213.172 730.723 207.702 736.357 204.682 742.525C203.653 744.625 200.315 746.567 198.465 748.005C194.672 750.953 190.992 754.05 187.243 757.054C187.911 759.78 188.288 761.48 187.413 764.25C187.029 765.468 186.956 766.347 186 767.229L185 767.25L184.5 767.745L183.95 768.177C182.54 769.306 181.05 770.343 180.745 772.25L180.745 773.75L180.314 774.394C174.764 782.957 174.684 793.98 172.725 803.681C171.19 811.277 168.741 819.747 165.578 826.836C162.284 834.215 158.143 841.286 154.369 848.434C148.303 859.923 142.369 871.491 136.356 883.009C119.674 914.963 103.401 947.149 86.6928 979.094C85.758 980.881 81.4837 987.236 81.8335 988.804C82.005 989.572 82.2935 990.049 82.705 990.704C94.7251 980.772 106.263 970.278 118.095 960.125C123.08 955.847 127.647 950.893 133.349 947.561C132.37 958.782 127.36 970.318 124.209 981.177C120.098 995.348 116.532 1009.71 112.85 1024L118.02 1024L118.037 1023.56C118.094 1022.92 118.166 1022.29 118.57 1021.75C120.241 1019.54 123.295 1017.45 125.446 1015.64C130.858 1011.07 136.364 1006.62 141.898 1002.21C149.741 996.218 157.978 990.16 164.773 982.969C166.282 981.373 168.633 979.016 169.328 976.905C172.84 966.224 180.411 956.353 185.958 946.586C187.829 943.292 189.673 939.98 191.493 936.657C192.602 934.634 193.514 932.539 195.25 930.978L196.516 931.543L192.107 963.925C194.072 960.371 195.537 956.616 197.522 953.083C202.169 944.811 207.731 936.98 212.619 928.837C227.47 904.097 242.339 879.392 257.26 854.697C262.195 846.531 267.069 838.338 271.922 830.124C274.879 825.119 277.885 818.853 281.919 814.736C283.938 810.975 285.606 807.138 287.9 803.5C290.284 799.718 294.18 796.097 295.588 791.869L295.711 791.461C298.033 790.47 300.93 790.102 303.41 789.578C311.411 787.889 318.91 787.193 327.067 786.75L327.497 787.547L326.664 789.267L331.874 791.623L338.933 794.238C343.718 796.039 348.589 798.64 353.472 800.03L353.33 800.443C352.32 803.238 350.717 805.756 349.351 808.385C347.1 812.713 344.99 817.124 342.837 821.502L372.827 813.525C378.87 815.824 385.182 817.527 391.321 819.572C399.495 822.296 407.678 824.934 415.99 827.208C420.027 828.313 424.193 829.636 428.34 830.239L428.532 829.884L428.255 829.25C428 828.321 428.281 827.596 428.7 826.8C429.769 824.767 430.325 822.739 430.884 820.517L440.581 792.122L443.416 783.566C441.775 781.184 438.933 779.326 436.556 777.741C426.495 771.032 416.458 767.745 404.779 765.113L357.46 760.104C360.745 757.967 364.26 756.188 367.463 753.921C377.454 746.847 386.797 738.647 396.532 731.201C421.92 711.78 447.109 691.894 469.579 669.079C477.048 661.495 483.969 653.391 490.785 645.223C503.129 630.43 515.216 614.015 521.337 595.559C530.989 566.455 515.65 533.61 502.836 507.878C500.439 503.501 497.838 497.327 494.194 493.967C491.563 493.077 488.672 489.509 486.252 487.795C482.73 485.302 479.06 483.121 475.395 480.856C466.447 475.327 454.513 469.108 443.988 467.657C438.831 466.946 433.267 467.753 428.25 468.968L423.358 469.863C421.797 470.359 420.221 470.025 418.626 469.847L417.5 468.451C416.793 468.457 415.089 468.249 414.5 468.474C413.927 468.692 413.583 469.348 413 469.537C412.011 469.856 409.505 469.566 408.397 469.554C403.774 469.504 398.613 469.742 394.076 469.25C393.497 468.238 393.605 468.121 392.5 467.572L392.135 467.823C388.603 470.127 384.033 470.842 380.218 472.769C373.477 476.175 368.201 480.641 362.116 484.943L342.427 474.657L322.07 463.698L319.75 462.556C316.896 465.652 314.525 469.372 311.962 472.734C303.489 483.844 295.732 495.456 287.567 506.788C264.761 538.441 241.874 570.102 218.715 601.496C213.561 608.482 208.303 615.384 203.013 622.267C200.57 625.445 197.294 630.417 194.103 632.775Z"/>
	<path fill="#DEF6E1" transform="scale(0.5 0.5)" d="M550.33 181.869C563.343 183.427 576.294 186.887 588.897 190.366C587.021 190.744 585.333 191.123 583.625 189.985L583 189.5L582.375 189.998L581.875 189.625L581.25 190.245L580.5 189.5C579.778 190.075 580.141 189.998 579.503 189.998L579.5 188.5L578.75 189.245L578 189L577.25 189.745L576.5 189C575.778 189.575 576.141 189.498 575.503 189.498L575.5 188.75L574.5 188L573.875 188.498L573.375 188.125L572.5 188.5L571.875 188.998C571.374 188.667 571.615 188.769 570.978 188.608L570.503 188.498L569.875 186.625L568.75 187.745L568 187L567.375 187.498C566.874 187.167 567.115 187.269 566.478 187.108L566.003 186.998L565.755 186L565 186.245L564.25 185.5L564.245 186.25L563.5 186.745L562.875 186.125L562.25 186.745L561.255 185.5L561 184.745L560.25 185.245L559.875 184.625L559.375 184.998C558.754 184.588 559.148 184.771 558.125 184.625L557.625 184.998L556.253 183.625L555 183.745L554.375 183.125C553.632 183.679 554.075 183.441 553 183.745L552.255 183.25C551.376 183.18 550.957 182.459 550.33 181.869Z"/>
	<path fill="#4CCBF6" transform="scale(0.5 0.5)" d="M470.146 748.969L469.413 736.323C484.295 732.274 499.083 729.17 514.563 730.971C507.408 734.835 499.89 737.744 492.375 740.807C485.115 743.767 477.726 746.929 470.146 748.969Z"/>
	<path transform="scale(0.5 0.5)" d="M591.018 420.943C595.617 417.462 600.138 413.897 603.321 409.016C614.833 420.47 625.052 432.603 633.35 446.625C649.255 473.502 656.47 505.678 656.557 536.77L654.75 574.552L654.197 574.25L654.358 541.055C641.743 539.142 629.506 534.628 617.313 530.964C602.177 526.416 586.174 522.38 571.687 516.088C566.383 513.784 561.312 510.826 556.822 507.17L552.712 502.743C546.011 494.84 542.426 485.535 543.34 475.128C544.957 456.712 558.014 446.703 571.596 436.309C578.166 431.281 584.67 426.253 591.018 420.943Z"/>
	<defs>
		<linearGradient id="gradient_1" gradientUnits="userSpaceOnUse" x1="271.75" y1="405.75" x2="436.99301" y2="481.604">
			<stop offset="0" stop-color="#00001E"/>
			<stop offset="1" stop-color="#00286E"/>
		</linearGradient>
	</defs>
	<path fill="url(#gradient_1)" transform="scale(0.5 0.5)" d="M315.445 386.806C289.805 414.391 265.271 445.637 249.479 480.028C246.923 485.594 244.085 491.48 242.588 497.432L241.568 500.665C241.462 498.947 241.789 497.17 242.068 495.476C244.067 483.322 247.426 471.589 250.795 459.767C256.519 439.682 263.923 419.3 273.203 400.547C295.39 355.715 328.111 316.92 368.647 287.663C404.267 261.954 449.069 243.708 493.25 241.925C502.842 241.538 512.83 241.632 522.321 243.173L521.884 243.307C519.354 244.043 518.157 243.227 515.75 243C513.973 242.833 512.042 242.985 510.25 243L509.5 242.5L508.844 242.561L506.5 242.623L504.748 242.625L505 243.255C507.375 243.255 508.804 242.956 510.498 245.002C511.072 245.697 511.301 246.647 511.498 247.502C511.798 248.807 512.387 248.729 513 249.75C513.219 250.114 513.044 250.628 513.25 251C513.34 251.164 514.219 251.896 514.245 252C514.264 252.075 513.99 253.861 514 254C514.031 254.441 514.597 255.54 514.75 256L515.497 256.002L515.745 256.75L515.125 257.375L515.5 258.25L515.75 259L516.122 259.5L516.497 260.125L516.247 260.625C516.718 261.723 516.459 261.228 516.997 262.125L516.747 262.625L517.245 263.5L517.497 264.502L517.637 265.03C517.996 266.839 518.2 272.067 517.245 273.5C517.245 274.837 517.503 275.864 516.745 277C516.745 278.337 517.003 279.364 516.245 280.5C516.245 281.563 516.376 281.554 515.745 282.5C515.745 283.744 515.956 284.434 515.245 285.5C515.245 286.563 515.376 286.554 514.745 287.5C514.745 288.691 514.928 288.976 514.245 290C514.245 291.191 514.428 291.476 513.745 292.5C513.745 293.691 513.928 293.976 513.245 295C513.245 296.244 513.456 296.934 512.745 298C512.745 299.244 512.956 299.934 512.245 301L512.318 306.055L512.245 318.25L511.625 318.875L511.245 318.75C510.798 319.878 511.015 319.849 509.875 320.498L509.375 320.248L507.5 320.5C508.148 321.092 508.742 321.556 509.5 322L510.5 321.877C511.469 321.879 511.243 321.981 512 322.377C512.714 322.751 513.212 322.715 514 322.877C514.742 323.03 515.475 323.342 516.25 323.5C517.328 323.72 518.028 324.112 519 324.5L520.375 324.625C521.856 325.03 523.541 325.703 525 326.25L527.777 327.138L527.431 327.715C518.203 324.989 508.989 322.22 499.5 320.533C453.352 312.327 409.893 322.857 369.13 345.089C357.285 351.549 346.674 359.322 336.096 367.634C329.092 373.138 320.934 379.701 315.445 386.806Z"/>
	<path fill="#003784" transform="scale(0.5 0.5)" d="M527.431 327.715L527.777 327.138L525 326.25C523.541 325.703 521.856 325.03 520.375 324.625L519 324.5C518.028 324.112 517.328 323.72 516.25 323.5C515.475 323.342 514.742 323.03 514 322.877C513.212 322.715 512.714 322.751 512 322.377C511.243 321.981 511.469 321.879 510.5 321.877L509.5 322C508.742 321.556 508.148 321.092 507.5 320.5L509.375 320.248L509.875 320.498C511.015 319.849 510.798 319.878 511.245 318.75L511.625 318.875L512.245 318.25L512.318 306.055L512.245 301C512.956 299.934 512.745 299.244 512.745 298C513.456 296.934 513.245 296.244 513.245 295C513.928 293.976 513.745 293.691 513.745 292.5C514.428 291.476 514.245 291.191 514.245 290C514.928 288.976 514.745 288.691 514.745 287.5C515.376 286.554 515.245 286.563 515.245 285.5C515.956 284.434 515.745 283.744 515.745 282.5C516.376 281.554 516.245 281.563 516.245 280.5C517.003 279.364 516.745 278.337 516.745 277C517.503 275.864 517.245 274.837 517.245 273.5C518.2 272.067 517.996 266.839 517.637 265.03L517.497 264.502L517.245 263.5L516.747 262.625L516.997 262.125C516.459 261.228 516.718 261.723 516.247 260.625L516.497 260.125L516.122 259.5L515.75 259L515.5 258.25L515.125 257.375L515.745 256.75L515.497 256.002L514.75 256C514.597 255.54 514.031 254.441 514 254C513.99 253.861 514.264 252.075 514.245 252C514.219 251.896 513.34 251.164 513.25 251C513.044 250.628 513.219 250.114 513 249.75C512.387 248.729 511.798 248.807 511.498 247.502C511.301 246.647 511.072 245.697 510.498 245.002C508.804 242.956 507.375 243.255 505 243.255L504.748 242.625L506.5 242.623L508.844 242.561L509.5 242.5L510.25 243C512.042 242.985 513.973 242.833 515.75 243C518.157 243.227 519.354 244.043 521.884 243.307L522.321 243.173C532.466 243.54 543.653 246.668 553.326 249.653C578.565 257.441 602.832 270.951 623.088 287.892C636.714 299.288 648.996 312.565 661.074 325.55C692.978 359.846 728.867 392.478 751.143 434.25C756.599 444.482 760.711 455.075 764.543 466C766.72 472.207 768.68 478.506 770.41 484.853C771.067 487.262 772.18 490.282 772.357 492.75C772.395 493.284 772.324 493.469 772.216 493.935C762.574 458.278 734.922 432.822 703.805 414.959L591.368 356.625C588.918 356.118 585.042 353.359 582.589 352.135C570.855 346.28 558.968 340.664 546.891 335.554C540.478 332.84 533.73 330.623 527.431 327.715Z"/>
	<path fill="#00A6F7" transform="scale(0.5 0.5)" d="M315.445 386.806C320.934 379.701 329.092 373.138 336.096 367.634C346.674 359.322 357.285 351.549 369.13 345.089C409.893 322.857 453.352 312.327 499.5 320.533C508.989 322.22 518.203 324.989 527.431 327.715C533.73 330.623 540.478 332.84 546.891 335.554C558.968 340.664 570.855 346.28 582.589 352.135C585.042 353.359 588.918 356.118 591.368 356.625C590.038 360.206 590.551 366.131 590.489 369.977C590.293 382.274 590.401 394.575 590.529 406.872C590.561 410 590.587 413.127 590.616 416.255C590.63 417.814 590.405 419.5 591.018 420.943C584.67 426.253 578.166 431.281 571.596 436.309C558.014 446.703 544.957 456.712 543.34 475.128C542.426 485.535 546.011 494.84 552.712 502.743L556.822 507.17C551.649 509.144 544.227 508.518 538.722 508.518C526.759 508.518 514.797 508.069 502.836 507.878C500.439 503.501 497.838 497.327 494.194 493.967C491.563 493.077 488.672 489.509 486.252 487.795C482.73 485.302 479.06 483.121 475.395 480.856C466.447 475.327 454.513 469.108 443.988 467.657C438.831 466.946 433.267 467.753 428.25 468.968L423.358 469.863C421.797 470.359 420.221 470.025 418.626 469.847L417.5 468.451C416.793 468.457 415.089 468.249 414.5 468.474C413.927 468.692 413.583 469.348 413 469.537C412.011 469.856 409.505 469.566 408.397 469.554C403.774 469.504 398.613 469.742 394.076 469.25C393.497 468.238 393.605 468.121 392.5 467.572L392.135 467.823C388.603 470.127 384.033 470.842 380.218 472.769C373.477 476.175 368.201 480.641 362.116 484.943L342.427 474.657L322.07 463.698C322.424 461.503 323.755 459.779 324.644 457.778C326.159 454.369 327.321 450.621 328.007 446.957L328.18 446C331.384 429.122 327.502 414.595 321.033 399.08C319.343 395.03 317.833 390.492 315.445 386.806Z"/>
	<defs>
		<linearGradient id="gradient_2" gradientUnits="userSpaceOnUse" x1="541.25" y1="370.75" x2="419.86899" y2="531.479">
			<stop offset="0" stop-color="#FECE39"/>
			<stop offset="1" stop-color="#FEAB45"/>
		</linearGradient>
	</defs>
	<path fill="url(#gradient_2)" transform="scale(0.5 0.5)" d="M342.427 474.657C366.495 446.442 394.157 420.305 425.177 399.897C448.744 384.391 473.652 372.13 502.174 369.833L542.904 369.821C543.26 384.442 544.404 399.805 542.248 414.308C539.42 433.325 526.238 449.147 515.068 464.1C507.853 473.759 500.481 483.667 494.194 493.967C491.563 493.077 488.672 489.509 486.252 487.795C482.73 485.302 479.06 483.121 475.395 480.856C466.447 475.327 454.513 469.108 443.988 467.657C438.831 466.946 433.267 467.753 428.25 468.968L423.358 469.863C421.797 470.359 420.221 470.025 418.626 469.847L417.5 468.451C416.793 468.457 415.089 468.249 414.5 468.474C413.927 468.692 413.583 469.348 413 469.537C412.011 469.856 409.505 469.566 408.397 469.554C403.774 469.504 398.613 469.742 394.076 469.25C393.497 468.238 393.605 468.121 392.5 467.572L392.135 467.823C388.603 470.127 384.033 470.842 380.218 472.769C373.477 476.175 368.201 480.641 362.116 484.943L342.427 474.657Z"/>
	<path transform="scale(0.5 0.5)" d="M513.985 393.175C516.991 393.496 519.48 393.974 522.014 395.781C525.959 398.594 528.483 403.479 529.205 408.216C529.768 411.906 528.766 415.934 526.54 418.917C523.405 423.118 519.165 424.279 514.295 425.101C510.88 424.736 507.67 423.986 504.829 421.935C501.019 419.186 498.738 415.313 498.155 410.679C497.675 406.86 499.326 402.254 501.664 399.25C504.942 395.039 508.925 393.756 513.985 393.175Z"/>
	<path fill="#4CCBF6" transform="scale(0.5 0.5)" d="M564.272 676.361C565.661 676.062 567.136 676.138 568.496 675.729C573.184 674.317 577.691 671.949 582.324 670.295C584.06 669.675 585.728 669.151 587.532 668.771C588.053 668.661 589.926 668.454 590.275 668.222C590.494 668.076 590.479 665.531 590.548 664.605C591.46 652.323 594.689 640.358 602.755 630.752C613.191 618.325 627.228 611.127 643.354 609.722C656.566 608.57 670.649 613.864 680.692 622.346C693.434 633.108 700.824 650.141 702.209 666.562L707.298 667.106C720.001 669.355 732.921 675.651 740.484 686.345L740.869 686.895C748.348 676.782 760.318 666.634 773.114 664.501C779.217 663.484 785.395 662.976 791.557 663.832C798.483 664.795 803.39 666.343 809.294 670.053C802.187 682.84 794.624 695.563 785.909 707.323C780.896 714.088 774.667 720.398 770.084 727.37L758.652 740.738C747.079 752.105 735.571 763.87 723.193 774.359C706.992 788.086 688.573 801.064 669.5 810.486C663.784 813.309 657.765 815.631 651.884 818.089C636.638 824.462 620.117 829.915 603.725 832.27C583.431 835.186 562.822 834.891 542.369 834.962C522.596 835.03 502.812 835.179 483.04 834.997C470.333 834.88 456.858 835.042 444.25 833.36C439.915 832.782 435.516 831.738 431.226 830.856L428.34 830.239L428.532 829.884L428.255 829.25C428 828.321 428.281 827.596 428.7 826.8C429.769 824.767 430.325 822.739 430.884 820.517L440.581 792.122L443.416 783.566C441.775 781.184 438.933 779.326 436.556 777.741C426.495 771.032 416.458 767.745 404.779 765.113L470.146 748.969C477.726 746.929 485.115 743.767 492.375 740.807C499.89 737.744 507.408 734.835 514.563 730.971L514.865 730.903C519.308 729.471 523.651 726.886 527.766 724.694C537.93 719.277 550.361 713.119 551.295 699.998C551.712 694.14 548.46 689.748 551.882 683.978C554.629 679.347 559.354 677.623 564.272 676.361Z"/>
	<path fill="#0083FE" transform="scale(0.5 0.5)" d="M564.272 676.361C565.362 676.414 567.245 676.267 568.25 676.554C570.497 677.197 573.322 679.852 574.855 681.568C577.917 684.995 579.808 689.106 581.039 693.5L581.275 694.328C584.076 704.636 579.937 718.751 574.68 727.704C564.889 744.377 546.8 751.442 530.154 759.291C520.924 763.643 511.754 768.256 502.25 771.992C488.13 777.543 473.323 781.866 458.813 786.256C455.716 787.193 452.642 788.168 449.617 789.319C447.675 790.058 445.731 791.146 443.709 791.616L440.581 792.122L443.416 783.566C441.775 781.184 438.933 779.326 436.556 777.741C426.495 771.032 416.458 767.745 404.779 765.113L470.146 748.969C477.726 746.929 485.115 743.767 492.375 740.807C499.89 737.744 507.408 734.835 514.563 730.971L514.865 730.903C519.308 729.471 523.651 726.886 527.766 724.694C537.93 719.277 550.361 713.119 551.295 699.998C551.712 694.14 548.46 689.748 551.882 683.978C554.629 679.347 559.354 677.623 564.272 676.361Z"/>
	<path fill="#0083FE" transform="scale(0.5 0.5)" d="M431.226 830.856C431.997 827.312 436.162 824.939 439 823.036C444.605 819.276 450.339 815.732 456 812.062C460.447 809.178 464.988 806.007 469.004 802.541C474.574 797.733 478.878 792.901 482.117 786.285C488.604 789.329 494.61 793.086 501.62 794.871L502.5 795.09L505.232 795.71C522.449 798.415 540.566 793.031 554.468 782.901C558.2 780.182 561.31 776.922 564.547 773.648C570.529 779.712 576.845 784.758 584.786 788.065C599.51 794.196 614.401 792.559 628.867 786.76C620.141 781.961 611.609 771.767 606.078 763.64C611.925 757.197 619.27 752.185 625.368 745.909C625.669 745.598 625.84 744.939 626.271 744.975C626.98 745.036 631.366 748.709 632.203 749.29C643.708 757.27 657.636 759.488 671.346 757.669C695.553 754.456 714.508 740.096 729.363 721.268C737.776 729.715 748.001 735.592 758.652 740.738C747.079 752.105 735.571 763.87 723.193 774.359C706.992 788.086 688.573 801.064 669.5 810.486C663.784 813.309 657.765 815.631 651.884 818.089C636.638 824.462 620.117 829.915 603.725 832.27C583.431 835.186 562.822 834.891 542.369 834.962C522.596 835.03 502.812 835.179 483.04 834.997C470.333 834.88 456.858 835.042 444.25 833.36C439.915 832.782 435.516 831.738 431.226 830.856Z"/>
	<path fill="#F15917" transform="scale(0.5 0.5)" d="M194.103 632.775C197.294 630.417 200.57 625.445 203.013 622.267C208.303 615.384 213.561 608.482 218.715 601.496C241.874 570.102 264.761 538.441 287.567 506.788C295.732 495.456 303.489 483.844 311.962 472.734C314.525 469.372 316.896 465.652 319.75 462.556L322.07 463.698L342.427 474.657L362.116 484.943C368.201 480.641 373.477 476.175 380.218 472.769C384.033 470.842 388.603 470.127 392.135 467.823L392.5 467.572C393.605 468.121 393.497 468.238 394.076 469.25C398.613 469.742 403.774 469.504 408.397 469.554C409.505 469.566 412.011 469.856 413 469.537C413.583 469.348 413.927 468.692 414.5 468.474C415.089 468.249 416.793 468.457 417.5 468.451L418.626 469.847C420.221 470.025 421.797 470.359 423.358 469.863L428.25 468.968C433.267 467.753 438.831 466.946 443.988 467.657C454.513 469.108 466.447 475.327 475.395 480.856C479.06 483.121 482.73 485.302 486.252 487.795C488.672 489.509 491.563 493.077 494.194 493.967C497.838 497.327 500.439 503.501 502.836 507.878C515.65 533.61 530.989 566.455 521.337 595.559C515.216 614.015 503.129 630.43 490.785 645.223C483.969 653.391 477.048 661.495 469.579 669.079C447.109 691.894 421.92 711.78 396.532 731.201C386.797 738.647 377.454 746.847 367.463 753.921C364.26 756.188 360.745 757.967 357.46 760.104L404.779 765.113C416.458 767.745 426.495 771.032 436.556 777.741C438.933 779.326 441.775 781.184 443.416 783.566L440.581 792.122L430.884 820.517C430.325 822.739 429.769 824.767 428.7 826.8C428.281 827.596 428 828.321 428.255 829.25L428.532 829.884L428.34 830.239C424.193 829.636 420.027 828.313 415.99 827.208C407.678 824.934 399.495 822.296 391.321 819.572C385.182 817.527 378.87 815.824 372.827 813.525L342.837 821.502C344.99 817.124 347.1 812.713 349.351 808.385C350.717 805.756 352.32 803.238 353.33 800.443L353.472 800.03C348.589 798.64 343.718 796.039 338.933 794.238L331.874 791.623L326.664 789.267L327.497 787.547L327.067 786.75C318.91 787.193 311.411 787.889 303.41 789.578C300.93 790.102 298.033 790.47 295.711 791.461L295.588 791.869C294.18 796.097 290.284 799.718 287.9 803.5C285.606 807.138 283.938 810.975 281.919 814.736C277.885 818.853 274.879 825.119 271.922 830.124C267.069 838.338 262.195 846.531 257.26 854.697C242.339 879.392 227.47 904.097 212.619 928.837C207.731 936.98 202.169 944.811 197.522 953.083C195.537 956.616 194.072 960.371 192.107 963.925L196.516 931.543L195.25 930.978C193.514 932.539 192.602 934.634 191.493 936.657C189.673 939.98 187.829 943.292 185.958 946.586C180.411 956.353 172.84 966.224 169.328 976.905C168.633 979.016 166.282 981.373 164.773 982.969C157.978 990.16 149.741 996.218 141.898 1002.21C136.364 1006.62 130.858 1011.07 125.446 1015.64C123.295 1017.45 120.241 1019.54 118.57 1021.75C118.166 1022.29 118.094 1022.92 118.037 1023.56L118.02 1024L112.85 1024C116.532 1009.71 120.098 995.348 124.209 981.177C127.36 970.318 132.37 958.782 133.349 947.561C127.647 950.893 123.08 955.847 118.095 960.125C106.263 970.278 94.7251 980.772 82.705 990.704C82.2935 990.049 82.005 989.572 81.8335 988.804C81.4837 987.236 85.758 980.881 86.6928 979.094C103.401 947.149 119.674 914.963 136.356 883.009C142.369 871.491 148.303 859.923 154.369 848.434C158.143 841.286 162.284 834.215 165.578 826.836C168.741 819.747 171.19 811.277 172.725 803.681C174.684 793.98 174.764 782.957 180.314 774.394L180.745 773.75L180.745 772.25C181.05 770.343 182.54 769.306 183.95 768.177L184.5 767.745L185 767.25L186 767.229C186.956 766.347 187.029 765.468 187.413 764.25C188.288 761.48 187.911 759.78 187.243 757.054C190.992 754.05 194.672 750.953 198.465 748.005C200.315 746.567 203.653 744.625 204.682 742.525C207.702 736.357 213.172 730.723 217.192 725.075C221.144 718.333 226.21 712.085 230.66 705.648C234.715 699.781 238.746 693.881 242.75 687.978C245.293 684.229 247.808 679.039 251.518 676.468C252.13 676.057 252.248 676.04 252.75 675.348C253.608 674.166 254.115 671.716 254.629 670.306C256.043 666.423 258.864 661.972 258.461 657.75C256.525 657.22 254.05 658.124 252.091 658.519C247.449 659.454 242.797 660.379 238.136 661.216C212.067 665.894 186.028 670.891 159.925 675.364L194.103 632.775ZM221.737 876.589C216.448 886.451 211.054 896.254 206.095 906.288C202.112 914.346 198.083 922.633 196.516 931.543L192.107 963.925C194.072 960.371 195.537 956.616 197.522 953.083C202.169 944.811 207.731 936.98 212.619 928.837C227.47 904.097 242.339 879.392 257.26 854.697C262.195 846.531 267.069 838.338 271.922 830.124C274.879 825.119 277.885 818.853 281.919 814.736C283.938 810.975 285.606 807.138 287.9 803.5C290.284 799.718 294.18 796.097 295.588 791.869L295.711 791.461C298.033 790.47 300.93 790.102 303.41 789.578C311.411 787.889 318.91 787.193 327.067 786.75L327.497 787.547L326.664 789.267L331.874 791.623L338.933 794.238C343.718 796.039 348.589 798.64 353.472 800.03L353.33 800.443C352.32 803.238 350.717 805.756 349.351 808.385C347.1 812.713 344.99 817.124 342.837 821.502L372.827 813.525C378.87 815.824 385.182 817.527 391.321 819.572C399.495 822.296 407.678 824.934 415.99 827.208C420.027 828.313 424.193 829.636 428.34 830.239L428.532 829.884L428.255 829.25C428 828.321 428.281 827.596 428.7 826.8C429.769 824.767 430.325 822.739 430.884 820.517L440.581 792.122L443.416 783.566C441.775 781.184 438.933 779.326 436.556 777.741C426.495 771.032 416.458 767.745 404.779 765.113L357.46 760.104C343.407 760.237 328.82 760.149 315.023 763.094C312.638 754.513 309.118 745.525 304.293 738.007C298.762 746.383 293.958 755.444 289.249 764.314C288.709 765.331 286.617 771.055 286.286 771.266C285.926 771.496 284.414 771.68 283.916 771.802C282.108 772.246 280.318 772.781 278.681 773.689C275.044 775.705 272.239 778.968 268.728 781.187C255.211 789.734 240.692 795.708 225.043 798.934C210.539 801.924 195.975 802.661 181.21 801.999L181.497 802.55C184.768 808.959 183.772 818.237 182.931 825.246C209.808 825.424 236.493 824.599 260.507 810.897C252.984 821.066 246.834 832.151 240.586 843.126C234.252 854.255 227.849 865.336 221.737 876.589Z"/>
	<path fill="#E8171B" transform="scale(0.5 0.5)" d="M251.518 676.468C262.771 677.182 275.001 674.372 286.195 672.878C285.857 673.151 284.846 674.162 284.5 674.245C283.297 674.536 283.209 673.942 282 674.745C280.669 674.747 279.632 674.493 278.5 675.245C277.283 675.274 275.971 675.185 274.813 675.566C273.393 676.033 271.529 675.226 270.5 676.245L269.61 676.176C268.265 676.079 267.151 675.98 266 676.745C264.783 676.774 263.471 676.685 262.313 677.066C260.766 677.575 259.396 676.818 258 677.745L253.502 677.875L253.245 677.25L252.745 678C252.196 678.795 251.978 679.304 251 679.5L250.625 679.875L249.625 679.625C248.621 680.818 247.81 681.947 247.07 683.32C246.605 684.185 246.093 684.738 245.5 685.5L244.625 686.753L245.375 686.875L245.836 686.492C246.568 685.923 247.313 685.56 248.125 685.125L249.998 684.125L250.245 684.75L249 685.75L248.998 686.497C248.486 687.009 248.5 687.243 247.745 687.25L247.498 688.497L246.5 688.75L246.745 689.75C246.234 690.09 245.635 690.283 245.125 690.625C244.325 691.161 244.5 691.179 244.498 691.997L242.75 693.745L242.002 693.497C242.002 692.814 242.19 692.278 242.375 691.625L241.75 692.245L241 692.25L240.842 692.795C240.45 693.769 239.808 694.133 239 694.75L238.836 695.202C238.395 696.375 237.72 697.408 237.123 698.5L236.745 699.25L236 699.75L235.998 700.497C235.464 700.965 234.358 701.69 234 702.25C233.682 702.748 233.949 703.03 233.443 703.539C232.461 704.528 231.748 705.586 231 706.75L230.5 707.5L230.154 708.219C229.666 709.187 229.113 709.864 228.357 710.625C227.665 711.322 227.306 712.079 226.998 712.997C225.848 713.904 225.902 713.96 225.125 715.125L224.5 715.75L224.498 716.497L224.092 716.848C222.948 717.992 221.999 719.69 221 721L220.25 722.245C219.408 723.561 218.563 724.326 217.192 725.075C221.144 718.333 226.21 712.085 230.66 705.648C234.715 699.781 238.746 693.881 242.75 687.978C245.293 684.229 247.808 679.039 251.518 676.468Z"/>
	<path fill="#DB182A" transform="scale(0.5 0.5)" d="M141.898 1002.21L140.5 1001C139.801 998.624 141.621 994.751 142.481 992.436C158.429 949.487 182.226 909.836 205.057 870.324C207.417 866.239 209.723 862.162 211.942 858C212.674 856.627 213.566 854.297 215 853.638C216.843 855.562 216.358 858.472 216.592 860.965C216.905 864.311 217.276 867.575 218.173 870.824C218.979 873.743 219.011 875.053 221.737 876.589C216.448 886.451 211.054 896.254 206.095 906.288C202.112 914.346 198.083 922.633 196.516 931.543L195.25 930.978C193.514 932.539 192.602 934.634 191.493 936.657C189.673 939.98 187.829 943.292 185.958 946.586C180.411 956.353 172.84 966.224 169.328 976.905C168.633 979.016 166.282 981.373 164.773 982.969C157.978 990.16 149.741 996.218 141.898 1002.21Z"/>
	<path transform="scale(0.5 0.5)" d="M221.737 876.589C227.849 865.336 234.252 854.255 240.586 843.126C246.834 832.151 252.984 821.066 260.507 810.897C236.493 824.599 209.808 825.424 182.931 825.246C183.772 818.237 184.768 808.959 181.497 802.55L181.21 801.999C195.975 802.661 210.539 801.924 225.043 798.934C240.692 795.708 255.211 789.734 268.728 781.187C272.239 778.968 275.044 775.705 278.681 773.689C280.318 772.781 282.108 772.246 283.916 771.802C284.414 771.68 285.926 771.496 286.286 771.266C286.617 771.055 288.709 765.331 289.249 764.314C293.958 755.444 298.762 746.383 304.293 738.007C309.118 745.525 312.638 754.513 315.023 763.094C328.82 760.149 343.407 760.237 357.46 760.104L404.779 765.113C416.458 767.745 426.495 771.032 436.556 777.741C438.933 779.326 441.775 781.184 443.416 783.566L440.581 792.122L430.884 820.517C430.325 822.739 429.769 824.767 428.7 826.8C428.281 827.596 428 828.321 428.255 829.25L428.532 829.884L428.34 830.239C424.193 829.636 420.027 828.313 415.99 827.208C407.678 824.934 399.495 822.296 391.321 819.572C385.182 817.527 378.87 815.824 372.827 813.525L342.837 821.502C344.99 817.124 347.1 812.713 349.351 808.385C350.717 805.756 352.32 803.238 353.33 800.443L353.472 800.03C348.589 798.64 343.718 796.039 338.933 794.238L331.874 791.623L326.664 789.267L327.497 787.547L327.067 786.75C318.91 787.193 311.411 787.889 303.41 789.578C300.93 790.102 298.033 790.47 295.711 791.461L295.588 791.869C294.18 796.097 290.284 799.718 287.9 803.5C285.606 807.138 283.938 810.975 281.919 814.736C277.885 818.853 274.879 825.119 271.922 830.124C267.069 838.338 262.195 846.531 257.26 854.697C242.339 879.392 227.47 904.097 212.619 928.837C207.731 936.98 202.169 944.811 197.522 953.083C195.537 956.616 194.072 960.371 192.107 963.925L196.516 931.543C198.083 922.633 202.112 914.346 206.095 906.288C211.054 896.254 216.448 886.451 221.737 876.589ZM350.358 785.735C346.934 787.141 343.862 788.836 341.012 791.215L331.874 791.623L338.933 794.238C343.718 796.039 348.589 798.64 353.472 800.03C357.65 794.842 360.518 790.828 366.097 786.932C362.81 786.254 359.276 786.187 355.925 785.924L350.358 785.735ZM327.067 786.75L327.497 787.547L326.664 789.267L331.874 791.623L341.012 791.215C343.862 788.836 346.934 787.141 350.358 785.735L327.101 786.685L327.067 786.75Z"/>
	<path fill="#3EEAFD" fill-opacity="0.33333334" transform="scale(0.5 0.5)" d="M327.067 786.75L327.101 786.685L350.358 785.735C346.934 787.141 343.862 788.836 341.012 791.215L331.874 791.623L326.664 789.267L327.497 787.547L327.067 786.75Z"/>
	<path fill="#3EEAFD" fill-opacity="0.98039216" transform="scale(0.5 0.5)" d="M350.358 785.735L355.925 785.924C359.276 786.187 362.81 786.254 366.097 786.932C360.518 790.828 357.65 794.842 353.472 800.03C348.589 798.64 343.718 796.039 338.933 794.238L331.874 791.623L341.012 791.215C343.862 788.836 346.934 787.141 350.358 785.735ZM350.358 785.735C346.934 787.141 343.862 788.836 341.012 791.215L331.874 791.623L338.933 794.238L340.241 794.029C344.176 793.495 345.974 788.915 349 788.605C351.682 788.33 352.125 790.102 354.25 790.574C354.901 790.719 355.583 790.524 356.25 790.499C357.287 789.67 357.684 789.468 358.156 788.25L355.925 785.924L350.358 785.735Z"/>
	<path fill="#45D2FE" fill-opacity="0.8392157" transform="scale(0.5 0.5)" d="M350.358 785.735L355.925 785.924L358.156 788.25C357.684 789.468 357.287 789.67 356.25 790.499C355.583 790.524 354.901 790.719 354.25 790.574C352.125 790.102 351.682 788.33 349 788.605C345.974 788.915 344.176 793.495 340.241 794.029L338.933 794.238L331.874 791.623L341.012 791.215C343.862 788.836 346.934 787.141 350.358 785.735Z"/>
	<path fill="#45D2FE" transform="scale(0.5 0.5)" d="M372.827 813.525L409.811 792.451C419.667 798.579 427.559 809.421 430.884 820.517C430.325 822.739 429.769 824.767 428.7 826.8C428.281 827.596 428 828.321 428.255 829.25L428.532 829.884L428.34 830.239C424.193 829.636 420.027 828.313 415.99 827.208C407.678 824.934 399.495 822.296 391.321 819.572C385.182 817.527 378.87 815.824 372.827 813.525Z"/>
	<path fill="#DB182A" transform="scale(0.5 0.5)" d="M194.103 632.775C197.294 630.417 200.57 625.445 203.013 622.267C208.303 615.384 213.561 608.482 218.715 601.496C241.874 570.102 264.761 538.441 287.567 506.788C295.732 495.456 303.489 483.844 311.962 472.734C314.525 469.372 316.896 465.652 319.75 462.556L322.07 463.698L342.427 474.657L362.116 484.943C368.201 480.641 373.477 476.175 380.218 472.769C384.033 470.842 388.603 470.127 392.135 467.823L392.5 467.572C393.605 468.121 393.497 468.238 394.076 469.25C398.613 469.742 403.774 469.504 408.397 469.554C409.505 469.566 412.011 469.856 413 469.537C413.583 469.348 413.927 468.692 414.5 468.474C415.089 468.249 416.793 468.457 417.5 468.451L418.626 469.847C420.221 470.025 421.797 470.359 423.358 469.863C425.131 469.941 426.434 470.024 428.04 470.808C430.281 471.9 434.598 472.402 437.172 472.607C441.722 472.968 447.085 476.089 450.623 478.868L451.295 479.39C460.097 486.387 468.027 501.92 469.465 513C472.183 533.926 460.63 557.335 448.291 573.585C423.138 606.71 387.194 632.61 349.551 649.772C337.112 655.442 324.072 660.027 311.11 664.341C305.591 666.178 300.145 668.217 294.671 670.182C292.12 671.097 288.994 672.517 286.333 672.903L286.195 672.878C275.001 674.372 262.771 677.182 251.518 676.468C252.13 676.057 252.248 676.04 252.75 675.348C253.608 674.166 254.115 671.716 254.629 670.306C256.043 666.423 258.864 661.972 258.461 657.75C256.525 657.22 254.05 658.124 252.091 658.519C247.449 659.454 242.797 660.379 238.136 661.216C212.067 665.894 186.028 670.891 159.925 675.364L194.103 632.775Z"/>
	<path fill="#FB8A2A" transform="scale(0.5 0.5)" d="M770.084 727.37L770.965 727.813C769.471 729.417 768.392 731.198 766.747 732.625L766.497 733.497C765.537 734.413 765.145 734.896 764.497 735.997C763.852 737.097 762.706 737.781 761.997 738.997C761.502 739.849 760.202 740.43 759.745 741.25C758.952 742.673 759.562 742.53 757.93 743.621C757.4 743.976 756.991 744.348 756.5 744.745L755.96 745.152C754.293 746.487 749.686 752.239 748 752.25C745.537 754.698 742.794 757.114 740.592 759.788L736.921 763.544C736.056 764.476 736.091 764.065 735.247 764.625C732.581 766.395 730.747 769.583 727.953 771.452C726.522 772.41 725.686 773.931 724.156 774.951C723.182 775.601 722.511 776.372 721.75 777.245L721 777.25L719.25 779.245L718.5 779.25L716.75 781.245L716 781.25L714.25 783.245L713.5 783.25L712.95 783.969C712.352 784.728 711.944 784.979 711 785.25L710.25 786.245L709.5 786.25L708.25 787.745L707.5 787.75L706.907 788.359C705.013 790.253 707.201 788.175 705.745 789.25L704.75 790.245L704 790.25C703.437 790.66 702.951 791.068 702.43 791.53C701.7 792.177 702.035 791.951 701 792.25L699.75 793.745L699 793.75L698.25 794.745L697.5 794.75L696.75 795.745L696 795.75L695.68 796.102C694.698 797.083 695.948 795.826 694.375 796.875L693.75 797.5L692.875 797.875L692.25 798.745L691.5 798.75L691.062 799.224C690.429 799.854 690.248 799.803 689.5 800.122C688.371 800.605 687.334 802.239 686.245 802.25C685.456 802.7 684.865 803.072 684.25 803.745L683.5 803.75L683.094 804.216C682.334 804.972 681.87 804.831 681 805.25L680.5 805.622L679.75 806C678.644 806.647 677.81 807.741 676.5 807.75C675.679 808.404 675.585 808.743 674.5 808.75L674.078 809.224C673.448 809.851 673.082 809.936 672.247 810.125L671.75 810.745L671.245 810.75L670.5 811.245L669.875 811.497C669.209 811.777 668.635 812.061 668.024 812.441C667.271 812.91 666.547 812.946 665.745 813.25C664.739 813.631 663.384 814.092 662.5 814.622L661.75 815L660.5 815.745L659.625 815.625C658.968 815.973 658.581 816.352 658 816.745L656.977 817.052C655.282 817.51 652.445 818.803 651 819.745L650.245 819.75L649.5 820.245C649.07 820.479 648.447 820.613 648 820.75L644.867 821.803C643.878 822.102 644.519 821.893 643.375 822.497C642.181 823.129 641.224 823.244 640 823.622L638 824.745L637.125 824.625C636.283 824.986 635.761 825.239 635 825.745L634.125 825.625C633.305 825.959 632.957 826.158 632.25 826.745L631.247 826.625L630.764 826.919C629.242 827.676 628.004 827.138 626.5 828.245L625.625 828.125L625.25 828.745L623.75 828.5L622.75 829.255L622.75 830L622.25 830.745L621.5 830L620.5 830.75L620.497 831.497L619.745 832L619.625 832.875C620.821 832.704 620.575 832.65 621.25 831.755L621.547 832.081C622.062 832.592 622.621 832.894 623.245 833.25L623.25 834C624.142 833.703 623.78 833.895 624.375 833.503L624.75 834.5L625.75 833.255L626.25 834.5L627.25 833.255L627.75 834.5L628.75 833.255C629.111 834.153 629.011 834.357 629.875 834.875L630.25 833.755L631.25 835C632.142 834.703 631.78 834.895 632.375 834.503L633.5 835.5L634.25 834.755L634.622 835.5C634.981 836.096 634.893 835.954 635.453 836.165C636.673 836.626 636.766 836.785 637.375 837.875L637.125 838.375L638.5 839L639.25 838.255L640.245 839.25L639.625 839.875L640.745 840.25L640.75 841C641.286 841.749 641.837 842.361 642.497 843.003L642.593 843.408L643.245 845.5L642.625 846.375C643.426 847.176 642.955 846.999 643.997 847.003L644.1 847.47C644.33 848.378 644.113 847.651 644.622 848.5L645 849.25C645.667 849.688 646.071 849.951 646.859 850.112C647.816 850.307 648.184 850.789 649 851.255L650.997 852.003L651.875 852.875L652.25 852.255L652.622 853L653 853.5L653.75 852.755L654.25 854L654.75 853.255L655.375 853.875L655.75 853.255L656.122 854L656.375 854.375L657 853.755L657.745 854.25L657.75 855L658.25 854.255L658.75 855.5L659.25 854.755L659.75 856L660.25 855.255L660.875 855.875L661.25 855.255L661.622 856L661.875 856.375L662.25 855.755L662.622 856.5L662.875 856.875L663.25 856.255L663.622 857L663.875 857.375L664.5 856.755C665.921 857.349 666.353 857.818 667.25 859L667.75 858.255L668.122 859L668.375 859.375L668.75 858.755L669.122 859.5L669.375 859.875L669.75 859.255L670.122 860L670.375 860.375L670.75 859.755L671.281 860.208C672.252 860.984 671.696 860.572 672.749 861.098C673.754 861.599 674.082 862.122 674.745 863C674.751 864.446 675.632 864.643 675.745 865.5C675.793 865.865 674.516 867.814 674.25 868.245L674.745 869L674.755 868.75L675.5 868.25L675.503 867.503C676.363 867.503 676.657 868.162 677.245 868.75L676.5 869.122L676.122 869.5L676.875 869.875L677.375 869.589C678.153 869.16 678.801 868.965 679.641 868.712C680.38 868.488 680.124 868.618 680.609 868.135C681.303 867.447 682.49 867.262 683.384 866.795C686.145 865.353 688.968 863.752 691.813 862.495C693.131 861.912 694.509 861.591 695.25 860.255L696 860.25L696.5 859.755L698 859.25C699.531 858.656 700.746 857.55 702.234 856.861C703.053 856.482 703.432 855.861 704.125 855.503L705 855.25L706.125 854.503L706.755 854.25L708.375 853.253L713.375 850.253L714.255 849.75L715.042 849.259C716.17 848.564 717.278 848.011 718.375 847.253L722.109 844.829L728.255 840.75L728.878 840.245C729.256 839.943 729.734 839.787 730.125 839.503L731.25 838.255L731.645 838.203C733.223 837.801 734.709 836.158 735.873 835.078C736.595 834.407 735.863 835.089 737.002 834.503C738.129 833.923 739.116 832.787 740.125 832.003C742.248 830.352 744.605 828.892 746.51 826.987C747.157 826.34 746.814 826.62 747.598 826.15C748.474 825.623 748.992 825.05 749.753 824.375L753.859 821.159C754.67 820.598 755.17 820.063 755.75 819.255L756.503 819.003C757.452 818.48 757.892 817.573 759.003 817.003L761.341 814.912C762.816 813.733 763.824 812.361 765.503 811.502C766.758 810.86 767.876 809.055 769.003 808.125C773.665 804.277 777.871 800.084 782.222 795.864C783.356 794.764 784.761 794.035 785.867 792.929C787.586 791.211 789.402 788.569 791.503 787.503C793.64 786.418 797.54 781.726 799.062 779.77C801.338 776.848 804.666 774.13 806.503 771.003C807.111 769.966 808.294 769.114 809.003 768.003C809.655 766.979 811.121 766.246 811.875 765.253C813.332 763.335 814.353 761.389 816.863 760.552C804.775 775.664 791.698 788.78 777.522 801.917C742.719 834.165 704.26 860.85 659.783 877.993C641.685 884.969 622.021 890.584 602.697 892.757C590.063 894.177 576.628 893.929 564.025 892.443C557.068 891.624 550.88 889.97 543.797 889.901C528.344 889.751 512.88 889.823 497.427 889.878C486.655 889.917 475.677 890.209 464.934 889.339C440.855 887.39 416.464 883.046 393.434 875.7C372.004 868.865 350.957 859.205 331.176 848.571C316.522 840.693 302.56 832.493 289.559 822.022C286.881 819.865 284.085 817.414 281.919 814.736C283.938 810.975 285.606 807.138 287.9 803.5C290.284 799.718 294.18 796.097 295.588 791.869L295.711 791.461C298.033 790.47 300.93 790.102 303.41 789.578C311.411 787.889 318.91 787.193 327.067 786.75L327.497 787.547L326.664 789.267L331.874 791.623L338.933 794.238C343.718 796.039 348.589 798.64 353.472 800.03L353.33 800.443C352.32 803.238 350.717 805.756 349.351 808.385C347.1 812.713 344.99 817.124 342.837 821.502L372.827 813.525C378.87 815.824 385.182 817.527 391.321 819.572C399.495 822.296 407.678 824.934 415.99 827.208C420.027 828.313 424.193 829.636 428.34 830.239L431.226 830.856C435.516 831.738 439.915 832.782 444.25 833.36C456.858 835.042 470.333 834.88 483.04 834.997C502.812 835.179 522.596 835.03 542.369 834.962C562.822 834.891 583.431 835.186 603.725 832.27C620.117 829.915 636.638 824.462 651.884 818.089C657.765 815.631 663.784 813.309 669.5 810.486C688.573 801.064 706.992 788.086 723.193 774.359C735.571 763.87 747.079 752.105 758.652 740.738L770.084 727.37Z"/>
	<path fill="#FEBB59" transform="scale(0.5 0.5)" d="M753.524 282.799C759.456 282.494 767.003 281.885 772.75 283C776.684 283.763 796.7 281.963 798.5 283.745C805.249 283.752 812.863 284.489 819.5 283.623L820.094 283.57C821.241 283.457 820.277 283.573 821.297 283.365C822.347 283.15 823.434 283.229 824.5 283.25L824.75 283.745L825.5 283.25C826.853 284.062 827.2 284.471 827.979 285.809C828.386 286.507 829.099 286.695 829.5 287.25L829.875 288.125L830.507 288.823L831.317 288.419C840.064 296.967 847.128 308.596 853.648 318.885C872.05 347.923 885.164 378.68 894.578 411.691C903.228 442.025 908.303 472.852 908.671 504.443C908.935 527.079 907.618 549.656 903.843 572C897.356 610.39 884.758 646.737 867.692 681.65C862.029 693.232 856.261 704.664 849.581 715.704C840.12 731.339 828.84 746.559 817.047 760.497L816.863 760.552C814.353 761.389 813.332 763.335 811.875 765.253C811.121 766.246 809.655 766.979 809.003 768.003C808.294 769.114 807.111 769.966 806.503 771.003C804.666 774.13 801.338 776.848 799.062 779.77C797.54 781.726 793.64 786.418 791.503 787.503C789.402 788.569 787.586 791.211 785.867 792.929C784.761 794.035 783.356 794.764 782.222 795.864C777.871 800.084 773.665 804.277 769.003 808.125C767.876 809.055 766.758 810.86 765.503 811.502C763.824 812.361 762.816 813.733 761.341 814.912L759.003 817.003C757.892 817.573 757.452 818.48 756.503 819.003L755.75 819.255C755.17 820.063 754.67 820.598 753.859 821.159L749.753 824.375C748.992 825.05 748.474 825.623 747.598 826.15C746.814 826.62 747.157 826.34 746.51 826.987C744.605 828.892 742.248 830.352 740.125 832.003C739.116 832.787 738.129 833.923 737.002 834.503C735.863 835.089 736.595 834.407 735.873 835.078C734.709 836.158 733.223 837.801 731.645 838.203L731.25 838.255L730.125 839.503C729.734 839.787 729.256 839.943 728.878 840.245L728.255 840.75L722.109 844.829L718.375 847.253C717.278 848.011 716.17 848.564 715.042 849.259L714.255 849.75L713.375 850.253L708.375 853.253L706.755 854.25L706.125 854.503L705 855.25L704.125 855.503C703.432 855.861 703.053 856.482 702.234 856.861C700.746 857.55 699.531 858.656 698 859.25L696.5 859.755L696 860.25L695.25 860.255C694.509 861.591 693.131 861.912 691.813 862.495C688.968 863.752 686.145 865.353 683.384 866.795C682.49 867.262 681.303 867.447 680.609 868.135C680.124 868.618 680.38 868.488 679.641 868.712C678.801 868.965 678.153 869.16 677.375 869.589L676.875 869.875L676.122 869.5L676.5 869.122L677.245 868.75C676.657 868.162 676.363 867.503 675.503 867.503L675.5 868.25L674.755 868.75L674.745 869L674.25 868.245C674.516 867.814 675.793 865.865 675.745 865.5C675.632 864.643 674.751 864.446 674.745 863C674.082 862.122 673.754 861.599 672.749 861.098C671.696 860.572 672.252 860.984 671.281 860.208L670.75 859.755L670.375 860.375L670.122 860L669.75 859.255L669.375 859.875L669.122 859.5L668.75 858.755L668.375 859.375L668.122 859L667.75 858.255L667.25 859C666.353 857.818 665.921 857.349 664.5 856.755L663.875 857.375L663.622 857L663.25 856.255L662.875 856.875L662.622 856.5L662.25 855.755L661.875 856.375L661.622 856L661.25 855.255L660.875 855.875L660.25 855.255L659.75 856L659.25 854.755L658.75 855.5L658.25 854.255L657.75 855L657.745 854.25L657 853.755L656.375 854.375L656.122 854L655.75 853.255L655.375 853.875L654.75 853.255L654.25 854L653.75 852.755L653 853.5L652.622 853L652.25 852.255L651.875 852.875L650.997 852.003L649 851.255C648.184 850.789 647.816 850.307 646.859 850.112C646.071 849.951 645.667 849.688 645 849.25L644.622 848.5C644.113 847.651 644.33 848.378 644.1 847.47L643.997 847.003C642.955 846.999 643.426 847.176 642.625 846.375L643.245 845.5L642.593 843.408L642.497 843.003C641.837 842.361 641.286 841.749 640.75 841L640.745 840.25L639.625 839.875L640.245 839.25L639.25 838.255L638.5 839L637.125 838.375L637.375 837.875C636.766 836.785 636.673 836.626 635.453 836.165C634.893 835.954 634.981 836.096 634.622 835.5L634.25 834.755L633.5 835.5L632.375 834.503C631.78 834.895 632.142 834.703 631.25 835L630.25 833.755L629.875 834.875C629.011 834.357 629.111 834.153 628.75 833.255L627.75 834.5L627.25 833.255L626.25 834.5L625.75 833.255L624.75 834.5L624.375 833.503C623.78 833.895 624.142 833.703 623.25 834L623.245 833.25C622.621 832.894 622.062 832.592 621.547 832.081L621.25 831.755C620.575 832.65 620.821 832.704 619.625 832.875L619.745 832L620.497 831.497L620.5 830.75L621.5 830L622.25 830.745L622.75 830L622.75 829.255L623.75 828.5L625.25 828.745L625.625 828.125L626.5 828.245C628.004 827.138 629.242 827.676 630.764 826.919L631.247 826.625L632.25 826.745C632.957 826.158 633.305 825.959 634.125 825.625L635 825.745C635.761 825.239 636.283 824.986 637.125 824.625L638 824.745L640 823.622C641.224 823.244 642.181 823.129 643.375 822.497C644.519 821.893 643.878 822.102 644.867 821.803L648 820.75C648.447 820.613 649.07 820.479 649.5 820.245L650.245 819.75L651 819.745C652.445 818.803 655.282 817.51 656.977 817.052L658 816.745C658.581 816.352 658.968 815.973 659.625 815.625L660.5 815.745L661.75 815L662.5 814.622C663.384 814.092 664.739 813.631 665.745 813.25C666.547 812.946 667.271 812.91 668.024 812.441C668.635 812.061 669.209 811.777 669.875 811.497L670.5 811.245L671.245 810.75L671.75 810.745L672.247 810.125C673.082 809.936 673.448 809.851 674.078 809.224L674.5 808.75C675.585 808.743 675.679 808.404 676.5 807.75C677.81 807.741 678.644 806.647 679.75 806L680.5 805.622L681 805.25C681.87 804.831 682.334 804.972 683.094 804.216L683.5 803.75L684.25 803.745C684.865 803.072 685.456 802.7 686.245 802.25C687.334 802.239 688.371 800.605 689.5 800.122C690.248 799.803 690.429 799.854 691.062 799.224L691.5 798.75L692.25 798.745L692.875 797.875L693.75 797.5L694.375 796.875C695.948 795.826 694.698 797.083 695.68 796.102L696 795.75L696.75 795.745L697.5 794.75L698.25 794.745L699 793.75L699.75 793.745L701 792.25C702.035 791.951 701.7 792.177 702.43 791.53C702.951 791.068 703.437 790.66 704 790.25L704.75 790.245L705.745 789.25C707.201 788.175 705.013 790.253 706.907 788.359L707.5 787.75L708.25 787.745L709.5 786.25L710.25 786.245L711 785.25C711.944 784.979 712.352 784.728 712.95 783.969L713.5 783.25L714.25 783.245L716 781.25L716.75 781.245L718.5 779.25L719.25 779.245L721 777.25L721.75 777.245C722.511 776.372 723.182 775.601 724.156 774.951C725.686 773.931 726.522 772.41 727.953 771.452C730.747 769.583 732.581 766.395 735.247 764.625C736.091 764.065 736.056 764.476 736.921 763.544L740.592 759.788C742.794 757.114 745.537 754.698 748 752.25C749.686 752.239 754.293 746.487 755.96 745.152L756.5 744.745C756.991 744.348 757.4 743.976 757.93 743.621C759.562 742.53 758.952 742.673 759.745 741.25C760.202 740.43 761.502 739.849 761.997 738.997C762.706 737.781 763.852 737.097 764.497 735.997C765.145 734.896 765.537 734.413 766.497 733.497L766.747 732.625C768.392 731.198 769.471 729.417 770.965 727.813L770.084 727.37C774.667 720.398 780.896 714.088 785.909 707.323C794.624 695.563 802.187 682.84 809.294 670.053L809.347 670.002C814.355 662.517 818.118 652.968 821.884 644.762C835.762 614.518 845.306 579.928 848.677 546.8C850.803 525.903 850.447 503.85 849.233 482.914C848.011 461.829 843.34 440.484 837.284 420.291C825.691 381.633 808.257 344.417 782.75 312.89C773.98 302.05 763.933 292.056 753.524 282.799Z"/>
	<path fill="#E8171B" transform="scale(0.5 0.5)" d="M187.243 757.054C187.911 759.78 188.288 761.48 187.413 764.25C187.029 765.468 186.956 766.347 186 767.229L185 767.25L184.5 767.745L183.95 768.177C182.54 769.306 181.05 770.343 180.745 772.25L180.745 773.75L180.314 774.394C174.764 782.957 174.684 793.98 172.725 803.681C171.19 811.277 168.741 819.747 165.578 826.836C162.284 834.215 158.143 841.286 154.369 848.434C148.303 859.923 142.369 871.491 136.356 883.009C119.674 914.963 103.401 947.149 86.6928 979.094C85.758 980.881 81.4837 987.236 81.8335 988.804C82.005 989.572 82.2935 990.049 82.705 990.704C76.8215 995.475 70.9546 1000.33 65.3698 1005.45C59.5857 1010.75 54.3099 1016.31 47.8662 1020.84L175.854 767.605L187.243 757.054Z"/>
	<path fill="#000629" transform="scale(0.5 0.5)" d="M159.925 675.364C186.028 670.891 212.067 665.894 238.136 661.216C242.797 660.379 247.449 659.454 252.091 658.519C254.05 658.124 256.525 657.22 258.461 657.75C258.864 661.972 256.043 666.423 254.629 670.306C254.115 671.716 253.608 674.166 252.75 675.348C252.248 676.04 252.13 676.057 251.518 676.468C247.808 679.039 245.293 684.229 242.75 687.978C238.746 693.881 234.715 699.781 230.66 705.648C226.21 712.085 221.144 718.333 217.192 725.075C213.172 730.723 207.702 736.357 204.682 742.525C203.653 744.625 200.315 746.567 198.465 748.005C194.672 750.953 190.992 754.05 187.243 757.054L175.854 767.605C168.895 771.897 163 777.073 156.7 782.224C149.464 788.139 142.12 793.923 134.776 799.704C114.43 815.721 94.4289 832.159 74.145 848.25C67.3566 853.635 60.3158 858.693 53.5 864.041C42.2831 872.842 31.3269 881.983 19.8251 890.417L161.406 692.162C158.869 687.887 157.028 683.199 155.682 678.428L159.925 675.364Z"/>
	<path fill="#FEDD9D" transform="scale(0.5 0.5)" d="M220.133 248.094L220.53 247.485C222.832 244.482 226.007 241.629 228.677 238.936C234.027 233.542 239.493 228.257 245.07 223.099C289.14 182.344 343.216 150.99 400.424 132.82C414.118 128.471 428.366 124.447 442.496 121.808C498.224 111.403 556.267 112.91 610.802 128.83C616.438 130.476 622.053 132.251 627.585 134.216C631.136 135.477 634.931 136.662 638.061 138.806C634.913 144.896 631.64 151.024 629.426 157.531C624.335 172.499 623.63 188.698 625.32 204.307L588.897 190.366C576.294 186.887 563.343 183.427 550.33 181.869C536.577 179.141 521.786 178.637 507.796 178.488C495.674 178.359 483.515 178.359 471.438 179.531C436.875 182.885 403.01 192.509 371.434 206.874C358.04 212.966 344.595 219.947 332.341 228.116C317.137 238.251 302.445 248.434 288.427 260.202C284.102 263.833 279.956 267.658 275.849 271.533C273.633 273.624 271.497 276.095 269.073 277.925C270.022 276.119 271.537 274.859 272.88 273.352C282.416 262.657 294.436 254.981 305 245.5C304.468 245.098 304.118 244.963 303.5 244.745L302.25 245.745L301.875 245.125L299.75 246.745L299.375 246.125L298.5 246.745L297.875 246.125L296.75 247.245C295.872 246.897 295.434 246.389 294.755 245.75L294.755 241.5C294.325 240.977 294.03 240.655 293.863 239.983L293.755 239.5L293.255 238.75L293.502 237.502L293.755 236.75L292.75 237.745L292.002 237.498C291.593 236.261 292.404 236.243 292.255 235.5C292.048 234.467 291.255 234.551 291.255 233L290.503 232.498L289.875 232.375L289.377 232L288.875 231.875L288.255 231.25L287.5 231.5C286.691 231.133 286.09 230.872 285.453 230.232C284.663 229.438 285.365 229.987 284.255 229.25L283.75 229.745C282.144 229.718 280.955 229.513 279.67 230.637L279 231.245C277.801 230.448 275.951 230.747 274.5 230.745C273.052 229.783 271.225 230.473 269.53 230.137L269.002 229.998L268 229.745C266.88 229.158 266.776 229.249 265.5 229.245C264.561 228.621 264.556 228.749 263.5 228.745L262.002 227.498C260.984 226.911 261.14 227.062 260.502 225.998L259.5 225.745C258.09 225.034 259.456 224.624 259 223.245L258.25 223.745C257.565 223.06 257.488 222.939 257.255 222L258.25 220.755L257 220.245L256.25 220.745L254.5 220.245L252.998 220.998C251.981 221.385 251.445 221.55 250.5 222.245L249.498 222.998C248.352 223.547 248.164 223.79 247.25 224.745L246.875 224.125L246.25 224.745L245.755 224.25L245.375 224.498L244.75 224.5L236.553 232.819L235.998 233.498L235.25 233.5L234.498 234.498C233.607 236.291 231.657 238.031 230 239.245C228.996 239.981 228.157 240.644 227.25 241.5L227.245 242.25L220.754 248.48L220.133 248.094Z"/>
	<path fill="#FEBB59" transform="scale(0.5 0.5)" d="M220.133 248.094L220.754 248.48L227.245 242.25L227.25 241.5C228.157 240.644 228.996 239.981 230 239.245C231.657 238.031 233.607 236.291 234.498 234.498L235.25 233.5L235.998 233.498L236.553 232.819L244.75 224.5L245.375 224.498L245.755 224.25L246.25 224.745L246.875 224.125L247.25 224.745C248.164 223.79 248.352 223.547 249.498 222.998L250.5 222.245C251.445 221.55 251.981 221.385 252.998 220.998L254.5 220.245L256.25 220.745L257 220.245L258.25 220.755L257.255 222C257.488 222.939 257.565 223.06 258.25 223.745L259 223.245C259.456 224.624 258.09 225.034 259.5 225.745L260.502 225.998C261.14 227.062 260.984 226.911 262.002 227.498L263.5 228.745C264.556 228.749 264.561 228.621 265.5 229.245C266.776 229.249 266.88 229.158 268 229.745L269.002 229.998L269.53 230.137C271.225 230.473 273.052 229.783 274.5 230.745C275.951 230.747 277.801 230.448 279 231.245L279.67 230.637C280.955 229.513 282.144 229.718 283.75 229.745L284.255 229.25C285.365 229.987 284.663 229.438 285.453 230.232C286.09 230.872 286.691 231.133 287.5 231.5L288.255 231.25L288.875 231.875L289.377 232L289.875 232.375L290.503 232.498L291.255 233C291.255 234.551 292.048 234.467 292.255 235.5C292.404 236.243 291.593 236.261 292.002 237.498L292.75 237.745L293.755 236.75L293.502 237.502L293.255 238.75L293.755 239.5L293.863 239.983C294.03 240.655 294.325 240.977 294.755 241.5L294.755 245.75C295.434 246.389 295.872 246.897 296.75 247.245L297.875 246.125L298.5 246.745L299.375 246.125L299.75 246.745L301.875 245.125L302.25 245.745L303.5 244.745C304.118 244.963 304.468 245.098 305 245.5C294.436 254.981 282.416 262.657 272.88 273.352C271.537 274.859 270.022 276.119 269.073 277.925C263.76 283.527 258.269 289.056 253.308 294.975C227.041 326.313 204.998 363.355 191.372 401.916C187.282 413.488 184.29 425.478 181.584 437.442C178.5 451.083 175.876 464.817 174.51 478.75C172.981 494.338 173.186 510.296 173.613 525.949C174.257 549.534 178.3 574.123 183.964 597.028C186.933 609.035 190.691 620.886 194.103 632.775L159.925 675.364L155.682 678.428C153.844 676.437 152.658 673.455 151.551 671C149.554 666.568 147.707 662.073 145.854 657.58C138.52 639.794 131.717 621.436 126.888 602.791C123.603 590.111 121.457 577.264 119.517 564.324C117.743 552.489 116.175 540.726 116.021 528.737C115.865 516.638 115.635 504.429 116.314 492.344C119.4 437.413 133.678 383.902 159.01 335C164.353 324.686 170.494 314.766 176.705 304.956C189.486 284.77 203.396 265.261 220.133 248.094Z"/>
	<path fill="#D7DAE1" transform="scale(0.5 0.5)" d="M833.711 0L869.102 0L1024 0L1024 174.682L1024 193.834L1024 197C1022.7 197.567 1021.22 198.041 1020.16 199C1018.81 206.212 1017.3 214.128 1014.83 221.05C1008.35 239.22 995.726 254.746 979.912 265.665C971.327 271.593 961.803 276.12 951.668 278.672C934.729 282.937 916.672 281.956 899.348 281.925C883.007 281.896 866.664 281.815 850.323 281.874C842.601 281.902 834.425 281.384 826.777 282.365L831.317 288.419L830.507 288.823L829.875 288.125L829.5 287.25C829.099 286.695 828.386 286.507 827.979 285.809C827.2 284.471 826.853 284.062 825.5 283.25L824.75 283.745L824.5 283.25C823.434 283.229 822.347 283.15 821.297 283.365C820.277 283.573 821.241 283.457 820.094 283.57L819.5 283.623C812.863 284.489 805.249 283.752 798.5 283.745C796.7 281.963 776.684 283.763 772.75 283C767.003 281.885 759.456 282.494 753.524 282.799C749.001 280.976 741.985 282.03 737.016 282.069C729.754 282.125 722.237 282.452 715 281.814C699.347 280.435 683.137 275.12 669.633 267.151C654.046 257.953 640.633 243.523 632.914 227.136C629.51 219.909 627.287 212.028 625.32 204.307C623.63 188.698 624.335 172.499 629.426 157.531C631.64 151.024 634.913 144.896 638.061 138.806C642.961 129.427 652.896 120.698 661.548 114.79C680.938 101.548 703.134 98.4961 726.016 102.367C731.264 103.255 736.309 105.015 741.575 105.986C742.502 97.633 743.091 89.1914 745.172 81.0117C753.977 46.3979 780.776 19.234 813.674 6.50625C816.669 5.34746 819.642 4.29925 822.754 3.50386C825.999 2.6746 831.391 2.41186 833.711 0ZM869.102 0L869.5 0.969169C876.475 3.6478 883.841 5.23552 890.866 8.04616C897.66 10.7647 904.281 13.6543 910.489 17.5596C928.03 28.5934 942.55 45.7054 950.943 64.6061C954.345 72.2668 956.754 80.4544 958.757 88.5841C959.34 90.9493 959.853 93.3225 960.327 95.7116C960.368 95.9173 960.543 97.2624 960.658 97.4043C961.41 98.3244 963.431 99.1517 964.51 99.7066C967.605 101.299 970.74 102.821 973.745 104.581C986.76 112.203 997.773 122.916 1005.89 135.598C1011.22 143.908 1014.72 152.591 1017.48 161.992C1018.28 164.704 1019.18 171.065 1021.08 172.805L1024 174.682L1024 0L869.102 0Z"/>
	<path fill="#FEFEFE" transform="scale(0.5 0.5)" d="M1021.08 172.805L1024 174.682L1024 193.834L1021.88 196.347L1020.5 196.255C1020.05 191.483 1020.96 186.417 1020.65 181.535C1020.54 179.826 1019.65 175.737 1020.06 174.25C1020.21 173.681 1020.74 173.287 1021.08 172.805Z"/>
</svg>
