<?xml version="1.0" encoding="utf-8" ?>
<svg xmlns="http://www.w3.org/2000/svg" xmlns:xlink="http://www.w3.org/1999/xlink" width="512" height="512">
	<path fill="#004DC5" transform="scale(0.5 0.5)" d="M168.604 673.87C177.546 672.589 186.819 672.844 195.83 672.938C207.288 673.058 218.741 673.271 230.198 673.48C236.362 673.593 243.417 672.79 249.41 673.834L164.31 778.89C159.466 782.484 155.135 787.116 150.902 791.389C145.416 796.928 139.866 802.402 134.3 807.86C100.515 840.993 64.9228 873.902 18.9092 888.746L161.237 685.357L168.604 673.87Z"/>
	<defs>
		<linearGradient id="gradient_0" gradientUnits="userSpaceOnUse" x1="161.25" y1="683.25" x2="388.98099" y2="51.816601">
			<stop offset="0" stop-color="#FEA440"/>
			<stop offset="1" stop-color="#FDDE91"/>
		</linearGradient>
	</defs>
	<path fill="url(#gradient_0)" transform="scale(0.5 0.5)" d="M161.237 685.357L145.965 657.682C118.45 599.096 109.859 534.741 117.256 470.766C120.374 443.805 125.845 418.004 135.119 392.427C141.214 375.618 148.066 358.72 156.154 342.779C178.95 297.852 210.792 256.169 248.087 222.278C254.512 216.439 261.458 211.166 268.228 205.738C282.77 194.079 298.114 182.745 314.152 173.203C326.564 165.819 339.786 159.399 352.857 153.274C437.48 113.618 541.08 105.564 629.451 137.575C619.316 152.422 614.443 170.199 612.944 187.918L612.822 189.739L605.272 187.386L604.32 187.242C599.883 186.524 595.392 185.004 591 183.966C581.53 181.727 571.81 179.724 562.156 178.502C519.017 173.043 473.376 174.032 431.099 184.686C391.722 194.61 354.633 212.658 321.443 235.9L296.935 254.781L297.533 255.609C308.051 270.305 318.269 285.53 331.071 298.429C334.368 301.752 338.227 304.339 341.647 307.517C293.249 350.731 253.016 415.252 249.16 481.154L249.396 494.5C258.706 462.643 276.541 431.113 297.222 405.304C303.75 397.157 311.196 389.889 317.772 381.833C323.328 396.157 328.46 410.658 334.022 425C337.567 434.14 341.018 443.519 345.96 452.014C347.885 455.324 350.526 458.297 352.698 461.429L353.272 462.035L353.492 464.012C343.126 463.426 330.291 460.828 321.938 468.333C314.802 474.746 309.267 484.182 303.675 491.974C296.697 501.696 289.582 511.332 282.528 521C253.995 560.107 225.039 598.897 196.505 637.996C189.706 646.359 183.093 654.851 176.548 663.413C173.929 666.839 170.866 670.21 168.604 673.87L161.237 685.357Z"/>
	<path fill="#FDD480" transform="scale(0.5 0.5)" d="M605.272 187.386C606.665 187.356 607.985 187.123 609.255 187.75C609.792 186.128 609.537 185.351 611 184.255L612.228 185.25L612.245 187.75L611.5 188.245L612.944 187.918L612.822 189.739L605.272 187.386Z"/>
	<path fill="#AEE9EE" transform="scale(0.5 0.5)" d="M296.935 254.781L297.533 255.609C308.051 270.305 318.269 285.53 331.071 298.429C334.368 301.752 338.227 304.339 341.647 307.517C293.249 350.731 253.016 415.252 249.16 481.154L249.396 494.5C258.706 462.643 276.541 431.113 297.222 405.304C303.75 397.157 311.196 389.889 317.772 381.833C323.328 396.157 328.46 410.658 334.022 425C337.567 434.14 341.018 443.519 345.96 452.014C347.885 455.324 350.526 458.297 352.698 461.429L353.272 462.035L353.492 464.012C343.126 463.426 330.291 460.828 321.938 468.333C314.802 474.746 309.267 484.182 303.675 491.974C296.697 501.696 289.582 511.332 282.528 521C253.995 560.107 225.039 598.897 196.505 637.996C192.647 626.942 188.499 616.058 185.189 604.814C174.275 567.732 169.841 529.189 172.876 490.599C176.189 448.469 186.952 407.021 205.744 369.094C227.388 325.41 259.997 286.314 296.935 254.781Z"/>
	<defs>
		<linearGradient id="gradient_1" gradientUnits="userSpaceOnUse" x1="250.25" y1="488.25" x2="622.99597" y2="264.39801">
			<stop offset="0" stop-color="#000818"/>
			<stop offset="1" stop-color="#001B3F"/>
		</linearGradient>
	</defs>
	<path fill="url(#gradient_1)" transform="scale(0.5 0.5)" d="M296.935 254.781L321.443 235.9C354.633 212.658 391.722 194.61 431.099 184.686C473.376 174.032 519.017 173.043 562.156 178.502C571.81 179.724 581.53 181.727 591 183.966C595.392 185.004 599.883 186.524 604.32 187.242L605.272 187.386L612.822 189.739C613.092 195.594 613.182 201.673 614.25 207.438C617.437 224.649 625.462 241.522 637.128 254.6C641.555 256.499 646.003 261.146 649.824 264.188C652.967 266.69 656.454 268.925 659.879 271.017C668.015 275.987 677.28 279.893 686.504 282.276C693.144 283.992 700.042 285.057 706.57 287.148L706.722 287.874L705.513 288.711C705.589 297.363 706.113 306.414 705.274 315.017C703.852 329.599 698.465 345.822 692.041 358.994C690.714 361.715 689.112 365.431 687.07 367.638C686.343 368.423 685.467 369.126 684.582 369.723C688.348 379.548 691.826 389.313 693.905 399.66C695.361 406.909 695.925 414.419 696.681 421.768C690.426 416.305 685.327 409.129 679.395 403.24C661.303 385.278 638.111 372.057 613.005 367.317C607.714 366.318 602.26 366.264 596.892 365.941C593.628 365.744 590.288 365.784 587.252 364.439C584.227 364.473 579.881 364.287 577.583 366.582C574.554 369.609 575.192 375.831 575.522 379.78C576.289 388.983 578.635 396.423 585.168 403.229C580.449 406.3 576.604 411.115 572.835 415.259C565.193 423.663 557.81 432.292 551.055 441.429C549.045 444.149 545.405 448.449 544.592 451.758C543.627 455.687 544.022 460.261 544.082 464.281C544.265 476.625 546.106 489.637 544.996 501.937C544.169 501.824 543.953 501.885 543.168 502.279L542.5 502.648L540.959 502.02C541.453 505.758 529.504 523.738 526.633 527.128C525.284 528.721 524.628 528.972 522.691 529.454L518.735 525.772C503.097 512.389 486.754 509.52 466.682 511.07C464.569 498.525 460.058 488.219 451.016 479.113C444.998 473.053 438.056 468.077 429.75 465.725C418.512 462.542 404.666 463.992 392.99 464.008C379.824 464.025 366.658 464.022 353.492 464.012L353.272 462.035L352.698 461.429C350.526 458.297 347.885 455.324 345.96 452.014C341.018 443.519 337.567 434.14 334.022 425C328.46 410.658 323.328 396.157 317.772 381.833C311.196 389.889 303.75 397.157 297.222 405.304C276.541 431.113 258.706 462.643 249.396 494.5L249.16 481.154C253.016 415.252 293.249 350.731 341.647 307.517C338.227 304.339 334.368 301.752 331.071 298.429C318.269 285.53 308.051 270.305 297.533 255.609L296.935 254.781Z"/>
	<path fill="#DCF7F6" transform="scale(0.5 0.5)" d="M296.935 254.781L321.443 235.9C354.633 212.658 391.722 194.61 431.099 184.686C473.376 174.032 519.017 173.043 562.156 178.502C571.81 179.724 581.53 181.727 591 183.966C595.392 185.004 599.883 186.524 604.32 187.242L605.272 187.386L612.822 189.739C613.092 195.594 613.182 201.673 614.25 207.438C617.437 224.649 625.462 241.522 637.128 254.6C641.555 256.499 646.003 261.146 649.824 264.188C652.967 266.69 656.454 268.925 659.879 271.017C668.015 275.987 677.28 279.893 686.504 282.276C693.144 283.992 700.042 285.057 706.57 287.148L706.722 287.874L705.513 288.711C705.589 297.363 706.113 306.414 705.274 315.017C703.852 329.599 698.465 345.822 692.041 358.994C690.714 361.715 689.112 365.431 687.07 367.638C686.343 368.423 685.467 369.126 684.582 369.723C676.924 351.829 667.592 335.194 655.275 320.045C621.984 279.097 572.44 253.385 520.031 248.214C470.934 243.369 421.944 254.502 379.632 279.961C366.248 288.014 353.713 297.635 341.647 307.517C338.227 304.339 334.368 301.752 331.071 298.429C318.269 285.53 308.051 270.305 297.533 255.609L296.935 254.781Z"/>
	<path fill="#AEE9EE" transform="scale(0.5 0.5)" d="M637.128 254.6C641.555 256.499 646.003 261.146 649.824 264.188C652.967 266.69 656.454 268.925 659.879 271.017C668.015 275.987 677.28 279.893 686.504 282.276C693.144 283.992 700.042 285.057 706.57 287.148L706.722 287.874L705.513 288.711C701.402 289.138 697.007 287.949 693 287.056C685.823 285.455 678.5 283.618 671.688 280.81C661.79 276.731 641.428 264.827 637.128 254.6Z"/>
	<path fill="#018BFD" transform="scale(0.5 0.5)" d="M317.772 381.833C318.435 380.485 320.1 378.848 321.141 377.75C326.424 372.18 332.73 367.48 338.798 362.796C374.948 334.891 420.874 317.517 466.75 316.948C501.461 316.517 534.945 324.93 563.876 344.677C572.508 350.569 579.799 357.169 587.252 364.439C584.227 364.473 579.881 364.287 577.583 366.582C574.554 369.609 575.192 375.831 575.522 379.78C576.289 388.983 578.635 396.423 585.168 403.229C580.449 406.3 576.604 411.115 572.835 415.259C565.193 423.663 557.81 432.292 551.055 441.429C549.045 444.149 545.405 448.449 544.592 451.758C543.627 455.687 544.022 460.261 544.082 464.281C544.265 476.625 546.106 489.637 544.996 501.937C544.169 501.824 543.953 501.885 543.168 502.279L542.5 502.648L540.959 502.02C541.453 505.758 529.504 523.738 526.633 527.128C525.284 528.721 524.628 528.972 522.691 529.454L518.735 525.772C503.097 512.389 486.754 509.52 466.682 511.07C464.569 498.525 460.058 488.219 451.016 479.113C444.998 473.053 438.056 468.077 429.75 465.725C418.512 462.542 404.666 463.992 392.99 464.008C379.824 464.025 366.658 464.022 353.492 464.012L353.272 462.035L352.698 461.429C350.526 458.297 347.885 455.324 345.96 452.014C341.018 443.519 337.567 434.14 334.022 425C328.46 410.658 323.328 396.157 317.772 381.833Z"/>
	<path fill="#FDD480" transform="scale(0.5 0.5)" d="M353.272 462.035C353.174 454.463 367.043 438.845 372.25 433.49C400.831 404.093 439.56 380.643 480 372.511C491.015 370.296 502.057 369.518 513.266 369.38C523.934 369.248 535.504 368.664 546.062 370.072C546.251 380.229 546.666 390.405 546.58 400.562C546.53 406.444 546.558 413.771 544.855 419.418C542.218 428.163 532.675 434.757 528.427 442.992C522.288 454.894 525.638 471.254 529.775 483.4C531.856 489.511 534.691 495.982 539.387 500.55L540.959 502.02C541.453 505.758 529.504 523.738 526.633 527.128C525.284 528.721 524.628 528.972 522.691 529.454L518.735 525.772C503.097 512.389 486.754 509.52 466.682 511.07C464.569 498.525 460.058 488.219 451.016 479.113C444.998 473.053 438.056 468.077 429.75 465.725C418.512 462.542 404.666 463.992 392.99 464.008C379.824 464.025 366.658 464.022 353.492 464.012L353.272 462.035Z"/>
	<path fill="#010B1A" transform="scale(0.5 0.5)" d="M511.932 390.611C515.265 390.43 518.337 390.907 521.243 392.646C525.178 395.001 528.777 399.764 529.799 404.259C530.691 408.18 529.864 412.318 527.719 415.689C524.906 420.11 520.664 422.72 515.65 423.89C511.979 424.143 508.098 423.172 504.987 421.209C501.45 418.978 498.458 415.261 497.633 411.09C496.745 406.604 497.976 401.508 500.502 397.75C503.388 393.455 507.034 391.646 511.932 390.611Z"/>
	<path fill="#D7DFE0" transform="scale(0.5 0.5)" d="M830.898 0L869.354 0L1024 0L1024 159.026L1024 174.188L1024 191.807L1024 210.664L1022.08 211.237C1019.86 212.213 1019.83 213.368 1018.99 215.5C1016.37 222.164 1014.19 228.763 1010.75 235.091C1006.36 243.164 1000.41 249.944 993.911 256.354C984.796 265.341 975.297 272.711 963.5 277.905C942.125 287.315 920.128 287.501 897.235 287.516C884.555 287.524 871.876 287.511 859.197 287.514C850.863 287.516 842.263 287.014 834.005 288.119L774.029 287.813C756.669 288.011 739.301 288.083 721.94 287.999C718.706 287.984 715.482 287.851 712.25 287.762C711.214 287.733 709.196 287.464 708.26 287.708C707.844 287.816 707.504 288.117 707.126 288.321L706.722 287.874L706.57 287.148C700.042 285.057 693.144 283.992 686.504 282.276C677.28 279.893 668.015 275.987 659.879 271.017C656.454 268.925 652.967 266.69 649.824 264.188C646.003 261.146 641.555 256.499 637.128 254.6C625.462 241.522 617.437 224.649 614.25 207.438C613.182 201.673 613.092 195.594 612.822 189.739L612.944 187.918C614.443 170.199 619.316 152.422 629.451 137.575C637.591 128.387 645.037 119.987 655.197 112.849C671.783 101.196 692.332 96.3792 712.411 98.1187C717.722 98.5788 723.071 99.7833 728.325 100.696C732.162 91.8651 733.971 82.3101 738.206 73.5812C751.826 45.5027 775.392 20.8074 804.538 8.79735C809.144 6.89946 814.079 5.2275 818.895 3.94334C822.339 3.02505 825.936 2.49023 829.293 1.29076C830.415 0.889696 830.361 1.12473 830.898 0ZM869.354 0C869.749 0.438258 870.054 0.978331 870.538 1.31478C871.106 1.7097 872.719 1.93117 873.443 2.14091C876.028 2.88956 878.589 3.67344 881.119 4.59014C888.948 7.42608 896.986 10.4243 904.363 14.2837C915.173 19.9392 925.606 28.1268 934.04 36.9713C943.919 47.3316 952.487 58.0865 958.575 71.126C961.101 76.5369 963.231 82.043 964.91 87.7739C965.308 89.1299 966.135 93.865 966.911 94.7376C967.48 95.3777 969.035 96.1511 969.793 96.6453C972.431 98.3641 975.191 99.8775 977.805 101.636C991.489 110.845 1002.24 121.931 1010.64 136.246C1012.25 138.998 1013.79 141.837 1015.11 144.745C1016.51 147.852 1018.92 156.297 1021.49 157.969L1024 159.026L1024 0L869.354 0Z"/>
	<path fill="#FEFEFE" transform="scale(0.5 0.5)" d="M1021.49 157.969L1024 159.026L1024 174.188L1020.51 158.765L1021.49 157.969Z"/>
	<path fill="#FEFEFE" transform="scale(0.5 0.5)" d="M1024 191.807L1024 210.664L1022.08 211.237C1021.42 210.693 1021.03 210.223 1020.57 209.5L1024 191.807Z"/>
	<path fill="#F83D08" transform="scale(0.5 0.5)" d="M196.505 637.996C225.039 598.897 253.995 560.107 282.528 521C289.582 511.332 296.697 501.696 303.675 491.974C309.267 484.182 314.802 474.746 321.938 468.333C330.291 460.828 343.126 463.426 353.492 464.012C366.658 464.022 379.824 464.025 392.99 464.008C404.666 463.992 418.512 462.542 429.75 465.725C438.056 468.077 444.998 473.053 451.016 479.113C460.058 488.219 464.569 498.525 466.682 511.07C486.754 509.52 503.097 512.389 518.735 525.772L522.691 529.454C532.439 542.295 535.147 559.406 533.269 575.144L532.661 578L532.486 578.725C531.452 582.846 529.712 586.95 528.138 590.893C522.422 605.216 514.598 618.123 506.264 631.032C500.028 640.691 493.851 650.233 486.517 659.114C475.042 673.009 462.12 686.187 447.9 697.258C446.207 698.476 444.467 699.641 442.943 701.069C431.312 710.108 406.476 725.034 406.453 725.181L374.941 738.982C373.332 741.236 373.65 743.77 373.603 746.5C373.497 752.695 373.333 759.001 373.626 765.187C389.834 772.106 407.036 775.401 424 779.908C434.297 782.643 446.31 785.555 455.21 791.648L457.429 793.373L467.101 800.774L467.567 801.53C470.851 806.737 479.204 814.104 478.45 820.75L476.136 822.389L444.674 807.28C443.346 806.248 441.359 805.746 439.789 805.112C434.631 803.027 429.478 801.451 424.143 799.861C420.8 799.052 414.452 796.723 411.25 798.057C410.26 797.861 409.598 797.692 408.75 797.136C403.88 798.935 399.249 802.515 394.912 805.347C394.421 805.685 392.603 806.701 392.451 807.163L384.75 811.682C380.121 813.822 375.808 816.77 371.433 819.386C359.541 826.498 347.528 834.219 334.218 838.338C334.706 835.185 335.199 832.169 336.543 829.25C338.857 824.226 343.719 819.351 347.208 815.026C345.698 813.688 341.706 812.876 339.708 812.22C321.432 806.215 304.022 805.613 284.961 805.523C283.3 807.106 282.182 809.245 280.973 811.182C256.85 848.689 237.511 889.152 211.552 925.5C206.957 931.934 202.499 939.144 197.123 944.92C177.885 974.155 152.518 999.695 122.971 1018.42C124.593 1002.23 126.579 984.932 125.246 968.682L124.96 969.099C113.943 984.916 97.5289 999.358 80.9688 1009.21C76.6463 1011.78 72.2371 1014.14 67.721 1016.36C65.481 1017.45 60.987 1018.86 59.4567 1020.75C59.8826 1022.17 59.4966 1022.63 59.0018 1024L53.7274 1024L53.8049 1023.52L53.9475 1022.75C54.8276 1017.63 58.539 1012.23 60.7359 1007.51C64.7764 998.814 68.6619 990.027 72.5818 981.281C90.7341 940.777 108.915 900.324 127.835 860.17C135.145 844.655 142.444 829.155 149.661 813.597C154.924 802.252 160.723 790.892 164.31 778.89L249.41 673.834C243.417 672.79 236.362 673.593 230.198 673.48C218.741 673.271 207.288 673.058 195.83 672.938C186.819 672.844 177.546 672.589 168.604 673.87C170.866 670.21 173.929 666.839 176.548 663.413C183.093 654.851 189.706 646.359 196.505 637.996ZM372.589 737.285C367.935 737.602 363.442 737.305 358.858 738.309L356.849 738.686C355.749 743.247 355.506 748.753 355.737 753.446C354.693 756.275 354.118 757.21 351.266 758.568C345.852 761.145 339.398 762.757 333.602 764.266C323.123 766.995 312.08 769.514 301.217 769.62L300.383 766.817C293.867 766.85 288.522 767.458 282.182 768.994L282.593 786.395C269.808 787.865 255.247 789.884 243.13 794.097C240.019 795.178 237.234 797.249 234.288 798.726C230.884 800.433 227.388 801.753 224.02 803.602C212.931 809.691 202.362 817.761 194.434 827.697C198.083 826.467 201.651 825.111 205.243 823.728C207.102 823.012 209.537 821.847 211.486 821.565C223.982 821.404 235.41 823.394 245.307 831.432L197.123 944.92C202.499 939.144 206.957 931.934 211.552 925.5C237.511 889.152 256.85 848.689 280.973 811.182C282.182 809.245 283.3 807.106 284.961 805.523C304.022 805.613 321.432 806.215 339.708 812.22C341.706 812.876 345.698 813.688 347.208 815.026C343.719 819.351 338.857 824.226 336.543 829.25C335.199 832.169 334.706 835.185 334.218 838.338C347.528 834.219 359.541 826.498 371.433 819.386C375.808 816.77 380.121 813.822 384.75 811.682L392.451 807.163C392.603 806.701 394.421 805.685 394.912 805.347C399.249 802.515 403.88 798.935 408.75 797.136C409.598 797.692 410.26 797.861 411.25 798.057C414.452 796.723 420.8 799.052 424.143 799.861C429.478 801.451 434.631 803.027 439.789 805.112C441.359 805.746 443.346 806.248 444.674 807.28L476.136 822.389L478.45 820.75C479.204 814.104 470.851 806.737 467.567 801.53L467.101 800.774L457.429 793.373L455.21 791.648C446.31 785.555 434.297 782.643 424 779.908C407.036 775.401 389.834 772.106 373.626 765.187C373.333 759.001 373.497 752.695 373.603 746.5C373.65 743.77 373.332 741.236 374.941 738.982C373.679 738.621 373.488 738.196 372.589 737.285Z"/>
	<path fill="#181CA3" transform="scale(0.5 0.5)" d="M356.849 738.686C357.542 737.602 358.24 736.539 359.168 735.638C360.887 733.97 362.29 733.04 364.749 733.183C368.172 733.383 370.359 734.814 372.589 737.285C367.935 737.602 363.442 737.305 358.858 738.309L356.849 738.686Z"/>
	<path fill="#181CA3" transform="scale(0.5 0.5)" d="M282.182 768.994C282.697 767.24 283.222 765.849 284.629 764.607C286.904 762.598 289.919 761.133 293 761.448C296.159 761.772 298.497 764.522 300.383 766.817C293.867 766.85 288.522 767.458 282.182 768.994Z"/>
	<path fill="#010B1A" transform="scale(0.5 0.5)" d="M372.589 737.285C373.488 738.196 373.679 738.621 374.941 738.982C373.332 741.236 373.65 743.77 373.603 746.5C373.497 752.695 373.333 759.001 373.626 765.187C389.834 772.106 407.036 775.401 424 779.908C434.297 782.643 446.31 785.555 455.21 791.648L457.429 793.373L467.101 800.774L467.567 801.53C470.851 806.737 479.204 814.104 478.45 820.75L476.136 822.389L444.674 807.28C443.346 806.248 441.359 805.746 439.789 805.112C434.631 803.027 429.478 801.451 424.143 799.861C420.8 799.052 414.452 796.723 411.25 798.057C410.26 797.861 409.598 797.692 408.75 797.136C403.88 798.935 399.249 802.515 394.912 805.347C394.421 805.685 392.603 806.701 392.451 807.163L384.75 811.682C380.121 813.822 375.808 816.77 371.433 819.386C359.541 826.498 347.528 834.219 334.218 838.338C334.706 835.185 335.199 832.169 336.543 829.25C338.857 824.226 343.719 819.351 347.208 815.026C345.698 813.688 341.706 812.876 339.708 812.22C321.432 806.215 304.022 805.613 284.961 805.523C283.3 807.106 282.182 809.245 280.973 811.182C256.85 848.689 237.511 889.152 211.552 925.5C206.957 931.934 202.499 939.144 197.123 944.92L245.307 831.432C235.41 823.394 223.982 821.404 211.486 821.565C209.537 821.847 207.102 823.012 205.243 823.728C201.651 825.111 198.083 826.467 194.434 827.697C202.362 817.761 212.931 809.691 224.02 803.602C227.388 801.753 230.884 800.433 234.288 798.726C237.234 797.249 240.019 795.178 243.13 794.097C255.247 789.884 269.808 787.865 282.593 786.395L282.182 768.994C288.522 767.458 293.867 766.85 300.383 766.817L301.217 769.62C312.08 769.514 323.123 766.995 333.602 764.266C339.398 762.757 345.852 761.145 351.266 758.568C354.118 757.21 354.693 756.275 355.737 753.446C355.506 748.753 355.749 743.247 356.849 738.686L358.858 738.309C363.442 737.305 367.935 737.602 372.589 737.285ZM211.486 821.565C223.982 821.404 235.41 823.394 245.307 831.432C246.222 828.911 248.157 826.143 249.513 823.797C252.698 818.287 256.092 812.895 259.482 807.509C256.137 807.13 251.575 808.145 248.275 808.803C235.677 811.314 222.864 815.59 211.486 821.565Z"/>
	<path fill="#018BFD" transform="scale(0.5 0.5)" d="M355.737 753.446C356.919 761.932 355.979 771.604 358.786 779.75C359.21 780.979 359.942 781.852 360.994 782.602C364.988 785.451 372.994 786.316 377.797 787.128C379.035 787.337 381.201 787.389 382.246 787.995L359.968 800.142L359.392 799.859C355.45 797.985 351.179 796.94 347.027 795.63C338.054 792.799 328.891 790.062 319.514 788.987C313.283 788.273 306.903 788.418 300.639 788.377C300.751 784.32 300.865 780.264 300.927 776.206C300.959 774.072 300.756 771.69 301.217 769.62C312.08 769.514 323.123 766.995 333.602 764.266C339.398 762.757 345.852 761.145 351.266 758.568C354.118 757.21 354.693 756.275 355.737 753.446Z"/>
	<path fill="#C10033" transform="scale(0.5 0.5)" d="M196.505 637.996C225.039 598.897 253.995 560.107 282.528 521C289.582 511.332 296.697 501.696 303.675 491.974C309.267 484.182 314.802 474.746 321.938 468.333C330.291 460.828 343.126 463.426 353.492 464.012C366.658 464.022 379.824 464.025 392.99 464.008C404.666 463.992 418.512 462.542 429.75 465.725C438.056 468.077 444.998 473.053 451.016 479.113C460.058 488.219 464.569 498.525 466.682 511.07C465.937 530.932 459.197 547.658 449.196 564.619C443.868 573.655 438.064 582.575 431.407 590.702C424.256 599.431 415.979 607.453 407.719 615.122C370.213 649.939 315.748 675.813 263.729 673.814C259.422 673.649 253.557 672.809 249.41 673.834C243.417 672.79 236.362 673.593 230.198 673.48C218.741 673.271 207.288 673.058 195.83 672.938C186.819 672.844 177.546 672.589 168.604 673.87C170.866 670.21 173.929 666.839 176.548 663.413C183.093 654.851 189.706 646.359 196.505 637.996Z"/>
	<path fill="#9FE3E9" transform="scale(0.5 0.5)" d="M707.126 288.321C707.504 288.117 707.844 287.816 708.26 287.708C709.196 287.464 711.214 287.733 712.25 287.762C715.482 287.851 718.706 287.984 721.94 287.999C739.301 288.083 756.669 288.011 774.029 287.813C786.012 306.268 796.44 325.911 806.308 345.562C809.535 351.989 813.765 359.15 815.658 366.083C821.845 374.995 825.571 386.176 829.506 396.245C839.887 422.809 847.486 451.082 850.543 479.5C852.061 493.609 852.116 507.924 851.692 522.095C851.303 535.096 850.475 548.091 848.145 560.909C842.328 592.924 833.071 623.647 818.452 652.825C816.187 657.345 813.941 662.961 810.893 666.958C802.219 681.442 793.083 695.486 782.937 708.991C780.296 712.506 777.617 716.657 774.506 719.742C748.874 751.154 717.369 778.979 682.359 799.549C673.954 804.487 665.104 808.672 656.283 812.804C622.915 828.432 588.394 838.446 551.691 842.145C543.896 842.931 536.102 843.45 528.275 843.795C524.25 843.972 519.333 844.559 515.429 843.556C506.844 838.452 497.74 834.136 488.884 829.517C484.565 827.265 480.123 825.205 476.136 822.389L478.45 820.75C479.204 814.104 470.851 806.737 467.567 801.53L467.101 800.774L457.429 793.373L455.21 791.648C446.31 785.555 434.297 782.643 424 779.908C407.036 775.401 389.834 772.106 373.626 765.187C373.333 759.001 373.497 752.695 373.603 746.5C373.65 743.77 373.332 741.236 374.941 738.982L406.453 725.181C406.476 725.034 431.312 710.108 442.943 701.069C444.467 699.641 446.207 698.476 447.9 697.258C462.12 686.187 475.042 673.009 486.517 659.114C493.851 650.233 500.028 640.691 506.264 631.032C514.598 618.123 522.422 605.216 528.138 590.893C529.712 586.95 531.452 582.846 532.486 578.725L532.661 578L533.269 575.144C535.147 559.406 532.439 542.295 522.691 529.454C524.628 528.972 525.284 528.721 526.633 527.128C529.504 523.738 541.453 505.758 540.959 502.02L542.5 502.648L543.168 502.279C543.953 501.885 544.169 501.824 544.996 501.937C546.106 489.637 544.265 476.625 544.082 464.281C544.022 460.261 543.627 455.687 544.592 451.758C545.405 448.449 549.045 444.149 551.055 441.429C557.81 432.292 565.193 423.663 572.835 415.259C576.604 411.115 580.449 406.3 585.168 403.229C578.635 396.423 576.289 388.983 575.522 379.78C575.192 375.831 574.554 369.609 577.583 366.582C579.881 364.287 584.227 364.473 587.252 364.439C590.288 365.784 593.628 365.744 596.892 365.941C602.26 366.264 607.714 366.318 613.005 367.317C638.111 372.057 661.303 385.278 679.395 403.24C685.327 409.129 690.426 416.305 696.681 421.768C695.925 414.419 695.361 406.909 693.905 399.66C691.826 389.313 688.348 379.548 684.582 369.723C685.467 369.126 686.343 368.423 687.07 367.638C689.112 365.431 690.714 361.715 692.041 358.994C698.465 345.822 703.852 329.599 705.274 315.017C706.113 306.414 705.589 297.363 705.513 288.711L706.722 287.874L707.126 288.321ZM761.96 713.466C755.116 714.376 748.934 717.411 742.877 720.582C733.584 725.446 724.793 731.142 715.695 736.35C702.544 743.878 689.26 751.1 676.444 759.201L637.918 725.302L588.214 764.158C580.885 760.294 573.301 756.021 565.492 753.241C546.499 764.233 527.15 774.505 507.491 784.252C498.248 788.835 488.467 794.187 478.606 797.236L477.918 797.541C474.476 799.05 470.767 799.97 467.101 800.774L467.567 801.53C470.851 806.737 479.204 814.104 478.45 820.75L476.136 822.389C480.123 825.205 484.565 827.265 488.884 829.517C497.74 834.136 506.844 838.452 515.429 843.556C519.333 844.559 524.25 843.972 528.275 843.795C536.102 843.45 543.896 842.931 551.691 842.145C588.394 838.446 622.915 828.432 656.283 812.804C665.104 808.672 673.954 804.487 682.359 799.549C717.369 778.979 748.874 751.154 774.506 719.742L761.96 713.466ZM570.883 676.581C566.028 680.912 560.982 685.013 556.128 689.338C552.624 692.459 547.77 698.566 543.529 700.091C535.345 699.235 524.001 705.958 516.764 709.403C511.615 711.854 506.359 714.096 501.5 717.106C498.557 718.929 496.553 720.626 494.27 723.214C487.761 717.466 478.872 712.237 470.75 709.104C469.317 708.551 467.84 707.981 466.516 707.203C465.831 706.8 465.12 706.587 464.37 706.337C462.315 705.066 459.921 703.993 457.569 703.437C454.766 700.879 450.914 699.722 447.9 697.258C446.207 698.476 444.467 699.641 442.943 701.069C431.312 710.108 406.476 725.034 406.453 725.181L374.941 738.982C373.332 741.236 373.65 743.77 373.603 746.5C373.497 752.695 373.333 759.001 373.626 765.187C389.834 772.106 407.036 775.401 424 779.908C434.297 782.643 446.31 785.555 455.21 791.648L457.429 793.373L467.101 800.774C470.767 799.97 474.476 799.05 477.918 797.541L478.606 797.236C488.467 794.187 498.248 788.835 507.491 784.252C527.15 774.505 546.499 764.233 565.492 753.241C572.885 747.839 582.14 743.582 590.08 738.99C602.084 732.049 614.058 725.108 626.117 718.259C632.635 714.557 639.355 709.844 646.513 707.611L647.131 707.427C641.513 704.745 635.86 701.071 631.015 697.156L609.017 710.99C606.632 707.635 601.633 704.685 598.495 701.911C592.534 696.643 586.842 691.082 581 685.684C577.662 682.6 574.1 679.801 570.883 676.581Z"/>
	<defs>
		<linearGradient id="gradient_2" gradientUnits="userSpaceOnUse" x1="708.75" y1="288.75" x2="737.76703" y2="385.815">
			<stop offset="0" stop-color="#FEFE9C"/>
			<stop offset="1" stop-color="#FEFECB"/>
		</linearGradient>
	</defs>
	<path fill="url(#gradient_2)" transform="scale(0.5 0.5)" d="M707.126 288.321C707.504 288.117 707.844 287.816 708.26 287.708C709.196 287.464 711.214 287.733 712.25 287.762C715.482 287.851 718.706 287.984 721.94 287.999C739.301 288.083 756.669 288.011 774.029 287.813C786.012 306.268 796.44 325.911 806.308 345.562C809.535 351.989 813.765 359.15 815.658 366.083C812.661 364.637 809.879 362.355 807.201 360.38C802.934 357.232 798.697 354.042 794.501 350.8C781.387 340.668 768.436 330.262 754.973 320.593C746.331 314.387 737.532 308.376 728.583 302.621C724.074 299.722 719.517 296.893 715 294.004C712.259 292.251 709.43 290.649 707.126 288.321Z"/>
	<path fill="#00BA93" transform="scale(0.5 0.5)" d="M734.588 689.489C746.832 678.919 758.424 667.431 770.358 656.496C773.616 653.511 776.796 650.36 780.18 647.525C781.351 646.543 782.914 645.167 784.44 644.834C784.724 644.772 785.694 644.739 786.043 644.847C787.704 645.362 789.398 647.071 790.679 648.227C793.964 651.188 797.066 654.369 800.25 657.438C803.686 660.75 807.243 663.885 810.893 666.958C802.219 681.442 793.083 695.486 782.937 708.991C780.296 712.506 777.617 716.657 774.506 719.742L761.96 713.466C760.612 709.843 745.647 700.128 742 697.085C739.246 694.787 736.773 692.334 734.588 689.489Z"/>
	<path fill="#010B1A" transform="scale(0.5 0.5)" d="M585.168 403.229C593.805 407.333 602.385 411.504 610.277 416.945C630.319 430.762 644.574 451.236 652.707 474.009C655.595 482.095 657.352 490.758 658.487 499.25C660.765 516.297 661.833 536.49 654.163 552.282C650.854 559.097 645.941 564.444 639.132 567.886C636.833 556.165 638.09 539.481 627.081 531.686C623.232 528.961 618.427 527.276 614.004 525.746C607.771 523.59 601.444 521.706 595.141 519.768C581.042 515.434 566.445 511.375 552.742 505.939C550.707 505.132 546.06 503.827 544.996 501.937C546.106 489.637 544.265 476.625 544.082 464.281C544.022 460.261 543.627 455.687 544.592 451.758C545.405 448.449 549.045 444.149 551.055 441.429C557.81 432.292 565.193 423.663 572.835 415.259C576.604 411.115 580.449 406.3 585.168 403.229Z"/>
	<path fill="#00C9C4" transform="scale(0.5 0.5)" d="M570.883 676.581C585.065 662.925 599.496 649.552 613.728 635.957C621.48 628.552 628.904 620.471 637.042 613.512C638.826 611.987 640.873 610.245 643.15 609.58C645.354 610.655 647.391 611.785 649.322 613.319C657.195 619.574 664.438 626.905 671.988 633.565C688.529 648.159 705.165 662.577 721.582 677.322C725.064 680.45 728.617 683.502 731.966 686.774C732.665 687.457 734.194 688.62 734.588 689.489C736.773 692.334 739.246 694.787 742 697.085C745.647 700.128 760.612 709.843 761.96 713.466C755.116 714.376 748.934 717.411 742.877 720.582C733.584 725.446 724.793 731.142 715.695 736.35C702.544 743.878 689.26 751.1 676.444 759.201L637.918 725.302L588.214 764.158C580.885 760.294 573.301 756.021 565.492 753.241C572.885 747.839 582.14 743.582 590.08 738.99C602.084 732.049 614.058 725.108 626.117 718.259C632.635 714.557 639.355 709.844 646.513 707.611L647.131 707.427C641.513 704.745 635.86 701.071 631.015 697.156L609.017 710.99C606.632 707.635 601.633 704.685 598.495 701.911C592.534 696.643 586.842 691.082 581 685.684C577.662 682.6 574.1 679.801 570.883 676.581Z"/>
	<path fill="#018BFD" transform="scale(0.5 0.5)" d="M570.883 676.581C574.1 679.801 577.662 682.6 581 685.684C586.842 691.082 592.534 696.643 598.495 701.911C601.633 704.685 606.632 707.635 609.017 710.99L631.015 697.156C635.86 701.071 641.513 704.745 647.131 707.427L646.513 707.611C639.355 709.844 632.635 714.557 626.117 718.259C614.058 725.108 602.084 732.049 590.08 738.99C582.14 743.582 572.885 747.839 565.492 753.241C546.499 764.233 527.15 774.505 507.491 784.252C498.248 788.835 488.467 794.187 478.606 797.236L477.918 797.541C474.476 799.05 470.767 799.97 467.101 800.774L457.429 793.373L455.21 791.648C446.31 785.555 434.297 782.643 424 779.908C407.036 775.401 389.834 772.106 373.626 765.187C373.333 759.001 373.497 752.695 373.603 746.5C373.65 743.77 373.332 741.236 374.941 738.982L406.453 725.181C406.476 725.034 431.312 710.108 442.943 701.069C444.467 699.641 446.207 698.476 447.9 697.258C450.914 699.722 454.766 700.879 457.569 703.437C459.921 703.993 462.315 705.066 464.37 706.337C465.12 706.587 465.831 706.8 466.516 707.203C467.84 707.981 469.317 708.551 470.75 709.104C478.872 712.237 487.761 717.466 494.27 723.214C496.553 720.626 498.557 718.929 501.5 717.106C506.359 714.096 511.615 711.854 516.764 709.403C524.001 705.958 535.345 699.235 543.529 700.091C547.77 698.566 552.624 692.459 556.128 689.338C560.982 685.013 566.028 680.912 570.883 676.581ZM447.9 697.258C446.207 698.476 444.467 699.641 442.943 701.069C431.312 710.108 406.476 725.034 406.453 725.181L407.505 725.549L408.088 725.162C409.068 724.53 408.397 724.923 409.375 724.497C410.15 724.16 410.812 723.733 411.5 723.25C411.928 722.95 412.426 722.765 412.875 722.497L413.5 722L414.375 721.497L415 721.122L415.255 722C415.563 722.642 416.136 723.187 416.755 723.5L416.832 723.936C417.001 724.618 417.317 724.97 417.75 725.5L417.75 726L418.094 726.531C418.55 727.292 418.705 727.933 419 728.75L419.267 729.389C419.53 730.043 419.568 730.59 419.755 731.25L420.021 731.976C420.675 733.866 420.284 736.742 420.25 738.755L419.755 739.5L419.5 740.378C418.813 739.859 419.088 740.243 418.922 739.578C418.62 738.37 417.681 737.302 417 736.281C416.384 735.357 416.096 734.539 415.75 733.5C414.786 733.087 414.512 733.088 413.502 733.125L413.255 733.75C415.095 735.894 417.037 737.972 418.32 740.511C417.964 742.325 416.958 745.253 417.766 746.946L419.56 746.966C426.312 748.788 437.408 750.806 444.25 749.368C448.063 748.567 452.106 746.23 455.511 744.392C462.798 740.458 469.926 735.863 477.5 732.527L479.317 733.663C480.575 736.251 486.407 739.415 488.923 740.861C489.821 741.377 490.744 741.84 491.679 742.285C492.194 742.53 493.853 743.472 494.337 743.492C495.633 743.546 501.784 739.056 503.104 738.209C512.378 732.262 521.96 726.913 531.254 721.053C532.83 720.06 535.971 717.087 537.5 716.648C538.92 716.24 543.358 717.438 544.899 717.727C548.203 718.347 551.372 718.706 554.744 718.63C559.355 718.526 564.1 716.84 568.523 715.653C559.528 711.536 551.739 705.52 543.529 700.091C535.345 699.235 524.001 705.958 516.764 709.403C511.615 711.854 506.359 714.096 501.5 717.106C498.557 718.929 496.553 720.626 494.27 723.214C487.761 717.466 478.872 712.237 470.75 709.104C469.317 708.551 467.84 707.981 466.516 707.203C465.831 706.8 465.12 706.587 464.37 706.337C462.315 705.066 459.921 703.993 457.569 703.437C454.766 700.879 450.914 699.722 447.9 697.258ZM609.017 710.99C571.759 730.874 535.852 753.085 498.16 772.197C484.11 779.321 470.282 786.829 455.21 791.648L457.429 793.373L467.101 800.774C470.767 799.97 474.476 799.05 477.918 797.541L478.606 797.236C488.467 794.187 498.248 788.835 507.491 784.252C527.15 774.505 546.499 764.233 565.492 753.241C572.885 747.839 582.14 743.582 590.08 738.99C602.084 732.049 614.058 725.108 626.117 718.259C632.635 714.557 639.355 709.844 646.513 707.611L647.131 707.427C641.513 704.745 635.86 701.071 631.015 697.156L609.017 710.99Z"/>
	<path fill="#D7DFE0" fill-opacity="0.98823529" transform="scale(0.5 0.5)" d="M609.017 710.99L631.015 697.156C635.86 701.071 641.513 704.745 647.131 707.427L646.513 707.611C639.355 709.844 632.635 714.557 626.117 718.259C614.058 725.108 602.084 732.049 590.08 738.99C582.14 743.582 572.885 747.839 565.492 753.241C546.499 764.233 527.15 774.505 507.491 784.252C498.248 788.835 488.467 794.187 478.606 797.236L477.918 797.541C474.476 799.05 470.767 799.97 467.101 800.774L457.429 793.373L455.21 791.648C470.282 786.829 484.11 779.321 498.16 772.197C535.852 753.085 571.759 730.874 609.017 710.99ZM457.429 793.373L467.101 800.774C470.767 799.97 474.476 799.05 477.918 797.541L476.594 797.281C476.164 795.556 477.021 795.362 476.058 793.447L473.704 792.78L473.309 792.575C471.635 791.675 470.403 790.553 469.043 789.242C466.646 789.358 464.353 790.349 462.017 790.893C459.965 791.371 458.991 791.987 457.429 793.373ZM473.704 792.78L476.058 793.447C477.021 795.362 476.164 795.556 476.594 797.281L477.918 797.541L478.606 797.236L477.776 796.772C478.186 795.829 478.615 795.129 479.25 794.32C479.898 794.056 480.413 793.922 481.116 793.902C484.997 793.791 485.716 792.352 488.75 790.392C490.815 789.059 492.987 788.276 494.987 786.75L494.125 786.625C492.236 787.661 489.414 789.48 487.359 789.891C485.652 790.232 483.977 791.189 482.375 791.875L481.625 791.375C481.564 790.411 481.688 789.983 482.125 789.125L485.245 788.75L484.75 788.255C483.027 788.238 481.542 788.076 479.998 788.979L478.379 791.465C477.181 792.869 475.391 792.633 473.704 792.78Z"/>
	<path fill="#FEFEFE" fill-opacity="0.94509804" transform="scale(0.5 0.5)" d="M473.704 792.78C475.391 792.633 477.181 792.869 478.379 791.465L479.998 788.979C481.542 788.076 483.027 788.238 484.75 788.255L485.245 788.75L482.125 789.125C481.688 789.983 481.564 790.411 481.625 791.375L482.375 791.875C483.977 791.189 485.652 790.232 487.359 789.891C489.414 789.48 492.236 787.661 494.125 786.625L494.987 786.75C492.987 788.276 490.815 789.059 488.75 790.392C485.716 792.352 484.997 793.791 481.116 793.902C480.413 793.922 479.898 794.056 479.25 794.32C478.615 795.129 478.186 795.829 477.776 796.772L478.606 797.236L477.918 797.541L476.594 797.281C476.164 795.556 477.021 795.362 476.058 793.447L473.704 792.78Z"/>
	<defs>
		<linearGradient id="gradient_3" gradientUnits="userSpaceOnUse" x1="465.75" y1="794.25" x2="469.78201" y2="789.74799">
			<stop offset="0" stop-color="#FEFEFE" stop-opacity="0.82352942"/>
			<stop offset="1" stop-color="#FEFEFE" stop-opacity="0.87843138"/>
		</linearGradient>
	</defs>
	<path fill="url(#gradient_3)" transform="scale(0.5 0.5)" d="M457.429 793.373C458.991 791.987 459.965 791.371 462.017 790.893C464.353 790.349 466.646 789.358 469.043 789.242C470.403 790.553 471.635 791.675 473.309 792.575L473.704 792.78L476.058 793.447C477.021 795.362 476.164 795.556 476.594 797.281L477.918 797.541C474.476 799.05 470.767 799.97 467.101 800.774L457.429 793.373Z"/>
	<path fill="#FEFEFE" fill-opacity="0.9137255" transform="scale(0.5 0.5)" d="M447.9 697.258C450.914 699.722 454.766 700.879 457.569 703.437C459.921 703.993 462.315 705.066 464.37 706.337C465.12 706.587 465.831 706.8 466.516 707.203C467.84 707.981 469.317 708.551 470.75 709.104C478.872 712.237 487.761 717.466 494.27 723.214C496.553 720.626 498.557 718.929 501.5 717.106C506.359 714.096 511.615 711.854 516.764 709.403C524.001 705.958 535.345 699.235 543.529 700.091C551.739 705.52 559.528 711.536 568.523 715.653C564.1 716.84 559.355 718.526 554.744 718.63C551.372 718.706 548.203 718.347 544.899 717.727C543.358 717.438 538.92 716.24 537.5 716.648C535.971 717.087 532.83 720.06 531.254 721.053C521.96 726.913 512.378 732.262 503.104 738.209C501.784 739.056 495.633 743.546 494.337 743.492C493.853 743.472 492.194 742.53 491.679 742.285C490.744 741.84 489.821 741.377 488.923 740.861C486.407 739.415 480.575 736.251 479.317 733.663L477.5 732.527C469.926 735.863 462.798 740.458 455.511 744.392C452.106 746.23 448.063 748.567 444.25 749.368C437.408 750.806 426.312 748.788 419.56 746.966L417.766 746.946C416.958 745.253 417.964 742.325 418.32 740.511C417.037 737.972 415.095 735.894 413.255 733.75L413.502 733.125C414.512 733.088 414.786 733.087 415.75 733.5C416.096 734.539 416.384 735.357 417 736.281C417.681 737.302 418.62 738.37 418.922 739.578C419.088 740.243 418.813 739.859 419.5 740.378L419.755 739.5L420.25 738.755C420.284 736.742 420.675 733.866 420.021 731.976L419.755 731.25C419.568 730.59 419.53 730.043 419.267 729.389L419 728.75C418.705 727.933 418.55 727.292 418.094 726.531L417.75 726L417.75 725.5C417.317 724.97 417.001 724.618 416.832 723.936L416.755 723.5C416.136 723.187 415.563 722.642 415.255 722L415 721.122L414.375 721.497L413.5 722L412.875 722.497C412.426 722.765 411.928 722.95 411.5 723.25C410.812 723.733 410.15 724.16 409.375 724.497C408.397 724.923 409.068 724.53 408.088 725.162L407.505 725.549L406.453 725.181C406.476 725.034 431.312 710.108 442.943 701.069C444.467 699.641 446.207 698.476 447.9 697.258ZM447.9 697.258C446.207 698.476 444.467 699.641 442.943 701.069C431.312 710.108 406.476 725.034 406.453 725.181L407.505 725.549L408.088 725.162C409.068 724.53 408.397 724.923 409.375 724.497C410.15 724.16 410.812 723.733 411.5 723.25C411.928 722.95 412.426 722.765 412.875 722.497L413.5 722L414.375 721.497L415 721.122L415.255 722C415.563 722.642 416.136 723.187 416.755 723.5L416.832 723.936C417.001 724.618 417.317 724.97 417.75 725.5L417.75 726L418.094 726.531C418.55 727.292 418.705 727.933 419 728.75L419.267 729.389C419.53 730.043 419.568 730.59 419.755 731.25L420.021 731.976C420.675 733.866 420.284 736.742 420.25 738.755L419.755 739.5L419.5 740.378C418.813 739.859 419.088 740.243 418.922 739.578C418.62 738.37 417.681 737.302 417 736.281C416.384 735.357 416.096 734.539 415.75 733.5C414.786 733.087 414.512 733.088 413.502 733.125L413.255 733.75C415.095 735.894 417.037 737.972 418.32 740.511C417.964 742.325 416.958 745.253 417.766 746.946L419.56 746.966C420.442 746.498 420.061 746.636 420.911 746.399C429.654 743.965 436.91 738.657 444.318 733.631C444.975 732.605 447.44 731.205 448.482 730.449C453.287 726.963 458.149 723.546 463.06 720.211C461.2 718.967 459.573 717.434 457.9 715.954L458.899 715.417C459.117 714.777 459.484 713.92 459.507 713.25C459.553 711.917 459.383 711.603 458.5 710.755C459.51 709.697 460.938 708.633 461.505 707.275L461.685 706.704L464.37 706.337C462.315 705.066 459.921 703.993 457.569 703.437C454.766 700.879 450.914 699.722 447.9 697.258ZM435.079 742.189C434.225 742.277 433.48 742.366 432.683 742.703C431.24 743.313 430.567 744.01 429.651 745.25L429.75 745.865C431.906 746.225 437.111 745.81 438.609 747.101C439.362 747.751 440.131 748.194 441 748.672C442.998 748.279 444.533 747.721 446.326 746.756L448.5 745.562C450.768 744.46 452.273 742.962 454.098 741.25L453.25 741L452.375 741.375C451.304 740.766 451.626 741.188 451.245 740.25L451.745 739.75L450.25 738.255L449.755 738.75C448.321 738.793 447.565 738.575 446.25 738.344C442.042 737.605 440.764 740.71 437.75 742.745L437.125 742.497L435.661 742.306L435.079 742.189Z"/>
	<defs>
		<linearGradient id="gradient_4" gradientUnits="userSpaceOnUse" x1="440.75" y1="741.75" x2="431.21701" y2="747.00403">
			<stop offset="0" stop-color="#FEFEFE" stop-opacity="0.87843138"/>
			<stop offset="1" stop-color="#FEFEFE" stop-opacity="0.93333334"/>
		</linearGradient>
	</defs>
	<path fill="url(#gradient_4)" transform="scale(0.5 0.5)" d="M435.079 742.189L435.661 742.306L437.125 742.497L437.75 742.745C440.764 740.71 442.042 737.605 446.25 738.344C447.565 738.575 448.321 738.793 449.755 738.75L450.25 738.255L451.745 739.75L451.245 740.25C451.626 741.188 451.304 740.766 452.375 741.375L453.25 741L454.098 741.25C452.273 742.962 450.768 744.46 448.5 745.562L446.326 746.756C444.533 747.721 442.998 748.279 441 748.672C440.131 748.194 439.362 747.751 438.609 747.101C437.111 745.81 431.906 746.225 429.75 745.865L429.651 745.25C430.567 744.01 431.24 743.313 432.683 742.703C433.48 742.366 434.225 742.277 435.079 742.189Z"/>
	<path fill="#FEFEFE" transform="scale(0.5 0.5)" d="M446.326 746.756C450.122 746.044 451.13 744.646 454.25 742.885C456.239 741.762 458.454 741.122 460.449 739.953C463.849 737.962 467.189 735.636 470.5 733.481C472.687 732.058 474.413 730.492 476.998 729.822C478.393 730.086 479.083 730.385 480.21 731.25L479.317 733.663L477.5 732.527C469.926 735.863 462.798 740.458 455.511 744.392C452.106 746.23 448.063 748.567 444.25 749.368C437.408 750.806 426.312 748.788 419.56 746.966C420.442 746.498 420.061 746.636 420.911 746.399C429.654 743.965 436.91 738.657 444.318 733.631L444.566 734.535C443.321 736.531 442.303 737.235 440.307 738.418C438.335 739.587 437.265 741.219 435.079 742.189C434.225 742.277 433.48 742.366 432.683 742.703C431.24 743.313 430.567 744.01 429.651 745.25L429.75 745.865C431.906 746.225 437.111 745.81 438.609 747.101C439.362 747.751 440.131 748.194 441 748.672C442.998 748.279 444.533 747.721 446.326 746.756Z"/>
	<path fill="#00C9C4" transform="scale(0.5 0.5)" d="M447.9 697.258C450.914 699.722 454.766 700.879 457.569 703.437C459.921 703.993 462.315 705.066 464.37 706.337L461.685 706.704L461.505 707.275C460.938 708.633 459.51 709.697 458.5 710.755C459.383 711.603 459.553 711.917 459.507 713.25C459.484 713.92 459.117 714.777 458.899 715.417L457.9 715.954C459.573 717.434 461.2 718.967 463.06 720.211C458.149 723.546 453.287 726.963 448.482 730.449C447.44 731.205 444.975 732.605 444.318 733.631C436.91 738.657 429.654 743.965 420.911 746.399C420.061 746.636 420.442 746.498 419.56 746.966L417.766 746.946C416.958 745.253 417.964 742.325 418.32 740.511C417.037 737.972 415.095 735.894 413.255 733.75L413.502 733.125C414.512 733.088 414.786 733.087 415.75 733.5C416.096 734.539 416.384 735.357 417 736.281C417.681 737.302 418.62 738.37 418.922 739.578C419.088 740.243 418.813 739.859 419.5 740.378L419.755 739.5L420.25 738.755C420.284 736.742 420.675 733.866 420.021 731.976L419.755 731.25C419.568 730.59 419.53 730.043 419.267 729.389L419 728.75C418.705 727.933 418.55 727.292 418.094 726.531L417.75 726L417.75 725.5C417.317 724.97 417.001 724.618 416.832 723.936L416.755 723.5C416.136 723.187 415.563 722.642 415.255 722L415 721.122L414.375 721.497L413.5 722L412.875 722.497C412.426 722.765 411.928 722.95 411.5 723.25C410.812 723.733 410.15 724.16 409.375 724.497C408.397 724.923 409.068 724.53 408.088 725.162L407.505 725.549L406.453 725.181C406.476 725.034 431.312 710.108 442.943 701.069C444.467 699.641 446.207 698.476 447.9 697.258ZM457.569 703.437C455.259 704.107 451.947 704.457 450.359 706.25L451.015 709.678L457.9 715.954L458.899 715.417C459.117 714.777 459.484 713.92 459.507 713.25C459.553 711.917 459.383 711.603 458.5 710.755C459.51 709.697 460.938 708.633 461.505 707.275L461.685 706.704L464.37 706.337C462.315 705.066 459.921 703.993 457.569 703.437ZM447.9 697.258C446.207 698.476 444.467 699.641 442.943 701.069L451.015 709.678L450.359 706.25C451.947 704.457 455.259 704.107 457.569 703.437C454.766 700.879 450.914 699.722 447.9 697.258Z"/>
	<path fill="#D7DFE0" fill-opacity="0.98823529" transform="scale(0.5 0.5)" d="M447.9 697.258C450.914 699.722 454.766 700.879 457.569 703.437C455.259 704.107 451.947 704.457 450.359 706.25L451.015 709.678L442.943 701.069C444.467 699.641 446.207 698.476 447.9 697.258Z"/>
	<path fill="#DCF7F6" fill-opacity="0.57254905" transform="scale(0.5 0.5)" d="M457.569 703.437C459.921 703.993 462.315 705.066 464.37 706.337L461.685 706.704L461.505 707.275C460.938 708.633 459.51 709.697 458.5 710.755C459.383 711.603 459.553 711.917 459.507 713.25C459.484 713.92 459.117 714.777 458.899 715.417L457.9 715.954L451.015 709.678L450.359 706.25C451.947 704.457 455.259 704.107 457.569 703.437Z"/>
	<defs>
		<linearGradient id="gradient_5" gradientUnits="userSpaceOnUse" x1="770.75" y1="722.75" x2="599.12598" y2="607.35101">
			<stop offset="0" stop-color="#0048BF"/>
			<stop offset="1" stop-color="#0061E8"/>
		</linearGradient>
	</defs>
	<path fill="url(#gradient_5)" transform="scale(0.5 0.5)" d="M761.96 713.466L774.506 719.742C748.874 751.154 717.369 778.979 682.359 799.549C673.954 804.487 665.104 808.672 656.283 812.804C622.915 828.432 588.394 838.446 551.691 842.145C543.896 842.931 536.102 843.45 528.275 843.795C524.25 843.972 519.333 844.559 515.429 843.556C506.844 838.452 497.74 834.136 488.884 829.517C484.565 827.265 480.123 825.205 476.136 822.389L478.45 820.75C479.204 814.104 470.851 806.737 467.567 801.53L467.101 800.774C470.767 799.97 474.476 799.05 477.918 797.541L478.606 797.236C488.467 794.187 498.248 788.835 507.491 784.252C527.15 774.505 546.499 764.233 565.492 753.241C573.301 756.021 580.885 760.294 588.214 764.158L637.918 725.302L676.444 759.201C689.26 751.1 702.544 743.878 715.695 736.35C724.793 731.142 733.584 725.446 742.877 720.582C748.934 717.411 755.116 714.376 761.96 713.466ZM568.936 776.538C568.248 776.982 566.193 778.002 565.879 778.648L566.709 780.729C567.253 782.075 567.674 783.438 569.036 784.004C571.316 784.951 573.624 785.853 574.92 788.122C575.4 788.962 575.377 790.364 575.321 791.284L574.987 791.787C579.092 795.054 584.485 797.442 588.954 800.276L590.467 801.494C592.962 803.333 595.382 805.161 598.148 806.58L617.943 792.264L620.904 790.317C619.81 788.735 618.741 787.039 618.272 785.145C617.861 783.481 618.075 782.554 616.983 781.053L613.067 780.644C611.078 780.34 608.782 780.754 606.75 780.739C603.906 780.719 600.907 780.22 598.097 780.78C596.612 781.075 594.405 782.357 593.058 782.408C592.551 782.428 591.095 781.815 590.546 781.643C587.854 780.802 585.219 779.793 582.58 778.799C582.056 777.934 574.498 774.734 573.102 774.444C571.845 774.183 570.009 775.826 568.936 776.538ZM565.879 778.648C563.408 780.135 560.466 781.514 558.608 783.75L558.791 785C560.58 786.321 563.453 786.584 565.56 787.416C568.762 788.68 571.885 790.294 574.987 791.787L575.321 791.284C575.377 790.364 575.4 788.962 574.92 788.122C573.624 785.853 571.316 784.951 569.036 784.004C567.674 783.438 567.253 782.075 566.709 780.729L565.879 778.648ZM613.067 780.644L616.983 781.053C618.075 782.554 617.861 783.481 618.272 785.145C618.741 787.039 619.81 788.735 620.904 790.317L631.514 784.399C628.164 782.931 624.703 781.752 621.243 780.577C620.576 780.351 619.029 779.602 618.367 779.605C616.767 779.612 614.656 780.309 613.067 780.644Z"/>
	<path fill="#FEFEFE" fill-opacity="0.42745098" transform="scale(0.5 0.5)" d="M568.936 776.538C570.009 775.826 571.845 774.183 573.102 774.444C574.498 774.734 582.056 777.934 582.58 778.799C585.219 779.793 587.854 780.802 590.546 781.643C591.095 781.815 592.551 782.428 593.058 782.408C594.405 782.357 596.612 781.075 598.097 780.78C600.907 780.22 603.906 780.719 606.75 780.739C608.782 780.754 611.078 780.34 613.067 780.644L616.983 781.053C618.075 782.554 617.861 783.481 618.272 785.145C618.741 787.039 619.81 788.735 620.904 790.317L617.943 792.264L598.148 806.58C595.382 805.161 592.962 803.333 590.467 801.494L588.954 800.276C584.485 797.442 579.092 795.054 574.987 791.787L575.321 791.284C575.377 790.364 575.4 788.962 574.92 788.122C573.624 785.853 571.316 784.951 569.036 784.004C567.674 783.438 567.253 782.075 566.709 780.729L565.879 778.648C566.193 778.002 568.248 776.982 568.936 776.538ZM601.769 785.008C601.444 786.792 600.999 786.996 599.75 788.245C598.594 788.249 598.514 788.12 597.5 788.745C596.264 789.507 595.791 789.692 594.395 789.75C592.902 789.812 591.719 790.739 590.621 791.626C590.177 793.879 590.06 795.458 590.449 797.75C590.67 799.047 590.889 800.215 590.467 801.494C592.962 803.333 595.382 805.161 598.148 806.58L617.943 792.264C617.288 791.673 616.826 791.304 616.004 790.951C615.299 790.649 614.791 790.374 614.165 789.939C614.049 788.547 614.014 787.47 613.245 786.25C611.383 784.667 609.188 784.631 606.837 784.757L601.769 785.008ZM588.954 800.276L590.467 801.494C590.889 800.215 590.67 799.047 590.449 797.75C590.06 795.458 590.177 793.879 590.621 791.626C591.719 790.739 592.902 789.812 594.395 789.75C595.791 789.692 596.264 789.507 597.5 788.745C598.514 788.12 598.594 788.249 599.75 788.245C600.999 786.996 601.444 786.792 601.769 785.008C598.98 784.981 596.757 785.057 594.056 785.856C593.135 786.129 592.337 786.117 591.382 786.137C588.878 786.191 586.862 787.312 584.445 787.75L584.75 788.255L584.255 789C583.531 790.404 583.662 792.337 583.862 793.836L583.524 794.5C584.541 796.903 587.454 797.863 589.33 799.595L588.954 800.276ZM568.936 776.538L569.359 776.805C570.608 777.616 571.206 778.061 571.79 779.5C571.78 780.222 571.503 782.089 572.004 782.567C572.573 783.109 573.105 783.165 573.83 783.412C575.861 784.102 577.283 785.389 578.889 786.751C580.041 785.237 581.316 783.748 582.25 782.091L583.815 781.25C583.463 779.903 582.764 780.194 582.58 778.799C582.056 777.934 574.498 774.734 573.102 774.444C571.845 774.183 570.009 775.826 568.936 776.538Z"/>
	<defs>
		<linearGradient id="gradient_6" gradientUnits="userSpaceOnUse" x1="579.75" y1="781.75" x2="574.29797" y2="778.75299">
			<stop offset="0" stop-color="#FEFEFE" stop-opacity="0.5529412"/>
			<stop offset="1" stop-color="#FEFEFE" stop-opacity="0.63137257"/>
		</linearGradient>
	</defs>
	<path fill="url(#gradient_6)" transform="scale(0.5 0.5)" d="M568.936 776.538C570.009 775.826 571.845 774.183 573.102 774.444C574.498 774.734 582.056 777.934 582.58 778.799C582.764 780.194 583.463 779.903 583.815 781.25L582.25 782.091C581.316 783.748 580.041 785.237 578.889 786.751C577.283 785.389 575.861 784.102 573.83 783.412C573.105 783.165 572.573 783.109 572.004 782.567C571.503 782.089 571.78 780.222 571.79 779.5C571.206 778.061 570.608 777.616 569.359 776.805L568.936 776.538Z"/>
	<defs>
		<linearGradient id="gradient_7" gradientUnits="userSpaceOnUse" x1="586.75" y1="793.25" x2="589.32202" y2="795.63202">
			<stop offset="0" stop-color="#FEFEFE" stop-opacity="0.56862748"/>
			<stop offset="1" stop-color="#FEFEFE" stop-opacity="0.63137257"/>
		</linearGradient>
	</defs>
	<path fill="url(#gradient_7)" transform="scale(0.5 0.5)" d="M588.954 800.276L589.33 799.595C587.454 797.863 584.541 796.903 583.524 794.5L583.862 793.836C583.662 792.337 583.531 790.404 584.255 789L584.75 788.255L584.445 787.75C586.862 787.312 588.878 786.191 591.382 786.137C592.337 786.117 593.135 786.129 594.056 785.856C596.757 785.057 598.98 784.981 601.769 785.008C601.444 786.792 600.999 786.996 599.75 788.245C598.594 788.249 598.514 788.12 597.5 788.745C596.264 789.507 595.791 789.692 594.395 789.75C592.902 789.812 591.719 790.739 590.621 791.626C590.177 793.879 590.06 795.458 590.449 797.75C590.67 799.047 590.889 800.215 590.467 801.494L588.954 800.276Z"/>
	<defs>
		<linearGradient id="gradient_8" gradientUnits="userSpaceOnUse" x1="596.25" y1="789.25" x2="602.96698" y2="798.61499">
			<stop offset="0" stop-color="#FEFEFE" stop-opacity="0.67058825"/>
			<stop offset="1" stop-color="#FEFEFE" stop-opacity="0.74117649"/>
		</linearGradient>
	</defs>
	<path fill="url(#gradient_8)" transform="scale(0.5 0.5)" d="M601.769 785.008L606.837 784.757C609.188 784.631 611.383 784.667 613.245 786.25C614.014 787.47 614.049 788.547 614.165 789.939C614.791 790.374 615.299 790.649 616.004 790.951C616.826 791.304 617.288 791.673 617.943 792.264L598.148 806.58C595.382 805.161 592.962 803.333 590.467 801.494C590.889 800.215 590.67 799.047 590.449 797.75C590.06 795.458 590.177 793.879 590.621 791.626C591.719 790.739 592.902 789.812 594.395 789.75C595.791 789.692 596.264 789.507 597.5 788.745C598.514 788.12 598.594 788.249 599.75 788.245C600.999 786.996 601.444 786.792 601.769 785.008Z"/>
	<defs>
		<linearGradient id="gradient_9" gradientUnits="userSpaceOnUse" x1="380.25" y1="865.75" x2="727.11401" y2="231.23">
			<stop offset="0" stop-color="#FEAA46"/>
			<stop offset="1" stop-color="#FEDC91"/>
		</linearGradient>
	</defs>
	<path fill="url(#gradient_9)" transform="scale(0.5 0.5)" d="M774.029 287.813L834.005 288.119C837.172 293.46 841.085 298.268 844.458 303.474C853.12 316.84 861.366 330.401 868.626 344.592C907.869 421.297 920.494 512.734 899.066 596.533C894.456 614.561 889.128 632.523 882.25 649.831C849.929 731.167 790.58 801.45 715.202 846.055C670.753 872.357 620.867 889.823 569.218 893.632C551.654 894.927 533.968 894.485 516.383 893.946C498.36 893.393 480.662 891.751 462.832 888.978C455.646 887.86 448.193 886.883 441.14 885.112L433.139 883.419L431.567 883.15C397.89 876.157 364.917 862.903 334.223 847.627C324.618 842.847 314.861 838.096 305.664 832.56C298.463 828.226 291.104 823.604 285.25 817.508C283.377 815.557 281.642 813.881 280.973 811.182C282.182 809.245 283.3 807.106 284.961 805.523C304.022 805.613 321.432 806.215 339.708 812.22C341.706 812.876 345.698 813.688 347.208 815.026C343.719 819.351 338.857 824.226 336.543 829.25C335.199 832.169 334.706 835.185 334.218 838.338C347.528 834.219 359.541 826.498 371.433 819.386C375.808 816.77 380.121 813.822 384.75 811.682L392.451 807.163C392.603 806.701 394.421 805.685 394.912 805.347C399.249 802.515 403.88 798.935 408.75 797.136C409.598 797.692 410.26 797.861 411.25 798.057C414.452 796.723 420.8 799.052 424.143 799.861C429.478 801.451 434.631 803.027 439.789 805.112C441.359 805.746 443.346 806.248 444.674 807.28L476.136 822.389C480.123 825.205 484.565 827.265 488.884 829.517C497.74 834.136 506.844 838.452 515.429 843.556C519.333 844.559 524.25 843.972 528.275 843.795C536.102 843.45 543.896 842.931 551.691 842.145C588.394 838.446 622.915 828.432 656.283 812.804C665.104 808.672 673.954 804.487 682.359 799.549C717.369 778.979 748.874 751.154 774.506 719.742C777.617 716.657 780.296 712.506 782.937 708.991C793.083 695.486 802.219 681.442 810.893 666.958C813.941 662.961 816.187 657.345 818.452 652.825C833.071 623.647 842.328 592.924 848.145 560.909C850.475 548.091 851.303 535.096 851.692 522.095C852.116 507.924 852.061 493.609 850.543 479.5C847.486 451.082 839.887 422.809 829.506 396.245C825.571 386.176 821.845 374.995 815.658 366.083C813.765 359.15 809.535 351.989 806.308 345.562C796.44 325.911 786.012 306.268 774.029 287.813ZM394.912 805.347C394.421 805.685 392.603 806.701 392.451 807.163L384.75 811.682C384.655 812.929 384.45 812.792 385.25 813.883L390.366 815.768C393.232 817.095 396.263 817.97 399.269 818.918L421.045 826.223L431.215 828.931L447.825 833.219C448.652 832.247 449.242 830.967 450.123 830.081C451.526 828.671 453.855 828.124 455.587 827.198C457.287 826.288 458.574 824.743 459.867 823.343C460.289 821.604 458.957 818.803 458.588 816.969L458.502 816.497C457.689 816.356 456.961 816.15 456.187 815.868L455.285 815.536C453.554 814.518 453.57 814.672 453.046 812.75C450.702 810.823 448.265 812.299 445.468 811.05C445.15 810.401 445.019 810.025 444.968 809.291C444.9 808.303 444.992 808.8 444.796 807.827L444.674 807.28C443.346 806.248 441.359 805.746 439.789 805.112C434.631 803.027 429.478 801.451 424.143 799.861C420.8 799.052 414.452 796.723 411.25 798.057C410.26 797.861 409.598 797.692 408.75 797.136C403.88 798.935 399.249 802.515 394.912 805.347ZM444.674 807.28L444.796 807.827C444.992 808.8 444.9 808.303 444.968 809.291C445.019 810.025 445.15 810.401 445.468 811.05C448.265 812.299 450.702 810.823 453.046 812.75C453.57 814.672 453.554 814.518 455.285 815.536L456.187 815.868C456.961 816.15 457.689 816.356 458.502 816.497L458.588 816.969C458.957 818.803 460.289 821.604 459.867 823.343C458.574 824.743 457.287 826.288 455.587 827.198C453.855 828.124 451.526 828.671 450.123 830.081C449.242 830.967 448.652 832.247 447.825 833.219C450.27 833.767 453.906 835.043 456.33 834.902C465.509 837.12 474.585 838.761 483.88 840.361C494.439 842.179 504.663 843.829 515.429 843.556C506.844 838.452 497.74 834.136 488.884 829.517C484.565 827.265 480.123 825.205 476.136 822.389L444.674 807.28Z"/>
	<path fill="#FEAA46" transform="scale(0.5 0.5)" d="M433.139 883.419C434.295 883.05 435.2 882.483 436.375 882.875L437 881.75L437.5 881.75L437.75 882.5L438.625 882.125L439 882.75L438.5 883.5L439.25 883.755C440.158 884.083 440.555 884.347 441.14 885.112L433.139 883.419Z"/>
	<defs>
		<linearGradient id="gradient_10" gradientUnits="userSpaceOnUse" x1="464.25" y1="829.75" x2="461.47501" y2="827.47498">
			<stop offset="0" stop-color="#C1F3F8" stop-opacity="0.32941177"/>
			<stop offset="1" stop-color="#BCF2F8" stop-opacity="0.39607844"/>
		</linearGradient>
	</defs>
	<path fill="url(#gradient_10)" transform="scale(0.5 0.5)" d="M455.285 815.536C456.901 815.481 458.53 815.104 459.9 816C460.202 817.902 460.12 819.053 461.845 820.25L463.155 820.967C465.633 822.335 466.978 825.141 469.502 826.829C470.356 827.4 470.632 827.849 471.067 828.753L471.753 829.003C471.114 829.698 470.819 829.792 469.904 830.111C466.016 831.465 463.174 836.126 459 834.32C458.087 834.486 457.212 834.615 456.33 834.902C453.906 835.043 450.27 833.767 447.825 833.219C448.652 832.247 449.242 830.967 450.123 830.081C451.526 828.671 453.855 828.124 455.587 827.198C457.287 826.288 458.574 824.743 459.867 823.343C460.289 821.604 458.957 818.803 458.588 816.969L458.502 816.497C457.689 816.356 456.961 816.15 456.187 815.868L455.285 815.536Z"/>
	<path fill="#AEE9EE" fill-opacity="0.88235295" transform="scale(0.5 0.5)" d="M394.912 805.347C399.249 802.515 403.88 798.935 408.75 797.136C409.598 797.692 410.26 797.861 411.25 798.057C414.452 796.723 420.8 799.052 424.143 799.861C429.478 801.451 434.631 803.027 439.789 805.112C441.359 805.746 443.346 806.248 444.674 807.28L444.796 807.827C444.992 808.8 444.9 808.303 444.968 809.291C445.019 810.025 445.15 810.401 445.468 811.05C448.265 812.299 450.702 810.823 453.046 812.75C453.57 814.672 453.554 814.518 455.285 815.536L456.187 815.868C456.961 816.15 457.689 816.356 458.502 816.497L458.588 816.969C458.957 818.803 460.289 821.604 459.867 823.343C458.574 824.743 457.287 826.288 455.587 827.198C453.855 828.124 451.526 828.671 450.123 830.081C449.242 830.967 448.652 832.247 447.825 833.219L431.215 828.931L421.045 826.223L399.269 818.918C396.263 817.97 393.232 817.095 390.366 815.768L385.25 813.883C384.45 812.792 384.655 812.929 384.75 811.682L392.451 807.163C392.603 806.701 394.421 805.685 394.912 805.347ZM424.143 799.861C423.353 801.076 422.676 801.553 422.917 803.017C425.335 804.189 427.898 804.045 430.492 803.828C430.913 803.793 432.604 803.515 432.946 803.662C433.451 803.878 433.771 804.387 434.184 804.75C434.344 806.152 434.192 806.764 435.5 807.591L440.379 809.231C441.039 810.121 442.248 812.249 443.072 812.865C443.847 813.444 446.437 813.524 447.46 813.843C448.996 814.322 450.274 816.282 451.379 817.404C452.381 818.421 454.432 818.269 455.755 818.25L457.25 819.255L456.755 820L456.645 820.485C456.249 822.058 453.827 823.972 452.5 824.755L451.002 825.503L450.368 825.925C448.213 827.005 442.661 825.344 441.25 826.755C439.867 826.755 438.671 826.474 437.5 827.255L436.25 827.255L435.5 828.378L434.799 828.221C433.449 828.012 432.453 828.469 431.215 828.931L447.825 833.219C448.652 832.247 449.242 830.967 450.123 830.081C451.526 828.671 453.855 828.124 455.587 827.198C457.287 826.288 458.574 824.743 459.867 823.343C460.289 821.604 458.957 818.803 458.588 816.969L458.502 816.497C457.689 816.356 456.961 816.15 456.187 815.868L455.285 815.536C453.554 814.518 453.57 814.672 453.046 812.75C450.702 810.823 448.265 812.299 445.468 811.05C445.15 810.401 445.019 810.025 444.968 809.291C444.9 808.303 444.992 808.8 444.796 807.827L444.674 807.28C443.346 806.248 441.359 805.746 439.789 805.112C434.631 803.027 429.478 801.451 424.143 799.861ZM394.912 805.347C394.421 805.685 392.603 806.701 392.451 807.163L384.75 811.682C384.655 812.929 384.45 812.792 385.25 813.883L390.366 815.768C393.232 817.095 396.263 817.97 399.269 818.918C399.966 818.534 400.612 818.279 401.373 818.058L402.25 817.809L402.43 817C401.365 815.042 399.797 813.425 397.75 812.516C396.538 811.977 395.757 811.645 394.75 810.755C394.746 808.89 394.665 808.62 395.745 807L394.912 805.347Z"/>
	<path fill="#9FE3E9" fill-opacity="0.80000001" transform="scale(0.5 0.5)" d="M394.912 805.347L395.745 807C394.665 808.62 394.746 808.89 394.75 810.755C395.757 811.645 396.538 811.977 397.75 812.516C399.797 813.425 401.365 815.042 402.43 817L402.25 817.809L401.373 818.058C400.612 818.279 399.966 818.534 399.269 818.918C396.263 817.97 393.232 817.095 390.366 815.768L385.25 813.883C384.45 812.792 384.655 812.929 384.75 811.682L392.451 807.163C392.603 806.701 394.421 805.685 394.912 805.347ZM392.451 807.163L384.75 811.682C384.655 812.929 384.45 812.792 385.25 813.883L390.366 815.768C391.48 814.31 392.731 813.457 393.75 811.845C393.757 809.392 393.982 809.021 392.451 807.163Z"/>
	<path fill="#9FE3E9" fill-opacity="0.63137257" transform="scale(0.5 0.5)" d="M424.143 799.861C429.478 801.451 434.631 803.027 439.789 805.112C441.359 805.746 443.346 806.248 444.674 807.28L444.796 807.827C444.992 808.8 444.9 808.303 444.968 809.291C445.019 810.025 445.15 810.401 445.468 811.05C448.265 812.299 450.702 810.823 453.046 812.75C453.57 814.672 453.554 814.518 455.285 815.536L456.187 815.868C456.961 816.15 457.689 816.356 458.502 816.497L458.588 816.969C458.957 818.803 460.289 821.604 459.867 823.343C458.574 824.743 457.287 826.288 455.587 827.198C453.855 828.124 451.526 828.671 450.123 830.081C449.242 830.967 448.652 832.247 447.825 833.219L431.215 828.931C432.453 828.469 433.449 828.012 434.799 828.221L435.5 828.378L436.25 827.255L437.5 827.255C438.671 826.474 439.867 826.755 441.25 826.755C442.661 825.344 448.213 827.005 450.368 825.925L451.002 825.503L452.5 824.755C453.827 823.972 456.249 822.058 456.645 820.485L456.755 820L457.25 819.255L455.755 818.25C454.432 818.269 452.381 818.421 451.379 817.404C450.274 816.282 448.996 814.322 447.46 813.843C446.437 813.524 443.847 813.444 443.072 812.865C442.248 812.249 441.039 810.121 440.379 809.231L435.5 807.591C434.192 806.764 434.344 806.152 434.184 804.75C433.771 804.387 433.451 803.878 432.946 803.662C432.604 803.515 430.913 803.793 430.492 803.828C427.898 804.045 425.335 804.189 422.917 803.017C422.676 801.553 423.353 801.076 424.143 799.861Z"/>
	<path fill="#FEAA46" transform="scale(0.5 0.5)" d="M280.973 811.182C282.182 809.245 283.3 807.106 284.961 805.523C304.022 805.613 321.432 806.215 339.708 812.22C341.706 812.876 345.698 813.688 347.208 815.026C343.719 819.351 338.857 824.226 336.543 829.25C335.199 832.169 334.706 835.185 334.218 838.338C347.528 834.219 359.541 826.498 371.433 819.386C375.808 816.77 380.121 813.822 384.75 811.682C384.655 812.929 384.45 812.792 385.25 813.883L390.366 815.768C393.232 817.095 396.263 817.97 399.269 818.918L421.045 826.223L420.428 826.696C419.62 827.306 419.963 827.087 419.2 827.5L419 828.75C418.441 829.01 417.573 829.224 417.084 829.5L416.529 829.993C415.322 831.016 413.875 831.632 412.551 832.492C411.697 833.046 410.917 833.339 410 833.75L408.5 834.499L407.938 834.759C407.371 835.038 407.058 835.431 406.625 835.875L406.125 835.607C405.474 835.988 404.957 836.399 404.375 836.875L403.587 836.587L402.75 836.907C401.244 837.214 400.004 836.554 398.5 837.25L397.625 837.125C396.225 837.008 392.902 836.778 391.625 837.125C390.372 837.465 391.322 837.733 389.625 837.625C388.529 837.555 388.273 837.752 387.375 838.253L386.844 838.189L384.625 838.125C383.588 838.13 381.689 838.368 380.75 838C379.874 837.657 379.825 837.307 378.75 837C378.14 836.826 377.61 836.424 377 836.25C375.336 835.775 374.073 836.549 372.5 835.5C371.456 836.022 371.321 836.296 370.125 836.125C369.795 836.903 369.622 837.398 369.5 838.25C368.882 838.868 369.236 838.75 368.5 838.75C368.367 839.571 368.304 840.301 368.252 841.125C368.192 842.101 367.738 842.693 367.255 843.5C366.603 844.589 366.156 845.275 366.002 846.503L365.625 847.875C365.946 848.575 366.28 848.958 366.19 849.734C366.028 851.139 366.091 851.716 366.75 853L367.255 853.25L367.456 853.797C368.076 855.362 368.394 855.61 369.75 856.5L371 857.5L371.727 858.055C372.973 859.074 373.073 860.737 375 860.75L375.357 861.089C376.125 861.809 376.445 862.253 377.498 862.508C378.217 863.504 377.933 863.482 379.25 863.765L380.245 864.75L380.125 865.875L380.875 865.625C382.717 866.414 384.276 866.837 385.625 868.375L386.375 868.125L387.125 868.125L387.875 867.625L388.125 868.109C388.707 869.156 389.131 869.844 390.25 870.318L390.875 870.125L391.375 870.375L391.875 870.125L392.375 870.375L393.375 869.625L394.25 870.745L395 870.75L395.25 871.5C396.339 871.718 396.473 871.723 397.25 872.5L398.25 871.608L400.25 872.245L400.875 871.747L401.5 872.5L402.5 872.25L402.875 872.875L403.875 872.247L404.5 873L405.255 872.75L406 873.5L407 873.25L407.375 873.875L408.375 873.247L409 874L409.755 873.75L410.25 875L411.25 874.245L411.875 874.875L412.875 874.247L413.5 875L414.255 874.75L415.25 876L415.75 875.245L417 876L417.755 875.75L418.75 877L419.25 876.245L420.75 877.5L421.625 877.375C422.302 878.036 422.885 878.558 423.375 879.375L423.75 878.745C424.462 879.293 424.906 879.593 425.375 880.375C427.086 880.375 427.874 879.321 429.25 880.5L431.567 883.15C397.89 876.157 364.917 862.903 334.223 847.627C324.618 842.847 314.861 838.096 305.664 832.56C298.463 828.226 291.104 823.604 285.25 817.508C283.377 815.557 281.642 813.881 280.973 811.182Z"/>
</svg>
