<?xml version="1.0" encoding="utf-8" ?>
<svg xmlns="http://www.w3.org/2000/svg" xmlns:xlink="http://www.w3.org/1999/xlink" width="512" height="512">
	<path fill="#FEFEFE" fill-opacity="0.17647059" transform="scale(0.5 0.5)" d="M150.82 941.216C149.667 940.388 148.769 941.24 147.5 941.092C146.955 941.029 146.024 940.476 145.484 940.25C145.506 939.07 145.627 937.883 146.25 936.851C147.233 935.222 148.241 934.243 150.05 933.693C151.272 933.907 152.051 934.003 153.078 934.75C153.273 935.59 153.382 936.32 153.898 937.036L154.205 937.396C153.351 938.412 151.932 940.645 150.82 941.216Z"/>
	<path fill="#E43212" transform="scale(0.5 0.5)" d="M654.519 108.495L594.817 79.2794C609.133 76.5803 621.613 69.5112 634.399 62.8505C644.02 57.8383 653.882 53.0695 664.03 49.2182C688.102 40.0832 713.71 35.3423 739.283 33.313C759.886 31.6781 781.027 31.4651 801.565 34.0954C835.458 38.4363 869.044 50.7644 897.322 70.0415C915.449 82.3988 932.77 97.6939 937.104 120.268C938.724 128.706 937.778 138.818 936.477 147.25C936.053 149.998 935.803 153.057 934.877 155.683C933.192 154.551 932.087 152.075 931.079 150.333C929.142 146.986 927.186 143.685 925.033 140.47C908.941 116.434 885.76 102.572 859.129 92.708C831.678 82.5404 801.971 79.6023 772.884 80.3077C761.169 80.5918 749.584 81.1632 738.013 83.1296C722.746 85.7242 707.213 90.9056 692.405 95.4408C679.909 99.2682 666.372 103.048 654.519 108.495Z"/>
	<path fill="#142E49" transform="scale(0.5 0.5)" d="M852.707 192.806L852.692 192.118C860.734 178.871 874.372 169.834 888.018 163.097C899.627 157.366 911.385 154.534 924.388 155.141C927.746 155.298 931.243 155.369 934.446 156.456C934.39 164.054 940.019 171.392 942.067 178.486C944.229 178.759 945.281 179.53 946.564 181.296C948.807 184.383 950.068 188.886 951.347 192.493C953.879 199.631 956.463 207.575 957.704 215.044C959.804 227.68 959.814 239.974 959.867 252.75C959.92 265.307 960.144 277.163 957.705 289.567C954.514 305.803 949.17 319.786 940.69 333.97C938.713 337.275 936.651 341.163 934.104 344.024C931.739 346.679 928.317 349.088 925.385 351.126L925.525 350.305C926.423 344.895 926.253 339.388 926.234 333.921C926.182 319.54 924.201 305.284 919.986 291.5C918.736 287.411 916.924 283.554 915.339 279.594C912.668 272.922 909.98 266.331 906.998 259.79C896.849 276.448 880.317 290.895 861 295.516C851.031 297.9 840.003 297.151 829.966 295.455C826.224 294.823 822.537 293.796 818.775 293.294L793.185 283.988C794.935 275.154 798.274 265.563 802.54 257.636C806.775 249.766 812.593 242.705 817.908 235.554C825.762 224.987 833.383 214.327 841.923 204.295C845.328 200.296 849.136 196.656 852.707 192.806ZM901.334 247.534C900.466 248.693 899.895 249.121 899.822 250.591L906.909 256.601C907.907 251.864 908.392 244.732 906.842 240.085L904.75 239.453C902.978 241.619 904.115 246.411 901.334 247.534Z"/>
	<path fill="#E0E0E0" transform="scale(0.5 0.5)" d="M852.707 192.806L852.692 192.118C860.734 178.871 874.372 169.834 888.018 163.097C899.627 157.366 911.385 154.534 924.388 155.141C927.746 155.298 931.243 155.369 934.446 156.456C934.39 164.054 940.019 171.392 942.067 178.486L941.502 178.891C939.132 180.509 934.843 181.168 932.077 182.139C921.892 185.712 911.716 189.31 901.471 192.71C894.828 194.915 887.916 196.738 881.448 199.392C884.104 202.658 887.739 205.119 890.751 208.063C897.699 214.855 903.164 223.074 905.974 232.41C906.553 234.332 907.454 237.001 907.465 239C907.467 239.488 907.326 239.707 907.142 240.105L906.842 240.085L904.75 239.453C902.978 241.619 904.115 246.411 901.334 247.534L899.25 248.622L898.75 250.224C882.775 238.794 867.637 227.526 858.857 209.358C857.349 206.236 856.334 203.245 855.425 199.905C854.863 197.837 854.539 195.292 853.278 193.543L852.707 192.806Z"/>
	<path fill="#FE5A00" transform="scale(0.5 0.5)" d="M654.519 108.495L655.081 108.663C657.43 109.016 662.106 106.682 664.625 106.072C665.298 105.909 667.793 105.037 668.365 105.165C668.915 105.289 671.51 108.22 672.051 108.747C677.881 114.433 683.524 120.194 688.924 126.291C693.609 131.581 698.197 136.953 702.813 142.304C705.627 145.568 708.908 148.902 711.109 152.608C691.781 156.345 672.297 161.33 653.768 168.027C641.884 172.322 630.379 177.601 618.891 182.841C609.134 187.292 599.325 191.767 589.927 196.949C573.273 206.133 557.007 216.807 541.392 227.66C530.754 235.055 520.017 242.525 509.901 250.613C499.668 258.796 490.398 267.975 480.534 276.569C470.492 285.317 460.952 294.328 451.188 303.367C444.62 309.447 437.545 315.484 431.7 322.266L432.048 323.447C420.369 333.271 410.547 344.153 400.698 355.761C370.403 391.464 347.166 431.111 326.998 473.214C319.452 488.969 312.032 504.969 306.166 521.438C303.216 529.72 301.026 538.222 298.671 546.683C296.288 555.247 293.5 563.834 291.31 572.426C290.42 575.92 289.857 579.499 288.978 583C287.85 587.493 286.19 591.888 284.953 596.362C282.839 604.003 281.065 611.72 279.102 619.397C277.353 622.31 273.821 623.251 271.038 624.968C267.328 627.256 263.631 629.766 260.145 632.384C256.788 634.905 253.769 638.627 250.175 640.657C249.469 636.615 251.089 631.091 251.963 627.099C256.403 606.812 263.19 587.508 270.643 568.161C274.511 558.117 278.092 547.908 282.231 537.975C290.621 517.84 300.376 498.097 310.154 478.605C319.295 460.382 328.504 442.291 338.472 424.5C352.968 398.629 368.844 373.417 385.147 348.654C392.34 337.73 399.313 326.639 406.809 315.921C419.425 297.882 433.152 280.228 447.32 263.38C471.876 234.179 498.951 207.304 528.065 182.676C536.27 175.735 545.187 169.494 554.02 163.371C573.251 150.042 593 138.299 613.767 127.538C623.174 122.664 632.874 118.193 642.671 114.16C645.588 112.959 648.546 111.899 651.444 110.644C651.956 110.422 653.376 109.997 653.755 109.637C654.086 109.321 654.264 108.876 654.519 108.495Z"/>
	<path fill="#FE5A00" transform="scale(0.5 0.5)" d="M399.646 570.226L400.237 569.983C409.21 573.463 418.447 576.284 427.495 579.576C441.356 584.618 455.244 590.169 469.5 594.004C510.638 605.072 556.032 605.161 595.465 587.837C606.013 583.204 616.223 578.573 626.033 572.494C626.779 574.087 630.352 592.983 629.924 594.582L629.718 595.076C625.68 596.418 621.765 597.707 617.993 599.709C603.59 607.356 590.226 617.795 577.049 627.358C572.565 630.612 567.088 633.864 563.28 637.901L551.42 642.712C543.424 645.42 535.454 647.983 527.25 650.003C520.998 651.542 514.409 652.599 508.268 654.469C506.991 654.857 504.275 655.654 503.649 656.842C497.674 662.93 493.923 670.393 489.347 677.513C484.791 684.601 480.011 691.506 475.676 698.739C473.207 702.859 470.883 707.908 467.933 711.64C460.614 723.409 453.942 735.586 446.481 747.255C432.244 769.523 417.11 791.251 403.527 813.917C401.811 816.78 400.33 819.678 399.014 822.75C397.795 825.598 396.915 828.907 394.5 830.989L393.835 830.5C394.42 826.577 396.189 822.858 397.159 819C396.319 818.271 396.312 818.419 395.965 817.25C396.474 814.481 397.929 812.472 399.587 810.25L399.37 809.844C398.937 808.913 398.688 807.972 398.794 806.938C399.337 801.632 400.912 796.178 401.788 790.878C403.025 783.393 403.67 775.811 404.898 768.352C405.425 765.145 406.926 761.759 407.036 758.567C407.087 757.091 407.093 756.894 406 755.97C403.93 757.31 402.847 759.952 401.734 762.08C399.364 766.608 397.002 771.14 394.627 775.666C390.331 783.854 385.967 792.083 381.361 800.102C377.647 806.569 373.556 812.779 369.447 819C351.366 846.375 331.536 872.371 310.085 897.187C295.336 914.249 280.278 930.931 263.75 946.311C255.965 953.556 247.711 960.288 239.472 967.001C231.618 973.4 224.242 980.344 215.369 985.329L215.766 984.829C218.485 981.363 220.79 977.608 223.322 974.008C227.055 968.702 230.948 963.399 234.227 957.799C236.391 954.104 238.161 950.195 240.25 946.461C249.712 929.555 259.085 912.963 267.342 895.389C269.053 891.746 270.126 887.847 271.724 884.148L271.874 884.073C275.808 876.382 282.576 870.154 287.938 863.443C293.977 855.885 299.47 847.988 304.881 839.975C314.813 825.268 325.745 811.11 335.129 796.062C361.465 753.831 381.583 706.725 393.134 658.333C395.642 647.823 398.106 637.324 399.709 626.628C401.996 611.367 402.445 596.118 401.434 580.73C401.201 577.174 401.768 573.097 399.646 570.226Z"/>
	<path fill="#3F2C26" transform="scale(0.5 0.5)" d="M563.28 637.901C567.088 633.864 572.565 630.612 577.049 627.358C590.226 617.795 603.59 607.356 617.993 599.709C621.765 597.707 625.68 596.418 629.718 595.076C630.277 596.41 630.759 597.808 631.617 598.983C630.394 600.553 629.729 601.119 629.988 603.25C631.272 613.859 640.133 621.133 648.351 626.924C660.526 635.505 673.616 641.878 686.921 648.426L815.878 603.459L841.616 653.135C831.419 656.749 821.352 659.898 812.723 666.835L813.949 669.25C811.934 670.97 806.045 672.171 803.337 673.15C788.907 678.362 774.468 683.475 759.994 688.563C723.214 701.493 686.546 714.685 649.598 727.139C637.827 731.107 626.254 735.506 614.365 739.13C628.326 746.552 641.163 756.39 654.501 764.903C681.383 782.061 706.943 800.771 732.455 819.865C763.828 843.346 795.266 867.201 823.738 894.216C847.222 916.498 868.694 941.258 888.856 966.547C896.978 976.734 905.513 986.753 911.695 998.285C913.477 1001.61 915.191 1004.69 916.307 1008.31C904.393 1007.8 892.45 1008.11 880.527 1008.02C876.647 1008 871.139 1008.6 867.51 1007.57C860.267 997.998 854.103 987.545 847.064 977.793C834.726 960.699 820.657 944.554 805.839 929.569C792.093 915.669 777.054 903.274 761.881 890.982C747.072 878.984 732.257 867.197 717.071 855.674C693.827 838.036 670.725 820.337 646.696 803.758C631.842 793.508 616.421 783.917 601.075 774.43C567.237 753.51 532.578 734.806 495.083 721.209C486.292 718.021 476.986 713.848 467.933 711.64C470.883 707.908 473.207 702.859 475.676 698.739C480.011 691.506 484.791 684.601 489.347 677.513C493.923 670.393 497.674 662.93 503.649 656.842C504.275 655.654 506.991 654.857 508.268 654.469C514.409 652.599 520.998 651.542 527.25 650.003C535.454 647.983 543.424 645.42 551.42 642.712L563.28 637.901Z"/>
	<path fill="#E0E0E0" transform="scale(0.5 0.5)" d="M563.28 637.901C567.088 633.864 572.565 630.612 577.049 627.358C590.226 617.795 603.59 607.356 617.993 599.709C621.765 597.707 625.68 596.418 629.718 595.076C630.277 596.41 630.759 597.808 631.617 598.983C630.394 600.553 629.729 601.119 629.988 603.25C631.272 613.859 640.133 621.133 648.351 626.924C660.526 635.505 673.616 641.878 686.921 648.426L815.878 603.459L841.616 653.135C831.419 656.749 821.352 659.898 812.723 666.835L803.652 648.418C796.191 650.123 788.824 653.605 781.603 656.185C767.217 661.325 752.807 666.37 738.437 671.559C713.36 680.615 688.001 688.902 662.848 697.741C647.512 703.13 632.14 708.362 616.756 713.611C606.986 716.945 597.195 720.513 587.284 723.404C579.866 719.368 572.081 715.927 564.564 712.051C562.333 710.901 559.064 709.662 557.25 707.974L560.25 707.37C560.872 705.558 560.727 703.366 560.803 701.449L553.715 704.158L552.5 704.548L551.785 705.25L550.005 704.398L549.954 703.75C566.465 698.144 581.817 689.701 598.638 684.844C601.211 684.101 605.196 683.754 607.407 682.461L607.392 681.75L606.983 681.449C604.527 680.111 597.24 680.595 594.327 680.482C581.342 679.977 568.213 679.622 555.25 680.701C540.842 681.9 526.557 684.883 512.432 687.867C509.661 681.142 506.684 674.073 504.905 667.019C504.094 663.806 503.974 660.146 503.649 656.842C504.275 655.654 506.991 654.857 508.268 654.469C514.409 652.599 520.998 651.542 527.25 650.003C535.454 647.983 543.424 645.42 551.42 642.712L563.28 637.901Z"/>
	<path fill="#FEFEFE" transform="scale(0.5 0.5)" d="M563.28 637.901C573.927 638.456 584.382 638.965 594.617 642.205C589.415 643.293 583.081 642.504 577.725 642.659C571.749 642.833 565.778 643.082 559.806 643.364C557.886 643.454 554.291 644.002 552.526 643.412C552.113 643.274 551.789 642.945 551.42 642.712L563.28 637.901Z"/>
	<path fill="#F8AE5C" transform="scale(0.5 0.5)" d="M563.28 637.901C567.088 633.864 572.565 630.612 577.049 627.358C590.226 617.795 603.59 607.356 617.993 599.709C621.765 597.707 625.68 596.418 629.718 595.076C630.277 596.41 630.759 597.808 631.617 598.983C630.394 600.553 629.729 601.119 629.988 603.25C631.272 613.859 640.133 621.133 648.351 626.924C660.526 635.505 673.616 641.878 686.921 648.426C687.545 649.47 687.882 649.754 687.932 651L687.595 651.22C685.786 652.17 682.918 652.178 680.89 652.711C676.956 653.746 673.034 655.143 669.178 656.438C660.78 659.257 649.907 662.934 640.943 662.364C634.685 661.966 627.449 657.033 621.929 654.142C613.516 649.734 604.786 644.76 595.527 642.424L594.617 642.205C584.382 638.965 573.927 638.456 563.28 637.901Z"/>
	<path fill="#E43212" transform="scale(0.5 0.5)" d="M345.75 589.259C352.729 585.959 360.364 583.412 367.651 580.894C378.264 577.226 388.968 573.706 399.646 570.226C401.768 573.097 401.201 577.174 401.434 580.73C402.445 596.118 401.996 611.367 399.709 626.628C398.106 637.324 395.642 647.823 393.134 658.333C381.583 706.725 361.465 753.831 335.129 796.062C325.745 811.11 314.813 825.268 304.881 839.975C299.47 847.988 293.977 855.885 287.938 863.443C282.576 870.154 275.808 876.382 271.874 884.073L271.724 884.148C268.152 885.566 264.342 891.797 261.455 894.594C254.1 901.717 246.554 908.682 239.062 915.662C233.704 920.654 228.205 926.185 222.226 930.422C216.359 935.871 209.718 940.605 203.362 945.466C195.252 951.669 187.147 957.841 178.578 963.408C165.351 972.001 151.524 979.109 137.227 985.716C123.158 992.217 109.081 998.121 94.1681 1002.45C86.8512 1004.58 79.8257 1005.96 72.25 1006.8C70.0384 1007.05 67.2453 1007.69 65.0523 1007.55L64.4594 1007.43C70.6184 1001.49 79.3094 997.721 86.5704 993.25C105.506 981.59 123.15 969.413 139.064 953.756C143.112 949.773 147.408 945.769 150.82 941.216C151.932 940.645 153.351 938.412 154.205 937.396L170.873 917.122C170.464 916.102 170.13 915.205 169.5 914.293C166.477 915.924 163.96 918.874 161.3 921.079C154.135 927.017 146.987 933.028 139.667 938.773C128.741 947.349 117.174 955.037 105.626 962.734C100.653 966.049 95.8607 969.574 90.8179 972.792C106.556 934.892 123.033 897.14 139.669 859.619C144.839 847.959 150.131 836.313 155.512 824.75C158.057 819.283 160.822 813.91 163.416 808.464C164.347 806.508 165.963 803.973 166.166 801.834L166.215 801.103C156.836 809.785 148.645 819.023 140.611 828.914C144.209 820.854 147.357 812.619 150.979 804.572C158.184 788.561 165.945 772.795 173.477 756.937C182.563 737.807 191.9 718.574 203.038 700.541C212.085 685.895 222.197 671.206 233.439 658.147C236.271 654.857 239.32 651.689 242.516 648.75C244.272 647.134 246.095 645.585 247.92 644.048C248.348 643.687 249.41 643.03 249.653 642.6C249.983 642.016 250.001 641.305 250.175 640.657C253.769 638.627 256.788 634.905 260.145 632.384C263.631 629.766 267.328 627.256 271.038 624.968C273.821 623.251 277.353 622.31 279.102 619.397C282.051 619.915 287.697 615.866 290.421 614.524C301.423 609.102 312.398 603.39 323.565 598.342C330.858 595.046 338.376 592.354 345.75 589.259Z"/>
	<path fill="#E2218A" transform="scale(0.5 0.5)" d="M345.75 589.259C352.729 585.959 360.364 583.412 367.651 580.894C378.264 577.226 388.968 573.706 399.646 570.226C401.768 573.097 401.201 577.174 401.434 580.73C402.445 596.118 401.996 611.367 399.709 626.628C398.106 637.324 395.642 647.823 393.134 658.333C381.583 706.725 361.465 753.831 335.129 796.062C325.745 811.11 314.813 825.268 304.881 839.975C299.47 847.988 293.977 855.885 287.938 863.443C282.576 870.154 275.808 876.382 271.874 884.073L271.724 884.148C268.152 885.566 264.342 891.797 261.455 894.594C254.1 901.717 246.554 908.682 239.062 915.662C233.704 920.654 228.205 926.185 222.226 930.422L221.729 929.564C220.38 930.91 219.038 932.118 217.5 933.25L217.245 932.5L216.75 931.755C217.134 930.39 217.894 930.396 218.498 929.375C219.023 928.486 220.069 927.698 220.467 926.875C223.538 920.536 229.182 914.276 233.426 908.49C238.86 901.083 244.017 893.297 248.505 885.277C256.572 870.859 264.951 856.355 272.507 841.677C276.308 834.293 279.568 826.649 283.321 819.244C291.196 803.707 299.297 788.326 306.182 772.297C317.404 746.172 326.666 719.342 334.757 692.094C340.658 672.223 343.445 650.865 344.718 630.214C345.218 622.096 345.142 613.958 345.076 605.83C345.036 600.919 344.05 593.868 345.75 589.259Z"/>
	<path fill="#E2218A" transform="scale(0.5 0.5)" d="M166.215 801.103C169.793 795.494 175.487 790.318 179.929 785.317C187.372 776.937 194.51 768.262 202.107 760.021C212.922 748.291 224.109 737.181 235.84 726.376C248.192 714.999 260.815 704.14 275.701 696.152C278.079 694.875 281.536 692.486 284.266 692.447L285 692.489C287.155 696.767 279.728 718.396 277.892 724C272.336 740.948 265.344 757.659 258.175 773.976C247.787 797.617 236.572 820.346 223.157 842.448C212.717 859.647 201.148 876.144 189.618 892.62C188.608 894.064 179.648 904.722 179.56 905.25C179.504 905.586 179.63 905.936 179.75 906.255L180.522 907.25L171.253 916.931L170.873 917.122C170.464 916.102 170.13 915.205 169.5 914.293C166.477 915.924 163.96 918.874 161.3 921.079C154.135 927.017 146.987 933.028 139.667 938.773C128.741 947.349 117.174 955.037 105.626 962.734C100.653 966.049 95.8607 969.574 90.8179 972.792C106.556 934.892 123.033 897.14 139.669 859.619C144.839 847.959 150.131 836.313 155.512 824.75C158.057 819.283 160.822 813.91 163.416 808.464C164.347 806.508 165.963 803.973 166.166 801.834L166.215 801.103Z"/>
	<path fill="#FECB02" transform="scale(0.5 0.5)" d="M654.519 108.495C666.372 103.048 679.909 99.2682 692.405 95.4408C707.213 90.9056 722.746 85.7242 738.013 83.1296C749.584 81.1632 761.169 80.5918 772.884 80.3077C801.971 79.6023 831.678 82.5404 859.129 92.708C885.76 102.572 908.941 116.434 925.033 140.47C927.186 143.685 929.142 146.986 931.079 150.333C932.087 152.075 933.192 154.551 934.877 155.683L934.446 156.456C931.243 155.369 927.746 155.298 924.388 155.141C911.385 154.534 899.627 157.366 888.018 163.097C874.372 169.834 860.734 178.871 852.692 192.118L852.707 192.806C849.136 196.656 845.328 200.296 841.923 204.295C833.383 214.327 825.762 224.987 817.908 235.554C812.593 242.705 806.775 249.766 802.54 257.636C798.274 265.563 794.935 275.154 793.185 283.988L818.775 293.294C820.122 307.908 821.04 322.277 819.777 336.949C815.168 390.465 788.075 439.947 754.094 480.506C745.432 490.845 735.66 500.538 725.61 509.523C720.894 513.738 715.776 517.539 711.25 521.948C695.713 537.083 681.056 553.168 665.471 568.288C654.518 578.914 642.789 588.622 631.617 598.983C630.759 597.808 630.277 596.41 629.718 595.076L629.924 594.582C630.352 592.983 626.779 574.087 626.033 572.494C616.223 578.573 606.013 583.204 595.465 587.837C556.032 605.161 510.638 605.072 469.5 594.004C455.244 590.169 441.356 584.618 427.495 579.576C418.447 576.284 409.21 573.463 400.237 569.983L399.646 570.226C388.968 573.706 378.264 577.226 367.651 580.894C360.364 583.412 352.729 585.959 345.75 589.259C338.376 592.354 330.858 595.046 323.565 598.342C312.398 603.39 301.423 609.102 290.421 614.524C287.697 615.866 282.051 619.915 279.102 619.397C281.065 611.72 282.839 604.003 284.953 596.362C286.19 591.888 287.85 587.493 288.978 583C289.857 579.499 290.42 575.92 291.31 572.426C293.5 563.834 296.288 555.247 298.671 546.683C301.026 538.222 303.216 529.72 306.166 521.438C312.032 504.969 319.452 488.969 326.998 473.214C347.166 431.111 370.403 391.464 400.698 355.761C410.547 344.153 420.369 333.271 432.048 323.447L431.7 322.266C437.545 315.484 444.62 309.447 451.188 303.367C460.952 294.328 470.492 285.317 480.534 276.569C490.398 267.975 499.668 258.796 509.901 250.613C520.017 242.525 530.754 235.055 541.392 227.66C557.007 216.807 573.273 206.133 589.927 196.949C599.325 191.767 609.134 187.292 618.891 182.841C630.379 177.601 641.884 172.322 653.768 168.027C672.297 161.33 691.781 156.345 711.109 152.608C708.908 148.902 705.627 145.568 702.813 142.304C698.197 136.953 693.609 131.581 688.924 126.291C683.524 120.194 677.881 114.433 672.051 108.747C671.51 108.22 668.915 105.289 668.365 105.165C667.793 105.037 665.298 105.909 664.625 106.072C662.106 106.682 657.43 109.016 655.081 108.663L654.519 108.495Z"/>
	<path fill="#142E49" transform="scale(0.5 0.5)" d="M791.095 150.102C794.69 150.142 798.23 150.993 801.25 153.004C805.992 156.161 808.902 161.165 809.841 166.737C810.593 171.195 809.578 175.847 806.902 179.519C803.477 184.219 799.001 186.059 793.482 187.004C789.793 186.775 786.961 186.26 783.75 184.33C779.323 181.668 775.715 177.502 774.581 172.377C773.519 167.581 774.88 161.997 777.552 157.954C780.858 152.952 785.468 151.211 791.095 150.102Z"/>
	<path fill="#1394EB" transform="scale(0.5 0.5)" d="M432.048 323.447C451.156 309.418 470.671 295.094 490.75 282.494C514.616 267.518 540.313 254.101 566.091 242.736C577.53 237.694 589.148 232.719 600.858 228.341C607.607 225.818 614.538 223.85 621.239 221.189C648.194 225.644 672.46 235.708 688.895 258.546C702.738 277.782 705.656 300.936 701.804 323.775C699.077 339.947 693.538 355.147 686.34 369.846C663.899 415.674 625.703 451.977 584.5 481.117C539.821 512.714 489.481 536.876 438.546 556.665C425.928 561.567 412.844 565.079 400.237 569.983L399.646 570.226C388.968 573.706 378.264 577.226 367.651 580.894C360.364 583.412 352.729 585.959 345.75 589.259C338.376 592.354 330.858 595.046 323.565 598.342C312.398 603.39 301.423 609.102 290.421 614.524C287.697 615.866 282.051 619.915 279.102 619.397C281.065 611.72 282.839 604.003 284.953 596.362C286.19 591.888 287.85 587.493 288.978 583C289.857 579.499 290.42 575.92 291.31 572.426C293.5 563.834 296.288 555.247 298.671 546.683C301.026 538.222 303.216 529.72 306.166 521.438C312.032 504.969 319.452 488.969 326.998 473.214C347.166 431.111 370.403 391.464 400.698 355.761C410.547 344.153 420.369 333.271 432.048 323.447Z"/>
	<path fill="#E0E0E0" transform="scale(0.5 0.5)" d="M596.05 291.75C597.421 291.489 597.807 291.485 598.827 292.315C613.081 303.903 628.18 315.786 646.073 321.207L646.657 321.379L646.447 321.783C644.948 324.358 642.548 326.893 640.642 329.209C627.347 345.361 610.234 355.136 592.828 365.996C586.356 370.034 580.266 374.636 573.665 378.474C565.165 383.416 556.435 386.986 547.05 389.797L544.5 390.541C543.502 390.84 542.17 390.968 541.25 391.316C539.989 391.793 539.9 391.807 538.507 391.817L543.75 390.184C554.803 386.335 565.163 383.127 575.158 376.688C581.221 372.782 589.35 367.807 590.948 360.263L591.103 359.5C592.793 351.722 592.551 343.795 592.517 335.883C570.892 345.601 549.619 356.87 529.807 369.926C508.186 384.174 488.145 400.36 468.006 416.577C435.467 442.78 404.242 470.427 373.537 498.75L293.185 581.534L294.273 578.75C296.139 574.999 299.136 571.655 301.552 568.25C304.904 563.526 307.983 558.507 310.815 553.462C316.733 542.916 322.161 531.956 328.532 521.686C335.834 509.916 344.167 498.609 352.126 487.271C381.261 445.767 413.864 407.55 452.551 374.621C458.678 369.405 464.651 364.081 471.061 359.205C494.467 341.401 520.064 326.105 546.371 313.067C562.573 305.037 578.867 297.465 596.05 291.75Z"/>
</svg>
