<?xml version="1.0" encoding="utf-8" ?>
<svg xmlns="http://www.w3.org/2000/svg" xmlns:xlink="http://www.w3.org/1999/xlink" width="512" height="512">
	<path fill="#FE631F" transform="scale(0.5 0.5)" d="M83.5743 964.021C81.5875 964.659 79.5223 965.373 77.6998 966.389C75.4698 967.631 72.8998 969.916 70.25 969.536L69.9575 968.25L84.7367 945.979C84.6145 946.668 84.5519 948.191 84.245 948.75C83.5901 949.942 83.245 948.975 83.245 950.75L82.745 951.25L82.4975 951.875L81.745 953L79.75 956L79.9975 956.375L79.25 957.245L78.745 956.75L78.745 957.75C77.7064 958.442 77.5353 958.407 76.9975 959.497L76.6525 959.952C75.9315 960.912 75.4564 962.005 74.745 963L74.245 963.75C74.4498 964.553 74.3831 964.632 75 965.255L75.7578 965.174C76.8543 965.087 76.4242 965.067 77.5 965.378L78.125 965.111C79.915 964.362 81.5899 963.815 83.4739 963.366L83.5743 964.021Z"/>
	<path fill="#E51246" transform="scale(0.5 0.5)" d="M192.43 742.669L192.281 743.516C191.621 746.507 186.508 749.141 184.998 751.997C184.106 753.682 181.957 754.614 180.998 756.497C180.265 757.935 178.376 758.89 177.498 760.497C176.461 762.393 173.721 763.311 172.998 765.497L172.563 765.859L169.248 769.375L169.875 769.875L171.25 768.755L171.745 769.5L172 769.75L173.252 768.625L172.255 767.5C172.644 765.933 174.113 764.892 175.25 763.755C175.933 764.266 175.992 764.499 176.875 764.503L178 765.5L178.75 764.755L179.5 765.5L180.25 764.755L181 765.5C182.349 764.495 183.099 764.755 184.75 764.755L185.5 765.255C186.112 765.576 187.077 765.57 187.75 765.755C189.592 766.262 190.474 767.25 192.5 767.25L193.75 765.755C194.697 766.662 194.96 766.855 195.498 768.003C195.767 768.577 196.311 769.034 196.748 769.468C197.838 770.554 197.811 771.421 198.245 772.75C198.425 773.302 198.844 773.617 199.245 774L199.269 774.995L200.114 775.189L200.504 775.559C197.517 776.281 188.227 777.663 186.437 779.724C179.945 781.03 173.455 782.487 167 783.97C162.972 784.896 158.413 786.361 154.25 786.082L154.032 785C154.276 784.093 154.488 783.534 155.091 782.792C157.152 780.257 160.198 778.355 162.418 775.849C172.358 764.626 181.759 753.248 192.43 742.669Z"/>
	<path fill="#271403" transform="scale(0.5 0.5)" d="M805.142 255.83L806.307 256.621C812.074 262.22 817.925 267.517 824.398 272.302C827.85 274.854 831.715 277.039 835.039 279.721L834.428 279.615C831.113 278.976 828.117 277.595 825.034 276.262C828.188 278.972 832.727 282.066 834.648 285.794C836.775 287.091 838.978 288.486 841.25 289.516C845.743 291.551 875.122 302.539 876.041 305.25C872.952 308.665 859.522 308.612 854.75 308.87C848.271 309.22 840.49 309.447 834.158 308.043C833.495 306.914 832.704 306.514 831.683 305.775C823.26 299.674 809.507 288.064 807.404 277.476C806.805 274.462 807.045 271.29 806.813 268.232C806.499 264.074 805.806 259.942 805.142 255.83Z"/>
	<path fill="#BDAAA0" transform="scale(0.5 0.5)" d="M806.307 256.621C812.074 262.22 817.925 267.517 824.398 272.302C827.85 274.854 831.715 277.039 835.039 279.721L834.428 279.615C831.113 278.976 828.117 277.595 825.034 276.262C828.188 278.972 832.727 282.066 834.648 285.794C830.819 283.844 827.223 281.255 823.721 278.773C820.516 276.501 809.614 268.257 807.946 265.017C806.921 263.025 806.692 258.905 806.307 256.621Z"/>
	<path fill="#271403" transform="scale(0.5 0.5)" d="M652.265 831.56L652.978 831.574L656.5 838.25L656.755 837.5L657.75 836.255C658.69 836.324 659.094 836.584 659.875 836.003L660.5 836.5L661.25 835.755L661.75 837C662.642 836.703 662.28 836.895 662.875 836.503L663.5 837L664.25 836.255L665.25 837.5C666.142 837.203 665.78 837.395 666.375 837.002L667 837.5L667.75 836.755L668.25 837.5C669.436 837.306 669.446 837.052 670.5 837.755C671.728 837.755 672.435 837.549 673.493 838.24L673.896 837.613L679.745 850.373L718.18 914.876C711.751 919.62 703.866 921.347 696.907 925.168L666.87 861.008L652.265 831.56Z"/>
	<path fill="#512C05" transform="scale(0.5 0.5)" d="M652.265 831.56L652.978 831.574L656.5 838.25L656.755 837.5L657.75 836.255C658.69 836.324 659.094 836.584 659.875 836.003L660.5 836.5L661.25 835.755L661.75 837C662.642 836.703 662.28 836.895 662.875 836.503L663.5 837L664.25 836.255L665.25 837.5C666.142 837.203 665.78 837.395 666.375 837.002L667 837.5L667.75 836.755L668.25 837.5C669.436 837.306 669.446 837.052 670.5 837.755C671.728 837.755 672.435 837.549 673.493 838.24L673.896 837.613L679.745 850.373L678.503 849.997L678.227 849.404C677.802 848.556 678.013 848.858 677.255 848.25L677.25 847.5L676.75 846.745C676.333 846.029 676.413 846.093 676.197 845.375C675.908 844.42 675.45 843.918 674.755 843.25L674.878 842.5L674.255 841.5C672.626 841.5 671.564 842.357 669.745 842.25L669 842.745C667.763 842.748 667.061 842.54 666 843.245C664.845 843.25 665.045 843.208 664 843.745C663.438 844.034 662.731 843.997 662.122 844L661.75 844.745L661 844.75L660.997 845.375L660.745 846.25C660.987 847.09 661.281 847.706 661.622 848.5L661.944 849.305C662.95 851.709 661.511 848.436 662.745 850.5C663.124 851.133 663.346 851.832 663.745 852.5C664.128 853.14 664.337 853.825 664.745 854.5C665.209 855.267 665.502 856.276 665.997 857.125C666.352 857.732 666.469 858.375 666.75 859L667.073 859.524L666.87 861.008L652.265 831.56Z"/>
	<defs>
		<linearGradient id="gradient_0" gradientUnits="userSpaceOnUse" x1="253.75" y1="619.75" x2="244.717" y2="614.71002">
			<stop offset="0" stop-color="#B60162"/>
			<stop offset="1" stop-color="#E30A54"/>
		</linearGradient>
	</defs>
	<path fill="url(#gradient_0)" transform="scale(0.5 0.5)" d="M356.21 410.361L356.668 410.306C357.417 409.695 358.141 409.167 358.677 408.351L363.087 401.519L363.5 402C363.078 402.809 362.776 403.343 362.625 404.252L363.25 403.755L364.745 404.75L364.745 405.75L365.998 406.502L366.25 407.255C369.223 406.687 369.546 404.497 371.315 402.284L371.75 401.755L371.755 401.25C372.763 400.14 373.533 399.656 374.839 398.989C368.901 408.498 362.475 417.754 356.747 427.401C352.991 433.726 350.038 440.485 346.1 446.71C341.999 453.193 338.069 459.95 333.84 466.314C328.842 473.835 323.373 481.22 319.218 489.25C317.948 491.705 316.43 494.465 315.694 497.134C314.582 501.169 314.284 506.021 312.524 509.79C310.991 513.073 308.935 516.136 307.291 519.372C303.465 526.9 299.961 534.592 296.168 542.132C294.563 545.32 292.584 548.312 291.003 551.5C288.702 556.143 286.881 560.985 284.495 565.604C278.946 576.346 271.823 586.048 265.95 596.603C263.328 601.313 261.445 606.475 259.083 611.327C256.98 615.646 254.529 619.943 253.009 624.5L252.665 625.446L252.5 625.994C252.171 626.696 252.155 626.314 251.648 627.003L250.793 628.582C247.234 633.338 242.444 634.638 237.137 636.707L356.21 410.361Z"/>
	<path fill="#FE6921" transform="scale(0.5 0.5)" d="M892.852 68.5179L893.315 68.4749C894.378 68.3628 895.629 68.248 896.531 67.6274C899.191 65.798 906.646 54.1148 909.513 56.2085C911.903 57.9531 913.561 61.4672 915.049 64.0135C921.27 74.6607 925.263 86.4469 928.793 98.2057C933.51 113.922 937.163 129.555 938.882 145.905C939.615 152.876 940.274 160.016 939.728 167.02C936.156 165.307 931.869 162.676 927.944 162.141L927.544 162.445C927.385 162.131 927.224 161.776 926.996 161.505C925.236 159.426 920.208 158.794 917.603 158.241C917.762 157.712 917.807 157.635 917.869 157C918.089 154.759 917.512 152.442 917.228 150.229C916.848 147.264 916.702 144.232 916.481 141.25C915.961 134.233 914.931 127.368 913.877 120.418C912.281 109.903 910.281 99.1182 905.482 89.5C903.229 84.9854 900.016 81.3418 897.026 77.3412C895.454 75.2389 894.197 72.855 892.551 70.8337C891.289 69.2841 890.78 69.5314 888.918 69.3213C890.228 68.6408 891.415 68.6123 892.852 68.5179Z"/>
	<defs>
		<linearGradient id="gradient_1" gradientUnits="userSpaceOnUse" x1="654.75" y1="599.75" x2="677.08099" y2="660.914">
			<stop offset="0" stop-color="#130000"/>
			<stop offset="1" stop-color="#573402"/>
		</linearGradient>
	</defs>
	<path fill="url(#gradient_1)" transform="scale(0.5 0.5)" d="M621.462 620.002C622.966 618.638 626.258 617.997 628.182 617.197C631.398 615.861 634.484 614.354 637.42 612.476C640.72 610.364 643.997 608.017 646.911 605.392C650.082 602.536 653.16 598.681 657.025 596.811C656.945 598.94 657.063 600.443 657.754 602.453L672.954 657.959L671.695 658.75L671.62 659.18C671.27 660.955 670.69 661.667 669.407 662.884L668.988 663.29C667.125 665.024 664.501 665.905 662.179 666.863C655.505 669.614 649.687 671.474 642.557 672.75C641.332 672.969 640.185 673.521 638.927 673.45L638.407 673.377C639.597 672.757 640.674 672.245 641.607 671.25C640.347 665.247 636.84 659.851 634.392 654.279C631.697 648.142 629.271 641.79 626.809 635.552C625.703 632.749 624.673 629.916 623.85 627.016C623.16 624.581 622.794 622.192 621.462 620.002Z"/>
	<path fill="#D10B56" transform="scale(0.5 0.5)" d="M229.347 699.779C226.101 700.245 222.863 700.616 219.739 701.656C214.848 703.284 210.451 706.066 205.737 708.1C200.598 710.317 195.359 712.117 190.264 714.483C193.746 709.667 198.087 705.383 201.893 700.811C219.815 679.277 238.459 659.582 259.902 641.528L259.673 641.902C257.701 645.072 255.227 647.064 252.498 649.497L251.5 650.245C250.475 651.01 249.637 651.841 248.75 652.755C249.69 652.824 250.094 653.084 250.875 652.503L251.5 653L252.25 652.255L253 653L253.75 652.255L254.5 653L255.5 652.255L256.255 652.75L257 652.255C257.687 651.962 259.12 652.121 259.875 652.125L262.141 652.086C263.007 652.086 263.403 652.326 264.125 652.753L265 652.255C266.25 652.252 266.514 652.466 267.5 651.755C268.263 651.205 269.005 651.211 269.875 651.375L270.375 651.003L271 651.5L272.25 652L272.75 651.255L274 652.255L274.478 652.129C275.095 651.973 274.842 652.003 275.375 652.003L276 652.5C276.587 652.892 277.599 653.046 278.255 652.75L279 652.255C279.824 653.073 279.432 652.757 280.498 653.003L281.375 653.375L281.875 653.125C283.054 653.207 283.49 653.083 284.5 653.75L285 653.75C285.555 654.305 285.686 654.75 286.5 654.75L287 655.25L288 654.5L289 654.75L289.25 654.255L290 654.755C290.895 654.833 291.128 655.059 291.875 654.503L292.5 655L293.25 654.255L293.75 655L294.75 654.755L295.281 655.208C296.018 655.798 296.664 656.09 297.498 656.503L298.217 656.879C299.444 657.493 300.739 658.074 302.125 658.125C303.054 658.789 303.117 658.802 304.289 658.667C305.054 658.578 305.297 658.798 305.998 659.003L307.25 659.255C308.742 659.548 309.863 659.654 311 660.75L311.375 660.58L312.75 661.5L313.75 660.91L314.25 662L314.875 661.58L315.25 662.5L315.875 662.08L316.344 662.493C317.032 663.056 317.702 663.377 318.5 663.75L318.875 664.375L319.375 664.08C320.28 664.623 320.668 665.149 321.25 666L322.125 666.375C323.065 666.992 322.853 667.382 324.09 667.75L324.25 668.5L324.59 669.25L325.25 670.755L327.252 671.125L325.25 671.755L325.028 672.265C326.394 672.304 326.991 672.261 328.25 671.794C329.448 671.349 330.976 671.192 332.25 670.825C334.717 670.116 339.302 668.177 341.751 668.939C331.529 673.191 319.665 675.046 308.907 677.707C302.833 679.21 296.833 681.015 290.75 682.491C281.374 684.765 271.799 686.601 262.5 689.136C256.946 690.65 251.496 692.519 245.962 694.103C241.846 695.282 232.039 696.494 229.347 699.779Z"/>
	<defs>
		<linearGradient id="gradient_2" gradientUnits="userSpaceOnUse" x1="613.75" y1="733.25" x2="636.41602" y2="606.71002">
			<stop offset="0" stop-color="#1C0800"/>
			<stop offset="1" stop-color="#311100"/>
		</linearGradient>
	</defs>
	<path fill="url(#gradient_2)" transform="scale(0.5 0.5)" d="M797.155 633.875L814.409 671.087C805.845 673.366 797.782 676.62 789.473 679.637C779.882 683.119 770.138 686.342 760.425 689.472C728.319 699.82 695.766 708.76 663.613 718.993C655.545 721.56 647.451 724.192 639.484 727.056C633.319 729.273 625.977 732.845 619.557 733.762L618.977 733.671C618.076 733.552 617.272 733.467 616.392 733.208L615.75 733.001C615.115 733.216 614.803 733.297 614.124 733.16L613.497 733.003C612.579 732.801 612.237 732.611 611.497 732.003L611.245 731.25C610.459 729.973 608.637 728.53 607.25 728.255L607.245 726.75L608.75 726.245C609.093 725.692 609.389 725.072 609.96 724.718L791.839 635.315C793.703 634.461 795.1 634.057 797.155 633.875Z"/>
	<path fill="#F6232D" transform="scale(0.5 0.5)" d="M83.4739 963.366C83.2587 962.774 83.218 962.948 83.5 962.255C83.9744 961.09 84.1384 960.326 83.8827 959.047C83.7107 958.187 83.75 958.822 83.75 958L85.245 958.25C85.2649 959.223 85.2501 960.145 85.1225 961.109L85 962C85.9556 963.338 87.0376 962.788 88.375 964.125C89.9683 964.023 90.7519 963.464 92 962.5C92.6029 962.035 93.0595 961.717 93.75 961.37L95.0938 960.642L95.5 960.378L96.25 960.5C97.207 959.709 97.8876 959.43 99.125 959.309C99.7621 959.246 100.381 959.177 101 959L101.755 958.75C102.54 958.549 102.889 958.574 103.625 958.135C104.443 957.648 104.025 957.814 104.922 957.543L105.5 957.378L106.002 957.003L106.75 957C107.743 955.852 110.33 954.517 111.755 953.75L112.5 953.378L113.125 953.003C114.991 952.321 117.243 950.376 119.002 950.003L119.75 950L120.25 949.255L121.5 949C124.228 947.611 127.663 945.3 130.5 944.378L131.25 944.5C132.028 944.011 133.05 943.73 133.75 943.255L134.25 942.755C135.711 942.549 136.746 942.379 138 941.5L138.625 941.003L139.25 941C140.626 940.217 141.641 939.571 143.245 939.75L142.255 940.75C142.936 941.094 142.565 941.001 143.375 940.997L145 940.122L146 939.745L146.625 939.125L147.5 939.245C148.18 938.808 148.734 938.493 149.508 938.235C150.158 938.018 150.74 937.719 151.375 937.497C152.002 937.279 152.938 937.133 153.5 936.745L154 936.25C155.812 935.825 157.33 934.506 159 934.25L159.75 934.245C160.864 933.493 161.868 933.191 163 932.622C163.902 932.169 163.061 932.218 164.25 932C165.35 931.798 164.426 932.336 165.5 931.622L166 931.25C166.764 931.153 167.326 931.111 168 930.745L169 930.122L169.875 929.997C170.98 929.629 172.111 929.132 173.263 928.748L174.593 928.34L175 928.245C175.527 927.724 175.458 927.645 176.25 927.5L176.875 927.497C177.666 927.048 178.138 926.843 179 926.622L179.998 926.375C181.477 925.77 182.63 925.805 184 925.122L184.75 925.245L185.125 924.625L186 924.745L186.75 924L188.25 924.245L188.748 923.625L189.75 923.5L191 923.122C192.408 923.07 193.148 922.686 194.5 922.122L195.25 922.245C196.474 921.202 199.362 920.785 201 920.245C201.293 920.148 202.186 919.954 202.5 919.745L203 919.25C204.149 919.244 203.786 919.383 204.717 918.918C207.158 917.7 209.641 915.945 212.391 915.676L213.989 915.497L213.991 915L213.835 914.057L215.031 913.418C215.168 913.951 215.186 914.53 215.443 915.015C215.822 915.73 217.136 915.696 217.156 916.729C217.243 921.366 205.543 942.473 202.57 947.539C197.161 956.756 191.615 965.85 186.779 975.397C184.088 980.711 182.196 987.053 178.876 991.974C174.092 992.388 169.276 991.778 164.511 992.202C157.246 992.849 150.02 994.526 142.755 995.357C125.453 997.337 108.189 998.956 90.9321 1001.3C85.6143 1002.02 80.2605 1001.64 74.9491 1002.57C69.8075 1003.46 62.5006 1006.63 57.5137 1005.75C57.8939 1003.49 64.1974 998.647 66.2763 996.761C73.0872 990.584 79.5941 983.935 86.6557 978.049C89.2388 975.895 92.101 974.082 94.7602 972.022C97.1447 970.175 104.817 964.065 105.154 961.297C103.409 961.597 102.409 962.056 100.947 963.036C97.8413 965.118 90.3829 970.015 86.75 969.619L86.11 969.459C86.1155 968.158 86.2274 967.298 86.6947 966.082L86.8837 964.743L86.25 963.936L83.5743 964.021L83.4739 963.366Z"/>
	<path fill="#FD4C5D" transform="scale(0.5 0.5)" d="M86.6947 966.082C89.6119 966.857 89.9844 964.86 92.2559 963.353C94.3296 961.977 96.5868 960.767 99.0481 960.25C100.448 959.956 101.89 959.929 103.25 959.437C105.246 958.714 107.198 957.613 109.079 956.63C108.447 958.058 107.435 958.953 106.16 959.797C105.286 960.375 105.456 960.36 105.154 961.297C103.409 961.597 102.409 962.056 100.947 963.036C97.8413 965.118 90.3829 970.015 86.75 969.619L86.11 969.459C86.1155 968.158 86.2274 967.298 86.6947 966.082Z"/>
	<path transform="scale(0.5 0.5)" d="M808.068 235.119C820.717 229.783 829.382 219.319 836.822 208.259C838.991 205.034 841.378 201.838 842.899 198.243L843.127 197.673C846.872 202.313 851.619 207.014 856.881 209.909L857.433 210.181C861.994 212.949 865.953 217.267 869.789 220.964C875.615 226.578 881.653 232.517 886.279 239.178C888.657 242.602 890.417 246.461 892.31 250.165C899.106 263.453 904.704 278.246 908.158 292.772C909.348 297.773 910.282 302.637 910.931 307.74C911.563 312.71 911.531 317.942 913.318 322.648L914.432 325.69C909.886 319.021 904.549 316.219 897.948 311.863C893.113 308.673 888.308 305.302 883.002 302.931C880.343 301.742 877.524 301.046 874.811 300.01C869.403 297.944 863.93 295.618 858.729 293.093C850.589 289.141 842.936 284.143 835.039 279.721C831.715 277.039 827.85 274.854 824.398 272.302C817.925 267.517 812.074 262.22 806.307 256.621L805.142 255.83C804.204 251.502 803.805 247.7 804.27 243.277C804.65 239.672 805.138 237.489 808.068 235.119Z"/>
	<path transform="scale(0.5 0.5)" d="M924.319 180.063C925.947 180.364 927.59 180.66 929.111 181.341C938.675 185.624 944.557 198.439 947.789 207.772C963.375 252.785 953.554 300.031 933.168 341.697C929.785 348.611 925.003 354.286 920.68 360.601L920.747 359.844C921.389 352.212 920.875 344.428 921.039 336.767C921.251 326.958 921.923 317.054 921.385 307.25C919.502 272.894 908.425 236.614 885.746 210.233L875.547 199.787L875.858 198.92C880.199 196.204 884.314 193.175 888.795 190.676C900.25 184.286 911.29 180.912 924.319 180.063Z"/>
	<path fill="#F6232D" transform="scale(0.5 0.5)" d="M618.634 120.7L576.75 139.95L575.75 139.42L575.833 138.389C581.764 132.581 586.691 126.14 592.209 119.983C604.477 106.295 616.708 92.7437 629.628 79.6514C637.421 71.7541 645.347 63.7436 654.106 56.9043C667.655 46.3248 682.719 37.4845 698.307 30.2933C706.621 26.4579 715.121 22.7524 724 20.4188C740.182 16.1659 757.01 15.5581 773.641 15.4873C790.666 15.4149 807.743 16.1103 824.635 18.2332L824.918 21.3755C821.253 26.9106 817.8 32.6024 814.714 38.4837C811.81 44.0168 809.783 51.4415 805.534 55.9896C806.249 52.1821 809.038 44.7204 806.937 41.25C805.376 38.6706 802.501 37.8958 799.704 37.355C795.1 36.4649 789.175 35.993 784.571 36.9256C777.912 38.2744 770.978 43.433 765.385 47.128C762.385 49.1096 759.139 50.8847 756.25 53.0026C753.505 55.0147 751.713 58.4803 749.662 61.1595C749.497 61.3748 748.222 63.0247 748.02 63.0991C747.716 63.2111 747.377 63.0161 747.056 62.9746C745.111 59.6723 744.267 55.5788 743.018 51.9557C741.709 48.1565 739.96 44.425 738.161 40.8336C737.299 39.1118 735.996 36.256 734.25 35.4628L732.826 36.5029C722.431 42.3521 714.124 49.883 706.405 58.9016C702.96 62.9259 699.147 67.4364 697.707 72.6264C697.348 73.9207 697.006 75.1963 696.928 76.5417C696.704 81.302 697.93 85.3106 698.244 89.9574C695.554 87.3229 694.832 84.1202 693.078 80.915L692.277 81.0123C692.564 82.11 692.35 81.6201 692.878 82.5C692.299 83.4291 692.256 83.2968 692.25 84.5C691.356 85.3981 691.257 85.1346 691.25 86.5L690.755 87L690.241 87.6863C686.63 92.3993 677.992 95.8067 672.958 99.2362C669.954 101.283 667.22 103.799 664.18 105.76C662.295 106.976 659.975 107.425 658.096 108.567C654.126 109.161 650.41 110.655 646.5 111.475L644.142 111.868L636.251 114.315C630.42 116.264 624.156 117.995 618.634 120.7Z"/>
	<path fill="#FE6921" transform="scale(0.5 0.5)" d="M644.142 111.868C642.663 111.585 642.378 111.456 641 112C640.63 111.275 640.47 110.53 640.245 109.75L640.745 109.25C639.978 108.483 639.589 107.776 639.245 106.75C640.193 105.802 639.547 102.622 639.761 101.127C640.967 92.7016 668.697 72.1257 676.166 67.311C677.56 66.4125 679.075 65.4934 680.75 66.0576C684.57 67.3445 691.228 77.2687 693.078 80.915L692.277 81.0123C692.564 82.11 692.35 81.6201 692.878 82.5C692.299 83.4291 692.256 83.2968 692.25 84.5C691.356 85.3981 691.257 85.1346 691.25 86.5L690.755 87L690.241 87.6863C686.63 92.3993 677.992 95.8067 672.958 99.2362C669.954 101.283 667.22 103.799 664.18 105.76C662.295 106.976 659.975 107.425 658.096 108.567C654.126 109.161 650.41 110.655 646.5 111.475L644.142 111.868Z"/>
	<path fill="#E51246" transform="scale(0.5 0.5)" d="M148.169 863.374C150.494 863.212 152.573 860.254 154.125 858.625L155.245 857.5C156.203 856.292 157.138 855.839 158.641 855.457L159.5 855.245L160 854.75L161.375 854.375L162.25 854L162.998 853.997C163.626 853.528 164.079 853.273 164.855 853.116C165.323 853.022 166.071 852.97 166.5 852.745L167.245 852.25L167.75 852.245L168.125 851.625L169 851.745L169.625 851.125L170.5 851.245C171.907 850.33 173.226 849.698 174.883 849.367C176.354 849.073 177.975 848.103 179.367 848.1L180 848.122C180.561 847.704 181.776 847.145 182.5 847.122L183.25 847.245L183.748 846.625L185 846.745L185.5 846.25L186.25 846C187.131 845.661 187.817 845.425 188.75 845.245C189.813 845.04 190.55 844.485 191.5 844.25C192.505 844.001 193.507 844.213 194.5 843.622L195 843.25L195.75 843L196.625 842.625C199.212 841.886 201.816 841.343 204.375 840.375L205.25 840C205.915 839.845 206.31 840.035 207 839.745C208.472 839.125 209.908 838.584 211.391 837.997L213.998 836.997L215.5 836.25C217.617 835.756 215.123 836.704 216.781 836.041L219.75 835C220.357 834.733 220.859 834.438 221.5 834.25C222.399 833.986 223.629 833.364 224.5 833.25C225.314 833.143 225.754 832.887 226.5 832.75L227.25 832.745L228.248 832.125L229.25 832C230.104 831.773 230.58 831.468 231.498 831.375C232.307 831.293 232.804 831.405 233.524 830.957C235.687 829.61 239.559 828.482 242.046 827.855L242.5 827.745L243 827.25L244 827.245L244.625 826.625C246.359 826.328 247.906 825.765 249.593 825.34L250 825.245L250.5 824.75L251.5 824.622C254.528 823.755 250.401 824.611 252.855 824.116C253.76 823.934 254.36 823.823 255.202 823.402L257.745 822.25C258.415 822.081 258.812 822.079 259.5 821.745C260.321 821.346 260.622 821.103 261.577 821.024C262.699 820.93 262.375 820.478 263.164 820.25C263.999 820.009 266.008 820.266 266.941 820.272C261.745 840.951 249.731 860.244 239.797 878.949C235.462 887.11 231.57 896.368 226.131 903.839C223.77 907.082 221.186 908.825 218.365 911.5L219.313 913L218.75 913.815C217.496 913.552 216.292 913.117 215.031 913.418L213.835 914.057L213.991 915L213.989 915.497L212.391 915.676C209.641 915.945 207.158 917.7 204.717 918.918C203.786 919.383 204.149 919.244 203 919.25L202.5 919.745C202.186 919.954 201.293 920.148 201 920.245C199.362 920.785 196.474 921.202 195.25 922.245L194.5 922.122C193.148 922.686 192.408 923.07 191 923.122L189.75 923.5L188.748 923.625L188.25 924.245L186.75 924L186 924.745L185.125 924.625L184.75 925.245L184 925.122C182.63 925.805 181.477 925.77 179.998 926.375L179 926.622C178.138 926.843 177.666 927.048 176.875 927.497L176.25 927.5C175.458 927.645 175.527 927.724 175 928.245L174.593 928.34L173.263 928.748C172.111 929.132 170.98 929.629 169.875 929.997L169 930.122L168 930.745C167.326 931.111 166.764 931.153 166 931.25L165.5 931.622C164.426 932.336 165.35 931.798 164.25 932C163.061 932.218 163.902 932.169 163 932.622C161.868 933.191 160.864 933.493 159.75 934.245L159 934.25C157.33 934.506 155.812 935.825 154 936.25L153.5 936.745C152.938 937.133 152.002 937.279 151.375 937.497C150.74 937.719 150.158 938.018 149.508 938.235C148.734 938.493 148.18 938.808 147.5 939.245L146.625 939.125L146 939.745L145 940.122L143.375 940.997C142.565 941.001 142.936 941.094 142.255 940.75L143.245 939.75C141.641 939.571 140.626 940.217 139.25 941L138.625 941.003L138 941.5C136.746 942.379 135.711 942.549 134.25 942.755L133.75 943.255C133.05 943.73 132.028 944.011 131.25 944.5L130.5 944.378C127.663 945.3 124.228 947.611 121.5 949L120.25 949.255L119.75 950L119.002 950.003C117.243 950.376 114.991 952.321 113.125 953.003L112.5 953.378L111.755 953.75C110.33 954.517 107.743 955.852 106.75 957L106.002 957.003L105.5 957.378L104.922 957.543C104.025 957.814 104.443 957.648 103.625 958.135C102.889 958.574 102.54 958.549 101.755 958.75L101 959C100.381 959.177 99.7621 959.246 99.125 959.309C97.8876 959.43 97.207 959.709 96.25 960.5L95.5 960.378L95.0938 960.642L93.75 961.37C93.0595 961.717 92.6029 962.035 92 962.5C90.7519 963.464 89.9683 964.023 88.375 964.125C87.0376 962.788 85.9556 963.338 85 962L85.1225 961.109C85.2501 960.145 85.2649 959.223 85.245 958.25L83.75 958C83.75 958.822 83.7107 958.187 83.8827 959.047C84.1384 960.326 83.9744 961.09 83.5 962.255C83.218 962.948 83.2587 962.774 83.4739 963.366C81.5899 963.815 79.915 964.362 78.125 965.111L77.5 965.378C76.4242 965.067 76.8543 965.087 75.7578 965.174L75 965.255C74.3831 964.632 74.4498 964.553 74.245 963.75L74.745 963C75.4564 962.005 75.9315 960.912 76.6525 959.952L76.9975 959.497C77.5353 958.407 77.7064 958.442 78.745 957.75L78.745 956.75L79.25 957.245L79.9975 956.375L79.75 956L81.745 953L82.4975 951.875L82.745 951.25L83.245 950.75C83.245 948.975 83.5901 949.942 84.245 948.75C84.5519 948.191 84.6145 946.668 84.7367 945.979C84.8864 945.026 86.9299 942.605 87.565 941.729C90.8583 937.186 94.171 932.658 97.5327 928.166C101.11 923.386 104.398 918.396 108.013 913.646C114.574 905.024 121.48 896.657 128.115 888.098C134.625 879.7 140.611 870.924 148.169 863.374Z"/>
	<path fill="#D10B56" transform="scale(0.5 0.5)" d="M204.918 774.359L205.03 774.062C213.05 770.09 220.634 768.721 229.02 766.102C238.275 763.213 247.314 760.048 256.25 756.289C262.533 753.647 268.681 751.517 275.203 749.537C277.595 748.811 280.129 748.525 282.47 747.732C284.407 747.076 286.482 746.723 288.5 746.397C299.276 744.661 309.455 740.601 320.002 738.055L321.255 737.75L330.002 735.05C330.85 734.819 331.647 734.717 332.502 734.543C337.553 733.514 344.255 734.256 349.5 734.255L350.25 733.755C352.185 733.71 353.28 734.086 355.042 734.81C354.691 735.377 354.622 735.651 354.039 735.984C353.063 736.541 352.388 737.249 351.75 738.16C350.677 738.574 351.181 738.56 350.25 738.371C350.042 738.457 349.832 738.537 349.626 738.628C347.712 739.483 345.731 741.827 344.174 743.308C337.218 749.929 331.261 757.073 324.758 764.077C317.872 771.494 310.711 778.648 303.815 786.063C295.666 794.825 286.249 803.101 276.984 810.658C274.807 812.434 268.951 814.966 267.992 817.25L266.941 820.272C266.008 820.266 263.999 820.009 263.164 820.25C262.375 820.478 262.699 820.93 261.577 821.024C260.622 821.103 260.321 821.346 259.5 821.745C258.812 822.079 258.415 822.081 257.745 822.25L255.202 823.402C254.36 823.823 253.76 823.934 252.855 824.116C250.401 824.611 254.528 823.755 251.5 824.622L250.5 824.75L250 825.245L249.593 825.34C247.906 825.765 246.359 826.328 244.625 826.625L244 827.245L243 827.25L242.5 827.745L242.046 827.855C239.559 828.482 235.687 829.61 233.524 830.957C232.804 831.405 232.307 831.293 231.498 831.375C230.58 831.468 230.104 831.773 229.25 832L228.248 832.125L227.25 832.745L226.5 832.75C225.754 832.887 225.314 833.143 224.5 833.25C223.629 833.364 222.399 833.986 221.5 834.25C220.859 834.438 220.357 834.733 219.75 835L216.781 836.041C215.123 836.704 217.617 835.756 215.5 836.25L213.998 836.997L211.391 837.997C209.908 838.584 208.472 839.125 207 839.745C206.31 840.035 205.915 839.845 205.25 840L204.375 840.375C201.816 841.343 199.212 841.886 196.625 842.625L195.75 843L195 843.25L194.5 843.622C193.507 844.213 192.505 844.001 191.5 844.25C190.55 844.485 189.813 845.04 188.75 845.245C187.817 845.425 187.131 845.661 186.25 846L185.5 846.25L185 846.745L183.748 846.625L183.25 847.245L182.5 847.122C181.776 847.145 180.561 847.704 180 848.122L179.367 848.1C177.975 848.103 176.354 849.073 174.883 849.367C173.226 849.698 171.907 850.33 170.5 851.245L169.625 851.125L169 851.745L168.125 851.625L167.75 852.245L167.245 852.25L166.5 852.745C166.071 852.97 165.323 853.022 164.855 853.116C164.079 853.273 163.626 853.528 162.998 853.997L162.25 854L161.375 854.375L160 854.75L159.5 855.245L158.641 855.457C157.138 855.839 156.203 856.292 155.245 857.5L154.125 858.625C152.573 860.254 150.494 863.212 148.169 863.374C149.799 861.037 152.343 858.897 154.371 856.863L108.16 867.909C115.033 860.331 120.724 852.001 127.41 844.307C134.445 836.212 142.309 828.888 149.321 820.761C153.758 815.617 158.267 810.552 162.765 805.46C166.201 801.57 169.445 797.567 173.365 794.15C173.555 793.504 176.026 791.337 176.608 790.708C179.731 787.336 182.134 783.633 185.953 780.962L186.546 780.556L186.437 779.724C188.227 777.663 197.517 776.281 200.504 775.559L204.918 774.359Z"/>
	<path fill="#E10C87" transform="scale(0.5 0.5)" d="M204.918 774.359L205.368 774.866C204.114 775.639 203.123 775.634 201.75 776L200.748 776.125C199.777 776.351 199.202 777.006 198.625 777.753L199.245 778.5C198.431 779.406 196.986 780.557 195.75 780.745L194.245 780.75L193.5 781.245C192.779 781.246 190.823 781.012 190.245 781.25C189.27 781.652 189.955 782.24 188.5 782.25L188.039 782.732C187.629 783.139 187.161 783.64 186.502 783.497L185 783C183.395 784.393 181.675 785.82 180.625 787.625C180.115 788.502 179.11 789.338 178.5 790.25L173.89 794.783L173.365 794.15C173.555 793.504 176.026 791.337 176.608 790.708C179.731 787.336 182.134 783.633 185.953 780.962L186.546 780.556L186.437 779.724C188.227 777.663 197.517 776.281 200.504 775.559L204.918 774.359Z"/>
	<path fill="#FE6921" transform="scale(0.5 0.5)" d="M356.21 410.361C360.463 400.856 366.311 392.171 370.936 382.875C373.714 377.292 376.179 371.521 379.071 366C385.041 354.605 391.864 343.693 398.25 332.537C408.601 314.455 419.078 296.405 431.007 279.291C460.95 236.331 499.596 198.706 544.89 172.165C553.999 166.827 563.716 160.395 573.417 156.266L573.424 156.978C570.85 158.902 567.131 160.838 564.18 162.18C561.79 163.266 558.645 164.976 556.5 166.5C555.276 167.37 554.044 168.059 552.68 168.68C549.652 170.056 546.835 172.291 543.875 173.875L542 175C541.143 175.513 540.318 175.919 539.5 176.5L535.5 179L524.242 186.492L522.125 188.125L517 191.75L516.997 192.498C516.326 192.498 516.62 192.613 516.125 192.125L515.5 193L516.375 193.875C517.518 192.528 517.606 192.115 519.5 191.877C520.074 191.304 519.798 191.659 520.25 190.755L521.375 190.875L521.503 190.002C522.083 190.002 521.775 189.928 522.375 190.375L523.25 189.255L524 189.25L524.5 188.877L525.125 188.502L525.625 188.875C526.39 188.114 526.375 187.758 527.5 187.75L528.25 186.755L528.578 187.112C529.125 187.655 528.912 187.47 529.745 187.75L529 188.245C528.424 188.663 527.659 189.506 527 189.745C526.769 189.829 525.854 189.657 525.745 189.75C525.546 189.921 525.544 190.239 525.497 190.498L525.497 191.125C526.626 191.139 527.415 191.096 528.5 190.734C529.623 190.36 528.888 190.521 530.125 190.625C531.932 190.776 533.199 190.29 534.875 191.252L535.875 191.125C537.114 190.999 537.767 191.223 538.875 191.752L539.875 191.625C540.943 192.218 540.658 192.124 541.875 192.125C542.748 192.126 543.348 192.785 543.875 193.375L544.5 192.755C545.209 193.311 545.876 193.848 546.5 194.5L547.25 193.755L547.75 195L548.25 194.255L548.75 195.5L549.25 194.755L549.75 196L550.25 195.255L550.875 195.875L551.25 195.255L551.622 196L551.875 196.375L552.375 196.002L552.875 196.375L553.25 195.755L554 196.255C554.63 196.643 554.844 196.611 555.5 196.75C556.246 196.908 557.032 197.648 557.75 197.755C558.666 197.892 558.538 197.501 559.586 197.939C561.514 198.745 559.396 197.947 561 198.25C562.159 198.469 562.676 199.259 564 199.25L564.5 199.75C566.621 199.378 568.775 197.158 571 198.255L571.483 198.363C572.176 198.535 572.45 198.821 573 199.255C574.064 200.093 575.127 200.84 576.375 201.375L576.75 200.755L577.122 201.5L577.375 201.875L577.75 201.255L578.122 202L578.375 202.375L578.75 201.755L579.122 202.5L579.375 202.875L579.75 202.255L580.122 203L580.375 203.375L580.875 203.002L581.5 203.5L582.25 202.755L582.875 203.375L583.25 202.755L583.622 203.5C583.943 204.088 584.309 204.504 584.745 205C583.217 206.975 581.087 208.413 579.625 210.375C582.378 209.167 583.809 205.876 586.503 204.502L589.75 201.255L590.375 201.875L590.617 201.383C591.454 199.876 592.932 198.894 593.875 197.375L594.938 196.32C595.657 195.632 596.145 195.251 596.375 194.252L597.25 193.5L597.522 194C589.25 204.65 579.33 214.527 568.75 222.892C562.64 227.723 555.775 232.181 550.247 237.625L543.5 242.745L541.997 243.498L540.75 244.255L541.245 245L541.25 248.255L541.997 248.502C541.997 249.083 542.072 248.775 541.625 249.375L542.245 250L541.5 250.75L541.638 251.453C541.817 252.55 541.793 251.956 541.497 252.998C541.299 253.698 541.245 254.275 541.25 255C542.316 255.362 543.487 255.022 544.503 254.502C544.86 254.32 545.194 254.014 545.5 253.755L546.5 253.75L546.961 253.268C547.736 252.497 548.02 252.636 549 252.255L549.728 251.879C550.518 251.483 550.942 251.465 551.75 251.255L552.503 251.002C554.575 250.433 556.419 249.508 558.503 249.064C560.056 248.733 561.343 248.246 562.967 248.389L550.855 253.182C548.186 254.028 545.591 255.086 543.153 256.47C538.447 259.141 534.278 262.682 529.673 265.534C525.304 268.24 520.77 270.725 516.321 273.299C513.947 274.672 511.155 275.973 509.119 277.807L508.918 277.044C508.731 276.31 508.678 275.77 508.613 274.996C508.464 273.223 507.553 271.674 507.02 270C506.211 267.463 505.821 264.734 505.491 262.102C488.226 269.416 481.907 287.014 470.585 300.348C465.105 306.801 458.875 312.437 452.932 318.433C449.516 321.88 446.509 325.707 443.119 329.176C436.602 335.845 429.738 342.198 423.237 348.849C418.487 353.709 414.053 359.007 409.088 363.631C401.758 370.456 393.457 376.001 386.484 383.31C383.309 386.639 380.763 390.429 378.173 394.212C377.747 394.834 375.276 398.861 374.839 398.989C373.533 399.656 372.763 400.14 371.755 401.25L371.75 401.755L371.315 402.284C369.546 404.497 369.223 406.687 366.25 407.255L365.998 406.502L364.745 405.75L364.745 404.75L363.25 403.755L362.625 404.252C362.776 403.343 363.078 402.809 363.5 402L363.087 401.519L358.677 408.351C358.141 409.167 357.417 409.695 356.668 410.306L356.21 410.361Z"/>
	<defs>
		<linearGradient id="gradient_3" gradientUnits="userSpaceOnUse" x1="199.25" y1="774.75" x2="201.41901" y2="652.22198">
			<stop offset="0" stop-color="#BD0342"/>
			<stop offset="1" stop-color="#EE127F"/>
		</linearGradient>
	</defs>
	<path fill="url(#gradient_3)" transform="scale(0.5 0.5)" d="M341.751 668.939C346.588 668.26 351.182 666.355 356.056 665.866C357.753 665.696 359.278 665.123 360.998 664.925C363.558 664.631 365.992 663.806 368.5 663.245C371.97 662.468 375.57 662.101 379 661.177C383.211 660.044 387.289 658.465 391.5 657.31C392.183 657.123 392.797 656.97 393.5 656.864C395.232 656.602 397.993 656.126 399.5 655.255C400.246 654.823 400.687 654.432 401.532 654.154L402.358 653.889C400.915 658.125 399.486 662.355 397.522 666.386C395.022 671.521 391.9 676.316 389.473 681.5C385.442 690.114 382.064 699.162 377.742 707.626C375.654 711.715 372.92 715.471 371.02 719.655C370.121 721.636 368.203 722.557 367.187 724.25C367.149 724.314 366.99 725.416 366.948 725.5C365.927 727.552 361.765 731.029 359.796 732.173C358.883 732.703 355.285 733.948 355.042 734.81C353.28 734.086 352.185 733.71 350.25 733.755L349.5 734.255C344.255 734.256 337.553 733.514 332.502 734.543C331.647 734.717 330.85 734.819 330.002 735.05L321.255 737.75L320.002 738.055C309.455 740.601 299.276 744.661 288.5 746.397C286.482 746.723 284.407 747.076 282.47 747.732C280.129 748.525 277.595 748.811 275.203 749.537C268.681 751.517 262.533 753.647 256.25 756.289C247.314 760.048 238.275 763.213 229.02 766.102C220.634 768.721 213.05 770.09 205.03 774.062L204.918 774.359L200.504 775.559L200.114 775.189L199.269 774.995L199.245 774C198.844 773.617 198.425 773.302 198.245 772.75C197.811 771.421 197.838 770.554 196.748 769.468C196.311 769.034 195.767 768.577 195.498 768.003C194.96 766.855 194.697 766.662 193.75 765.755L192.5 767.25C190.474 767.25 189.592 766.262 187.75 765.755C187.077 765.57 186.112 765.576 185.5 765.255L184.75 764.755C183.099 764.755 182.349 764.495 181 765.5L180.25 764.755L179.5 765.5L178.75 764.755L178 765.5L176.875 764.503C175.992 764.499 175.933 764.266 175.25 763.755C174.113 764.892 172.644 765.933 172.255 767.5L173.252 768.625L172 769.75L171.745 769.5L171.25 768.755L169.875 769.875L169.248 769.375L172.563 765.859L172.998 765.497C173.721 763.311 176.461 762.393 177.498 760.497C178.376 758.89 180.265 757.935 180.998 756.497C181.957 754.614 184.106 753.682 184.998 751.997C186.508 749.141 191.621 746.507 192.281 743.516L192.43 742.669C192.735 741.739 194.511 740.182 195.249 739.333C199.394 734.567 203.82 730.041 207.936 725.258C210.133 722.705 211.955 719.861 214.081 717.25C218.939 711.285 224.197 705.493 229.347 699.779C232.039 696.494 241.846 695.282 245.962 694.103C251.496 692.519 256.946 690.65 262.5 689.136C271.799 686.601 281.374 684.765 290.75 682.491C296.833 681.015 302.833 679.21 308.907 677.707C319.665 675.046 331.529 673.191 341.751 668.939Z"/>
	<defs>
		<linearGradient id="gradient_4" gradientUnits="userSpaceOnUse" x1="793.75" y1="990.25" x2="968.466" y2="731.09698">
			<stop offset="0" stop-color="#582D01"/>
			<stop offset="1" stop-color="#906627"/>
		</linearGradient>
	</defs>
	<path fill="url(#gradient_4)" transform="scale(0.5 0.5)" d="M672.954 657.959C674.723 657.848 676.762 656.542 678.326 655.731C681.575 654.044 684.811 652.373 688.123 650.811C702.62 643.972 717.206 637.334 731.689 630.457C741.448 625.824 751.165 621.135 760.957 616.566C769.096 612.768 777.487 608.386 786.407 606.881C787.369 607.521 788.403 611.285 788.915 612.565C791.746 619.649 794.666 626.66 797.155 633.875C795.1 634.057 793.703 634.461 791.839 635.315L609.96 724.718C609.389 725.072 609.093 725.692 608.75 726.245L607.245 726.75L607.25 728.255C608.637 728.53 610.459 729.973 611.245 731.25L611.497 732.003C612.237 732.611 612.579 732.801 613.497 733.003L614.124 733.16C614.803 733.297 615.115 733.216 615.75 733.001L616.392 733.208C617.272 733.467 618.076 733.552 618.977 733.671L619.557 733.762C618.268 734.171 616.622 734.368 615.75 735.408L739.038 816.493C743.605 811.543 746.696 805.706 751.386 800.717C762.847 813.938 773.047 828.442 783.159 842.7C789.516 851.666 796.112 860.463 802.399 869.478C805.668 874.164 808.83 878.947 811.925 883.75C814.41 887.608 816.586 891.476 819.766 894.832C825.528 900.909 832.411 905.926 838.728 911.395C853.153 923.885 867.268 936.815 881.5 949.529C884.272 952.005 895.442 960.875 896.356 963.646C893.382 967.153 890.314 970.599 887.405 974.159C884.892 977.234 882.554 980.484 879.516 983.07C874.017 979.75 869.153 974.003 864.237 969.75C859.406 965.57 854.295 961.715 849.391 957.621C836.895 947.186 825.425 936.868 811.285 928.571C808.469 926.919 803.892 923.707 800.512 924.656C799.057 925.064 798.72 925.472 797.988 926.75C797.106 934.503 812.594 961.144 817.874 967.734C819.531 969.801 821.594 971.693 823.075 973.867C816.599 977.43 810.344 981.227 804.212 985.355C800.77 987.672 797.052 989.938 794.444 993.224C788.663 984.975 784.197 975.815 778.856 967.28C759.137 935.767 740.161 903.816 721.064 871.926C718.279 867.275 715.504 862.634 713.019 857.812C711.085 854.061 709.712 848.725 706.938 845.579C702.928 841.033 696.207 838.214 690.975 835.25C688.035 833.585 684.462 830.979 681.08 830.455C679.204 830.164 676.891 830.945 675.474 832.176C674.243 833.244 673.98 834.876 673.918 836.444L673.896 837.613L673.493 838.24C672.435 837.549 671.728 837.755 670.5 837.755C669.446 837.052 669.436 837.306 668.25 837.5L667.75 836.755L667 837.5L666.375 837.002C665.78 837.395 666.142 837.203 665.25 837.5L664.25 836.255L663.5 837L662.875 836.503C662.28 836.895 662.642 836.703 661.75 837L661.25 835.755L660.5 836.5L659.875 836.003C659.094 836.584 658.69 836.324 657.75 836.255L656.755 837.5L656.5 838.25L652.978 831.574L652.265 831.56C649.005 826.623 646.473 820.163 643.884 814.786C642.688 812.302 641.582 809.493 639.687 807.446C637.368 804.94 634.342 803.25 631.5 801.419C624.797 797.103 617.873 793.172 611.064 789.027C571.927 765.205 531.957 742.804 492.487 719.542L493.999 719.319C494.7 719.577 495.089 719.803 495.688 720.282L496.25 720.755C498.16 720.369 498.578 720.427 500.002 719.003C501.094 718.999 501.014 718.736 501.75 718C501.757 717.003 502.005 716.833 502.502 716.003L503.25 716C503.799 715.185 503.733 715.474 503.895 714.658L504.502 711.503L505.375 711.375L504.755 710.75C504.724 709.423 504.833 708.495 505.252 707.237L505.66 705.908C505.829 705.238 506.269 704.983 506.75 704.5C506.758 703.306 506.988 702.721 507.846 701.859L508.375 701.375C508.234 700.182 508.345 700.407 509.029 699.529L509.75 699.5L509.75 699L509.543 698.543L510.25 698.5L510.75 697.255L511.5 697.5L512.125 697.003L512.625 697.375L512.878 697L513.25 696.255L513.75 697L515.003 695.503L516 695.25C516.402 695.046 516.739 694.734 517.125 694.503L517.75 694.5L518.75 693.255L519.125 693.875L520.125 693.003L520.625 693.375L521.625 692.631L522.25 693L523.125 692.657L523.75 693L524.625 692.684L525.5 693.25C526.226 693.25 526.808 693.465 527.5 693.665C528.407 694.726 529.693 694.505 530.502 695.5C530.93 696.026 531.101 696.599 531.62 697.088L534.545 700C535.165 700.741 535.249 701.019 536.159 701.465L536.875 701.781L537.627 702.25L538.125 702.125C538.641 702.491 539.024 702.756 539.649 702.913L540.25 703.04C541.103 703.245 542.384 703.698 543.25 703.553C543.816 703.459 543.94 703.082 544.5 703.25L545.25 703.624C546.029 703.377 546.579 703.147 547.409 703.321L548.004 703.493L549 703.745C550.126 704.338 550.216 704.245 551.5 704.245C552.528 704.93 552.805 704.74 554 704.73L554.625 704.125C555.542 704.518 555.351 704.321 555.93 704.896L556.25 705.245L557 704.5L557.75 705.245L558.5 704.5L559.125 704.997L559.75 705L560.25 705.745L561 705L561.625 705.497C562.372 704.941 562.605 705.167 563.5 705.245C564.252 704.501 564.485 704.748 565.5 704.745L566.25 705.245L566.745 704.75L568.625 704.875L569.245 704.25L570.125 704.875L570.75 704.245C571.824 705.319 571.724 705.245 573.25 705.245C574.077 707.14 573.853 709.419 574.666 711.443L574.948 712.073C575.099 702.678 575.161 693.278 575.083 683.881C575.005 674.381 574.554 664.893 574.903 655.39C574.958 653.913 574.834 650.007 575.494 648.755C576.209 647.399 579.061 645.347 580.168 644.006L580.454 643.653C581.457 642.417 584.248 641.092 585.646 640.186C594.353 634.534 601.456 629.816 606.551 620.489L606.883 619.869L620.835 619.938L621.462 620.002C622.794 622.192 623.16 624.581 623.85 627.016C624.673 629.916 625.703 632.749 626.809 635.552C629.271 641.79 631.697 648.142 634.392 654.279C636.84 659.851 640.347 665.247 641.607 671.25C640.674 672.245 639.597 672.757 638.407 673.377L638.927 673.45C640.185 673.521 641.332 672.969 642.557 672.75C649.687 671.474 655.505 669.614 662.179 666.863C664.501 665.905 667.125 665.024 668.988 663.29L669.407 662.884C670.69 661.667 671.27 660.955 671.62 659.18L671.695 658.75L672.954 657.959Z"/>
	<path fill="#359BFB" transform="scale(0.5 0.5)" d="M580.454 643.653C581.457 642.417 584.248 641.092 585.646 640.186C594.353 634.534 601.456 629.816 606.551 620.489L606.883 619.869L620.835 619.938L621.462 620.002C622.794 622.192 623.16 624.581 623.85 627.016C624.673 629.916 625.703 632.749 626.809 635.552C629.271 641.79 631.697 648.142 634.392 654.279C636.84 659.851 640.347 665.247 641.607 671.25C640.674 672.245 639.597 672.757 638.407 673.377C616.359 684.308 595.096 697.17 575.737 712.383L574.948 712.073C575.099 702.678 575.161 693.278 575.083 683.881C575.005 674.381 574.554 664.893 574.903 655.39C574.958 653.913 574.834 650.007 575.494 648.755C576.209 647.399 579.061 645.347 580.168 644.006L580.454 643.653Z"/>
	<path fill="#FE6921" transform="scale(0.5 0.5)" d="M421.212 618.892L421.363 619.655C421.59 620.849 421.592 620.48 421.123 621.5L420.745 622.75C420.465 623.651 420.092 624.041 419.5 624.75L419.498 625.497L419 626C417.731 627.712 416.285 631.031 415.498 632.997C414.942 634.385 414.072 635.91 413.14 637.077C412.057 638.431 411.377 640.234 410.5 641.75L407.25 647.255C408.605 646.8 407.937 646.244 408.75 645.755C409.226 645.468 409.529 646.133 410.375 645.503L410.875 645.875L411.002 645.003L411.478 644.892C412.115 644.731 411.874 644.833 412.375 644.503L413 645L413.75 644.255L414.375 644.875C414.954 644.56 415.454 644.241 416 643.878C416.827 643.328 416.464 643.592 417.5 643.255L418.484 642.854C419.42 642.483 419.655 642.543 420.625 642.625C422.032 642.744 422.545 642.489 423.875 643.253L423.704 642.703C423.461 641.885 423.042 640.92 423.502 640.125L424.25 639.255L425 640L425.75 639.255L426.75 640.5C427.642 640.203 427.28 640.395 427.875 640.003L428.164 640.478C428.566 641.119 428.379 640.879 428.875 641.375L429.375 641.003L430.998 642.625L430.998 642.997C430.124 643.453 429.391 643.676 428.498 643.997L427.625 644.375C428.435 645.001 429.458 645.75 430.5 645.75L431.023 646.078C432.123 646.737 432.846 646.934 434 647.25C434.916 647.501 435.24 647.838 436.25 648L437.75 648.5C438.904 648.771 439.283 648.625 440.375 649.253L441.375 649.125C442.377 649.682 442.189 649.724 443.375 649.625C445.313 649.463 447.845 649.479 449.755 649.75L450.375 649.125C451.519 649.125 452.618 649.088 453.755 649.25L454.375 648.625C455.628 648.625 456.833 648.911 457.875 648.125C459.019 648.125 460.118 648.088 461.255 648.25L461.875 647.625C463.171 647.625 462.545 647.578 463.755 647.75L464.375 647.125L465.07 647.133C466.198 647.133 466.546 647.136 467.5 646.5L468.015 646.57C469.005 646.68 469.221 646.625 470 646L472.255 646.25L472.875 645.625C474.291 645.625 475.347 645.926 476.5 645L478.755 645.25L479.375 644.625L480.07 644.633C481.198 644.633 481.546 644.636 482.5 644L484.755 644.25L485.375 643.625C486.791 643.625 487.847 643.926 489 643L489.515 643.07C490.505 643.18 490.721 643.125 491.5 642.5L491.984 642.594C492.776 642.682 493.18 642.448 493.875 642.125L494.755 642.25C495.962 641.448 495.926 641.234 497.375 641.125C498.177 641.065 498.793 640.582 499.5 640.255L500.125 640.003L501.633 639.237C502.237 638.935 502.818 638.822 503.462 638.66C504.509 638.396 505.431 637.808 506.502 637.503L508.75 636.755L509.375 637.375L509.75 636.755L510.5 636.75L510.875 636.503L511.375 636.875L511.75 636.255L512.5 636.25L513 635.878L514 635.75L514.5 635.378L515.125 635.003L515.625 635.375L516.25 634.755C517.095 634.845 517.161 635.035 517.875 634.503L518.375 634.875L518.503 634.003C519.141 634.003 518.778 633.925 519.5 634.5C520.174 633.831 519.977 633.757 521 633.75L521.375 633.503L521.875 633.875L522.003 633.003C522.641 633.003 522.278 632.925 523 633.5C523.674 632.831 523.477 632.757 524.5 632.75L524.875 632.503L525.375 632.875L525.503 632.003C526.141 632.003 525.778 631.925 526.5 632.5C526.952 632.05 527.216 631.503 527.875 631.503L528.375 631.875L528.75 631.255L529.875 631.375L530.5 630.755L533.361 630.16C534.199 629.991 534.732 629.559 535.5 629.255L536.033 629.129C536.716 628.957 536.939 628.656 537.5 628.255L540.255 626.25L541 625.755C542.399 624.758 543.624 623.544 544.75 622.255L545.375 622.875L545.503 622.003C546.083 622.003 545.775 621.928 546.375 622.375L546.503 621.503C547.083 621.503 546.775 621.428 547.375 621.875L547.503 621.003L547.97 620.9C548.761 620.699 548.284 620.853 549 620.378L549.625 620.003L549.5 619.5L548.125 619.375C548.568 618.643 548.271 618.809 548.923 618.644L550.142 618.394C551.089 618.206 550.511 618.344 551.5 617.755C552.058 617.423 552.718 617.003 553.375 617.003L553.625 618.253L553.961 617.784C554.849 616.599 556.55 615.95 558 615.755L559 615.75L559.5 615.255L559.931 615.16C560.543 615.006 561.058 614.769 561.625 614.503L562.125 614.753C563.047 614.49 563.283 614.333 564 613.755L567 613.75L567.125 612.177C568.51 616.198 567.083 623.602 565.737 627.608L565.578 627.814C564.72 635.272 564.241 642.447 564.902 649.948C567.236 649.559 569.786 649.236 571.988 648.354C575.004 647.145 577.579 645.108 580.454 643.653L580.168 644.006C579.061 645.347 576.209 647.399 575.494 648.755C574.834 650.007 574.958 653.913 574.903 655.39C574.554 664.893 575.005 674.381 575.083 683.881C575.161 693.278 575.099 702.678 574.948 712.073L574.666 711.443C573.853 709.419 574.077 707.14 573.25 705.245C571.724 705.245 571.824 705.319 570.75 704.245L570.125 704.875L569.245 704.25L568.625 704.875L566.745 704.75L566.25 705.245L565.5 704.745C564.485 704.748 564.252 704.501 563.5 705.245C562.605 705.167 562.372 704.941 561.625 705.497L561 705L560.25 705.745L559.75 705L559.125 704.997L558.5 704.5L557.75 705.245L557 704.5L556.25 705.245L555.93 704.896C555.351 704.321 555.542 704.518 554.625 704.125L554 704.73C552.805 704.74 552.528 704.93 551.5 704.245C550.216 704.245 550.126 704.338 549 703.745L548.004 703.493L547.409 703.321C546.579 703.147 546.029 703.377 545.25 703.624L544.5 703.25C543.94 703.082 543.816 703.459 543.25 703.553C542.384 703.698 541.103 703.245 540.25 703.04L539.649 702.913C539.024 702.756 538.641 702.491 538.125 702.125L537.627 702.25L536.875 701.781L536.159 701.465C535.249 701.019 535.165 700.741 534.545 700L531.62 697.088C531.101 696.599 530.93 696.026 530.502 695.5C529.693 694.505 528.407 694.726 527.5 693.665C526.808 693.465 526.226 693.25 525.5 693.25L524.625 692.684L523.75 693L523.125 692.657L522.25 693L521.625 692.631L520.625 693.375L520.125 693.003L519.125 693.875L518.75 693.255L517.75 694.5L517.125 694.503C516.739 694.734 516.402 695.046 516 695.25L515.003 695.503L513.75 697L513.25 696.255L512.878 697L512.625 697.375L512.125 697.003L511.5 697.5L510.75 697.255L510.25 698.5L509.543 698.543L509.75 699L509.75 699.5L509.029 699.529C508.345 700.407 508.234 700.182 508.375 701.375L507.846 701.859C506.988 702.721 506.758 703.306 506.75 704.5C506.269 704.983 505.829 705.238 505.66 705.908L505.252 707.237C504.833 708.495 504.724 709.423 504.755 710.75L505.375 711.375L504.502 711.503L503.895 714.658C503.733 715.474 503.799 715.185 503.25 716L502.502 716.003C502.005 716.833 501.757 717.003 501.75 718C501.014 718.736 501.094 718.999 500.002 719.003C498.578 720.427 498.16 720.369 496.25 720.755L495.688 720.282C495.089 719.803 494.7 719.577 493.999 719.319L492.487 719.542L463.003 701.336L461.436 701.871L461.048 702.462C459.862 704.357 459.51 707.207 458.805 709.345C457.74 712.577 456.241 715.798 454.679 718.817C451.385 725.183 447.23 731.189 443.545 737.333C439.76 743.643 436.33 750.156 432.59 756.491C428.204 763.919 423.328 771.147 418.705 778.436C405.442 799.35 391.619 819.74 377.025 839.75C355.328 869.499 331.961 899.72 305.135 925.064C293.786 935.787 281.391 945.541 268.646 954.533C259.533 960.964 249.83 967.494 239.906 972.592C232.454 976.421 224.671 979.271 216.874 982.289C209.488 985.147 201.748 988.139 194.082 990.138C188.945 991.476 184.107 991.52 178.876 991.974C182.196 987.053 184.088 980.711 186.779 975.397C191.615 965.85 197.161 956.756 202.57 947.539C205.543 942.473 217.243 921.366 217.156 916.729C217.136 915.696 215.822 915.73 215.443 915.015C215.186 914.53 215.168 913.951 215.031 913.418C216.292 913.117 217.496 913.552 218.75 913.815L219.313 913L218.365 911.5C221.186 908.825 223.77 907.082 226.131 903.839C231.57 896.368 235.462 887.11 239.797 878.949C249.731 860.244 261.745 840.951 266.941 820.272L267.992 817.25C268.951 814.966 274.807 812.434 276.984 810.658C286.249 803.101 295.666 794.825 303.815 786.063C310.711 778.648 317.872 771.494 324.758 764.077C331.261 757.073 337.218 749.929 344.174 743.308C345.731 741.827 347.712 739.483 349.626 738.628C349.832 738.537 350.042 738.457 350.25 738.371C351.181 738.56 350.677 738.574 351.75 738.16C352.388 737.249 353.063 736.541 354.039 735.984C354.622 735.651 354.691 735.377 355.042 734.81C355.285 733.948 358.883 732.703 359.796 732.173C361.765 731.029 365.927 727.552 366.948 725.5C366.99 725.416 367.149 724.314 367.187 724.25C368.203 722.557 370.121 721.636 371.02 719.655C372.92 715.471 375.654 711.715 377.742 707.626C382.064 699.162 385.442 690.114 389.473 681.5C391.9 676.316 395.022 671.521 397.522 666.386C399.486 662.355 400.915 658.125 402.358 653.889L421.212 618.892Z"/>
	<path fill="#271403" transform="scale(0.5 0.5)" d="M461.436 701.871C458.937 700.113 457.515 694.47 456.068 691.653C455.888 691.302 455.24 689.781 455.014 689.656C454.869 689.576 454.701 689.767 454.545 689.823C451.919 690.767 441.885 695.75 440.315 695.25C445.445 692.749 451.152 690.642 455.95 687.598C460.601 684.646 464.709 679.996 469.11 676.549C477.014 670.359 486.007 665.578 492.989 658.339C491.659 667.117 493.535 676.095 492.778 684.876L492.716 685.508L493.251 685.511C494.985 685.199 497.339 683.739 499 683.021C507.716 679.253 518.6 674.75 525.979 668.805C528.263 666.965 529.161 663.565 530.428 660.978C531.503 658.782 532.976 656.854 534.661 655.094C540.774 648.71 548.515 643.179 555.373 637.582C558.174 635.297 562.403 632.521 564.207 629.392C564.67 628.588 564.824 628.326 565.578 627.814C564.72 635.272 564.241 642.447 564.902 649.948C567.236 649.559 569.786 649.236 571.988 648.354C575.004 647.145 577.579 645.108 580.454 643.653L580.168 644.006C579.061 645.347 576.209 647.399 575.494 648.755C574.834 650.007 574.958 653.913 574.903 655.39C574.554 664.893 575.005 674.381 575.083 683.881C575.161 693.278 575.099 702.678 574.948 712.073L574.666 711.443C573.853 709.419 574.077 707.14 573.25 705.245C571.724 705.245 571.824 705.319 570.75 704.245L570.125 704.875L569.245 704.25L568.625 704.875L566.745 704.75L566.25 705.245L565.5 704.745C564.485 704.748 564.252 704.501 563.5 705.245C562.605 705.167 562.372 704.941 561.625 705.497L561 705L560.25 705.745L559.75 705L559.125 704.997L558.5 704.5L557.75 705.245L557 704.5L556.25 705.245L555.93 704.896C555.351 704.321 555.542 704.518 554.625 704.125L554 704.73C552.805 704.74 552.528 704.93 551.5 704.245C550.216 704.245 550.126 704.338 549 703.745L548.004 703.493L547.409 703.321C546.579 703.147 546.029 703.377 545.25 703.624L544.5 703.25C543.94 703.082 543.816 703.459 543.25 703.553C542.384 703.698 541.103 703.245 540.25 703.04L539.649 702.913C539.024 702.756 538.641 702.491 538.125 702.125L537.627 702.25L536.875 701.781L536.159 701.465C535.249 701.019 535.165 700.741 534.545 700L531.62 697.088C531.101 696.599 530.93 696.026 530.502 695.5C529.693 694.505 528.407 694.726 527.5 693.665C526.808 693.465 526.226 693.25 525.5 693.25L524.625 692.684L523.75 693L523.125 692.657L522.25 693L521.625 692.631L520.625 693.375L520.125 693.003L519.125 693.875L518.75 693.255L517.75 694.5L517.125 694.503C516.739 694.734 516.402 695.046 516 695.25L515.003 695.503L513.75 697L513.25 696.255L512.878 697L512.625 697.375L512.125 697.003L511.5 697.5L510.75 697.255L510.25 698.5L509.543 698.543L509.75 699L509.75 699.5L509.029 699.529C508.345 700.407 508.234 700.182 508.375 701.375L507.846 701.859C506.988 702.721 506.758 703.306 506.75 704.5C506.269 704.983 505.829 705.238 505.66 705.908L505.252 707.237C504.833 708.495 504.724 709.423 504.755 710.75L505.375 711.375L504.502 711.503L503.895 714.658C503.733 715.474 503.799 715.185 503.25 716L502.502 716.003C502.005 716.833 501.757 717.003 501.75 718C501.014 718.736 501.094 718.999 500.002 719.003C498.578 720.427 498.16 720.369 496.25 720.755L495.688 720.282C495.089 719.803 494.7 719.577 493.999 719.319L492.487 719.542L463.003 701.336L461.436 701.871Z"/>
	<path fill="#512C05" transform="scale(0.5 0.5)" d="M537.232 667.25L537.778 667.75C539.606 677.122 540.572 688.666 538.25 698L536.992 698.733L535.755 697.75L535.755 695.75L535.55 695.05C535.496 693.826 535.909 692.161 535.92 690.807C535.964 685.66 535.033 671.149 537.232 667.25Z"/>
	<path fill="#359BFB" transform="scale(0.5 0.5)" d="M570.618 245.629C583.902 240.352 599.733 235.591 614.071 234.365C620.73 233.796 627.368 234.215 634.02 234.613C643.764 235.557 654.646 236.379 663.855 239.866C671.906 243.112 683.809 247.414 688.039 255.605L688.261 255.999C689.799 258.62 692.432 260.159 693.57 262.949C695.873 268.591 700.052 273.347 702.591 279C707.953 290.936 708.879 304.151 709.06 317.07C709.147 323.346 709.318 329.55 708.202 335.75C706.075 347.562 701.832 357.826 696.647 368.576C691.615 379.009 686.037 389.221 679.259 398.641C675.141 404.365 670.231 409.742 665.533 414.989C654.697 427.09 642.829 438.972 630.282 449.325C627.705 451.451 624.87 453.255 622.25 455.333C617.134 459.392 612.259 463.735 606.918 467.505C580.45 486.19 550.03 500.491 520.25 513.031C512.091 516.467 503.628 519.191 495.525 522.779C490.438 525.031 485.741 528.072 480.642 530.295C472.208 533.971 464.528 535.896 457.215 541.687C454.32 556.326 446.168 569.996 439.359 583.152C436.643 588.4 434.354 593.866 431.545 599.064C428.01 605.61 423.596 611.792 421.212 618.892L402.358 653.889L401.532 654.154C400.687 654.432 400.246 654.823 399.5 655.255C397.993 656.126 395.232 656.602 393.5 656.864C392.797 656.97 392.183 657.123 391.5 657.31C387.289 658.465 383.211 660.044 379 661.177C375.57 662.101 371.97 662.468 368.5 663.245C365.992 663.806 363.558 664.631 360.998 664.925C359.278 665.123 357.753 665.696 356.056 665.866C351.182 666.355 346.588 668.26 341.751 668.939C339.302 668.177 334.717 670.116 332.25 670.825C330.976 671.192 329.448 671.349 328.25 671.794C326.991 672.261 326.394 672.304 325.028 672.265L325.25 671.755L327.252 671.125L325.25 670.755L324.59 669.25L324.25 668.5L324.09 667.75C322.853 667.382 323.065 666.992 322.125 666.375L321.25 666C320.668 665.149 320.28 664.623 319.375 664.08L318.875 664.375L318.5 663.75C317.702 663.377 317.032 663.056 316.344 662.493L315.875 662.08L315.25 662.5L314.875 661.58L314.25 662L313.75 660.91L312.75 661.5L311.375 660.58L311 660.75C309.863 659.654 308.742 659.548 307.25 659.255L305.998 659.003C305.297 658.798 305.054 658.578 304.289 658.667C303.117 658.802 303.054 658.789 302.125 658.125C300.739 658.074 299.444 657.493 298.217 656.879L297.498 656.503C296.664 656.09 296.018 655.798 295.281 655.208L294.75 654.755L293.75 655L293.25 654.255L292.5 655L291.875 654.503C291.128 655.059 290.895 654.833 290 654.755L289.25 654.255L289 654.75L288 654.5L287 655.25L286.5 654.75C285.686 654.75 285.555 654.305 285 653.75L284.5 653.75C283.49 653.083 283.054 653.207 281.875 653.125L281.375 653.375L280.498 653.003C279.432 652.757 279.824 653.073 279 652.255L278.255 652.75C277.599 653.046 276.587 652.892 276 652.5L275.375 652.003C274.842 652.003 275.095 651.973 274.478 652.129L274 652.255L272.75 651.255L272.25 652L271 651.5L270.375 651.003L269.875 651.375C269.005 651.211 268.263 651.205 267.5 651.755C266.514 652.466 266.25 652.252 265 652.255L264.125 652.753C263.403 652.326 263.007 652.086 262.141 652.086L259.875 652.125C259.12 652.121 257.687 651.962 257 652.255L256.255 652.75L255.5 652.255L254.5 653L253.75 652.255L253 653L252.25 652.255L251.5 653L250.875 652.503C250.094 653.084 249.69 652.824 248.75 652.755C249.637 651.841 250.475 651.01 251.5 650.245L252.498 649.497C255.227 647.064 257.701 645.072 259.673 641.902L259.902 641.528C263.776 636.907 269.835 632.833 274.689 629.25C270.289 628.874 265.55 628.969 261.172 629.542C258.514 629.889 253.127 632.665 250.848 631.75L250.793 628.582L251.648 627.003C252.155 626.314 252.171 626.696 252.5 625.994L252.665 625.446L253.009 624.5C254.529 619.943 256.98 615.646 259.083 611.327C261.445 606.475 263.328 601.313 265.95 596.603C271.823 586.048 278.946 576.346 284.495 565.604C286.881 560.985 288.702 556.143 291.003 551.5C292.584 548.312 294.563 545.32 296.168 542.132C299.961 534.592 303.465 526.9 307.291 519.372C308.935 516.136 310.991 513.073 312.524 509.79C314.284 506.021 314.582 501.169 315.694 497.134C316.43 494.465 317.948 491.705 319.218 489.25C323.373 481.22 328.842 473.835 333.84 466.314C338.069 459.95 341.999 453.193 346.1 446.71C350.038 440.485 352.991 433.726 356.747 427.401C362.475 417.754 368.901 408.498 374.839 398.989C375.276 398.861 377.747 394.834 378.173 394.212C380.763 390.429 383.309 386.639 386.484 383.31C393.457 376.001 401.758 370.456 409.088 363.631C414.053 359.007 418.487 353.709 423.237 348.849C429.738 342.198 436.602 335.845 443.119 329.176C446.509 325.707 449.516 321.88 452.932 318.433C458.875 312.437 465.105 306.801 470.585 300.348C481.907 287.014 488.226 269.416 505.491 262.102C505.821 264.734 506.211 267.463 507.02 270C507.553 271.674 508.464 273.223 508.613 274.996C508.678 275.77 508.731 276.31 508.918 277.044L509.119 277.807C511.155 275.973 513.947 274.672 516.321 273.299C520.77 270.725 525.304 268.24 529.673 265.534C534.278 262.682 538.447 259.141 543.153 256.47C545.591 255.086 548.186 254.028 550.855 253.182L562.967 248.389C565.122 248.252 568.519 246.444 570.618 245.629Z"/>
	<path fill="#0562DA" transform="scale(0.5 0.5)" d="M378.192 450.25L378.771 450.531C375.794 454.015 371.392 456.899 368.116 460.319C356.407 472.542 346.131 485.713 332.301 495.75L331.738 495.726C334.711 491.173 339.416 487.187 343.171 483.25C354.357 471.521 364.962 459.747 378.192 450.25Z"/>
	<path fill="#0562DA" transform="scale(0.5 0.5)" d="M509.119 277.807C511.155 275.973 513.947 274.672 516.321 273.299C520.77 270.725 525.304 268.24 529.673 265.534C534.278 262.682 538.447 259.141 543.153 256.47C545.591 255.086 548.186 254.028 550.855 253.182L550.897 254.064L550.245 254.25C549.401 254.523 549.329 254.523 548.75 255.245C548.028 255.168 547.841 254.981 547.232 255.414C546.424 255.988 545.687 256.232 544.75 256.5L544.25 257.245L543.5 257.25C542.751 257.786 542.139 258.337 541.497 258.997C540.215 259.322 540.192 260.242 539 260.25L538.25 261.245L537.5 261.25C536.471 261.994 535.548 262.751 534.75 263.745L534 263.75L533.68 264.102C533.017 264.764 533.43 264.344 532.375 264.875L530.875 266.016C529.992 266.722 530.501 266.363 529.375 266.875C528.477 267.283 528.314 267.404 527.75 268.245L527 268.25C525.99 268.466 525.159 269.264 524.497 269.998L524.077 270.077C522.84 270.39 521.621 271.339 520.75 272.245L520 272.25L519 273.245L518.125 273.125L517.5 273.75L518.245 275.75L517.701 276.177L515.747 277.875C519.575 278.051 531.057 271.365 534.5 269L535.219 268.531L538.75 266C539.669 265.41 539.33 265.631 540.148 264.961C540.836 264.398 541.507 263.977 542.25 263.5C543.267 262.846 542.731 263.216 543.555 262.486C544.604 261.555 543.584 262.378 545 261.75C546.316 261.167 547.589 260.121 549 259.5L549.25 259.791C541.76 264.573 534.834 270.285 526.881 274.307C523.341 276.098 519.568 277.635 515.842 279.002C514.147 279.624 512.137 279.986 510.58 280.9C504.955 284.202 500.833 288.951 494.75 291.745L494.002 291.498L493.805 290.75L497.5 287.755L499.5 286.255L502.559 283.828L509.073 277.97L509.119 277.807Z"/>
	<path fill="#0562DA" transform="scale(0.5 0.5)" d="M570.618 245.629C583.902 240.352 599.733 235.591 614.071 234.365C620.73 233.796 627.368 234.215 634.02 234.613L634.25 235.762L630.75 235.745L630.25 235L629.5 235.123C627.093 235.304 625.506 234.639 623.5 236.25L623.497 236.998L622.745 237.5L621.75 239C623.815 239 628.952 239.532 630.5 238.5L630.964 238.834C629.5 239.607 627.745 239.422 626.125 239.486C622.456 239.63 618.787 239.774 615.119 239.947C605.624 240.397 595.62 243.24 586.25 245.01C580.76 246.047 576.568 247.524 571.066 245.817L570.618 245.629Z"/>
	<defs>
		<linearGradient id="gradient_5" gradientUnits="userSpaceOnUse" x1="505.25" y1="495.25" x2="490.96799" y2="462.07999">
			<stop offset="0" stop-color="#1034BF"/>
			<stop offset="1" stop-color="#146ED3"/>
		</linearGradient>
	</defs>
	<path fill="url(#gradient_5)" transform="scale(0.5 0.5)" d="M633.441 396.768C634.464 395.465 634.81 394.598 636.422 394.108C636.934 397.604 631.459 405.193 629.245 408.186C624.82 414.169 619.681 419.205 614.416 424.429C601.069 437.674 586.679 449.343 570.947 459.654C564.435 463.922 557.542 467.557 550.958 471.706C542.121 477.276 533.705 484.126 523.596 487.202L522.25 487.672L521.75 487.245C520.527 487.598 521.238 487.318 520.306 487.824C519.567 488.226 518.939 488.439 518.153 488.711C516.996 489.11 516.21 489.544 515.225 490.251C514.013 491.12 512.753 491.817 511.537 492.711L510 493.69L509.266 494.182C499.378 500.729 488.578 505.889 478.942 512.922C474.856 515.904 471.264 519.712 467.403 522.988C468.787 520.573 470.14 517.974 472.078 515.954C477.982 509.798 486.366 505.269 493.556 500.75C500.463 496.409 507.194 492.005 513.939 487.422C527.268 478.367 541.355 469.349 553.908 459.25C567.117 448.624 579.985 437.54 592.835 426.484C597.392 422.564 601.761 418.319 606.434 414.553L606.433 414.438C610.594 410.148 615.022 405.865 620.179 402.798L623.682 400.686L624.413 400.25C627.322 398.469 630.098 397.45 633.441 396.768Z"/>
	<defs>
		<linearGradient id="gradient_6" gradientUnits="userSpaceOnUse" x1="627.75" y1="399.25" x2="630.71997" y2="407.31699">
			<stop offset="0" stop-color="#298CEF"/>
			<stop offset="1" stop-color="#2175D8"/>
		</linearGradient>
	</defs>
	<path fill="url(#gradient_6)" transform="scale(0.5 0.5)" d="M606.434 414.553L606.433 414.438C610.594 410.148 615.022 405.865 620.179 402.798L623.682 400.686L624.413 400.25C627.322 398.469 630.098 397.45 633.441 396.768C630.251 402.604 626.542 406.946 622.374 412.027C621.606 412.963 620.74 413.563 619.75 414.237C619.75 413.127 620.098 413.147 620.875 412.375L622.478 410.703C623.271 409.814 624.498 409.202 624.502 408.002L624.25 407.745L623.477 407.826C622.45 407.908 622.85 407.966 622 407.623C620.071 409.085 618.042 411.461 615.997 412.498L615.514 412.871C614.689 413.49 613.871 413.53 613 414.245L612.25 413.5L611.25 413.745L610 412.745C609.202 413.067 609.558 412.845 608.993 413.327C608.361 413.868 607.689 414.266 606.981 414.698L606.434 414.553Z"/>
	<path fill="#E10C87" transform="scale(0.5 0.5)" d="M274.689 629.25C279.732 627.599 284.746 624.393 289.402 621.845C294.061 619.297 299.108 616.956 303.429 613.881C309.503 609.559 314.721 604.996 321.528 601.723C330.155 597.576 339.33 594.544 348.089 590.666C369.237 581.305 390.084 571.171 411.186 561.702C426.413 554.868 442.201 548.964 457.215 541.687C454.32 556.326 446.168 569.996 439.359 583.152C436.643 588.4 434.354 593.866 431.545 599.064C428.01 605.61 423.596 611.792 421.212 618.892L402.358 653.889L401.532 654.154C400.687 654.432 400.246 654.823 399.5 655.255C397.993 656.126 395.232 656.602 393.5 656.864C392.797 656.97 392.183 657.123 391.5 657.31C387.289 658.465 383.211 660.044 379 661.177C375.57 662.101 371.97 662.468 368.5 663.245C365.992 663.806 363.558 664.631 360.998 664.925C359.278 665.123 357.753 665.696 356.056 665.866C351.182 666.355 346.588 668.26 341.751 668.939C339.302 668.177 334.717 670.116 332.25 670.825C330.976 671.192 329.448 671.349 328.25 671.794C326.991 672.261 326.394 672.304 325.028 672.265L325.25 671.755L327.252 671.125L325.25 670.755L324.59 669.25L324.25 668.5L324.09 667.75C322.853 667.382 323.065 666.992 322.125 666.375L321.25 666C320.668 665.149 320.28 664.623 319.375 664.08L318.875 664.375L318.5 663.75C317.702 663.377 317.032 663.056 316.344 662.493L315.875 662.08L315.25 662.5L314.875 661.58L314.25 662L313.75 660.91L312.75 661.5L311.375 660.58L311 660.75C309.863 659.654 308.742 659.548 307.25 659.255L305.998 659.003C305.297 658.798 305.054 658.578 304.289 658.667C303.117 658.802 303.054 658.789 302.125 658.125C300.739 658.074 299.444 657.493 298.217 656.879L297.498 656.503C296.664 656.09 296.018 655.798 295.281 655.208L294.75 654.755L293.75 655L293.25 654.255L292.5 655L291.875 654.503C291.128 655.059 290.895 654.833 290 654.755L289.25 654.255L289 654.75L288 654.5L287 655.25L286.5 654.75C285.686 654.75 285.555 654.305 285 653.75L284.5 653.75C283.49 653.083 283.054 653.207 281.875 653.125L281.375 653.375L280.498 653.003C279.432 652.757 279.824 653.073 279 652.255L278.255 652.75C277.599 653.046 276.587 652.892 276 652.5L275.375 652.003C274.842 652.003 275.095 651.973 274.478 652.129L274 652.255L272.75 651.255L272.25 652L271 651.5L270.375 651.003L269.875 651.375C269.005 651.211 268.263 651.205 267.5 651.755C266.514 652.466 266.25 652.252 265 652.255L264.125 652.753C263.403 652.326 263.007 652.086 262.141 652.086L259.875 652.125C259.12 652.121 257.687 651.962 257 652.255L256.255 652.75L255.5 652.255L254.5 653L253.75 652.255L253 653L252.25 652.255L251.5 653L250.875 652.503C250.094 653.084 249.69 652.824 248.75 652.755C249.637 651.841 250.475 651.01 251.5 650.245L252.498 649.497C255.227 647.064 257.701 645.072 259.673 641.902L259.902 641.528C263.776 636.907 269.835 632.833 274.689 629.25Z"/>
	<path fill="#DCF8FD" transform="scale(0.5 0.5)" d="M627.295 286.701L627.511 286.623C630.762 286.145 635.081 286.008 637.65 288.25C640.778 296.474 639.113 308.171 635.797 316.141C631.598 326.234 623.022 335.277 614.542 341.981C601.575 352.234 586.756 359.69 571.963 366.885C555.284 374.997 538.13 382.653 520.871 389.461C500.065 397.667 478.911 405.015 458.087 413.156C436.896 421.442 416.293 430.889 395.374 439.772L385.223 444.609C401.556 430.155 414.713 411.864 429.877 396.149C440.407 385.237 451.906 375.279 463.242 365.23C469.207 359.943 475.026 354.465 481.227 349.454C487.264 344.576 493.792 340.179 500.119 335.68C523.378 319.14 547.592 305.147 575.046 296.691C591.876 291.507 609.825 288.611 627.295 286.701Z"/>
	<defs>
		<linearGradient id="gradient_7" gradientUnits="userSpaceOnUse" x1="915.25" y1="135.25" x2="358.40302" y2="195.455">
			<stop offset="0" stop-color="#FEC000"/>
			<stop offset="1" stop-color="#FD9E14"/>
		</linearGradient>
	</defs>
	<path fill="url(#gradient_7)" transform="scale(0.5 0.5)" d="M824.635 18.2332C832.986 20.0009 841.575 21.396 849.574 24.4714C859.316 28.2172 868.474 35.1828 875.755 42.554C879.58 46.4268 883.612 50.5 886.572 55.0764C889.292 59.2809 890.801 63.9808 892.852 68.5179C891.415 68.6123 890.228 68.6408 888.918 69.3213C890.78 69.5314 891.289 69.2841 892.551 70.8337C894.197 72.855 895.454 75.2389 897.026 77.3412C900.016 81.3418 903.229 84.9854 905.482 89.5C910.281 99.1182 912.281 109.903 913.877 120.418C914.931 127.368 915.961 134.233 916.481 141.25C916.702 144.232 916.848 147.264 917.228 150.229C917.512 152.442 918.089 154.759 917.869 157C917.807 157.635 917.762 157.712 917.603 158.241C920.208 158.794 925.236 159.426 926.996 161.505C927.224 161.776 927.385 162.131 927.544 162.445C928.231 163.844 928.115 164.26 928.064 165.75C928.017 167.117 928.41 168.215 928.82 169.5C929.413 171.356 929.677 172.368 928.676 174.161C928.234 174.953 928.39 174.733 927.682 175.154C926.404 175.913 925.354 176.448 924.549 177.75L924.319 180.063C911.29 180.912 900.25 184.286 888.795 190.676C884.314 193.175 880.199 196.204 875.858 198.92L875.547 199.787C874.868 202.617 873.296 203.628 870.904 205.097C869.387 206.028 867.818 207.007 866.175 207.699C864.188 208.536 862.131 208.862 860.5 210.344L859.596 210.376L859 209.652L857.5 209.013C857.129 209.694 857.199 209.31 857.433 210.181L856.881 209.909C851.619 207.014 846.872 202.313 843.127 197.673L842.899 198.243C841.378 201.838 838.991 205.034 836.822 208.259C829.382 219.319 820.717 229.783 808.068 235.119C805.138 237.489 804.65 239.672 804.27 243.277C803.805 247.7 804.204 251.502 805.142 255.83C805.806 259.942 806.499 264.074 806.813 268.232C807.045 271.29 806.805 274.462 807.404 277.476C809.507 288.064 823.26 299.674 831.683 305.775C832.704 306.514 833.495 306.914 834.158 308.043C833.571 312.662 834.409 317.428 833.53 321.988C833.023 332.488 829.957 343.089 826.985 353.133C824.07 362.984 821.147 372.497 816.952 381.911C814.321 387.816 810.984 393.369 808.182 399.199C805.142 405.523 802.424 412.015 799.177 418.238C794.952 426.337 789.934 434.424 784.988 442.101C780.949 448.37 776.22 454.225 771.768 460.204C768.87 464.096 766.403 468.444 763.176 472.076L763.018 472.195C750.376 489.248 735.833 505.873 720.617 520.672C717.465 523.737 713.399 525.6 710.3 528.751C706.679 532.968 704.411 538.44 700.646 542.394C697.388 546.76 693.79 550.936 690.227 555.055C689.253 556.18 686.993 559.373 685.546 559.517L675.945 558.322C674.265 561.475 673.082 564.804 671.463 567.964C667.915 574.889 663.792 581.469 660.368 588.493C659.807 589.643 657.553 596.481 657.025 596.811C653.16 598.681 650.082 602.536 646.911 605.392C643.997 608.017 640.72 610.364 637.42 612.476C634.484 614.354 631.398 615.861 628.182 617.197C626.258 617.997 622.966 618.638 621.462 620.002L620.835 619.938L606.883 619.869L606.551 620.489C601.456 629.816 594.353 634.534 585.646 640.186C584.248 641.092 581.457 642.417 580.454 643.653C577.579 645.108 575.004 647.145 571.988 648.354C569.786 649.236 567.236 649.559 564.902 649.948C564.241 642.447 564.72 635.272 565.578 627.814L565.737 627.608C567.083 623.602 568.51 616.198 567.125 612.177L567 613.75L564 613.755C563.283 614.333 563.047 614.49 562.125 614.753L561.625 614.503C561.058 614.769 560.543 615.006 559.931 615.16L559.5 615.255L559 615.75L558 615.755C556.55 615.95 554.849 616.599 553.961 617.784L553.625 618.253L553.375 617.003C552.718 617.003 552.058 617.423 551.5 617.755C550.511 618.344 551.089 618.206 550.142 618.394L548.923 618.644C548.271 618.809 548.568 618.643 548.125 619.375L549.5 619.5L549.625 620.003L549 620.378C548.284 620.853 548.761 620.699 547.97 620.9L547.503 621.003L547.375 621.875C546.775 621.428 547.083 621.503 546.503 621.503L546.375 622.375C545.775 621.928 546.083 622.003 545.503 622.003L545.375 622.875L544.75 622.255C543.624 623.544 542.399 624.758 541 625.755L540.255 626.25L537.5 628.255C536.939 628.656 536.716 628.957 536.033 629.129L535.5 629.255C534.732 629.559 534.199 629.991 533.361 630.16L530.5 630.755L529.875 631.375L528.75 631.255L528.375 631.875L527.875 631.503C527.216 631.503 526.952 632.05 526.5 632.5C525.778 631.925 526.141 632.003 525.503 632.003L525.375 632.875L524.875 632.503L524.5 632.75C523.477 632.757 523.674 632.831 523 633.5C522.278 632.925 522.641 633.003 522.003 633.003L521.875 633.875L521.375 633.503L521 633.75C519.977 633.757 520.174 633.831 519.5 634.5C518.778 633.925 519.141 634.003 518.503 634.003L518.375 634.875L517.875 634.503C517.161 635.035 517.095 634.845 516.25 634.755L515.625 635.375L515.125 635.003L514.5 635.378L514 635.75L513 635.878L512.5 636.25L511.75 636.255L511.375 636.875L510.875 636.503L510.5 636.75L509.75 636.755L509.375 637.375L508.75 636.755L506.502 637.503C505.431 637.808 504.509 638.396 503.462 638.66C502.818 638.822 502.237 638.935 501.633 639.237L500.125 640.003L499.5 640.255C498.793 640.582 498.177 641.065 497.375 641.125C495.926 641.234 495.962 641.448 494.755 642.25L493.875 642.125C493.18 642.448 492.776 642.682 491.984 642.594L491.5 642.5C490.721 643.125 490.505 643.18 489.515 643.07L489 643C487.847 643.926 486.791 643.625 485.375 643.625L484.755 644.25L482.5 644C481.546 644.636 481.198 644.633 480.07 644.633L479.375 644.625L478.755 645.25L476.5 645C475.347 645.926 474.291 645.625 472.875 645.625L472.255 646.25L470 646C469.221 646.625 469.005 646.68 468.015 646.57L467.5 646.5C466.546 647.136 466.198 647.133 465.07 647.133L464.375 647.125L463.755 647.75C462.545 647.578 463.171 647.625 461.875 647.625L461.255 648.25C460.118 648.088 459.019 648.125 457.875 648.125C456.833 648.911 455.628 648.625 454.375 648.625L453.755 649.25C452.618 649.088 451.519 649.125 450.375 649.125L449.755 649.75C447.845 649.479 445.313 649.463 443.375 649.625C442.189 649.724 442.377 649.682 441.375 649.125L440.375 649.253C439.283 648.625 438.904 648.771 437.75 648.5L436.25 648C435.24 647.838 434.916 647.501 434 647.25C432.846 646.934 432.123 646.737 431.023 646.078L430.5 645.75C429.458 645.75 428.435 645.001 427.625 644.375L428.498 643.997C429.391 643.676 430.124 643.453 430.998 642.997L430.998 642.625L429.375 641.003L428.875 641.375C428.379 640.879 428.566 641.119 428.164 640.478L427.875 640.003C427.28 640.395 427.642 640.203 426.75 640.5L425.75 639.255L425 640L424.25 639.255L423.502 640.125C423.042 640.92 423.461 641.885 423.704 642.703L423.875 643.253C422.545 642.489 422.032 642.744 420.625 642.625C419.655 642.543 419.42 642.483 418.484 642.854L417.5 643.255C416.464 643.592 416.827 643.328 416 643.878C415.454 644.241 414.954 644.56 414.375 644.875L413.75 644.255L413 645L412.375 644.503C411.874 644.833 412.115 644.731 411.478 644.892L411.002 645.003L410.875 645.875L410.375 645.503C409.529 646.133 409.226 645.468 408.75 645.755C407.937 646.244 408.605 646.8 407.25 647.255L410.5 641.75C411.377 640.234 412.057 638.431 413.14 637.077C414.072 635.91 414.942 634.385 415.498 632.997C416.285 631.031 417.731 627.712 419 626L419.498 625.497L419.5 624.75C420.092 624.041 420.465 623.651 420.745 622.75L421.123 621.5C421.592 620.48 421.59 620.849 421.363 619.655L421.212 618.892C423.596 611.792 428.01 605.61 431.545 599.064C434.354 593.866 436.643 588.4 439.359 583.152C446.168 569.996 454.32 556.326 457.215 541.687C464.528 535.896 472.208 533.971 480.642 530.295C485.741 528.072 490.438 525.031 495.525 522.779C503.628 519.191 512.091 516.467 520.25 513.031C550.03 500.491 580.45 486.19 606.918 467.505C612.259 463.735 617.134 459.392 622.25 455.333C624.87 453.255 627.705 451.451 630.282 449.325C642.829 438.972 654.697 427.09 665.533 414.989C670.231 409.742 675.141 404.365 679.259 398.641C686.037 389.221 691.615 379.009 696.647 368.576C701.832 357.826 706.075 347.562 708.202 335.75C709.318 329.55 709.147 323.346 709.06 317.07C708.879 304.151 707.953 290.936 702.591 279C700.052 273.347 695.873 268.591 693.57 262.949C692.432 260.159 689.799 258.62 688.261 255.999L688.039 255.605C683.809 247.414 671.906 243.112 663.855 239.866C654.646 236.379 643.764 235.557 634.02 234.613C627.368 234.215 620.73 233.796 614.071 234.365C599.733 235.591 583.902 240.352 570.618 245.629C568.519 246.444 565.122 248.252 562.967 248.389C561.343 248.246 560.056 248.733 558.503 249.064C556.419 249.508 554.575 250.433 552.503 251.002L551.75 251.255C550.942 251.465 550.518 251.483 549.728 251.879L549 252.255C548.02 252.636 547.736 252.497 546.961 253.268L546.5 253.75L545.5 253.755C545.194 254.014 544.86 254.32 544.503 254.502C543.487 255.022 542.316 255.362 541.25 255C541.245 254.275 541.299 253.698 541.497 252.998C541.793 251.956 541.817 252.55 541.638 251.453L541.5 250.75L542.245 250L541.625 249.375C542.072 248.775 541.997 249.083 541.997 248.502L541.25 248.255L541.245 245L540.75 244.255L541.997 243.498L543.5 242.745L550.247 237.625C555.775 232.181 562.64 227.723 568.75 222.892C579.33 214.527 589.25 204.65 597.522 194L597.25 193.5L596.375 194.252C596.145 195.251 595.657 195.632 594.938 196.32L593.875 197.375C592.932 198.894 591.454 199.876 590.617 201.383L590.375 201.875L589.75 201.255L586.503 204.502C583.809 205.876 582.378 209.167 579.625 210.375C581.087 208.413 583.217 206.975 584.745 205C584.309 204.504 583.943 204.088 583.622 203.5L583.25 202.755L582.875 203.375L582.25 202.755L581.5 203.5L580.875 203.002L580.375 203.375L580.122 203L579.75 202.255L579.375 202.875L579.122 202.5L578.75 201.755L578.375 202.375L578.122 202L577.75 201.255L577.375 201.875L577.122 201.5L576.75 200.755L576.375 201.375C575.127 200.84 574.064 200.093 573 199.255C572.45 198.821 572.176 198.535 571.483 198.363L571 198.255C568.775 197.158 566.621 199.378 564.5 199.75L564 199.25C562.676 199.259 562.159 198.469 561 198.25C559.396 197.947 561.514 198.745 559.586 197.939C558.538 197.501 558.666 197.892 557.75 197.755C557.032 197.648 556.246 196.908 555.5 196.75C554.844 196.611 554.63 196.643 554 196.255L553.25 195.755L552.875 196.375L552.375 196.002L551.875 196.375L551.622 196L551.25 195.255L550.875 195.875L550.25 195.255L549.75 196L549.25 194.755L548.75 195.5L548.25 194.255L547.75 195L547.25 193.755L546.5 194.5C545.876 193.848 545.209 193.311 544.5 192.755L543.875 193.375C543.348 192.785 542.748 192.126 541.875 192.125C540.658 192.124 540.943 192.218 539.875 191.625L538.875 191.752C537.767 191.223 537.114 190.999 535.875 191.125L534.875 191.252C533.199 190.29 531.932 190.776 530.125 190.625C528.888 190.521 529.623 190.36 528.5 190.734C527.415 191.096 526.626 191.139 525.497 191.125L525.497 190.498C525.544 190.239 525.546 189.921 525.745 189.75C525.854 189.657 526.769 189.829 527 189.745C527.659 189.506 528.424 188.663 529 188.245L529.745 187.75C528.912 187.47 529.125 187.655 528.578 187.112L528.25 186.755L527.5 187.75C526.375 187.758 526.39 188.114 525.625 188.875L525.125 188.502L524.5 188.877L524 189.25L523.25 189.255L522.375 190.375C521.775 189.928 522.083 190.002 521.503 190.002L521.375 190.875L520.25 190.755C519.798 191.659 520.074 191.304 519.5 191.877C517.606 192.115 517.518 192.528 516.375 193.875L515.5 193L516.125 192.125C516.62 192.613 516.326 192.498 516.997 192.498L517 191.75L522.125 188.125L524.242 186.492L535.5 179L539.5 176.5C540.318 175.919 541.143 175.513 542 175L543.875 173.875C546.835 172.291 549.652 170.056 552.68 168.68C554.044 168.059 555.276 167.37 556.5 166.5C558.645 164.976 561.79 163.266 564.18 162.18C567.131 160.838 570.85 158.902 573.424 156.978L573.417 156.266C582.218 150.535 592.795 146.701 602.313 142.297C608.886 139.255 615.179 135.564 621.786 132.631C622.774 131.533 623.205 131.228 623.501 129.75L623.124 129.625L622.5 129.406C620.913 128.863 619.697 128.586 618.565 127.25C618.525 125.617 618.297 123.805 618.893 122.25L619.25 121.393L618.634 120.7C624.156 117.995 630.42 116.264 636.251 114.315L644.142 111.868L646.5 111.475C650.41 110.655 654.126 109.161 658.096 108.567C659.975 107.425 662.295 106.976 664.18 105.76C667.22 103.799 669.954 101.283 672.958 99.2362C677.992 95.8067 686.63 92.3993 690.241 87.6863L690.755 87L691.25 86.5C691.257 85.1346 691.356 85.3981 692.25 84.5C692.256 83.2968 692.299 83.4291 692.878 82.5C692.35 81.6201 692.564 82.11 692.277 81.0123L693.078 80.915C694.832 84.1202 695.554 87.3229 698.244 89.9574C697.93 85.3106 696.704 81.302 696.928 76.5417C697.006 75.1963 697.348 73.9207 697.707 72.6264C699.147 67.4364 702.96 62.9259 706.405 58.9016C714.124 49.883 722.431 42.3521 732.826 36.5029L734.25 35.4628C735.996 36.256 737.299 39.1118 738.161 40.8336C739.96 44.425 741.709 48.1565 743.018 51.9557C744.267 55.5788 745.111 59.6723 747.056 62.9746C747.377 63.0161 747.716 63.2111 748.02 63.0991C748.222 63.0247 749.497 61.3748 749.662 61.1595C751.713 58.4803 753.505 55.0147 756.25 53.0026C759.139 50.8847 762.385 49.1096 765.385 47.128C770.978 43.433 777.912 38.2744 784.571 36.9256C789.175 35.993 795.1 36.4649 799.704 37.355C802.501 37.8958 805.376 38.6706 806.937 41.25C809.038 44.7204 806.249 52.1821 805.534 55.9896C809.783 51.4415 811.81 44.0168 814.714 38.4837C817.8 32.6024 821.253 26.9106 824.918 21.3755L824.635 18.2332ZM808.068 235.119C820.717 229.783 829.382 219.319 836.822 208.259C838.991 205.034 841.378 201.838 842.899 198.243L843.127 197.673C846.872 202.313 851.619 207.014 856.881 209.909L857.433 210.181C857.199 209.31 857.129 209.694 857.5 209.013L859 209.652L859.596 210.376L860.5 210.344C862.131 208.862 864.188 208.536 866.175 207.699C867.818 207.007 869.387 206.028 870.904 205.097C873.296 203.628 874.868 202.617 875.547 199.787L875.858 198.92C880.199 196.204 884.314 193.175 888.795 190.676C900.25 184.286 911.29 180.912 924.319 180.063L924.549 177.75C925.354 176.448 926.404 175.913 927.682 175.154C928.39 174.733 928.234 174.953 928.676 174.161C929.677 172.368 929.413 171.356 928.82 169.5C928.41 168.215 928.017 167.117 928.064 165.75C928.115 164.26 928.231 163.844 927.544 162.445C927.385 162.131 927.224 161.776 926.996 161.505C925.236 159.426 920.208 158.794 917.603 158.241C903.264 157.474 886.026 162.063 875.226 171.794C872.49 174.26 869.719 176.84 867.591 179.866C866.084 182.011 864.911 184.965 863.025 186.732C850.532 174.311 839.225 157.736 823.394 149.361C819.07 147.073 814.215 145.719 809.508 144.466C803.729 142.929 798.333 141.748 792.307 141.8C778.801 141.919 763.807 145.787 754.156 155.656C745.164 164.852 738.38 178.391 738.622 191.5C738.833 202.964 742.733 213.375 751.25 221.311C755.805 225.555 761.431 227.502 767.245 229.306C780.728 233.491 794.017 234.586 808.068 235.119ZM636.251 114.315C630.42 116.264 624.156 117.995 618.634 120.7L619.25 121.393L618.893 122.25C618.297 123.805 618.525 125.617 618.565 127.25C619.697 128.586 620.913 128.863 622.5 129.406L623.124 129.625L623.501 129.75C623.205 131.228 622.774 131.533 621.786 132.631C630.811 129.003 639.917 125.022 647.819 119.291C646.848 119.357 645.642 119.571 644.712 119.258C644.051 119.035 643.436 118.87 642.75 118.719C641.437 119.882 640.323 120.596 638.523 120.75C636.964 120.884 636.437 120.578 635.253 119.625C635.562 118.548 635.722 118.103 636.513 117.275C637.196 116.56 637.324 116.447 637.49 115.5L636.251 114.315ZM658.096 108.567C654.126 109.161 650.41 110.655 646.5 111.475L644.142 111.868L636.251 114.315L637.49 115.5C637.324 116.447 637.196 116.56 636.513 117.275C635.722 118.103 635.562 118.548 635.253 119.625C636.437 120.578 636.964 120.884 638.523 120.75C640.323 120.596 641.437 119.882 642.75 118.719C643.436 118.87 644.051 119.035 644.712 119.258C645.642 119.571 646.848 119.357 647.819 119.291C651.162 117.214 654.071 114.919 657.286 112.715C658.877 112.001 660.862 111.364 661.98 110L661.75 109.493L658.096 108.567Z"/>
	<path fill="#FE631F" transform="scale(0.5 0.5)" d="M696.928 76.5417C697.006 75.1963 697.348 73.9207 697.707 72.6264C699.147 67.4364 702.96 62.9259 706.405 58.9016C714.124 49.883 722.431 42.3521 732.826 36.5029C730.416 43.5695 726.408 46.5517 721.997 52C720.672 53.6374 719.964 55.7483 718.75 57.4806C717.386 59.4262 715.416 61.2526 713.625 62.788C713.923 60.9082 716.899 59.2908 717.875 57.375L718.5 56.5C719.178 55.555 719.38 55.0299 719.75 54C720.141 52.9114 720.859 51.9474 721.5 51L721.913 50.3693C723.009 48.8671 724.549 47.5504 725.875 46.2475L725 45.75L724.453 45.9817C723.768 46.2532 723.19 46.3127 722.497 46.4975L721.75 46.745L721.125 46.125L720.75 46.745L720.245 46.25C718.992 47.5381 718.034 48.6106 716.497 49.4975C714.924 50.406 712.282 53.4572 711.497 54.9975C710.701 56.56 708.612 57.1419 707.997 58.9975L707.272 59.638C705.7 61.0506 704.592 62.7769 703.497 64.4975C702.957 65.3472 702.477 65.4978 701.997 66.4975L701.245 67.5C700.494 68.5355 699.87 69.4477 699.745 70.75L699.245 71.25C698.234 72.9372 698.353 74.7384 696.928 76.5417Z"/>
	<path fill="#FEEABF" fill-opacity="0.41960785" transform="scale(0.5 0.5)" d="M658.096 108.567L661.75 109.493L661.98 110C660.862 111.364 658.877 112.001 657.286 112.715C654.071 114.919 651.162 117.214 647.819 119.291C646.848 119.357 645.642 119.571 644.712 119.258C644.051 119.035 643.436 118.87 642.75 118.719C641.437 119.882 640.323 120.596 638.523 120.75C636.964 120.884 636.437 120.578 635.253 119.625C635.562 118.548 635.722 118.103 636.513 117.275C637.196 116.56 637.324 116.447 637.49 115.5L636.251 114.315L644.142 111.868L646.5 111.475C650.41 110.655 654.126 109.161 658.096 108.567ZM658.096 108.567C654.126 109.161 650.41 110.655 646.5 111.475C646.09 112.576 646.09 112.083 646.25 112.931L645.568 113.75C646.156 114.719 646.759 115.504 647.525 116.34C650.385 116.148 655.15 112.054 657.286 112.715C658.877 112.001 660.862 111.364 661.98 110L661.75 109.493L658.096 108.567Z"/>
	<path fill="#FDEEBD" fill-opacity="0.50980395" transform="scale(0.5 0.5)" d="M636.251 114.315L637.49 115.5C637.324 116.447 637.196 116.56 636.513 117.275C635.722 118.103 635.562 118.548 635.253 119.625C636.437 120.578 636.964 120.884 638.523 120.75C640.323 120.596 641.437 119.882 642.75 118.719C643.436 118.87 644.051 119.035 644.712 119.258C645.642 119.571 646.848 119.357 647.819 119.291C639.917 125.022 630.811 129.003 621.786 132.631C622.774 131.533 623.205 131.228 623.501 129.75L623.124 129.625L622.5 129.406C620.913 128.863 619.697 128.586 618.565 127.25C618.525 125.617 618.297 123.805 618.893 122.25L619.25 121.393L618.634 120.7C624.156 117.995 630.42 116.264 636.251 114.315Z"/>
	<path fill="#FE631F" transform="scale(0.5 0.5)" d="M710.3 528.751C710.302 527.855 710.386 526.978 710.061 526.127L709.871 525.75C710.173 524.49 713.05 521.395 714.402 520.996C715.893 520.556 717.601 521.112 718.75 519.885C720.886 517.606 721.202 513.896 721.87 511C723.362 504.523 724.723 498.201 725.301 491.547C726.14 481.898 725.71 472.171 726.19 462.5L726.5 462.25L726.5 486.5C725.516 487.977 726 491.168 726 493C725.315 494.027 725.525 493.877 725.75 495L726.003 494.002L726.497 494.002L726.75 494.755C727.797 494.599 728.587 494.308 729.5 493.755C730.476 493.163 731.171 492.892 732.25 492.5L732.625 493.375C734.75 492.316 735.886 490.033 738.234 489.058L739 488.755C739.721 488.428 740.272 488.056 741.048 487.863L741.5 487.755L742.25 487.255L742.625 488.375L743.75 487.255L744.125 488.375C744.964 487.872 744.507 487.999 745.497 488.002C745.648 489.207 745.421 488.733 746 489.5L746.75 488.755L747.245 490.25L747.875 489.875C747.387 489.38 747.503 489.674 747.503 489.002C748.565 488.698 749.942 487.498 750.503 486.502L750.755 485.75C751.399 485.2 751.935 484.75 752.41 484.039L752.755 483.5C753.414 482.659 754.105 481.87 754.755 481C755.415 480.116 755.673 479.697 755.895 478.579L756.003 478.002L756.75 478C757.329 477.137 757.888 476.592 758.623 475.863C759.654 475.051 760.428 474.128 761.193 473.068L761.756 472.281L763.018 472.195C750.376 489.248 735.833 505.873 720.617 520.672C717.465 523.737 713.399 525.6 710.3 528.751Z"/>
	<path fill="#FE631F" transform="scale(0.5 0.5)" d="M663.855 239.866C665.745 233.292 674.143 228.595 679.858 225.461C689.904 219.953 699.914 216.852 711.412 216.75C710.095 217.606 709.251 217.622 707.747 217.625C707.69 220.381 709.206 225.808 707.745 228L707.875 228.875C707.979 230.376 707.517 229.803 707.247 230.875C706.993 231.887 707.463 231.37 707.375 232.375C707.287 233.373 706.667 234.164 706.245 235L705.997 235.998L704.5 237.25L704.497 237.998L703.5 238.75L703.497 239.498C702.065 239.86 701.786 240.83 700.497 241.498L694 246.245L693.38 246.716C692.702 247.259 692.264 247.81 691.75 248.5L692.745 248.75L691.25 249.745L690.745 249.25L689.75 250.5L691.497 250.625L691.497 250.998C690.404 251.817 690.132 251.772 688.747 251.875L690.245 252.25L690.375 252.902L690.032 253.097C689.19 253.7 688.617 254.756 688.039 255.605C683.809 247.414 671.906 243.112 663.855 239.866Z"/>
	<path fill="#FE631F" transform="scale(0.5 0.5)" d="M620.835 619.938C622.04 617.312 620.461 613.264 619.878 610.413C618.89 605.584 617.457 599.208 618.249 594.344C619.153 588.795 621.517 581.326 624.529 576.5C627.216 572.195 629.867 569.011 631.567 564.099L631.875 563.186L632.122 564.5L631.75 565L631.622 566L631.25 566.5L631.122 567.5L630.75 568C629.996 569.514 629.635 570.664 628.562 572.094L628.25 572.5L628.245 573.25C627.162 573.905 626.493 574.99 625.75 576L625.745 576.75C624.649 577.486 624.509 578.061 624 579.25C624.515 579.074 625.051 578.988 625.378 578.5L625.75 577.755L626.497 578.503L626.745 579.25L631.22 576.629L632 576.255C632.706 575.902 633.279 575.554 634.048 575.363L634.5 575.255C635.686 574.655 635.895 574.755 637.25 574.755L637.75 574.255L638.75 575.5L639.25 574.255L640.25 575.5L640.625 574.503C641.05 574.783 641.157 574.9 641.75 575L642.497 575.003L643.375 575.125C644.127 575.179 644.569 575.096 645.335 575.306C646.971 575.756 649.067 575.202 650.5 575.755L651.245 576.25C652.292 576.101 651.89 576.045 652.811 576.298C653.603 576.516 654.228 576.633 655.055 576.633C655.848 576.633 655.875 576.804 656.5 577.25L657.75 577C659.288 577.5 660.013 577.993 661.154 579.146L661.497 579.503C662.299 579.659 661.989 579.535 662.724 579.945L663.245 580.25C663.941 579.723 664.112 579.297 664.386 578.5L664.755 577.5C665.61 576.215 665.213 577.311 665.573 576.126C665.919 574.985 666.702 574.275 667.255 573.25L667.755 572C668.235 571.249 668.771 570.518 669.255 569.75C669.728 569.001 670.191 568.427 670.526 567.597C670.837 566.822 670.644 567.15 671.098 566.422L671.378 566L671.255 565.25L672.003 564.125L672.255 563.5L672.75 563C672.756 561.751 672.61 562.268 673.129 561.228C673.588 560.308 673.581 555.21 673.378 554C673.157 552.687 672.797 551.391 672.878 550L673 549.25C673 548.507 672.723 547.916 672.801 547.125C672.896 546.154 672.912 545.256 672.816 544.281L672.755 543.75L673.75 542.755C674.013 543.879 674.321 545.084 674.245 546.25C674.008 549.897 674.318 553.723 674.747 557.375L675.5 557.755L676.25 557.255C677.106 557.215 677.641 557.214 678.466 557.487C679.635 557.874 680.723 557.885 681.922 558.125L683.75 558.5L684.503 558.125L685.5 558.5C688.322 556.794 692.525 551.076 694.629 548.256L696.75 545.755L696.755 545.25L697.625 544.503C698.285 543.945 698.735 543.576 699.198 542.827L699.505 542.28L700.646 542.394C697.388 546.76 693.79 550.936 690.227 555.055C689.253 556.18 686.993 559.373 685.546 559.517L675.945 558.322C674.265 561.475 673.082 564.804 671.463 567.964C667.915 574.889 663.792 581.469 660.368 588.493C659.807 589.643 657.553 596.481 657.025 596.811C653.16 598.681 650.082 602.536 646.911 605.392C643.997 608.017 640.72 610.364 637.42 612.476C634.484 614.354 631.398 615.861 628.182 617.197C626.258 617.997 622.966 618.638 621.462 620.002L620.835 619.938Z"/>
	<path fill="#FE631F" transform="scale(0.5 0.5)" d="M824.635 18.2332C832.986 20.0009 841.575 21.396 849.574 24.4714C859.316 28.2172 868.474 35.1828 875.755 42.554C879.58 46.4268 883.612 50.5 886.572 55.0764C889.292 59.2809 890.801 63.9808 892.852 68.5179C891.415 68.6123 890.228 68.6408 888.918 69.3213L888.296 69.4349C887.056 69.8487 886.164 70.9027 885.27 71.8165C881.011 76.1713 879.897 80.9108 876.628 85.808C877.565 81.4139 877.719 77.5173 877.622 73.0469C877.546 69.5072 878.059 58.9047 875.359 56.75C871.519 53.6854 854.833 53.5278 849.969 54.3626C847.27 54.8258 841.862 55.596 840.06 57.8472C838.937 59.2505 839.022 65.6284 838.589 67.75C838.218 69.5694 838.121 70.4749 836.777 71.75C835.445 70.1508 835.713 63.7926 835.521 61.5C834.786 52.7419 830.241 45.2929 828.949 36.8733C828.396 33.274 828.005 29.7648 827.657 26.1416C827.558 25.1136 827.619 22.9698 827.256 22.0736C827.1 21.6873 826.669 21.4821 826.375 21.1864L824.918 21.3755L824.635 18.2332Z"/>
	<path fill="#FE6921" transform="scale(0.5 0.5)" d="M833.53 321.988C833.023 332.488 829.957 343.089 826.985 353.133C824.07 362.984 821.147 372.497 816.952 381.911C814.321 387.816 810.984 393.369 808.182 399.199C805.142 405.523 802.424 412.015 799.177 418.238C794.952 426.337 789.934 434.424 784.988 442.101C780.949 448.37 776.22 454.225 771.768 460.204C768.87 464.096 766.403 468.444 763.176 472.076L763.018 472.195L761.756 472.281L761.193 473.068C760.428 474.128 759.654 475.051 758.623 475.863C758.927 474.47 759.077 473.778 760.152 472.791C761.812 471.269 761.15 469.065 762.659 467.547L763 467.25L762.755 465.5L763.25 464.755C763.137 464.354 762.971 463.647 762.755 463.25L762.255 462.5L763.003 461.002C763.443 459.941 763.676 459.936 764.594 459.25C765.724 455.746 765.476 451.629 765.564 447.969C765.834 436.815 765.723 425.591 764.444 414.5C763.58 407.005 761.811 399.645 760.962 392.115C762.843 394.1 764.602 396.048 767.1 397.264L767.898 397.635C769.966 398.615 772.171 399.715 774.435 400.152C776.731 400.595 780.018 400.142 782 401.25L780 402C778.45 400.967 776.688 401.943 774.957 401.25L774.5 401L774.375 401.502C775.05 402.144 775.652 402.721 776.457 403.204L776.997 403.502L777.245 404.25L777.75 404.255L778.497 405.002C779.346 406.099 780.003 406.353 781.341 406.799L781.997 407.002L782.247 407.875L783.25 407.755C783.977 408.412 784.438 408.974 785.422 409.174L786 409.255L786.745 409.75C788.574 409.768 790.895 410.079 792.625 409.502L793.25 409.255L794 409.25C794.695 408.732 794.322 408.984 795.125 408.502L795.75 408.5C796.63 407.488 797.114 406.993 797.379 405.658L797.755 403.75L797.255 403.25C797.555 402.501 797.775 402.012 798.328 401.404L798.764 400.965C800.246 392.703 799.099 384.267 798.111 376.025C796.615 363.55 795.057 352.482 789.444 341L789.75 340.5L792 345.25C793.216 345.655 793.32 345.817 794.5 345.377L795 345.75L797.875 345.625C798.734 345.558 799.234 345.44 800.092 345.613L801.997 346.002C802.702 346.14 802.965 346.198 803.563 346.643L804 347L804.75 346.255L805.125 347.375C805.594 346.966 805.857 346.502 806.497 346.502L806.875 347.625L811.5 347.755C812.56 348.459 813.01 348.252 814.25 348.255L815.245 349.75L815.625 349.002L816.125 349.375L816.75 348.755C817.347 348.953 819.275 351.042 819.745 351.75L820.5 351.5C821.463 352.583 822.783 352.947 823.45 354.283L823.745 355C824.308 356.038 824.245 355.853 824.245 357L824.75 357.5L825 356.25C825.288 355.47 825.382 354.891 825.625 354.125C825.857 353.395 826.237 352.771 826.378 352C826.64 350.564 826.311 351.46 826.735 350.392C827.219 349.174 827.592 347.999 827.705 346.689L827.755 346C828.36 345.089 828.541 344.297 828.755 343.25C828.886 342.606 828.974 342.041 829.205 341.423L829.378 341L829.255 340.25C830.12 339.208 829.859 339.267 829.755 338C830.961 336.184 830.325 333.69 831.378 332C831.249 331.212 831.254 330.77 831.503 330.002C831.768 329.184 831.916 329.138 831.844 328.187L831.763 327.5L832.25 327C832.293 324.981 832.536 323.754 833.53 321.988Z"/>
	<path fill="#FDFDFD" fill-opacity="0.89803922" transform="scale(0.5 0.5)" d="M808.068 235.119C794.017 234.586 780.728 233.491 767.245 229.306C761.431 227.502 755.805 225.555 751.25 221.311C742.733 213.375 738.833 202.964 738.622 191.5C738.38 178.391 745.164 164.852 754.156 155.656C763.807 145.787 778.801 141.919 792.307 141.8C798.333 141.748 803.729 142.929 809.508 144.466C814.215 145.719 819.07 147.073 823.394 149.361C839.225 157.736 850.532 174.311 863.025 186.732C864.911 184.965 866.084 182.011 867.591 179.866C869.719 176.84 872.49 174.26 875.226 171.794C886.026 162.063 903.264 157.474 917.603 158.241C920.208 158.794 925.236 159.426 926.996 161.505C927.224 161.776 927.385 162.131 927.544 162.445C928.231 163.844 928.115 164.26 928.064 165.75C928.017 167.117 928.41 168.215 928.82 169.5C929.413 171.356 929.677 172.368 928.676 174.161C928.234 174.953 928.39 174.733 927.682 175.154C926.404 175.913 925.354 176.448 924.549 177.75L924.319 180.063C911.29 180.912 900.25 184.286 888.795 190.676C884.314 193.175 880.199 196.204 875.858 198.92L875.547 199.787C874.868 202.617 873.296 203.628 870.904 205.097C869.387 206.028 867.818 207.007 866.175 207.699C864.188 208.536 862.131 208.862 860.5 210.344L859.596 210.376L859 209.652L857.5 209.013C857.129 209.694 857.199 209.31 857.433 210.181L856.881 209.909C851.619 207.014 846.872 202.313 843.127 197.673L842.899 198.243C841.378 201.838 838.991 205.034 836.822 208.259C829.382 219.319 820.717 229.783 808.068 235.119ZM791.599 162.217C785.53 162.857 779.512 163.695 775.326 168.679C772.94 171.52 771.32 175.795 771.675 179.538C772.014 183.118 775.038 186.227 777.75 188.361C780.876 190.821 784.088 192.267 788.122 192.309C793.84 191.642 800.994 191.655 804.846 186.801C807.8 183.081 808.476 178.354 807.965 173.745C807.563 170.128 804.839 166.699 801.965 164.651C798.778 162.381 795.334 162.342 791.599 162.217Z"/>
	<path transform="scale(0.5 0.5)" d="M791.599 162.217C795.334 162.342 798.778 162.381 801.965 164.651C804.839 166.699 807.563 170.128 807.965 173.745C808.476 178.354 807.8 183.081 804.846 186.801C800.994 191.655 793.84 191.642 788.122 192.309C784.088 192.267 780.876 190.821 777.75 188.361C775.038 186.227 772.014 183.118 771.675 179.538C771.32 175.795 772.94 171.52 775.326 168.679C779.512 163.695 785.53 162.857 791.599 162.217ZM797.634 170.25C796.118 173.833 796.307 177.635 796.25 181.453C797.076 181.084 797.424 180.886 798.107 180.25C797.002 179.408 797.101 179.384 796.844 178C797.085 177.58 797.47 176.675 797.859 176.408L800.267 173.75L800.892 173.75C801.341 175.17 801.347 175.318 800.942 176.75L801.345 176.924C802.468 175.324 802.442 174.168 802.47 172.25C801.994 171.348 801.886 170.535 800.876 170.165C799.756 169.754 798.738 169.844 797.634 170.25Z"/>
	<path fill="#FDFDFD" fill-opacity="0.98823529" transform="scale(0.5 0.5)" d="M797.634 170.25C798.738 169.844 799.756 169.754 800.876 170.165C801.886 170.535 801.994 171.348 802.47 172.25C802.442 174.168 802.468 175.324 801.345 176.924L800.942 176.75C801.347 175.318 801.341 175.17 800.892 173.75L800.267 173.75L797.859 176.408C797.47 176.675 797.085 177.58 796.844 178C797.101 179.384 797.002 179.408 798.107 180.25C797.424 180.886 797.076 181.084 796.25 181.453C796.307 177.635 796.118 173.833 797.634 170.25Z"/>
</svg>
