<?xml version="1.0" encoding="utf-8" ?>
<svg xmlns="http://www.w3.org/2000/svg" xmlns:xlink="http://www.w3.org/1999/xlink" width="512" height="512">
	<path fill="#E73915" transform="scale(0.5 0.5)" d="M386.375 726.075L387.302 728.179L372.249 802.288L353.827 858.829C338.209 902.332 317.17 943.057 292.959 982.34C285.525 994.402 278.021 1006.98 269.263 1018.11L268.847 1018.28C263.996 1012.13 259.279 1005.37 253.508 1000.06C244.988 993.13 236.37 986.542 228.794 978.535C225.598 975.428 222.632 972.04 220.019 968.424C219.433 967.612 216.498 963.421 216.521 962.596C216.557 961.358 221.673 955.316 222.55 953.946C228.629 944.445 234.244 934.36 239.642 924.453C260.812 885.598 280.065 845.434 295.145 803.8C297.998 795.925 302.056 786.904 303.4 778.651L337.352 757.784L337.41 757.321L363.762 741.179L386.375 726.075Z"/>
	<path fill="#0F5DE7" transform="scale(0.5 0.5)" d="M337.352 757.784C337.402 761.339 335.422 765.586 334.249 768.947C332.279 774.59 330.322 780.239 328.452 785.917C312.253 835.114 291.222 882.827 264.639 927.307C254.246 944.696 242.466 961.282 231.75 978.48C230.669 978.842 229.906 978.697 228.794 978.535C225.598 975.428 222.632 972.04 220.019 968.424C219.433 967.612 216.498 963.421 216.521 962.596C216.557 961.358 221.673 955.316 222.55 953.946C228.629 944.445 234.244 934.36 239.642 924.453C260.812 885.598 280.065 845.434 295.145 803.8C297.998 795.925 302.056 786.904 303.4 778.651L337.352 757.784Z"/>
	<path fill="#0F5DE7" transform="scale(0.5 0.5)" d="M386.375 726.075L387.302 728.179L372.249 802.288L353.827 858.829C338.209 902.332 317.17 943.057 292.959 982.34C285.525 994.402 278.021 1006.98 269.263 1018.11L268.847 1018.28C263.996 1012.13 259.279 1005.37 253.508 1000.06C256.823 993.624 261.41 987.637 265.212 981.47C273.238 968.451 281.052 955.014 288.618 941.724C301.843 918.496 313.44 894.383 324.164 869.913C329.68 857.325 335.498 844.817 340.394 831.971C350.052 806.627 356.503 780.7 361.214 754.038C361.978 749.716 363.137 745.544 363.762 741.179L386.375 726.075Z"/>
	<path fill="#E73915" transform="scale(0.5 0.5)" d="M234.994 703.933L237.758 703.019C233.365 713.259 230.754 723.79 227.52 734.411C222.77 750.012 217.838 765.633 211.945 780.844C196.307 821.206 172.851 858.541 147.021 893.059C130.557 915.06 113.327 936.044 94.7982 956.352C90.7561 960.704 86.3124 964.759 81.9312 968.768C79.9251 970.603 77.2959 973.187 74.5 973.418C71.9365 972.05 69.9857 965.438 68.6192 962.8C66.8366 959.36 64.8344 956.024 62.846 952.699C56.0941 943.368 50.8467 932.707 45.7494 922.397C40.1864 914.283 36.0568 905.237 29.7427 897.652C46.4511 883.319 60.7135 867.502 75.2816 851.073C95.6348 828.121 115.322 804.431 133.25 779.521C144.407 764.019 154.111 747.629 165.49 732.254C166.555 732.235 168.123 731.36 169.138 730.95C172.524 729.585 175.867 728.217 179.216 726.764C185.947 723.843 192.811 721.239 199.531 718.308C202.077 717.198 204.797 715.465 207.482 714.836C208.887 714.506 210.453 714.699 211.878 714.823C218.688 709.998 227.035 706.358 234.994 703.933Z"/>
	<path fill="#0F5DE7" transform="scale(0.5 0.5)" d="M234.994 703.933L237.758 703.019C233.365 713.259 230.754 723.79 227.52 734.411C222.77 750.012 217.838 765.633 211.945 780.844C196.307 821.206 172.851 858.541 147.021 893.059C130.557 915.06 113.327 936.044 94.7982 956.352C90.7561 960.704 86.3124 964.759 81.9312 968.768C79.9251 970.603 77.2959 973.187 74.5 973.418C71.9365 972.05 69.9857 965.438 68.6192 962.8C66.8366 959.36 64.8344 956.024 62.846 952.699C68.6779 944.376 77.4923 937.358 84.6805 930.102C93.6567 921.041 102.157 911.441 110.317 901.643C126.82 881.827 141.338 860.788 156.133 839.714C172.885 815.853 189.927 791.922 204.464 766.602C213.208 751.371 220.938 735.205 228.088 719.169C230.372 714.048 232.922 709.165 234.994 703.933Z"/>
	<path fill="#0F5DE7" transform="scale(0.5 0.5)" d="M165.49 732.254C166.555 732.235 168.123 731.36 169.138 730.95C172.524 729.585 175.867 728.217 179.216 726.764C185.947 723.843 192.811 721.239 199.531 718.308C202.077 717.198 204.797 715.465 207.482 714.836C208.887 714.506 210.453 714.699 211.878 714.823C206.595 719.74 202.621 725.415 198.415 731.24C191.23 741.191 184.663 751.501 177.703 761.599C164.179 781.22 150.227 800.592 135.553 819.369C127.002 830.311 117.952 840.855 109.039 851.5C100.916 861.201 92.9986 870.913 84.469 880.275C71.6643 894.329 57.8132 907.696 45.7494 922.397C40.1864 914.283 36.0568 905.237 29.7427 897.652C46.4511 883.319 60.7135 867.502 75.2816 851.073C95.6348 828.121 115.322 804.431 133.25 779.521C144.407 764.019 154.111 747.629 165.49 732.254Z"/>
	<path fill="#FED522" transform="scale(0.5 0.5)" d="M286.477 685.662C295.827 680.613 307.091 677.293 317.109 673.678C332.295 668.199 347.411 662.65 362.359 656.542C362.436 662.223 360.98 667.6 359.674 673.091C357.771 681.092 355.667 689.039 353.651 697.012C350.394 709.895 347.425 722.947 343.717 735.704C341.658 742.787 337.778 749.919 337.41 757.321L337.352 757.784L303.4 778.651C296.492 780.091 289.355 785.078 283.438 788.826C276.835 793.009 270.248 797.036 264.272 802.107C264.313 799.501 265.105 794.79 263.13 792.82L262.586 792.352C260.289 798.12 258.816 804.322 256.522 810C255.325 812.961 253.613 815.764 252.188 818.622C249.364 824.286 246.594 829.977 243.727 835.62C215.409 891.357 178.394 941.307 137.377 988.311C134.088 992.081 130.729 995.827 127.624 999.75C125.184 1002.83 122.98 1006.26 120.301 1009.13L106.203 987.083C99.4981 979.521 96.3077 966.187 94.7982 956.352C113.327 936.044 130.557 915.06 147.021 893.059C172.851 858.541 196.307 821.206 211.945 780.844C217.838 765.633 222.77 750.012 227.52 734.411C230.754 723.79 233.365 713.259 237.758 703.019C244.363 699.283 252.694 697.377 259.866 694.811C268.527 691.714 277.502 687.508 286.477 685.662Z"/>
	<path fill="#0F5DE7" transform="scale(0.5 0.5)" d="M286.744 685.944C287.904 687.645 286.946 692.801 288 693.148L288.866 693.25L262.586 792.352C260.289 798.12 258.816 804.322 256.522 810C255.325 812.961 253.613 815.764 252.188 818.622C249.364 824.286 246.594 829.977 243.727 835.62C215.409 891.357 178.394 941.307 137.377 988.311C134.088 992.081 130.729 995.827 127.624 999.75C125.184 1002.83 122.98 1006.26 120.301 1009.13L106.203 987.083C108.866 982.654 112.543 978.662 115.933 974.77C121.359 968.54 126.972 962.477 132.426 956.271C143.11 944.115 153.293 931.496 163.207 918.705C179.841 897.243 194.553 874.045 208.697 850.897C221.143 830.528 233.607 810.073 244.562 788.853C248.932 780.39 252.693 771.65 256.625 762.981C263.267 748.339 269.627 733.851 275.379 718.832C279.512 708.04 284.452 697.314 286.744 685.944Z"/>
	<path fill="#FDE163" transform="scale(0.5 0.5)" d="M286.477 685.662C295.827 680.613 307.091 677.293 317.109 673.678C332.295 668.199 347.411 662.65 362.359 656.542C362.436 662.223 360.98 667.6 359.674 673.091C357.771 681.092 355.667 689.039 353.651 697.012C350.394 709.895 347.425 722.947 343.717 735.704C341.658 742.787 337.778 749.919 337.41 757.321L337.352 757.784L303.4 778.651C296.492 780.091 289.355 785.078 283.438 788.826C276.835 793.009 270.248 797.036 264.272 802.107C264.313 799.501 265.105 794.79 263.13 792.82L262.586 792.352L288.866 693.25L288 693.148C286.946 692.801 287.904 687.645 286.744 685.944L286.477 685.662Z"/>
	<path fill="#E73915" transform="scale(0.5 0.5)" d="M155.034 642.353C152.417 638.256 150.933 633.186 149.495 628.57C147.678 622.742 145.918 616.906 144.212 611.045C137.561 588.193 132.257 563.823 130.232 540.094C129.419 530.57 129.424 520.966 129.435 511.414C129.467 483.636 132.25 456.555 138.25 429.43C144.483 401.252 154.821 373.861 167.343 347.898C194.635 291.313 233.171 242.711 283.617 204.974C292.829 198.082 302.712 191.857 312.43 185.693C319.901 180.954 327.829 176.87 335.65 172.739C370.676 154.235 408.851 140.976 448 134.504C456.585 133.085 465.179 132.328 473.83 131.487C481.671 130.725 489.351 129.763 497.25 129.491C510.93 129.02 524.851 129.164 538.5 130.229C543.232 130.598 547.943 131.425 552.673 131.89C568.779 133.474 584.402 135.137 600.25 138.658C611.809 141.227 623.08 144.957 634.268 148.796C716.41 176.979 789.233 234.415 835.429 308.009C877.88 375.635 901.487 456.456 894.694 536.5C893.384 551.936 891.803 567.515 888.343 582.653C879.53 621.206 866.502 659.207 847.931 694.213C816.771 752.949 769.775 802.633 713.494 837.848C643.854 881.42 559.358 900.689 477.636 893.392C470.327 892.74 463.11 891.576 455.859 890.547C445.645 889.096 435.482 887.666 425.419 885.348C412.963 882.479 400.614 878.488 388.583 874.183C376.726 869.942 364.718 865.223 353.827 858.829L372.249 802.288L387.302 728.179C390.374 731.026 394.931 732.771 398.654 734.665C417.375 744.195 436.83 751.523 456.401 759.073C467.605 763.396 478.499 768.133 489.97 771.784C500.772 775.223 511.322 777.919 522.52 779.65C543.724 782.928 564.611 781.268 585.872 782.423L586.691 824.714C597.869 821.899 609.064 819.173 620 815.5C632.013 811.465 643.673 806.299 655.133 800.906C673.17 792.418 690.681 782.669 706.798 770.885C739.028 747.32 765.332 716.925 785.981 682.872C811.765 640.351 828.47 590.662 832.866 541.055C833.703 531.603 833.614 522.017 833.743 512.534C833.902 500.938 834.249 489.289 833.377 477.715C832.751 469.411 831.162 461.222 829.694 453.038C828.154 444.454 826.671 436.012 824.586 427.529C821.261 414.007 816.27 400.826 810.801 388.034C795.763 352.861 774.505 318.948 748.532 290.779C729.452 270.085 706.128 250.833 681.977 236.286C657.98 221.832 631.49 209.799 604.51 202.195C590.155 198.15 575.75 195.811 560.976 193.918C539.434 191.158 517.895 189.651 496.159 190.637C491.984 190.827 487.903 191.563 483.75 191.913C479.53 192.269 475.269 192.256 471.06 192.711C458.612 194.057 445.835 196.362 433.684 199.37C423.313 201.937 412.87 204.538 402.775 208.054C334.082 231.985 275.627 279.243 238.051 341.553C219.924 371.61 205.665 403.267 197.89 437.652C195.834 446.746 194.689 456.015 193.528 465.25C192.69 471.916 191.517 478.526 191.182 485.25C190.642 496.078 191.169 507.051 191.529 517.879C191.782 525.495 191.817 533.182 192.558 540.769C193.663 552.077 195.814 563.329 197.85 574.503C199.088 581.291 200.095 588.135 201.753 594.835L197.008 600.888L155.034 642.353Z"/>
	<path fill="#DADAD9" transform="scale(0.5 0.5)" d="M387.302 728.179C390.374 731.026 394.931 732.771 398.654 734.665C417.375 744.195 436.83 751.523 456.401 759.073C467.605 763.396 478.499 768.133 489.97 771.784C500.772 775.223 511.322 777.919 522.52 779.65C543.724 782.928 564.611 781.268 585.872 782.423L586.691 824.714C573.562 827.606 559.893 830.467 546.525 831.977C535.487 833.223 523.944 833.484 512.841 833.518C477.914 833.626 444.258 828.83 411 817.996C397.9 813.728 384.349 808.907 372.249 802.288L387.302 728.179Z"/>
	<path fill="#24C8BC" transform="scale(0.5 0.5)" d="M201.753 594.835C200.095 588.135 199.088 581.291 197.85 574.503C195.814 563.329 193.663 552.077 192.558 540.769C191.817 533.182 191.782 525.495 191.529 517.879C191.169 507.051 190.642 496.078 191.182 485.25C191.517 478.526 192.69 471.916 193.528 465.25C194.689 456.015 195.834 446.746 197.89 437.652C205.665 403.267 219.924 371.61 238.051 341.553C275.627 279.243 334.082 231.985 402.775 208.054C412.87 204.538 423.313 201.937 433.684 199.37C445.835 196.362 458.612 194.057 471.06 192.711C475.269 192.256 479.53 192.269 483.75 191.913C487.903 191.563 491.984 190.827 496.159 190.637C517.895 189.651 539.434 191.158 560.976 193.918C575.75 195.811 590.155 198.15 604.51 202.195C631.49 209.799 657.98 221.832 681.977 236.286C706.128 250.833 729.452 270.085 748.532 290.779C774.505 318.948 795.763 352.861 810.801 388.034C816.27 400.826 821.261 414.007 824.586 427.529C826.671 436.012 828.154 444.454 829.694 453.038C831.162 461.222 832.751 469.411 833.377 477.715C834.249 489.289 833.902 500.938 833.743 512.534C833.614 522.017 833.703 531.603 832.866 541.055C828.47 590.662 811.765 640.351 785.981 682.872C765.332 716.925 739.028 747.32 706.798 770.885C690.681 782.669 673.17 792.418 655.133 800.906C643.673 806.299 632.013 811.465 620 815.5C609.064 819.173 597.869 821.899 586.691 824.714L585.872 782.423C564.611 781.268 543.724 782.928 522.52 779.65C511.322 777.919 500.772 775.223 489.97 771.784C478.499 768.133 467.605 763.396 456.401 759.073C436.83 751.523 417.375 744.195 398.654 734.665C394.931 732.771 390.374 731.026 387.302 728.179L386.375 726.075L363.762 741.179L337.41 757.321C337.778 749.919 341.658 742.787 343.717 735.704C347.425 722.947 350.394 709.895 353.651 697.012C355.667 689.039 357.771 681.092 359.674 673.091C360.98 667.6 362.436 662.223 362.359 656.542C347.411 662.65 332.295 668.199 317.109 673.678C307.091 677.293 295.827 680.613 286.477 685.662C277.502 687.508 268.527 691.714 259.866 694.811C252.694 697.377 244.363 699.283 237.758 703.019L234.994 703.933C227.035 706.358 218.688 709.998 211.878 714.823C210.453 714.699 208.887 714.506 207.482 714.836C204.797 715.465 202.077 717.198 199.531 718.308C192.811 721.239 185.947 723.843 179.216 726.764C175.867 728.217 172.524 729.585 169.138 730.95C168.123 731.36 166.555 732.235 165.49 732.254C159.116 731.861 149.948 736.462 143.77 738.57C134.432 741.757 125.068 744.878 115.678 747.905C99.5691 753.099 83.2645 757.592 67.0647 762.482C55.1766 766.069 43.0869 770.608 30.8899 772.923C42.3518 757.916 56.506 744.273 69.6088 730.696C88.0952 711.54 106.301 692.137 124.853 673.042C134.82 662.783 145.479 652.977 155.034 642.353L197.008 600.888L201.753 594.835Z"/>
	<path fill="#E73915" transform="scale(0.5 0.5)" d="M355.057 451.762C359.861 446.524 366.1 441.949 371.394 437.118C382.809 426.704 394.053 416.066 405.418 405.589C417.538 394.415 428.714 381.198 442.076 371.53C448.953 366.555 456.257 363.46 464.323 360.973C468.504 361.747 472.901 362.283 476.992 363.414C484.809 365.576 492.27 368.547 500.235 370.208C502.925 370.77 505.808 370.751 508.55 370.871C508.155 372.705 506.369 374.899 505.127 376.324C500.501 381.628 494.498 386.3 488.58 390.097C474.43 399.176 459.329 406.081 444.587 414.046C440.38 416.319 435.835 417.804 432.016 420.735C425.301 423.216 418.53 426.742 411.963 429.71C406.687 432.095 401.262 434.125 395.967 436.466C382.657 442.351 369.237 448.274 355.057 451.762Z"/>
	<path fill="#1E160E" transform="scale(0.5 0.5)" d="M661.564 350.759C676.523 362.064 685.425 380.436 688.003 398.75C691.478 423.447 687.944 447.164 672.579 467.298C667.167 474.389 660.809 480.716 653.969 486.421C651.147 488.776 648.28 491.27 644.983 492.942C639.754 477.857 634.926 463.006 621.5 452.972C620.595 452.928 620.082 452.972 619.244 453.323L619.247 452.832C623.269 445.199 629.019 437.89 633.558 430.469C642.316 416.15 649.087 401.329 655.403 385.81C657.467 380.739 659.881 375.607 661.377 370.337C663.544 366.226 664.956 361.42 666.414 357.002L661.564 350.759Z"/>
	<defs>
		<linearGradient id="gradient_0" gradientUnits="userSpaceOnUse" x1="656.25" y1="371.25" x2="643.25201" y2="454.09399">
			<stop offset="0" stop-color="#E5DEC7"/>
			<stop offset="1" stop-color="#D5D8E5"/>
		</linearGradient>
	</defs>
	<path fill="url(#gradient_0)" transform="scale(0.5 0.5)" d="M577.905 320.405C590.496 320.993 603.298 323.528 615.426 326.935C632.87 331.835 648.428 337.82 661.564 350.759L666.414 357.002C664.956 361.42 663.544 366.226 661.377 370.337C659.881 375.607 657.467 380.739 655.403 385.81C649.087 401.329 642.316 416.15 633.558 430.469C629.019 437.89 623.269 445.199 619.247 452.832C616.869 450.473 615.868 447.57 614.424 444.606C612.913 441.505 611.078 438.462 609.133 435.612C600.517 422.987 587.531 412.811 581.853 398.297C579.982 393.517 579.232 388.838 578.947 383.756C577.548 377.644 578.182 369.746 578.109 363.442C577.945 349.099 577.919 334.75 577.905 320.405Z"/>
	<defs>
		<linearGradient id="gradient_1" gradientUnits="userSpaceOnUse" x1="580.75" y1="321.25" x2="578.349" y2="372.70801">
			<stop offset="0" stop-color="#FFE74D"/>
			<stop offset="1" stop-color="#F5DF9B"/>
		</linearGradient>
	</defs>
	<path fill="url(#gradient_1)" transform="scale(0.5 0.5)" d="M577.905 320.405C590.496 320.993 603.298 323.528 615.426 326.935C632.87 331.835 648.428 337.82 661.564 350.759L666.414 357.002C664.956 361.42 663.544 366.226 661.377 370.337L660.768 369.837C660.577 370.423 660.403 370.95 660.125 371.502C659.181 371.775 659.46 371.827 658.631 371.66L657.997 371.502L657 371.255C655.588 370.514 654.111 370.755 652.5 370.755C650.339 369.314 641.505 370.255 638.5 370.255C637.295 369.452 635.928 369.755 634.5 369.755C632.797 368.62 627.069 369.288 624.656 368.784C624.216 373.293 623.527 376.824 619.921 379.975C616.958 382.563 612.835 383.38 609 382.893C605.196 382.41 601.694 380.185 599.445 377.094C597.868 374.928 597.366 372.786 596.921 370.183L596.195 370.543C594.204 371.438 591.684 370.776 589.495 371.38C588.206 371.736 586.97 371.926 585.648 372.096L585 372.581C583.409 373.699 580.801 373.239 578.871 373.249C578.987 376.667 579.394 380.374 578.947 383.756C577.548 377.644 578.182 369.746 578.109 363.442C577.945 349.099 577.919 334.75 577.905 320.405Z"/>
	<path fill="#1E160E" transform="scale(0.5 0.5)" d="M596.921 370.183C597.231 367.868 597.555 365.651 598.532 363.5C600.099 360.051 603.273 356.935 606.934 355.803C610.055 354.838 613.92 355.554 616.75 357.106C621.278 359.59 623.4 364.046 624.656 368.784C624.216 373.293 623.527 376.824 619.921 379.975C616.958 382.563 612.835 383.38 609 382.893C605.196 382.41 601.694 380.185 599.445 377.094C597.868 374.928 597.366 372.786 596.921 370.183Z"/>
	<path fill="#01B587" transform="scale(0.5 0.5)" d="M355.057 451.762C369.237 448.274 382.657 442.351 395.967 436.466C401.262 434.125 406.687 432.095 411.963 429.71C418.53 426.742 425.301 423.216 432.016 420.735L429.645 423.518C420.805 431.416 413.262 440.248 405.206 448.888C399.135 455.399 392.705 461.674 386.282 467.838C353.077 499.704 318.618 530.234 285.25 561.918C274.002 572.599 262.416 582.939 250.927 593.359C248.204 595.829 245.486 598.304 242.774 600.787C241.506 601.947 239.709 603.202 239.111 604.817C231.516 607.827 224.15 611.522 216.567 614.628C214.18 615.605 209.931 617.886 207.456 617.25L207.34 614.25C206.767 610.107 204.344 605.845 201.139 603.248L200.75 602.94C200.757 601.649 200.523 601.71 199.755 600.75L200.25 600.5L200.255 599.5L199.75 599.245C199.162 599.833 198.633 600.146 197.887 600.49L197.008 600.888L201.753 594.835C208.966 585.745 218.898 577.962 227.406 570.001C245.619 552.959 264.011 536.123 282.264 519.129C299.068 503.485 315.413 487.379 332.245 471.75C339.364 465.14 346.757 456.857 355.057 451.762Z"/>
	<path fill="#FED522" transform="scale(0.5 0.5)" d="M464.323 360.973C469.642 358.915 474.986 356.74 479.828 353.69C486.119 349.727 491.687 344.593 497.93 340.518C521.221 325.318 550.212 317.972 577.905 320.405C577.919 334.75 577.945 349.099 578.109 363.442C578.182 369.746 577.548 377.644 578.947 383.756C579.232 388.838 579.982 393.517 581.853 398.297C587.531 412.811 600.517 422.987 609.133 435.612C611.078 438.462 612.913 441.505 614.424 444.606C615.868 447.57 616.869 450.473 619.247 452.832L619.244 453.323L616.537 464.432L616.131 464.256C612.558 462.674 609.26 460.558 605.698 458.946C591.755 452.64 578.928 450.581 563.742 450.175L567.257 475.024C557.562 474.846 547.646 475.707 538 475.223C536.201 475.132 534.6 474.51 532.846 474.297L498.417 468.399C478.462 464.263 458.995 450.76 443.641 437.778C438.787 433.673 433.133 428.872 429.645 423.518L432.016 420.735C435.835 417.804 440.38 416.319 444.587 414.046C459.329 406.081 474.43 399.176 488.58 390.097C494.498 386.3 500.501 381.628 505.127 376.324C506.369 374.899 508.155 372.705 508.55 370.871C505.808 370.751 502.925 370.77 500.235 370.208C492.27 368.547 484.809 365.576 476.992 363.414C472.901 362.283 468.504 361.747 464.323 360.973Z"/>
	<defs>
		<linearGradient id="gradient_2" gradientUnits="userSpaceOnUse" x1="572.75" y1="451.25" x2="552.24298" y2="781.526">
			<stop offset="0" stop-color="#FF6800"/>
			<stop offset="1" stop-color="#EB3F13"/>
		</linearGradient>
	</defs>
	<path fill="url(#gradient_2)" transform="scale(0.5 0.5)" d="M567.257 475.024L563.742 450.175C578.928 450.581 591.755 452.64 605.698 458.946C609.26 460.558 612.558 462.674 616.131 464.256L616.537 464.432C633.027 479.914 639.193 499.752 639.906 521.906C640.438 538.402 636.88 554.497 631.72 570.08C622.271 598.615 607.861 623.761 587.153 645.66C571.46 662.254 554.119 675.352 533.944 686.089C527.886 689.314 521.822 692.234 515.378 694.631C514.479 694.965 508.201 696.746 507.905 697.141C507.725 697.381 507.907 697.742 507.908 698.043C507.938 707.658 507.881 717.289 508.127 726.9L508.47 736.495L509.402 736.414C515.421 735.919 521.518 736.028 527.556 736.022C537.043 736.014 546.631 736.134 555.75 739.06C563.97 741.698 571.487 746.366 578.035 751.946C588.157 760.57 592.904 771.664 600.506 782.099L585.872 782.423C564.611 781.268 543.724 782.928 522.52 779.65C511.322 777.919 500.772 775.223 489.97 771.784C478.499 768.133 467.605 763.396 456.401 759.073C436.83 751.523 417.375 744.195 398.654 734.665C394.931 732.771 390.374 731.026 387.302 728.179L386.375 726.075L363.762 741.179L337.41 757.321C337.778 749.919 341.658 742.787 343.717 735.704C347.425 722.947 350.394 709.895 353.651 697.012C355.667 689.039 357.771 681.092 359.674 673.091C360.98 667.6 362.436 662.223 362.359 656.542C392.093 644.241 421.032 633.142 447.235 613.924C449.313 613.853 451.663 613.788 453.701 613.332C456.936 612.609 460.299 610.698 463.505 609.627C469.682 607.564 476.058 606.192 482.209 603.999L485.475 600.403L485.889 600.5L486.75 601.054C495.071 594.77 503.205 588.313 511.161 581.574C514.502 578.744 518.165 576.059 521.138 572.848C535.638 557.191 547.478 541.134 556.868 521.864C561.087 513.204 564.877 504.36 566.53 494.81C567.642 488.385 567.481 481.522 567.257 475.024Z"/>
	<defs>
		<linearGradient id="gradient_3" gradientUnits="userSpaceOnUse" x1="470.75" y1="707.75" x2="440.57001" y2="716.633">
			<stop offset="0" stop-color="#0EE6E6"/>
			<stop offset="1" stop-color="#13D8F3"/>
		</linearGradient>
	</defs>
	<path fill="url(#gradient_3)" transform="scale(0.5 0.5)" d="M427.311 707.515C436.967 707.53 446.589 707.029 456.234 706.655C461.533 706.449 466.882 705.869 472.162 706.521L472.053 706.961C470.395 713.998 469.584 721.99 469.404 729.237C460.745 720.005 450.878 713.201 438.5 709.999C434.875 709.061 430.778 708.833 427.311 707.515Z"/>
	<path fill="#FED522" transform="scale(0.5 0.5)" d="M447.235 613.924C449.313 613.853 451.663 613.788 453.701 613.332C456.936 612.609 460.299 610.698 463.505 609.627C469.682 607.564 476.058 606.192 482.209 603.999C481.229 612.919 480.873 621.885 480.187 630.829C478.852 648.255 477.366 665.781 475.323 683.138C474.402 690.965 473.904 698.81 472.162 706.521C466.882 705.869 461.533 706.449 456.234 706.655C446.589 707.029 436.967 707.53 427.311 707.515C425.193 707.277 422.121 706.655 420.067 707.223C417.615 707.901 415.182 709.64 412.917 710.8C403.93 715.404 394.468 719.991 386.375 726.075L363.762 741.179L337.41 757.321C337.778 749.919 341.658 742.787 343.717 735.704C347.425 722.947 350.394 709.895 353.651 697.012C355.667 689.039 357.771 681.092 359.674 673.091C360.98 667.6 362.436 662.223 362.359 656.542C392.093 644.241 421.032 633.142 447.235 613.924Z"/>
	<path fill="#1F89F8" transform="scale(0.5 0.5)" d="M239.111 604.817C239.709 603.202 241.506 601.947 242.774 600.787C245.486 598.304 248.204 595.829 250.927 593.359C262.416 582.939 274.002 572.599 285.25 561.918C318.618 530.234 353.077 499.704 386.282 467.838C392.705 461.674 399.135 455.399 405.206 448.888C413.262 440.248 420.805 431.416 429.645 423.518C433.133 428.872 438.787 433.673 443.641 437.778C458.995 450.76 478.462 464.263 498.417 468.399L532.846 474.297C534.6 474.51 536.201 475.132 538 475.223C547.646 475.707 557.562 474.846 567.257 475.024C567.481 481.522 567.642 488.385 566.53 494.81C564.877 504.36 561.087 513.204 556.868 521.864C547.478 541.134 535.638 557.191 521.138 572.848C518.165 576.059 514.502 578.744 511.161 581.574C503.205 588.313 495.071 594.77 486.75 601.054L485.889 600.5L485.475 600.403L482.209 603.999C476.058 606.192 469.682 607.564 463.505 609.627C460.299 610.698 456.936 612.609 453.701 613.332C451.663 613.788 449.313 613.853 447.235 613.924C421.032 633.142 392.093 644.241 362.359 656.542C347.411 662.65 332.295 668.199 317.109 673.678C307.091 677.293 295.827 680.613 286.477 685.662C277.502 687.508 268.527 691.714 259.866 694.811C252.694 697.377 244.363 699.283 237.758 703.019L234.994 703.933C227.035 706.358 218.688 709.998 211.878 714.823C210.453 714.699 208.887 714.506 207.482 714.836C204.797 715.465 202.077 717.198 199.531 718.308C192.811 721.239 185.947 723.843 179.216 726.764C175.867 728.217 172.524 729.585 169.138 730.95C168.123 731.36 166.555 732.235 165.49 732.254C159.116 731.861 149.948 736.462 143.77 738.57C134.432 741.757 125.068 744.878 115.678 747.905C99.5691 753.099 83.2645 757.592 67.0647 762.482C55.1766 766.069 43.0869 770.608 30.8899 772.923C42.3518 757.916 56.506 744.273 69.6088 730.696C88.0952 711.54 106.301 692.137 124.853 673.042C134.82 662.783 145.479 652.977 155.034 642.353L197.008 600.888L197.887 600.49C198.633 600.146 199.162 599.833 199.75 599.245L200.255 599.5L200.25 600.5L199.755 600.75C200.523 601.71 200.757 601.649 200.75 602.94L201.139 603.248C204.344 605.845 206.767 610.107 207.34 614.25L207.456 617.25C209.931 617.886 214.18 615.605 216.567 614.628C224.15 611.522 231.516 607.827 239.111 604.817Z"/>
	<path fill="#FDE163" transform="scale(0.5 0.5)" d="M239.111 604.817C239.709 603.202 241.506 601.947 242.774 600.787C245.486 598.304 248.204 595.829 250.927 593.359C262.416 582.939 274.002 572.599 285.25 561.918C318.618 530.234 353.077 499.704 386.282 467.838C392.705 461.674 399.135 455.399 405.206 448.888C413.262 440.248 420.805 431.416 429.645 423.518C433.133 428.872 438.787 433.673 443.641 437.778C458.995 450.76 478.462 464.263 498.417 468.399L532.846 474.297C534.6 474.51 536.201 475.132 538 475.223C547.646 475.707 557.562 474.846 567.257 475.024C567.481 481.522 567.642 488.385 566.53 494.81C564.877 504.36 561.087 513.204 556.868 521.864C547.478 541.134 535.638 557.191 521.138 572.848C518.165 576.059 514.502 578.744 511.161 581.574C503.205 588.313 495.071 594.77 486.75 601.054L485.889 600.5L485.475 600.403L482.209 603.999C476.058 606.192 469.682 607.564 463.505 609.627C460.299 610.698 456.936 612.609 453.701 613.332C451.663 613.788 449.313 613.853 447.235 613.924C454.57 607.417 460.859 600.134 467.262 592.73C474.864 583.939 482.392 575.108 489.037 565.556C501.338 547.871 511.726 527.765 519.636 507.768C523.769 497.321 526.387 486.359 530.176 475.772C527.9 476.489 525.569 478.745 523.832 480.327C520.874 483.021 517.934 485.695 514.868 488.269C509.269 492.968 503.641 497.567 497.719 501.858C489.734 507.644 481.466 512.506 472.626 516.879C432.092 536.929 389.678 552.66 347.07 567.632C338.654 570.589 330.369 573.887 321.941 576.821C305.765 582.452 289.505 587.596 273.191 592.791C261.986 596.36 251.108 601.306 239.881 604.595L239.111 604.817Z"/>
</svg>
