<?xml version="1.0" encoding="utf-8" ?>
<svg xmlns="http://www.w3.org/2000/svg" xmlns:xlink="http://www.w3.org/1999/xlink" width="512" height="512">
	<path fill="#0B1236" transform="scale(0.5 0.5)" d="M160.564 680.616C167.325 676.992 175.388 675.942 182.703 673.741C189.986 671.549 197.017 668.531 204.297 666.277C218.982 661.731 233.643 659.412 248.895 657.855C251.982 657.54 256.849 656.316 259.772 657.007C254.422 664.143 250.585 672.289 245.182 679.453C228.454 701.629 211.287 723.445 195.051 746.007C188.061 755.721 180.71 764.338 175.362 775.151C174.571 777.742 173.55 780.383 171.879 782.546C169.468 789.208 165.794 795.997 162.115 802.031C160.43 804.793 157.316 808.469 156.277 811.417C145.828 812.063 133.764 812.58 123.398 811.053L20.5352 896.852C17.0532 899.907 14.8865 901.686 10.0221 901.367L9.8095 900.75L161.254 691.307L159.35 682.483L160.564 680.616ZM162.705 776.853C166.362 778.043 168.733 780.561 171.879 782.546C173.55 780.383 174.571 777.742 175.362 775.151C173.441 773.736 171.704 772.597 169.505 771.631L162.705 776.853Z"/>
	<path fill="#04A3FE" transform="scale(0.5 0.5)" d="M162.705 776.853C166.362 778.043 168.733 780.561 171.879 782.546C169.468 789.208 165.794 795.997 162.115 802.031C160.43 804.793 157.316 808.469 156.277 811.417C145.828 812.063 133.764 812.58 123.398 811.053C125.365 809.62 129.247 805.986 131.5 805.845C133.245 802.937 136.156 800.327 138.491 797.859C145.915 790.013 153.565 782.708 162.705 776.853Z"/>
	<path fill="#FEE28D" transform="scale(0.5 0.5)" d="M239.496 229.759C258.723 209.833 282.307 191.891 305.759 177.173C352.512 147.832 405.359 129.867 459.52 120.245C483.334 116.014 507.474 113.148 531.672 115.749C548.429 117.55 565.976 120.776 582.284 124.973C591.06 127.232 599.597 130.185 608.303 132.662C616.861 135.096 625.532 137.067 634.203 139.052C625.82 152.732 623.015 168.227 622.305 184.043C621.94 192.177 622.055 200.612 623.947 208.572C624.67 211.617 625.617 214.67 626.786 217.572C627.348 218.968 628.939 221.927 628.885 223.25C628.862 223.81 628.583 224.33 628.431 224.869C625.383 222.604 622.977 219.25 620.192 216.626C611.913 208.825 603.463 201.04 594.028 194.661C590.199 190.875 585.792 187.343 580.919 184.996C567.818 178.686 553.124 177.214 538.799 176.433C509.299 174.823 481.062 177.752 452 182.491C442.464 184.046 431.633 185.032 422.528 188.27C394.963 194.856 369.342 206.556 344.611 220.207C337.384 224.196 330.412 228.97 323.117 232.746C320.891 232.682 319.08 233.887 317 234.495C308.921 236.86 300.481 237.549 292.185 238.794C283.081 240.161 274.059 241.584 264.858 242.136C262.074 242.303 258.775 242.805 256.111 241.838C250.382 239.757 246.011 233.099 240.34 230.179L239.496 229.759Z"/>
	<path fill="#FDB23F" transform="scale(0.5 0.5)" d="M159.35 682.483C144.353 650.72 129.932 618.865 122.568 584.297C118.303 564.277 116.593 543.985 115.879 523.565C115.158 502.94 115.557 482.398 118.543 461.95C121.885 439.058 127.488 416.467 135.057 394.616C138.544 384.548 142.788 374.682 146.777 364.801C152.112 351.589 157.419 338.251 164.498 325.854C177.59 302.924 193.134 282.49 209.914 262.215C215.228 255.794 220.802 249.617 226.322 243.375C230.444 238.714 234.48 233.494 239.496 229.759L240.34 230.179C246.011 233.099 250.382 239.757 256.111 241.838C258.775 242.805 262.074 242.303 264.858 242.136C274.059 241.584 283.081 240.161 292.185 238.794C300.481 237.549 308.921 236.86 317 234.495C319.08 233.887 320.891 232.682 323.117 232.746C303.858 248.873 283.486 263.754 266.207 282.086C256.578 291.671 249 302.281 240.795 313.019C233.536 322.522 226.305 331.844 220.002 342.029C212.804 353.659 206.959 366.499 201.432 379C192.888 398.324 185.31 418.39 180.531 439C174.966 463.002 173.115 487.664 173.074 512.259C173.042 531.519 174.68 551.292 177.954 570.273C180.228 583.452 183.441 596.442 185.824 609.598C187.516 618.944 187.721 628.852 189.78 638.032C183.667 646.591 178.094 655.481 172.088 664.103C168.565 669.16 162.984 675.05 160.564 680.616L159.35 682.483Z"/>
	<path fill="#F64509" transform="scale(0.5 0.5)" d="M355.606 465.941C373.877 467.113 393.001 465.845 411.331 465.217C421.24 464.878 432.307 463.065 441.981 465.38C449.433 467.163 455.33 471.064 460.761 476.34C474.211 480.544 485.816 488.822 496.797 497.475L505.044 507.805C515.384 524.868 522.448 542.256 526.656 561.807C528.307 569.48 529.72 579.552 527.831 587.288C526.121 594.292 522.215 600.844 518.881 607.18C510.043 623.974 500.019 640.608 488.321 655.591C480.699 665.352 472.176 674.334 463.655 683.304C460.754 686.358 457.822 689.316 454.656 692.099C452.111 694.335 446.829 697.766 445.395 700.667C439.54 705.115 433.107 708.969 426.928 712.953C417.701 718.904 408.55 724.804 398.862 729.996C391.087 734.163 382.566 737.392 375.243 742.311L342.232 757.054C334.742 760.044 327.091 762.488 319.522 765.25C315.493 766.72 311.146 768.962 307.002 769.921L305.066 771.25L305.079 771.938L305.073 773.688C305.039 777.816 302.152 780.784 299.757 783.892C297.303 787.076 294.875 790.255 292.935 793.788C290.091 798.966 288.577 804.872 285.203 809.739C283.37 811.129 282.223 812.375 280.924 814.259L280.584 814.735C273.178 826.56 267.103 839.205 260.212 851.34C246.915 874.757 233.324 898.03 220.286 921.591C218.258 925.255 216.387 929.27 213.972 932.685C213.197 933.78 210.182 936.681 209.887 937.716C209.677 938.452 209.936 940.283 209.947 941.119C209.992 944.452 210.337 947.838 209.115 951L208.894 951.581C208.517 952.523 208.296 952.819 207.5 953.471C205.381 952.288 203.456 950.327 201.972 948.418C194.296 959.753 182.678 967.581 172.383 976.369C163.812 983.685 155.508 991.276 146.5 998.069C138.814 1003.86 129.909 1009.02 123.223 1015.96C120.913 1018.36 119.748 1020.92 118.684 1024L114.315 1024L124.16 961.346C115.356 967.917 106.947 975.047 98.24 981.752C86.6504 990.678 74.8264 999.239 63.405 1008.39C58.8733 1012.03 54.494 1015.92 50.1499 1019.77C48.7299 1021.04 47.4698 1022.89 45.8085 1023.74C49.4937 1012.61 55.9591 1002.09 61.7038 991.933C65.7264 984.82 69.4601 977.494 73.287 970.273C79.1122 959.283 84.2047 947.934 89.8698 936.865C103.97 909.315 118.504 881.978 132.712 854.483C140.276 839.846 149.971 826.783 156.277 811.417C157.316 808.469 160.43 804.793 162.115 802.031C165.794 795.997 169.468 789.208 171.879 782.546C173.55 780.383 174.571 777.742 175.362 775.151C180.71 764.338 188.061 755.721 195.051 746.007C211.287 723.445 228.454 701.629 245.182 679.453C250.585 672.289 254.422 664.143 259.772 657.007C256.849 656.316 251.982 657.54 248.895 657.855C233.643 659.412 218.982 661.731 204.297 666.277C197.017 668.531 189.986 671.549 182.703 673.741C175.388 675.942 167.325 676.992 160.564 680.616C162.984 675.05 168.565 669.16 172.088 664.103C178.094 655.481 183.667 646.591 189.78 638.032C195.349 631.618 201.42 625.673 206.75 619.041C218.419 604.52 228.962 589.118 240.518 574.5C256.368 554.45 272.825 534.89 288.649 514.815C294.961 506.807 301.452 498.943 307.622 490.823C314.384 481.923 320.849 472.014 329.061 464.401L354.348 465.927L355.606 465.941Z"/>
	<path transform="scale(0.5 0.5)" d="M201.972 948.418C201.695 944.604 202.351 940.649 202.835 936.871C203.517 931.552 204.232 926.122 205.671 920.943C210.054 905.157 218.497 889.824 225.671 875.135C232.06 862.054 238.538 848.996 244.667 835.792C246.799 831.199 248.895 826.588 251.037 822C252.032 819.867 253.478 817.554 254.013 815.27C242.337 818.295 230.372 818.001 218.422 818.827C211.313 819.319 204.176 819.814 197.052 819.96C193.73 820.028 189.733 820.393 186.6 819.25L186.585 818.25C192.334 812.992 200.261 810.173 207.288 807.03C227.856 797.832 248.891 790.472 269.974 782.636C281.925 778.195 294.327 771.588 307.002 769.921L305.066 771.25L305.079 771.938L305.073 773.688C305.039 777.816 302.152 780.784 299.757 783.892C297.303 787.076 294.875 790.255 292.935 793.788C290.091 798.966 288.577 804.872 285.203 809.739C283.37 811.129 282.223 812.375 280.924 814.259L280.584 814.735C273.178 826.56 267.103 839.205 260.212 851.34C246.915 874.757 233.324 898.03 220.286 921.591C218.258 925.255 216.387 929.27 213.972 932.685C213.197 933.78 210.182 936.681 209.887 937.716C209.677 938.452 209.936 940.283 209.947 941.119C209.992 944.452 210.337 947.838 209.115 951L208.894 951.581C208.517 952.523 208.296 952.819 207.5 953.471C205.381 952.288 203.456 950.327 201.972 948.418Z"/>
	<path fill="#D0002A" transform="scale(0.5 0.5)" d="M355.606 465.941C373.877 467.113 393.001 465.845 411.331 465.217C421.24 464.878 432.307 463.065 441.981 465.38C449.433 467.163 455.33 471.064 460.761 476.34L460.897 476.954C461.69 480.425 463.193 483.556 464.286 486.927C465.896 491.89 466.952 496.925 467.695 502.079C470.662 522.668 459.144 544.117 449.258 561.319C443.714 570.966 437.885 580.519 431.167 589.403C424.238 598.566 416.274 607.133 408.106 615.197C402.845 620.392 397.183 625.9 391.254 630.313C386.745 633.669 381.639 636.311 376.728 639.023C362.777 646.726 348.621 652.915 332.718 655.117C313.896 657.724 294.86 656.969 275.911 656.85C270.711 656.817 264.875 657.548 259.772 657.007C256.849 656.316 251.982 657.54 248.895 657.855C233.643 659.412 218.982 661.731 204.297 666.277C197.017 668.531 189.986 671.549 182.703 673.741C175.388 675.942 167.325 676.992 160.564 680.616C162.984 675.05 168.565 669.16 172.088 664.103C178.094 655.481 183.667 646.591 189.78 638.032C195.349 631.618 201.42 625.673 206.75 619.041C218.419 604.52 228.962 589.118 240.518 574.5C256.368 554.45 272.825 534.89 288.649 514.815C294.961 506.807 301.452 498.943 307.622 490.823C314.384 481.923 320.849 472.014 329.061 464.401L354.348 465.927L355.606 465.941Z"/>
	<defs>
		<linearGradient id="gradient_0" gradientUnits="userSpaceOnUse" x1="467.75" y1="180.75" x2="549.81097" y2="718.43298">
			<stop offset="0" stop-color="#DBEBD6"/>
			<stop offset="1" stop-color="#8DD9E8"/>
		</linearGradient>
	</defs>
	<path fill="url(#gradient_0)" transform="scale(0.5 0.5)" d="M422.528 188.27C431.633 185.032 442.464 184.046 452 182.491C481.062 177.752 509.299 174.823 538.799 176.433C553.124 177.214 567.818 178.686 580.919 184.996C585.792 187.343 590.199 190.875 594.028 194.661C603.463 201.04 611.913 208.825 620.192 216.626C622.977 219.25 625.383 222.604 628.431 224.869C628.951 225.08 629.533 225.176 629.991 225.5C630.626 225.95 631.517 227.493 632.037 228.193C633.84 230.617 635.516 233.127 637.392 235.497C645.646 245.925 654.789 255.906 664.969 264.475C668.813 267.71 672.713 271.029 677.217 273.309C689.167 279.359 701.811 282.607 715 284.519C722.275 285.574 729.592 285.688 736.927 285.914C740.453 286.022 746.332 285.623 749.568 286.834C750.275 287.099 751.369 288.16 752.044 288.627L752.461 289.209C755.702 293.662 759.814 297.235 763.76 301.035C770.823 307.837 778.378 314.808 784.63 322.357C793.116 332.602 800.14 343.866 807.121 355.153C814.624 367.284 822.227 379.693 828.352 392.589C835.591 407.831 840.72 424.238 844.828 440.568C848.457 454.995 851.324 469.627 852.238 484.502C852.844 494.378 853.433 504.293 853.46 514.19C853.476 519.901 852.836 525.665 853.041 531.356C853.086 532.624 853.178 533.435 853.75 534.56C855.601 533.596 857.166 531.966 858.841 530.704C862.27 528.12 866.212 526.153 870.57 525.909L870.738 526.21L867.107 527.72C864.827 528.785 862.93 530.004 860.836 531.362C859.142 532.46 857.71 533.856 856.136 535.106C855.067 535.955 853.933 537.46 853.357 538.69C851.724 540.56 850.811 543.018 849.831 545.278C845.814 554.538 845.312 564.942 844.108 574.821L836.39 609.584C832.524 610.615 828.726 611.895 824.862 612.904C818.472 614.572 811.495 616.17 805.729 619.456C799.718 622.881 794.315 628.364 789.411 633.21C778.462 644.03 768.457 655.74 758.326 667.316C751.376 675.257 743.968 682.963 737.782 691.525C734.016 687.177 729.857 683.244 725.91 679.068C717.143 669.792 708.321 660.415 699.795 650.918C694.207 644.694 688.67 638.415 683.273 632.026C678.702 626.614 674.538 620.614 668.983 616.158C664.37 612.457 657.859 609.884 652 609.481C639.444 608.617 629.126 613.049 619.916 621.417C608.522 631.768 599.337 644.28 589.104 655.725C574.529 672.027 559.334 687.513 544.055 703.131C540.811 706.446 537.684 709.88 534.531 713.281C532.715 715.24 530.899 717.517 528.601 718.93C524.619 717.059 520.358 716.293 516.094 715.355C509.579 713.921 503.137 712.66 496.464 712.224C488.935 711.731 481.406 712.165 473.879 712.429L473.78 711.493C472.954 707.354 469.602 701.994 465.814 700.097C461.717 698.047 454.351 697.469 450.007 699.066L445.395 700.667C446.829 697.766 452.111 694.335 454.656 692.099C457.822 689.316 460.754 686.358 463.655 683.304C472.176 674.334 480.699 665.352 488.321 655.591C500.019 640.608 510.043 623.974 518.881 607.18C522.215 600.844 526.121 594.292 527.831 587.288C529.72 579.552 528.307 569.48 526.656 561.807C522.448 542.256 515.384 524.868 505.044 507.805L496.797 497.475C485.816 488.822 474.211 480.544 460.761 476.34C455.33 471.064 449.433 467.163 441.981 465.38C432.307 463.065 421.24 464.878 411.331 465.217C393.001 465.845 373.877 467.113 355.606 465.941L354.348 465.927L329.061 464.401C320.849 472.014 314.384 481.923 307.622 490.823C301.452 498.943 294.961 506.807 288.649 514.815C272.825 534.89 256.368 554.45 240.518 574.5C228.962 589.118 218.419 604.52 206.75 619.041C201.42 625.673 195.349 631.618 189.78 638.032C187.721 628.852 187.516 618.944 185.824 609.598C183.441 596.442 180.228 583.452 177.954 570.273C174.68 551.292 173.042 531.519 173.074 512.259C173.115 487.664 174.966 463.002 180.531 439C185.31 418.39 192.888 398.324 201.432 379C206.959 366.499 212.804 353.659 220.002 342.029C226.305 331.844 233.536 322.522 240.795 313.019C249 302.281 256.578 291.671 266.207 282.086C283.486 263.754 303.858 248.873 323.117 232.746C330.412 228.97 337.384 224.196 344.611 220.207C369.342 206.556 394.963 194.856 422.528 188.27Z"/>
	<path fill="#E8F4CE" transform="scale(0.5 0.5)" d="M422.528 188.27C431.633 185.032 442.464 184.046 452 182.491C481.062 177.752 509.299 174.823 538.799 176.433C553.124 177.214 567.818 178.686 580.919 184.996C585.792 187.343 590.199 190.875 594.028 194.661L592.088 193.921L591.25 193.745C589.337 191.574 587.155 189.997 584.875 188.248C584.097 187.651 583.65 187.282 582.711 186.966L582 186.745L581.255 186.25L580 185.745C579.294 185.344 579.09 185.007 578.251 184.726C576.683 184.199 575.106 183.313 573.503 182.998C572.806 182.86 572.528 182.797 571.937 182.357L571.5 182L569 181.745C567.512 181.092 568.952 181.313 567.628 181.179L567 181.123L566.255 180.75C565.714 180.587 564.85 180.646 564.25 180.5L563 180.123L562.25 180.245L561.25 179.5L560 179.745L559.255 179.25C558.316 179.268 557.41 179.292 556.503 178.998C555.23 178.584 554.518 178.573 553.156 178.684L552.5 178.745C551.197 177.708 549.102 178.163 547.5 178.245L547 177.75L540.5 177.745C539.454 176.709 535.394 177.356 533.736 177.182C532.939 177.098 532.359 176.975 531.549 177.107C526.772 177.887 521.539 176.977 516.75 177C513.776 177.014 510.266 176.75 507.334 177.056C506.439 177.149 505.771 177.287 504.859 177.138L504.25 177L504.125 178.375L504.75 177.755L505.498 178.625L505.5 179.255L506.125 179.875L506.75 179.255L507.125 180.375L507.625 180.002L508 180.25L508.75 180.255L509.998 181.625L509.75 182L509.375 182.875L508.125 182.625L508.245 183.5L507.625 184.125L507.745 185.25L506.498 186.498L505.75 186.5C504.999 187.618 504.514 187.236 503.75 188C503.05 188.7 503.061 189.426 502 190.25C501.752 190.443 501.309 190.72 501.123 191L500.75 191.745L500.375 191.125L499.75 191.745L499 191L498.375 191.498L498 191.25L497.25 191.245L496.002 189.875C495.555 189.194 495.88 188.484 496 187.75L495.375 187.125L494.75 187.745L493.875 186.625L493.375 186.998L491.875 186.125L491.375 186.498C490.716 186.498 490.452 185.95 490 185.5L489.25 186.245C488.774 185.529 488.328 184.799 488.002 183.998C487.66 183.153 487.659 183.098 487 182.5L486.25 183.245L485.5 182.5L484.875 182.998L484.377 182.5L484 182L483.25 182.745L481.002 180.375L480.877 179.5L479.75 179C478.85 179.099 478.533 179.171 477.797 179.76L477.25 180.245L474.75 179.745L474.25 180.245C473.435 180.176 472.283 179.967 471.5 180.245L470.75 180.745C469.626 180.726 468.59 180.669 467.498 180.998C466.494 181.299 467.012 181.311 465.953 181.138L465.25 181C464.096 181.773 463.141 181.717 461.808 181.74L461.25 181.745L460.75 182.245C460.046 182.159 459.185 182.001 458.5 182.245C457.211 182.704 456.947 182.745 455.5 182.745L454.75 183.245C454.046 183.159 453.185 183.001 452.5 183.245L451.75 183.745C450.705 183.655 449.791 183.606 448.75 183.745C447.958 184.537 447.085 184.245 446 184.245C444.934 184.956 444.244 184.745 443 184.745C441.976 185.428 441.691 185.245 440.5 185.245L439.75 185.745C439.046 185.659 438.185 185.501 437.5 185.745C436.334 186.16 436.342 186.245 435 186.245C433.935 186.955 433.497 186.745 432.25 186.745C431.458 187.537 430.585 187.245 429.5 187.245L428.75 187.745L427.75 187.5L426.75 188.245L425.5 188C424.603 188.598 424.053 188.688 423.015 188.905L422.528 188.27Z"/>
	<path fill="#F0F9F9" transform="scale(0.5 0.5)" d="M298.149 279.823C312.468 278.085 342.763 273.66 354.452 282.979C356.438 284.562 357.89 286.202 358.512 288.701C358.745 289.64 359.445 291.651 360.126 292.312L340.579 308.38C340.176 307.761 340.141 307.908 340.25 307.031C340.371 306.056 340.593 306.187 340.5 305C339.955 304.176 339.699 303.895 338.805 303.414C338.069 303.018 337.78 302.871 337.25 302.255L337.245 301.75L336.5 301C335.88 300.493 335.591 300.354 335.039 299.68C334.122 298.558 333.212 297.781 331.984 297L331.375 296.625C330.859 295.422 328.948 294.737 327.875 293.528L327.375 294.375L326.375 293.529L325.75 294L325.375 293.125C324.335 293.274 324.795 293.25 324 293.25L323.25 292L322.375 292.375L321.5 292L320.75 291.5L319.625 291.875C318.518 291.401 318.287 291.032 317.547 290.14L317.25 289.776L316.875 290.875C316.199 290.427 315.569 290.024 314.828 289.688C312.552 288.653 309.219 287.501 308.062 285.188L307.75 284.5L306.875 284.875L306.375 284.625L306 283.75L305.25 283.5L305 282.75L304.25 282.5L303.875 281.625L303.25 282.245L302.502 281.998C302.499 281.052 302.318 280.922 301.875 280.125C300.795 280.148 299.739 280.208 298.676 279.972L298.149 279.823Z"/>
	<path transform="scale(0.5 0.5)" d="M591.808 415.729C608.73 418.095 623.976 428.681 634.101 442.2C645.69 457.675 653.116 474.743 655.68 493.916C656.671 501.321 656.752 508.849 657.045 516.306C657.439 526.362 657.962 536.522 657.875 546.585C643.851 541.44 630.239 535.231 616.293 529.873C606.198 525.995 596.011 522.308 585.836 518.645C573.896 514.346 562.082 510.944 551.79 503.204C546.31 496.278 542.78 486.387 541.133 477.761C540.523 474.566 538.791 466.592 540.673 463.958L541.014 463.5L541.39 462.881C544.16 458.388 548.187 454.339 551.556 450.27C559.414 440.775 567.572 428.858 577.678 421.74C582.091 418.632 586.593 416.971 591.808 415.729Z"/>
	<path fill="#092958" transform="scale(0.5 0.5)" d="M426.038 257.659C435.548 253.077 445.988 250.342 456.269 248.097C492.927 240.089 529.709 241.892 565.178 254.294C580.28 259.574 595.575 266.295 609.048 274.982C639.153 294.393 661.561 323.199 676.875 355.263C683.416 368.958 688.986 384.072 691.791 399.025C693.124 406.13 693.632 413.217 694.096 420.417C677.899 393.638 645.865 372.334 615.864 364.875C611.081 363.685 606.144 362.749 601.211 362.549C597.631 362.404 577.604 363.605 576.567 363.105C574.732 362.222 569.827 353.712 568.049 351.516C565.845 348.794 562.845 345.902 560.132 343.68C539.446 323.119 507.929 319.89 480.332 319.22C476.74 319.133 473.157 319.06 469.567 319.223C467.487 319.317 464.538 319.873 462.603 319.32L461.941 319.057L460.591 318.552C464.147 316.251 467.569 313.675 471.161 311.458C477.488 307.553 485.105 304.198 490.514 299.082C490.407 298.146 490.309 297.333 489.713 296.552C488.039 294.361 485.318 292.472 483.186 290.729C478.448 286.856 473.631 283.094 468.788 279.356C465.628 276.917 462.229 273.596 458.623 271.914C455.843 270.618 453.248 270.472 450.245 270.324C447.709 270.199 444.702 270.338 442.267 269.671C437.085 268.25 431.002 262.877 426.845 259.543L426.038 257.659Z"/>
	<path fill="#0A5587" transform="scale(0.5 0.5)" d="M426.845 259.543L428.163 259.258C433.086 262.471 438.142 266.646 444.131 267.376C447.8 267.823 451.398 267.946 455.002 268.834L455.667 268.982C461.218 270.273 487.35 290.745 490.522 295.75C491.022 296.538 491.272 297.327 491.417 298.236L490.514 299.082C490.407 298.146 490.309 297.333 489.713 296.552C488.039 294.361 485.318 292.472 483.186 290.729C478.448 286.856 473.631 283.094 468.788 279.356C465.628 276.917 462.229 273.596 458.623 271.914C455.843 270.618 453.248 270.472 450.245 270.324C447.709 270.199 444.702 270.338 442.267 269.671C437.085 268.25 431.002 262.877 426.845 259.543Z"/>
	<path fill="#04A3FE" transform="scale(0.5 0.5)" d="M460.591 318.552L461.941 319.057L462.603 319.32C464.538 319.873 467.487 319.317 469.567 319.223C473.157 319.06 476.74 319.133 480.332 319.22C507.929 319.89 539.446 323.119 560.132 343.68C560.667 348.03 567.331 352.876 569.747 356.589C573.966 363.072 576.712 370.692 580.641 377.411C583.806 382.824 599.827 403.195 598.941 408.669C598.886 409.01 597.941 410.025 597.675 410.366C596.068 412.425 594.017 414.342 591.808 415.729C586.593 416.971 582.091 418.632 577.678 421.74C567.572 428.858 559.414 440.775 551.556 450.27C548.187 454.339 544.16 458.388 541.39 462.881L541.014 463.5L540.673 463.958C538.791 466.592 540.523 474.566 541.133 477.761C542.78 486.387 546.31 496.278 551.79 503.204C545.881 505.655 540.069 507.166 533.769 508.203C524.756 509.687 514.137 508.379 505.044 507.805L496.797 497.475C485.816 488.822 474.211 480.544 460.761 476.34C455.33 471.064 449.433 467.163 441.981 465.38C432.307 463.065 421.24 464.878 411.331 465.217C393.001 465.845 373.877 467.113 355.606 465.941L354.348 465.927C351.491 452.169 343.503 441.603 337.38 429.255C330.281 414.936 325.797 399.294 314.956 387.072L315.653 386.058C321.043 378.732 330.122 372.413 337.4 367.04C343.833 362.291 350.447 357.548 357.351 353.518C364.496 349.347 372.028 345.853 379.469 342.248C390.934 336.694 402.231 331.633 414.51 328.093C429.669 323.723 445.072 321.198 460.591 318.552Z"/>
	<path fill="#FDB23F" transform="scale(0.5 0.5)" d="M355.606 465.941C356.81 458.362 360.775 452.935 365.575 447.189C374.099 436.985 384.356 428.398 394.812 420.253C400.182 416.07 405.538 411.835 411.042 407.829C440.809 386.164 477.891 362.859 516.22 369.058C525.468 370.554 535.905 373.27 541.728 381.238C546.174 387.32 547.561 396.833 546.208 404.112C544.914 411.074 542.06 417.777 539.032 424.143C534.725 433.2 529.253 441.587 524.372 450.331C519.618 458.847 514.82 467.338 510.1 475.873C506.277 482.788 502.348 491.807 496.797 497.475C485.816 488.822 474.211 480.544 460.761 476.34C455.33 471.064 449.433 467.163 441.981 465.38C432.307 463.065 421.24 464.878 411.331 465.217C393.001 465.845 373.877 467.113 355.606 465.941Z"/>
	<path transform="scale(0.5 0.5)" d="M510.269 392.594C512.823 392.404 515.674 392.202 518.145 392.968C523.239 394.545 526.99 398.96 529.215 403.644C530.845 407.074 531.594 410.904 530.076 414.508C527.908 419.655 522.324 422.45 517.423 424.348C513.328 424.982 509.916 424.872 506.045 423.257C502.278 421.685 499.228 418.545 497.767 414.738C496.226 410.722 496.834 405.957 498.71 402.158C501.253 397.003 505.057 394.486 510.269 392.594Z"/>
	<defs>
		<linearGradient id="gradient_1" gradientUnits="userSpaceOnUse" x1="190.75" y1="633.75" x2="255.911" y2="271.99301">
			<stop offset="0" stop-color="#6EE3F4"/>
			<stop offset="1" stop-color="#DAEFF2"/>
		</linearGradient>
	</defs>
	<path fill="url(#gradient_1)" transform="scale(0.5 0.5)" d="M360.126 292.312C372.62 284.132 385.362 275.118 398.75 268.499C407.486 264.18 416.899 261.039 426.038 257.659L426.845 259.543C431.002 262.877 437.085 268.25 442.267 269.671C444.702 270.338 447.709 270.199 450.245 270.324C453.248 270.472 455.843 270.618 458.623 271.914C462.229 273.596 465.628 276.917 468.788 279.356C473.631 283.094 478.448 286.856 483.186 290.729C485.318 292.472 488.039 294.361 489.713 296.552C490.309 297.333 490.407 298.146 490.514 299.082C485.105 304.198 477.488 307.553 471.161 311.458C467.569 313.675 464.147 316.251 460.591 318.552C445.072 321.198 429.669 323.723 414.51 328.093C402.231 331.633 390.934 336.694 379.469 342.248C372.028 345.853 364.496 349.347 357.351 353.518C350.447 357.548 343.833 362.291 337.4 367.04C330.122 372.413 321.043 378.732 315.653 386.058L314.956 387.072C325.797 399.294 330.281 414.936 337.38 429.255C343.503 441.603 351.491 452.169 354.348 465.927L329.061 464.401C320.849 472.014 314.384 481.923 307.622 490.823C301.452 498.943 294.961 506.807 288.649 514.815C272.825 534.89 256.368 554.45 240.518 574.5C228.962 589.118 218.419 604.52 206.75 619.041C201.42 625.673 195.349 631.618 189.78 638.032C187.721 628.852 187.516 618.944 185.824 609.598C183.441 596.442 180.228 583.452 177.954 570.273C174.68 551.292 173.042 531.519 173.074 512.259C173.115 487.664 174.966 463.002 180.531 439C185.31 418.39 192.888 398.324 201.432 379C206.959 366.499 212.804 353.659 220.002 342.029C226.305 331.844 233.536 322.522 240.795 313.019C249 302.281 256.578 291.671 266.207 282.086C270.448 283.158 275.613 281.982 279.944 281.508C286.006 280.844 292.068 280.28 298.149 279.823L298.676 279.972C299.739 280.208 300.795 280.148 301.875 280.125C302.318 280.922 302.499 281.052 302.502 281.998L303.25 282.245L303.875 281.625L304.25 282.5L305 282.75L305.25 283.5L306 283.75L306.375 284.625L306.875 284.875L307.75 284.5L308.062 285.188C309.219 287.501 312.552 288.653 314.828 289.688C315.569 290.024 316.199 290.427 316.875 290.875L317.25 289.776L317.547 290.14C318.287 291.032 318.518 291.401 319.625 291.875L320.75 291.5L321.5 292L322.375 292.375L323.25 292L324 293.25C324.795 293.25 324.335 293.274 325.375 293.125L325.75 294L326.375 293.529L327.375 294.375L327.875 293.528C328.948 294.737 330.859 295.422 331.375 296.625L331.984 297C333.212 297.781 334.122 298.558 335.039 299.68C335.591 300.354 335.88 300.493 336.5 301L337.245 301.75L337.25 302.255C337.78 302.871 338.069 303.018 338.805 303.414C339.699 303.895 339.955 304.176 340.5 305C340.593 306.187 340.371 306.056 340.25 307.031C340.141 307.908 340.176 307.761 340.579 308.38L360.126 292.312Z"/>
	<path fill="#0B1236" transform="scale(0.5 0.5)" d="M360.126 292.312C372.62 284.132 385.362 275.118 398.75 268.499C407.486 264.18 416.899 261.039 426.038 257.659L426.845 259.543C431.002 262.877 437.085 268.25 442.267 269.671C444.702 270.338 447.709 270.199 450.245 270.324C453.248 270.472 455.843 270.618 458.623 271.914C462.229 273.596 465.628 276.917 468.788 279.356C473.631 283.094 478.448 286.856 483.186 290.729C485.318 292.472 488.039 294.361 489.713 296.552C490.309 297.333 490.407 298.146 490.514 299.082C485.105 304.198 477.488 307.553 471.161 311.458C467.569 313.675 464.147 316.251 460.591 318.552C445.072 321.198 429.669 323.723 414.51 328.093C402.231 331.633 390.934 336.694 379.469 342.248C372.028 345.853 364.496 349.347 357.351 353.518C350.447 357.548 343.833 362.291 337.4 367.04C330.122 372.413 321.043 378.732 315.653 386.058L314.956 387.072C306.172 398.938 296.255 409.875 287.456 421.678C279.115 432.866 271.852 445.013 264.674 456.975C257.403 469.09 250.303 480.827 244.297 493.664L244.286 490.197C244.756 473.461 249.788 456.036 255.143 440.274C263.589 415.418 274.713 390.758 288.994 368.711C303.224 346.741 321.564 326.299 340.579 308.38L360.126 292.312Z"/>
	<path fill="#FDB23F" transform="scale(0.5 0.5)" d="M844.108 574.821C844.448 577.336 844.543 579.358 846.25 581.349C853.812 590.169 864.873 592.562 876.014 593.57C884.288 594.318 893.815 594.599 901.812 592.187C886.751 654.623 855.226 715.337 814.227 764.729C806.218 774.378 797.494 783.417 788.756 792.401C787.052 790.536 785.794 788.298 783.98 786.529C779.027 781.699 770.547 779.256 764 777.853C753.478 775.598 740.391 776.771 729.75 778.027C724.879 778.603 720.69 779.519 715.704 779.425C740.094 760.131 762.014 738.21 780.559 713.2C787.151 705.518 792.856 696.497 798.124 687.856C808.271 671.211 816.769 654.275 825.075 636.667C829.094 628.146 834.114 618.72 836.39 609.584L844.108 574.821Z"/>
	<path fill="#FEE28D" transform="scale(0.5 0.5)" d="M831.89 287.29L832.127 287.78C835.628 294.839 841.946 300.958 846.305 307.617C853.543 318.671 859.829 330.672 866.282 342.201C879.113 365.124 889.602 389.41 896.692 414.742C900.935 429.9 903.732 445.446 906.023 461C907.811 473.131 909.482 485.408 909.932 497.676C910.521 513.727 909.13 529.763 908.929 545.811C908.185 561.691 904.727 576.633 901.812 592.187C893.815 594.599 884.288 594.318 876.014 593.57C864.873 592.562 853.812 590.169 846.25 581.349C844.543 579.358 844.448 577.336 844.108 574.821C845.312 564.942 845.814 554.538 849.831 545.278C850.811 543.018 851.724 540.56 853.357 538.69C853.933 537.46 855.067 535.955 856.136 535.106C857.71 533.856 859.142 532.46 860.836 531.362C862.93 530.004 864.827 528.785 867.107 527.72L870.738 526.21L870.57 525.909C866.212 526.153 862.27 528.12 858.841 530.704C857.166 531.966 855.601 533.596 853.75 534.56C853.178 533.435 853.086 532.624 853.041 531.356C852.836 525.665 853.476 519.901 853.46 514.19C853.433 504.293 852.844 494.378 852.238 484.502C851.324 469.627 848.457 454.995 844.828 440.568C840.72 424.238 835.591 407.831 828.352 392.589C822.227 379.693 814.624 367.284 807.121 355.153C800.14 343.866 793.116 332.602 784.63 322.357C778.378 314.808 770.823 307.837 763.76 301.035C759.814 297.235 755.702 293.662 752.461 289.209L752.044 288.627C756.734 287.264 764.082 288.458 769.11 288.484C781.02 288.546 792.933 288.565 804.844 288.517C813.799 288.48 823.033 288.72 831.89 287.29ZM870.738 526.21L867.107 527.72L867.951 528.269L867.755 529.75C868.764 530.42 869.208 530.294 870.388 530.376C872.861 529.355 875.335 528.331 877.826 527.353C878.089 527.25 879.327 526.65 879.587 526.668C880.977 526.763 883.455 527.991 884.969 528.336C886.959 528.789 888.789 529.607 890.379 530.904L891.046 528.448C889.973 528.225 888.703 527.822 887.755 527.25C887.044 526.821 886.522 526.483 885.721 526.216L882.876 525.25L882.5 524.969C881.865 525.097 881.279 525.221 880.672 525.456L880.25 525.633C879.55 525.297 879.129 525.217 878.329 525.132C877.035 524.995 877.023 524.358 875.659 524.163L875.012 525.25C873.896 525.657 872.928 525.972 871.742 526.106L870.738 526.21Z"/>
	<path fill="#F0F9F9" fill-opacity="0.98823529" transform="scale(0.5 0.5)" d="M870.738 526.21L871.742 526.106C872.928 525.972 873.896 525.657 875.012 525.25L875.659 524.163C877.023 524.358 877.035 524.995 878.329 525.132C879.129 525.217 879.55 525.297 880.25 525.633L880.672 525.456C881.279 525.221 881.865 525.097 882.5 524.969L882.876 525.25L885.721 526.216C886.522 526.483 887.044 526.821 887.755 527.25C888.703 527.822 889.973 528.225 891.046 528.448L890.379 530.904C888.789 529.607 886.959 528.789 884.969 528.336C883.455 527.991 880.977 526.763 879.587 526.668C879.327 526.65 878.089 527.25 877.826 527.353C875.335 528.331 872.861 529.355 870.388 530.376C869.208 530.294 868.764 530.42 867.755 529.75L867.951 528.269L867.107 527.72L870.738 526.21Z"/>
	<path fill="#FCD990" transform="scale(0.5 0.5)" d="M891.046 528.448L891.565 527.798L893.25 527.755L893.745 528.5C894.259 529.21 894.433 529.664 895.28 529.832C897.255 530.224 900.698 532.996 901.745 534.75L901.997 535.503L903.056 536.61C906.551 540.302 905.144 546.575 906.007 551.418C906.007 552.642 906.197 552.716 905.43 553.75L904.75 553.467C903.883 550.926 903.991 548.432 903.981 545.781C901.2 541.211 896.979 536.326 892.674 533.097C891.709 532.373 891.107 531.897 890.379 530.904L891.046 528.448Z"/>
	<defs>
		<linearGradient id="gradient_2" gradientUnits="userSpaceOnUse" x1="845.75" y1="579.25" x2="909.94702" y2="561.85797">
			<stop offset="0" stop-color="#FED500"/>
			<stop offset="1" stop-color="#FEB65D"/>
		</linearGradient>
	</defs>
	<path fill="url(#gradient_2)" transform="scale(0.5 0.5)" d="M870.388 530.376C872.861 529.355 875.335 528.331 877.826 527.353C878.089 527.25 879.327 526.65 879.587 526.668C880.977 526.763 883.455 527.991 884.969 528.336C886.959 528.789 888.789 529.607 890.379 530.904C891.107 531.897 891.709 532.373 892.674 533.097C896.979 536.326 901.2 541.211 903.981 545.781C903.991 548.432 903.883 550.926 904.75 553.467L905.43 553.75C906.197 552.716 906.007 552.642 906.007 551.418L906.375 547.511L906.5 550L907 550.255L907.625 550.753L907.878 549.5C908.032 547.756 907.958 547.34 908.929 545.811C908.185 561.691 904.727 576.633 901.812 592.187C893.815 594.599 884.288 594.318 876.014 593.57C864.873 592.562 853.812 590.169 846.25 581.349C844.543 579.358 844.448 577.336 844.108 574.821C845.312 564.942 845.814 554.538 849.831 545.278C850.811 543.018 851.724 540.56 853.357 538.69C853.933 537.46 855.067 535.955 856.136 535.106C857.71 533.856 859.142 532.46 860.836 531.362C862.93 530.004 864.827 528.785 867.107 527.72L867.951 528.269L867.755 529.75C868.764 530.42 869.208 530.294 870.388 530.376Z"/>
	<path fill="#FEE28D" transform="scale(0.5 0.5)" d="M859.323 546.014C859.357 549.98 858.603 554.127 857.626 557.963L853.814 553.75C852.799 552.369 850.874 549.871 850.524 548.25C850.408 547.712 850.896 546.093 851.004 545.47C852.936 547.368 853.728 547.923 856.5 548.054L857.165 547.489C857.851 546.913 858.546 546.461 859.323 546.014Z"/>
	<path fill="#FFFDFD" transform="scale(0.5 0.5)" d="M867.107 527.72L867.951 528.269L867.755 529.75C868.764 530.42 869.208 530.294 870.388 530.376C864.586 534.613 861.699 539.278 859.323 546.014C858.546 546.461 857.851 546.913 857.165 547.489L856.5 548.054C853.728 547.923 852.936 547.368 851.004 545.47L853.357 538.69C853.933 537.46 855.067 535.955 856.136 535.106C857.71 533.856 859.142 532.46 860.836 531.362C862.93 530.004 864.827 528.785 867.107 527.72Z"/>
	<path fill="#FD8640" transform="scale(0.5 0.5)" d="M342.232 757.054L375.243 742.311C373.818 746.541 374.203 753.22 375.363 757.5L375.558 758.274C376.612 762.332 378.807 765.394 382.454 767.534C387.227 770.336 391.908 770.452 397.25 770.818C403.966 771.278 411.331 771.528 417.816 773.353C428.18 776.271 436.504 782.639 445.453 788.289L455.018 796.127C459.602 803.075 476.187 821.951 475.997 828.901C475.6 830.692 475.228 832.147 474.323 833.75L471.674 834.149C496.733 838.696 522.245 841.9 547.75 841.472C554.571 841.357 561.381 840.471 568.194 840.104C580.895 838.327 593.606 836.604 606.11 833.682C642.842 825.101 675.805 807.809 706.531 786.388L715.704 779.425C720.69 779.519 724.879 778.603 729.75 778.027C740.391 776.771 753.478 775.598 764 777.853C770.547 779.256 779.027 781.699 783.98 786.529C785.794 788.298 787.052 790.536 788.756 792.401L786.473 794.882C778.319 804.154 768.077 812.385 758.538 820.202C750.539 826.758 742.386 833.358 733.845 839.196C717.729 850.211 700.284 859.574 682.565 867.728C670.283 873.381 657.591 878.657 644.625 882.521C632.686 886.078 620.431 888.435 608.188 890.677C598.227 892.502 587.615 894.651 577.508 895.338C560.952 896.464 543.435 895.708 526.936 894.328C521.849 893.902 516.47 893.787 511.458 892.872C492.295 891.639 473.645 888.124 454.726 885.029C443.768 883.236 432.755 882.206 421.832 880.101C389.609 873.891 357.901 862.333 329.199 846.403C312.28 837.014 297.007 824.962 280.584 814.735L280.924 814.259C282.223 812.375 283.37 811.129 285.203 809.739C288.577 804.872 290.091 798.966 292.935 793.788C294.875 790.255 297.303 787.076 299.757 783.892C302.152 780.784 305.039 777.816 305.073 773.688L305.079 771.938L305.066 771.25L307.002 769.921C311.146 768.962 315.493 766.72 319.522 765.25C327.091 762.488 334.742 760.044 342.232 757.054Z"/>
	<path fill="#04A3FE" transform="scale(0.5 0.5)" d="M342.232 757.054C347.441 768.651 354.631 786.827 367.25 791.501L372.685 793.128L362.352 796.393C346.353 798.726 330.188 799.073 314.241 801.937C308.851 802.905 303.348 804.094 298.106 805.674C293.825 806.964 289.534 808.68 285.203 809.739C288.577 804.872 290.091 798.966 292.935 793.788C294.875 790.255 297.303 787.076 299.757 783.892C302.152 780.784 305.039 777.816 305.073 773.688L305.079 771.938L305.066 771.25L307.002 769.921C311.146 768.962 315.493 766.72 319.522 765.25C327.091 762.488 334.742 760.044 342.232 757.054Z"/>
	<path transform="scale(0.5 0.5)" d="M342.232 757.054L375.243 742.311C373.818 746.541 374.203 753.22 375.363 757.5L375.558 758.274C376.612 762.332 378.807 765.394 382.454 767.534C387.227 770.336 391.908 770.452 397.25 770.818C403.966 771.278 411.331 771.528 417.816 773.353C428.18 776.271 436.504 782.639 445.453 788.289L455.018 796.127C459.602 803.075 476.187 821.951 475.997 828.901C475.6 830.692 475.228 832.147 474.323 833.75L471.674 834.149L468.64 833.575L439.544 830.142L439.019 831.25L438.75 832.168C437.034 832.044 436.684 831.981 435.25 831.05L433.869 824.665C423.302 822.766 413.546 817.856 402.683 816.818C398.666 817.282 394.403 816.709 390.366 816.478C383.811 816.102 377.243 815.813 370.681 815.603C366.249 815.461 361.814 815.493 357.38 815.486C355.439 815.483 352.923 815.775 351.082 815.107C349.947 814.696 350.152 814.576 349.669 813.569C351.762 812.008 356.67 812.54 359.346 812.434C360.106 807 360.755 801.661 362.352 796.393L372.685 793.128L367.25 791.501C354.631 786.827 347.441 768.651 342.232 757.054Z"/>
	<path fill="#15C2FE" transform="scale(0.5 0.5)" d="M402.683 816.818L400.75 816.263C400.184 813.93 400.324 811.391 400.167 809C399.916 805.161 399.559 801.347 399.376 797.5C406.054 797.537 412.541 797.754 419.027 799.544C420.912 800.064 423.089 800.58 424.479 802.031C429.845 807.628 432.377 817.262 433.869 824.665C423.302 822.766 413.546 817.856 402.683 816.818Z"/>
	<path fill="#04A3FE" transform="scale(0.5 0.5)" d="M468.64 833.575C465.337 832.501 461.659 832.24 458.231 831.727C451.844 830.771 445.352 829.702 438.892 829.533L432.461 800.502L432.88 800.485C434.819 800.418 436.908 800.204 438.834 800.486C441.581 800.889 444.277 802.249 446.733 803.489C458.232 809.293 468.182 818.81 475.997 828.901C475.6 830.692 475.228 832.147 474.323 833.75L471.674 834.149L468.64 833.575Z"/>
	<path fill="#F68668" transform="scale(0.5 0.5)" d="M715.704 779.425C720.69 779.519 724.879 778.603 729.75 778.027C740.391 776.771 753.478 775.598 764 777.853C770.547 779.256 779.027 781.699 783.98 786.529C785.794 788.298 787.052 790.536 788.756 792.401L786.473 794.882C778.319 804.154 768.077 812.385 758.538 820.202C750.539 826.758 742.386 833.358 733.845 839.196C717.729 850.211 700.284 859.574 682.565 867.728C670.283 873.381 657.591 878.657 644.625 882.521C632.686 886.078 620.431 888.435 608.188 890.677C598.227 892.502 587.615 894.651 577.508 895.338C560.952 896.464 543.435 895.708 526.936 894.328C521.849 893.902 516.47 893.787 511.458 892.872L511.533 892.123C510.331 892.09 508.06 892.298 507 891.75L506.5 891.378L504.75 891.5C503.508 891.438 502.715 891.267 501.439 891.438L501 891.5C499.478 890.486 497.922 891.375 496.25 891C494.201 890.54 496.331 890.656 494.759 890.57C493.821 890.519 492.344 890.684 491.5 890.25L491 889.878L489.25 890C488.287 889.82 487.589 889.358 486.5 889.378L485.75 889.5C484.436 888.845 483.495 889.379 482.25 889C481.313 888.715 480.658 888.726 479.75 888.5C478.916 888.292 478.049 888.207 477.25 888C476.107 887.704 474.759 887.814 473.75 887.5C472.408 887.083 470.871 887.247 469.75 886.5L471.745 886.25C474.036 885.933 476.439 886.16 478.75 886.245C479.697 887.192 487.407 886.668 489.25 886.745L489.75 887.245C490.356 887.264 490.929 887.257 491.531 887.182C492.403 887.074 493.072 886.964 493.951 887.107C496.438 887.513 499.22 887.261 501.75 887.245C502.723 888.218 508.223 887.543 510 887.622C511.829 887.704 513.704 887.505 515.5 887.622C517.011 887.721 518.508 887.527 520 887.622C530.62 888.301 541.574 886.879 552.172 887.676L553 887.745C554.486 886.758 558.215 887.035 560.046 887.154C562.377 887.306 564.722 886.323 566.836 886.53L570 886.745C571.286 885.472 573.214 887.023 574.5 885.75C572.533 884.663 568.728 885.412 566.5 885.541L566.125 885.003C567.021 884.749 566.786 884.711 567.534 884.789C568.473 884.887 569.573 885.191 570.5 884.878C571.703 884.47 572.959 884.321 574.25 884.255C575.291 884.202 574.715 884.381 575.672 884.002C576.493 883.677 576.651 883.834 577.5 884L578.25 883.255L579.75 883.5C580.792 882.981 580.244 883.151 581.517 882.994L582.5 882.878C583.462 882.639 583.938 882.551 585 882.5L585.503 882.003L587.255 881.75C588.63 881.292 587.347 881.354 588.797 881.354L589.5 881.378C590.29 880.788 590.555 880.7 591.547 880.862C592.987 881.097 592.291 880.429 593.25 880.255C593.83 880.15 594.417 880.418 595 880.5L595.75 879.755L597.5 879.878C598.116 879.418 597.841 879.518 598.579 879.371L600.503 879.003C601.343 878.811 601.692 878.717 602.578 878.862L603.25 879L603.75 878.255L605.25 878.5L605.75 877.755L607.5 877.755C608.893 876.826 608.73 877.754 610 877.5C610.158 877.468 610.575 876.807 610.75 876.755C611.309 876.588 611.917 876.755 612.5 876.755C613.426 876.137 616.104 875.873 617.392 875.613L620.25 875L621.5 874.755C622.575 874.245 622.314 874.255 623.5 874.255C624.446 873.624 624.437 873.755 625.5 873.755C626.895 872.825 626.564 873.764 627.75 873.5C628.253 873.388 628.807 872.673 629.75 872.5L631 872.255C632.135 871.716 631.749 871.755 633 871.878C633.615 871.419 634.24 871.156 635.003 871.003L636 870.878C636.966 870.157 637.964 870.232 639 869.755C640.08 869.258 639.806 869.255 641 869.255C641.989 868.596 641.9 868.77 643 868.878C643.678 868.371 643.345 868.542 644.237 868.245L645.003 868.003L645.75 867.755C646.634 867.516 647.623 867.189 648.503 867.003L649.5 866.878C650.163 866.383 649.846 866.542 650.69 866.26L656.003 864.503C657.28 864.133 658.483 863.645 659.75 863.255L660.625 863.003C661.489 862.632 662.072 862.261 663.003 862.002C665.797 861.227 668.866 859.99 671.5 858.755C673.445 857.843 676.065 856.336 678.095 855.832L678.5 855.755C679.911 854.333 678.572 852.912 679 851.25C679.524 849.217 679.299 851.419 679.461 849.633L679.5 849L680.25 848C680.64 847.176 680.347 847.169 681.055 846.305C681.85 845.332 681.486 845.95 682 844.75C681.507 843.599 681.548 842.989 681.5 841.75L680.75 841.5C680.405 839.487 679.24 838.713 678.755 837L679.375 836.375L678.755 835.75C679.466 834.649 679.841 833.674 680.16 832.408L680.255 832L680.875 831.375C680.428 830.775 680.503 831.083 680.503 830.503L681.375 830.375L681.255 828.75L682.875 827.375C682.531 826.914 682.441 827 682.503 826.503C682.688 824.998 683.286 824.799 684.375 823.875L684.284 823.391C684.178 822.398 684.567 821.74 685.144 820.97L685.503 820.503C685.981 819.547 685.605 818.656 685.16 817.764C683.878 815.196 683.221 813.389 680.755 811.75C679.529 811.717 678.6 811.844 677.42 812.137L677 812.245L676.375 811.625L675.997 811.997L675.25 812L674.75 812.745L674 812L673.25 812.5L672.375 812.125L671.75 812.745L670.5 811.25C668.663 810.883 667.368 811.714 665.734 812.594L662 814.5C660.481 815.617 658.905 815.676 657.273 816.555L655 817.745C653.399 818.384 651.804 819.237 650.186 819.78L645 821.75C643.426 822.564 645.442 821.774 644.039 822.303L643.5 822.5L642.375 822.997C641.32 823.291 640.503 823.887 639.475 824.147C638.123 824.49 636.978 825.361 635.656 825.625C634.724 825.812 633.964 826.009 633.108 826.438C632.391 826.797 632.668 826.697 631.985 826.952L631.5 827.122L625 829.25L623.75 829.745C623.011 829.953 622.609 829.9 621.922 830.327L621.5 830.622L620.75 830.5L620 831.122L619.25 831L618.25 831.745C616.605 831.878 615.522 832.104 614 832.745C613.775 832.84 613.269 833.09 613 833.122C612.174 833.221 611.8 833.01 610.977 833.374L610.5 833.622L609.75 833.5L609 834.122C608.211 834.084 607.72 834.045 606.977 834.374L606.5 834.622L605.75 834.5L604.75 835.245L604 835C603.303 835.231 602.709 835.34 602 835.5L600.375 835.875C599.417 835.994 598.829 835.781 597.977 836.311C597.278 836.746 597.704 836.621 596.75 836.699C595.884 836.77 596.162 836.656 595.406 836.941L595 837.122L594.25 837C593.352 837.385 592.496 837.638 591.5 837.622L590.5 837.5C589.702 837.879 589.195 838.19 588.281 838.1L587.75 838C586.63 838.48 585.892 838.677 584.664 838.577L584 838.5L583.25 839.245L582 839C580.293 840.138 578.371 838.958 576.5 840.122L574.75 840C571.364 840.633 576.045 840.219 573.102 840.446L572.25 840.5C570.755 840.718 570.164 840.668 568.7 840.253L568.194 840.104C580.895 838.327 593.606 836.604 606.11 833.682C642.842 825.101 675.805 807.809 706.531 786.388L715.704 779.425Z"/>
	<path fill="#FD8640" transform="scale(0.5 0.5)" d="M715.704 779.425C720.69 779.519 724.879 778.603 729.75 778.027C740.391 776.771 753.478 775.598 764 777.853C770.547 779.256 779.027 781.699 783.98 786.529C785.794 788.298 787.052 790.536 788.756 792.401L786.473 794.882C785.487 792.966 784.529 791.253 783.034 789.679C779.331 785.779 773.916 782.856 768.745 781.592C767.849 781.374 766.375 780.822 765.478 780.84C764.074 780.867 761.706 782.194 760.453 782.812C757.309 784.362 754.305 785.895 750.817 786.542C745.176 787.587 739.003 787.342 733.263 787.474C725.789 787.645 718.218 788.016 710.75 787.808C709.135 787.763 707.705 787.602 706.531 786.388L715.704 779.425Z"/>
	<defs>
		<linearGradient id="gradient_3" gradientUnits="userSpaceOnUse" x1="645.25" y1="610.25" x2="658.86798" y2="769.797">
			<stop offset="0" stop-color="#02E9C6"/>
			<stop offset="1" stop-color="#008DFF"/>
		</linearGradient>
	</defs>
	<path fill="url(#gradient_3)" transform="scale(0.5 0.5)" d="M528.601 718.93C530.899 717.517 532.715 715.24 534.531 713.281C537.684 709.88 540.811 706.446 544.055 703.131C559.334 687.513 574.529 672.027 589.104 655.725C599.337 644.28 608.522 631.768 619.916 621.417C629.126 613.049 639.444 608.617 652 609.481C657.859 609.884 664.37 612.457 668.983 616.158C674.538 620.614 678.702 626.614 683.273 632.026C688.67 638.415 694.207 644.694 699.795 650.918C708.321 660.415 717.143 669.792 725.91 679.068C729.857 683.244 734.016 687.177 737.782 691.525C743.968 682.963 751.376 675.257 758.326 667.316C768.457 655.74 778.462 644.03 789.411 633.21C794.315 628.364 799.718 622.881 805.729 619.456C811.495 616.17 818.472 614.572 824.862 612.904C828.726 611.895 832.524 610.615 836.39 609.584C834.114 618.72 829.094 628.146 825.075 636.667C816.769 654.275 808.271 671.211 798.124 687.856C792.856 696.497 787.151 705.518 780.559 713.2C762.014 738.21 740.094 760.131 715.704 779.425L706.531 786.388C675.805 807.809 642.842 825.101 606.11 833.682C593.606 836.604 580.895 838.327 568.194 840.104C561.381 840.471 554.571 841.357 547.75 841.472C522.245 841.9 496.733 838.696 471.674 834.149L474.323 833.75C475.228 832.147 475.6 830.692 475.997 828.901C476.187 821.951 459.602 803.075 455.018 796.127L445.453 788.289C436.504 782.639 428.18 776.271 417.816 773.353C411.331 771.528 403.966 771.278 397.25 770.818C391.908 770.452 387.227 770.336 382.454 767.534C378.807 765.394 376.612 762.332 375.558 758.274L375.363 757.5C374.203 753.22 373.818 746.541 375.243 742.311C382.566 737.392 391.087 734.163 398.862 729.996C408.55 724.804 417.701 718.904 426.928 712.953C433.107 708.969 439.54 705.115 445.395 700.667L450.007 699.066C454.351 697.469 461.717 698.047 465.814 700.097C469.602 701.994 472.954 707.354 473.78 711.493L473.879 712.429C481.406 712.165 488.935 711.731 496.464 712.224C503.137 712.66 509.579 713.921 516.094 715.355C520.358 716.293 524.619 717.059 528.601 718.93ZM515.928 781.646L515.515 781.791C511.671 783.176 508.065 785.124 504.223 786.54C488.677 792.267 471.669 796.177 455.018 796.127C459.602 803.075 476.187 821.951 475.997 828.901C475.6 830.692 475.228 832.147 474.323 833.75L471.674 834.149C496.733 838.696 522.245 841.9 547.75 841.472C554.571 841.357 561.381 840.471 568.194 840.104C580.895 838.327 593.606 836.604 606.11 833.682C642.842 825.101 675.805 807.809 706.531 786.388L715.704 779.425C740.094 760.131 762.014 738.21 780.559 713.2C779.575 713.379 779.17 713.421 778.5 714.25L778 715L777.25 715.255L776.5 715.755C775.334 715.461 775.022 714.513 774.25 714.255C774.038 714.184 773.513 714.78 773.245 714.75C772.45 714.66 772.363 714 771.245 714C771.245 712.923 771.536 712.041 770.75 711.255L770.25 712.5L770.122 711.5L769.625 711.003L768.625 711.875L767.997 710.503C766.459 710.093 764.83 710.236 763.25 710.255L762.5 710.755L761.503 711.003C760.588 711.962 760.064 712.327 759.003 713.003C758.145 713.548 758.019 714.028 757.003 714.503L755.267 715.879C754.587 716.445 753.987 716.795 753.25 717.255C751.445 718.381 749.434 719.552 747.878 721C745.675 723.049 742.441 724.557 740.5 726.755C739.419 726.903 739.861 727.051 739.125 726.503L738.5 727C738.015 726.57 737.669 726.003 737.002 726.003L736.75 727L736.25 726.255L735.878 727C735.59 727.431 735.206 727.525 734.75 727.755L734.25 728.5L733.503 728.503C732.831 729.174 732.757 728.976 732.75 730L732.125 730.003L731.25 731L730.503 731.003L728.767 732.379C728.084 732.948 727.466 733.268 726.75 733.755L724.767 735.394C723.983 736.047 723.348 736.26 722.5 736.755L721.75 737.271C720.933 737.816 720.327 737.852 719.5 738.25L718.5 739C717.666 739.53 716.818 739.928 716 740.5C713.708 742.102 711.818 742.739 709 742.878L708.375 742.503L708.003 742.503L707.75 743.5L707.25 742.755L706.25 744L705.625 744.003C704.736 744.536 705.268 744.188 704.5 744.75L703.625 745.375L703.25 744.755L702.878 745.5L702.625 745.875L702.25 745.255L701.25 746.5L700.625 746.503C699.736 747.036 700.268 746.688 699.5 747.25L698.625 747.875L698.25 747.255L697.878 748L697.625 748.375L697.25 747.755L696.805 748.354C696.118 749.209 696.427 748.924 695.375 749.375L694.75 748.755L694.378 749.5L694.125 749.875L693.625 749.503C692.822 749.984 693.195 749.732 692.5 750.25L692 750.25L691.75 749.755L691.378 750.5L691.125 750.875L690.625 750.503C689.822 750.984 690.195 750.732 689.5 751.25L689 751.25L688.75 750.755L687.75 752C686.825 751.692 687.119 751.985 686.75 751.255L686.378 752L686.125 752.375L685.625 752.003L685 752.5L684.125 752.875L683.625 752.503L683 753L682.25 752.255L681.878 753L681.625 753.375L681.125 753.003L680.5 753.5L679.75 752.755L679.43 753.104C678.851 753.679 679.042 753.482 678.125 753.875L677.625 753.503L677 754L676.25 753.255L675.5 754L674.75 753.255L674 754L673.25 753.755L672.625 754.375L672.125 754.003L671.5 754.5L670.75 753.755L670 754.5L669.25 753.755L668.5 754.5L667.75 753.755L667 754.5L666.25 753.755L665.5 754.5L664.75 753.755L664 754.5L663.25 753.755L662.5 754.5L661.75 753.755L661 754.5L660.25 753.755L659.5 754.5L658.75 753.755L658 754.5L657.25 753.755L656.5 754.5L655.75 753.755L655 754.5L654.25 753.755L653.5 754.5L652.75 753.755L652 754.5L651.25 753.755L650.25 755C649.358 754.703 649.72 754.895 649.125 754.503L648.5 755L647.75 754.255L647 755C645.357 753.776 643.175 754.125 641.156 754.125C636.896 754.125 632.635 754.125 628.375 754.125C627.482 754.763 627.375 754.822 626.234 754.69C625.52 754.608 624.842 754.622 624.125 754.625L623.125 754.625L622.5 755.255L621.625 755.125C620.414 755.041 620.787 754.963 620 755.75L619.25 755.755L618 756.25L617.5 756.25L617 756.75L615.5 756.75L615 757.25L614.5 757.25L614 757.75L613.25 757.755L612.5 758.255L611.625 758.125L611 758.75L610.5 758.75L609.625 759.253L609.935 758.704C610.314 757.938 610.303 757.573 610.245 756.75L609.25 755.755L608.93 756.104C608.351 756.679 608.542 756.482 607.625 756.875L607.25 756.255L606.25 757.5L605.25 757.255L604.125 758.375L603.625 758.003C603.239 758.234 602.91 758.564 602.5 758.75L601.625 759.003C601.21 759.176 600.91 759.564 600.5 759.75L599.625 760.003L599.125 760.375L598.75 759.755L597.75 761L597.125 761.003L596.5 761.5L595.625 761.875L595.125 761.503C594.322 761.984 594.695 761.732 594 762.25C595.635 763.876 598.23 763.248 600.5 763.25C599.444 763.856 599.961 763.754 599 763.75L598.5 764.255C597.772 764.771 597.24 764.573 596.5 764.75L595.003 765.503C594.203 765.845 593.346 765.756 592.5 765.75L592 766.25C591.342 766.254 590.774 766.207 590.125 766.125L589.5 766.75L588 766.75L587.5 767.255L586.625 767.125C585.603 767.697 585.827 767.708 584.625 767.625L583.625 767.625L583 768.255L582.125 768.125C580.573 767.997 580.065 768.809 578.625 768.625L578 769.25C577.342 769.254 576.774 769.207 576.125 769.125C575.141 769.743 575.404 769.788 574.125 769.625C573.005 770.094 572.883 770.285 571.625 770.125L571 770.378L569.997 769.003C569.34 769.003 569.006 769.373 568.5 769.75L568 769.75L567.75 769.255L567.378 770L567.125 770.375L566.625 770.003L566 770.5L565.25 770.255L564.625 770.875L564.125 770.503C563.322 770.984 563.695 770.732 563 771.25L562.5 771.25L562.25 770.755L561.878 771.5L561.625 771.875L561.125 771.503L559.875 772.375L559 772.25L558.75 771.755L557.75 773C557.003 773.041 556.777 772.966 556.125 773.375L555.564 773.044L554.5 774L553.75 773.369L553.25 774.5L552.625 774.091L551.25 775L550.375 774.596L549.375 775.375L548.5 775.25L548.007 775.25L547.625 775.875L547 775.75C545.962 776.149 545.723 776.482 544.625 776.145L543.867 776.549C542.468 777.285 542.061 777.473 540.5 777.25C539.887 777.592 540.181 777.387 539.625 777.875C538.622 777.875 539.122 777.916 538.125 777.75L537.625 777.953L537 777.5C536.307 777.864 535.871 778.158 535.25 778.667L534.5 778L532.625 778.964L532 778.5C531.301 778.844 530.649 779.162 530 779.593L529.375 779.997L528.875 779.625C527.894 779.765 527.433 779.964 526.625 780.497L526.125 780.125L524.625 780.997L524.75 780L525.625 779.625L525.875 779.125C524.67 779.297 523.678 779.907 522.5 780.25L521.766 780.5L519.114 781.219C518.079 781.545 517.009 781.614 515.928 781.646ZM473.879 712.429C463.125 713.577 455.508 718.879 446.667 724.687C442.132 727.666 437.362 730.608 433.036 733.858L428.506 736.678C429.157 737.154 429.386 737.222 429.75 737.953L430 738.407L430.547 738.086L431.25 737.685L431.778 737.329C432.744 736.841 433.931 736.993 434.982 736.976L440.25 736.63C441.2 737.756 441.196 737.775 441.245 739.25L440 740C438.489 738.993 438.441 739.004 436.625 739.125C435.714 739.667 435.35 739.849 434.75 740.755C436.476 741.906 438.372 741.709 440.375 741.753C440.981 741.092 441.499 740.502 442 739.755L442.658 739.72C445.155 739.576 447.618 738.834 450.125 738.803C453.394 738.764 457.281 740.581 460.301 741.728C461.441 742.161 460.968 742.279 461.755 741.75L462.5 742.245C463.688 741.909 463.181 742.23 464 741.25L464.5 741.745C465.351 741.679 465.793 741.788 466.499 741.282C468.401 739.918 470.566 738.771 473.015 739.257L474.407 739.627L473.745 740.25L474 740.755L474.625 740.503C474.99 741.437 474.912 741.74 474.848 742.723C474.773 743.869 474.599 744.991 475.443 745.9C476.116 746.627 476.586 746.657 477.44 747.057L478.85 747.84C483.052 746.147 487.653 744.639 491.556 742.332C505.168 736.25 516.049 726.625 528.601 718.93C524.619 717.059 520.358 716.293 516.094 715.355C509.579 713.921 503.137 712.66 496.464 712.224C488.935 711.731 481.406 712.165 473.879 712.429ZM591.625 731.253C589.35 731.154 585.306 731.712 583.112 732.449C582.007 732.82 582.248 732.748 581.25 732.399L580.769 731.192C577.86 733.157 574.972 735.144 572.11 737.176C571.403 737.678 569.779 738.543 569.361 739.276L534.875 761.178L534.23 761.57L533.414 762.176C513.077 773.184 493.011 783.305 469.781 786.532C461.699 787.655 453.586 787.808 445.453 788.289L455.018 796.127C471.669 796.177 488.677 792.267 504.223 786.54C508.065 785.124 511.671 783.176 515.515 781.791L515.928 781.646L596.56 729.549C594.682 729.53 593.133 730.129 591.625 731.253ZM428.506 736.678L415.852 744.577C413.833 745.736 407.326 748.654 406.688 750.809L407.25 753.32L409.237 753.54C413.673 754.515 418.854 754.219 423.411 754.353C435.278 754.7 449.27 755.823 460.813 752.584C465.868 752.205 472.581 750.234 477.195 748.131L478.85 747.84L477.44 747.057C476.586 746.657 476.116 746.627 475.443 745.9C474.599 744.991 474.773 743.869 474.848 742.723C474.912 741.74 474.99 741.437 474.625 740.503L474 740.755L473.745 740.25L474.407 739.627L473.015 739.257C470.566 738.771 468.401 739.918 466.499 741.282C465.793 741.788 465.351 741.679 464.5 741.745L464 741.25C463.181 742.23 463.688 741.909 462.5 742.245L461.755 741.75C460.968 742.279 461.441 742.161 460.301 741.728C457.281 740.581 453.394 738.764 450.125 738.803C447.618 738.834 445.155 739.576 442.658 739.72L442 739.755C441.499 740.502 440.981 741.092 440.375 741.753C438.372 741.709 436.476 741.906 434.75 740.755C435.35 739.849 435.714 739.667 436.625 739.125C438.441 739.004 438.489 738.993 440 740L441.245 739.25C441.196 737.775 441.2 737.756 440.25 736.63L434.982 736.976C433.931 736.993 432.744 736.841 431.778 737.329L431.25 737.685L430.547 738.086L430 738.407L429.75 737.953C429.386 737.222 429.157 737.154 428.506 736.678ZM602.981 716.356C604.835 716.967 605.503 716.64 607.278 715.789L609.25 714.578C611.143 714.702 611.173 714.57 612.591 716C612.754 717.628 612.97 718.109 611.937 719.474C609.754 722.358 603.117 722.434 602.142 726.239C605.337 724.787 608.42 723.151 611.785 722.105C620.301 719.458 628.901 720.104 637.271 722.876L657.21 712.067C655.439 710.582 652.471 709.978 650.333 709.06C647.604 707.888 644.716 706.892 641.81 706.259C627.338 703.101 614.872 708.754 602.981 716.356ZM602.981 716.356L580.769 731.192L581.25 732.399C582.248 732.748 582.007 732.82 583.112 732.449C585.306 731.712 589.35 731.154 591.625 731.253C593.133 730.129 594.682 729.53 596.56 729.549L602.142 726.239C603.117 722.434 609.754 722.358 611.937 719.474C612.97 718.109 612.754 717.628 612.591 716C611.173 714.57 611.143 714.702 609.25 714.578L607.278 715.789C605.503 716.64 604.835 716.967 602.981 716.356Z"/>
	<defs>
		<linearGradient id="gradient_4" gradientUnits="userSpaceOnUse" x1="606.25" y1="719.25" x2="610.19299" y2="715.64203">
			<stop offset="0" stop-color="#FEFEFE" stop-opacity="0.78039217"/>
			<stop offset="1" stop-color="#FEFEFE" stop-opacity="0.83137256"/>
		</linearGradient>
	</defs>
	<path fill="url(#gradient_4)" transform="scale(0.5 0.5)" d="M602.981 716.356C604.835 716.967 605.503 716.64 607.278 715.789L609.25 714.578C611.143 714.702 611.173 714.57 612.591 716C612.754 717.628 612.97 718.109 611.937 719.474C609.754 722.358 603.117 722.434 602.142 726.239L596.56 729.549C594.682 729.53 593.133 730.129 591.625 731.253C589.35 731.154 585.306 731.712 583.112 732.449C582.007 732.82 582.248 732.748 581.25 732.399L580.769 731.192L602.981 716.356Z"/>
	<path fill="#F0F9F9" fill-opacity="0.98823529" transform="scale(0.5 0.5)" d="M602.981 716.356C614.872 708.754 627.338 703.101 641.81 706.259C644.716 706.892 647.604 707.888 650.333 709.06C652.471 709.978 655.439 710.582 657.21 712.067L637.271 722.876C628.901 720.104 620.301 719.458 611.785 722.105C608.42 723.151 605.337 724.787 602.142 726.239C603.117 722.434 609.754 722.358 611.937 719.474C612.97 718.109 612.754 717.628 612.591 716C611.173 714.57 611.143 714.702 609.25 714.578L607.278 715.789C605.503 716.64 604.835 716.967 602.981 716.356Z"/>
	<path fill="#F0F9F9" fill-opacity="0.52549022" transform="scale(0.5 0.5)" d="M428.506 736.678C429.157 737.154 429.386 737.222 429.75 737.953L430 738.407L430.547 738.086L431.25 737.685L431.778 737.329C432.744 736.841 433.931 736.993 434.982 736.976L440.25 736.63C441.2 737.756 441.196 737.775 441.245 739.25L440 740C438.489 738.993 438.441 739.004 436.625 739.125C435.714 739.667 435.35 739.849 434.75 740.755C436.476 741.906 438.372 741.709 440.375 741.753C440.981 741.092 441.499 740.502 442 739.755L442.658 739.72C445.155 739.576 447.618 738.834 450.125 738.803C453.394 738.764 457.281 740.581 460.301 741.728C461.441 742.161 460.968 742.279 461.755 741.75L462.5 742.245C463.688 741.909 463.181 742.23 464 741.25L464.5 741.745C465.351 741.679 465.793 741.788 466.499 741.282C468.401 739.918 470.566 738.771 473.015 739.257L474.407 739.627L473.745 740.25L474 740.755L474.625 740.503C474.99 741.437 474.912 741.74 474.848 742.723C474.773 743.869 474.599 744.991 475.443 745.9C476.116 746.627 476.586 746.657 477.44 747.057L478.85 747.84L477.195 748.131C472.581 750.234 465.868 752.205 460.813 752.584C449.27 755.823 435.278 754.7 423.411 754.353C418.854 754.219 413.673 754.515 409.237 753.54L407.25 753.32L406.688 750.809C407.326 748.654 413.833 745.736 415.852 744.577L428.506 736.678ZM415.852 744.577C413.833 745.736 407.326 748.654 406.688 750.809L407.25 753.32L409.237 753.54L416.677 753.77C418.048 751.347 419.519 749.32 418.937 746.5C418.082 745.246 417.218 745.03 415.852 744.577ZM460.813 752.584C465.868 752.205 472.581 750.234 477.195 748.131C476.531 747.592 476.019 747.256 475.25 746.879C473.829 746.184 472.614 744.585 472.29 743C472.164 742.385 472.203 742.292 472.25 741.745C471.08 742.083 471.581 741.774 470.75 742.675L470.25 742.245C469.468 742.64 469.806 742.322 469.444 743.379L468.992 743.735C468.274 744.352 468.599 744.029 468.188 745L467.853 745.717C467.521 746.48 467.426 747.015 467.357 747.83L466.6 748.287C465.796 748.788 465.449 749.213 465.002 750.06C463.734 750.408 462.51 750.692 461.367 751.369L460.813 752.584Z"/>
	<path fill="#F0F9F9" fill-opacity="0.56862748" transform="scale(0.5 0.5)" d="M460.813 752.584L461.367 751.369C462.51 750.692 463.734 750.408 465.002 750.06C465.449 749.213 465.796 748.788 466.6 748.287L467.357 747.83C467.426 747.015 467.521 746.48 467.853 745.717L468.188 745C468.599 744.029 468.274 744.352 468.992 743.735L469.444 743.379C469.806 742.322 469.468 742.64 470.25 742.245L470.75 742.675C471.581 741.774 471.08 742.083 472.25 741.745C472.203 742.292 472.164 742.385 472.29 743C472.614 744.585 473.829 746.184 475.25 746.879C476.019 747.256 476.531 747.592 477.195 748.131C472.581 750.234 465.868 752.205 460.813 752.584Z"/>
	<path fill="#FFFDFD" transform="scale(0.5 0.5)" d="M591.625 731.253C593.133 730.129 594.682 729.53 596.56 729.549L515.928 781.646L515.515 781.791C511.671 783.176 508.065 785.124 504.223 786.54C488.677 792.267 471.669 796.177 455.018 796.127L445.453 788.289C453.586 787.808 461.699 787.655 469.781 786.532C493.011 783.305 513.077 773.184 533.414 762.176L534.23 761.57L534.875 761.178L569.361 739.276C569.779 738.543 571.403 737.678 572.11 737.176C574.972 735.144 577.86 733.157 580.769 731.192L581.25 732.399C582.248 732.748 582.007 732.82 583.112 732.449C585.306 731.712 589.35 731.154 591.625 731.253ZM533.414 762.176L532.946 763.058C531.607 765.417 529.46 765.919 527.25 767.061C525.033 768.207 522.127 769.789 520.09 771.135C518.482 772.198 517.996 773.109 515.989 773.711C514.769 774.077 512.687 774.276 511.924 775.224C509.98 777.644 505.279 778.064 502.605 779.163C501.167 779.755 499.825 781.147 498.755 782.25L499.002 783.497C500.269 784.334 501.311 784.158 502.75 784.072C504.415 783.148 505.895 781.405 507.5 780.694C510.825 779.221 512.453 780.251 515.483 777.505C516.818 776.296 518.19 775.743 519.912 775.315C522.029 774.789 523.136 773.42 525 772.553C526.629 771.796 528.489 771.743 530.016 770.722C531.43 769.777 534.365 766.632 535.943 766.347L536.682 762.75C535.891 762.212 535.123 761.905 534.23 761.57L533.414 762.176ZM473.973 787.787C471.678 788.023 469.432 788.159 467.215 788.818C464.759 789.548 461.773 789.31 459.2 789.356C455.76 789.418 452.323 789.685 448.901 790.046L454.159 792.75C461.695 792.777 472.49 793.595 478.745 788.75C478.421 787.771 478.286 787.845 477.5 787.26L473.973 787.787ZM569.361 739.276L569.718 739.748L565.61 743.039L565.66 744.37C569.05 744.912 570.5 741.855 573.019 740.656C574.31 740.042 575.856 739.967 577.109 739.25C580.725 737.18 583.268 733.556 587.756 733.09C589.601 732.898 590.315 732.553 591.625 731.253C589.35 731.154 585.306 731.712 583.112 732.449C582.007 732.82 582.248 732.748 581.25 732.399L580.769 731.192C577.86 733.157 574.972 735.144 572.11 737.176C571.403 737.678 569.779 738.543 569.361 739.276ZM534.875 761.178L534.23 761.57C535.123 761.905 535.891 762.212 536.682 762.75L535.943 766.347C536.68 766.051 537.188 765.768 537.834 765.29L541 763.174C541.803 762.697 542.206 762.459 542.85 761.76C543.712 760.824 544.653 760.052 545.64 759.25L544.497 758.625L544.5 758L544.997 757.602L544 757.587C542.597 757.744 541.089 758.891 540.2 759.906L539.25 760.932C537.735 762.101 536.522 761.566 534.875 761.178Z"/>
	<defs>
		<linearGradient id="gradient_5" gradientUnits="userSpaceOnUse" x1="543.75" y1="758.75" x2="543.448" y2="764.099">
			<stop offset="0" stop-color="#FEFEFE" stop-opacity="0.90980393"/>
			<stop offset="1" stop-color="#FEFEFE" stop-opacity="0.96078432"/>
		</linearGradient>
	</defs>
	<path fill="url(#gradient_5)" transform="scale(0.5 0.5)" d="M534.875 761.178C536.522 761.566 537.735 762.101 539.25 760.932L540.2 759.906C541.089 758.891 542.597 757.744 544 757.587L544.997 757.602L544.5 758L544.497 758.625L545.64 759.25C544.653 760.052 543.712 760.824 542.85 761.76C542.206 762.459 541.803 762.697 541 763.174L537.834 765.29C537.188 765.768 536.68 766.051 535.943 766.347L536.682 762.75C535.891 762.212 535.123 761.905 534.23 761.57L534.875 761.178Z"/>
	<defs>
		<linearGradient id="gradient_6" gradientUnits="userSpaceOnUse" x1="576.75" y1="737.75" x2="571.802" y2="735.36902">
			<stop offset="0" stop-color="#FEFEFE" stop-opacity="0.82745099"/>
			<stop offset="1" stop-color="#FEFEFE" stop-opacity="0.91764706"/>
		</linearGradient>
	</defs>
	<path fill="url(#gradient_6)" transform="scale(0.5 0.5)" d="M569.361 739.276C569.779 738.543 571.403 737.678 572.11 737.176C574.972 735.144 577.86 733.157 580.769 731.192L581.25 732.399C582.248 732.748 582.007 732.82 583.112 732.449C585.306 731.712 589.35 731.154 591.625 731.253C590.315 732.553 589.601 732.898 587.756 733.09C583.268 733.556 580.725 737.18 577.109 739.25C575.856 739.967 574.31 740.042 573.019 740.656C570.5 741.855 569.05 744.912 565.66 744.37L565.61 743.039L569.718 739.748L569.361 739.276Z"/>
	<defs>
		<linearGradient id="gradient_7" gradientUnits="userSpaceOnUse" x1="462.25" y1="790.75" x2="463.341" y2="788.70099">
			<stop offset="0" stop-color="#FEFEFE" stop-opacity="0.69803923"/>
			<stop offset="1" stop-color="#FEFEFE" stop-opacity="0.72941178"/>
		</linearGradient>
	</defs>
	<path fill="url(#gradient_7)" transform="scale(0.5 0.5)" d="M473.973 787.787L477.5 787.26C478.286 787.845 478.421 787.771 478.745 788.75C472.49 793.595 461.695 792.777 454.159 792.75L448.901 790.046C452.323 789.685 455.76 789.418 459.2 789.356C461.773 789.31 464.759 789.548 467.215 788.818C469.432 788.159 471.678 788.023 473.973 787.787Z"/>
	<defs>
		<linearGradient id="gradient_8" gradientUnits="userSpaceOnUse" x1="534.25" y1="762.75" x2="536.42401" y2="767.68903">
			<stop offset="0" stop-color="#FEFEFE" stop-opacity="0.89019608"/>
			<stop offset="1" stop-color="#FEFEFE" stop-opacity="0.92941177"/>
		</linearGradient>
	</defs>
	<path fill="url(#gradient_8)" transform="scale(0.5 0.5)" d="M533.414 762.176L534.23 761.57C535.123 761.905 535.891 762.212 536.682 762.75L535.943 766.347C534.365 766.632 531.43 769.777 530.016 770.722C528.489 771.743 526.629 771.796 525 772.553C523.136 773.42 522.029 774.789 519.912 775.315C518.19 775.743 516.818 776.296 515.483 777.505C512.453 780.251 510.825 779.221 507.5 780.694C505.895 781.405 504.415 783.148 502.75 784.072C501.311 784.158 500.269 784.334 499.002 783.497L498.755 782.25C499.825 781.147 501.167 779.755 502.605 779.163C505.279 778.064 509.98 777.644 511.924 775.224C512.687 774.276 514.769 774.077 515.989 773.711C517.996 773.109 518.482 772.198 520.09 771.135C522.127 769.789 525.033 768.207 527.25 767.061C529.46 765.919 531.607 765.417 532.946 763.058L533.414 762.176Z"/>
	<defs>
		<linearGradient id="gradient_9" gradientUnits="userSpaceOnUse" x1="471.25" y1="718.75" x2="475.81299" y2="745.74597">
			<stop offset="0" stop-color="#FEFEFE" stop-opacity="0.14901961"/>
			<stop offset="1" stop-color="#FEFEFC" stop-opacity="0.4627451"/>
		</linearGradient>
	</defs>
	<path fill="url(#gradient_9)" transform="scale(0.5 0.5)" d="M473.879 712.429C481.406 712.165 488.935 711.731 496.464 712.224C503.137 712.66 509.579 713.921 516.094 715.355C520.358 716.293 524.619 717.059 528.601 718.93C516.049 726.625 505.168 736.25 491.556 742.332C487.653 744.639 483.052 746.147 478.85 747.84L477.44 747.057C476.586 746.657 476.116 746.627 475.443 745.9C474.599 744.991 474.773 743.869 474.848 742.723C474.912 741.74 474.99 741.437 474.625 740.503L474 740.755L473.745 740.25L474.407 739.627L473.015 739.257C470.566 738.771 468.401 739.918 466.499 741.282C465.793 741.788 465.351 741.679 464.5 741.745L464 741.25C463.181 742.23 463.688 741.909 462.5 742.245L461.755 741.75C460.968 742.279 461.441 742.161 460.301 741.728C457.281 740.581 453.394 738.764 450.125 738.803C447.618 738.834 445.155 739.576 442.658 739.72L442 739.755C441.499 740.502 440.981 741.092 440.375 741.753C438.372 741.709 436.476 741.906 434.75 740.755C435.35 739.849 435.714 739.667 436.625 739.125C438.441 739.004 438.489 738.993 440 740L441.245 739.25C441.196 737.775 441.2 737.756 440.25 736.63L434.982 736.976C433.931 736.993 432.744 736.841 431.778 737.329L431.25 737.685L430.547 738.086L430 738.407L429.75 737.953C429.386 737.222 429.157 737.154 428.506 736.678L433.036 733.858C437.362 730.608 442.132 727.666 446.667 724.687C455.508 718.879 463.125 713.577 473.879 712.429ZM473.879 712.429C463.125 713.577 455.508 718.879 446.667 724.687C442.132 727.666 437.362 730.608 433.036 733.858L433.923 733.924C435.091 733.991 435.484 733.477 436.501 733.25L437.311 733.25L437.511 732.57L438.75 731.634L439.122 731.758C440.154 732.001 441.332 731.817 442.384 731.75C444.553 730.142 446.077 729.102 448.691 728.389C451.487 727.627 453.678 725.965 456.352 724.989C458.586 724.173 464.678 723.34 466.215 721.963C467.448 720.859 468.136 717.852 469.413 716.975C469.961 716.598 474.497 715.338 475.122 715.39C475.917 715.455 477.665 716.532 478.471 716.85C480.262 717.554 482.154 717.629 484.046 717.55C487.078 717.423 490.109 717.231 493.137 717.033C494.461 716.947 495.843 716.486 497.111 716.75C498.994 716.013 500.929 715.098 502.926 714.75L503.5 714.233C506.223 714.149 508.724 714.497 511.397 714.904C512.303 715.042 513.155 715.744 513.9 716.25C513.959 717.847 514.276 720.779 513.868 722.25C513.578 723.293 512.274 724.387 511.849 725.578C511.096 727.69 507.724 729.48 505.756 730.25C503.631 731.081 498.033 732.16 496.613 733.536C496.147 733.987 495.947 735.013 495.467 735.424C493.709 736.927 492.425 736.448 491.43 739C491.167 739.675 491.031 741.109 491.221 741.774L491.556 742.332C505.168 736.25 516.049 726.625 528.601 718.93C524.619 717.059 520.358 716.293 516.094 715.355C509.579 713.921 503.137 712.66 496.464 712.224C488.935 711.731 481.406 712.165 473.879 712.429Z"/>
	<defs>
		<linearGradient id="gradient_10" gradientUnits="userSpaceOnUse" x1="763.25" y1="710.75" x2="778.987" y2="804.22998">
			<stop offset="0" stop-color="#0093F0"/>
			<stop offset="1" stop-color="#004AFF"/>
		</linearGradient>
	</defs>
	<path fill="url(#gradient_10)" transform="scale(0.5 0.5)" d="M515.928 781.646C517.009 781.614 518.079 781.545 519.114 781.219L521.766 780.5L522.5 780.25C523.678 779.907 524.67 779.297 525.875 779.125L525.625 779.625L524.75 780L524.625 780.997L526.125 780.125L526.625 780.497C527.433 779.964 527.894 779.765 528.875 779.625L529.375 779.997L530 779.593C530.649 779.162 531.301 778.844 532 778.5L532.625 778.964L534.5 778L535.25 778.667C535.871 778.158 536.307 777.864 537 777.5L537.625 777.953L538.125 777.75C539.122 777.916 538.622 777.875 539.625 777.875C540.181 777.387 539.887 777.592 540.5 777.25C542.061 777.473 542.468 777.285 543.867 776.549L544.625 776.145C545.723 776.482 545.962 776.149 547 775.75L547.625 775.875L548.007 775.25L548.5 775.25L549.375 775.375L550.375 774.596L551.25 775L552.625 774.091L553.25 774.5L553.75 773.369L554.5 774L555.564 773.044L556.125 773.375C556.777 772.966 557.003 773.041 557.75 773L558.75 771.755L559 772.25L559.875 772.375L561.125 771.503L561.625 771.875L561.878 771.5L562.25 770.755L562.5 771.25L563 771.25C563.695 770.732 563.322 770.984 564.125 770.503L564.625 770.875L565.25 770.255L566 770.5L566.625 770.003L567.125 770.375L567.378 770L567.75 769.255L568 769.75L568.5 769.75C569.006 769.373 569.34 769.003 569.997 769.003L571 770.378L571.625 770.125C572.883 770.285 573.005 770.094 574.125 769.625C575.404 769.788 575.141 769.743 576.125 769.125C576.774 769.207 577.342 769.254 578 769.25L578.625 768.625C580.065 768.809 580.573 767.997 582.125 768.125L583 768.255L583.625 767.625L584.625 767.625C585.827 767.708 585.603 767.697 586.625 767.125L587.5 767.255L588 766.75L589.5 766.75L590.125 766.125C590.774 766.207 591.342 766.254 592 766.25L592.5 765.75C593.346 765.756 594.203 765.845 595.003 765.503L596.5 764.75C597.24 764.573 597.772 764.771 598.5 764.255L599 763.75C599.961 763.754 599.444 763.856 600.5 763.25C598.23 763.248 595.635 763.876 594 762.25C594.695 761.732 594.322 761.984 595.125 761.503L595.625 761.875L596.5 761.5L597.125 761.003L597.75 761L598.75 759.755L599.125 760.375L599.625 760.003L600.5 759.75C600.91 759.564 601.21 759.176 601.625 759.003L602.5 758.75C602.91 758.564 603.239 758.234 603.625 758.003L604.125 758.375L605.25 757.255L606.25 757.5L607.25 756.255L607.625 756.875C608.542 756.482 608.351 756.679 608.93 756.104L609.25 755.755L610.245 756.75C610.303 757.573 610.314 757.938 609.935 758.704L609.625 759.253L610.5 758.75L611 758.75L611.625 758.125L612.5 758.255L613.25 757.755L614 757.75L614.5 757.25L615 757.25L615.5 756.75L617 756.75L617.5 756.25L618 756.25L619.25 755.755L620 755.75C620.787 754.963 620.414 755.041 621.625 755.125L622.5 755.255L623.125 754.625L624.125 754.625C624.842 754.622 625.52 754.608 626.234 754.69C627.375 754.822 627.482 754.763 628.375 754.125C632.635 754.125 636.896 754.125 641.156 754.125C643.175 754.125 645.357 753.776 647 755L647.75 754.255L648.5 755L649.125 754.503C649.72 754.895 649.358 754.703 650.25 755L651.25 753.755L652 754.5L652.75 753.755L653.5 754.5L654.25 753.755L655 754.5L655.75 753.755L656.5 754.5L657.25 753.755L658 754.5L658.75 753.755L659.5 754.5L660.25 753.755L661 754.5L661.75 753.755L662.5 754.5L663.25 753.755L664 754.5L664.75 753.755L665.5 754.5L666.25 753.755L667 754.5L667.75 753.755L668.5 754.5L669.25 753.755L670 754.5L670.75 753.755L671.5 754.5L672.125 754.003L672.625 754.375L673.25 753.755L674 754L674.75 753.255L675.5 754L676.25 753.255L677 754L677.625 753.503L678.125 753.875C679.042 753.482 678.851 753.679 679.43 753.104L679.75 752.755L680.5 753.5L681.125 753.003L681.625 753.375L681.878 753L682.25 752.255L683 753L683.625 752.503L684.125 752.875L685 752.5L685.625 752.003L686.125 752.375L686.378 752L686.75 751.255C687.119 751.985 686.825 751.692 687.75 752L688.75 750.755L689 751.25L689.5 751.25C690.195 750.732 689.822 750.984 690.625 750.503L691.125 750.875L691.378 750.5L691.75 749.755L692 750.25L692.5 750.25C693.195 749.732 692.822 749.984 693.625 749.503L694.125 749.875L694.378 749.5L694.75 748.755L695.375 749.375C696.427 748.924 696.118 749.209 696.805 748.354L697.25 747.755L697.625 748.375L697.878 748L698.25 747.255L698.625 747.875L699.5 747.25C700.268 746.688 699.736 747.036 700.625 746.503L701.25 746.5L702.25 745.255L702.625 745.875L702.878 745.5L703.25 744.755L703.625 745.375L704.5 744.75C705.268 744.188 704.736 744.536 705.625 744.003L706.25 744L707.25 742.755L707.75 743.5L708.003 742.503L708.375 742.503L709 742.878C711.818 742.739 713.708 742.102 716 740.5C716.818 739.928 717.666 739.53 718.5 739L719.5 738.25C720.327 737.852 720.933 737.816 721.75 737.271L722.5 736.755C723.348 736.26 723.983 736.047 724.767 735.394L726.75 733.755C727.466 733.268 728.084 732.948 728.767 732.379L730.503 731.003L731.25 731L732.125 730.003L732.75 730C732.757 728.976 732.831 729.174 733.503 728.503L734.25 728.5L734.75 727.755C735.206 727.525 735.59 727.431 735.878 727L736.25 726.255L736.75 727L737.002 726.003C737.669 726.003 738.015 726.57 738.5 727L739.125 726.503C739.861 727.051 739.419 726.903 740.5 726.755C742.441 724.557 745.675 723.049 747.878 721C749.434 719.552 751.445 718.381 753.25 717.255C753.987 716.795 754.587 716.445 755.267 715.879L757.003 714.503C758.019 714.028 758.145 713.548 759.003 713.003C760.064 712.327 760.588 711.962 761.503 711.003L762.5 710.755L763.25 710.255C764.83 710.236 766.459 710.093 767.997 710.503L768.625 711.875L769.625 711.003L770.122 711.5L770.25 712.5L770.75 711.255C771.536 712.041 771.245 712.923 771.245 714C772.363 714 772.45 714.66 773.245 714.75C773.513 714.78 774.038 714.184 774.25 714.255C775.022 714.513 775.334 715.461 776.5 715.755L777.25 715.255L778 715L778.5 714.25C779.17 713.421 779.575 713.379 780.559 713.2C762.014 738.21 740.094 760.131 715.704 779.425L706.531 786.388C675.805 807.809 642.842 825.101 606.11 833.682C593.606 836.604 580.895 838.327 568.194 840.104C561.381 840.471 554.571 841.357 547.75 841.472C522.245 841.9 496.733 838.696 471.674 834.149L474.323 833.75C475.228 832.147 475.6 830.692 475.997 828.901C476.187 821.951 459.602 803.075 455.018 796.127C471.669 796.177 488.677 792.267 504.223 786.54C508.065 785.124 511.671 783.176 515.515 781.791L515.928 781.646ZM616.549 786.869C615.888 786.306 614.957 785.6 614.513 784.836C613.808 783.625 613.701 781.443 614.044 780.113C614.348 778.935 614.043 778.249 613.655 777.141C613.232 776.709 613.186 776.624 612.596 776.25C608.593 773.712 599.658 771.704 595.13 773.126C589.655 774.845 582.79 779.957 578.8 784.068L579.469 784.343C587.148 787.6 595.079 800.291 603.971 797.221C607.949 795.847 613.918 790.148 616.549 786.869ZM613.655 777.141C614.043 778.249 614.348 778.935 614.044 780.113C613.701 781.443 613.808 783.625 614.513 784.836C614.957 785.6 615.888 786.306 616.549 786.869C619.391 784.955 621.917 784.114 625.21 783.375C621.571 780.897 617.651 778.964 613.655 777.141Z"/>
	<defs>
		<linearGradient id="gradient_11" gradientUnits="userSpaceOnUse" x1="598.75" y1="773.75" x2="600.422" y2="795.237">
			<stop offset="0" stop-color="#FEFEFE" stop-opacity="0.74901962"/>
			<stop offset="1" stop-color="#FEFEFE" stop-opacity="0.88627452"/>
		</linearGradient>
	</defs>
	<path fill="url(#gradient_11)" transform="scale(0.5 0.5)" d="M616.549 786.869C613.918 790.148 607.949 795.847 603.971 797.221C595.079 800.291 587.148 787.6 579.469 784.343L578.8 784.068C582.79 779.957 589.655 774.845 595.13 773.126C599.658 771.704 608.593 773.712 612.596 776.25C613.186 776.624 613.232 776.709 613.655 777.141C614.043 778.249 614.348 778.935 614.044 780.113C613.701 781.443 613.808 783.625 614.513 784.836C614.957 785.6 615.888 786.306 616.549 786.869Z"/>
	<path fill="#FFFDFD" transform="scale(0.5 0.5)" d="M831.092 0L870.913 0L871.293 0.462727C873.58 3.1226 876.563 3.80822 879.716 4.98105C883.917 6.54348 888.114 8.10532 892.278 9.76204C904.717 14.7101 915.355 20.9993 925.992 29.0941C943.815 42.6572 955.282 58.5137 962.985 79.5561C964.41 83.4469 965.644 87.4158 966.917 91.358C967.508 93.1851 968.024 95.5413 969.048 97.1698C970.751 99.8798 975.531 102.103 978.25 104.011C980.772 105.782 983.076 107.814 985.327 109.912C999.1 122.749 1010.69 140.346 1015.13 158.839C1017.82 170.052 1018.1 183.056 1017.41 194.519C1017.12 199.29 1016.86 204.141 1015.75 208.805C1014.22 215.189 1011.2 221.834 1008.16 227.635C1001.36 240.632 992.358 252.981 981.367 262.77C974.187 269.166 966.505 273.545 957.717 277.381C951.111 280.265 944.752 282.759 937.677 284.271C924.031 287.189 909.956 286.528 896.088 286.512C883.046 286.496 869.999 286.542 856.957 286.409C849.188 286.33 839.261 284.684 831.89 287.29C823.033 288.72 813.799 288.48 804.844 288.517C792.933 288.565 781.02 288.546 769.11 288.484C764.082 288.458 756.734 287.264 752.044 288.627C751.369 288.16 750.275 287.099 749.568 286.834C746.332 285.623 740.453 286.022 736.927 285.914C729.592 285.688 722.275 285.574 715 284.519C701.811 282.607 689.167 279.359 677.217 273.309C672.713 271.029 668.813 267.71 664.969 264.475C654.789 255.906 645.646 245.925 637.392 235.497C635.516 233.127 633.84 230.617 632.037 228.193C631.517 227.493 630.626 225.95 629.991 225.5C629.533 225.176 628.951 225.08 628.431 224.869C628.583 224.33 628.862 223.81 628.885 223.25C628.939 221.927 627.348 218.968 626.786 217.572C625.617 214.67 624.67 211.617 623.947 208.572C622.055 200.612 621.94 192.177 622.305 184.043C623.015 168.227 625.82 152.732 634.203 139.052C643.103 125.98 654.19 114.773 667.859 106.681C675.809 101.974 684.388 98.1532 693.465 96.2451C706.549 93.495 720.354 95.0158 733.156 98.2492C733.351 98.2985 735.025 98.6675 735.13 98.556C735.505 98.1585 736.077 95.3935 736.265 94.7512C737.679 89.9141 738.814 84.9987 740.226 80.1683C742.759 71.5029 746.04 63.6517 751.163 56.2023C765.309 35.6329 783.98 19.006 807.161 9.25C814.674 6.08811 823.769 4.52983 830.666 0.270621L831.092 0Z"/>
</svg>
